<svg width="36" height="36" viewBox="0 0 36 36" fill="none" xmlns="http://www.w3.org/2000/svg">
<path d="M21.1946 17.0104C21.7796 14.5504 19.6346 12.4053 17.1746 12.9903C16.0196 13.2753 15.0746 14.2203 14.7896 15.3753C14.2046 17.8353 16.3496 19.9803 18.8096 19.3953C19.9796 19.1103 20.9246 18.1654 21.1946 17.0104Z" stroke="#29AD26" stroke-width="1.5" stroke-linecap="round" stroke-linejoin="round"/>
<path d="M27.0144 25.785C29.5794 23.385 31.1844 19.98 31.1844 16.185C31.1844 8.89497 25.2744 3 17.9994 3C10.7244 3 4.81445 8.90997 4.81445 16.185C4.81445 19.995 6.43445 23.43 9.02945 25.83" stroke="#29AD26" stroke-width="1.5" stroke-linecap="round" stroke-linejoin="round"/>
<path d="M11.9997 21.8247C10.6197 20.3547 9.76465 18.3747 9.76465 16.1847C9.76465 11.6397 13.4547 7.94971 17.9997 7.94971C22.5447 7.94971 26.2347 11.6397 26.2347 16.1847C26.2347 18.3747 25.3797 20.3397 23.9997 21.8247" stroke="#29AD26" stroke-width="1.5" stroke-linecap="round" stroke-linejoin="round"/>
</svg>
