<svg width="101" height="32" viewBox="0 0 101 32" fill="none" xmlns="http://www.w3.org/2000/svg">
<path d="M1.54897 9.8848C1.47524 9.8848 1.40151 9.8848 1.32778 9.8848C3.39227 4.88871 7.96367 1.21511 13.4198 0.333446C13.3461 0.553861 13.3461 0.774277 13.3461 1.06817C13.3461 2.68455 14.6733 4.00704 16.2954 4.00704C16.7378 4.00704 17.1064 3.93357 17.4751 3.71315C17.9912 4.44787 18.5074 5.25606 18.9497 5.99078C18.2124 6.50509 17.77 7.38675 17.77 8.34188C17.77 8.5623 17.77 8.78272 17.8438 9.00313C14.3784 10.9134 11.4291 13.4849 9.06964 16.5707C8.77472 16.4973 8.47979 16.4238 8.18486 16.4238C7.52127 16.4238 6.85768 16.6442 6.34156 17.0116C5.45677 16.2769 4.57199 15.4687 3.83467 14.587C4.20333 14.0727 4.49826 13.4115 4.49826 12.7502C4.49826 11.2073 3.17108 9.8848 1.54897 9.8848Z" fill="#31AD73"/>
<path d="M18.5072 2.97858C18.9496 2.46428 19.1708 1.80303 19.1708 1.06831C19.1708 0.847896 19.1708 0.627478 19.097 0.480534C22.7099 1.21525 25.8804 3.12553 28.1661 5.84399C26.3965 5.99093 24.7007 6.35829 23.0786 6.87259C22.5624 6.0644 21.6039 5.5501 20.5717 5.5501C20.4242 5.5501 20.203 5.5501 20.0555 5.62357C19.6869 4.66843 19.097 3.78677 18.5072 2.97858Z" fill="#43C640"/>
<path d="M6.11976 21.5668C5.30871 23.2567 4.71886 25.02 4.27646 26.8568C1.62211 23.9914 0 20.2443 0 16.0564C0 15.836 0 15.6156 0 15.3952C0.442392 15.6156 0.958517 15.7626 1.47464 15.7626C1.91703 15.7626 2.35943 15.6891 2.72809 15.4687C3.53914 16.4238 4.49766 17.3055 5.45617 18.1137C5.23498 18.481 5.16125 18.9219 5.16125 19.4362C5.23498 20.3178 5.52991 21.0525 6.11976 21.5668Z" fill="#128D5D"/>
<path d="M17.7697 30.4571C17.7697 30.9714 17.9172 31.4122 18.1384 31.8531C17.4748 31.9265 16.8112 32 16.0739 32C12.0186 32 8.25827 30.4571 5.45646 27.959C5.82512 25.9753 6.4887 24.065 7.29976 22.2282C7.59469 22.3017 7.88961 22.3752 8.18454 22.3752C9.06933 22.3752 9.80665 22.0078 10.3965 21.42C13.1246 22.8895 16.1476 23.9181 19.3181 24.3589C19.4656 25.3875 20.2029 26.2692 21.1614 26.5631C21.0877 26.857 20.9402 27.1509 20.8665 27.5182C20.7927 27.5182 20.7927 27.5182 20.719 27.5182C19.0232 27.5182 17.7697 28.8407 17.7697 30.4571Z" fill="#31AD73"/>
<path d="M11.1338 19.4362C11.1338 18.628 10.7652 17.8198 10.2491 17.3055C12.461 14.4401 15.2628 12.0155 18.4333 10.2522C18.9494 10.9134 19.8342 11.3542 20.719 11.3542C20.8665 11.3542 21.0877 11.3542 21.2351 11.2808C21.9725 13.6319 22.3411 16.2034 22.3411 18.7749C22.3411 19.5096 22.3411 20.1709 22.2674 20.8321H22.1936C20.8665 20.8321 19.6868 21.7138 19.3918 22.9628C16.4425 22.522 13.567 21.5669 11.0601 20.1709C11.0601 20.0239 11.1338 19.7301 11.1338 19.4362Z" fill="#31AD73"/>
<path d="M28.0922 26.4161C26.8388 27.8855 25.2904 29.1346 23.5946 30.0897C23.4471 29.1346 22.8573 28.3264 22.0462 27.8855C22.1937 27.5182 22.2674 27.1508 22.4149 26.7835C23.6683 26.71 24.7006 25.8283 24.9955 24.6528C25.5853 24.6528 26.1015 24.5793 26.6176 24.5058C26.8388 25.314 27.3549 26.0487 28.0922 26.4161Z" fill="#43C640"/>
<path d="M32 16.0566C32 17.8934 31.7051 19.6567 31.1152 21.3466C30.6728 21.0527 30.1567 20.9057 29.5668 20.9057C28.1659 20.9057 26.9862 21.8609 26.6913 23.1834C26.1752 23.2568 25.5853 23.3303 25.0692 23.3303C24.9217 22.4486 24.3319 21.6405 23.5208 21.2731C23.5945 20.4649 23.5945 19.6567 23.5945 18.8485C23.5945 16.0566 23.1521 13.3381 22.4148 10.8401C23.1521 10.3258 23.6683 9.44411 23.6683 8.48898C23.6683 8.34203 23.6683 8.26856 23.6683 8.12162C25.4378 7.60731 27.2811 7.23995 29.1982 7.09301C30.9677 9.59106 32 12.7504 32 16.0566Z" fill="#43C640"/>
<path d="M17.352 1.10208C17.352 1.71074 16.8568 2.20416 16.246 2.20416C15.6352 2.20416 15.14 1.71074 15.14 1.10208C15.14 0.493418 15.6352 0 16.246 0C16.8568 0 17.352 0.493418 17.352 1.10208Z" fill="#128D5D"/>
<path d="M2.59807 12.8076C2.59807 13.4163 2.1029 13.9097 1.49209 13.9097C0.881271 13.9097 0.386106 13.4163 0.386106 12.8076C0.386106 12.199 0.881271 11.7055 1.49209 11.7055C2.1029 11.7055 2.59807 12.199 2.59807 12.8076Z" fill="#128D5D"/>
<path d="M9.24377 19.4066C9.24377 20.0152 8.74861 20.5086 8.13779 20.5086C7.52697 20.5086 7.03181 20.0152 7.03181 19.4066C7.03181 18.7979 7.52697 18.3045 8.13779 18.3045C8.74861 18.3045 9.24377 18.7979 9.24377 19.4066Z" fill="#128D5D"/>
<path d="M21.8098 8.41221C21.8098 9.02087 21.3146 9.51429 20.7038 9.51429C20.093 9.51429 19.5978 9.02087 19.5978 8.41221C19.5978 7.80355 20.093 7.31013 20.7038 7.31013C21.3146 7.31013 21.8098 7.80355 21.8098 8.41221Z" fill="#128D5D"/>
<path d="M23.284 23.8136C23.284 24.4223 22.7888 24.9157 22.178 24.9157C21.5672 24.9157 21.072 24.4223 21.072 23.8136C21.072 23.205 21.5672 22.7115 22.178 22.7115C22.7888 22.7115 23.284 23.205 23.284 23.8136Z" fill="#128D5D"/>
<path d="M30.6434 23.8603C30.6434 24.4689 30.1482 24.9623 29.5374 24.9623C28.9266 24.9623 28.4314 24.4689 28.4314 23.8603C28.4314 23.2516 28.9266 22.7582 29.5374 22.7582C30.1482 22.7582 30.6434 23.2516 30.6434 23.8603Z" fill="#128D5D"/>
<path d="M21.8098 30.4708C21.8098 31.0795 21.3146 31.5729 20.7038 31.5729C20.093 31.5729 19.5978 31.0795 19.5978 30.4708C19.5978 29.8622 20.093 29.3688 20.7038 29.3688C21.3146 29.3688 21.8098 29.8622 21.8098 30.4708Z" fill="#128D5D"/>
<path d="M84.4321 23.0699L91.0121 14.9779V16.5739L84.7961 8.92993H88.9401L93.0001 14.1659H91.7401L95.8001 8.92993H99.9161L93.7561 16.5739V14.9779L100.308 23.0699H96.1361L91.7401 17.4419H93.0001L88.5761 23.0699H84.4321Z" fill="#3C4251"/>
<path d="M75.4592 23.0699V12.5419C75.4592 11.9446 75.4405 11.3379 75.4032 10.7219C75.3845 10.1059 75.3379 9.50857 75.2632 8.9299H78.6512L79.0432 12.7939H78.4832C78.6699 11.8606 78.9779 11.0859 79.4072 10.4699C79.8552 9.8539 80.3965 9.39657 81.0312 9.0979C81.6659 8.79924 82.3565 8.6499 83.1032 8.6499C83.4392 8.6499 83.7099 8.66857 83.9152 8.7059C84.1205 8.72457 84.3259 8.77124 84.5312 8.8459L84.5032 11.9259C84.1485 11.7766 83.8405 11.6832 83.5792 11.6459C83.3365 11.6086 83.0285 11.5899 82.6552 11.5899C81.8525 11.5899 81.1712 11.7579 80.6112 12.0939C80.0698 12.4299 79.6592 12.8966 79.3792 13.4939C79.1179 14.0912 78.9872 14.7726 78.9872 15.5379V23.0699H75.4592Z" fill="#3C4251"/>
<path d="M65.3011 23.3499C63.8451 23.3499 62.5851 23.0512 61.5211 22.4539C60.4571 21.8566 59.6265 21.0072 59.0291 19.9059C58.4505 18.8046 58.1611 17.4979 58.1611 15.9859C58.1611 14.4739 58.4505 13.1766 59.0291 12.0939C59.6265 10.9926 60.4571 10.1432 61.5211 9.5459C62.5851 8.94857 63.8451 8.6499 65.3011 8.6499C66.7571 8.6499 68.0171 8.94857 69.0811 9.5459C70.1638 10.1432 70.9945 10.9926 71.5731 12.0939C72.1705 13.1766 72.4691 14.4739 72.4691 15.9859C72.4691 17.4979 72.1705 18.8046 71.5731 19.9059C70.9945 21.0072 70.1638 21.8566 69.0811 22.4539C68.0171 23.0512 66.7571 23.3499 65.3011 23.3499ZM65.3011 20.6619C66.4025 20.6619 67.2798 20.2792 67.9331 19.5139C68.5865 18.7299 68.9131 17.5539 68.9131 15.9859C68.9131 14.4179 68.5865 13.2512 67.9331 12.4859C67.2798 11.7206 66.4025 11.3379 65.3011 11.3379C64.1998 11.3379 63.3225 11.7206 62.6691 12.4859C62.0158 13.2512 61.6891 14.4179 61.6891 15.9859C61.6891 17.5539 62.0158 18.7299 62.6691 19.5139C63.3225 20.2792 64.1998 20.6619 65.3011 20.6619Z" fill="#3C4251"/>
<path d="M48.104 23.0699L42 8.92993H45.724L50.148 19.9899H49.28L53.816 8.92993H57.316L51.184 23.0699H48.104Z" fill="#3C4251"/>
</svg>
