<svg width="236" height="246" viewBox="0 0 236 246" fill="none" xmlns="http://www.w3.org/2000/svg">
<path d="M113.499 103.397C114.426 103.921 115.468 104.228 116.451 104.627C116.249 104.545 116.047 104.46 115.845 104.375C121.937 106.927 126.151 100.871 119.951 100.367C118.79 100.149 116.89 99.7876 115.806 99.2048C115.74 99.14 115.677 99.0752 115.615 99.0071C115.507 98.8503 115.406 98.6834 115.311 98.513C115.294 98.4551 115.277 98.4006 115.259 98.3426C115.242 97.0714 120.627 70.4883 114.45 75.6686C111.387 78.2383 108.982 100.881 113.499 103.397Z" fill="#879194"/>
<path d="M128.673 114.778C125.513 112.996 120.888 112.88 117.544 113.709C117.258 113.728 116.968 113.728 116.679 113.702C114.168 113.184 110.342 112.029 108.084 114.669C104.518 118.83 110.675 118.515 113.269 116.841C115.949 118.571 117.768 117.678 120.375 116.909C120.425 116.909 120.475 116.909 120.521 116.913C122.04 117.318 133.914 117.693 128.673 114.778Z" fill="#879194"/>
<path d="M123.97 121.073C123.819 121.039 123.651 121.019 123.479 121.019C123.483 121.019 123.483 121.019 123.483 121.016C121.892 121.016 117.379 120.826 116.015 121.756C113.278 121.558 113.337 124.071 116.145 124.278C120.603 126.813 127.656 121.926 123.97 121.073Z" fill="#879194"/>
<path d="M127.996 70.8348C127.996 70.8348 127.996 70.8385 127.996 70.8422C128.086 70.828 128.18 70.8142 128.274 70.7967C131.301 71.5482 136.036 70.8742 139.02 69.6613C140.088 69.6376 141.338 69.7519 142.386 69.5233C142.856 69.48 143.305 69.2095 143.629 68.8321C143.878 68.8097 153.207 70.5695 153.283 70.5209C156.844 68.2918 154.496 66.0716 150.293 65.0942C150.33 65.1048 150.361 65.1111 150.397 65.1218C146.293 64.1641 142.667 64.3011 138.47 65.0449C138.443 65.0425 138.419 65.0368 138.395 65.0347C136.33 64.5713 128.448 64.642 127.015 67.0593C125.034 67.9253 125.812 71.2472 127.996 70.8348Z" fill="#879194"/>
<path d="M139.938 78.5432C139.925 78.5603 139.912 78.5774 139.898 78.5946C139.908 78.5774 139.925 78.5568 139.938 78.5396V78.5432ZM143.811 81.6041C144.27 80.5541 144.24 79.3187 143.934 78.2275C143.93 78.1829 143.914 78.1382 143.904 78.0936C144.609 78.3407 145.304 78.5912 146.026 78.7662C146.655 79.7922 147.174 81.1752 148.262 81.7894C149.486 82.716 150.917 81.5493 151 80.2075C150.87 78.6187 148.804 75.8803 147.207 75.6023C145.773 73.5811 140.584 73.9687 138.454 74.1643C137.699 73.581 136.588 74.1403 135.826 74.4355C132.566 68.1968 126.391 84.6171 130.204 79.6378C130.204 79.6413 130.204 79.6413 130.2 79.6447C130.347 79.456 130.493 79.274 130.643 79.0956C131.648 78.7284 132.652 78.3715 133.66 78.0249C133.318 83.965 140.87 88.3301 143.811 81.6041Z" fill="#879194"/>
<path d="M88.1499 65.4647C88.2253 65.4561 88.2973 65.448 88.3734 65.446C91.943 65.7556 95.483 66.4463 99.06 66.7049C100.032 66.9386 101.111 66.9697 102.107 67.0571C102.71 67.1925 103.306 67.3288 103.906 67.4678C104.041 67.4859 104.174 67.4874 104.307 67.4688C111.014 69.0666 105.213 62.9965 100.914 63.4852C100.914 63.4852 100.914 63.4851 100.915 63.4884C100.796 63.4985 100.683 63.5216 100.565 63.5651C100.034 63.3646 99.4924 63.2691 98.9327 63.2792C95.3451 62.4902 91.552 59.8358 87.767 60.8712C81.6708 62.5372 81.2019 69.7382 87.9637 65.5494C88.0233 65.5192 88.0866 65.492 88.1499 65.4647Z" fill="#879194"/>
<path d="M97.8223 77.1232H97.8189C97.8223 77.1232 97.8223 77.1232 97.8223 77.1232ZM107.712 80.516C113.867 76.664 96.2138 69.5438 91.6535 71.2633C89.5484 72.0536 85.0663 75.3931 85.0017 78.2981C84.8724 84.2292 92.354 75.2933 92.4492 75.2364C92.7484 75.1403 93.0546 75.0797 93.364 75.0156C88.0317 81.9222 105.518 85.8348 102.202 76.4433C103.733 77.3974 105.307 81.9721 107.712 80.516Z" fill="#879194"/>
<path d="M156.814 160.127C156.347 159.841 155.867 159.722 155.373 159.769C155.264 159.551 155.165 159.323 155.076 159.092C155.696 159.31 156.293 159.585 156.861 159.926C156.848 159.994 156.824 160.059 156.814 160.127ZM151.414 112.542C138.728 139.242 110.73 148.368 92.8386 120.364C77.0049 95.5818 72.6956 58.5639 90.9582 34.1601C101.297 37.5325 116.981 46.1542 127.763 44.0388C136.122 42.4003 146.059 33.2301 153.465 40.5336C159.955 46.9377 160.115 66.4566 160.026 74.8603C159.893 87.8389 156.991 100.811 151.414 112.542ZM148.56 165.748C139.028 174.669 123.607 194.106 109.807 185.488C103.746 181.707 93.2099 172.779 90.2394 166.235C87.7594 160.771 90.4063 157.405 91.7417 151.226C93.5608 142.815 93.6289 133.877 91.9665 125.429C104.745 147.401 132.689 149.56 147.957 130.239C146.509 136.997 146.219 143.984 146.982 150.841C147.347 154.108 151.237 163.244 148.56 165.748ZM76.9947 47.8642C73.8641 54.5613 73.7483 61.65 73.9186 69.2294C56.276 36.0199 84.019 4.62617 118.262 7.04475C154.964 9.63365 178.064 35.6656 165.415 72.3599C165.589 62.9036 164.414 41.041 155.942 34.6403C146.144 27.2415 134.487 38.1457 125.109 38.6941C119.696 39.0075 113.82 34.705 108.751 33.1857C103.16 31.5098 96.9163 30.2529 91.0468 30.4504C82.9289 30.7264 86.9078 31.0363 83.7703 34.8584C81.8592 37.1884 78.3403 44.9858 76.9947 47.8642ZM77.3898 94.9788C74.0685 91.0376 69.1255 85.1886 69.5548 79.6054C69.6399 79.2069 69.7455 78.8186 69.8784 78.4371C69.9908 78.2157 70.11 78.0044 70.2429 77.7966C70.2838 77.7557 70.3247 77.7149 70.3656 77.674C70.3792 77.674 70.3928 77.6775 70.4064 77.6775C71.8678 77.9909 73.4996 79.1285 74.5011 80.2152C74.8213 80.6955 75.0496 81.2337 75.2744 81.7685C75.7752 86.541 76.62 91.1227 77.9826 95.7248C77.785 95.4762 77.5942 95.2207 77.3898 94.9788ZM170.123 76.6963C170.276 76.4102 170.379 76.1037 170.505 75.8039C170.586 75.93 170.661 76.056 170.73 76.1888C173.288 83.7239 165.497 91.7119 160.946 96.8795C161.266 95.5748 161.511 94.2566 161.692 92.9247C163.715 92.2263 166.189 82.3 167.081 79.9973C168.314 79.098 169.329 78.001 170.123 76.6963ZM83.1844 157.242C83.0379 157.559 82.8676 157.862 82.7041 158.168C82.4622 157.872 82.2203 157.576 81.9819 157.279C82.4009 157.225 82.8233 157.17 83.2423 157.106C83.2218 157.153 83.2014 157.198 83.1844 157.242ZM235.962 238.68C235.134 222.189 233.57 202.963 221.903 190.117C209.99 176.996 190.535 176.822 175.826 168.238C169.561 164.583 158.742 158.509 154.882 152.241C150.103 144.485 152.235 130.304 154.276 122.21C158.595 105.079 177.696 92.785 174.286 75.126C171.036 58.322 177.532 42.2674 168.457 25.8176C159.215 9.06133 140.241 1.97591 122.087 0.333984C103.971 -1.3045 85.7598 2.87523 73.9049 17.557C61.5119 32.8996 60.4967 55.3652 71.5169 71.791C53.4384 76.7985 74.5386 98.5931 78.8036 104.531C88.451 117.949 91.3023 135.785 85.1739 151.335C63.3992 162.369 34.2458 171.801 17.0427 189.675C11.4287 195.51 -11.3441 246.586 7.04786 245.884C14.1608 245.612 11.0744 221.998 11.7694 217.897C13.459 207.926 18.0409 198.872 25.5728 192.039C40.783 178.239 63.1437 175.207 77.1685 159.783C85.1773 168.776 104.826 195.421 117.938 195.033C131.646 194.628 150.065 172.755 158.439 163.465C168.049 172.397 179.423 178.91 191.789 183.199C202.567 186.936 213.403 188.939 220.118 199.158C227.391 210.219 226.362 223.742 227.895 236.275C229.023 245.506 236.602 251.42 235.962 238.68Z" fill="#879194"/>
</svg>
