<svg width="236" height="256" viewBox="0 0 236 256" fill="none" xmlns="http://www.w3.org/2000/svg">
<path d="M111.464 105.081C112.851 106.575 118.761 109.421 121.087 107.713C125.656 105.055 115.975 103.863 115.131 103.6C114.473 103.296 113.911 102.868 113.446 102.317C113.391 102.223 113.335 102.132 113.286 102.032C113.256 101.941 113.23 101.85 113.207 101.753C113.198 101.474 113.227 101.205 113.26 100.927C113.25 101.017 113.237 101.105 113.224 101.196C113.525 99.0404 115.634 77.4046 112.664 79.132C111.739 79.67 112.52 88.3749 112.452 88.8545C112.458 88.8156 112.465 88.7799 112.471 88.7411C112.364 89.5318 112.252 90.3226 112.148 91.1166C112.154 91.0777 112.161 91.042 112.167 91.0032C111.971 92.3708 111.804 93.7416 111.628 95.1125C111.631 95.0898 111.634 95.0639 111.637 95.0412C111.624 95.1417 111.611 95.2455 111.598 95.3459C111.608 95.2811 111.614 95.2195 111.624 95.1515C111.15 98.2562 108.877 102.369 111.464 105.081Z" fill="#879194"/>
<path d="M85.8933 75.0575C90.9446 76.5966 98.3776 74.2637 104.067 75.1639C104.749 75.4456 105.707 75.7789 106.206 74.9028C110.606 71.3709 89.3588 69.9485 86.5378 70.5944C84.1369 70.2646 83.5557 74.36 85.8933 75.0575Z" fill="#879194"/>
<path d="M126.469 78.3089C127.025 78.2567 127.578 78.1456 128.121 78.0084C129.204 79.269 137.374 76.9471 139.456 77.0647C141.495 77.6003 143.603 77.9758 145.551 78.7922C145.547 78.789 145.541 78.7857 145.535 78.7857C145.844 78.9229 146.159 78.962 146.481 78.8999C148.936 79.6217 148.045 77.241 147.71 76.2123C146.94 73.8546 140.994 72.5516 139.156 72.3132C139.228 72.323 139.296 72.3328 139.368 72.3426C136.558 71.9605 133.536 72.2054 130.794 72.8651C128.511 72.9075 124.381 73.3256 124.029 76.1765C124.101 77.499 124.917 78.211 126.469 78.3089Z" fill="#879194"/>
<path d="M106.797 84.1746C106.398 77.4276 98.8099 76.4754 93.7183 77.8646C84.5907 79.0157 87.9503 89.6498 91.5723 84.2138C91.9674 83.6529 92.4573 83.2159 93.0388 82.9061C93.2 85.0681 95.6968 86.1671 97.5236 85.6845C99.5148 86.0073 101.24 84.1159 101.003 82.1038C101.048 82.1332 101.092 82.156 101.136 82.1854C100.526 81.6734 103.042 84.1616 103.257 84.2757C103.728 86.066 106.958 86.8421 106.797 84.1746Z" fill="#879194"/>
<path d="M143.988 83.7446C143.122 82.4405 142.202 80.9667 140.544 80.7102C139.268 80.1431 138.036 79.576 136.659 79.3774C135.664 78.9294 134.588 78.9186 133.61 79.3484C132.457 79.4785 131.394 79.7638 130.294 80.1503C128.599 80.2984 120.85 85.8396 125.489 87.2375C126.826 86.9161 127.435 86.013 127.313 84.5284C128.091 84.8968 129.228 84.243 129.902 83.9359C129.631 85.2508 130.727 87.0822 131.834 87.6168C132.964 89.4446 134.585 89.8202 136.703 88.7438C138.327 88.3826 139.464 87.1183 139.769 85.4314C141.116 89.8492 146.645 87.0678 143.988 83.7446Z" fill="#879194"/>
<path d="M113.938 118.383C113.945 118.383 113.949 118.383 113.952 118.383C113.797 118.364 113.639 118.34 113.484 118.312C113.635 118.332 113.787 118.36 113.938 118.383ZM106.862 114.634C106.104 117.892 112.877 118.225 114.269 118.435C114.211 118.427 114.154 118.419 114.1 118.411C116.845 118.843 119.678 118.189 122.359 117.531C123.521 117.428 130.056 116.065 126.347 113.567C124.977 112.628 106.562 115.914 106.862 114.634Z" fill="#879194"/>
<path d="M117.622 120.486C115.922 120.247 111.146 119.533 112.094 123.208C113.661 129.257 121.953 121.062 117.622 120.486Z" fill="#879194"/>
<path d="M150.379 168.361C150.518 186.386 129.211 193.018 115.323 194.937C115.505 194.908 115.693 194.881 115.875 194.858C97.7516 196.913 81.711 182.936 78.2662 165.556C78.4348 165.206 78.6001 164.852 78.815 164.522C79.7241 163.464 80.3919 162.896 81.5721 162.315C81.9887 162.163 82.4119 162.034 82.845 161.921C83.3276 162.424 83.8863 162.771 84.5276 162.975C83.4763 167.142 93.5033 176.268 96.1415 178.258C102 182.672 109.471 185.187 116.84 185.041C129.152 184.803 143.354 173.794 144.855 161.234C144.944 161.165 145.03 161.085 145.113 161.003C146.806 162.097 148.581 162.189 150.379 163.435C150.396 163.451 150.412 163.465 150.426 163.481C150.445 163.511 150.459 163.547 150.479 163.574C150.541 163.828 150.617 164.076 150.693 164.32C150.697 164.895 150.634 165.47 150.558 166.039C150.571 165.953 150.581 165.873 150.588 165.787C150.472 166.65 150.373 167.486 150.379 168.361ZM70.9533 164.495C70.9533 164.502 70.95 164.509 70.9467 164.512C70.95 164.509 70.95 164.502 70.9533 164.495ZM75.0693 91.2766C73.1717 88.2797 70.4575 84.3575 70.8145 80.7063C70.8641 80.4684 70.9335 80.2437 71.0129 80.0124C71.0823 79.8736 71.1551 79.7415 71.2377 79.6093C71.4824 79.3119 71.7766 79.074 72.1138 78.8923C72.1964 78.8725 72.2724 78.856 72.3517 78.8395C72.5832 78.8229 72.8113 78.8196 73.0394 78.8329C73.1022 78.8461 73.1585 78.8725 73.2147 78.8857C73.7337 79.269 74.3023 79.5499 74.9173 79.7283C75.1983 80.4651 75.681 81.0203 76.3686 81.3969C76.1835 85.4711 76.276 89.4825 76.5967 93.5434C76.0016 92.8495 75.4958 92.0961 75.0693 91.2766ZM169.402 63.4251C169.402 63.4185 169.402 63.4152 169.405 63.4086C169.418 63.5242 169.435 63.6366 169.451 63.7522C169.425 63.6432 169.408 63.5341 169.402 63.4251ZM164.602 85.5569C162.294 90.771 158.403 95.3111 154.376 99.2762C154.875 95.7539 155.603 92.258 156.38 88.7885C157.791 86.1286 159.395 83.2704 162.188 81.8364C162.301 81.7967 162.416 81.7637 162.532 81.7307C162.757 81.7307 162.985 81.7439 163.21 81.7604C163.372 81.7934 163.524 81.8364 163.673 81.8893C163.874 81.9851 164.063 82.0908 164.248 82.2098C164.383 82.3353 164.512 82.4675 164.638 82.603C164.691 82.6922 164.74 82.788 164.787 82.8839C164.879 83.135 164.952 83.3894 165.012 83.6504C165.021 83.7958 165.021 83.9445 165.015 84.0932C164.916 84.5888 164.777 85.0745 164.602 85.5569ZM139.466 139.862C139.45 140.001 139.43 140.14 139.413 140.279C139.43 140.14 139.446 140.001 139.466 139.862ZM82.7292 99.5273C82.3788 97.6009 82.1408 95.6515 81.8796 93.7086C81.8962 93.854 81.9225 93.9927 81.939 94.1281C81.6316 91.5244 82.4615 82.9797 80.5771 81.0368C80.5771 76.2423 78.5571 69.5347 80.0646 65.0045C83.3111 58.8058 83.3044 57.94 83.8466 50.7038C83.873 50.598 83.8995 50.489 83.9293 50.3832C83.9491 50.3469 83.9723 50.3072 83.9954 50.2709C84.0384 50.2279 84.0814 50.1817 84.1276 50.1387C84.3524 49.9867 84.5838 49.8513 84.8252 49.729C87.8865 48.5725 92.1182 47.8621 93.7976 44.5876C96.1448 46.3553 98.5517 46.9237 101.425 46.9666C105.633 54.2723 110.562 55.2305 118.239 51.2655C123.095 59.5624 132.312 61.1023 136.164 50.4196C137.086 49.4283 138.17 48.6584 139.423 48.1C141.992 50.446 145.893 50.2973 148.657 48.3941C149.877 47.6738 150.955 46.7915 151.884 45.7375C151.963 45.6879 152.045 45.6284 152.128 45.5755C152.869 45.9522 153.503 46.4512 154.046 47.079C154.046 47.0823 154.049 47.0856 154.049 47.0889C150.67 52.2204 149.444 54.7614 152.479 60.6099C152.515 60.7387 152.555 60.8677 152.584 60.9998C152.945 67.6017 149.331 70.3971 154.565 76.1961C154.611 76.2754 154.661 76.358 154.707 76.4406C154.743 76.5727 154.78 76.7016 154.813 76.8371C154.826 77.1675 154.816 77.4946 154.799 77.8184C154.604 78.5255 154.512 79.2525 154.515 79.9926C152.912 80.7493 153.305 85.851 153.133 87.2058C153.15 87.0604 153.17 86.9249 153.186 86.7795C151.606 95.2285 148.978 103.76 145.999 111.803C142.091 122.36 136.818 125.704 128.626 132.851C125.591 134.595 118.063 135.177 115.938 137.43C113.792 136.462 111.296 136.158 109.111 135.256C109.154 135.276 109.203 135.296 109.25 135.316C109.101 135.253 108.952 135.193 108.807 135.127C108.909 135.174 109.012 135.213 109.117 135.256C100.73 131.74 92.862 125.089 88.3097 117.185C86.0616 111.532 83.8202 105.531 82.7292 99.5273ZM72.9997 70.906C73.0691 70.9952 73.142 71.0843 73.2147 71.1802C73.1387 71.0943 73.0659 71.0084 73.0031 70.9126C73.0031 70.9093 73.003 70.906 72.9997 70.906ZM145.311 43.5203C145.381 43.5269 145.457 43.5369 145.526 43.5468C145.526 43.5468 145.523 43.5468 145.523 43.5501C145.453 43.5435 145.381 43.5335 145.311 43.5203ZM117.951 50.7963C117.892 50.7698 117.829 50.7434 117.769 50.7203C117.829 50.7401 117.888 50.7632 117.944 50.7897L117.951 50.7963ZM152.356 45.4467C152.445 45.4302 152.541 45.4203 152.641 45.4203C152.538 45.4335 152.436 45.4434 152.337 45.4566C152.343 45.4533 152.35 45.45 152.356 45.4467ZM169.438 62.8932C169.432 62.9361 169.425 62.9857 169.418 63.0352C169.415 63.0319 169.415 63.0286 169.415 63.0253C169.422 62.979 169.428 62.9361 169.438 62.8932ZM96.0027 14.7767C102.294 12.5265 101.187 5.56111 108.665 5.59415C111.399 5.60406 113.828 8.62747 116.506 8.92154C121.002 9.41057 120.526 7.50731 124.517 7.24628C130.249 6.87289 127.34 4.86726 132.924 8.11864C136.745 10.3424 136.676 12.9131 141.364 14.2645C147.953 16.1611 153.579 12.6784 157.705 19.7C158.995 21.9006 157.451 25.1949 159.13 27.8912C160.446 30.0026 164.357 30.2736 165.362 32.6527C166.8 36.0627 164.099 37.0672 164.056 40.1005C164.006 43.5468 165.441 44.0259 166.149 47.0823C166.899 50.3337 168.595 49.4812 167.24 53.5751C166.618 55.4486 163.256 56.6514 162.294 58.8322C160.367 63.2302 167.458 77.2402 159.362 78.9617C158.234 71.7254 156.502 63.6829 156.707 56.3607C156.856 51.1763 161.345 41.7889 153.431 39.9749C151.044 39.4297 142.405 42.0202 139.863 42.7075C135.516 43.8838 135.856 42.5985 132.372 45.6285C130.957 46.8577 131.026 50.327 129.112 51.0077C123.386 53.053 124.285 46.6197 119.247 45.4302C116.51 44.7825 114.695 47.9051 112.159 47.6903C108.87 47.4095 108.913 46.1406 106.337 44.5909C101.468 41.6567 88.2833 30.1678 88.6039 42.6876C77.1256 37.4636 74.1535 68.094 75.2511 74.1804C73.5783 67.9156 69.4723 59.3212 70.2426 52.835C70.636 49.5208 73.5387 47.4689 74.233 44.3298C74.7752 41.8814 72.4906 37.9857 73.4527 35.7619C75.2709 31.5556 79.4134 30.0026 81.473 25.0033C85.2848 15.7679 86.574 18.1503 96.0027 14.7767ZM82.7888 161.869C82.7789 161.869 82.7722 161.872 82.7623 161.872C82.7689 161.872 82.7789 161.869 82.7888 161.869ZM83.4367 161.948C83.3541 161.911 83.2714 161.878 83.1888 161.842C83.1921 161.842 83.1954 161.842 83.1954 161.842C83.2781 161.872 83.3607 161.908 83.4367 161.948ZM140.141 159.351C139.876 160.92 140.296 162.47 139.797 164.026C137.992 167.74 133.869 171.18 130.755 173.668C130.808 173.628 130.861 173.592 130.907 173.552C130.722 173.698 130.537 173.843 130.352 173.989C130.481 173.886 130.613 173.784 130.742 173.685C117.095 184.278 97.7052 177.673 88.875 164.046C89.47 163.633 89.8701 163.21 90.0982 162.417C94.039 152.587 94.1547 140.655 92.072 130.313C97.1698 134.622 111.342 148.678 119.144 144.207C123.247 143.636 127.773 140.08 130.911 137.325C133.833 135.319 137 133.366 139.556 130.904C137.486 139.495 137.942 149.953 140.465 158.462C140.329 158.7 140.217 158.951 140.161 159.235C140.167 159.179 140.174 159.129 140.184 159.076C140.167 159.169 140.154 159.262 140.141 159.351ZM235.921 237.024C234.589 215.156 221.537 196.071 202.551 185.603C185.485 176.196 163.95 172.095 151.355 156.01C140.766 142.492 143.377 122.221 152.386 108.221C156.158 102.369 176.754 86.2905 166.575 78.9254C166.81 78.5718 166.972 78.1819 167.065 77.7557C174.083 77.5012 170.403 66.0553 169.458 63.1707C169.551 62.8105 169.65 62.4603 169.769 62.11C174.632 53.1786 176.43 51.0805 170.298 41.7427C170.542 41.2173 170.79 40.6985 171.009 40.1665C170.933 40.3549 170.847 40.5432 170.771 40.7348C171.214 39.6709 171.643 38.554 171.683 37.3909C172.774 32.3751 169.412 26.5299 165.243 23.9526C165.65 21.3257 165.355 18.7946 163.438 16.8319C158.945 8.26068 150.773 8.92815 142.66 8.41599C142.243 8.32677 141.843 8.21112 141.443 8.07564C141.099 7.89722 140.779 7.69894 140.461 7.48087C140.425 7.45113 140.399 7.41484 140.365 7.3851C139.76 6.20879 138.937 5.24718 137.903 4.50043C132.203 -2.62024 125.482 0.0991974 119.072 3.2085C118.92 3.26135 118.768 3.30759 118.616 3.34724C118.549 3.34724 118.49 3.34393 118.427 3.34393C118.272 3.30429 118.12 3.25806 117.971 3.20518C112.308 0.0562286 106.605 -1.14323 100.747 2.769C97.7615 4.30548 96.5879 7.12073 95.3846 10.078C93.8175 10.3424 92.2372 10.5307 90.6503 10.6364C88.4882 9.95575 86.865 10.4812 84.9409 11.479C78.8017 13.3393 76.3024 18.1602 74.8643 24.055C73.489 24.9571 72.2857 26.0376 71.2476 27.2965C63.7034 30.6867 65.4556 37.0044 67.0028 43.0644C66.9763 43.1767 66.9499 43.2858 66.9201 43.3981C66.8672 43.4906 66.8143 43.5765 66.7581 43.6624C61.7297 49.5671 59.961 54.7184 65.4555 61.198C65.5944 61.4062 65.7234 61.621 65.8457 61.8391C66.0606 62.4669 66.2225 63.1145 66.3514 63.7621C66.6853 68.9432 65.4622 73.0272 69.998 76.6322C61.8323 82.18 73.889 95.3672 77.6281 100.406C79.3505 108.713 82.7756 119.687 88.2635 126.295C88.3693 135.917 88.1973 145.85 85.1822 155.098C76.309 152.514 64.3414 166.524 58.06 171.011C48.0496 178.172 36.2408 182.279 26.1179 189.32C11.3733 199.583 -6.06243 223.39 2.07357 242.4C8.64253 238.322 9.19785 226.751 11.4162 220.185C14.1436 212.113 17.8198 204.708 24.2896 198.985C39.14 185.857 59.2139 181.387 75.1652 170.463C88.2535 207.801 142.987 208.624 154.832 169.696C172.146 181.939 195.463 183.568 211.067 198.493C219.2 206.264 223.573 216.494 226.76 227.098C227.689 230.187 228.585 241.425 231.445 243.156C236.308 246.114 236.123 240.335 235.921 237.024Z" fill="#879194"/>
<path d="M41.149 236.112C40.6019 234.339 40.0638 232.567 39.3716 230.851C38.7368 228.343 38.3407 219.972 33.9605 221.932C32.7181 221.098 30.59 222.151 31.0797 223.977C31.0434 224.142 31.0888 224.297 31.2187 224.446C32.7907 230.591 34.6799 237.491 36.9773 243.379C41.2306 250.85 41.7204 237.989 41.149 236.112Z" fill="#879194"/>
<path d="M198.102 237.101C198.688 236.528 199.256 235.955 199.824 235.382C199.274 235.955 198.67 236.528 198.102 237.101Z" fill="#879194"/>
<path d="M205.833 229.955C205.135 227.636 202.304 228.401 201.691 230.192C200.413 231.526 199.935 233.731 199.234 235.332C199.284 235.225 199.328 235.118 199.378 235.013C199.274 235.244 199.17 235.475 199.065 235.708C199.089 235.658 199.112 235.607 199.136 235.557C199.025 235.8 198.917 236.04 198.812 236.28C198.913 236.046 199.018 235.809 199.122 235.576C198.731 236.46 198.33 237.339 197.933 238.217C198.04 237.983 198.148 237.749 198.256 237.509C198.158 237.73 198.054 237.951 197.956 238.176C197.973 238.138 197.99 238.1 198.007 238.062C197.926 238.236 197.848 238.413 197.771 238.586C197.794 238.533 197.818 238.479 197.842 238.429C195.89 242.836 193.164 248.01 192.935 252.857C192.948 252.854 192.958 252.851 192.968 252.847C193.036 260.85 199.395 251.233 199.988 250.067C202.209 245.682 203.962 240.479 205.607 235.866C206.796 234.612 207.255 231.172 205.833 229.955Z" fill="#879194"/>
</svg>
