<svg width="236" height="273" viewBox="0 0 236 273" fill="none" xmlns="http://www.w3.org/2000/svg">
<path d="M104.556 119.316C104.591 119.326 104.626 119.336 104.661 119.351C104.952 119.523 105.278 119.618 105.643 119.636C109.172 120.616 125.87 120.524 118.9 117.442C118.078 117.08 100.538 115.543 103.75 118.738C103.916 118.999 104.203 119.21 104.556 119.316Z" fill="#879194"/>
<path d="M42.8988 260.431C41.4931 254.984 34.5773 211.778 30.0098 214.771C26.9215 216.788 34.6538 257.62 35.4623 263.268C36.8644 268.596 44.2645 265.816 42.8988 260.431Z" fill="#879194"/>
<path d="M206.276 225.169C198.505 221.126 180.76 268.568 190.73 271.216C198.509 273.283 208.995 226.574 206.276 225.169Z" fill="#879194"/>
<path d="M154.388 169.111C147.212 172.071 138.855 175.977 133.364 181.684C132.959 182.104 132.612 182.581 132.247 183.041C131.959 183.321 131.672 183.605 131.391 183.895C129.042 179.944 125.934 176.526 123.168 172.868C127.446 166.344 143.66 154.733 143.48 153.125C143.705 152.621 143.933 152.113 144.154 151.601C144.483 152.04 144.811 152.478 145.135 152.922C147.58 157.669 154.934 162.823 155.317 168.531C155.004 168.722 154.701 168.924 154.388 169.111ZM112.142 176.109C112.108 176.172 112.079 176.234 112.046 176.293C111.891 175.506 111.725 174.722 111.559 173.943C112.455 169.127 92.0511 158.64 88.9977 154.052C89.0604 153.92 89.1305 153.787 89.171 153.639C89.6541 152.485 89.6873 150.932 89.8569 149.674C89.8496 149.729 89.8422 149.785 89.8312 149.844C90.6978 143.481 90.3216 137.297 89.3186 130.978C96.6312 138.58 104.161 149.792 116.025 146.658C124.366 144.457 133.947 136.613 140.592 131.214C139.84 137.455 139.29 143.735 139.195 150.019C135.367 156.422 129.632 158.453 123.669 162.448C117.776 166.396 115.756 169.552 112.142 176.109ZM121.154 187.994C121.176 187.998 121.199 188.005 121.221 188.008C121.25 188.043 121.283 188.067 121.313 188.1C121.331 188.133 121.35 188.168 121.372 188.201C122.194 191.143 121.221 195.661 120.542 198.569C118.193 196.31 116.073 193.369 114.144 190.699C114.122 190.458 114.092 190.216 114.07 189.973C114.741 189.581 115.295 189.062 115.733 188.42C116.401 188.317 117.068 188.211 117.736 188.109C118.868 187.946 120.007 187.899 121.154 187.994ZM108.62 185.286C108.152 185.227 107.687 185.168 107.219 185.113C104.881 184.786 102.181 184.23 99.7473 184.286C101.846 182.739 103.977 181.246 106.039 179.649C106.488 180.852 106.909 182.166 107.746 183.163C107.93 183.847 108.177 184.59 108.638 185.132C108.631 185.183 108.627 185.234 108.62 185.286ZM103.951 197.244C103.28 198.072 102.598 198.871 101.787 199.569C101.635 199.675 101.488 199.76 101.326 199.85C101.289 199.857 101.248 199.867 101.211 199.878C100.968 199.886 100.728 199.881 100.489 199.867C100.264 199.824 100.039 199.767 99.8211 199.699C99.7141 199.642 99.6072 199.581 99.5039 199.522C99.4339 199.456 99.3638 199.39 99.2974 199.322C99.2532 199.246 99.2089 199.171 99.1684 199.095C99.0872 198.836 99.0282 198.579 98.9766 198.319C98.7627 195.6 98.6705 192.015 99.5187 189.333C99.5777 189.319 99.6367 189.303 99.6957 189.293C101.908 189.322 104.11 189.48 106.3 189.763C106.278 189.911 106.267 190.062 106.267 190.216C106.308 190.507 106.348 190.805 106.389 191.095C106.544 191.659 106.828 192.147 107.241 192.557L107.307 192.645C106.193 194.18 105.098 195.728 103.951 197.244ZM90.7199 183.413C87.3161 179.153 82.0833 175.807 77.8536 172.42C75.877 170.852 73.8008 169.203 72.1192 167.305C71.8979 166.691 71.7136 166.073 71.5845 165.429C71.5771 165.193 71.5808 164.965 71.5955 164.733C72.6502 159.009 78.1522 152.743 82.2198 148.585C83.4994 161.09 96.587 166.363 105.319 173.033C105.345 173.057 105.378 173.081 105.408 173.104C105.021 173.232 104.648 173.425 104.283 173.6C101.964 174.41 99.9575 176.239 98.1727 177.857C95.4917 179.373 92.7886 181.102 90.7199 183.413ZM79.1147 94.6237C79.4687 95.1208 79.8301 95.6168 80.2247 96.0811C82.9093 99.2413 86.7261 101.133 90.8711 101.327C92.6485 101.412 94.6546 101.044 96.4468 100.43C97.7191 99.9959 100.548 97.9392 101.923 98.6335C103.94 97.8763 107.174 96.0219 107.337 93.5788C107.259 94.7272 107.185 95.8784 107.045 97.0267C106.145 102.909 102.583 111.516 109.715 114.532C111.706 115.379 116.006 114.296 113.716 111.511C112.971 110.603 110.486 110.655 109.453 109.963C109.321 109.848 109.195 109.723 109.077 109.595C109.044 109.543 109.014 109.492 108.981 109.437C108.967 109.386 108.952 109.327 108.941 109.27C108.694 105.718 112.783 86.5807 109.177 85.7647C111.4 86.6871 114.653 86.1539 116.961 85.878C117.135 86.7345 117.393 87.5624 117.74 88.3546C119.967 105.893 147.134 102.388 149.723 86.5624C149.926 86.5436 150.132 86.5263 150.339 86.5031C146.688 98.1824 144.619 110.357 140.157 121.777C135.592 128.091 127.67 132.393 121.033 136.056C118.938 137.212 110.08 139.228 108.852 140.479C99.9428 134.629 92.3056 128.577 86.6155 119.157C84.3992 110.867 80.6857 103.083 79.1147 94.6237ZM102.742 92.4964C101.296 94.2742 99.397 95.7276 97.5716 96.3685C97.177 96.5079 96.7787 96.6099 96.3694 96.6919C94.2822 96.8314 91.9552 96.9822 89.9381 96.3928C87.3641 95.0719 84.5209 92.574 83.2117 89.944C81.2499 84.5615 85.0666 81.7605 85.9222 76.8493C86.0144 76.3117 86.0402 75.7599 86.2467 75.2554C86.5896 74.4206 87.7476 73.9202 88.5478 73.6185C89.5951 73.2219 90.6683 72.9632 91.7672 72.8352C101.694 71.6581 109.029 84.7628 102.742 92.4964ZM119.609 81.7976C119.797 79.8288 120.775 77.4932 121.914 75.9251C122.703 74.8919 123.655 74.0567 124.772 73.4231C125.62 73.2951 126.361 72.8896 126.985 72.2101C127.774 71.8896 128.574 71.6162 129.389 71.3664C132.996 71.3965 137.251 71.1824 140.588 72.805C149.616 81.1022 146.537 93.6303 134.058 95.4487C131.793 95.6569 129.33 95.6499 127.173 94.8592C122.371 92.4894 122.257 88.4322 120.295 84.1491C120.642 83.3945 120.409 82.6071 119.609 81.7976ZM77.2746 80.4955C77.6728 78.6963 77.6507 76.8592 77.2155 74.9909C76.8615 66.8662 78.6538 60.5756 79.8191 53.1107C80.2764 50.1698 81.6629 45.6369 82.9647 42.9031C84.591 39.4927 88.9166 37.0464 92.5969 37.9953C93.7512 38.2926 94.9128 37.6674 96.0486 37.3039C97.6933 36.7733 99.456 36.7807 101.178 36.6556C107.252 36.2071 112.746 33.2968 118.838 32.9362C122.806 32.7073 127.221 36.4459 131.012 37.6788C135.813 39.2425 140.773 39.882 145.777 40.3607C146.02 40.3839 146.279 40.4126 146.459 40.5708C146.68 40.7662 146.725 41.0896 146.751 41.3799C147.326 47.3371 148.03 50.6672 152.013 55.2763C152.183 55.5236 152.334 55.7782 152.466 56.0423C154.919 62.8708 152.647 72.9415 152.19 80.0529C151.891 80.6048 151.633 81.1754 151.36 81.7432C150.814 81.805 150.265 81.8683 149.715 81.9301C149.269 79.4911 148.373 77.243 147.023 75.1822C149.188 73.5409 146.754 72.7502 145.814 72.4371C145.471 72.2601 145.132 72.0735 144.803 71.8752C148.96 69.998 141.127 67.5145 140.341 67.2054C136.027 65.5052 129.441 66.5358 125.152 67.0619C124.886 67.0071 124.639 67.0402 124.411 67.1539C123.658 67.2529 122.921 67.4369 122.205 67.7029C121.962 67.7573 121.737 67.8938 121.564 68.0807C120.203 68.3048 118.813 68.64 117.71 69.498C115.962 71.6581 118.263 73.0666 120.317 72.4227C118.13 74.7955 116.932 77.8309 116.626 81.0647C113.985 80.8119 111.279 80.8189 108.642 80.6423C107.986 77.0921 106.171 73.663 103.369 71.3403C106.831 72.1755 109.782 68.7735 107.038 68.7879C105.489 68.6039 103.992 68.1208 102.484 67.7386C101.805 64.7436 87.4968 63.4084 84.3881 64.5493C83.256 64.4676 80.4423 64.0449 80.5935 66.1303C80.3206 66.1649 80.0514 66.2124 79.7859 66.293C74.07 68.5451 84.6647 69.6776 86.1029 69.6084C81.9506 71.7902 78.6869 76.0616 77.2746 80.4955ZM75.9618 36.302C75.9249 36.358 75.8991 36.4168 75.8622 36.4643C75.18 32.2894 76.762 27.3984 79.6752 24.3199C78.9562 26.8178 78.6353 30.5516 79.277 33.087C77.9826 33.9664 76.88 35.0371 75.9618 36.302ZM76.3268 52.6607C76.065 53.1364 75.7405 53.5706 75.4455 54.0217C75.0288 52.5945 74.3318 51.2997 73.3546 50.144C73.3472 49.6771 72.5396 43.6982 70.5077 45.2071C69.9582 42.6014 70.6072 40.0818 71.4812 37.6487C71.802 36.6887 72.1966 35.7586 72.6576 34.856C73.0595 37.6575 73.834 47.4577 74.8849 45.3609C75.4639 47.6016 76.5038 50.1816 76.36 52.5286C76.349 52.5731 76.3379 52.6176 76.3268 52.6607ZM73.7159 94.9987C70.4818 91.801 66.8827 88.5786 66.0935 83.8617C67.9964 83.3875 66.8274 78.7765 66.8679 77.2316C66.8864 77.2058 66.9011 77.1727 66.9196 77.1396C67.0191 77.0333 67.1224 76.9255 67.2293 76.8265C67.2551 76.8121 67.2772 76.8004 67.2994 76.786C67.9189 76.7603 68.5237 76.8335 69.11 77.0002C69.228 77.0664 69.3424 77.1352 69.453 77.2102C70.6367 78.2364 71.153 79.5267 71.6877 80.9628C68.6085 82.4158 71.1383 85.2415 73.1923 85.2529C74.0368 89.2111 74.8296 93.1704 75.6704 97.1331C75.062 96.3828 74.4092 95.6727 73.7159 94.9987ZM80.5455 17.1883C84.3955 12.3058 88.9719 9.09378 94.5145 6.39758C94.367 6.45938 94.2195 6.52231 94.0683 6.58411C94.4629 6.41599 94.8574 6.25372 95.2483 6.08853C95.241 6.09146 95.2336 6.09549 95.2262 6.09845C101.366 3.78159 106.964 3.29886 113.48 4.00861C115.925 4.34085 118.223 5.16135 120.432 6.2092C120.557 6.29382 120.686 6.35709 120.834 6.39758C122.751 7.31741 124.61 8.39801 126.568 9.24167C126.726 9.5434 126.844 9.86276 126.922 10.1976C126.627 10.0324 126.195 9.83368 125.871 9.89294C112.171 3.29886 92.5342 2.90479 83.1454 17.4238C81.5449 18.6313 79.8818 19.7867 78.344 21.0704C78.8529 19.6719 79.5867 18.3767 80.5455 17.1883ZM100.927 9.60263C109.25 7.17795 117.006 9.24463 124.654 12.8103C124.352 12.8364 124.057 12.9468 123.835 13.1782C123.503 13.5347 123.153 13.8883 122.777 14.2117C122.497 14.4115 122.198 14.5797 121.888 14.7276C115.756 16.7799 107.149 10.3297 100.927 9.60263ZM127.294 14.768C127.42 15.2794 127.512 15.8314 127.512 15.9193C127.497 16.6434 127.154 17.3837 126.804 17.9974C125.956 19.4735 124.403 20.4853 122.917 21.2282C120.055 22.6642 116.25 23.5322 113.06 22.8982C106.09 21.5229 101.27 15.9451 93.6811 17.2141C87.9541 18.1714 83.5952 23.5539 84.2664 29.4522C83.3666 27.2373 83.6395 24.6761 84.5799 22.4803C85.5166 20.2826 87.0654 18.4029 88.7248 16.6809C90.3548 14.9848 92.1802 13.3765 94.4038 12.6079C101.425 10.1759 109.04 15.9337 115.848 17.0375C118.532 17.4683 121.789 17.4539 124.388 16.6695C125.096 16.4594 125.819 16.136 126.232 15.5252C126.542 15.0624 126.535 14.3813 126.778 13.9071C126.937 13.598 127.143 14.1599 127.294 14.768ZM131.207 6.54401C130.79 6.69928 130.381 6.86743 129.997 7.086C129.887 6.77988 129.706 6.51825 129.459 6.29822C130.049 6.33133 130.632 6.41193 131.207 6.54401ZM155.442 22.148C158.577 26.3277 160.034 31.5778 160.867 36.66C160.185 34.313 150.457 18.1309 148.587 19.5695C143.904 14.8556 138.339 14.4071 132.369 12.5531C140.754 11.5269 150.132 15.5959 155.442 22.148ZM139.622 10.1214C139.733 10.1946 139.844 10.2564 139.954 10.3297C140.017 10.3712 140.094 10.3816 140.164 10.4117C137.856 10.0626 135.547 9.96173 133.228 10.2164C135.47 9.61957 137.373 9.48453 139.622 10.1214ZM157.441 34.2868C159.123 37.9805 159.787 42.6459 159.436 46.656C159.178 49.6109 155.959 54.3683 156.634 56.7668C157.349 59.2434 159.48 55.8658 159.827 55.0522C158.536 57.6348 158.728 59.8611 160.399 61.724C159.621 65.3069 157.736 68.7691 156.294 72.121C156.449 68.3048 156.792 64.4864 156.685 60.6676C157.541 60.3324 157.168 58.7875 156.722 58.2687C156.634 58.1396 156.571 58.0001 156.493 57.8636C156.387 56.7598 156.11 55.6932 155.664 54.6556C155.468 52.047 155.763 49.4784 156.036 46.8885C157.452 49.3276 158.05 36.5938 157.441 34.2868ZM127.759 25.3159C128.474 23.6529 129.042 21.924 129.511 20.1763C129.942 20.6907 130.421 21.1807 130.923 21.6263C136.882 26.9499 146.341 27.8624 150.261 35.3421C149.885 35.8911 150.497 41.5896 150.235 42.8085C150.202 41.4314 149.789 40.1955 148.996 39.0991C149.435 35.6295 129.964 29.6575 127.759 25.3159ZM126.457 27.7001C130.65 33.2567 136.971 34.0727 142.735 37.1199C139.648 36.8396 136.392 36.7402 133.423 35.7516C129.695 34.5371 126.682 32.502 123.131 30.9126C124.403 30.0229 125.568 28.9923 126.457 27.7001ZM83.1122 35.3347C83.8755 34.7799 84.7163 34.4193 85.6383 34.2497C86.1029 34.1978 86.5565 34.224 86.999 34.3229C87.3051 34.6548 87.6554 34.941 88.05 35.1809C84.1558 36.7075 79.6126 39.924 78.5726 44.1622C78.3846 43.3156 78.3477 42.4505 78.462 41.5752C78.5726 40.9715 78.7275 40.3868 78.934 39.8058C79.524 38.5541 80.3685 37.4879 81.4638 36.6082C82.3488 37.3223 84.6204 36.7377 83.1122 35.3347ZM82.3377 29.6101C82.4963 30.106 82.7213 30.5704 83.0126 31.0016C82.4705 31.1668 81.9616 31.3982 81.4822 31.6929C81.3347 29.7094 81.5449 27.7734 82.1054 25.8792C81.9985 27.1295 82.0722 28.3742 82.3377 29.6101ZM98.7037 25.6434C98.4972 25.9238 98.346 26.2542 98.3239 26.6265C98.3054 26.8623 98.287 27.0938 98.2686 27.3293C97.0184 26.7442 96.5059 28.0795 96.4137 28.9809C96.41 28.9923 96.4063 29.0037 96.4026 29.0137C96.3878 29.0438 96.3731 29.0729 96.3583 29.0942C96.3141 29.1461 96.2661 29.195 96.2145 29.2421C96.1076 29.3157 95.9933 29.379 95.8716 29.4408C95.3996 29.6174 94.9128 29.6763 94.4112 29.6219C93.9392 29.5299 93.5078 29.3371 93.1205 29.0541C93.0136 28.9621 92.9177 28.8742 92.8219 28.7679C92.5195 28.3554 92.3203 27.8985 92.2245 27.3984C92.2171 26.7214 92.4494 26.0632 92.8329 25.504C93.0063 25.3056 93.187 25.1246 93.3824 24.952C94.3191 24.2938 95.0308 24.1172 96.1813 24.2048C97.1881 24.4001 98.0141 24.9149 98.7037 25.6434ZM96.6829 22.332C89.4218 21.8794 88.1938 32.601 95.7831 31.7993C95.1082 32.2331 94.4629 32.5278 93.7549 32.8368C91.9405 32.1742 90.104 31.5892 88.2454 31.0748C87.9725 30.6925 87.7255 30.2988 87.5153 29.8717C86.0513 25.8719 89.4476 20.3459 93.5815 19.5839C102.712 18.8771 109.593 28.245 119.063 25.6077C120.432 26.5746 124.536 23.785 125.432 22.881C124.901 24.3788 124.37 25.7096 123.404 27.0305C123.36 27.0132 123.323 26.9786 123.275 26.9643C123.112 26.9426 122.947 26.9282 122.792 26.9054C121.084 26.9054 117.765 28.7679 116.689 29.0729C116.548 29.0655 116.309 29.1244 116.187 29.202C115.125 29.4736 114.052 29.6877 112.968 29.8459C104.718 30.6579 103.369 22.7518 96.6829 22.332ZM99.7437 32.6974C100.4 31.6856 101.008 30.3791 101.281 29.205C102.672 31.1624 104.338 32.7003 106.68 33.3887C105.268 33.8229 103.833 34.0212 102.373 33.9995C102.425 33.7754 102.443 33.5396 102.38 33.3225C102.03 31.9976 100.607 32.3957 99.7437 32.6974ZM151.578 48.2124C150.512 45.3984 152.275 41.7217 151.91 38.7856C154.996 41.0966 149.948 30.4972 148.307 29.0398C143.594 24.8457 133.276 23.9763 130.455 17.5231C130.458 17.5345 130.462 17.5459 130.466 17.5533C130.362 17.306 130.263 17.0632 130.152 16.8244C130.197 16.3244 130.197 15.82 130.167 15.3155C137.166 17.5562 143.177 18.0058 148.259 24.0727C151.847 28.3039 154.259 32.0866 155.454 37.5236C154.133 37.3885 153.348 50.6271 153.27 51.413C152.85 51.0164 152.448 50.6084 152.061 50.1815C152.721 49.4714 151.895 48.8044 151.578 48.2124ZM161.627 78.3729C161.877 78.4204 162.117 78.4822 162.357 78.5639C162.416 78.5926 162.475 78.6257 162.53 78.6632C162.663 78.7883 162.785 78.916 162.903 79.0569C163.058 79.281 163.194 79.5054 163.316 79.7438C165.654 86.8236 156.387 93.9468 152.419 98.4583C153.407 94.3147 154.307 90.1022 155.026 85.9037C155.723 85.6609 156.825 83.5225 156.589 82.847C157.526 81.9341 158.252 80.8995 158.769 79.7482C158.909 79.5716 159.034 79.3803 159.171 79.2037C159.702 78.7765 160.292 78.505 160.952 78.3759C161.177 78.3611 161.402 78.3611 161.627 78.3729ZM164.791 51.8818C164.894 54.1814 164.901 56.4691 164.794 58.7687C164.658 61.5874 164.046 64.2576 163.142 66.9181C162.578 66.7599 162.043 66.8592 161.531 67.2198C163.249 62.3447 163.57 56.9177 164.791 51.8818ZM235.93 266.493C233.422 245.532 229.794 224.188 220.585 204.996C219.136 201.975 217.517 199.025 215.541 196.31C211.37 190.577 205.735 186.375 199.289 183.486C187.031 177.991 173.114 175.406 161.649 168.214C162.195 159.615 150.8 153.099 146.773 146.624C146.087 145.516 145.106 144.412 143.808 144.32C143.609 144.306 143.391 144.309 143.251 144.17C143.118 144.033 143.115 143.816 143.122 143.625C143.328 137.848 143.553 132.087 144.095 126.329C145.253 123.801 146.043 121.145 146.898 118.502C148.842 114.282 150.276 109.815 151.132 105.249C157.194 106.964 176.414 75.8964 161.763 75.3474C162.652 73.8988 163.423 72.394 164.079 70.8259C167.291 63.2862 167.593 54.5636 165.632 46.6229C165.938 36.8223 162.648 23.2375 154.473 16.9856C154.79 12.556 141.171 6.45941 138.722 5.93326C133.42 3.29886 127.999 3.11487 122.246 3.48981C111.068 -2.66425 96.2035 -0.133209 85.9665 6.82437C83.492 8.50143 67.056 24.4263 73.6533 28.2664C73.5279 28.5755 73.4394 28.8959 73.3877 29.2278C72.5506 29.7138 71.9164 30.3835 71.4665 31.2029C71.4923 30.2212 72.8862 25.6434 72.1413 24.8862C66.7204 23.3552 67.1334 66.4839 67.7456 70.0712C63.2909 69.4678 61.5724 74.2076 62.7525 77.7577C61.447 84.1822 68.6122 100.992 76.7657 102.115C77.3041 105.18 78.0527 108.193 79.0041 111.155C78.7755 111.905 78.8824 112.616 79.3323 113.275C77.6765 116.277 83.6874 135.476 83.8054 140.104C83.5178 140.336 83.3076 140.634 83.1749 140.98C76.0097 146.587 66.0677 154.163 64.7844 163.783C60.0531 165.97 55.4103 168.368 50.6273 170.447C36.19 176.529 17.5045 181.574 11.5452 197.557C8.62975 202.373 7.14177 207.692 4.76911 212.734C2.4916 230.193 0.564416 246.374 0.000937784 264.111C-0.0753973 266.512 4.53274 263.531 4.95498 262.832C6.56097 260.153 6.20806 256.47 6.35815 253.509C7.44712 231.851 6.18814 203.185 25.4143 188.343C31.2556 183.833 38.0745 180.764 44.834 177.906C46.8585 177.048 65.5588 169.34 65.356 168.758C68.5274 177.736 81.6334 183.149 87.9098 190.338C88.2049 190.566 88.4999 190.794 88.7986 191.01C90.4359 191.942 92.7481 191.169 93.965 189.911C91.3947 205.541 101.348 208.282 109.516 195.404C116.146 203.539 124.108 211.244 126.372 196.876C127.232 191.437 125.801 181.677 117.85 183.583C118.378 181.691 119.24 179.896 120.387 178.3C121.918 180.581 123.444 182.864 124.975 185.147C125.683 186.206 126.402 187.284 126.715 188.512C126.955 189.444 126.959 190.444 127.383 191.305C129.466 195.588 134.799 188.88 136.266 187.376C140.057 183.475 143.314 180.826 148.299 178.59C152.935 176.51 157.438 174.663 160.823 170.705C160.111 171.533 178.354 181.043 180.002 181.758C187.264 184.889 194.735 187.828 201.384 192.163C205.709 194.981 208.217 199.246 210.437 203.767C214.659 212.35 220.984 221.056 222.651 230.615C224.251 239.785 225.147 249.061 226.349 258.299C226.331 258.137 226.309 257.974 226.287 257.816C226.526 259.63 226.725 261.452 226.961 263.266C226.954 263.188 226.943 263.115 226.936 263.04C227.164 264.848 226.884 272.526 230.73 272.957C234.883 273.417 236.354 270.073 235.93 266.493Z" fill="#879194"/>
<path d="M84.4082 83.424C84.4082 86.8232 98.0254 76.9451 96.3186 75.693C94.5538 74.3724 84.4082 82.4227 84.4082 83.424Z" fill="#879194"/>
<path d="M90.0642 88.578C87.5004 90.8853 95.7934 86.9143 97.4219 85.4323C98.3169 84.6224 103.837 81.033 103.324 79.6086C102.08 76.1664 90.7318 87.9733 90.0642 88.578Z" fill="#879194"/>
<path d="M126.661 80.698C128.493 80.698 133.396 77.6375 134.421 77.1663C134.678 77.0518 134.931 76.9473 135.206 76.8527C136.89 76.6536 135.825 75.5748 134.796 75.5471C134.587 75.5601 134.382 75.5779 134.181 75.6037C132.153 76.0419 122.844 80.698 126.661 80.698Z" fill="#879194"/>
<path d="M127.653 87.1217C125.736 89.0568 139.926 84.344 137.539 79.3166C136.477 77.107 128.252 86.5123 127.653 87.1217Z" fill="#879194"/>
<path d="M132.778 90.8321C134.14 92.1326 141.859 85.4827 141.218 84.4368C140.081 82.6043 131.467 89.583 132.778 90.8321Z" fill="#879194"/>
</svg>
