<svg width="1296" height="617" viewBox="0 0 1296 617" fill="none" xmlns="http://www.w3.org/2000/svg">
<path d="M550.42 586.504C550.57 586.272 550.503 585.963 550.271 585.813L546.492 583.37C546.261 583.22 545.951 583.286 545.801 583.518C545.651 583.75 545.718 584.06 545.95 584.209L549.309 586.381L547.137 589.74C546.987 589.972 547.053 590.282 547.285 590.432C547.517 590.582 547.827 590.515 547.977 590.283L550.42 586.504ZM421.188 613.886L421.293 614.375L421.188 613.886ZM196 0.5H193.583V1.5H196V0.5ZM188.75 0.5H183.917V1.5H188.75V0.5ZM179.083 0.5H174.25V1.5H179.083V0.5ZM169.417 0.5H164.583V1.5H169.417V0.5ZM159.75 0.5H154.917V1.5H159.75V0.5ZM150.083 0.5H145.25V1.5H150.083V0.5ZM140.417 0.5H135.583V1.5H140.417V0.5ZM130.75 0.5H125.917V1.5H130.75V0.5ZM121.083 0.5H116.25V1.5H121.083V0.5ZM111.417 0.5H106.583V1.5H111.417V0.5ZM101.75 0.5H96.9166V1.5H101.75V0.5ZM92.0833 0.5H87.25V1.5H92.0833V0.5ZM82.4166 0.5H77.5833V1.5H82.4166V0.5ZM72.75 0.5H67.9166V1.5H72.75V0.5ZM63.0833 0.5H58.25V1.5H63.0833V0.5ZM53.4167 0.5H51V1.5H53.4167V0.5ZM51 0.5C50.169 0.5 49.3427 0.520075 48.5215 0.559771L48.5697 1.5586C49.3749 1.51969 50.1851 1.5 51 1.5V0.5ZM43.588 1.04016C41.94 1.28258 40.3178 1.60461 38.7255 2.00222L38.9678 2.97243C40.5283 2.58275 42.1182 2.26713 43.7335 2.02952L43.588 1.04016ZM33.9818 3.43944C32.4186 3.99886 30.8909 4.63316 29.4033 5.338L29.8315 6.2417C31.2895 5.55088 32.7867 4.92923 34.3187 4.38096L33.9818 3.43944ZM25.0341 7.6781C23.6144 8.53087 22.2401 9.45143 20.9156 10.4353L21.5119 11.238C22.8102 10.2736 24.1574 9.37122 25.549 8.53535L25.0341 7.6781ZM17.0861 13.5816C15.8617 14.692 14.692 15.8617 13.5816 17.0861L14.3223 17.7579C15.4109 16.5576 16.5576 15.4109 17.7579 14.3223L17.0861 13.5816ZM10.4353 20.9156C9.45143 22.24 8.53087 23.6144 7.67811 25.0341L8.53536 25.549C9.37123 24.1574 10.2736 22.8102 11.2381 21.5119L10.4353 20.9156ZM5.338 29.4033C4.63316 30.8909 3.99887 32.4185 3.43944 33.9818L4.38097 34.3187C4.92923 32.7867 5.55088 31.2895 6.2417 29.8315L5.338 29.4033ZM2.00222 38.7255C1.60461 40.3178 1.28258 41.94 1.04016 43.588L2.02952 43.7335C2.26713 42.1182 2.58275 40.5283 2.97243 38.9678L2.00222 38.7255ZM0.559771 48.5215C0.520075 49.3427 0.5 50.169 0.5 51H1.5C1.5 50.1851 1.51969 49.3749 1.5586 48.5697L0.559771 48.5215ZM0.5 51V53.5196H1.5V51H0.5ZM0.5 58.5588V63.598H1.5V58.5588H0.5ZM0.5 68.6373V73.6765H1.5V68.6373H0.5ZM0.5 78.7157V83.7549H1.5V78.7157H0.5ZM0.5 88.7941V93.8333H1.5V88.7941H0.5ZM0.5 98.8725V103.912H1.5V98.8725H0.5ZM0.5 108.951V113.99H1.5V108.951H0.5ZM0.5 119.029V124.069H1.5V119.029H0.5ZM0.5 129.108V134.147H1.5V129.108H0.5ZM0.5 139.186V144.225H1.5V139.186H0.5ZM0.5 149.265V154.304H1.5V149.265H0.5ZM0.5 159.343V164.382H1.5V159.343H0.5ZM0.5 169.422V174.461H1.5V169.422H0.5ZM0.5 179.5V184.539H1.5V179.5H0.5ZM0.5 189.578V194.618H1.5V189.578H0.5ZM0.5 199.657V204.696H1.5V199.657H0.5ZM0.5 209.735V214.775H1.5V209.735H0.5ZM0.5 219.814V224.853H1.5V219.814H0.5ZM0.5 229.892V234.931H1.5V229.892H0.5ZM0.5 239.971V245.01H1.5V239.971H0.5ZM0.5 250.049V255.088H1.5V250.049H0.5ZM0.5 260.127V265.167H1.5V260.127H0.5ZM0.5 270.206V275.245H1.5V270.206H0.5ZM0.5 280.284V285.324H1.5V280.284H0.5ZM0.5 290.363V295.402H1.5V290.363H0.5ZM0.5 300.441V305.48H1.5V300.441H0.5ZM0.5 310.52V315.559H1.5V310.52H0.5ZM0.5 320.598V325.637H1.5V320.598H0.5ZM0.5 330.676V335.716H1.5V330.676H0.5ZM0.5 340.755V345.794H1.5V340.755H0.5ZM0.5 350.833V355.873H1.5V350.833H0.5ZM0.5 360.912V365.951H1.5V360.912H0.5ZM0.5 370.99V376.029H1.5V370.99H0.5ZM0.5 381.069V386.108H1.5V381.069H0.5ZM0.5 391.147V396.186H1.5V391.147H0.5ZM0.5 401.225V406.265H1.5V401.225H0.5ZM0.5 411.304V416.343H1.5V411.304H0.5ZM0.5 421.382V426.422H1.5V421.382H0.5ZM0.5 431.461V436.5H1.5V431.461H0.5ZM0.5 441.539V446.578H1.5V441.539H0.5ZM0.5 451.618V456.657H1.5V451.618H0.5ZM0.5 461.696V466.735H1.5V461.696H0.5ZM0.5 471.774V476.814H1.5V471.774H0.5ZM0.5 481.853V486.892H1.5V481.853H0.5ZM0.5 491.931V496.971H1.5V491.931H0.5ZM0.5 502.01V507.049H1.5V502.01H0.5ZM0.5 512.088V517.127H1.5V512.088H0.5ZM0.5 522.167V527.206H1.5V522.167H0.5ZM0.5 532.245V537.284H1.5V532.245H0.5ZM0.5 542.323V547.363H1.5V542.323H0.5ZM0.5 552.402V557.441H1.5V552.402H0.5ZM0.5 562.48V565H1.5V562.48H0.5ZM0.5 565C0.5 565.831 0.520075 566.657 0.559771 567.479L1.5586 567.43C1.51969 566.625 1.5 565.815 1.5 565H0.5ZM1.04016 572.412C1.28258 574.06 1.60461 575.682 2.00222 577.274L2.97243 577.032C2.58275 575.472 2.26713 573.882 2.02952 572.267L1.04016 572.412ZM3.43944 582.018C3.99886 583.581 4.63316 585.109 5.338 586.597L6.2417 586.169C5.55088 584.711 4.92923 583.213 4.38096 581.681L3.43944 582.018ZM7.67811 590.966C8.53087 592.386 9.45143 593.76 10.4353 595.084L11.238 594.488C10.2736 593.19 9.37123 591.843 8.53535 590.451L7.67811 590.966ZM13.5816 598.914C14.692 600.138 15.8617 601.308 17.0861 602.418L17.7579 601.678C16.5576 600.589 15.4109 599.442 14.3223 598.242L13.5816 598.914ZM20.9156 605.565C22.24 606.549 23.6144 607.469 25.0341 608.322L25.549 607.465C24.1574 606.629 22.8102 605.726 21.5119 604.762L20.9156 605.565ZM29.4033 610.662C30.8909 611.367 32.4185 612.001 33.9818 612.561L34.3187 611.619C32.7867 611.071 31.2895 610.449 29.8315 609.758L29.4033 610.662ZM38.7255 613.998C40.3178 614.395 41.9399 614.717 43.588 614.96L43.7335 613.971C42.1182 613.733 40.5283 613.417 38.9678 613.028L38.7255 613.998ZM48.5215 615.44C49.3427 615.48 50.169 615.5 51 615.5V614.5C50.1851 614.5 49.3749 614.48 48.5697 614.441L48.5215 615.44ZM51 615.5H53.4979V614.5H51V615.5ZM58.4936 615.5H63.4894V614.5H58.4936V615.5ZM68.4851 615.5H73.4808V614.5H68.4851V615.5ZM78.4766 615.5H83.4723V614.5H78.4766V615.5ZM88.4681 615.5H93.4638V614.5H88.4681V615.5ZM98.4595 615.5H103.455V614.5H98.4595V615.5ZM108.451 615.5H113.447V614.5H108.451V615.5ZM118.443 615.5H123.438V614.5H118.443V615.5ZM128.434 615.5H133.43V614.5H128.434V615.5ZM138.425 615.5H143.421V614.5H138.425V615.5ZM148.417 615.5H153.413V614.5H148.417V615.5ZM158.408 615.5H163.404V614.5H158.408V615.5ZM168.4 615.5H173.396V614.5H168.4V615.5ZM178.391 615.5H183.387V614.5H178.391V615.5ZM188.383 615.5H193.379V614.5H188.383V615.5ZM198.374 615.5H203.37V614.5H198.374V615.5ZM208.366 615.5H213.362V614.5H208.366V615.5ZM218.357 615.5H223.353V614.5H218.357V615.5ZM228.349 615.5H233.345V614.5H228.349V615.5ZM238.34 615.5H243.336V614.5H238.34V615.5ZM248.332 615.5H253.328V614.5H248.332V615.5ZM258.323 615.5H263.319V614.5H258.323V615.5ZM268.315 615.5H273.311V614.5H268.315V615.5ZM278.306 615.5H283.302V614.5H278.306V615.5ZM288.298 615.5H293.294V614.5H288.298V615.5ZM298.289 615.5H303.285V614.5H298.289V615.5ZM308.281 615.5H313.276V614.5H308.281V615.5ZM318.272 615.5H323.268V614.5H318.272V615.5ZM328.264 615.5H333.259V614.5H328.264V615.5ZM338.255 615.5H343.251V614.5H338.255V615.5ZM348.247 615.5H353.242V614.5H348.247V615.5ZM358.238 615.5H363.234V614.5H358.238V615.5ZM368.229 615.5H373.225V614.5H368.229V615.5ZM378.221 615.5H383.217V614.5H378.221V615.5ZM388.212 615.5H393.208V614.5H388.212V615.5ZM398.204 615.5H403.2V614.5H398.204V615.5ZM408.195 615.5H410.693V614.5H408.195V615.5ZM410.693 615.5C411.584 615.5 412.474 615.476 413.362 615.429L413.309 614.431C412.438 614.477 411.566 614.5 410.693 614.5V615.5ZM418.669 614.866C419.548 614.726 420.423 614.562 421.293 614.375L421.083 613.397C420.23 613.581 419.372 613.741 418.511 613.879L418.669 614.866ZM421.293 614.375L423.77 613.843L423.561 612.866L421.083 613.397L421.293 614.375ZM428.725 612.78L433.679 611.716L433.469 610.738L428.515 611.802L428.725 612.78ZM438.633 610.652L443.588 609.589L443.378 608.611L438.423 609.675L438.633 610.652ZM448.542 608.525L453.496 607.462L453.286 606.484L448.332 607.548L448.542 608.525ZM458.451 606.398L463.405 605.335L463.195 604.357L458.241 605.42L458.451 606.398ZM468.359 604.271L473.313 603.207L473.103 602.23L468.149 603.293L468.359 604.271ZM478.268 602.144L483.222 601.08L483.012 600.102L478.058 601.166L478.268 602.144ZM488.176 600.017L493.131 598.953L492.921 597.975L487.966 599.039L488.176 600.017ZM498.085 597.889L503.039 596.826L502.829 595.848L497.875 596.912L498.085 597.889ZM507.993 595.762L512.948 594.699L512.738 593.721L507.784 594.784L507.993 595.762ZM517.902 593.635L522.856 592.571L522.646 591.594L517.692 592.657L517.902 593.635ZM527.811 591.508L532.765 590.444L532.555 589.466L527.601 590.53L527.811 591.508ZM537.719 589.381L542.674 588.317L542.464 587.339L537.509 588.403L537.719 589.381ZM547.628 587.253L550.105 586.722L549.895 585.744L547.418 586.276L547.628 587.253Z" fill="#9F9F9F"/>
<path d="M745.58 586.504C745.43 586.272 745.497 585.963 745.729 585.813L749.508 583.37C749.739 583.22 750.049 583.286 750.199 583.518C750.349 583.75 750.282 584.06 750.05 584.209L746.691 586.381L748.863 589.74C749.013 589.972 748.947 590.282 748.715 590.432C748.483 590.582 748.173 590.515 748.023 590.283L745.58 586.504ZM874.812 613.886L874.707 614.375L874.812 613.886ZM1100 0.5H1102.42V1.5H1100V0.5ZM1107.25 0.5H1112.08V1.5H1107.25V0.5ZM1116.92 0.5H1121.75V1.5H1116.92V0.5ZM1126.58 0.5H1131.42V1.5H1126.58V0.5ZM1136.25 0.5H1141.08V1.5H1136.25V0.5ZM1145.92 0.5H1150.75V1.5H1145.92V0.5ZM1155.58 0.5H1160.42V1.5H1155.58V0.5ZM1165.25 0.5H1170.08V1.5H1165.25V0.5ZM1174.92 0.5H1179.75V1.5H1174.92V0.5ZM1184.58 0.5H1189.42V1.5H1184.58V0.5ZM1194.25 0.5H1199.08V1.5H1194.25V0.5ZM1203.92 0.5H1208.75V1.5H1203.92V0.5ZM1213.58 0.5H1218.42V1.5H1213.58V0.5ZM1223.25 0.5H1228.08V1.5H1223.25V0.5ZM1232.92 0.5H1237.75V1.5H1232.92V0.5ZM1242.58 0.5H1245V1.5H1242.58V0.5ZM1245 0.5C1245.83 0.5 1246.66 0.520075 1247.48 0.559771L1247.43 1.5586C1246.63 1.51969 1245.81 1.5 1245 1.5V0.5ZM1252.41 1.04016C1254.06 1.28258 1255.68 1.60461 1257.27 2.00222L1257.03 2.97243C1255.47 2.58275 1253.88 2.26713 1252.27 2.02952L1252.41 1.04016ZM1262.02 3.43944C1263.58 3.99886 1265.11 4.63316 1266.6 5.338L1266.17 6.2417C1264.71 5.55088 1263.21 4.92923 1261.68 4.38096L1262.02 3.43944ZM1270.97 7.6781C1272.39 8.53087 1273.76 9.45143 1275.08 10.4353L1274.49 11.238C1273.19 10.2736 1271.84 9.37122 1270.45 8.53535L1270.97 7.6781ZM1278.91 13.5816C1280.14 14.692 1281.31 15.8617 1282.42 17.0861L1281.68 17.7579C1280.59 16.5576 1279.44 15.4109 1278.24 14.3223L1278.91 13.5816ZM1285.56 20.9156C1286.55 22.24 1287.47 23.6144 1288.32 25.0341L1287.46 25.549C1286.63 24.1574 1285.73 22.8102 1284.76 21.5119L1285.56 20.9156ZM1290.66 29.4033C1291.37 30.8909 1292 32.4185 1292.56 33.9818L1291.62 34.3187C1291.07 32.7867 1290.45 31.2895 1289.76 29.8315L1290.66 29.4033ZM1294 38.7255C1294.4 40.3178 1294.72 41.94 1294.96 43.588L1293.97 43.7335C1293.73 42.1182 1293.42 40.5283 1293.03 38.9678L1294 38.7255ZM1295.44 48.5215C1295.48 49.3427 1295.5 50.169 1295.5 51H1294.5C1294.5 50.1851 1294.48 49.3749 1294.44 48.5697L1295.44 48.5215ZM1295.5 51V53.5196H1294.5V51H1295.5ZM1295.5 58.5588V63.598H1294.5V58.5588H1295.5ZM1295.5 68.6373V73.6765H1294.5V68.6373H1295.5ZM1295.5 78.7157V83.7549H1294.5V78.7157H1295.5ZM1295.5 88.7941V93.8333H1294.5V88.7941H1295.5ZM1295.5 98.8725V103.912H1294.5V98.8725H1295.5ZM1295.5 108.951V113.99H1294.5V108.951H1295.5ZM1295.5 119.029V124.069H1294.5V119.029H1295.5ZM1295.5 129.108V134.147H1294.5V129.108H1295.5ZM1295.5 139.186V144.225H1294.5V139.186H1295.5ZM1295.5 149.265V154.304H1294.5V149.265H1295.5ZM1295.5 159.343V164.382H1294.5V159.343H1295.5ZM1295.5 169.422V174.461H1294.5V169.422H1295.5ZM1295.5 179.5V184.539H1294.5V179.5H1295.5ZM1295.5 189.578V194.618H1294.5V189.578H1295.5ZM1295.5 199.657V204.696H1294.5V199.657H1295.5ZM1295.5 209.735V214.775H1294.5V209.735H1295.5ZM1295.5 219.814V224.853H1294.5V219.814H1295.5ZM1295.5 229.892V234.931H1294.5V229.892H1295.5ZM1295.5 239.971V245.01H1294.5V239.971H1295.5ZM1295.5 250.049V255.088H1294.5V250.049H1295.5ZM1295.5 260.127V265.167H1294.5V260.127H1295.5ZM1295.5 270.206V275.245H1294.5V270.206H1295.5ZM1295.5 280.284V285.324H1294.5V280.284H1295.5ZM1295.5 290.363V295.402H1294.5V290.363H1295.5ZM1295.5 300.441V305.48H1294.5V300.441H1295.5ZM1295.5 310.52V315.559H1294.5V310.52H1295.5ZM1295.5 320.598V325.637H1294.5V320.598H1295.5ZM1295.5 330.676V335.716H1294.5V330.676H1295.5ZM1295.5 340.755V345.794H1294.5V340.755H1295.5ZM1295.5 350.833V355.873H1294.5V350.833H1295.5ZM1295.5 360.912V365.951H1294.5V360.912H1295.5ZM1295.5 370.99V376.029H1294.5V370.99H1295.5ZM1295.5 381.069V386.108H1294.5V381.069H1295.5ZM1295.5 391.147V396.186H1294.5V391.147H1295.5ZM1295.5 401.225V406.265H1294.5V401.225H1295.5ZM1295.5 411.304V416.343H1294.5V411.304H1295.5ZM1295.5 421.382V426.422H1294.5V421.382H1295.5ZM1295.5 431.461V436.5H1294.5V431.461H1295.5ZM1295.5 441.539V446.578H1294.5V441.539H1295.5ZM1295.5 451.618V456.657H1294.5V451.618H1295.5ZM1295.5 461.696V466.735H1294.5V461.696H1295.5ZM1295.5 471.774V476.814H1294.5V471.774H1295.5ZM1295.5 481.853V486.892H1294.5V481.853H1295.5ZM1295.5 491.931V496.971H1294.5V491.931H1295.5ZM1295.5 502.01V507.049H1294.5V502.01H1295.5ZM1295.5 512.088V517.127H1294.5V512.088H1295.5ZM1295.5 522.167V527.206H1294.5V522.167H1295.5ZM1295.5 532.245V537.284H1294.5V532.245H1295.5ZM1295.5 542.323V547.363H1294.5V542.323H1295.5ZM1295.5 552.402V557.441H1294.5V552.402H1295.5ZM1295.5 562.48V565H1294.5V562.48H1295.5ZM1295.5 565C1295.5 565.831 1295.48 566.657 1295.44 567.479L1294.44 567.43C1294.48 566.625 1294.5 565.815 1294.5 565H1295.5ZM1294.96 572.412C1294.72 574.06 1294.4 575.682 1294 577.274L1293.03 577.032C1293.42 575.472 1293.73 573.882 1293.97 572.267L1294.96 572.412ZM1292.56 582.018C1292 583.581 1291.37 585.109 1290.66 586.597L1289.76 586.169C1290.45 584.711 1291.07 583.213 1291.62 581.681L1292.56 582.018ZM1288.32 590.966C1287.47 592.386 1286.55 593.76 1285.56 595.084L1284.76 594.488C1285.73 593.19 1286.63 591.843 1287.46 590.451L1288.32 590.966ZM1282.42 598.914C1281.31 600.138 1280.14 601.308 1278.91 602.418L1278.24 601.678C1279.44 600.589 1280.59 599.442 1281.68 598.242L1282.42 598.914ZM1275.08 605.565C1273.76 606.549 1272.39 607.469 1270.97 608.322L1270.45 607.465C1271.84 606.629 1273.19 605.726 1274.49 604.762L1275.08 605.565ZM1266.6 610.662C1265.11 611.367 1263.58 612.001 1262.02 612.561L1261.68 611.619C1263.21 611.071 1264.71 610.449 1266.17 609.758L1266.6 610.662ZM1257.27 613.998C1255.68 614.395 1254.06 614.717 1252.41 614.96L1252.27 613.971C1253.88 613.733 1255.47 613.417 1257.03 613.028L1257.27 613.998ZM1247.48 615.44C1246.66 615.48 1245.83 615.5 1245 615.5V614.5C1245.81 614.5 1246.63 614.48 1247.43 614.441L1247.48 615.44ZM1245 615.5H1242.5V614.5H1245V615.5ZM1237.51 615.5H1232.51V614.5H1237.51V615.5ZM1227.51 615.5H1222.52V614.5H1227.51V615.5ZM1217.52 615.5H1212.53V614.5H1217.52V615.5ZM1207.53 615.5H1202.54V614.5H1207.53V615.5ZM1197.54 615.5H1192.54V614.5H1197.54V615.5ZM1187.55 615.5H1182.55V614.5H1187.55V615.5ZM1177.56 615.5H1172.56V614.5H1177.56V615.5ZM1167.57 615.5H1162.57V614.5H1167.57V615.5ZM1157.57 615.5H1152.58V614.5H1157.57V615.5ZM1147.58 615.5H1142.59V614.5H1147.58V615.5ZM1137.59 615.5H1132.6V614.5H1137.59V615.5ZM1127.6 615.5H1122.6V614.5H1127.6V615.5ZM1117.61 615.5H1112.61V614.5H1117.61V615.5ZM1107.62 615.5H1102.62V614.5H1107.62V615.5ZM1097.63 615.5H1092.63V614.5H1097.63V615.5ZM1087.63 615.5H1082.64V614.5H1087.63V615.5ZM1077.64 615.5H1072.65V614.5H1077.64V615.5ZM1067.65 615.5H1062.66V614.5H1067.65V615.5ZM1057.66 615.5H1052.66V614.5H1057.66V615.5ZM1047.67 615.5H1042.67V614.5H1047.67V615.5ZM1037.68 615.5H1032.68V614.5H1037.68V615.5ZM1027.69 615.5H1022.69V614.5H1027.69V615.5ZM1017.69 615.5H1012.7V614.5H1017.69V615.5ZM1007.7 615.5H1002.71V614.5H1007.7V615.5ZM997.711 615.5H992.715V614.5H997.711V615.5ZM987.719 615.5H982.724V614.5H987.719V615.5ZM977.728 615.5H972.732V614.5H977.728V615.5ZM967.736 615.5H962.741V614.5H967.736V615.5ZM957.745 615.5H952.749V614.5H957.745V615.5ZM947.753 615.5H942.758V614.5H947.753V615.5ZM937.762 615.5H932.766V614.5H937.762V615.5ZM927.771 615.5H922.775V614.5H927.771V615.5ZM917.779 615.5H912.783V614.5H917.779V615.5ZM907.788 615.5H902.792V614.5H907.788V615.5ZM897.796 615.5H892.8V614.5H897.796V615.5ZM887.805 615.5H885.307V614.5H887.805V615.5ZM885.307 615.5C884.416 615.5 883.526 615.476 882.638 615.429L882.691 614.431C883.562 614.477 884.434 614.5 885.307 614.5V615.5ZM877.331 614.866C876.452 614.726 875.577 614.562 874.707 614.375L874.917 613.397C875.77 613.581 876.628 613.741 877.489 613.879L877.331 614.866ZM874.707 614.375L872.23 613.843L872.439 612.866L874.917 613.397L874.707 614.375ZM867.275 612.78L862.321 611.716L862.531 610.738L867.485 611.802L867.275 612.78ZM857.367 610.652L852.412 609.589L852.622 608.611L857.577 609.675L857.367 610.652ZM847.458 608.525L842.504 607.462L842.714 606.484L847.668 607.548L847.458 608.525ZM837.549 606.398L832.595 605.335L832.805 604.357L837.759 605.42L837.549 606.398ZM827.641 604.271L822.687 603.207L822.897 602.23L827.851 603.293L827.641 604.271ZM817.732 602.144L812.778 601.08L812.988 600.102L817.942 601.166L817.732 602.144ZM807.824 600.017L802.869 598.953L803.079 597.975L808.034 599.039L807.824 600.017ZM797.915 597.889L792.961 596.826L793.171 595.848L798.125 596.912L797.915 597.889ZM788.007 595.762L783.052 594.699L783.262 593.721L788.216 594.784L788.007 595.762ZM778.098 593.635L773.144 592.571L773.354 591.594L778.308 592.657L778.098 593.635ZM768.189 591.508L763.235 590.444L763.445 589.466L768.399 590.53L768.189 591.508ZM758.281 589.381L753.326 588.317L753.536 587.339L758.491 588.403L758.281 589.381ZM748.372 587.253L745.895 586.722L746.105 585.744L748.582 586.276L748.372 587.253Z" fill="#9F9F9F"/>
<path d="M550.264 528.425C550.498 528.279 550.57 527.971 550.425 527.736L548.052 523.913C547.906 523.678 547.598 523.606 547.363 523.752C547.129 523.897 547.057 524.206 547.202 524.44L549.311 527.839L545.913 529.948C545.678 530.094 545.606 530.402 545.752 530.637C545.897 530.871 546.206 530.943 546.44 530.798L550.264 528.425ZM421.622 497.948L421.736 497.462L421.622 497.948ZM196 271.5C195.181 271.5 194.368 271.523 193.56 271.567L193.615 272.566C194.405 272.522 195.2 272.5 196 272.5V271.5ZM188.71 272.108C187.093 272.381 185.505 272.743 183.953 273.19L184.229 274.151C185.745 273.715 187.296 273.361 188.877 273.094L188.71 272.108ZM179.349 274.801C177.839 275.427 176.372 276.135 174.954 276.921L175.439 277.796C176.824 277.028 178.257 276.336 179.732 275.725L179.349 274.801ZM170.826 279.52C169.498 280.464 168.225 281.481 167.014 282.564L167.68 283.31C168.864 282.251 170.108 281.258 171.405 280.335L170.826 279.52ZM163.564 286.014C162.481 287.225 161.464 288.498 160.52 289.826L161.335 290.405C162.258 289.108 163.251 287.864 164.31 286.68L163.564 286.014ZM157.921 293.954C157.135 295.372 156.427 296.839 155.801 298.349L156.725 298.732C157.336 297.257 158.028 295.824 158.796 294.439L157.921 293.954ZM154.19 302.953C153.743 304.505 153.381 306.093 153.108 307.71L154.094 307.877C154.361 306.296 154.715 304.745 155.151 303.229L154.19 302.953ZM152.567 312.56C152.523 313.368 152.5 314.181 152.5 315H153.5C153.5 314.2 153.522 313.405 153.566 312.615L152.567 312.56ZM152.5 315V317.531H153.5V315H152.5ZM152.5 322.594V327.657H153.5V322.594H152.5ZM152.5 332.72V337.783H153.5V332.72H152.5ZM152.5 342.845V347.908H153.5V342.845H152.5ZM152.5 352.971V358.034H153.5V352.971H152.5ZM152.5 363.096V368.159H153.5V363.096H152.5ZM152.5 373.222V378.285H153.5V373.222H152.5ZM152.5 383.348V388.41H153.5V383.348H152.5ZM152.5 393.473V398.536H153.5V393.473H152.5ZM152.5 403.599V408.662H153.5V403.599H152.5ZM152.5 413.724V418.787H153.5V413.724H152.5ZM152.5 423.85V428.913H153.5V423.85H152.5ZM152.5 433.975V439.038H153.5V433.975H152.5ZM152.5 444.101V446.632H153.5V444.101H152.5ZM152.5 446.632C152.5 447.463 152.52 448.29 152.56 449.111L153.559 449.063C153.52 448.258 153.5 447.447 153.5 446.632H152.5ZM153.04 454.044C153.283 455.692 153.605 457.315 154.002 458.907L154.972 458.665C154.583 457.104 154.267 455.514 154.03 453.899L153.04 454.044ZM155.439 463.651C155.999 465.214 156.633 466.741 157.338 468.229L158.242 467.801C157.551 466.343 156.929 464.846 156.381 463.314L155.439 463.651ZM159.678 472.598C160.531 474.018 161.451 475.392 162.435 476.717L163.238 476.12C162.274 474.822 161.371 473.475 160.535 472.083L159.678 472.598ZM165.582 480.546C166.692 481.771 167.862 482.94 169.086 484.051L169.758 483.31C168.558 482.221 167.411 481.075 166.322 479.874L165.582 480.546ZM172.916 487.197C174.24 488.181 175.614 489.102 177.034 489.954L177.549 489.097C176.157 488.261 174.81 487.359 173.512 486.394L172.916 487.197ZM181.403 492.294C182.891 492.999 184.419 493.634 185.982 494.193L186.319 493.251C184.787 492.703 183.29 492.082 181.831 491.391L181.403 492.294ZM190.726 495.63C192.318 496.028 193.94 496.35 195.588 496.592L195.733 495.603C194.118 495.365 192.528 495.05 190.968 494.66L190.726 495.63ZM200.521 497.073C201.343 497.112 202.169 497.132 203 497.132V496.132C202.185 496.132 201.375 496.113 200.57 496.074L200.521 497.073ZM203 497.132H205.467V496.132H203V497.132ZM210.401 497.132H215.335V496.132H210.401V497.132ZM220.269 497.132H225.203V496.132H220.269V497.132ZM230.137 497.132H235.071V496.132H230.137V497.132ZM240.005 497.132H244.939V496.132H240.005V497.132ZM249.873 497.132H254.806V496.132H249.873V497.132ZM259.74 497.132H264.674V496.132H259.74V497.132ZM269.608 497.132H274.542V496.132H269.608V497.132ZM279.476 497.132H284.41V496.132H279.476V497.132ZM289.344 497.132H294.278V496.132H289.344V497.132ZM299.212 497.132H304.146V496.132H299.212V497.132ZM309.08 497.132H314.014V496.132H309.08V497.132ZM318.948 497.132H323.882V496.132H318.948V497.132ZM328.816 497.132H333.75V496.132H328.816V497.132ZM338.684 497.132H343.618V496.132H338.684V497.132ZM348.552 497.132H353.485V496.132H348.552V497.132ZM358.419 497.132H363.353V496.132H358.419V497.132ZM368.287 497.132H373.221V496.132H368.287V497.132ZM378.155 497.132H383.089V496.132H378.155V497.132ZM388.023 497.132H392.957V496.132H388.023V497.132ZM397.891 497.132H402.825V496.132H397.891V497.132ZM407.759 497.132H410.226V496.132H407.759V497.132ZM410.226 497.132C411.175 497.132 412.123 497.16 413.07 497.214L413.127 496.216C412.162 496.16 411.194 496.132 410.226 496.132V497.132ZM418.72 497.867C419.654 498.029 420.584 498.219 421.508 498.435L421.736 497.462C420.793 497.241 419.845 497.048 418.892 496.882L418.72 497.867ZM421.508 498.435L423.977 499.013L424.205 498.04L421.736 497.462L421.508 498.435ZM428.915 500.169L433.852 501.325L434.08 500.351L429.143 499.195L428.915 500.169ZM438.79 502.481L443.727 503.637L443.955 502.663L439.018 501.507L438.79 502.481ZM448.665 504.792L453.603 505.948L453.831 504.975L448.893 503.819L448.665 504.792ZM458.54 507.104L463.478 508.26L463.706 507.286L458.768 506.13L458.54 507.104ZM468.415 509.416L473.353 510.572L473.581 509.598L468.643 508.442L468.415 509.416ZM478.291 511.727L483.228 512.883L483.456 511.91L478.519 510.754L478.291 511.727ZM488.166 514.039L493.104 515.195L493.331 514.221L488.394 513.065L488.166 514.039ZM498.041 516.351L502.979 517.506L503.207 516.533L498.269 515.377L498.041 516.351ZM507.916 518.662L512.854 519.818L513.082 518.844L508.144 517.689L507.916 518.662ZM517.792 520.974L522.729 522.13L522.957 521.156L518.02 520L517.792 520.974ZM527.667 523.286L532.604 524.441L532.832 523.468L527.895 522.312L527.667 523.286ZM537.542 525.597L542.48 526.753L542.708 525.779L537.77 524.624L537.542 525.597ZM547.417 527.909L549.886 528.487L550.114 527.513L547.645 526.935L547.417 527.909Z" fill="#9F9F9F"/>
<path d="M745.736 528.425C745.502 528.279 745.43 527.971 745.575 527.736L747.948 523.913C748.094 523.678 748.402 523.606 748.637 523.752C748.871 523.897 748.943 524.206 748.798 524.44L746.689 527.839L750.087 529.948C750.322 530.094 750.394 530.402 750.248 530.637C750.103 530.871 749.794 530.943 749.56 530.798L745.736 528.425ZM874.378 497.948L874.264 497.462L874.378 497.948ZM1100 271.5C1100.82 271.5 1101.63 271.523 1102.44 271.567L1102.38 272.566C1101.6 272.522 1100.8 272.5 1100 272.5V271.5ZM1107.29 272.108C1108.91 272.381 1110.49 272.743 1112.05 273.19L1111.77 274.151C1110.25 273.715 1108.7 273.361 1107.12 273.094L1107.29 272.108ZM1116.65 274.801C1118.16 275.427 1119.63 276.135 1121.05 276.921L1120.56 277.796C1119.18 277.028 1117.74 276.336 1116.27 275.725L1116.65 274.801ZM1125.17 279.52C1126.5 280.464 1127.77 281.481 1128.99 282.564L1128.32 283.31C1127.14 282.251 1125.89 281.258 1124.59 280.335L1125.17 279.52ZM1132.44 286.014C1133.52 287.225 1134.54 288.498 1135.48 289.826L1134.66 290.405C1133.74 289.108 1132.75 287.864 1131.69 286.68L1132.44 286.014ZM1138.08 293.954C1138.86 295.372 1139.57 296.839 1140.2 298.349L1139.28 298.732C1138.66 297.257 1137.97 295.824 1137.2 294.439L1138.08 293.954ZM1141.81 302.953C1142.26 304.505 1142.62 306.093 1142.89 307.71L1141.91 307.877C1141.64 306.296 1141.29 304.745 1140.85 303.229L1141.81 302.953ZM1143.43 312.56C1143.48 313.368 1143.5 314.181 1143.5 315H1142.5C1142.5 314.2 1142.48 313.405 1142.43 312.615L1143.43 312.56ZM1143.5 315V317.531H1142.5V315H1143.5ZM1143.5 322.594V327.657H1142.5V322.594H1143.5ZM1143.5 332.72V337.783H1142.5V332.72H1143.5ZM1143.5 342.845V347.908H1142.5V342.845H1143.5ZM1143.5 352.971V358.034H1142.5V352.971H1143.5ZM1143.5 363.096V368.159H1142.5V363.096H1143.5ZM1143.5 373.222V378.285H1142.5V373.222H1143.5ZM1143.5 383.348V388.41H1142.5V383.348H1143.5ZM1143.5 393.473V398.536H1142.5V393.473H1143.5ZM1143.5 403.599V408.662H1142.5V403.599H1143.5ZM1143.5 413.724V418.787H1142.5V413.724H1143.5ZM1143.5 423.85V428.913H1142.5V423.85H1143.5ZM1143.5 433.975V439.038H1142.5V433.975H1143.5ZM1143.5 444.101V446.632H1142.5V444.101H1143.5ZM1143.5 446.632C1143.5 447.463 1143.48 448.29 1143.44 449.111L1142.44 449.063C1142.48 448.258 1142.5 447.447 1142.5 446.632H1143.5ZM1142.96 454.044C1142.72 455.692 1142.4 457.315 1142 458.907L1141.03 458.665C1141.42 457.104 1141.73 455.514 1141.97 453.899L1142.96 454.044ZM1140.56 463.651C1140 465.214 1139.37 466.741 1138.66 468.229L1137.76 467.801C1138.45 466.343 1139.07 464.846 1139.62 463.314L1140.56 463.651ZM1136.32 472.598C1135.47 474.018 1134.55 475.392 1133.56 476.717L1132.76 476.12C1133.73 474.822 1134.63 473.475 1135.46 472.083L1136.32 472.598ZM1130.42 480.546C1129.31 481.771 1128.14 482.94 1126.91 484.051L1126.24 483.31C1127.44 482.221 1128.59 481.075 1129.68 479.874L1130.42 480.546ZM1123.08 487.197C1121.76 488.181 1120.39 489.102 1118.97 489.954L1118.45 489.097C1119.84 488.261 1121.19 487.359 1122.49 486.394L1123.08 487.197ZM1114.6 492.294C1113.11 492.999 1111.58 493.634 1110.02 494.193L1109.68 493.251C1111.21 492.703 1112.71 492.082 1114.17 491.391L1114.6 492.294ZM1105.27 495.63C1103.68 496.028 1102.06 496.35 1100.41 496.592L1100.27 495.603C1101.88 495.365 1103.47 495.05 1105.03 494.66L1105.27 495.63ZM1095.48 497.073C1094.66 497.112 1093.83 497.132 1093 497.132V496.132C1093.81 496.132 1094.63 496.113 1095.43 496.074L1095.48 497.073ZM1093 497.132H1090.53V496.132H1093V497.132ZM1085.6 497.132H1080.67V496.132H1085.6V497.132ZM1075.73 497.132H1070.8V496.132H1075.73V497.132ZM1065.86 497.132H1060.93V496.132H1065.86V497.132ZM1056 497.132H1051.06V496.132H1056V497.132ZM1046.13 497.132H1041.19V496.132H1046.13V497.132ZM1036.26 497.132H1031.33V496.132H1036.26V497.132ZM1026.39 497.132H1021.46V496.132H1026.39V497.132ZM1016.52 497.132H1011.59V496.132H1016.52V497.132ZM1006.66 497.132H1001.72V496.132H1006.66V497.132ZM996.788 497.132H991.854V496.132H996.788V497.132ZM986.92 497.132H981.986V496.132H986.92V497.132ZM977.052 497.132H972.118V496.132H977.052V497.132ZM967.184 497.132H962.25V496.132H967.184V497.132ZM957.316 497.132H952.382V496.132H957.316V497.132ZM947.448 497.132H942.515V496.132H947.448V497.132ZM937.581 497.132H932.647V496.132H937.581V497.132ZM927.713 497.132H922.779V496.132H927.713V497.132ZM917.845 497.132H912.911V496.132H917.845V497.132ZM907.977 497.132H903.043V496.132H907.977V497.132ZM898.109 497.132H893.175V496.132H898.109V497.132ZM888.241 497.132H885.774V496.132H888.241V497.132ZM885.774 497.132C884.825 497.132 883.877 497.16 882.93 497.214L882.873 496.216C883.838 496.16 884.806 496.132 885.774 496.132V497.132ZM877.28 497.867C876.346 498.029 875.416 498.219 874.492 498.435L874.264 497.462C875.207 497.241 876.155 497.048 877.108 496.882L877.28 497.867ZM874.492 498.435L872.023 499.013L871.795 498.04L874.264 497.462L874.492 498.435ZM867.085 500.169L862.148 501.325L861.92 500.351L866.857 499.195L867.085 500.169ZM857.21 502.481L852.273 503.637L852.045 502.663L856.982 501.507L857.21 502.481ZM847.335 504.792L842.397 505.948L842.169 504.975L847.107 503.819L847.335 504.792ZM837.46 507.104L832.522 508.26L832.294 507.286L837.232 506.13L837.46 507.104ZM827.585 509.416L822.647 510.572L822.419 509.598L827.357 508.442L827.585 509.416ZM817.709 511.727L812.772 512.883L812.544 511.91L817.481 510.754L817.709 511.727ZM807.834 514.039L802.896 515.195L802.669 514.221L807.606 513.065L807.834 514.039ZM797.959 516.351L793.021 517.506L792.793 516.533L797.731 515.377L797.959 516.351ZM788.084 518.662L783.146 519.818L782.918 518.844L787.856 517.689L788.084 518.662ZM778.208 520.974L773.271 522.13L773.043 521.156L777.98 520L778.208 520.974ZM768.333 523.286L763.396 524.441L763.168 523.468L768.105 522.312L768.333 523.286ZM758.458 525.597L753.52 526.753L753.292 525.779L758.23 524.624L758.458 525.597ZM748.583 527.909L746.114 528.487L745.886 527.513L748.355 526.935L748.583 527.909Z" fill="#9F9F9F"/>
<g filter="url(#filter0_f_1203_5352)">
<path d="M713.29 570.484L689.177 584.581L681.758 580.129L689.919 575.306L681.758 570.484L673.225 575.306L665.064 570.484L673.967 565.29L665.806 560.468L673.967 555.645L682.128 560.468L689.177 556.387L713.29 570.484Z" fill="#E3EDE4"/>
</g>
<g filter="url(#filter1_f_1203_5352)">
<path d="M582.709 570.484L606.822 584.581L614.242 580.129L606.08 575.306L614.242 570.484L622.774 575.306L630.935 570.484L622.032 565.29L630.193 560.468L622.032 555.645L613.871 560.468L606.822 556.387L582.709 570.484Z" fill="#E3EDE4"/>
</g>
<g filter="url(#filter2_f_1203_5352)">
<path d="M625 540.064L649.113 525.968L673.226 540.064L665.064 544.887L656.532 540.064L648.371 544.887L656.532 549.71L649.113 554.161L642.064 550.081L633.532 554.903L625.371 550.081L633.532 545.258L625 540.064Z" fill="#E3EDE4"/>
</g>
<g filter="url(#filter3_f_1203_5352)">
<path d="M672.484 600.903L648.371 615L624.258 600.903L632.419 596.081L640.951 600.903L649.113 596.081L640.951 591.258L648.371 586.806L655.419 590.887L663.951 586.065L672.113 590.887L663.951 595.71L672.484 600.903Z" fill="#E3EDE4"/>
</g>
<path d="M672.922 514.093L672.922 524.479L648.809 538.544L648.809 528.193L672.922 514.093Z" fill="#68C466"/>
<path d="M624.697 514.093L624.697 524.479L648.81 538.544L648.81 528.193L624.697 514.093Z" fill="#C2F397"/>
<path d="M648.81 500L672.923 514.097H624.697L648.81 500Z" fill="#87DA8C"/>
<path d="M648.809 528.194L624.697 514.097L672.922 514.097L648.809 528.194Z" fill="#87DA8C"/>
<path d="M641.02 523.448L641.02 533.834L632.639 538.698L632.639 528.348L641.02 523.448Z" fill="#68C466"/>
<path d="M624.258 523.448L624.258 533.834L632.639 538.698L632.639 528.348L624.258 523.448Z" fill="#C2F397"/>
<path d="M632.639 518.548L641.02 523.448H624.258L632.639 518.548Z" fill="#87DA8C"/>
<path d="M632.639 528.348L624.258 523.448L641.02 523.448L632.639 528.348Z" fill="#87DA8C"/>
<path d="M656.161 514.245V523.89L647.999 519.068L656.161 514.245Z" fill="#68C466"/>
<path d="M656.164 514.247L656.164 524.632L664.544 529.497L664.544 519.146L656.164 514.247Z" fill="#C2F397"/>
<path d="M656.161 524.632V534.352L664.545 529.492L656.161 524.632Z" fill="#E3EDE4"/>
<path d="M682.567 535.319L682.567 545.28L674.187 550.147L674.187 540.218L682.567 535.319Z" fill="#68C466"/>
<path d="M665.806 535.319L665.806 545.28L674.187 550.147L674.187 540.218L665.806 535.319Z" fill="#C2F397"/>
<path d="M674.187 530.419L682.568 535.319H665.806L674.187 530.419Z" fill="#87DA8C"/>
<path d="M674.187 540.218L665.806 535.319L682.567 535.319L674.187 540.218Z" fill="#87DA8C"/>
<path d="M713.29 545.255L713.29 555.64L689.177 569.705L689.177 559.355L713.29 545.255Z" fill="#68C466"/>
<path d="M665.064 545.255L665.064 555.64L689.177 569.705L689.177 559.355L665.064 545.255Z" fill="#C2F397"/>
<path d="M689.177 531.161L713.29 545.258H665.064L689.177 531.161Z" fill="#87DA8C"/>
<path d="M689.177 559.355L665.064 545.258L713.29 545.258L689.177 559.355Z" fill="#87DA8C"/>
<path d="M681.609 545.258V554.903L689.77 550.081L681.609 545.258Z" fill="#C2F397"/>
<path d="M681.609 555.497V565.216L673.225 560.356L681.609 555.497Z" fill="#E3EDE4"/>
<path d="M681.606 545.26L681.606 555.645L673.225 560.51L673.225 550.159L681.606 545.26Z" fill="#68C466"/>
<path d="M582.709 545.255L582.709 555.64L606.822 569.705L606.822 559.355L582.709 545.255Z" fill="#C2F397"/>
<path d="M630.935 545.255L630.935 555.64L606.822 569.705L606.822 559.355L630.935 545.255Z" fill="#68C466"/>
<path d="M606.822 531.161L582.709 545.258H630.935L606.822 531.161Z" fill="#87DA8C"/>
<path d="M606.822 559.355L630.935 545.258L582.709 545.258L606.822 559.355Z" fill="#87DA8C"/>
<path d="M614.393 535.613L606.012 540.512H622.773L614.393 535.613Z" fill="#F9F9FB"/>
<path d="M614.393 545.412L622.773 540.512L606.012 540.512L614.393 545.412Z" fill="#F9F9FB"/>
<path d="M614.241 535.687V545.332L606.08 540.51L614.241 535.687Z" fill="#68C466"/>
<path d="M614.613 554.609L614.613 564.995L622.994 569.859L622.994 559.509L614.613 554.609Z" fill="#C2F397"/>
<path d="M631.375 554.609L631.375 564.995L622.994 569.859L622.994 559.509L631.375 554.609Z" fill="#68C466"/>
<path d="M622.994 549.71L614.613 554.609H631.375L622.994 549.71Z" fill="#87DA8C"/>
<path d="M622.994 559.509L631.374 554.609L614.613 554.609L622.994 559.509Z" fill="#87DA8C"/>
<path d="M672.18 566.48L672.18 576.442L663.799 581.308L663.799 571.38L672.18 566.48Z" fill="#68C466"/>
<path d="M655.418 566.48L655.418 576.442L663.799 581.308L663.799 571.38L655.418 566.48Z" fill="#C2F397"/>
<path d="M663.799 561.581L672.18 566.48H655.418L663.799 561.581Z" fill="#87DA8C"/>
<path d="M663.799 571.38L655.418 566.48L672.18 566.48L663.799 571.38Z" fill="#87DA8C"/>
<path d="M672.483 576.416L672.483 586.801L648.37 600.867L648.37 590.516L672.483 576.416Z" fill="#68C466"/>
<path d="M624.258 576.416L624.258 586.801L648.371 600.867L648.371 590.516L624.258 576.416Z" fill="#C2F397"/>
<path d="M648.371 562.323L672.484 576.419H624.258L648.371 562.323Z" fill="#87DA8C"/>
<path d="M648.37 590.516L624.258 576.419L672.483 576.419L648.37 590.516Z" fill="#87DA8C"/>
<path d="M640.8 566.774L649.181 571.674H632.419L640.8 566.774Z" fill="#F9F9FB"/>
<path d="M640.8 576.573L632.419 571.674L649.181 571.674L640.8 576.573Z" fill="#F9F9FB"/>
<path d="M640.951 566.849V576.494L649.112 571.671L640.951 566.849Z" fill="#C2F397"/>
<defs>
<filter id="filter0_f_1203_5352" x="663.58" y="554.161" width="51.1933" height="31.9032" filterUnits="userSpaceOnUse" color-interpolation-filters="sRGB">
<feFlood flood-opacity="0" result="BackgroundImageFix"/>
<feBlend mode="normal" in="SourceGraphic" in2="BackgroundImageFix" result="shape"/>
<feGaussianBlur stdDeviation="0.741935" result="effect1_foregroundBlur_1203_5352"/>
</filter>
<filter id="filter1_f_1203_5352" x="581.226" y="554.161" width="51.1933" height="31.9032" filterUnits="userSpaceOnUse" color-interpolation-filters="sRGB">
<feFlood flood-opacity="0" result="BackgroundImageFix"/>
<feBlend mode="normal" in="SourceGraphic" in2="BackgroundImageFix" result="shape"/>
<feGaussianBlur stdDeviation="0.741935" result="effect1_foregroundBlur_1203_5352"/>
</filter>
<filter id="filter2_f_1203_5352" x="623.516" y="524.484" width="51.1933" height="31.9032" filterUnits="userSpaceOnUse" color-interpolation-filters="sRGB">
<feFlood flood-opacity="0" result="BackgroundImageFix"/>
<feBlend mode="normal" in="SourceGraphic" in2="BackgroundImageFix" result="shape"/>
<feGaussianBlur stdDeviation="0.741935" result="effect1_foregroundBlur_1203_5352"/>
</filter>
<filter id="filter3_f_1203_5352" x="622.774" y="584.581" width="51.1933" height="31.9032" filterUnits="userSpaceOnUse" color-interpolation-filters="sRGB">
<feFlood flood-opacity="0" result="BackgroundImageFix"/>
<feBlend mode="normal" in="SourceGraphic" in2="BackgroundImageFix" result="shape"/>
<feGaussianBlur stdDeviation="0.741935" result="effect1_foregroundBlur_1203_5352"/>
</filter>
</defs>
</svg>
