<svg width="1074" height="652" viewBox="0 0 1074 652" fill="none" xmlns="http://www.w3.org/2000/svg">
<mask id="path-1-inside-1_1001_3895" fill="white">
<path d="M692.556 40.1292L861.69 137.779L862.781 333.087L693.647 235.437L692.556 40.1292Z"/>
</mask>
<path d="M692.556 40.1292L692.551 39.1946L691.742 38.7273L691.747 39.6619L692.556 40.1292ZM861.69 137.779L862.5 138.246L862.494 137.312L861.685 136.844L861.69 137.779ZM862.781 333.087L862.786 334.021L863.596 334.489L863.59 333.554L862.781 333.087ZM693.647 235.437L692.838 234.97L692.843 235.904L693.652 236.372L693.647 235.437ZM692.561 41.0637L861.695 138.713L861.685 136.844L692.551 39.1946L692.561 41.0637ZM860.881 137.311L861.972 332.619L863.59 333.554L862.5 138.246L860.881 137.311ZM862.776 332.152L693.642 234.502L693.652 236.372L862.786 334.021L862.776 332.152ZM694.456 235.904L693.366 40.5964L691.747 39.6619L692.838 234.97L694.456 235.904Z" fill="#DBDBDD" mask="url(#path-1-inside-1_1001_3895)"/>
<mask id="path-3-inside-2_1001_3895" fill="white">
<path d="M1028.07 42.5242L1028.07 235.617L861.407 333.085L861.407 139.992L1028.07 42.5242Z"/>
</mask>
<path d="M1028.07 235.617L1028.07 236.552L1028.88 236.08L1028.88 235.145L1028.07 235.617ZM1027.26 42.996L1027.26 236.089L1028.88 235.145L1028.88 42.0524L1027.26 42.996ZM1028.07 234.683L861.407 332.15L861.407 334.019L1028.07 236.552L1028.07 234.683Z" fill="#DBDBDD" mask="url(#path-3-inside-2_1001_3895)"/>
<mask id="path-5-inside-3_1001_3895" fill="white">
<path d="M1028.22 42.5352L859.512 -54.8673L692.505 40.3145L861.211 137.717L1028.22 42.5352Z"/>
</mask>
<path d="M1028.22 42.5352L1029.03 42.0724L1029.84 42.5397L1029.03 43.0024L1028.22 42.5352ZM859.512 -54.8673L858.702 -55.3346L859.514 -55.7973L860.324 -55.33L859.512 -54.8673ZM1027.41 42.9979L858.7 -54.4045L860.324 -55.33L1029.03 42.0724L1027.41 42.9979ZM860.321 -54.4L693.314 40.7818L691.696 39.8472L858.702 -55.3346L860.321 -54.4ZM860.402 137.25L1027.41 42.0679L1029.03 43.0024L862.02 138.184L860.402 137.25Z" fill="#DBDBDD" mask="url(#path-5-inside-3_1001_3895)"/>
<mask id="path-7-inside-4_1001_3895" fill="white">
<path d="M342.887 240.161L444.043 298.563L444.369 356.938L343.213 298.536L342.887 240.161Z"/>
</mask>
<path d="M342.887 240.161L342.882 239.227L342.073 238.76L342.078 239.694L342.887 240.161ZM444.043 298.563L444.852 299.031L444.847 298.096L444.037 297.629L444.043 298.563ZM444.369 356.938L444.374 357.872L445.183 358.34L445.178 357.405L444.369 356.938ZM343.213 298.536L342.404 298.069L342.409 299.003L343.218 299.47L343.213 298.536ZM342.892 241.096L444.048 299.498L444.037 297.629L342.882 239.227L342.892 241.096ZM443.233 298.096L443.559 356.471L445.178 357.405L444.852 299.031L443.233 298.096ZM444.363 356.003L343.208 297.601L343.218 299.47L444.374 357.872L444.363 356.003ZM344.023 299.003L343.697 240.629L342.078 239.694L342.404 298.069L344.023 299.003Z" fill="#969696" mask="url(#path-7-inside-4_1001_3895)"/>
<mask id="path-9-inside-5_1001_3895" fill="white">
<path d="M681.635 240.161L580.48 298.563L580.154 356.938L681.309 298.536L681.635 240.161Z"/>
</mask>
<path d="M681.635 240.161L580.48 298.563L580.154 356.938L681.309 298.536L681.635 240.161Z" fill="#F0F0F0"/>
<path d="M681.635 240.161L681.64 239.227L682.45 238.76L682.445 239.694L681.635 240.161ZM580.48 298.563L579.671 299.031L579.676 298.096L580.485 297.629L580.48 298.563ZM580.154 356.938L580.149 357.872L579.339 358.34L579.345 357.405L580.154 356.938ZM681.309 298.536L682.119 298.069L682.113 299.003L681.304 299.47L681.309 298.536ZM681.63 241.096L580.475 299.498L580.485 297.629L681.64 239.227L681.63 241.096ZM581.289 298.096L580.963 356.471L579.345 357.405L579.671 299.031L581.289 298.096ZM580.159 356.003L681.314 297.601L681.304 299.47L580.149 357.872L580.159 356.003ZM680.5 299.003L680.826 240.629L682.445 239.694L682.119 298.069L680.5 299.003Z" fill="#969696" mask="url(#path-9-inside-5_1001_3895)"/>
<mask id="path-11-inside-6_1001_3895" fill="white">
<path d="M512.401 534.974L512.401 418.17L462.011 388.701L462.011 505.505L512.401 534.974Z"/>
</mask>
<path d="M512.401 534.974L513.208 535.446L513.208 536.381L512.401 535.909L512.401 534.974ZM512.401 418.17L512.401 417.236L513.208 417.707L513.208 418.642L512.401 418.17ZM462.011 388.701L461.204 388.229L461.204 387.294L462.011 387.766L462.011 388.701ZM462.011 505.505L462.011 506.439L461.204 505.968L461.204 505.033L462.011 505.505ZM511.595 534.503L511.595 417.698L513.208 418.642L513.208 535.446L511.595 534.503ZM512.401 419.105L462.011 389.635L462.011 387.766L512.401 417.236L512.401 419.105ZM462.817 389.172L462.817 505.977L461.204 505.033L461.204 388.229L462.817 389.172ZM462.011 504.57L512.401 534.04L512.401 535.909L462.011 506.439L462.011 504.57Z" fill="#969696" mask="url(#path-11-inside-6_1001_3895)"/>
<mask id="path-13-inside-7_1001_3895" fill="white">
<path d="M343.233 377.842L393.785 407.028L394.111 465.402L343.559 436.216L343.233 377.842Z"/>
</mask>
<path d="M343.233 377.842L343.228 376.907L342.419 376.44L342.424 377.375L343.233 377.842ZM393.785 407.028L394.594 407.495L394.589 406.561L393.78 406.093L393.785 407.028ZM394.111 465.402L394.116 466.337L394.926 466.804L394.92 465.87L394.111 465.402ZM343.559 436.216L342.75 435.749L342.755 436.684L343.565 437.151L343.559 436.216ZM343.239 378.777L393.79 407.963L393.78 406.093L343.228 376.907L343.239 378.777ZM392.976 406.561L393.302 464.935L394.92 465.87L394.594 407.495L392.976 406.561ZM394.106 464.468L343.554 435.282L343.565 437.151L394.116 466.337L394.106 464.468ZM344.369 436.684L344.043 378.309L342.424 377.375L342.75 435.749L344.369 436.684Z" fill="#969696" mask="url(#path-13-inside-7_1001_3895)"/>
<mask id="path-15-inside-8_1001_3895" fill="white">
<path d="M581.551 377.842L632.103 407.028L632.429 465.402L581.877 436.216L581.551 377.842Z"/>
</mask>
<path d="M581.551 377.842L581.546 376.907L580.737 376.44L580.742 377.375L581.551 377.842ZM632.103 407.028L632.912 407.495L632.907 406.561L632.098 406.093L632.103 407.028ZM632.429 465.402L632.434 466.337L633.243 466.804L633.238 465.87L632.429 465.402ZM581.877 436.216L581.068 435.749L581.073 436.684L581.883 437.151L581.877 436.216ZM581.556 378.777L632.108 407.963L632.098 406.093L581.546 376.907L581.556 378.777ZM631.293 406.561L631.619 464.935L633.238 465.87L632.912 407.495L631.293 406.561ZM632.424 464.468L581.872 435.282L581.883 437.151L632.434 466.337L632.424 464.468ZM582.687 436.684L582.361 378.309L580.742 377.375L581.068 435.749L582.687 436.684Z" fill="#969696" mask="url(#path-15-inside-8_1001_3895)"/>
<mask id="path-17-inside-9_1001_3895" fill="white">
<path d="M461.925 172.235L512.476 201.421L512.802 259.795L462.251 230.609L461.925 172.235Z"/>
</mask>
<path d="M461.925 172.235L461.92 171.3L461.11 170.833L461.115 171.768L461.925 172.235ZM512.476 201.421L513.286 201.888L513.28 200.954L512.471 200.486L512.476 201.421ZM512.802 259.795L512.808 260.73L513.617 261.197L513.612 260.263L512.802 259.795ZM462.251 230.609L461.441 230.142L461.447 231.077L462.256 231.544L462.251 230.609ZM461.93 173.169L512.482 202.355L512.471 200.486L461.92 171.3L461.93 173.169ZM511.667 200.954L511.993 259.328L513.612 260.263L513.286 201.888L511.667 200.954ZM512.797 258.861L462.246 229.675L462.256 231.544L512.808 260.73L512.797 258.861ZM463.06 231.077L462.734 172.702L461.115 171.768L461.441 230.142L463.06 231.077Z" fill="#969696" mask="url(#path-17-inside-9_1001_3895)"/>
<g opacity="0.3">
<mask id="path-19-inside-10_1001_3895" fill="white">
<path d="M414.076 281.299L444.192 298.686L444.287 315.61L414.171 298.223L414.076 281.299Z"/>
</mask>
<path d="M444.287 315.61L444.292 316.545L445.101 317.012L445.096 316.077L444.287 315.61ZM414.171 298.223L413.361 297.755L413.367 298.69L414.176 299.157L414.171 298.223ZM443.383 298.219L443.477 315.143L445.096 316.077L445.002 299.153L443.383 298.219ZM444.282 314.676L414.165 297.288L414.176 299.157L444.292 316.545L444.282 314.676ZM414.98 298.69L414.886 281.766L413.267 280.831L413.361 297.755L414.98 298.69Z" fill="#969696" mask="url(#path-19-inside-10_1001_3895)"/>
</g>
<g opacity="0.3">
<mask id="path-21-inside-11_1001_3895" fill="white">
<path d="M610.184 281.299L580.068 298.686L579.973 315.61L610.089 298.223L610.184 281.299Z"/>
</mask>
<path d="M579.973 315.61L579.968 316.545L579.158 317.012L579.164 316.077L579.973 315.61ZM610.089 298.223L610.898 297.755L610.893 298.69L610.084 299.157L610.089 298.223ZM580.877 298.219L580.782 315.143L579.164 316.077L579.258 299.153L580.877 298.219ZM579.978 314.676L610.094 297.288L610.084 299.157L579.968 316.545L579.978 314.676ZM609.28 298.69L609.374 281.766L610.993 280.831L610.898 297.755L609.28 298.69Z" fill="#969696" mask="url(#path-21-inside-11_1001_3895)"/>
</g>
<g opacity="0.3">
<mask id="path-23-inside-12_1001_3895" fill="white">
<path d="M512.511 178.039L512.511 93.6308L526.208 85.6209L526.208 170.029L512.511 178.039Z"/>
</mask>
<path d="M526.208 85.6209L527.014 85.1491L527.014 84.2145L526.208 84.6863L526.208 85.6209ZM526.208 170.029L526.208 170.963L527.014 170.491L527.014 169.557L526.208 170.029ZM512.511 94.5654L526.208 86.5555L526.208 84.6863L512.511 92.6963L512.511 94.5654ZM525.401 86.0927L525.401 170.5L527.014 169.557L527.014 85.1491L525.401 86.0927ZM526.208 169.094L512.511 177.104L512.511 178.973L526.208 170.963L526.208 169.094Z" fill="#969696" mask="url(#path-23-inside-12_1001_3895)"/>
</g>
<g opacity="0.3">
<mask id="path-25-inside-13_1001_3895" fill="white">
<path d="M373.747 420.161L300.647 462.365L300.559 478.231L373.658 436.027L373.747 420.161Z"/>
</mask>
<path d="M300.559 478.231L300.554 479.165L299.744 479.633L299.749 478.698L300.559 478.231ZM373.658 436.027L374.467 435.56L374.462 436.494L373.653 436.962L373.658 436.027ZM301.457 461.897L301.368 477.764L299.749 478.698L299.838 462.832L301.457 461.897ZM300.564 477.296L373.663 435.092L373.653 436.962L300.554 479.165L300.564 477.296ZM372.849 436.494L372.937 420.628L374.556 419.693L374.467 435.56L372.849 436.494Z" fill="#969696" mask="url(#path-25-inside-13_1001_3895)"/>
</g>
<g opacity="0.3">
<mask id="path-27-inside-14_1001_3895" fill="white">
<path d="M511.887 452.823L511.887 418.048L497.278 409.504L497.278 444.279L511.887 452.823Z"/>
</mask>
<path d="M497.278 409.504L496.471 409.032L496.471 408.097L497.278 408.569L497.278 409.504ZM497.278 444.279L497.278 445.213L496.471 444.741L496.471 443.807L497.278 444.279ZM511.887 418.982L497.278 410.438L497.278 408.569L511.887 417.113L511.887 418.982ZM498.085 409.975L498.085 444.75L496.471 443.807L496.471 409.032L498.085 409.975ZM497.278 443.344L511.887 451.888L511.887 453.757L497.278 445.213L497.278 443.344Z" fill="#969696" mask="url(#path-27-inside-14_1001_3895)"/>
</g>
<mask id="path-29-inside-15_1001_3895" fill="white">
<path d="M250.58 324.641L302.774 354.775L302.938 384.107L250.743 353.972L250.58 324.641Z"/>
</mask>
<path d="M302.938 384.107L302.943 385.041L303.752 385.509L303.747 384.574L302.938 384.107ZM250.743 353.972L249.934 353.505L249.939 354.44L250.749 354.907L250.743 353.972ZM301.964 354.308L302.128 383.639L303.747 384.574L303.583 355.243L301.964 354.308ZM302.932 383.172L250.738 353.038L250.749 354.907L302.943 385.041L302.932 383.172ZM251.553 354.44L251.389 325.108L249.77 324.174L249.934 353.505L251.553 354.44Z" fill="#969696" mask="url(#path-29-inside-15_1001_3895)"/>
<g opacity="0.3">
<mask id="path-31-inside-16_1001_3895" fill="white">
<path d="M394.031 573.839L394.031 513.571L419.35 498.763L419.35 559.032L394.031 573.839Z"/>
</mask>
<path d="M419.35 498.763L420.157 498.291L420.157 497.357L419.35 497.829L419.35 498.763ZM419.35 559.032L419.35 559.966L420.157 559.495L420.157 558.56L419.35 559.032ZM394.031 514.505L419.35 499.698L419.35 497.829L394.031 512.636L394.031 514.505ZM418.544 499.235L418.544 559.504L420.157 558.56L420.157 498.291L418.544 499.235ZM419.35 558.097L394.031 572.905L394.031 574.774L419.35 559.966L419.35 558.097Z" fill="#969696" mask="url(#path-31-inside-16_1001_3895)"/>
</g>
<mask id="path-33-inside-17_1001_3895" fill="white">
<path d="M631.415 572.904L631.415 512.636L656.734 497.828L656.734 558.097L631.415 572.904Z"/>
</mask>
<path d="M631.415 572.904L631.415 512.636L656.734 497.828L656.734 558.097L631.415 572.904Z" fill="#F0F0F0"/>
<path d="M656.734 497.828L657.541 497.356L657.541 496.422L656.734 496.893L656.734 497.828ZM656.734 558.097L656.734 559.031L657.541 558.56L657.541 557.625L656.734 558.097ZM631.415 513.57L656.734 498.763L656.734 496.893L631.415 511.701L631.415 513.57ZM655.927 498.3L655.927 558.569L657.541 557.625L657.541 497.356L655.927 498.3ZM656.734 557.162L631.415 571.97L631.415 573.839L656.734 559.031L656.734 557.162Z" fill="#969696" mask="url(#path-33-inside-17_1001_3895)"/>
<mask id="path-35-inside-18_1001_3895" fill="white">
<path d="M369.271 118.099L421.466 148.233L421.63 177.564L369.435 147.43L369.271 118.099Z"/>
</mask>
<path d="M421.63 177.564L421.635 178.499L422.444 178.966L422.439 178.032L421.63 177.564ZM369.435 147.43L368.626 146.963L368.631 147.897L369.441 148.365L369.435 147.43ZM420.656 147.766L420.82 177.097L422.439 178.032L422.275 148.701L420.656 147.766ZM421.624 176.63L369.43 146.496L369.441 148.365L421.635 178.499L421.624 176.63ZM370.245 147.897L370.081 118.566L368.462 117.632L368.626 146.963L370.245 147.897Z" fill="#969696" mask="url(#path-35-inside-18_1001_3895)"/>
<mask id="path-37-inside-19_1001_3895" fill="white">
<path d="M851.516 400.342L953.756 459.371L953.92 488.702L851.679 429.673L851.516 400.342Z"/>
</mask>
<path d="M953.92 488.702L953.925 489.637L954.735 490.104L954.73 489.169L953.92 488.702ZM851.679 429.673L850.87 429.206L850.875 430.141L851.685 430.608L851.679 429.673ZM952.947 458.903L953.111 488.235L954.73 489.169L954.566 459.838L952.947 458.903ZM953.915 487.767L851.674 428.739L851.685 430.608L953.925 489.637L953.915 487.767ZM852.489 430.141L852.325 400.809L850.706 399.875L850.87 429.206L852.489 430.141Z" fill="#DBDBDD" mask="url(#path-37-inside-19_1001_3895)"/>
<mask id="path-39-inside-20_1001_3895" fill="white">
<path d="M760.862 619.969L863.103 678.997L863.266 708.328L761.026 649.3L760.862 619.969Z"/>
</mask>
<path d="M863.266 708.328L863.272 709.263L864.081 709.73L864.076 708.796L863.266 708.328ZM761.026 649.3L760.216 648.832L760.221 649.767L761.031 650.234L761.026 649.3ZM862.293 678.53L862.457 707.861L864.076 708.796L863.912 679.465L862.293 678.53ZM863.261 707.394L761.02 648.365L761.031 650.234L863.272 709.263L863.261 707.394ZM761.835 649.767L761.671 620.436L760.052 619.501L760.216 648.832L761.835 649.767Z" fill="#DBDBDD" mask="url(#path-39-inside-20_1001_3895)"/>
<mask id="path-41-inside-21_1001_3895" fill="white">
<path d="M194.506 27.4448L296.747 86.4735L296.91 115.805L194.67 56.7761L194.506 27.4448Z"/>
</mask>
<path d="M296.91 115.805L296.916 116.739L297.725 117.207L297.72 116.272L296.91 115.805ZM194.67 56.7761L193.86 56.3088L193.866 57.2433L194.675 57.7106L194.67 56.7761ZM295.937 86.0063L296.101 115.337L297.72 116.272L297.556 86.9408L295.937 86.0063ZM296.905 114.87L194.664 55.8415L194.675 57.7106L296.916 116.739L296.905 114.87ZM195.479 57.2433L195.315 27.9121L193.696 26.9775L193.86 56.3088L195.479 57.2433Z" fill="#DBDBDD" mask="url(#path-41-inside-21_1001_3895)"/>
<mask id="path-43-inside-22_1001_3895" fill="white">
<path d="M487.027 50.8091L512.421 65.4699L512.584 94.8011L487.191 80.1403L487.027 50.8091Z"/>
</mask>
<path d="M512.584 94.8011L512.59 95.7357L513.399 96.203L513.394 95.2684L512.584 94.8011ZM487.191 80.1403L486.382 79.673L486.387 80.6076L487.196 81.0749L487.191 80.1403ZM511.611 65.0026L511.775 94.3338L513.394 95.2684L513.23 65.9372L511.611 65.0026ZM512.579 93.8665L487.186 79.2058L487.196 81.0749L512.59 95.7357L512.579 93.8665ZM488.001 80.6076L487.837 51.2764L486.218 50.3418L486.382 79.673L488.001 80.6076Z" fill="#969696" mask="url(#path-43-inside-22_1001_3895)"/>
<g opacity="0.3">
<mask id="path-45-inside-23_1001_3895" fill="white">
<path d="M251.514 461.089L276.907 475.75L277.071 505.081L251.678 490.421L251.514 461.089Z"/>
</mask>
<path d="M277.071 505.081L277.076 506.016L277.886 506.483L277.881 505.549L277.071 505.081ZM251.678 490.421L250.869 489.953L250.874 490.888L251.683 491.355L251.678 490.421ZM276.098 475.283L276.262 504.614L277.881 505.549L277.717 476.217L276.098 475.283ZM277.066 504.147L251.673 489.486L251.683 491.355L277.076 506.016L277.066 504.147ZM252.487 490.888L252.324 461.557L250.705 460.622L250.869 489.953L252.487 490.888Z" fill="#969696" mask="url(#path-45-inside-23_1001_3895)"/>
</g>
<mask id="path-47-inside-24_1001_3895" fill="white">
<path d="M722.544 461.089L747.937 475.75L748.101 505.081L722.708 490.421L722.544 461.089Z"/>
</mask>
<path d="M748.101 505.081L748.106 506.016L748.916 506.483L748.91 505.549L748.101 505.081ZM722.708 490.421L721.898 489.953L721.904 490.888L722.713 491.355L722.708 490.421ZM747.128 475.283L747.292 504.614L748.91 505.549L748.747 476.217L747.128 475.283ZM748.096 504.147L722.703 489.486L722.713 491.355L748.106 506.016L748.096 504.147ZM723.517 490.888L723.353 461.557L721.735 460.622L721.898 489.953L723.517 490.888Z" fill="#969696" mask="url(#path-47-inside-24_1001_3895)"/>
<mask id="path-49-inside-25_1001_3895" fill="white">
<path d="M657.035 119.033L604.841 149.168L604.677 178.499L656.871 148.364L657.035 119.033Z"/>
</mask>
<path d="M657.035 119.033L604.841 149.168L604.677 178.499L656.871 148.364L657.035 119.033Z" fill="#F0F0F0"/>
<path d="M604.677 178.499L604.672 179.433L603.862 179.901L603.868 178.966L604.677 178.499ZM656.871 148.364L657.681 147.897L657.675 148.832L656.866 149.299L656.871 148.364ZM605.65 148.7L605.486 178.032L603.868 178.966L604.032 149.635L605.65 148.7ZM604.682 177.564L656.877 147.43L656.866 149.299L604.672 179.433L604.682 177.564ZM656.062 148.832L656.226 119.5L657.845 118.566L657.681 147.897L656.062 148.832Z" fill="#969696" mask="url(#path-49-inside-25_1001_3895)"/>
<mask id="path-51-inside-26_1001_3895" fill="white">
<path d="M199.046 156.983L302.059 216.457L302.222 245.789L199.21 186.314L199.046 156.983Z"/>
</mask>
<path d="M302.222 245.789L302.228 246.723L303.037 247.19L303.032 246.256L302.222 245.789ZM199.21 186.314L198.401 185.847L198.406 186.782L199.215 187.249L199.21 186.314ZM301.249 215.99L301.413 245.321L303.032 246.256L302.868 216.925L301.249 215.99ZM302.217 244.854L199.205 185.38L199.215 187.249L302.228 246.723L302.217 244.854ZM200.02 186.782L199.856 157.45L198.237 156.516L198.401 185.847L200.02 186.782Z" fill="#969696" mask="url(#path-51-inside-26_1001_3895)"/>
<mask id="path-53-inside-27_1001_3895" fill="white">
<path d="M825.221 157.202L722.586 216.458L722.422 245.789L825.057 186.533L825.221 157.202Z"/>
</mask>
<path d="M825.221 157.202L722.586 216.458L722.422 245.789L825.057 186.533L825.221 157.202Z" fill="#F0F0F0"/>
<path d="M722.422 245.789L722.417 246.724L721.608 247.191L721.613 246.256L722.422 245.789ZM825.057 186.533L825.866 186.066L825.861 187L825.052 187.467L825.057 186.533ZM723.395 215.99L723.232 245.322L721.613 246.256L721.777 216.925L723.395 215.99ZM722.427 244.854L825.062 185.598L825.052 187.467L722.417 246.724L722.427 244.854ZM824.248 187L824.411 157.669L826.03 156.734L825.866 186.066L824.248 187Z" fill="#969696" mask="url(#path-53-inside-27_1001_3895)"/>
<g opacity="0.3">
<mask id="path-55-inside-28_1001_3895" fill="white">
<path d="M512.5 702.033L512.5 582.462L487.181 567.655L487.181 687.226L512.5 702.033Z"/>
</mask>
<path d="M487.181 567.655L486.374 567.183L486.374 566.248L487.181 566.72L487.181 567.655ZM487.181 687.226L487.181 688.161L486.374 687.689L486.374 686.754L487.181 687.226ZM512.5 583.397L487.181 568.589L487.181 566.72L512.5 581.528L512.5 583.397ZM487.988 568.127L487.988 687.698L486.374 686.754L486.374 567.183L487.988 568.127ZM487.181 686.291L512.5 701.099L512.5 702.968L487.181 688.161L487.181 686.291Z" fill="#969696" mask="url(#path-55-inside-28_1001_3895)"/>
</g>
<mask id="path-57-inside-29_1001_3895" fill="white">
<path d="M773.858 325.575L721.664 355.71L721.5 385.041L773.695 354.906L773.858 325.575Z"/>
</mask>
<path d="M773.858 325.575L721.664 355.71L721.5 385.041L773.695 354.906L773.858 325.575Z" fill="#F0F0F0"/>
<path d="M721.5 385.041L721.495 385.975L720.686 386.443L720.691 385.508L721.5 385.041ZM773.695 354.906L774.504 354.439L774.499 355.374L773.689 355.841L773.695 354.906ZM722.474 355.242L722.31 384.574L720.691 385.508L720.855 356.177L722.474 355.242ZM721.506 384.106L773.7 353.972L773.689 355.841L721.495 385.975L721.506 384.106ZM772.885 355.374L773.049 326.042L774.668 325.108L774.504 354.439L772.885 355.374Z" fill="#969696" mask="url(#path-57-inside-29_1001_3895)"/>
<mask id="path-59-inside-30_1001_3895" fill="white">
<path d="M530.148 270.709L530.148 327.558L580.616 357.072L580.616 300.224L530.148 270.709Z"/>
</mask>
<path d="M530.148 327.558L530.148 328.492L529.342 328.021L529.342 327.086L530.148 327.558ZM530.955 271.181L530.955 328.03L529.342 327.086L529.342 270.237L530.955 271.181ZM530.148 326.623L580.616 356.138L580.616 358.007L530.148 328.492L530.148 326.623Z" fill="#969696" mask="url(#path-59-inside-30_1001_3895)"/>
<mask id="path-61-inside-31_1001_3895" fill="white">
<path d="M494.374 270.709L494.374 327.558L443.906 357.072L443.906 300.224L494.374 270.709Z"/>
</mask>
<path d="M494.374 270.709L494.374 327.558L443.906 357.072L443.906 300.224L494.374 270.709Z" fill="#F0F0F0"/>
<path d="M494.374 327.558L494.374 328.492L495.18 328.021L495.18 327.086L494.374 327.558ZM493.567 271.181L493.567 328.03L495.18 327.086L495.18 270.237L493.567 271.181ZM494.374 326.623L443.906 356.138L443.906 358.007L494.374 328.492L494.374 326.623Z" fill="#969696" mask="url(#path-61-inside-31_1001_3895)"/>
<mask id="path-63-inside-32_1001_3895" fill="white">
<path d="M561.688 388.51L512.456 360.086L461.662 389.035L510.895 417.459L561.688 388.51Z"/>
</mask>
<path d="M512.456 360.086L511.647 359.619L512.459 359.156L513.268 359.623L512.456 360.086ZM560.877 388.973L511.644 360.549L513.268 359.623L562.5 388.048L560.877 388.973ZM513.266 360.554L462.472 389.502L460.853 388.568L511.647 359.619L513.266 360.554Z" fill="#969696" mask="url(#path-63-inside-32_1001_3895)"/>
<mask id="path-65-inside-33_1001_3895" fill="white">
<path d="M444.168 378.778L444.168 435.627L393.701 465.141L393.701 408.292L444.168 378.778Z"/>
</mask>
<path d="M444.168 378.778L444.168 435.627L393.701 465.141L393.701 408.292L444.168 378.778Z" fill="#F0F0F0"/>
<path d="M444.168 435.627L444.168 436.561L444.975 436.089L444.975 435.155L444.168 435.627ZM443.362 379.25L443.362 436.098L444.975 435.155L444.975 378.306L443.362 379.25ZM444.168 434.692L393.701 464.206L393.701 466.076L444.168 436.561L444.168 434.692Z" fill="#969696" mask="url(#path-65-inside-33_1001_3895)"/>
<mask id="path-67-inside-34_1001_3895" fill="white">
<path d="M682.489 378.778L682.489 435.627L632.021 465.141L632.021 408.292L682.489 378.778Z"/>
</mask>
<path d="M682.489 378.778L682.489 435.627L632.021 465.141L632.021 408.292L682.489 378.778Z" fill="#F0F0F0"/>
<path d="M682.489 435.627L682.489 436.561L683.296 436.089L683.296 435.155L682.489 435.627ZM681.682 379.25L681.682 436.098L683.296 435.155L683.296 378.306L681.682 379.25ZM682.489 434.692L632.021 464.206L632.021 466.076L682.489 436.561L682.489 434.692Z" fill="#969696" mask="url(#path-67-inside-34_1001_3895)"/>
<mask id="path-69-inside-35_1001_3895" fill="white">
<path d="M562.86 173.17L562.86 230.019L512.393 259.533L512.393 202.685L562.86 173.17Z"/>
</mask>
<path d="M562.86 173.17L562.86 230.019L512.393 259.533L512.393 202.685L562.86 173.17Z" fill="#F0F0F0"/>
<path d="M562.86 230.019L562.86 230.954L563.667 230.482L563.667 229.547L562.86 230.019ZM562.054 173.642L562.054 230.491L563.667 229.547L563.667 172.699L562.054 173.642ZM562.86 229.084L512.393 258.599L512.393 260.468L562.86 230.954L562.86 229.084Z" fill="#969696" mask="url(#path-69-inside-35_1001_3895)"/>
<mask id="path-71-inside-36_1001_3895" fill="white">
<path d="M529.888 270.57L631.278 212.032L682.058 240.973L580.668 299.511L529.888 270.57Z"/>
</mask>
<path d="M529.888 270.57L529.076 270.107L528.266 270.574L529.078 271.037L529.888 270.57ZM631.278 212.032L632.087 211.565L631.275 211.102L630.466 211.569L631.278 212.032ZM530.7 271.033L632.09 212.495L630.466 211.569L529.076 270.107L530.7 271.033ZM630.469 212.499L681.248 241.44L682.867 240.506L632.087 211.565L630.469 212.499ZM581.477 299.043L530.697 270.103L529.078 271.037L579.858 299.978L581.477 299.043Z" fill="#969696" mask="url(#path-71-inside-36_1001_3895)"/>
<mask id="path-73-inside-37_1001_3895" fill="white">
<path d="M446.756 134.237L446.756 162.802L421.398 177.632L421.398 149.067L446.756 134.237Z"/>
</mask>
<path d="M446.756 134.237L446.756 162.802L421.398 177.632L421.398 149.067L446.756 134.237Z" fill="#F0F0F0"/>
<path d="M446.756 162.802L446.756 163.736L447.563 163.264L447.563 162.33L446.756 162.802ZM445.949 134.709L445.949 163.273L447.563 162.33L447.563 133.765L445.949 134.709ZM446.756 161.867L421.398 176.697L421.398 178.566L446.756 163.736L446.756 161.867Z" fill="#969696" mask="url(#path-73-inside-37_1001_3895)"/>
<mask id="path-75-inside-38_1001_3895" fill="white">
<path d="M978.61 445.133L978.61 473.697L953.252 488.527L953.252 459.963L978.61 445.133Z"/>
</mask>
<path d="M978.61 473.697L978.61 474.632L979.417 474.16L979.417 473.226L978.61 473.697ZM977.804 445.605L977.804 474.169L979.417 473.226L979.417 444.661L977.804 445.605ZM978.61 472.763L953.252 487.593L953.252 489.462L978.61 474.632L978.61 472.763Z" fill="#DBDBDD" mask="url(#path-75-inside-38_1001_3895)"/>
<mask id="path-77-inside-39_1001_3895" fill="white">
<path d="M321.601 72.2361L321.601 100.801L296.243 115.631L296.243 87.0661L321.601 72.2361Z"/>
</mask>
<path d="M321.601 100.801L321.601 101.735L322.408 101.263L322.408 100.329L321.601 100.801ZM320.794 72.7079L320.794 101.272L322.408 100.329L322.408 71.7643L320.794 72.7079ZM321.601 99.866L296.243 114.696L296.243 116.565L321.601 101.735L321.601 99.866Z" fill="#DBDBDD" mask="url(#path-77-inside-39_1001_3895)"/>
<mask id="path-79-inside-40_1001_3895" fill="white">
<path d="M537.488 51.0449L537.488 80.2395L512.13 95.0695L512.13 65.8749L537.488 51.0449Z"/>
</mask>
<path d="M537.488 51.0449L537.488 80.2395L512.13 95.0695L512.13 65.8749L537.488 51.0449Z" fill="#F0F0F0"/>
<path d="M537.488 80.2395L537.488 81.1741L538.295 80.7023L538.295 79.7677L537.488 80.2395ZM536.682 51.5167L536.682 80.7113L538.295 79.7677L538.295 50.5731L536.682 51.5167ZM537.488 79.3049L512.13 94.135L512.13 96.0041L537.488 81.1741L537.488 79.3049Z" fill="#969696" mask="url(#path-79-inside-40_1001_3895)"/>
<g opacity="0.3">
<mask id="path-81-inside-41_1001_3895" fill="white">
<path d="M301.974 461.955L301.974 490.52L276.615 505.35L276.615 476.785L301.974 461.955Z"/>
</mask>
<path d="M301.974 490.52L301.974 491.454L302.78 490.982L302.78 490.048L301.974 490.52ZM301.167 462.427L301.167 490.991L302.78 490.048L302.78 461.483L301.167 462.427ZM301.974 489.585L276.615 504.415L276.615 506.284L301.974 491.454L301.974 489.585Z" fill="#969696" mask="url(#path-81-inside-41_1001_3895)"/>
</g>
<mask id="path-83-inside-42_1001_3895" fill="white">
<path d="M773.003 461.955L773.003 490.52L747.645 505.35L747.645 476.785L773.003 461.955Z"/>
</mask>
<path d="M773.003 461.955L773.003 490.52L747.645 505.35L747.645 476.785L773.003 461.955Z" fill="#F0F0F0"/>
<path d="M773.003 490.52L773.003 491.454L773.81 490.982L773.81 490.048L773.003 490.52ZM772.197 462.427L772.197 490.991L773.81 490.048L773.81 461.483L772.197 462.427ZM773.003 489.585L747.645 504.415L747.645 506.284L773.003 491.454L773.003 489.585Z" fill="#969696" mask="url(#path-83-inside-42_1001_3895)"/>
<mask id="path-85-inside-43_1001_3895" fill="white">
<path d="M327.128 202.461L327.128 231.026L301.77 245.856L301.77 217.291L327.128 202.461Z"/>
</mask>
<path d="M327.128 202.461L327.128 231.026L301.77 245.856L301.77 217.291L327.128 202.461Z" fill="#F0F0F0"/>
<path d="M327.128 231.026L327.128 231.961L327.935 231.489L327.935 230.554L327.128 231.026ZM326.322 202.933L326.322 231.498L327.935 230.554L327.935 201.99L326.322 202.933ZM327.128 230.091L301.77 244.921L301.77 246.791L327.128 231.961L327.128 230.091Z" fill="#969696" mask="url(#path-85-inside-43_1001_3895)"/>
<mask id="path-87-inside-44_1001_3895" fill="white">
<path d="M697.516 202.461L697.516 231.026L722.874 245.856L722.874 217.291L697.516 202.461Z"/>
</mask>
<path d="M697.516 231.026L697.516 231.96L696.709 231.488L696.709 230.554L697.516 231.026ZM698.322 202.933L698.322 231.498L696.709 230.554L696.709 201.989L698.322 202.933ZM697.516 230.091L722.874 244.921L722.874 246.79L697.516 231.96L697.516 230.091Z" fill="#969696" mask="url(#path-87-inside-44_1001_3895)"/>
<g opacity="0.3">
<mask id="path-89-inside-45_1001_3895" fill="white">
<path d="M537.156 567.826L512.419 553.544L486.896 568.09L511.634 582.372L537.156 567.826Z"/>
</mask>
<path d="M512.419 553.544L511.609 553.077L512.421 552.614L513.231 553.081L512.419 553.544ZM536.344 568.289L511.607 554.007L513.231 553.081L537.968 567.363L536.344 568.289ZM513.228 554.011L487.706 568.557L486.087 567.622L511.609 553.077L513.228 554.011Z" fill="#969696" mask="url(#path-89-inside-45_1001_3895)"/>
</g>
<g opacity="0.3">
<mask id="path-91-inside-46_1001_3895" fill="white">
<path d="M458.784 290.611L458.784 307.093L444.152 315.649L444.152 299.168L458.784 290.611Z"/>
</mask>
<path d="M458.784 307.093L458.784 308.027L459.59 307.555L459.59 306.621L458.784 307.093ZM457.977 291.083L457.977 307.564L459.59 306.621L459.59 290.139L457.977 291.083ZM458.784 306.158L444.152 314.715L444.152 316.584L458.784 308.027L458.784 306.158Z" fill="#969696" mask="url(#path-91-inside-46_1001_3895)"/>
</g>
<g opacity="0.3">
<mask id="path-93-inside-47_1001_3895" fill="white">
<path d="M565.477 290.611L565.477 307.093L580.108 315.649L580.108 299.168L565.477 290.611Z"/>
</mask>
<path d="M565.477 307.093L565.477 308.027L564.67 307.555L564.67 306.621L565.477 307.093ZM566.283 291.083L566.283 307.564L564.67 306.621L564.67 290.139L566.283 291.083ZM565.477 306.158L580.108 314.715L580.108 316.584L565.477 308.027L565.477 306.158Z" fill="#969696" mask="url(#path-93-inside-47_1001_3895)"/>
</g>
<g opacity="0.3">
<mask id="path-95-inside-48_1001_3895" fill="white">
<path d="M499.114 85.5693L512.496 77.8435L526.302 85.7119L512.92 93.4377L499.114 85.5693Z"/>
</mask>
<path d="M512.496 77.8435L513.305 77.3762L512.493 76.9134L511.684 77.3807L512.496 77.8435ZM499.926 86.0321L513.308 78.3063L511.684 77.3807L498.302 85.1066L499.926 86.0321ZM511.686 78.3108L525.492 86.1792L527.111 85.2446L513.305 77.3762L511.686 78.3108Z" fill="#969696" mask="url(#path-95-inside-48_1001_3895)"/>
</g>
<g opacity="0.3">
<mask id="path-97-inside-49_1001_3895" fill="white">
<path d="M736.568 454.794L736.568 470.245L722.851 478.267L722.851 462.816L736.568 454.794Z"/>
</mask>
<path d="M736.568 470.245L736.568 471.18L737.375 470.708L737.375 469.774L736.568 470.245ZM735.761 455.266L735.761 470.717L737.375 469.774L737.375 454.322L735.761 455.266ZM736.568 469.311L722.851 477.333L722.851 479.202L736.568 471.18L736.568 469.311Z" fill="#969696" mask="url(#path-97-inside-49_1001_3895)"/>
</g>
<g opacity="0.3">
<mask id="path-99-inside-50_1001_3895" fill="white">
<path d="M286.968 454.794L286.968 470.245L300.685 478.267L300.685 462.816L286.968 454.794Z"/>
</mask>
<path d="M286.968 470.245L286.968 471.18L286.161 470.708L286.161 469.774L286.968 470.245ZM287.775 455.266L287.775 470.717L286.161 469.774L286.161 454.322L287.775 455.266ZM286.968 469.311L300.685 477.333L300.685 479.202L286.968 471.18L286.968 469.311Z" fill="#969696" mask="url(#path-99-inside-50_1001_3895)"/>
</g>
<g opacity="0.3">
<mask id="path-101-inside-51_1001_3895" fill="white">
<path d="M499.114 169.681L512.496 161.955L526.302 169.824L512.92 177.55L499.114 169.681Z"/>
</mask>
<path d="M512.496 161.955L513.305 161.488L512.493 161.025L511.684 161.493L512.496 161.955ZM499.926 170.144L513.308 162.418L511.684 161.493L498.302 169.218L499.926 170.144ZM511.686 162.423L525.492 170.291L527.111 169.356L513.305 161.488L511.686 162.423Z" fill="#969696" mask="url(#path-101-inside-51_1001_3895)"/>
</g>
<g opacity="0.3">
<mask id="path-103-inside-52_1001_3895" fill="white">
<path d="M663.724 412.738L663.724 428.189L650.007 436.211L650.007 420.76L663.724 412.738Z"/>
</mask>
<path d="M663.724 428.189L663.724 429.124L664.531 428.652L664.531 427.717L663.724 428.189ZM662.917 413.209L662.917 428.661L664.531 427.717L664.531 412.266L662.917 413.209ZM663.724 427.255L650.007 435.277L650.007 437.146L663.724 429.124L663.724 427.255Z" fill="#969696" mask="url(#path-103-inside-52_1001_3895)"/>
</g>
<g opacity="0.3">
<mask id="path-105-inside-53_1001_3895" fill="white">
<path d="M526.176 409.449L511.903 401.208L497.176 409.601L511.45 417.842L526.176 409.449Z"/>
</mask>
<path d="M511.903 401.208L511.093 400.741L511.905 400.278L512.715 400.745L511.903 401.208ZM525.364 409.911L511.091 401.671L512.715 400.745L526.988 408.986L525.364 409.911ZM512.712 401.675L497.986 410.068L496.367 409.134L511.093 400.741L512.712 401.675Z" fill="#969696" mask="url(#path-105-inside-53_1001_3895)"/>
</g>
<mask id="path-107-inside-54_1001_3895" fill="white">
<path d="M328.063 340.779L328.063 369.344L302.705 384.174L302.705 355.609L328.063 340.779Z"/>
</mask>
<path d="M328.063 340.779L328.063 369.344L302.705 384.174L302.705 355.609L328.063 340.779Z" fill="#F0F0F0"/>
<path d="M328.063 369.344L328.063 370.278L328.87 369.807L328.87 368.872L328.063 369.344ZM327.256 341.251L327.256 369.816L328.87 368.872L328.87 340.307L327.256 341.251ZM328.063 368.409L302.705 383.239L302.705 385.108L328.063 370.278L328.063 368.409Z" fill="#969696" mask="url(#path-107-inside-54_1001_3895)"/>
<g opacity="0.3">
<mask id="path-109-inside-55_1001_3895" fill="white">
<path d="M369.266 498.667L394.003 484.385L419.525 498.931L394.788 513.213L369.266 498.667Z"/>
</mask>
<path d="M394.003 484.385L394.813 483.918L394.001 483.455L393.191 483.922L394.003 484.385ZM370.078 499.13L394.815 484.848L393.191 483.922L368.454 498.204L370.078 499.13ZM393.194 484.852L418.716 499.398L420.335 498.463L394.813 483.918L393.194 484.852Z" fill="#969696" mask="url(#path-109-inside-55_1001_3895)"/>
</g>
<mask id="path-111-inside-56_1001_3895" fill="white">
<path d="M606.649 497.733L631.387 483.451L656.909 497.996L632.172 512.279L606.649 497.733Z"/>
</mask>
<path d="M631.387 483.451L632.196 482.983L631.384 482.521L630.575 482.988L631.387 483.451ZM607.461 498.196L632.199 483.913L630.575 482.988L605.837 497.27L607.461 498.196ZM630.578 483.918L656.1 498.464L657.719 497.529L632.196 482.983L630.578 483.918Z" fill="#969696" mask="url(#path-111-inside-56_1001_3895)"/>
<mask id="path-113-inside-57_1001_3895" fill="white">
<path d="M579.552 135.172L579.552 163.736L604.91 178.566L604.91 150.002L579.552 135.172Z"/>
</mask>
<path d="M579.552 163.736L579.552 164.671L578.745 164.199L578.745 163.264L579.552 163.736ZM580.359 135.643L580.359 164.208L578.745 163.264L578.745 134.7L580.359 135.643ZM579.552 162.802L604.91 177.632L604.91 179.501L579.552 164.671L579.552 162.802Z" fill="#969696" mask="url(#path-113-inside-57_1001_3895)"/>
<mask id="path-115-inside-58_1001_3895" fill="white">
<path d="M696.375 341.713L696.375 370.278L721.733 385.108L721.733 356.543L696.375 341.713Z"/>
</mask>
<path d="M696.375 370.278L696.375 371.212L695.568 370.741L695.568 369.806L696.375 370.278ZM697.181 342.185L697.181 370.75L695.568 369.806L695.568 341.242L697.181 342.185ZM696.375 369.343L721.733 384.173L721.733 386.042L696.375 371.212L696.375 369.343Z" fill="#969696" mask="url(#path-115-inside-58_1001_3895)"/>
<mask id="path-117-inside-59_1001_3895" fill="white">
<path d="M494.634 270.57L393.244 212.032L342.464 240.973L443.854 299.511L494.634 270.57Z"/>
</mask>
<path d="M494.634 270.57L495.446 270.107L496.255 270.574L495.443 271.037L494.634 270.57ZM393.244 212.032L392.434 211.565L393.246 211.102L394.056 211.569L393.244 212.032ZM493.822 271.033L392.432 212.495L394.056 211.569L495.446 270.107L493.822 271.033ZM394.053 212.499L343.273 241.44L341.654 240.506L392.434 211.565L394.053 212.499ZM443.045 299.043L493.824 270.103L495.443 271.037L444.663 299.978L443.045 299.043Z" fill="#969696" mask="url(#path-117-inside-59_1001_3895)"/>
<mask id="path-119-inside-60_1001_3895" fill="white">
<path d="M561.939 388.354L561.939 505.429L511.486 534.936L511.486 417.86L561.939 388.354Z"/>
</mask>
<path d="M561.939 388.354L561.939 505.429L511.486 534.936L511.486 417.86L561.939 388.354Z" fill="#F0F0F0"/>
<path d="M561.939 388.354L562.746 387.882L562.746 386.948L561.939 387.419L561.939 388.354ZM561.939 505.429L561.939 506.364L562.746 505.892L562.746 504.958L561.939 505.429ZM561.133 388.826L561.133 505.901L562.746 504.958L562.746 387.882L561.133 388.826ZM561.939 504.495L511.486 534.001L511.486 535.87L561.939 506.364L561.939 504.495ZM511.486 418.795L561.939 389.289L561.939 387.419L511.486 416.926L511.486 418.795Z" fill="#969696" mask="url(#path-119-inside-60_1001_3895)"/>
<mask id="path-121-inside-61_1001_3895" fill="white">
<path d="M444.369 379.029L393.751 349.805L342.972 378.746L393.589 407.97L444.369 379.029Z"/>
</mask>
<path d="M444.369 379.029L445.181 378.567L445.99 379.034L445.178 379.497L444.369 379.029ZM393.751 349.805L392.942 349.338L393.754 348.875L394.563 349.343L393.751 349.805ZM342.972 378.746L342.16 379.209L341.35 378.742L342.162 378.279L342.972 378.746ZM393.589 407.97L394.398 408.437L393.586 408.9L392.777 408.433L393.589 407.97ZM443.557 379.492L392.939 350.268L394.563 349.343L445.181 378.567L443.557 379.492ZM394.561 350.273L343.781 379.214L342.162 378.279L392.942 349.338L394.561 350.273ZM343.784 378.284L394.401 407.507L392.777 408.433L342.16 379.209L343.784 378.284ZM392.779 407.503L443.559 378.562L445.178 379.497L394.398 408.437L392.779 407.503Z" fill="#969696" mask="url(#path-121-inside-61_1001_3895)"/>
<mask id="path-123-inside-62_1001_3895" fill="white">
<path d="M682.688 379.029L632.07 349.805L581.29 378.746L631.908 407.97L682.688 379.029Z"/>
</mask>
<path d="M682.688 379.029L683.499 378.567L684.309 379.034L683.497 379.497L682.688 379.029ZM632.07 349.805L631.261 349.338L632.073 348.875L632.882 349.343L632.07 349.805ZM581.29 378.746L580.478 379.209L579.669 378.742L580.481 378.279L581.29 378.746ZM631.908 407.97L632.717 408.437L631.905 408.9L631.096 408.433L631.908 407.97ZM681.876 379.492L631.258 350.268L632.882 349.343L683.499 378.567L681.876 379.492ZM632.88 350.273L582.1 379.214L580.481 378.279L631.261 349.338L632.88 350.273ZM582.102 378.284L632.72 407.507L631.096 408.433L580.478 379.209L582.102 378.284ZM631.098 407.503L681.878 378.562L683.497 379.497L632.717 408.437L631.098 407.503Z" fill="#969696" mask="url(#path-123-inside-62_1001_3895)"/>
<mask id="path-125-inside-63_1001_3895" fill="white">
<path d="M446.885 134.167L394.654 104.012L369.138 118.553L421.37 148.709L446.885 134.167Z"/>
</mask>
<path d="M446.885 134.167L447.697 133.704L448.506 134.172L447.694 134.635L446.885 134.167ZM394.654 104.012L393.844 103.544L394.656 103.081L395.466 103.549L394.654 104.012ZM446.073 134.63L393.842 104.474L395.466 103.549L447.697 133.704L446.073 134.63ZM395.463 104.479L369.948 119.021L368.329 118.086L393.844 103.544L395.463 104.479ZM420.56 148.242L446.075 133.7L447.694 134.635L422.179 149.176L420.56 148.242Z" fill="#969696" mask="url(#path-125-inside-63_1001_3895)"/>
<mask id="path-127-inside-64_1001_3895" fill="white">
<path d="M978.901 445.145L876.9 386.254L851.385 400.796L953.386 459.687L978.901 445.145Z"/>
</mask>
<path d="M978.901 445.145L979.713 444.682L980.523 445.149L979.711 445.612L978.901 445.145ZM876.9 386.254L876.091 385.787L876.903 385.324L877.712 385.791L876.9 386.254ZM978.089 445.608L876.088 386.717L877.712 385.791L979.713 444.682L978.089 445.608ZM877.709 386.722L852.194 401.263L850.575 400.329L876.091 385.787L877.709 386.722ZM952.577 459.219L978.092 444.677L979.711 445.612L954.196 460.154L952.577 459.219Z" fill="#DBDBDD" mask="url(#path-127-inside-64_1001_3895)"/>
<mask id="path-129-inside-65_1001_3895" fill="white">
<path d="M888.246 664.771L786.245 605.881L760.729 620.423L862.731 679.313L888.246 664.771Z"/>
</mask>
<path d="M888.246 664.771L889.058 664.309L889.867 664.776L889.055 665.239L888.246 664.771ZM786.245 605.881L785.435 605.414L786.247 604.951L787.057 605.418L786.245 605.881ZM887.434 665.234L785.433 606.344L787.057 605.418L889.058 664.309L887.434 665.234ZM787.054 606.348L761.539 620.89L759.92 619.955L785.435 605.414L787.054 606.348ZM861.921 678.846L887.437 664.304L889.055 665.239L863.54 679.781L861.921 678.846Z" fill="#DBDBDD" mask="url(#path-129-inside-65_1001_3895)"/>
<mask id="path-131-inside-66_1001_3895" fill="white">
<path d="M321.889 72.248L219.888 13.3575L194.372 27.8993L296.374 86.7899L321.889 72.248Z"/>
</mask>
<path d="M321.889 72.248L322.701 71.7853L323.51 72.2526L322.699 72.7153L321.889 72.248ZM219.888 13.3575L219.078 12.8902L219.89 12.4274L220.7 12.8947L219.888 13.3575ZM321.077 72.7108L219.076 13.8202L220.7 12.8947L322.701 71.7853L321.077 72.7108ZM220.697 13.8248L195.182 28.3666L193.563 27.432L219.078 12.8902L220.697 13.8248ZM295.565 86.3226L321.08 71.7808L322.699 72.7153L297.183 87.2572L295.565 86.3226Z" fill="#DBDBDD" mask="url(#path-131-inside-66_1001_3895)"/>
<mask id="path-133-inside-67_1001_3895" fill="white">
<path d="M537.701 51.3232L512.411 36.7219L486.896 51.2638L512.186 65.8651L537.701 51.3232Z"/>
</mask>
<path d="M537.701 51.3232L538.513 50.8605L539.323 51.3278L538.511 51.7905L537.701 51.3232ZM512.411 36.7219L511.602 36.2546L512.414 35.7919L513.223 36.2592L512.411 36.7219ZM486.896 51.2638L486.084 51.7265L485.274 51.2592L486.086 50.7965L486.896 51.2638ZM512.186 65.8651L512.995 66.3324L512.183 66.7951L511.374 66.3278L512.186 65.8651ZM536.889 51.786L511.599 37.1847L513.223 36.2592L538.513 50.8605L536.889 51.786ZM513.22 37.1892L487.705 51.731L486.086 50.7965L511.602 36.2546L513.22 37.1892ZM487.708 50.801L512.998 65.4023L511.374 66.3278L486.084 51.7265L487.708 50.801ZM511.377 65.3978L536.892 50.856L538.511 51.7905L512.995 66.3324L511.377 65.3978Z" fill="#969696" mask="url(#path-133-inside-67_1001_3895)"/>
<g opacity="0.3">
<mask id="path-135-inside-68_1001_3895" fill="white">
<path d="M302.188 461.603L276.897 447.002L251.382 461.544L276.672 476.145L302.188 461.603Z"/>
</mask>
<path d="M302.188 461.603L302.999 461.14L303.809 461.608L302.997 462.07L302.188 461.603ZM276.897 447.002L276.088 446.534L276.9 446.072L277.709 446.539L276.897 447.002ZM251.382 461.544L250.57 462.006L249.761 461.539L250.573 461.076L251.382 461.544ZM276.672 476.145L277.482 476.612L276.67 477.075L275.86 476.608L276.672 476.145ZM301.376 462.066L276.085 447.464L277.709 446.539L302.999 461.14L301.376 462.066ZM277.707 447.469L252.191 462.011L250.573 461.076L276.088 446.534L277.707 447.469ZM252.194 461.081L277.484 475.682L275.86 476.608L250.57 462.006L252.194 461.081ZM275.863 475.678L301.378 461.136L302.997 462.07L277.482 476.612L275.863 475.678Z" fill="#969696" mask="url(#path-135-inside-68_1001_3895)"/>
</g>
<mask id="path-137-inside-69_1001_3895" fill="white">
<path d="M773.217 461.603L747.927 447.002L722.411 461.544L747.702 476.145L773.217 461.603Z"/>
</mask>
<path d="M773.217 461.603L774.029 461.14L774.838 461.608L774.026 462.07L773.217 461.603ZM747.927 447.002L747.117 446.534L747.929 446.072L748.739 446.539L747.927 447.002ZM722.411 461.544L721.599 462.006L720.79 461.539L721.602 461.076L722.411 461.544ZM747.702 476.145L748.511 476.612L747.699 477.075L746.89 476.608L747.702 476.145ZM772.405 462.066L747.115 447.464L748.739 446.539L774.029 461.14L772.405 462.066ZM748.736 447.469L723.221 462.011L721.602 461.076L747.117 446.534L748.736 447.469ZM723.223 461.081L748.514 475.682L746.89 476.608L721.599 462.006L723.223 461.081ZM746.892 475.678L772.407 461.136L774.026 462.07L748.511 476.612L746.892 475.678Z" fill="#969696" mask="url(#path-137-inside-69_1001_3895)"/>
<mask id="path-139-inside-70_1001_3895" fill="white">
<path d="M834.693 526.51L860.086 541.17L860.25 570.502L834.857 555.841L834.693 526.51Z"/>
</mask>
<path d="M860.25 570.502L860.255 571.436L861.064 571.903L861.059 570.969L860.25 570.502ZM834.857 555.841L834.047 555.373L834.053 556.308L834.862 556.775L834.857 555.841ZM859.277 540.703L859.441 570.034L861.059 570.969L860.895 541.638L859.277 540.703ZM860.245 569.567L834.851 554.906L834.862 556.775L860.255 571.436L860.245 569.567ZM835.666 556.308L835.502 526.977L833.884 526.042L834.047 555.373L835.666 556.308Z" fill="#969696" mask="url(#path-139-inside-70_1001_3895)"/>
<mask id="path-141-inside-71_1001_3895" fill="white">
<path d="M106.654 104.08L132.048 118.741L132.211 148.072L106.818 133.411L106.654 104.08Z"/>
</mask>
<path d="M132.211 148.072L132.217 149.007L133.026 149.474L133.021 148.539L132.211 148.072ZM106.818 133.411L106.009 132.944L106.014 133.879L106.823 134.346L106.818 133.411ZM131.238 118.274L131.402 147.605L133.021 148.539L132.857 119.208L131.238 118.274ZM132.206 147.138L106.813 132.477L106.823 134.346L132.217 149.007L132.206 147.138ZM107.627 133.879L107.464 104.547L105.845 103.613L106.009 132.944L107.627 133.879Z" fill="#DBDBDD" mask="url(#path-141-inside-71_1001_3895)"/>
<mask id="path-143-inside-72_1001_3895" fill="white">
<path d="M885.152 527.376L885.152 555.94L859.794 570.77L859.794 542.206L885.152 527.376Z"/>
</mask>
<path d="M885.152 527.376L885.152 555.94L859.794 570.77L859.794 542.206L885.152 527.376Z" fill="#F0F0F0"/>
<path d="M885.152 555.94L885.152 556.875L885.959 556.403L885.959 555.469L885.152 555.94ZM884.346 527.848L884.346 556.412L885.959 555.469L885.959 526.904L884.346 527.848ZM885.152 555.006L859.794 569.836L859.794 571.705L885.152 556.875L885.152 555.006Z" fill="#969696" mask="url(#path-143-inside-72_1001_3895)"/>
<mask id="path-145-inside-73_1001_3895" fill="white">
<path d="M157.114 104.946L157.114 133.511L131.756 148.341L131.756 119.776L157.114 104.946Z"/>
</mask>
<path d="M157.114 133.511L157.114 134.445L157.921 133.973L157.921 133.039L157.114 133.511ZM156.307 105.418L156.307 133.982L157.921 133.039L157.921 104.474L156.307 105.418ZM157.114 132.576L131.756 147.406L131.756 149.275L157.114 134.445L157.114 132.576Z" fill="#DBDBDD" mask="url(#path-145-inside-73_1001_3895)"/>
<mask id="path-147-inside-74_1001_3895" fill="white">
<path d="M885.367 527.024L860.076 512.422L834.561 526.964L859.851 541.566L885.367 527.024Z"/>
</mask>
<path d="M885.367 527.024L886.179 526.561L886.988 527.028L886.176 527.491L885.367 527.024ZM860.076 512.422L859.267 511.955L860.079 511.492L860.888 511.96L860.076 512.422ZM834.561 526.964L833.749 527.427L832.94 526.96L833.752 526.497L834.561 526.964ZM859.851 541.566L860.661 542.033L859.849 542.496L859.04 542.028L859.851 541.566ZM884.555 527.486L859.265 512.885L860.888 511.96L886.179 526.561L884.555 527.486ZM860.886 512.89L835.371 527.431L833.752 526.497L859.267 511.955L860.886 512.89ZM835.373 526.501L860.663 541.103L859.04 542.028L833.749 527.427L835.373 526.501ZM859.042 541.098L884.557 526.556L886.176 527.491L860.661 542.033L859.042 541.098Z" fill="#969696" mask="url(#path-147-inside-74_1001_3895)"/>
<mask id="path-149-inside-75_1001_3895" fill="white">
<path d="M157.327 104.594L132.037 89.9929L106.522 104.535L131.812 119.136L157.327 104.594Z"/>
</mask>
<path d="M157.327 104.594L158.139 104.131L158.948 104.599L158.137 105.062L157.327 104.594ZM132.037 89.9929L131.228 89.5256L132.04 89.0629L132.849 89.5302L132.037 89.9929ZM106.522 104.535L105.71 104.998L104.9 104.53L105.712 104.067L106.522 104.535ZM131.812 119.136L132.621 119.603L131.809 120.066L131 119.599L131.812 119.136ZM156.515 105.057L131.225 90.4557L132.849 89.5302L158.139 104.131L156.515 105.057ZM132.846 90.4602L107.331 105.002L105.712 104.067L131.228 89.5256L132.846 90.4602ZM107.334 104.072L132.624 118.673L131 119.599L105.71 104.998L107.334 104.072ZM131.003 118.669L156.518 104.127L158.137 105.062L132.621 119.603L131.003 118.669Z" fill="#DBDBDD" mask="url(#path-149-inside-75_1001_3895)"/>
<mask id="path-151-inside-76_1001_3895" fill="white">
<path d="M563.06 173.422L512.442 144.198L461.662 173.139L512.28 202.363L563.06 173.422Z"/>
</mask>
<path d="M563.06 173.422L563.872 172.959L564.681 173.427L563.869 173.889L563.06 173.422ZM512.442 144.198L511.633 143.731L512.445 143.268L513.254 143.736L512.442 144.198ZM461.662 173.139L460.851 173.602L460.041 173.135L460.853 172.672L461.662 173.139ZM512.28 202.363L513.089 202.83L512.277 203.293L511.468 202.826L512.28 202.363ZM562.248 173.885L511.63 144.661L513.254 143.736L563.872 172.959L562.248 173.885ZM513.252 144.666L462.472 173.606L460.853 172.672L511.633 143.731L513.252 144.666ZM462.474 172.676L513.092 201.9L511.468 202.826L460.851 173.602L462.474 172.676ZM511.47 201.896L562.25 172.955L563.869 173.889L513.089 202.83L511.47 201.896Z" fill="#969696" mask="url(#path-151-inside-76_1001_3895)"/>
<g opacity="0.3">
<mask id="path-153-inside-77_1001_3895" fill="white">
<path d="M458.858 290.571L428.721 273.171L413.999 281.561L444.136 298.961L458.858 290.571Z"/>
</mask>
<path d="M428.721 273.171L427.912 272.703L428.724 272.241L429.533 272.708L428.721 273.171ZM458.046 291.033L427.909 273.634L429.533 272.708L459.67 290.108L458.046 291.033ZM429.53 273.638L414.808 282.029L413.189 281.094L427.912 272.703L429.53 273.638Z" fill="#969696" mask="url(#path-153-inside-77_1001_3895)"/>
</g>
<g opacity="0.3">
<mask id="path-155-inside-78_1001_3895" fill="white">
<path d="M565.4 290.571L595.538 273.171L610.26 281.561L580.123 298.961L565.4 290.571Z"/>
</mask>
<path d="M595.538 273.171L596.347 272.703L595.535 272.241L594.726 272.708L595.538 273.171ZM566.212 291.033L596.35 273.634L594.726 272.708L564.588 290.108L566.212 291.033ZM594.728 273.638L609.451 282.029L611.069 281.094L596.347 272.703L594.728 273.638Z" fill="#969696" mask="url(#path-155-inside-78_1001_3895)"/>
</g>
<g opacity="0.3">
<mask id="path-157-inside-79_1001_3895" fill="white">
<path d="M499.046 85.5266L499.046 170.192L512.759 178.212L512.759 93.5465L499.046 85.5266Z"/>
</mask>
<path d="M499.046 170.192L499.046 171.126L498.239 170.654L498.239 169.72L499.046 170.192ZM499.853 85.9984L499.853 170.663L498.239 169.72L498.239 85.0548L499.853 85.9984ZM499.046 169.257L512.759 177.277L512.759 179.146L499.046 171.126L499.046 169.257Z" fill="#969696" mask="url(#path-157-inside-79_1001_3895)"/>
</g>
<g opacity="0.3">
<mask id="path-159-inside-80_1001_3895" fill="white">
<path d="M736.638 454.755L663.316 412.423L649.514 420.289L722.836 462.621L736.638 454.755Z"/>
</mask>
<path d="M663.316 412.423L662.507 411.955L663.319 411.493L664.128 411.96L663.316 412.423ZM735.826 455.218L662.504 412.885L664.128 411.96L737.45 454.292L735.826 455.218ZM664.126 412.89L650.323 420.756L648.705 419.822L662.507 411.955L664.126 412.89Z" fill="#969696" mask="url(#path-159-inside-80_1001_3895)"/>
</g>
<g opacity="0.3">
<mask id="path-161-inside-81_1001_3895" fill="white">
<path d="M286.896 454.755L360.219 412.423L374.021 420.289L300.699 462.621L286.896 454.755Z"/>
</mask>
<path d="M360.219 412.423L361.028 411.955L360.216 411.493L359.407 411.96L360.219 412.423ZM287.708 455.218L361.03 412.885L359.407 411.96L286.085 454.292L287.708 455.218ZM359.409 412.89L373.211 420.756L374.83 419.822L361.028 411.955L359.409 412.89Z" fill="#969696" mask="url(#path-161-inside-81_1001_3895)"/>
</g>
<g opacity="0.3">
<mask id="path-163-inside-82_1001_3895" fill="white">
<path d="M526.25 409.404L526.25 444.203L511.622 452.758L511.622 417.958L526.25 409.404Z"/>
</mask>
<path d="M526.25 444.203L526.25 445.138L527.056 444.666L527.056 443.731L526.25 444.203ZM525.443 409.875L525.443 444.675L527.056 443.731L527.056 408.932L525.443 409.875ZM526.25 443.269L511.622 451.823L511.622 453.692L526.25 445.138L526.25 443.269Z" fill="#969696" mask="url(#path-163-inside-82_1001_3895)"/>
</g>
<mask id="path-165-inside-83_1001_3895" fill="white">
<path d="M328.194 340.709L275.963 310.554L250.447 325.095L302.679 355.251L328.194 340.709Z"/>
</mask>
<path d="M328.194 340.709L329.006 340.246L329.815 340.714L329.003 341.177L328.194 340.709ZM275.963 310.554L275.153 310.086L275.965 309.623L276.775 310.091L275.963 310.554ZM327.382 341.172L275.151 311.016L276.775 310.091L329.006 340.246L327.382 341.172ZM276.772 311.021L251.257 325.563L249.638 324.628L275.153 310.086L276.772 311.021ZM301.869 354.784L327.384 340.242L329.003 341.177L303.488 355.718L301.869 354.784Z" fill="#969696" mask="url(#path-165-inside-83_1001_3895)"/>
<g opacity="0.3">
<mask id="path-167-inside-84_1001_3895" fill="white">
<path d="M369.139 498.589L369.139 558.901L394.49 573.726L394.49 513.415L369.139 498.589Z"/>
</mask>
<path d="M369.139 498.589L368.332 498.117L368.332 497.183L369.139 497.655L369.139 498.589ZM369.139 558.901L369.139 559.835L368.332 559.363L368.332 558.429L369.139 558.901ZM369.946 499.061L369.946 559.372L368.332 558.429L368.332 498.117L369.946 499.061ZM369.139 557.966L394.49 572.792L394.49 574.661L369.139 559.835L369.139 557.966ZM394.49 514.35L369.139 499.524L369.139 497.655L394.49 512.48L394.49 514.35Z" fill="#969696" mask="url(#path-167-inside-84_1001_3895)"/>
</g>
<mask id="path-169-inside-85_1001_3895" fill="white">
<path d="M606.522 497.654L606.522 557.966L631.873 572.792L631.873 512.48L606.522 497.654Z"/>
</mask>
<path d="M606.522 497.654L605.715 497.182L605.715 496.248L606.522 496.72L606.522 497.654ZM606.522 557.966L606.522 558.9L605.715 558.428L605.715 557.494L606.522 557.966ZM607.329 498.126L607.329 558.437L605.715 557.494L605.715 497.182L607.329 498.126ZM606.522 557.031L631.873 571.857L631.873 573.726L606.522 558.9L606.522 557.031ZM631.873 513.415L606.522 498.589L606.522 496.72L631.873 511.546L631.873 513.415Z" fill="#969696" mask="url(#path-169-inside-85_1001_3895)"/>
<mask id="path-171-inside-86_1001_3895" fill="white">
<path d="M579.42 135.102L631.652 104.946L657.167 119.488L604.936 149.644L579.42 135.102Z"/>
</mask>
<path d="M579.42 135.102L578.608 134.639L577.799 135.106L578.611 135.569L579.42 135.102ZM631.652 104.946L632.461 104.479L631.649 104.016L630.84 104.483L631.652 104.946ZM580.232 135.565L632.464 105.409L630.84 104.483L578.608 134.639L580.232 135.565ZM630.842 105.413L656.357 119.955L657.976 119.021L632.461 104.479L630.842 105.413ZM605.745 149.176L580.23 134.635L578.611 135.569L604.126 150.111L605.745 149.176Z" fill="#969696" mask="url(#path-171-inside-86_1001_3895)"/>
<mask id="path-173-inside-87_1001_3895" fill="white">
<path d="M327.479 202.392L225.136 143.304L199.621 157.846L301.964 216.933L327.479 202.392Z"/>
</mask>
<path d="M327.479 202.392L328.291 201.929L329.1 202.396L328.288 202.859L327.479 202.392ZM225.136 143.304L224.326 142.836L225.138 142.374L225.948 142.841L225.136 143.304ZM326.667 202.854L224.324 143.766L225.948 142.841L328.291 201.929L326.667 202.854ZM225.945 143.771L200.43 158.313L198.811 157.378L224.326 142.836L225.945 143.771ZM301.154 216.466L326.67 201.924L328.288 202.859L302.773 217.401L301.154 216.466Z" fill="#969696" mask="url(#path-173-inside-87_1001_3895)"/>
<mask id="path-175-inside-88_1001_3895" fill="white">
<path d="M697.167 202.391L799.51 143.303L825.025 157.845L722.682 216.933L697.167 202.391Z"/>
</mask>
<path d="M697.167 202.391L696.355 201.929L695.545 202.396L696.357 202.859L697.167 202.391ZM799.51 143.303L800.319 142.836L799.507 142.373L798.698 142.841L799.51 143.303ZM697.978 202.854L800.322 143.766L798.698 142.841L696.355 201.929L697.978 202.854ZM798.7 143.771L824.216 158.313L825.834 157.378L800.319 142.836L798.7 143.771ZM723.491 216.466L697.976 201.924L696.357 202.859L721.872 217.4L723.491 216.466Z" fill="#969696" mask="url(#path-175-inside-88_1001_3895)"/>
<g opacity="0.3">
<mask id="path-177-inside-89_1001_3895" fill="white">
<path d="M537.393 567.135L537.393 686.279L512.041 701.105L512.041 581.961L537.393 567.135Z"/>
</mask>
<path d="M537.393 567.135L538.199 566.663L538.199 565.729L537.393 566.2L537.393 567.135ZM537.393 686.279L537.393 687.213L538.199 686.742L538.199 685.807L537.393 686.279ZM536.586 567.607L536.586 686.751L538.199 685.807L538.199 566.663L536.586 567.607ZM537.393 685.344L512.041 700.17L512.041 702.039L537.393 687.213L537.393 685.344ZM512.041 582.896L537.393 568.07L537.393 566.2L512.041 581.026L512.041 582.896Z" fill="#969696" mask="url(#path-177-inside-89_1001_3895)"/>
</g>
<g opacity="0.3">
<mask id="path-179-inside-90_1001_3895" fill="white">
<path d="M649.789 420.161L722.888 462.365L722.976 478.231L649.877 436.027L649.789 420.161Z"/>
</mask>
<path d="M722.976 478.231L722.982 479.165L723.791 479.633L723.786 478.698L722.976 478.231ZM649.877 436.027L649.068 435.56L649.073 436.494L649.882 436.962L649.877 436.027ZM722.078 461.897L722.167 477.764L723.786 478.698L723.697 462.832L722.078 461.897ZM722.971 477.296L649.872 435.092L649.882 436.962L722.982 479.165L722.971 477.296ZM650.687 436.494L650.598 420.628L648.979 419.693L649.068 435.56L650.687 436.494Z" fill="#969696" mask="url(#path-179-inside-90_1001_3895)"/>
</g>
<mask id="path-181-inside-91_1001_3895" fill="white">
<path d="M696.243 341.644L748.474 311.488L773.99 326.03L721.758 356.186L696.243 341.644Z"/>
</mask>
<path d="M696.243 341.644L695.431 341.181L694.622 341.648L695.434 342.111L696.243 341.644ZM748.474 311.488L749.284 311.021L748.472 310.558L747.662 311.025L748.474 311.488ZM697.055 342.107L749.286 311.951L747.662 311.025L695.431 341.181L697.055 342.107ZM747.665 311.955L773.18 326.497L774.799 325.563L749.284 311.021L747.665 311.955ZM722.568 355.718L697.053 341.177L695.434 342.111L720.949 356.653L722.568 355.718Z" fill="#969696" mask="url(#path-181-inside-91_1001_3895)"/>
<line x1="444.373" y1="361.955" x2="444.373" y2="373.17" stroke="#969696" stroke-width="0.934579"/>
<line x1="526.114" y1="267.967" x2="516.402" y2="262.36" stroke="#969696" stroke-width="0.934579"/>
<line x1="567.036" y1="386.158" x2="576.748" y2="380.551" stroke="#969696" stroke-width="0.934579"/>
<line x1="458.057" y1="386.659" x2="448.345" y2="381.051" stroke="#969696" stroke-width="0.934579"/>
<line x1="497.878" y1="267.466" x2="507.59" y2="261.859" stroke="#969696" stroke-width="0.934579"/>
<line opacity="0.3" x1="397.868" y1="210.131" x2="457.701" y2="175.587" stroke="#969696" stroke-width="0.934579"/>
<line opacity="0.3" x1="343.438" y1="304.012" x2="343.438" y2="373.101" stroke="#969696" stroke-width="0.934579"/>
<line opacity="0.3" x1="681.758" y1="304.012" x2="681.758" y2="373.101" stroke="#969696" stroke-width="0.934579"/>
<line opacity="0.3" x1="567.036" y1="502.638" x2="626.869" y2="468.093" stroke="#969696" stroke-width="0.934579"/>
<line opacity="0.3" y1="-0.46729" x2="69.0894" y2="-0.46729" transform="matrix(-0.866025 -0.5 -0.5 0.866025 457.01 502.108)" stroke="#969696" stroke-width="0.934579"/>
<line opacity="0.3" y1="-0.46729" x2="69.0894" y2="-0.46729" transform="matrix(-0.866025 -0.5 -0.5 0.866025 626.168 210.519)" stroke="#969696" stroke-width="0.934579"/>
<line opacity="0.3" y1="-0.46729" x2="373.832" y2="-0.46729" transform="matrix(-0.866025 -0.5 -0.5 0.866025 343.355 241.395)" stroke="url(#paint0_linear_1001_3895)" stroke-width="0.934579"/>
<line opacity="0.3" y1="-0.46729" x2="373.832" y2="-0.46729" transform="matrix(-0.866025 -0.5 -0.5 0.866025 631.205 104.946)" stroke="url(#paint1_linear_1001_3895)" stroke-width="0.934579"/>
<line opacity="0.3" x1="681.057" y1="240.99" x2="1004.8" y2="54.0742" stroke="url(#paint2_linear_1001_3895)" stroke-width="0.934579"/>
<line opacity="0.3" x1="845.543" y1="521.364" x2="1169.29" y2="334.448" stroke="url(#paint3_linear_1001_3895)" stroke-width="0.934579"/>
<line opacity="0.3" x1="630.588" y1="104.541" x2="954.336" y2="-82.3745" stroke="url(#paint4_linear_1001_3895)" stroke-width="0.934579"/>
<line opacity="0.3" x1="749.281" y1="312.018" x2="1073.03" y2="125.102" stroke="url(#paint5_linear_1001_3895)" stroke-width="0.934579"/>
<line opacity="0.3" x1="634.327" y1="511.084" x2="958.075" y2="324.168" stroke="url(#paint6_linear_1001_3895)" stroke-width="0.934579"/>
<line opacity="0.3" x1="835.178" y1="526.846" x2="511.431" y2="713.762" stroke="url(#paint7_linear_1001_3895)" stroke-width="0.934579"/>
<line opacity="0.3" x1="747.178" y1="311.488" x2="747.178" y2="-62.344" stroke="url(#paint8_linear_1001_3895)" stroke-width="0.934579"/>
<line opacity="0.3" x1="326.617" y1="338.591" x2="326.617" y2="-35.2407" stroke="url(#paint9_linear_1001_3895)" stroke-width="0.934579"/>
<line opacity="0.3" x1="836.899" y1="525.507" x2="836.899" y2="151.675" stroke="url(#paint10_linear_1001_3895)" stroke-width="0.934579"/>
<line opacity="0.3" x1="446.242" y1="133.918" x2="446.242" y2="-239.914" stroke="url(#paint11_linear_1001_3895)" stroke-width="0.934579"/>
<line opacity="0.3" x1="631.29" y1="107.75" x2="631.29" y2="-266.082" stroke="url(#paint12_linear_1001_3895)" stroke-width="0.934579"/>
<line opacity="0.3" x1="392.971" y1="209.619" x2="392.971" y2="-164.213" stroke="url(#paint13_linear_1001_3895)" stroke-width="0.934579"/>
<line opacity="0.3" y1="-0.46729" x2="373.832" y2="-0.46729" transform="matrix(1.19249e-08 1 1 -1.19249e-08 199.981 161.956)" stroke="url(#paint14_linear_1001_3895)" stroke-width="0.934579"/>
<line opacity="0.3" x1="632.374" y1="512.828" x2="308.626" y2="699.743" stroke="url(#paint15_linear_1001_3895)" stroke-width="0.934579"/>
<line opacity="0.3" x1="463.214" y1="505.351" x2="139.466" y2="692.267" stroke="url(#paint16_linear_1001_3895)" stroke-width="0.934579"/>
<line opacity="0.3" x1="394.056" y1="465.164" x2="70.3086" y2="652.08" stroke="url(#paint17_linear_1001_3895)" stroke-width="0.934579"/>
<line opacity="0.3" x1="324.898" y1="342.267" x2="1.14992" y2="529.182" stroke="url(#paint18_linear_1001_3895)" stroke-width="0.934579"/>
<line opacity="0.3" y1="-0.46729" x2="373.832" y2="-0.46729" transform="matrix(0.866025 0.5 0.5 -0.866025 564.466 506.815)" stroke="url(#paint19_linear_1001_3895)" stroke-width="0.934579"/>
<line opacity="0.3" y1="-0.46729" x2="373.832" y2="-0.46729" transform="matrix(0.866025 0.5 0.5 -0.866025 747.646 311.488)" stroke="url(#paint20_linear_1001_3895)" stroke-width="0.934579"/>
<line opacity="0.3" x1="512.019" y1="534.853" x2="512.019" y2="908.684" stroke="url(#paint21_linear_1001_3895)" stroke-width="0.934579"/>
<line x1="581.589" y1="361.955" x2="581.589" y2="373.17" stroke="#969696" stroke-width="0.934579"/>
<g opacity="0.8">
<path d="M514 381L479 360L549 360L514 381Z" fill="#29AD26"/>
<path d="M514 339L479 318L549 318L514 339Z" fill="#AAF06C"/>
<path d="M514 339L549 360L479 360L514 339Z" fill="#29AD26"/>
<path d="M479 360L514 339V381L479 360Z" fill="#56CC5D"/>
<path d="M514 339L479 360V318L514 339Z" fill="#56CC5D"/>
<path d="M549 360L514 381V339L549 360Z" fill="#29AD26"/>
<path d="M514 339L549 318V360L514 339Z" fill="#29AD26"/>
<path d="M514 297L549 318L479 318L514 297Z" fill="#AAF06C"/>
</g>
<defs>
<linearGradient id="paint0_linear_1001_3895" x1="370.276" y1="-1.28221" x2="-97.2122" y2="-2.07329" gradientUnits="userSpaceOnUse">
<stop stop-color="#969696" stop-opacity="0"/>
<stop offset="1" stop-color="#969696"/>
</linearGradient>
<linearGradient id="paint1_linear_1001_3895" x1="370.276" y1="-1.28221" x2="-97.2122" y2="-2.07329" gradientUnits="userSpaceOnUse">
<stop stop-color="#969696" stop-opacity="0"/>
<stop offset="1" stop-color="#969696"/>
</linearGradient>
<linearGradient id="paint2_linear_1001_3895" x1="1001.32" y1="55.1462" x2="596.066" y2="288.205" gradientUnits="userSpaceOnUse">
<stop stop-color="#969696" stop-opacity="0"/>
<stop offset="1" stop-color="#969696"/>
</linearGradient>
<linearGradient id="paint3_linear_1001_3895" x1="1165.8" y1="335.52" x2="760.552" y2="568.579" gradientUnits="userSpaceOnUse">
<stop stop-color="#969696" stop-opacity="0"/>
<stop offset="1" stop-color="#969696"/>
</linearGradient>
<linearGradient id="paint4_linear_1001_3895" x1="950.849" y1="-81.3025" x2="545.597" y2="151.757" gradientUnits="userSpaceOnUse">
<stop stop-color="#969696" stop-opacity="0"/>
<stop offset="1" stop-color="#969696"/>
</linearGradient>
<linearGradient id="paint5_linear_1001_3895" x1="1069.54" y1="126.174" x2="664.289" y2="359.233" gradientUnits="userSpaceOnUse">
<stop stop-color="#969696" stop-opacity="0"/>
<stop offset="1" stop-color="#969696"/>
</linearGradient>
<linearGradient id="paint6_linear_1001_3895" x1="954.589" y1="325.24" x2="549.336" y2="558.299" gradientUnits="userSpaceOnUse">
<stop stop-color="#969696" stop-opacity="0"/>
<stop offset="1" stop-color="#969696"/>
</linearGradient>
<linearGradient id="paint7_linear_1001_3895" x1="514.917" y1="712.69" x2="920.17" y2="479.631" gradientUnits="userSpaceOnUse">
<stop stop-color="#969696" stop-opacity="0"/>
<stop offset="1" stop-color="#969696"/>
</linearGradient>
<linearGradient id="paint8_linear_1001_3895" x1="746.363" y1="-58.7885" x2="745.572" y2="408.7" gradientUnits="userSpaceOnUse">
<stop stop-color="#969696" stop-opacity="0"/>
<stop offset="1" stop-color="#969696"/>
</linearGradient>
<linearGradient id="paint9_linear_1001_3895" x1="325.802" y1="-31.6853" x2="325.011" y2="435.803" gradientUnits="userSpaceOnUse">
<stop stop-color="#969696" stop-opacity="0"/>
<stop offset="1" stop-color="#969696"/>
</linearGradient>
<linearGradient id="paint10_linear_1001_3895" x1="836.084" y1="155.231" x2="835.293" y2="622.719" gradientUnits="userSpaceOnUse">
<stop stop-color="#969696" stop-opacity="0"/>
<stop offset="1" stop-color="#969696"/>
</linearGradient>
<linearGradient id="paint11_linear_1001_3895" x1="445.427" y1="-236.358" x2="444.636" y2="231.13" gradientUnits="userSpaceOnUse">
<stop stop-color="#969696" stop-opacity="0"/>
<stop offset="1" stop-color="#969696"/>
</linearGradient>
<linearGradient id="paint12_linear_1001_3895" x1="630.475" y1="-262.526" x2="629.684" y2="204.962" gradientUnits="userSpaceOnUse">
<stop stop-color="#969696" stop-opacity="0"/>
<stop offset="1" stop-color="#969696"/>
</linearGradient>
<linearGradient id="paint13_linear_1001_3895" x1="392.156" y1="-160.657" x2="391.365" y2="306.831" gradientUnits="userSpaceOnUse">
<stop stop-color="#969696" stop-opacity="0"/>
<stop offset="1" stop-color="#969696"/>
</linearGradient>
<linearGradient id="paint14_linear_1001_3895" x1="370.276" y1="-1.28221" x2="-97.2122" y2="-2.07329" gradientUnits="userSpaceOnUse">
<stop stop-color="#969696" stop-opacity="0"/>
<stop offset="1" stop-color="#969696"/>
</linearGradient>
<linearGradient id="paint15_linear_1001_3895" x1="312.113" y1="698.671" x2="717.366" y2="465.612" gradientUnits="userSpaceOnUse">
<stop stop-color="#969696" stop-opacity="0"/>
<stop offset="1" stop-color="#969696"/>
</linearGradient>
<linearGradient id="paint16_linear_1001_3895" x1="142.952" y1="691.195" x2="548.205" y2="458.136" gradientUnits="userSpaceOnUse">
<stop stop-color="#969696" stop-opacity="0"/>
<stop offset="1" stop-color="#969696"/>
</linearGradient>
<linearGradient id="paint17_linear_1001_3895" x1="73.7952" y1="651.008" x2="479.048" y2="417.949" gradientUnits="userSpaceOnUse">
<stop stop-color="#969696" stop-opacity="0"/>
<stop offset="1" stop-color="#969696"/>
</linearGradient>
<linearGradient id="paint18_linear_1001_3895" x1="4.63648" y1="528.11" x2="409.889" y2="295.051" gradientUnits="userSpaceOnUse">
<stop stop-color="#969696" stop-opacity="0"/>
<stop offset="1" stop-color="#969696"/>
</linearGradient>
<linearGradient id="paint19_linear_1001_3895" x1="370.276" y1="-1.28221" x2="-97.2122" y2="-2.07329" gradientUnits="userSpaceOnUse">
<stop stop-color="#969696" stop-opacity="0"/>
<stop offset="1" stop-color="#969696"/>
</linearGradient>
<linearGradient id="paint20_linear_1001_3895" x1="370.276" y1="-1.28221" x2="-97.2122" y2="-2.07329" gradientUnits="userSpaceOnUse">
<stop stop-color="#969696" stop-opacity="0"/>
<stop offset="1" stop-color="#969696"/>
</linearGradient>
<linearGradient id="paint21_linear_1001_3895" x1="512.834" y1="905.129" x2="513.625" y2="437.64" gradientUnits="userSpaceOnUse">
<stop stop-color="#969696" stop-opacity="0"/>
<stop offset="1" stop-color="#969696"/>
</linearGradient>
</defs>
</svg>
