<svg width="28" height="27" viewBox="0 0 28 27" fill="none" xmlns="http://www.w3.org/2000/svg">
<path d="M15.9997 3.66665L15.0271 2.04568C14.5613 1.26948 13.4367 1.26875 12.9699 2.04432L9.43407 7.91967C9.26652 8.19808 8.99322 8.39664 8.67666 8.46996L1.99335 10.0178C1.11217 10.2219 0.764977 11.2905 1.35791 11.9735L5.855 17.1541C6.06801 17.3995 6.1724 17.7208 6.14431 18.0445L5.98589 19.8699M18.2238 7.35251L18.5651 7.91967C18.7327 8.19808 19.006 8.39664 19.3226 8.46996L26.0059 10.0178C26.887 10.2219 27.2342 11.2905 26.6413 11.9735L22.1442 17.1541C21.9312 17.3995 21.8268 17.7208 21.8549 18.0445L22.4481 24.879C22.5263 25.7802 21.6173 26.4406 20.7844 26.0877L14.4677 23.4116C14.1685 23.2849 13.8307 23.2849 13.5315 23.4116L7.21478 26.0877C6.38193 26.4406 5.47296 25.7802 5.55116 24.879L5.58114 24.5337L5.63173 23.9507" stroke="#29AD26" stroke-width="1.5" stroke-linecap="round"/>
</svg>
