<svg width="24" height="20" viewBox="0 0 24 20" fill="none" xmlns="http://www.w3.org/2000/svg">
<path d="M21.057 5.18076C21.0663 5.39196 21.0663 5.59356 21.0663 5.80476C21.0756 12.208 16.3711 19.6 7.76784 19.6C5.23039 19.6 2.73924 18.8416 0.600006 17.4208C0.970437 17.4688 1.34087 17.488 1.7113 17.488C3.81349 17.488 5.86012 16.7584 7.5178 15.4048C5.51747 15.3664 3.75793 14.0128 3.14672 12.0352C3.85053 12.1792 4.57287 12.1504 5.25817 11.9488C3.08189 11.5072 1.51682 9.51997 1.50756 7.20636C1.50756 7.18716 1.50756 7.16796 1.50756 7.14876C2.15581 7.52316 2.88741 7.73436 3.62828 7.75356C1.58165 6.33276 0.942654 3.50075 2.1836 1.28314C4.56361 4.31675 8.06418 6.15036 11.8241 6.35196C11.4444 4.67195 11.963 2.90555 13.1761 1.71514C15.0561 -0.118462 18.0195 -0.0224614 19.7976 1.92634C20.844 1.71514 21.8535 1.31194 22.7703 0.745541C22.4184 1.86874 21.6868 2.81915 20.7144 3.42395C21.6405 3.30875 22.548 3.04955 23.4 2.66555C22.7703 3.64475 21.9738 4.48955 21.057 5.18076Z" fill="#26AEE8"/>
</svg>
