<svg width="68" height="76" viewBox="0 0 68 76" fill="none" xmlns="http://www.w3.org/2000/svg">
<g id="1922">
<g id="Group 8">
<g id="Group 11">
<g id="Rectangle 79">
<mask id="path-1-inside-1_2560_5177" fill="white">
<path d="M33.8711 53.1138L33.8711 37.9138L46.992 30.2404L46.992 45.4404L33.8711 53.1138Z"/>
</mask>
<path d="M33.8711 53.1138L33.8711 37.9138L46.992 30.2404L46.992 45.4404L33.8711 53.1138Z" fill="#F0F0F0"/>
<path d="M46.992 30.2404L47.4294 29.9846L47.4294 29.4779L46.992 29.7337L46.992 30.2404ZM46.992 45.4404L46.992 45.947L47.4294 45.6913L47.4294 45.1846L46.992 45.4404ZM33.8711 38.4204L46.992 30.747L46.992 29.7337L33.8711 37.4071L33.8711 38.4204ZM46.5547 30.4961L46.5547 45.6961L47.4294 45.1846L47.4294 29.9846L46.5547 30.4961ZM46.992 44.9337L33.8711 52.6071L33.8711 53.6204L46.992 45.947L46.992 44.9337Z" fill="#969696" mask="url(#path-1-inside-1_2560_5177)"/>
</g>
<g id="Rectangle 80">
<mask id="path-3-inside-2_2560_5177" fill="white">
<path d="M20.7734 30.3335L33.8218 22.8L46.9691 30.293L33.9207 37.8265L20.7734 30.3335Z"/>
</mask>
<path d="M20.7734 30.3335L33.8218 22.8L46.9691 30.293L33.9207 37.8265L20.7734 30.3335Z" fill="white"/>
<path d="M33.8218 22.8L34.2606 22.5467L33.8204 22.2958L33.3816 22.5491L33.8218 22.8ZM21.2136 30.5844L34.262 23.0509L33.3816 22.5491L20.3332 30.0826L21.2136 30.5844ZM33.383 23.0533L46.5303 30.5464L47.4079 30.0397L34.2606 22.5467L33.383 23.0533Z" fill="#969696" mask="url(#path-3-inside-2_2560_5177)"/>
</g>
<g id="Rectangle 81">
<mask id="path-5-inside-3_2560_5177" fill="white">
<path d="M20.7715 30.2762L20.7715 45.4762L33.8924 53.1496L33.8924 37.9496L20.7715 30.2762Z"/>
</mask>
<path d="M20.7715 30.2762L20.7715 45.4762L33.8924 53.1496L33.8924 37.9496L20.7715 30.2762Z" fill="white"/>
<path d="M20.7715 30.2762L20.3341 30.0205L20.3341 29.5138L20.7715 29.7696L20.7715 30.2762ZM20.7715 45.4762L20.7715 45.9829L20.3341 45.7271L20.3341 45.2205L20.7715 45.4762ZM21.2088 30.532L21.2088 45.732L20.3341 45.2205L20.3341 30.0205L21.2088 30.532ZM20.7715 44.9696L33.8924 52.643L33.8924 53.6563L20.7715 45.9829L20.7715 44.9696ZM33.8924 38.4563L20.7715 30.7829L20.7715 29.7696L33.8924 37.443L33.8924 38.4563Z" fill="#969696" mask="url(#path-5-inside-3_2560_5177)"/>
</g>
<circle id="Ellipse 26" cx="34.0552" cy="37.8404" r="1.52" fill="#2D2D2D"/>
</g>
<g id="Group 14">
<g id="Rectangle 79_2">
<mask id="path-8-inside-4_2560_5177" fill="white">
<path d="M53.6309 64.229L53.6309 26.9267L66.7518 19.2533L66.7518 56.5556L53.6309 64.229Z"/>
</mask>
<path d="M53.6309 64.229L53.6309 26.9267L66.7518 19.2533L66.7518 56.5556L53.6309 64.229Z" fill="#F0F0F0"/>
<path d="M66.7518 19.2533L67.1892 18.9975L67.1892 18.4909L66.7518 18.7466L66.7518 19.2533ZM66.7518 56.5556L66.7518 57.0623L67.1892 56.8065L67.1892 56.2998L66.7518 56.5556ZM53.6309 27.4334L66.7518 19.76L66.7518 18.7466L53.6309 26.42L53.6309 27.4334ZM66.3144 19.5091L66.3144 56.8114L67.1892 56.2998L67.1892 18.9975L66.3144 19.5091ZM66.7518 56.0489L53.6309 63.7223L53.6309 64.7357L66.7518 57.0623L66.7518 56.0489Z" fill="#969696" mask="url(#path-8-inside-4_2560_5177)"/>
</g>
<g id="Rectangle 80_2">
<mask id="path-10-inside-5_2560_5177" fill="white">
<path d="M20.75 8.07117L33.7984 0.537682L66.7296 19.3061L53.6812 26.8395L20.75 8.07117Z"/>
</mask>
<path d="M20.75 8.07117L33.7984 0.537682L66.7296 19.3061L53.6812 26.8395L20.75 8.07117Z" fill="white"/>
<path d="M33.7984 0.537682L34.2372 0.284348L33.797 0.0334698L33.3582 0.286803L33.7984 0.537682ZM21.1902 8.32205L34.2386 0.788561L33.3582 0.286803L20.3098 7.82029L21.1902 8.32205ZM33.3596 0.791016L66.2908 19.5594L67.1683 19.0527L34.2372 0.284348L33.3596 0.791016Z" fill="#969696" mask="url(#path-10-inside-5_2560_5177)"/>
</g>
<g id="Rectangle 81_2">
<mask id="path-12-inside-6_2560_5177" fill="white">
<path d="M20.7715 8.07019L20.7715 45.0103L53.6524 64.2397L53.6524 27.2996L20.7715 8.07019Z"/>
</mask>
<path d="M20.7715 8.07019L20.7715 45.0103L53.6524 64.2397L53.6524 27.2996L20.7715 8.07019Z" fill="white"/>
<path d="M20.7715 8.07019L20.3341 7.81441L20.3341 7.30774L20.7715 7.56352L20.7715 8.07019ZM20.7715 45.0103L20.7715 45.517L20.3341 45.2612L20.3341 44.7545L20.7715 45.0103ZM21.2088 8.32597L21.2089 45.2661L20.3341 44.7545L20.3341 7.81441L21.2088 8.32597ZM20.7715 44.5036L53.6524 63.7331L53.6524 64.7464L20.7715 45.517L20.7715 44.5036ZM53.6524 27.8063L20.7715 8.57686L20.7715 7.56352L53.6524 26.793L53.6524 27.8063Z" fill="#969696" mask="url(#path-12-inside-6_2560_5177)"/>
</g>
<circle id="Ellipse 26_2" cx="53.8169" cy="26.8534" r="1.52" fill="#2D2D2D"/>
</g>
<g id="Group 8_2">
<g id="Rectangle 79_3">
<mask id="path-15-inside-7_2560_5177" fill="white">
<path d="M14.1113 64.2604L14.1113 49.0604L27.2323 41.387L27.2323 56.587L14.1113 64.2604Z"/>
</mask>
<path d="M14.1113 64.2604L14.1113 49.0604L27.2323 41.387L27.2323 56.587L14.1113 64.2604Z" fill="#F0F0F0"/>
<path d="M27.2323 41.387L27.6696 41.1312L27.6696 40.6245L27.2323 40.8803L27.2323 41.387ZM27.2323 56.587L27.2323 57.0936L27.6696 56.8379L27.6696 56.3312L27.2323 56.587ZM14.1113 49.567L27.2323 41.8936L27.2323 40.8803L14.1113 48.5537L14.1113 49.567ZM26.7949 41.6428L26.7949 56.8428L27.6696 56.3312L27.6696 41.1312L26.7949 41.6428ZM27.2323 56.0803L14.1113 63.7537L14.1113 64.767L27.2323 57.0936L27.2323 56.0803Z" fill="#969696" mask="url(#path-15-inside-7_2560_5177)"/>
</g>
<g id="Rectangle 80_3">
<mask id="path-17-inside-8_2560_5177" fill="white">
<path d="M1.01367 41.4801L14.0621 33.9466L27.2094 41.4396L14.161 48.9731L1.01367 41.4801Z"/>
</mask>
<path d="M1.01367 41.4801L14.0621 33.9466L27.2094 41.4396L14.161 48.9731L1.01367 41.4801Z" fill="white"/>
<path d="M14.0621 33.9466L14.5008 33.6933L14.0606 33.4424L13.6219 33.6957L14.0621 33.9466ZM1.45387 41.731L14.5022 34.1975L13.6219 33.6957L0.573478 41.2292L1.45387 41.731ZM13.6233 34.2L26.7706 41.693L27.6481 41.1863L14.5008 33.6933L13.6233 34.2Z" fill="#969696" mask="url(#path-17-inside-8_2560_5177)"/>
</g>
<g id="Rectangle 81_3">
<mask id="path-19-inside-9_2560_5177" fill="white">
<path d="M1.01172 41.4229L1.01172 56.6229L14.1327 64.2963L14.1327 49.0963L1.01172 41.4229Z"/>
</mask>
<path d="M1.01172 41.4229L1.01172 56.6229L14.1327 64.2963L14.1327 49.0963L1.01172 41.4229Z" fill="white"/>
<path d="M1.01172 41.4229L0.574354 41.1671L0.574354 40.6604L1.01172 40.9162L1.01172 41.4229ZM1.01172 56.6229L1.01172 57.1295L0.574355 56.8737L0.574355 56.3671L1.01172 56.6229ZM1.44908 41.6786L1.44908 56.8786L0.574355 56.3671L0.574354 41.1671L1.44908 41.6786ZM1.01172 56.1162L14.1327 63.7896L14.1327 64.8029L1.01172 57.1295L1.01172 56.1162ZM14.1327 49.6029L1.01172 41.9295L1.01172 40.9162L14.1327 48.5896L14.1327 49.6029Z" fill="#969696" mask="url(#path-19-inside-9_2560_5177)"/>
</g>
<circle id="Ellipse 26_3" cx="14.2973" cy="48.987" r="1.52" fill="#2D2D2D"/>
</g>
<g id="Group 9">
<g id="Rectangle 79_4">
<mask id="path-22-inside-10_2560_5177" fill="white">
<path d="M14.1113 41.967L14.1113 26.767L27.2323 19.0936L27.2323 34.2936L14.1113 41.967Z"/>
</mask>
<path d="M14.1113 41.967L14.1113 26.767L27.2323 19.0936L27.2323 34.2936L14.1113 41.967Z" fill="#F0F0F0"/>
<path d="M27.2323 19.0936L27.6696 18.8379L27.6696 18.3312L27.2323 18.587L27.2323 19.0936ZM27.2323 34.2936L27.2323 34.8003L27.6696 34.5445L27.6696 34.0379L27.2323 34.2936ZM14.1113 27.2737L27.2323 19.6003L27.2323 18.587L14.1113 26.2604L14.1113 27.2737ZM26.7949 19.3494L26.7949 34.5494L27.6696 34.0379L27.6696 18.8379L26.7949 19.3494ZM27.2323 33.787L14.1113 41.4604L14.1113 42.4737L27.2323 34.8003L27.2323 33.787Z" fill="#969696" mask="url(#path-22-inside-10_2560_5177)"/>
</g>
<g id="Rectangle 80_4">
<mask id="path-24-inside-11_2560_5177" fill="white">
<path d="M1.01367 19.1868L14.0621 11.6533L27.2094 19.1463L14.161 26.6798L1.01367 19.1868Z"/>
</mask>
<path d="M1.01367 19.1868L14.0621 11.6533L27.2094 19.1463L14.161 26.6798L1.01367 19.1868Z" fill="white"/>
<path d="M14.0621 11.6533L14.5008 11.3999L14.0606 11.1491L13.6219 11.4024L14.0621 11.6533ZM1.45387 19.4376L14.5022 11.9042L13.6219 11.4024L0.573478 18.9359L1.45387 19.4376ZM13.6233 11.9066L26.7706 19.3996L27.6481 18.893L14.5008 11.3999L13.6233 11.9066Z" fill="#969696" mask="url(#path-24-inside-11_2560_5177)"/>
</g>
<g id="Rectangle 81_4">
<mask id="path-26-inside-12_2560_5177" fill="white">
<path d="M1.01172 19.1295L1.01172 34.3295L14.1327 42.0029L14.1327 26.8029L1.01172 19.1295Z"/>
</mask>
<path d="M1.01172 19.1295L1.01172 34.3295L14.1327 42.0029L14.1327 26.8029L1.01172 19.1295Z" fill="white"/>
<path d="M1.01172 19.1295L0.574354 18.8737L0.574354 18.3671L1.01172 18.6228L1.01172 19.1295ZM1.01172 34.3295L1.01172 34.8362L0.574355 34.5804L0.574355 34.0737L1.01172 34.3295ZM1.44908 19.3853L1.44908 34.5853L0.574355 34.0737L0.574354 18.8737L1.44908 19.3853ZM1.01172 33.8228L14.1327 41.4962L14.1327 42.5096L1.01172 34.8362L1.01172 33.8228ZM14.1327 27.3096L1.01172 19.6362L1.01172 18.6228L14.1327 26.2962L14.1327 27.3096Z" fill="#969696" mask="url(#path-26-inside-12_2560_5177)"/>
</g>
<circle id="Ellipse 26_4" cx="14.2973" cy="26.6937" r="1.52" fill="#2D2D2D"/>
</g>
<g id="Group 5">
<g id="Rectangle 79_5">
<mask id="path-29-inside-13_2560_5177" fill="white">
<path d="M33.8711 75.5667L33.8711 60.3667L46.992 52.6932L46.992 67.8932L33.8711 75.5667Z"/>
</mask>
<path d="M33.8711 75.5667L33.8711 60.3667L46.992 52.6932L46.992 67.8932L33.8711 75.5667Z" fill="#F0F0F0"/>
<path d="M46.992 52.6932L47.4294 52.4375L47.4294 51.9308L46.992 52.1866L46.992 52.6932ZM46.992 67.8932L46.992 68.3999L47.4294 68.1441L47.4294 67.6375L46.992 67.8932ZM33.8711 60.8733L46.992 53.1999L46.992 52.1866L33.8711 59.86L33.8711 60.8733ZM46.5547 52.949L46.5547 68.149L47.4294 67.6375L47.4294 52.4375L46.5547 52.949ZM46.992 67.3866L33.8711 75.06L33.8711 76.0733L46.992 68.3999L46.992 67.3866Z" fill="#969696" mask="url(#path-29-inside-13_2560_5177)"/>
</g>
<g id="Rectangle 80_5">
<mask id="path-31-inside-14_2560_5177" fill="white">
<path d="M20.7734 52.7864L33.8218 45.2529L46.9691 52.7459L33.9207 60.2794L20.7734 52.7864Z"/>
</mask>
<path d="M20.7734 52.7864L33.8218 45.2529L46.9691 52.7459L33.9207 60.2794L20.7734 52.7864Z" fill="white"/>
<path d="M33.8218 45.2529L34.2606 44.9996L33.8204 44.7487L33.3816 45.002L33.8218 45.2529ZM21.2136 53.0373L34.262 45.5038L33.3816 45.002L20.3332 52.5355L21.2136 53.0373ZM33.383 45.5062L46.5303 52.9992L47.4079 52.4926L34.2606 44.9996L33.383 45.5062Z" fill="#969696" mask="url(#path-31-inside-14_2560_5177)"/>
</g>
<g id="Rectangle 81_5">
<mask id="path-33-inside-15_2560_5177" fill="white">
<path d="M20.7715 52.7291L20.7715 67.9291L33.8924 75.6025L33.8924 60.4025L20.7715 52.7291Z"/>
</mask>
<path d="M20.7715 52.7291L20.7715 67.9291L33.8924 75.6025L33.8924 60.4025L20.7715 52.7291Z" fill="white"/>
<path d="M20.7715 52.7291L20.3341 52.4733L20.3341 51.9667L20.7715 52.2225L20.7715 52.7291ZM20.7715 67.9291L20.7715 68.4358L20.3341 68.18L20.3341 67.6733L20.7715 67.9291ZM21.2088 52.9849L21.2088 68.1849L20.3341 67.6733L20.3341 52.4733L21.2088 52.9849ZM20.7715 67.4225L33.8924 75.0959L33.8924 76.1092L20.7715 68.4358L20.7715 67.4225ZM33.8924 60.9092L20.7715 53.2358L20.7715 52.2225L33.8924 59.8959L33.8924 60.9092Z" fill="#969696" mask="url(#path-33-inside-15_2560_5177)"/>
</g>
<circle id="Ellipse 26_5" cx="34.0552" cy="60.2933" r="1.52" fill="#2D2D2D"/>
</g>
<g id="Group 10">
<g id="Rectangle 79_6">
<mask id="path-36-inside-16_2560_5177" fill="white">
<path d="M33.8711 53.2733L33.8711 38.0733L46.992 30.3999L46.992 45.5999L33.8711 53.2733Z"/>
</mask>
<path d="M33.8711 53.2733L33.8711 38.0733L46.992 30.3999L46.992 45.5999L33.8711 53.2733Z" fill="#F0F0F0"/>
<path d="M46.992 30.3999L47.4294 30.1441L47.4294 29.6375L46.992 29.8932L46.992 30.3999ZM46.992 45.5999L46.992 46.1066L47.4294 45.8508L47.4294 45.3441L46.992 45.5999ZM33.8711 38.58L46.992 30.9066L46.992 29.8932L33.8711 37.5666L33.8711 38.58ZM46.5547 30.6557L46.5547 45.8557L47.4294 45.3441L47.4294 30.1441L46.5547 30.6557ZM46.992 45.0932L33.8711 52.7666L33.8711 53.78L46.992 46.1066L46.992 45.0932Z" fill="#969696" mask="url(#path-36-inside-16_2560_5177)"/>
</g>
<g id="Rectangle 80_6">
<mask id="path-38-inside-17_2560_5177" fill="white">
<path d="M20.7734 30.493L33.8218 22.9596L46.9691 30.4526L33.9207 37.9861L20.7734 30.493Z"/>
</mask>
<path d="M20.7734 30.493L33.8218 22.9596L46.9691 30.4526L33.9207 37.9861L20.7734 30.493Z" fill="white"/>
<path d="M33.8218 22.9596L34.2606 22.7062L33.8204 22.4553L33.3816 22.7087L33.8218 22.9596ZM21.2136 30.7439L34.262 23.2104L33.3816 22.7087L20.3332 30.2422L21.2136 30.7439ZM33.383 23.2129L46.5303 30.7059L47.4079 30.1992L34.2606 22.7062L33.383 23.2129Z" fill="#969696" mask="url(#path-38-inside-17_2560_5177)"/>
</g>
<g id="Rectangle 81_6">
<mask id="path-40-inside-18_2560_5177" fill="white">
<path d="M20.7715 30.4358L20.7715 45.6358L33.8924 53.3092L33.8924 38.1092L20.7715 30.4358Z"/>
</mask>
<path d="M20.7715 30.4358L20.7715 45.6358L33.8924 53.3092L33.8924 38.1092L20.7715 30.4358Z" fill="white"/>
<path d="M20.7715 30.4358L20.3341 30.18L20.3341 29.6733L20.7715 29.9291L20.7715 30.4358ZM20.7715 45.6358L20.7715 46.1425L20.3341 45.8867L20.3341 45.38L20.7715 45.6358ZM21.2088 30.6916L21.2088 45.8916L20.3341 45.38L20.3341 30.18L21.2088 30.6916ZM20.7715 45.1291L33.8924 52.8025L33.8924 53.8159L20.7715 46.1425L20.7715 45.1291ZM33.8924 38.6159L20.7715 30.9425L20.7715 29.9291L33.8924 37.6025L33.8924 38.6159Z" fill="#969696" mask="url(#path-40-inside-18_2560_5177)"/>
</g>
<circle id="Ellipse 26_6" cx="34.0552" cy="38" r="1.52" fill="#2D2D2D"/>
</g>
</g>
</g>
</svg>
