<svg width="68" height="76" viewBox="0 0 68 76" fill="none" xmlns="http://www.w3.org/2000/svg">
<mask id="path-1-inside-1_2560_4954" fill="white">
<path d="M33.8721 51.0294L33.8721 18.3557L47.5987 10.328L47.5987 43.0017L33.8721 51.0294Z"/>
</mask>
<path d="M33.8721 51.0294L33.8721 18.3557L47.5987 10.328L47.5987 43.0017L33.8721 51.0294Z" fill="#F0F0F0"/>
<path d="M47.5987 10.328L48.0361 10.0723L48.0361 9.56559L47.5987 9.82137L47.5987 10.328ZM47.5987 43.0017L47.5987 43.5084L48.0361 43.2526L48.0361 42.7459L47.5987 43.0017ZM33.8721 18.8623L47.5987 10.8347L47.5987 9.82137L33.8721 17.849L33.8721 18.8623ZM47.1613 10.5838L47.1613 43.2575L48.0361 42.7459L48.0361 10.0723L47.1613 10.5838ZM47.5987 42.4951L33.8721 50.5227L33.8721 51.536L47.5987 43.5084L47.5987 42.4951Z" fill="#969696" mask="url(#path-1-inside-1_2560_4954)"/>
<mask id="path-3-inside-2_2560_4954" fill="white">
<path d="M20.4463 10.2762L33.8574 2.53336L47.6938 10.4191L34.2827 18.162L20.4463 10.2762Z"/>
</mask>
<path d="M33.8574 2.53336L34.2962 2.28002L33.856 2.02914L33.4172 2.28248L33.8574 2.53336ZM20.8865 10.5271L34.2976 2.78423L33.4172 2.28248L20.0061 10.0254L20.8865 10.5271ZM33.4186 2.78669L47.255 10.6725L48.1326 10.1658L34.2962 2.28002L33.4186 2.78669Z" fill="#969696" mask="url(#path-3-inside-2_2560_4954)"/>
<mask id="path-5-inside-3_2560_4954" fill="white">
<path d="M20.3779 10.2336L20.3779 42.9305L34.1217 50.9681L34.1217 18.2713L20.3779 10.2336Z"/>
</mask>
<path d="M20.3779 10.2336L19.9406 9.97786L19.9406 9.4712L20.3779 9.72698L20.3779 10.2336ZM20.3779 42.9305L20.3779 43.4371L19.9406 43.1813L19.9406 42.6747L20.3779 42.9305ZM20.8153 10.4894L20.8153 43.1862L19.9406 42.6747L19.9406 9.97786L20.8153 10.4894ZM20.3779 42.4238L34.1217 50.4614L34.1217 51.4748L20.3779 43.4371L20.3779 42.4238ZM34.1217 18.7779L20.3779 10.7403L20.3779 9.72698L34.1217 17.7646L34.1217 18.7779Z" fill="#969696" mask="url(#path-5-inside-3_2560_4954)"/>
<circle cx="34.0581" cy="18.2402" r="1.52" fill="#2D2D2D"/>
<mask id="path-8-inside-4_2560_4954" fill="white">
<path d="M14.6934 62.1326L14.6934 31.691L28.3458 23.7068L28.3458 54.1484L14.6934 62.1326Z"/>
</mask>
<path d="M14.6934 62.1326L14.6934 31.691L28.3458 23.7068L28.3458 54.1484L14.6934 62.1326Z" fill="#F0F0F0"/>
<path d="M28.3458 23.7068L28.7831 23.451L28.7831 22.9443L28.3458 23.2001L28.3458 23.7068ZM28.3458 54.1484L28.3458 54.6551L28.7831 54.3993L28.7831 53.8926L28.3458 54.1484ZM14.6934 32.1977L28.3458 24.2134L28.3458 23.2001L14.6934 31.1843L14.6934 32.1977ZM27.9084 23.9625L27.9084 54.4042L28.7831 53.8926L28.7831 23.451L27.9084 23.9625ZM28.3458 53.6417L14.6934 61.626L14.6934 62.6393L28.3458 54.6551L28.3458 53.6417Z" fill="#969696" mask="url(#path-8-inside-4_2560_4954)"/>
<mask id="path-10-inside-5_2560_4954" fill="white">
<path d="M1.35156 21.7196L14.9424 13.8729L47.8842 32.6474L34.2934 40.494L1.35156 21.7196Z"/>
</mask>
<path d="M1.35156 21.7196L14.9424 13.8729L47.8842 32.6474L34.2934 40.494L1.35156 21.7196Z" fill="white"/>
<path d="M14.9424 13.8729L15.3812 13.6196L14.941 13.3687L14.5022 13.622L14.9424 13.8729ZM1.79176 21.9705L15.3826 14.1238L14.5022 13.622L0.911368 21.4687L1.79176 21.9705ZM14.5036 14.1263L47.4454 32.9007L48.323 32.394L15.3812 13.6196L14.5036 14.1263Z" fill="#969696" mask="url(#path-10-inside-5_2560_4954)"/>
<mask id="path-12-inside-6_2560_4954" fill="white">
<path d="M39.6309 21.3804L39.6309 54.1816L53.1995 62.1169L53.1995 29.3156L39.6309 21.3804Z"/>
</mask>
<path d="M39.6309 21.3804L39.6309 54.1816L53.1995 62.1169L53.1995 29.3156L39.6309 21.3804Z" fill="white"/>
<path d="M39.6309 54.1816L39.6309 54.6883L39.1935 54.4325L39.1935 53.9258L39.6309 54.1816ZM40.0682 21.6362L40.0682 54.4374L39.1935 53.9258L39.1935 21.1246L40.0682 21.6362ZM39.6309 53.6749L53.1995 61.6102L53.1995 62.6235L39.6309 54.6883L39.6309 53.6749Z" fill="#969696" mask="url(#path-12-inside-6_2560_4954)"/>
<mask id="path-14-inside-7_2560_4954" fill="white">
<path d="M21.4238 31.9746L53.111 13.68L66.9023 21.54L35.2151 39.8346L21.4238 31.9746Z"/>
</mask>
<path d="M21.4238 31.9746L53.111 13.68L66.9023 21.54L35.2151 39.8346L21.4238 31.9746Z" fill="white"/>
<path d="M53.111 13.68L53.5498 13.4266L53.1096 13.1758L52.6709 13.4291L53.111 13.68ZM21.864 32.2255L53.5512 13.9309L52.6709 13.4291L20.9836 31.7237L21.864 32.2255ZM52.6723 13.9333L66.4635 21.7933L67.3411 21.2867L53.5498 13.4266L52.6723 13.9333Z" fill="#969696" mask="url(#path-14-inside-7_2560_4954)"/>
<mask id="path-16-inside-8_2560_4954" fill="white">
<path d="M1.18848 21.8151L14.486 14.1377L47.9057 33.1845L34.6082 40.8619L1.18848 21.8151Z"/>
</mask>
<path d="M1.18848 21.8151L14.486 14.1377L47.9057 33.1845L34.6082 40.8619L1.18848 21.8151Z" fill="white"/>
<path d="M1.62867 22.0659L14.9262 14.3886L14.0458 13.8869L0.748282 21.5642L1.62867 22.0659Z" fill="#969696" mask="url(#path-16-inside-8_2560_4954)"/>
<mask id="path-18-inside-9_2560_4954" fill="white">
<path d="M34.3789 55.6471L34.3789 40.5486L66.8798 21.5414L66.8798 36.6399L34.3789 55.6471Z"/>
</mask>
<path d="M34.3789 55.6471L34.3789 40.5486L66.8798 21.5414L66.8798 36.6399L34.3789 55.6471Z" fill="#F0F0F0"/>
<path d="M66.8798 21.5414L67.3172 21.2856L67.3172 20.7789L66.8798 21.0347L66.8798 21.5414ZM66.8798 36.6399L66.8798 37.1466L67.3172 36.8908L67.3172 36.3841L66.8798 36.6399ZM34.3789 41.0552L66.8798 22.048L66.8798 21.0347L34.3789 40.0419L34.3789 41.0552ZM66.4424 21.7972L66.4424 36.8957L67.3172 36.3841L67.3172 21.2856L66.4424 21.7972ZM66.8798 36.1332L34.3789 55.1404L34.3789 56.1538L66.8798 37.1466L66.8798 36.1332Z" fill="#969696" mask="url(#path-18-inside-9_2560_4954)"/>
<mask id="path-20-inside-10_2560_4954" fill="white">
<path d="M53.2002 62.1326L53.2002 29.5622L66.8526 21.5779L66.8526 54.1484L53.2002 62.1326Z"/>
</mask>
<path d="M53.2002 62.1326L53.2002 29.5622L66.8526 21.5779L66.8526 54.1484L53.2002 62.1326Z" fill="#F0F0F0"/>
<path d="M66.8526 21.5779L67.29 21.3221L67.29 20.8155L66.8526 21.0713L66.8526 21.5779ZM66.8526 54.1484L66.8526 54.6551L67.29 54.3993L67.29 53.8926L66.8526 54.1484ZM53.2002 30.0688L66.8526 22.0846L66.8526 21.0713L53.2002 29.0555L53.2002 30.0688ZM66.4153 21.8337L66.4153 54.4042L67.29 53.8926L67.29 21.3221L66.4153 21.8337ZM66.8526 53.6417L53.2002 61.626L53.2002 62.6393L66.8526 54.6551L66.8526 53.6417Z" fill="#969696" mask="url(#path-20-inside-10_2560_4954)"/>
<mask id="path-22-inside-11_2560_4954" fill="white">
<path d="M1.51953 21.6096L1.51953 36.4535L34.4005 55.683L34.4005 40.8391L1.51953 21.6096Z"/>
</mask>
<path d="M1.51953 21.6096L1.51953 36.4535L34.4005 55.683L34.4005 40.8391L1.51953 21.6096Z" fill="white"/>
<path d="M1.51953 21.6096L1.08217 21.3538L1.08217 20.8472L1.51953 21.103L1.51953 21.6096ZM1.51953 36.4535L1.51953 36.9602L1.08217 36.7044L1.08217 36.1977L1.51953 36.4535ZM1.9569 21.8654L1.9569 36.7093L1.08217 36.1977L1.08217 21.3538L1.9569 21.8654ZM1.51953 35.9468L34.4005 55.1763L34.4005 56.1896L1.51953 36.9602L1.51953 35.9468ZM34.4005 41.3458L1.51953 22.1163L1.51953 21.103L34.4005 40.3324L34.4005 41.3458Z" fill="#969696" mask="url(#path-22-inside-11_2560_4954)"/>
<mask id="path-24-inside-12_2560_4954" fill="white">
<path d="M1.51953 21.6116L1.51953 54.4142L14.6929 62.1182L14.6929 29.3156L1.51953 21.6116Z"/>
</mask>
<path d="M1.51953 21.6116L1.51953 54.4142L14.6929 62.1182L14.6929 29.3156L1.51953 21.6116Z" fill="white"/>
<path d="M1.51953 21.6116L1.08217 21.3558L1.08217 20.8491L1.51953 21.1049L1.51953 21.6116ZM1.51953 54.4142L1.51953 54.9208L1.08217 54.665L1.08217 54.1584L1.51953 54.4142ZM1.9569 21.8674L1.9569 54.6699L1.08217 54.1584L1.08217 21.3558L1.9569 21.8674ZM1.51953 53.9075L14.6929 61.6115L14.6929 62.6249L1.51953 54.9208L1.51953 53.9075ZM14.6929 29.8223L1.51953 22.1182L1.51953 21.1049L14.6929 28.8089L14.6929 29.8223Z" fill="#969696" mask="url(#path-24-inside-12_2560_4954)"/>
</svg>
