<svg width="68" height="76" viewBox="0 0 68 76" fill="none" xmlns="http://www.w3.org/2000/svg">
<g id="11">
<g id="Group 8">
<g id="Group 4">
<g id="Rectangle 79">
<mask id="path-1-inside-1_2560_4930" fill="white">
<path d="M63.8555 42.5984L35.3059 59.0815L16.4037 48.3086L44.9532 31.8255L63.8555 42.5984Z"/>
</mask>
<path d="M63.8555 42.5984L35.3059 59.0815L16.4037 48.3086L44.9532 31.8255L63.8555 42.5984Z" fill="white"/>
<path d="M44.5145 32.0788L63.4167 42.8517L64.2943 42.3451L45.392 31.5722L44.5145 32.0788Z" fill="#969696" mask="url(#path-1-inside-1_2560_4930)"/>
</g>
<g id="Rectangle 80">
<mask id="path-3-inside-2_2560_4930" fill="white">
<path d="M35.7129 74.8528L2.99674 55.9641L2.90894 40.2445L35.6251 59.1332L35.7129 74.8528Z"/>
</mask>
<path d="M35.7129 74.8528L2.99674 55.9641L2.90894 40.2445L35.6251 59.1332L35.7129 74.8528Z" fill="white"/>
<path d="M35.7101 74.3462L2.99391 55.4575L2.99957 56.4708L35.7157 75.3595L35.7101 74.3462ZM2.91177 40.7512L35.6279 59.6399L35.6223 58.6265L2.90611 39.7379L2.91177 40.7512Z" fill="#969696" mask="url(#path-3-inside-2_2560_4930)"/>
</g>
<g id="Rectangle 81">
<mask id="path-5-inside-3_2560_4930" fill="white">
<path d="M35.5293 74.8295L63.7692 58.5252L63.8582 42.604L35.6182 58.9083L35.5293 74.8295Z"/>
</mask>
<path d="M35.5293 74.8295L63.7692 58.5252L63.8582 42.604L35.6182 58.9083L35.5293 74.8295Z" fill="#F0F0F0"/>
<path d="M35.5293 74.8295L35.5265 75.3362L35.0877 75.5895L35.0905 75.0829L35.5293 74.8295ZM63.7692 58.5252L64.208 58.2719L64.2052 58.7785L63.7664 59.0318L63.7692 58.5252ZM35.5321 74.3229L63.7721 58.0185L63.7664 59.0318L35.5265 75.3362L35.5321 74.3229ZM63.3304 58.7785L63.4194 42.8573L64.2969 42.3506L64.208 58.2719L63.3304 58.7785ZM36.057 58.655L35.9681 74.5762L35.0905 75.0829L35.1794 59.1616L36.057 58.655Z" fill="#969696" mask="url(#path-5-inside-3_2560_4930)"/>
</g>
<circle id="Ellipse 26" cx="35.6228" cy="58.9791" r="1.52" transform="rotate(-120 35.6228 58.9791)" fill="#2D2D2D"/>
</g>
<g id="Group 7">
<g id="Rectangle 79_2">
<mask id="path-8-inside-4_2560_4930" fill="white">
<path d="M44.8594 9.39716L16.6438 25.6874L2.77549 17.7835L30.9911 1.49325L44.8594 9.39716Z"/>
</mask>
<path d="M44.8594 9.39716L16.6438 25.6874L2.77549 17.7835L30.9911 1.49325L44.8594 9.39716Z" fill="white"/>
<path d="M2.77549 17.7835L2.3353 17.5327L1.89651 17.786L2.3367 18.0369L2.77549 17.7835ZM30.9911 1.49325L31.4299 1.23991L30.9897 0.989034L30.5509 1.24237L30.9911 1.49325ZM17.0826 25.4341L3.21428 17.5302L2.3367 18.0369L16.205 25.9408L17.0826 25.4341ZM3.21568 18.0344L31.4313 1.74412L30.5509 1.24237L2.3353 17.5327L3.21568 18.0344ZM30.5523 1.74658L44.4206 9.65049L45.2982 9.14382L31.4299 1.23991L30.5523 1.74658Z" fill="#969696" mask="url(#path-8-inside-4_2560_4930)"/>
</g>
<g id="Rectangle 80_2">
<mask id="path-10-inside-5_2560_4930" fill="white">
<path d="M16.3242 63.6577L2.99283 55.9608L2.77961 17.7847L16.111 25.4816L16.3242 63.6577Z"/>
</mask>
<path d="M16.3242 63.6577L2.99283 55.9608L2.77961 17.7847L16.111 25.4816L16.3242 63.6577Z" fill="white"/>
<path d="M2.99283 55.9608L2.55404 55.7074L2.55687 56.2141L2.99566 56.4674L2.99283 55.9608ZM16.3214 63.151L2.99 55.4541L2.99566 56.4674L16.327 64.1643L16.3214 63.151ZM3.43162 56.2141L3.2184 18.038L2.34082 17.5314L2.55404 55.7074L3.43162 56.2141Z" fill="#969696" mask="url(#path-10-inside-5_2560_4930)"/>
</g>
<g id="Rectangle 81_2">
<mask id="path-12-inside-6_2560_4930" fill="white">
<path d="M16.2383 48.4339L44.7361 31.9807L44.8623 9.38796L16.3645 25.8412L16.2383 48.4339Z"/>
</mask>
<path d="M16.2383 48.4339L44.7361 31.9807L44.8623 9.38796L16.3645 25.8412L16.2383 48.4339Z" fill="#F0F0F0"/>
<path d="M44.2973 32.234L44.4235 9.6413L45.3011 9.13463L45.1749 31.7273L44.2973 32.234ZM16.8032 25.5879L16.6771 48.1806L15.7995 48.6872L15.9257 26.0945L16.8032 25.5879Z" fill="#969696" mask="url(#path-12-inside-6_2560_4930)"/>
</g>
<circle id="Ellipse 26_2" cx="16.3708" cy="25.6313" r="1.52" transform="rotate(-120 16.3708 25.6313)" fill="#2D2D2D"/>
</g>
<g id="Group 5">
<g id="Rectangle 79_3">
<mask id="path-15-inside-7_2560_4930" fill="white">
<path d="M63.916 20.8341L35.5825 37.1925L22.0279 29.4673L50.3614 13.109L63.916 20.8341Z"/>
</mask>
<path d="M63.916 20.8341L35.5825 37.1925L22.0279 29.4673L50.3614 13.109L63.916 20.8341Z" fill="white"/>
<path d="M22.0279 29.4673L21.5877 29.2164L21.1489 29.4698L21.5891 29.7207L22.0279 29.4673ZM50.3614 13.109L50.8002 12.8556L50.36 12.6047L49.9212 12.8581L50.3614 13.109ZM36.0213 36.9391L22.4666 29.214L21.5891 29.7207L35.1437 37.4458L36.0213 36.9391ZM22.468 29.7182L50.8016 13.3598L49.9212 12.8581L21.5877 29.2164L22.468 29.7182ZM49.9226 13.3623L63.4772 21.0874L64.3548 20.5808L50.8002 12.8556L49.9226 13.3623Z" fill="#969696" mask="url(#path-15-inside-7_2560_4930)"/>
</g>
<g id="Rectangle 80_3">
<mask id="path-17-inside-8_2560_4930" fill="white">
<path d="M35.7383 53.1121L22.1474 45.2654L22.0588 29.3919L35.6496 37.2386L35.7383 53.1121Z"/>
</mask>
<path d="M35.7383 53.1121L22.1474 45.2654L22.0588 29.3919L35.6496 37.2386L35.7383 53.1121Z" fill="white"/>
<path d="M22.1474 45.2654L21.7086 45.0121L21.7115 45.5188L22.1503 45.7721L22.1474 45.2654ZM35.7355 52.6055L22.1446 44.7588L22.1503 45.7721L35.7411 53.6188L35.7355 52.6055ZM22.5862 45.5188L22.4976 29.6452L21.62 29.1385L21.7086 45.0121L22.5862 45.5188Z" fill="#969696" mask="url(#path-17-inside-8_2560_4930)"/>
</g>
<g id="Rectangle 81_3">
<mask id="path-19-inside-9_2560_4930" fill="white">
<path d="M35.5566 53.0889L63.8729 36.7405L63.9618 20.8193L35.6456 37.1677L35.5566 53.0889Z"/>
</mask>
<path d="M35.5566 53.0889L63.8729 36.7405L63.9618 20.8193L35.6456 37.1677L35.5566 53.0889Z" fill="#F0F0F0"/>
<path d="M35.5566 53.0889L35.5538 53.5956L35.115 53.8489L35.1179 53.3423L35.5566 53.0889ZM63.8729 36.7405L64.3117 36.4872L64.3089 36.9938L63.8701 37.2472L63.8729 36.7405ZM35.5595 52.5823L63.8757 36.2339L63.8701 37.2472L35.5538 53.5956L35.5595 52.5823ZM63.4341 36.9939L63.523 21.0726L64.4006 20.5659L64.3117 36.4872L63.4341 36.9939ZM36.0843 36.9144L35.9954 52.8356L35.1179 53.3423L35.2068 37.421L36.0843 36.9144Z" fill="#969696" mask="url(#path-19-inside-9_2560_4930)"/>
</g>
<circle id="Ellipse 26_3" cx="35.6501" cy="37.2385" r="1.52" transform="rotate(-120 35.6501 37.2385)" fill="#2D2D2D"/>
</g>
</g>
</g>
</svg>
