<svg width="68" height="76" viewBox="0 0 68 76" fill="none" xmlns="http://www.w3.org/2000/svg">
<g id="4">
<g id="Group 12">
<g id="Group 12_2">
<g id="Rectangle 79">
<mask id="path-1-inside-1_2560_1937" fill="white">
<path d="M33.8721 30.8203L33.8721 15.6203L46.993 7.94691L46.993 23.1469L33.8721 30.8203Z"/>
</mask>
<path d="M33.8721 30.8203L33.8721 15.6203L46.993 7.94691L46.993 23.1469L33.8721 30.8203Z" fill="#F0F0F0"/>
<path d="M46.993 7.94691L47.4304 7.69113L47.4304 7.18446L46.993 7.44024L46.993 7.94691ZM46.993 23.1469L46.993 23.6536L47.4304 23.3978L47.4304 22.8911L46.993 23.1469ZM33.8721 16.127L46.993 8.45358L46.993 7.44024L33.8721 15.1136L33.8721 16.127ZM46.5556 8.20269L46.5556 23.4027L47.4304 22.8911L47.4304 7.69113L46.5556 8.20269ZM46.993 22.6402L33.8721 30.3136L33.8721 31.327L46.993 23.6536L46.993 22.6402Z" fill="#969696" mask="url(#path-1-inside-1_2560_1937)"/>
</g>
<g id="Rectangle 80">
<mask id="path-3-inside-2_2560_1937" fill="white">
<path d="M20.7744 8.04004L33.8228 0.506554L46.9701 7.99956L33.9217 15.533L20.7744 8.04004Z"/>
</mask>
<path d="M20.7744 8.04004L33.8228 0.506554L46.9701 7.99956L33.9217 15.533L20.7744 8.04004Z" fill="white"/>
<path d="M33.8228 0.506554L34.2616 0.253221L33.8214 0.00234183L33.3826 0.255675L33.8228 0.506554ZM21.2146 8.29092L34.263 0.757433L33.3826 0.255675L20.3342 7.78916L21.2146 8.29092ZM33.384 0.759888L46.5313 8.2529L47.4089 7.74623L34.2616 0.253221L33.384 0.759888Z" fill="#969696" mask="url(#path-3-inside-2_2560_1937)"/>
</g>
<g id="Rectangle 81">
<mask id="path-5-inside-3_2560_1937" fill="white">
<path d="M20.7734 7.98291L20.7734 23.1829L33.8944 30.8563L33.8944 15.6563L20.7734 7.98291Z"/>
</mask>
<path d="M20.7734 7.98291L20.7734 23.1829L33.8944 30.8563L33.8944 15.6563L20.7734 7.98291Z" fill="white"/>
<path d="M20.7734 7.98291L20.3361 7.72713L20.3361 7.22046L20.7734 7.47624L20.7734 7.98291ZM20.7734 23.1829L20.7734 23.6896L20.3361 23.4338L20.3361 22.9271L20.7734 23.1829ZM21.2108 8.23869L21.2108 23.4387L20.3361 22.9271L20.3361 7.72713L21.2108 8.23869ZM20.7734 22.6762L33.8944 30.3496L33.8944 31.363L20.7734 23.6896L20.7734 22.6762ZM33.8944 16.163L20.7734 8.48958L20.7734 7.47624L33.8944 15.1496L33.8944 16.163Z" fill="#969696" mask="url(#path-5-inside-3_2560_1937)"/>
</g>
<circle id="Ellipse 26" cx="34.0581" cy="15.5469" r="1.52" fill="#2D2D2D"/>
</g>
<g id="Group 13">
<g id="Rectangle 79_2">
<mask id="path-8-inside-4_2560_1937" fill="white">
<path d="M53.6328 64.4199L53.6328 49.2199L66.7537 41.5465L66.7537 56.7465L53.6328 64.4199Z"/>
</mask>
<path d="M53.6328 64.4199L53.6328 49.2199L66.7537 41.5465L66.7537 56.7465L53.6328 64.4199Z" fill="#F0F0F0"/>
<path d="M66.7537 41.5465L67.1911 41.2907L67.1911 40.7841L66.7537 41.0399L66.7537 41.5465ZM66.7537 56.7465L66.7537 57.2532L67.1911 56.9974L67.1911 56.4907L66.7537 56.7465ZM53.6328 49.7266L66.7537 42.0532L66.7537 41.0399L53.6328 48.7133L53.6328 49.7266ZM66.3164 41.8023L66.3164 57.0023L67.1911 56.4907L67.1911 41.2907L66.3164 41.8023ZM66.7537 56.2399L53.6328 63.9133L53.6328 64.9266L66.7537 57.2532L66.7537 56.2399Z" fill="#969696" mask="url(#path-8-inside-4_2560_1937)"/>
</g>
<g id="Rectangle 80_2">
<mask id="path-10-inside-5_2560_1937" fill="white">
<path d="M40.5361 41.6396L53.5845 34.1062L66.7318 41.5992L53.6834 49.1327L40.5361 41.6396Z"/>
</mask>
<path d="M40.5361 41.6396L53.5845 34.1062L66.7318 41.5992L53.6834 49.1327L40.5361 41.6396Z" fill="white"/>
<path d="M53.5845 34.1062L54.0233 33.8528L53.5831 33.602L53.1443 33.8553L53.5845 34.1062ZM40.9763 41.8905L54.0247 34.357L53.1443 33.8553L40.0959 41.3888L40.9763 41.8905ZM53.1457 34.3595L66.293 41.8525L67.1706 41.3458L54.0233 33.8528L53.1457 34.3595Z" fill="#969696" mask="url(#path-10-inside-5_2560_1937)"/>
</g>
<g id="Rectangle 81_2">
<mask id="path-12-inside-6_2560_1937" fill="white">
<path d="M40.5342 41.5825L40.5342 56.7825L53.6551 64.4559L53.6551 49.2559L40.5342 41.5825Z"/>
</mask>
<path d="M40.5342 41.5825L40.5342 56.7825L53.6551 64.4559L53.6551 49.2559L40.5342 41.5825Z" fill="white"/>
<path d="M40.5342 41.5825L40.0968 41.3267L40.0968 40.8201L40.5342 41.0759L40.5342 41.5825ZM40.5342 56.7825L40.5342 57.2892L40.0968 57.0334L40.0968 56.5267L40.5342 56.7825ZM40.9715 41.8383L40.9715 57.0383L40.0968 56.5267L40.0968 41.3267L40.9715 41.8383ZM40.5342 56.2759L53.6551 63.9493L53.6551 64.9626L40.5342 57.2892L40.5342 56.2759ZM53.6551 49.7626L40.5342 42.0892L40.5342 41.0759L53.6551 48.7493L53.6551 49.7626Z" fill="#969696" mask="url(#path-12-inside-6_2560_1937)"/>
</g>
<circle id="Ellipse 26_2" cx="53.8188" cy="49.1465" r="1.52" fill="#2D2D2D"/>
</g>
<g id="Group 14">
<g id="Rectangle 79_3">
<mask id="path-15-inside-7_2560_1937" fill="white">
<path d="M53.6328 42.1267L53.6328 26.9267L66.7537 19.2533L66.7537 34.4533L53.6328 42.1267Z"/>
</mask>
<path d="M53.6328 42.1267L53.6328 26.9267L66.7537 19.2533L66.7537 34.4533L53.6328 42.1267Z" fill="#F0F0F0"/>
<path d="M66.7537 19.2533L67.1911 18.9975L67.1911 18.4909L66.7537 18.7466L66.7537 19.2533ZM66.7537 34.4533L66.7537 34.96L67.1911 34.7042L67.1911 34.1975L66.7537 34.4533ZM53.6328 27.4334L66.7537 19.76L66.7537 18.7466L53.6328 26.42L53.6328 27.4334ZM66.3164 19.5091L66.3164 34.7091L67.1911 34.1975L67.1911 18.9975L66.3164 19.5091ZM66.7537 33.9466L53.6328 41.62L53.6328 42.6334L66.7537 34.96L66.7537 33.9466Z" fill="#969696" mask="url(#path-15-inside-7_2560_1937)"/>
</g>
<g id="Rectangle 80_3">
<mask id="path-17-inside-8_2560_1937" fill="white">
<path d="M40.5361 19.3464L53.5845 11.813L66.7318 19.306L53.6834 26.8394L40.5361 19.3464Z"/>
</mask>
<path d="M40.5361 19.3464L53.5845 11.813L66.7318 19.306L53.6834 26.8394L40.5361 19.3464Z" fill="white"/>
<path d="M53.5845 11.813L54.0233 11.5596L53.5831 11.3087L53.1443 11.5621L53.5845 11.813ZM40.9763 19.5973L54.0247 12.0638L53.1443 11.5621L40.0959 19.0956L40.9763 19.5973ZM53.1457 12.0663L66.293 19.5593L67.1706 19.0526L54.0233 11.5596L53.1457 12.0663Z" fill="#969696" mask="url(#path-17-inside-8_2560_1937)"/>
</g>
<g id="Rectangle 81_3">
<mask id="path-19-inside-9_2560_1937" fill="white">
<path d="M40.5342 19.2893L40.5342 34.4893L53.6551 42.1627L53.6551 26.9627L40.5342 19.2893Z"/>
</mask>
<path d="M40.5342 19.2893L40.5342 34.4893L53.6551 42.1627L53.6551 26.9627L40.5342 19.2893Z" fill="white"/>
<path d="M40.5342 19.2893L40.0968 19.0335L40.0968 18.5269L40.5342 18.7826L40.5342 19.2893ZM40.5342 34.4893L40.5342 34.996L40.0968 34.7402L40.0968 34.2335L40.5342 34.4893ZM40.9715 19.5451L40.9715 34.7451L40.0968 34.2335L40.0968 19.0335L40.9715 19.5451ZM40.5342 33.9826L53.6551 41.656L53.6551 42.6694L40.5342 34.996L40.5342 33.9826ZM53.6551 27.4694L40.5342 19.796L40.5342 18.7826L53.6551 26.456L53.6551 27.4694Z" fill="#969696" mask="url(#path-19-inside-9_2560_1937)"/>
</g>
<circle id="Ellipse 26_3" cx="53.8188" cy="26.8533" r="1.52" fill="#2D2D2D"/>
</g>
<g id="Group 8">
<g id="Rectangle 79_4">
<mask id="path-22-inside-10_2560_1937" fill="white">
<path d="M14.1123 64.2603L14.1123 49.0603L27.2332 41.3869L27.2332 56.5869L14.1123 64.2603Z"/>
</mask>
<path d="M14.1123 64.2603L14.1123 49.0603L27.2332 41.3869L27.2332 56.5869L14.1123 64.2603Z" fill="#F0F0F0"/>
<path d="M27.2332 41.3869L27.6706 41.1311L27.6706 40.6244L27.2332 40.8802L27.2332 41.3869ZM27.2332 56.5869L27.2332 57.0935L27.6706 56.8377L27.6706 56.3311L27.2332 56.5869ZM14.1123 49.5669L27.2332 41.8935L27.2332 40.8802L14.1123 48.5536L14.1123 49.5669ZM26.7959 41.6426L26.7959 56.8426L27.6706 56.3311L27.6706 41.1311L26.7959 41.6426ZM27.2332 56.0802L14.1123 63.7536L14.1123 64.7669L27.2332 57.0935L27.2332 56.0802Z" fill="#969696" mask="url(#path-22-inside-10_2560_1937)"/>
</g>
<g id="Rectangle 80_4">
<mask id="path-24-inside-11_2560_1937" fill="white">
<path d="M1.01465 41.48L14.063 33.9465L27.2103 41.4395L14.162 48.973L1.01465 41.48Z"/>
</mask>
<path d="M1.01465 41.48L14.063 33.9465L27.2103 41.4395L14.162 48.973L1.01465 41.48Z" fill="white"/>
<path d="M14.063 33.9465L14.5018 33.6932L14.0616 33.4423L13.6228 33.6956L14.063 33.9465ZM1.45484 41.7309L14.5032 34.1974L13.6228 33.6956L0.574454 41.2291L1.45484 41.7309ZM13.6242 34.1998L26.7715 41.6928L27.6491 41.1862L14.5018 33.6932L13.6242 34.1998Z" fill="#969696" mask="url(#path-24-inside-11_2560_1937)"/>
</g>
<g id="Rectangle 81_4">
<mask id="path-26-inside-12_2560_1937" fill="white">
<path d="M1.0127 41.4229L1.0127 56.6229L14.1336 64.2963L14.1336 49.0963L1.0127 41.4229Z"/>
</mask>
<path d="M1.0127 41.4229L1.0127 56.6229L14.1336 64.2963L14.1336 49.0963L1.0127 41.4229Z" fill="white"/>
<path d="M1.0127 41.4229L0.575331 41.1671L0.575331 40.6604L1.0127 40.9162L1.0127 41.4229ZM1.0127 56.6229L1.0127 57.1295L0.575332 56.8737L0.575332 56.3671L1.0127 56.6229ZM1.45006 41.6786L1.45006 56.8786L0.575332 56.3671L0.575331 41.1671L1.45006 41.6786ZM1.0127 56.1162L14.1336 63.7896L14.1336 64.8029L1.0127 57.1295L1.0127 56.1162ZM14.1336 49.6029L1.0127 41.9295L1.0127 40.9162L14.1336 48.5896L14.1336 49.6029Z" fill="#969696" mask="url(#path-26-inside-12_2560_1937)"/>
</g>
<circle id="Ellipse 26_4" cx="14.2973" cy="48.9868" r="1.52" fill="#2D2D2D"/>
</g>
<g id="Group 9">
<g id="Rectangle 79_5">
<mask id="path-29-inside-13_2560_1937" fill="white">
<path d="M14.1123 41.967L14.1123 26.767L27.2332 19.0936L27.2332 34.2936L14.1123 41.967Z"/>
</mask>
<path d="M14.1123 41.967L14.1123 26.767L27.2332 19.0936L27.2332 34.2936L14.1123 41.967Z" fill="#F0F0F0"/>
<path d="M27.2332 19.0936L27.6706 18.8379L27.6706 18.3312L27.2332 18.587L27.2332 19.0936ZM27.2332 34.2936L27.2332 34.8003L27.6706 34.5445L27.6706 34.0379L27.2332 34.2936ZM14.1123 27.2737L27.2332 19.6003L27.2332 18.587L14.1123 26.2604L14.1123 27.2737ZM26.7959 19.3494L26.7959 34.5494L27.6706 34.0379L27.6706 18.8379L26.7959 19.3494ZM27.2332 33.787L14.1123 41.4604L14.1123 42.4737L27.2332 34.8003L27.2332 33.787Z" fill="#969696" mask="url(#path-29-inside-13_2560_1937)"/>
</g>
<g id="Rectangle 80_5">
<mask id="path-31-inside-14_2560_1937" fill="white">
<path d="M1.01465 19.1868L14.063 11.6533L27.2103 19.1463L14.162 26.6798L1.01465 19.1868Z"/>
</mask>
<path d="M1.01465 19.1868L14.063 11.6533L27.2103 19.1463L14.162 26.6798L1.01465 19.1868Z" fill="white"/>
<path d="M14.063 11.6533L14.5018 11.3999L14.0616 11.1491L13.6228 11.4024L14.063 11.6533ZM1.45484 19.4376L14.5032 11.9042L13.6228 11.4024L0.574454 18.9359L1.45484 19.4376ZM13.6242 11.9066L26.7715 19.3996L27.6491 18.893L14.5018 11.3999L13.6242 11.9066Z" fill="#969696" mask="url(#path-31-inside-14_2560_1937)"/>
</g>
<g id="Rectangle 81_5">
<mask id="path-33-inside-15_2560_1937" fill="white">
<path d="M1.0127 19.1296L1.0127 34.3296L14.1336 42.003L14.1336 26.803L1.0127 19.1296Z"/>
</mask>
<path d="M1.0127 19.1296L1.0127 34.3296L14.1336 42.003L14.1336 26.803L1.0127 19.1296Z" fill="white"/>
<path d="M1.0127 19.1296L0.575331 18.8739L0.575331 18.3672L1.0127 18.623L1.0127 19.1296ZM1.0127 34.3296L1.0127 34.8363L0.575332 34.5805L0.575332 34.0739L1.0127 34.3296ZM1.45006 19.3854L1.45006 34.5854L0.575332 34.0739L0.575331 18.8739L1.45006 19.3854ZM1.0127 33.823L14.1336 41.4964L14.1336 42.5097L1.0127 34.8363L1.0127 33.823ZM14.1336 27.3097L1.0127 19.6363L1.0127 18.623L14.1336 26.2964L14.1336 27.3097Z" fill="#969696" mask="url(#path-33-inside-15_2560_1937)"/>
</g>
<circle id="Ellipse 26_5" cx="14.2973" cy="26.6938" r="1.52" fill="#2D2D2D"/>
</g>
<g id="Group 5">
<g id="Rectangle 79_6">
<mask id="path-36-inside-16_2560_1937" fill="white">
<path d="M33.8721 75.5667L33.8721 60.3667L46.993 52.6932L46.993 67.8932L33.8721 75.5667Z"/>
</mask>
<path d="M33.8721 75.5667L33.8721 60.3667L46.993 52.6932L46.993 67.8932L33.8721 75.5667Z" fill="#F0F0F0"/>
<path d="M46.993 52.6932L47.4304 52.4375L47.4304 51.9308L46.993 52.1866L46.993 52.6932ZM46.993 67.8932L46.993 68.3999L47.4304 68.1441L47.4304 67.6375L46.993 67.8932ZM33.8721 60.8733L46.993 53.1999L46.993 52.1866L33.8721 59.86L33.8721 60.8733ZM46.5556 52.949L46.5556 68.149L47.4304 67.6375L47.4304 52.4375L46.5556 52.949ZM46.993 67.3866L33.8721 75.06L33.8721 76.0733L46.993 68.3999L46.993 67.3866Z" fill="#969696" mask="url(#path-36-inside-16_2560_1937)"/>
</g>
<g id="Rectangle 80_6">
<mask id="path-38-inside-17_2560_1937" fill="white">
<path d="M20.7744 52.7864L33.8228 45.2529L46.9701 52.7459L33.9217 60.2794L20.7744 52.7864Z"/>
</mask>
<path d="M20.7744 52.7864L33.8228 45.2529L46.9701 52.7459L33.9217 60.2794L20.7744 52.7864Z" fill="white"/>
<path d="M33.8228 45.2529L34.2616 44.9996L33.8214 44.7487L33.3826 45.002L33.8228 45.2529ZM21.2146 53.0373L34.263 45.5038L33.3826 45.002L20.3342 52.5355L21.2146 53.0373ZM33.384 45.5062L46.5313 52.9992L47.4089 52.4926L34.2616 44.9996L33.384 45.5062Z" fill="#969696" mask="url(#path-38-inside-17_2560_1937)"/>
</g>
<g id="Rectangle 81_6">
<mask id="path-40-inside-18_2560_1937" fill="white">
<path d="M20.7734 52.7292L20.7734 67.9292L33.8944 75.6026L33.8944 60.4026L20.7734 52.7292Z"/>
</mask>
<path d="M20.7734 52.7292L20.7734 67.9292L33.8944 75.6026L33.8944 60.4026L20.7734 52.7292Z" fill="white"/>
<path d="M20.7734 52.7292L20.3361 52.4735L20.3361 51.9668L20.7734 52.2226L20.7734 52.7292ZM20.7734 67.9292L20.7734 68.4359L20.3361 68.1801L20.3361 67.6735L20.7734 67.9292ZM21.2108 52.985L21.2108 68.185L20.3361 67.6735L20.3361 52.4735L21.2108 52.985ZM20.7734 67.4226L33.8944 75.096L33.8944 76.1093L20.7734 68.4359L20.7734 67.4226ZM33.8944 60.9093L20.7734 53.2359L20.7734 52.2226L33.8944 59.896L33.8944 60.9093Z" fill="#969696" mask="url(#path-40-inside-18_2560_1937)"/>
</g>
<circle id="Ellipse 26_6" cx="34.0581" cy="60.2932" r="1.52" fill="#2D2D2D"/>
</g>
</g>
</g>
</svg>
