<svg width="68" height="76" viewBox="0 0 68 76" fill="none" xmlns="http://www.w3.org/2000/svg">
<g id="7">
<g id="Group 10">
<g id="Group 6">
<g id="Rectangle 80">
<mask id="path-1-inside-1_2560_1997" fill="white">
<path d="M65.8184 19.7905L35.9284 2.53355L22.215 10.3492L52.105 27.6061L65.8184 19.7905Z"/>
</mask>
<path d="M65.8184 19.7905L35.9284 2.53355L22.215 10.3492L52.105 27.6061L65.8184 19.7905Z" fill="white"/>
<path d="M35.9284 2.53355L35.4896 2.28022L35.9298 2.02934L36.3686 2.28267L35.9284 2.53355ZM65.3782 20.0414L35.4882 2.78443L36.3686 2.28267L66.2586 19.5396L65.3782 20.0414ZM36.3672 2.78689L22.6538 10.6025L21.7763 10.0958L35.4896 2.28022L36.3672 2.78689Z" fill="#969696" mask="url(#path-1-inside-1_2560_1997)"/>
</g>
<g id="Rectangle 81">
<mask id="path-3-inside-2_2560_1997" fill="white">
<path d="M65.707 19.644L65.707 54.2166L52.1984 62.1168L52.1984 27.5442L65.707 19.644Z"/>
</mask>
<path d="M65.707 19.644L65.707 54.2166L52.1984 62.1168L52.1984 27.5442L65.707 19.644Z" fill="#F0F0F0"/>
<path d="M65.707 19.644L66.1444 19.3883L66.1444 18.8816L65.707 19.1374L65.707 19.644ZM65.707 54.2166L65.707 54.7233L66.1444 54.4675L66.1444 53.9609L65.707 54.2166ZM65.2697 19.8998L65.2697 54.4724L66.1444 53.9609L66.1444 19.3883L65.2697 19.8998ZM65.707 53.71L52.1984 61.6101L52.1984 62.6234L65.707 54.7233L65.707 53.71ZM52.1984 28.0508L65.707 20.1507L65.707 19.1374L52.1984 27.0375L52.1984 28.0508Z" fill="#969696" mask="url(#path-3-inside-2_2560_1997)"/>
</g>
<g id="Rectangle 79">
<mask id="path-5-inside-3_2560_1997" fill="white">
<path d="M52.2119 62.1003L52.2119 27.766L22.2697 10.2552L22.2697 44.5895L52.2119 62.1003Z"/>
</mask>
<path d="M52.2119 62.1003L52.2119 27.766L22.2697 10.2552L22.2697 44.5895L52.2119 62.1003Z" fill="white"/>
<path d="M22.2697 10.2552L21.8323 9.99937L21.8323 9.49271L22.2697 9.74849L22.2697 10.2552ZM22.2697 44.5895L22.2697 45.0961L21.8323 44.8404L21.8323 44.3337L22.2697 44.5895ZM52.2119 28.2727L22.2697 10.7618L22.2697 9.74849L52.2119 27.2594L52.2119 28.2727ZM22.707 10.5109L22.707 44.8453L21.8323 44.3337L21.8323 9.99937L22.707 10.5109ZM22.2697 44.0828L52.2119 61.5937L52.2119 62.607L22.2697 45.0961L22.2697 44.0828Z" fill="#969696" mask="url(#path-5-inside-3_2560_1997)"/>
</g>
<circle id="Ellipse 26" cx="1.52" cy="1.52" r="1.52" transform="matrix(-1 0 0 1 53.5469 26.1304)" fill="#2D2D2D"/>
</g>
<g id="Group 5">
<g id="Rectangle 80_2">
<mask id="path-8-inside-4_2560_1997" fill="white">
<path d="M46.1367 31.1533L16.2468 13.8963L2.5334 21.712L32.4234 38.9689L46.1367 31.1533Z"/>
</mask>
<path d="M46.1367 31.1533L16.2468 13.8963L2.5334 21.712L32.4234 38.9689L46.1367 31.1533Z" fill="white"/>
<path d="M16.2468 13.8963L15.808 13.643L16.2482 13.3921L16.687 13.6455L16.2468 13.8963ZM45.6965 31.4042L15.8066 14.1472L16.687 13.6455L46.5769 30.9024L45.6965 31.4042ZM16.6855 14.1497L2.97219 21.9653L2.09461 21.4586L15.808 13.643L16.6855 14.1497Z" fill="#969696" mask="url(#path-8-inside-4_2560_1997)"/>
</g>
<g id="Rectangle 81_2">
<mask id="path-10-inside-5_2560_1997" fill="white">
<path d="M46.0254 31.0071L46.0254 65.5797L32.5168 73.4798L32.5168 38.9072L46.0254 31.0071Z"/>
</mask>
<path d="M46.0254 31.0071L46.0254 65.5797L32.5168 73.4798L32.5168 38.9072L46.0254 31.0071Z" fill="#F0F0F0"/>
<path d="M46.0254 31.0071L46.4628 30.7513L46.4628 30.2446L46.0254 30.5004L46.0254 31.0071ZM46.0254 65.5797L46.0254 66.0863L46.4628 65.8306L46.4628 65.3239L46.0254 65.5797ZM45.588 31.2629L45.588 65.8355L46.4628 65.3239L46.4628 30.7513L45.588 31.2629ZM46.0254 65.073L32.5168 72.9731L32.5168 73.9865L46.0254 66.0863L46.0254 65.073ZM32.5168 39.4139L46.0254 31.5137L46.0254 30.5004L32.5168 38.4005L32.5168 39.4139Z" fill="#969696" mask="url(#path-10-inside-5_2560_1997)"/>
</g>
<g id="Rectangle 79_2">
<mask id="path-12-inside-6_2560_1997" fill="white">
<path d="M32.5312 73.4635L32.5313 39.1292L2.58899 21.6183L2.58899 55.9526L32.5312 73.4635Z"/>
</mask>
<path d="M32.5312 73.4635L32.5313 39.1292L2.58899 21.6183L2.58899 55.9526L32.5312 73.4635Z" fill="white"/>
<path d="M2.58899 21.6183L2.15163 21.3625L2.15163 20.8559L2.58899 21.1116L2.58899 21.6183ZM2.58899 55.9526L2.58899 56.4593L2.15163 56.2035L2.15163 55.6968L2.58899 55.9526ZM32.5313 39.6359L2.58899 22.125L2.58899 21.1116L32.5313 38.6225L32.5313 39.6359ZM3.02636 21.8741L3.02636 56.2084L2.15163 55.6968L2.15163 21.3625L3.02636 21.8741ZM2.58899 55.446L32.5313 72.9568L32.5312 73.9702L2.58899 56.4593L2.58899 55.446Z" fill="#969696" mask="url(#path-12-inside-6_2560_1997)"/>
</g>
<circle id="Ellipse 26_2" cx="1.52" cy="1.52" r="1.52" transform="matrix(-1 0 0 1 4.55957 20.1528)" fill="#2D2D2D"/>
</g>
<circle id="Ellipse 27" cx="1.52" cy="1.52" r="1.52" transform="matrix(-1 0 0 1 33.9463 37.3796)" fill="#2D2D2D"/>
<circle id="Ellipse 28" cx="1.52" cy="1.52" r="1.52" transform="matrix(-1 0 0 1 24.3203 9.0061)" fill="#2D2D2D"/>
</g>
</g>
</svg>
