<svg width="68" height="76" viewBox="0 0 68 76" fill="none" xmlns="http://www.w3.org/2000/svg">
<g id="8">
<g id="Group 16">
<g id="Group 11">
<g id="Rectangle 79">
<mask id="path-1-inside-1_2560_2011" fill="white">
<path d="M33.8564 73.9531L33.8564 36.8713L65.8662 18.1513L65.8662 55.2331L33.8564 73.9531Z"/>
</mask>
<path d="M33.8564 73.9531L33.8564 36.8713L65.8662 18.1513L65.8662 55.2331L33.8564 73.9531Z" fill="#F0F0F0"/>
<path d="M65.8662 18.1513L66.3036 17.8955L66.3036 17.3889L65.8662 17.6446L65.8662 18.1513ZM65.8662 55.2331L65.8662 55.7398L66.3036 55.484L66.3036 54.9774L65.8662 55.2331ZM33.8564 37.378L65.8662 18.658L65.8662 17.6446L33.8564 36.3646L33.8564 37.378ZM65.4288 18.4071L65.4288 55.4889L66.3036 54.9774L66.3036 17.8955L65.4288 18.4071ZM65.8662 54.7265L33.8564 73.4465L33.8564 74.4598L65.8662 55.7398L65.8662 54.7265Z" fill="#969696" mask="url(#path-1-inside-1_2560_2011)"/>
</g>
<g id="Rectangle 80">
<mask id="path-3-inside-2_2560_2011" fill="white">
<path d="M1.90332 18.3787L33.7361 1.33514e-05L65.8102 18.2799L33.9774 36.6586L1.90332 18.3787Z"/>
</mask>
<path d="M1.90332 18.3787L33.7361 1.33514e-05L65.8102 18.2799L33.9774 36.6586L1.90332 18.3787Z" fill="white"/>
<path d="M33.7361 1.33514e-05L34.1749 -0.253321L33.7347 -0.504199L33.2959 -0.250865L33.7361 1.33514e-05ZM2.34351 18.6295L34.1763 0.250892L33.2959 -0.250865L1.46313 18.1278L2.34351 18.6295ZM33.2973 0.253347L65.3714 18.5333L66.249 18.0266L34.1749 -0.253321L33.2973 0.253347Z" fill="#969696" mask="url(#path-3-inside-2_2560_2011)"/>
</g>
<g id="Rectangle 81">
<mask id="path-5-inside-3_2560_2011" fill="white">
<path d="M1.89941 18.2389L1.89942 55.3207L33.9092 74.0407L33.9092 36.9589L1.89941 18.2389Z"/>
</mask>
<path d="M1.89941 18.2389L1.89942 55.3207L33.9092 74.0407L33.9092 36.9589L1.89941 18.2389Z" fill="white"/>
<path d="M1.89941 18.2389L1.46205 17.9831L1.46205 17.4764L1.89941 17.7322L1.89941 18.2389ZM1.89942 55.3207L1.89942 55.8274L1.46205 55.5716L1.46205 55.0649L1.89942 55.3207ZM2.33678 18.4947L2.33678 55.5765L1.46205 55.0649L1.46205 17.9831L2.33678 18.4947ZM1.89942 54.8141L33.9092 73.534L33.9092 74.5474L1.89942 55.8274L1.89942 54.8141ZM33.9092 37.4655L1.89941 18.7456L1.89941 17.7322L33.9092 36.4522L33.9092 37.4655Z" fill="#969696" mask="url(#path-5-inside-3_2560_2011)"/>
</g>
</g>
<circle id="Ellipse 36" cx="2.07589" cy="18.3486" r="1.52" transform="rotate(-120 2.07589 18.3486)" fill="#2D2D2D"/>
<circle id="Ellipse 37" cx="65.4099" cy="18.3486" r="1.52" transform="rotate(-120 65.4099 18.3486)" fill="#2D2D2D"/>
<path id="Polygon 106" d="M18.7471 18.2989L33.5671 9.96193L33.5671 26.6358L18.7471 18.2989Z" fill="#E1E1E1"/>
<path id="Polygon 108" d="M57.2305 33.2456L57.0405 50.2485L42.6005 41.9116L57.2305 33.2456Z" fill="#F0F0F0"/>
<path id="Polygon 110" d="M25.8174 59.1339L11.1874 50.4679L25.6274 42.1309L25.8174 59.1339Z" fill="#F0F0F0"/>
<path id="Polygon 107" d="M48.6396 18.2989L33.4396 9.96193L33.4396 26.6358L48.6396 18.2989Z" fill="#F0F0F0"/>
<path id="Polygon 109" d="M42.2832 59.1339L57.1032 50.1388L42.6632 41.8018L42.2832 59.1339Z" fill="#E1E1E1"/>
<path id="Polygon 111" d="M10.8701 33.2455L11.2501 50.5775L25.6901 42.2406L10.8701 33.2455Z" fill="#E1E1E1"/>
<g id="Rectangle 80_2">
<mask id="path-15-inside-4_2560_2011" fill="white">
<path d="M18.7471 18.2017L33.5123 9.67696L48.6404 18.2989L33.8752 26.8236L18.7471 18.2017Z"/>
</mask>
<path d="M33.5123 9.67696L33.9511 9.42362L33.5109 9.17275L33.0721 9.42608L33.5123 9.67696ZM19.1873 18.4525L33.9525 9.92784L33.0721 9.42608L18.3069 17.9508L19.1873 18.4525ZM33.0735 9.93029L48.2016 18.5522L49.0792 18.0456L33.9511 9.42362L33.0735 9.93029Z" fill="#969696" mask="url(#path-15-inside-4_2560_2011)"/>
</g>
<g id="Rectangle 134">
<mask id="path-17-inside-5_2560_2011" fill="white">
<path d="M57.3145 33.2942L57.3145 50.3436L42.2836 59.134L42.2836 42.0846L57.3145 33.2942Z"/>
</mask>
<path d="M57.3145 50.3436L57.3145 50.8503L57.7518 50.5945L57.7518 50.0878L57.3145 50.3436ZM56.8771 33.55L56.8771 50.5994L57.7518 50.0878L57.7518 33.0384L56.8771 33.55ZM57.3145 49.8369L42.2836 58.6273L42.2836 59.6406L57.3145 50.8503L57.3145 49.8369Z" fill="#969696" mask="url(#path-17-inside-5_2560_2011)"/>
</g>
<g id="Rectangle 135">
<mask id="path-19-inside-6_2560_2011" fill="white">
<path d="M25.7334 59.1825L10.9682 50.6578L10.8709 33.2455L25.6361 41.7702L25.7334 59.1825Z"/>
</mask>
<path d="M10.9682 50.6578L10.5294 50.4045L10.5322 50.9111L10.971 51.1645L10.9682 50.6578ZM25.7306 58.6758L10.9654 50.1511L10.971 51.1645L25.7362 59.6892L25.7306 58.6758ZM11.407 50.9111L11.3097 33.4988L10.4321 32.9922L10.5294 50.4045L11.407 50.9111Z" fill="#969696" mask="url(#path-19-inside-6_2560_2011)"/>
</g>
<circle id="Ellipse 33" cx="11.196" cy="50.7752" r="1.52" transform="rotate(-120 11.196 50.7752)" fill="#2D2D2D"/>
<circle id="Ellipse 34" cx="33.49" cy="10.2419" r="1.52" transform="rotate(-120 33.49 10.2419)" fill="#2D2D2D"/>
<circle id="Ellipse 35" cx="57.3034" cy="50.2686" r="1.52" transform="rotate(-120 57.3034 50.2686)" fill="#2D2D2D"/>
<circle id="Ellipse 38" cx="33.9968" cy="74.082" r="1.52" transform="rotate(-120 33.9968 74.082)" fill="#2D2D2D"/>
</g>
</g>
</svg>
