<svg width="228" height="86" viewBox="0 0 228 86" fill="none" xmlns="http://www.w3.org/2000/svg">
<path d="M3.87409 85.4978L0.376352 85.3719L0.628179 78.3764L4.12591 78.5023L3.87409 85.4978ZM224.691 6.56884C226.586 6.9503 227.813 8.79573 227.431 10.6907L221.215 41.5712C220.833 43.4662 218.988 44.6932 217.093 44.3117C215.198 43.9302 213.971 42.0848 214.353 40.1898L219.878 12.7405L192.429 7.21484C190.534 6.83337 189.307 4.98795 189.688 3.09296C190.07 1.19798 191.915 -0.0289688 193.81 0.352493L224.691 6.56884ZM4.12591 78.5023C74.9455 81.0517 119.161 69.9003 150.638 54.9392C166.401 47.4468 179.064 38.9546 190.369 30.6045C201.548 22.3471 211.78 13.9215 222.062 7.0854L225.938 12.9146C215.812 19.647 206.155 27.6469 194.528 36.2352C183.025 44.7309 169.962 53.5046 153.643 61.2614C120.954 76.7988 75.5777 88.079 3.87409 85.4978L4.12591 78.5023Z" fill="#2D2D2D"/>
</svg>
