<svg width="228" height="86" viewBox="0 0 228 86" fill="none" xmlns="http://www.w3.org/2000/svg">
<path d="M3.87421 0.502168L0.376474 0.628081L0.628301 7.62355L4.12604 7.49764L3.87421 0.502168ZM224.691 79.4311C226.586 79.0496 227.813 77.2042 227.431 75.3092L221.215 44.4287C220.833 42.5337 218.988 41.3068 217.093 41.6882C215.198 42.0697 213.971 43.9151 214.353 45.8101L219.878 73.2595L192.429 78.7851C190.534 79.1666 189.307 81.012 189.688 82.907C190.07 84.802 191.915 86.0289 193.81 85.6474L224.691 79.4311ZM4.12604 7.49764C74.9456 4.94824 119.161 16.0996 150.638 31.0607C166.401 38.5532 179.064 47.0453 190.369 55.3954C201.548 63.6528 211.78 72.0785 222.062 78.9145L225.938 73.0853C215.812 66.353 206.155 58.3531 194.528 49.7648C183.025 41.2691 169.962 32.4953 153.643 24.7385C120.954 9.20116 75.5778 -2.07905 3.87421 0.502168L4.12604 7.49764Z" fill="#2D2D2D"/>
</svg>
