<svg width="269" height="73" viewBox="0 0 269 73" fill="none" xmlns="http://www.w3.org/2000/svg">
<path d="M6.2239 72.4547C5.03342 72.4547 3.37524 72.3719 1.24938 72.2067V62.6389C2.38317 63.0355 4.42402 63.234 7.37188 63.234C10.3481 63.234 12.8424 62.7546 14.8549 61.7961C16.8958 60.8377 18.5965 59.3174 19.957 57.2352C22.7065 53.038 24.0812 46.3126 24.0812 37.0586V13.9571H2.26979V2.95159H32.5846V37.0586C32.5846 54.9714 27.7518 66.0431 18.0862 70.2733C14.7699 71.7276 10.8158 72.4547 6.2239 72.4547Z" fill="white"/>
<path d="M70.1655 67.3982C68.1532 69.0507 65.5738 70.356 62.4273 71.3145C59.2811 72.2397 55.4262 72.7026 50.8627 72.7026C46.3275 72.7026 41.7499 72.3887 37.1296 71.7606V59.4815C41.2679 60.5722 46.1009 60.9534 49.1621 61.4987C52.2232 62.0441 56.9709 63.5149 59.0686 62.986C61.166 62.4242 62.8525 61.6972 64.1282 60.8047C66.4808 59.1522 67.657 57.0041 67.657 54.3601C67.657 52.311 67.2035 50.7247 66.2965 49.6011C64.851 47.8493 62.7675 46.2463 60.0465 44.7923L49.1621 38.992C45.4205 36.9429 42.7702 35.0427 41.2113 33.291C37.8665 29.5234 36.1944 25.1609 36.1944 20.2034C36.1944 15.1138 38.0934 10.9991 41.8915 7.85943C46.0582 4.42229 51.9822 2.70371 59.6637 2.70371C64.6241 2.70371 69.1594 2.93507 73.2694 3.39775V17.5741C69.7829 16.6487 69.8367 16.2432 64.1282 14.2049C58.4195 12.1667 54.179 11.7428 52.2232 12.2716C50.2959 12.7673 48.7795 13.4118 47.6739 14.2049C45.6615 15.6591 44.6551 17.576 44.6551 19.9556C44.6551 22.269 45.2928 24.1859 46.5685 25.7062C47.7021 26.9951 49.7715 28.4824 52.7759 30.1679L63.9581 36.3645C67.6712 38.4137 70.2647 40.3471 71.7388 42.1648C73.2411 43.9825 74.3464 45.8167 75.0551 47.6677C75.7637 49.4854 76.118 51.6832 76.118 54.2609C76.118 56.8056 75.636 59.2184 74.6725 61.4987C73.7087 63.746 72.2064 65.7124 70.1655 67.3982Z" fill="white"/>
<path d="M221.697 70.7197C218.438 71.7112 214.129 72.2067 208.772 72.2067C203.443 72.2067 198.865 71.4302 195.039 69.877C191.241 68.3234 187.967 66.0266 185.217 62.986C179.322 56.5745 176.374 47.6512 176.374 36.2158C176.374 28.7466 177.904 22.3021 180.966 16.882C185.104 9.51193 191.467 4.8189 200.056 2.80288C202.692 2.20798 205.923 1.91054 209.75 1.91054C213.576 1.91054 218.92 1.97664 221.697 2.40628V15.429C219.26 14.702 210.217 14.0772 205.682 14.0772C201.175 14.0772 210.546 14.0353 205.682 14.0772C201.147 14.0772 193.995 15.9184 192.096 18.1327C188.298 22.4622 185.217 28.317 185.217 36.2158C185.217 44.2469 187.088 50.675 190.83 55.5003C194.911 60.7552 202.182 60.0401 209.75 60.0401V37.7032H221.697V70.7197Z" fill="white"/>
<path d="M228.242 2.30711H266.465V13.978H236.819V30.2004L259.237 28.8485V41.0152L236.819 39.6633V59.9411H266.465V71.3145H228.242V2.30711Z" fill="white"/>
<path d="M83.1759 51.9806L106.773 4.78583H119.556L101.894 44.7923H114.121V33.1918H124.163V44.7923H129.009V55.6985H124.163V72.2067L114.121 71.7606V55.6985H83.1759V51.9806Z" fill="#0038FF"/>
<path d="M138.151 3.19946H176.374V14.8704H146.728V31.0926L169.146 29.7407V41.9074L146.728 40.5556V60.8333H176.374V72.2067H138.151V3.19946Z" fill="white"/>
</svg>
