<svg width="98" height="27" viewBox="0 0 98 27" fill="none" xmlns="http://www.w3.org/2000/svg">
<path d="M1.83077 26.0917C1.39264 26.0917 0.782382 26.0611 0 26V22.4612C0.41727 22.6079 1.16836 22.6812 2.25326 22.6812C3.34859 22.6812 4.26659 22.504 5.00724 22.1495C5.75833 21.795 6.38424 21.2327 6.88496 20.4626C7.89684 18.9102 8.40278 16.4227 8.40278 13V4.45557H0.375543V0.385044H11.5323V13C11.5323 19.6253 9.75369 23.7203 6.19647 25.2849C4.97595 25.8227 3.52072 26.0917 1.83077 26.0917Z" fill="black"/>
<path d="M25.3632 24.2214C24.6226 24.8326 23.6733 25.3155 22.5153 25.6699C21.3574 26.0122 19.9387 26.1833 18.2592 26.1833C16.5901 26.1833 14.9054 26.0672 13.205 25.835V21.2934C14.728 21.6967 16.5066 21.8378 17.6333 22.0395C18.7599 22.2412 20.5072 22.7851 21.2792 22.5896C22.0511 22.3817 22.6718 22.1128 23.1412 21.7828C24.0071 21.1716 24.44 20.377 24.44 19.3991C24.44 18.6413 24.2731 18.0545 23.9393 17.6389C23.4073 16.9911 22.6405 16.3982 21.6391 15.8604L17.6333 13.7151C16.2563 12.9572 15.2809 12.2543 14.7072 11.6065C13.4762 10.213 12.8607 8.59943 12.8607 6.76586C12.8607 4.8834 13.5597 3.36154 14.9575 2.20028C16.491 0.929003 18.6712 0.293366 21.4982 0.293366C23.3238 0.293366 24.9929 0.378933 26.5055 0.550066V5.79337C25.2224 5.4511 25.2422 5.30112 23.1412 4.54725C21.0403 3.79337 19.4797 3.63657 18.7599 3.83215C18.0505 4.01551 17.4924 4.25387 17.0856 4.54725C16.345 5.08509 15.9746 5.79407 15.9746 6.67418C15.9746 7.52985 16.2093 8.23883 16.6788 8.80112C17.096 9.27785 17.8576 9.82792 18.9633 10.4513L23.0787 12.7433C24.4452 13.5012 25.3997 14.2163 25.9422 14.8886C26.4951 15.5609 26.9019 16.2393 27.1627 16.9238C27.4235 17.5961 27.5539 18.409 27.5539 19.3625C27.5539 20.3037 27.3765 21.196 27.0219 22.0395C26.6672 22.8707 26.1143 23.598 25.3632 24.2214Z" fill="black"/>
<path d="M81.1314 25.4499C79.9318 25.8166 78.3461 26 76.3745 26C74.4134 26 72.7286 25.7127 71.3203 25.1382C69.9225 24.5637 68.7176 23.7141 67.7057 22.5896C65.5359 20.2181 64.451 16.9177 64.451 12.6883C64.451 9.92571 65.0143 7.54208 66.141 5.53738C67.664 2.81147 70.0059 1.07569 73.1668 0.330042C74.1369 0.110014 75.3261 0 76.7344 0C78.1427 0 80.1091 0.0244475 81.1314 0.183357V5C80.2343 4.73108 76.9063 4.5 75.2372 4.5C77.0274 4.48449 73.5785 4.5 75.2372 4.5C73.5681 4.5 70.9361 5.18101 70.2372 6C68.8393 7.60132 67.7057 9.7668 67.7057 12.6883C67.7057 15.6587 68.3942 18.0362 69.7712 19.8209C71.2734 21.7645 73.9491 21.5 76.7344 21.5V13.2384H81.1314V25.4499Z" fill="black"/>
<path d="M83.5402 0.146678H97.6074V4.46332H86.6967V10.4633L94.9473 9.96332V14.4633L86.6967 13.9633V21.4633H97.6074V25.6699H83.5402V0.146678Z" fill="black"/>
<path d="M30.1514 18.519L38.8358 1.06346H43.5402L37.0402 15.8604H41.5402V11.5698H45.2357V15.8604H47.0195V19.8942H45.2357V26L41.5402 25.835V19.8942H30.1514V18.519Z" fill="#2C54E1"/>
<path d="M50.3838 0.476723H64.451V4.79337H53.5402V10.7934L61.7909 10.2934V14.7934L53.5402 14.2934V21.7934H64.451V26H50.3838V0.476723Z" fill="black"/>
</svg>
