<svg width="10" height="12" viewBox="0 0 10 12" fill="none" xmlns="http://www.w3.org/2000/svg">
<path d="M5 12L0 9L10 9L5 12Z" fill="#29AD26"/>
<path d="M5 5.99997L0 2.99997L10 2.99997L5 5.99997Z" fill="#AAF06C"/>
<path d="M5 5.99997L10 9L0 9L5 5.99997Z" fill="#29AD26"/>
<path d="M0 9L5 5.99997V12L0 9Z" fill="#56CC5D"/>
<path d="M5 5.99997L0 9V2.99997L5 5.99997Z" fill="#56CC5D"/>
<path d="M10 9L5 12V5.99997L10 9Z" fill="#29AD26"/>
<path d="M5 5.99997L10 2.99997V9L5 5.99997Z" fill="#29AD26"/>
<path d="M5 0L10 2.99997L0 2.99997L5 0Z" fill="#AAF06C"/>
</svg>
