<svg width="108" height="42" viewBox="0 0 108 42" fill="none" xmlns="http://www.w3.org/2000/svg">
<path d="M18 42L4.72255e-06 31.5L36 31.5L18 42Z" fill="#29AD26"/>
<path d="M18 21L4.72255e-06 10.5L36 10.5L18 21Z" fill="#AAF06C"/>
<path d="M18 21L36 31.5L-1.82757e-06 31.5L18 21Z" fill="#29AD26"/>
<path d="M1.25211e-07 31.5L18 21L18 42L1.25211e-07 31.5Z" fill="#56CC5D"/>
<path d="M18 21L-9.07852e-07 31.5L0 10.5L18 21Z" fill="#56CC5D"/>
<path d="M36 31.5L18 42L18 21L36 31.5Z" fill="#29AD26"/>
<path d="M18 21L36 10.5L36 31.5L18 21Z" fill="#29AD26"/>
<path d="M18 3.14722e-06L36 10.5L-1.83588e-06 10.5L18 3.14722e-06Z" fill="#AAF06C"/>
<path d="M18 30.8L9.69231 25.9001L18 25.9001L18 30.8Z" fill="white"/>
<path d="M17.9999 30.8L17.9999 25.9001L26.3076 25.9001L17.9999 30.8Z" fill="white"/>
<path d="M20.7695 20.9999L26.308 16.0999L26.308 25.8999L20.7695 20.9999Z" fill="white"/>
<path d="M15.2305 20.9998L9.69201 25.8998L9.69201 16.0999L15.2305 20.9998Z" fill="white"/>
<path d="M17.9999 21L9.69224 16.1L26.3076 16.1L17.9999 21Z" fill="white"/>
<path d="M18.0001 21L18 25.9L9.69238 25.9L18.0001 21Z" fill="white"/>
<path d="M18 21L26.3077 25.9L18 25.9L18 21Z" fill="white"/>
<path d="M18.0001 11.2L26.3078 16.0999L9.69238 16.0999L18.0001 11.2Z" fill="white"/>
<path d="M49.904 31.5V10.892H53.404V31.5H49.904ZM62.6648 31.78C61.4328 31.78 60.3501 31.4907 59.4168 30.912C58.4834 30.3147 57.7554 29.4653 57.2328 28.364C56.7101 27.2627 56.4488 25.9467 56.4488 24.416C56.4488 22.8853 56.7101 21.5787 57.2328 20.496C57.7554 19.3947 58.4834 18.5547 59.4168 17.976C60.3501 17.3787 61.4328 17.08 62.6648 17.08C63.8594 17.08 64.9048 17.3787 65.8008 17.976C66.7154 18.5547 67.3221 19.3387 67.6208 20.328H67.3128L67.6208 17.36H70.9808C70.9248 17.9387 70.8688 18.5267 70.8128 19.124C70.7754 19.7213 70.7568 20.3093 70.7568 20.888V31.5H67.2848L67.2568 28.588H67.5928C67.2941 29.5587 66.6874 30.3333 65.7728 30.912C64.8581 31.4907 63.8221 31.78 62.6648 31.78ZM63.6448 29.092C64.7461 29.092 65.6328 28.7093 66.3048 27.944C66.9768 27.16 67.3128 25.984 67.3128 24.416C67.3128 22.848 66.9768 21.6813 66.3048 20.916C65.6328 20.1507 64.7461 19.768 63.6448 19.768C62.5434 19.768 61.6568 20.1507 60.9848 20.916C60.3128 21.6813 59.9768 22.848 59.9768 24.416C59.9768 25.984 60.3034 27.16 60.9568 27.944C61.6288 28.7093 62.5248 29.092 63.6448 29.092ZM82.6601 31.78C81.4654 31.78 80.4201 31.4907 79.5241 30.912C78.6281 30.3147 78.0307 29.512 77.7321 28.504H78.0401V31.5H74.5681V10.892H78.0681V20.244H77.7321C78.0494 19.2733 78.6561 18.508 79.5521 17.948C80.4481 17.3693 81.4841 17.08 82.6601 17.08C83.9107 17.08 85.0027 17.3787 85.9361 17.976C86.8694 18.5733 87.5974 19.4227 88.1201 20.524C88.6427 21.6067 88.9041 22.9133 88.9041 24.444C88.9041 25.9747 88.6427 27.2907 88.1201 28.392C87.5974 29.4747 86.8601 30.3147 85.9081 30.912C84.9747 31.4907 83.8921 31.78 82.6601 31.78ZM81.6801 29.092C82.7814 29.092 83.6681 28.7093 84.3401 27.944C85.0307 27.1787 85.3761 26.012 85.3761 24.444C85.3761 22.876 85.0307 21.7093 84.3401 20.944C83.6681 20.16 82.7814 19.768 81.6801 19.768C80.5787 19.768 79.6921 20.1507 79.0201 20.916C78.3481 21.6813 78.0121 22.848 78.0121 24.416C78.0121 25.984 78.3481 27.16 79.0201 27.944C79.6921 28.7093 80.5787 29.092 81.6801 29.092Z" fill="#3C4251"/>
<path d="M92.8833 31.5V19.992H90.1673V17.36H93.8633L92.8833 18.256V16.1C92.8833 14.3453 93.322 13.02 94.1993 12.124C95.0953 11.228 96.3927 10.78 98.0913 10.78C98.502 10.78 98.9313 10.808 99.3793 10.864C99.846 10.92 100.247 11.0227 100.583 11.172V13.916C100.341 13.8227 100.051 13.748 99.7153 13.692C99.3793 13.636 99.0527 13.608 98.7353 13.608C98.0073 13.608 97.4287 13.8227 96.9993 14.252C96.57 14.6627 96.3553 15.3347 96.3553 16.268V17.976L95.8513 17.36H105.679V31.5H102.179V19.992H96.3833V31.5H92.8833ZM101.983 14.7V11.284H105.875V14.7H101.983Z" fill="#29AD26"/>
</svg>
