<svg width="68" height="76" viewBox="0 0 68 76" fill="none" xmlns="http://www.w3.org/2000/svg">
<g id="1">
<g id="Group 8">
<g id="Group 6">
<g id="Rectangle 79">
<mask id="path-1-inside-1_2560_1893" fill="white">
<path d="M33.9258 51.0295L33.9258 18.3559L47.674 10.3282L47.674 43.0019L33.9258 51.0295Z"/>
</mask>
<path d="M33.9258 51.0295L33.9258 18.3559L47.674 10.3282L47.674 43.0019L33.9258 51.0295Z" fill="#F0F0F0"/>
<path d="M47.674 10.3282L48.1115 10.0727L48.1115 9.56607L47.674 9.82155L47.674 10.3282ZM47.674 43.0019L47.674 43.5086L48.1115 43.2531L48.1115 42.7464L47.674 43.0019ZM33.9258 18.8625L47.674 10.8349L47.674 9.82155L33.9258 17.8492L33.9258 18.8625ZM47.2364 10.5837L47.2365 43.2574L48.1115 42.7464L48.1115 10.0727L47.2364 10.5837ZM47.674 42.4952L33.9258 50.5229L33.9258 51.5362L47.674 43.5086L47.674 42.4952Z" fill="#969696" mask="url(#path-1-inside-1_2560_1893)"/>
</g>
<g id="Rectangle 80">
<mask id="path-3-inside-2_2560_1893" fill="white">
<path d="M20.4795 10.2764L33.9116 2.53348L47.7698 10.4192L34.3377 18.1621L20.4795 10.2764Z"/>
</mask>
<path d="M33.9116 2.53348L34.3506 2.28044L33.9102 2.02986L33.4713 2.2829L33.9116 2.53348ZM20.9199 10.5269L34.352 2.78406L33.4713 2.2829L20.0391 10.0258L20.9199 10.5269ZM33.4727 2.78651L47.3309 10.6723L48.2088 10.1662L34.3506 2.28044L33.4727 2.78651Z" fill="#969696" mask="url(#path-3-inside-2_2560_1893)"/>
</g>
<g id="Rectangle 81">
<mask id="path-5-inside-3_2560_1893" fill="white">
<path d="M20.4102 10.2339L20.4102 42.9307L34.1755 50.9683L34.1755 18.2715L20.4102 10.2339Z"/>
</mask>
<path d="M20.4102 10.2339L19.9726 9.97841L19.9726 9.47174L20.4102 9.72722L20.4102 10.2339ZM20.4102 42.9307L20.4102 43.4374L19.9726 43.1819L19.9726 42.6752L20.4102 42.9307ZM20.8477 10.4894L20.8477 43.1862L19.9726 42.6752L19.9726 9.97841L20.8477 10.4894ZM20.4102 42.424L34.1755 50.4617L34.1755 51.475L20.4102 43.4374L20.4102 42.424ZM34.1755 18.7782L20.4102 10.7406L20.4102 9.72722L34.1755 17.7648L34.1755 18.7782Z" fill="#969696" mask="url(#path-5-inside-3_2560_1893)"/>
</g>
<ellipse id="Ellipse 26" cx="34.1113" cy="18.2402" rx="1.52239" ry="1.52" fill="#2D2D2D"/>
</g>
<g id="Group 4">
<g id="Rectangle 79_2">
<mask id="path-8-inside-4_2560_1893" fill="white">
<path d="M14.6416 62.176L14.6416 39.2291L28.3898 31.2015L28.3898 54.1484L14.6416 62.176Z"/>
</mask>
<path d="M14.6416 62.176L14.6416 39.2291L28.3898 31.2015L28.3898 54.1484L14.6416 62.176Z" fill="#F0F0F0"/>
<path d="M28.3898 31.2015L28.8273 30.946L28.8273 30.4393L28.3898 30.6948L28.3898 31.2015ZM28.3898 54.1484L28.3898 54.6551L28.8274 54.3996L28.8274 53.8929L28.3898 54.1484ZM14.6416 39.7358L28.3898 31.7081L28.3898 30.6948L14.6416 38.7224L14.6416 39.7358ZM27.9523 31.4569L27.9523 54.4039L28.8274 53.8929L28.8273 30.946L27.9523 31.4569ZM28.3898 53.6417L14.6416 61.6694L14.6416 62.6827L28.3898 54.6551L28.3898 53.6417Z" fill="#969696" mask="url(#path-8-inside-4_2560_1893)"/>
</g>
<g id="Rectangle 80_2">
<mask id="path-10-inside-5_2560_1893" fill="white">
<path d="M1.01465 31.1533L14.6268 23.3066L28.4398 31.1666L14.8276 39.0133L1.01465 31.1533Z"/>
</mask>
<path d="M1.01465 31.1533L14.6268 23.3066L28.4398 31.1666L14.8276 39.0133L1.01465 31.1533Z" fill="white"/>
<path d="M14.6268 23.3066L15.0658 23.0536L14.6254 22.803L14.1865 23.0561L14.6268 23.3066ZM1.45501 31.4039L15.0672 23.5572L14.1865 23.0561L0.574285 30.9027L1.45501 31.4039ZM14.1879 23.5597L28.0008 31.4197L28.8787 30.9136L15.0658 23.0536L14.1879 23.5597Z" fill="#969696" mask="url(#path-10-inside-5_2560_1893)"/>
</g>
<g id="Rectangle 81_2">
<mask id="path-12-inside-6_2560_1893" fill="white">
<path d="M1.12598 31.4497L1.12598 54.0772L14.8913 62.1148L14.8913 39.4873L1.12598 31.4497Z"/>
</mask>
<path d="M1.12598 31.4497L0.688437 31.1942L0.688437 30.6876L1.12598 30.943L1.12598 31.4497ZM1.12598 54.0772L1.12598 54.5838L0.688438 54.3284L0.688438 53.8217L1.12598 54.0772ZM1.56352 31.7052L1.56352 54.3327L0.688438 53.8217L0.688437 31.1942L1.56352 31.7052ZM1.12598 53.5705L14.8913 61.6081L14.8913 62.6215L1.12598 54.5838L1.12598 53.5705ZM14.8913 39.994L1.12598 31.9564L1.12598 30.943L14.8913 38.9807L14.8913 39.994Z" fill="#969696" mask="url(#path-12-inside-6_2560_1893)"/>
</g>
<ellipse id="Ellipse 26_2" cx="14.8281" cy="39.0134" rx="1.52239" ry="1.52" fill="#2D2D2D"/>
</g>
<g id="Group 7">
<g id="Rectangle 79_3">
<mask id="path-15-inside-7_2560_1893" fill="white">
<path d="M53.21 62.176L53.21 39.3169L66.9582 31.2892L66.9582 54.1484L53.21 62.176Z"/>
</mask>
<path d="M53.21 62.176L53.21 39.3169L66.9582 31.2892L66.9582 54.1484L53.21 62.176Z" fill="#F0F0F0"/>
<path d="M66.9582 31.2892L67.3957 31.0338L67.3957 30.5271L66.9582 30.7826L66.9582 31.2892ZM66.9582 54.1484L66.9582 54.6551L67.3957 54.3996L67.3957 53.8929L66.9582 54.1484ZM53.21 39.8235L66.9582 31.7959L66.9582 30.7826L53.21 38.8102L53.21 39.8235ZM66.5206 31.5447L66.5206 54.4039L67.3957 53.8929L67.3957 31.0338L66.5206 31.5447ZM66.9582 53.6417L53.21 61.6694L53.21 62.6827L66.9582 54.6551L66.9582 53.6417Z" fill="#969696" mask="url(#path-15-inside-7_2560_1893)"/>
</g>
<g id="Rectangle 80_3">
<mask id="path-17-inside-8_2560_1893" fill="white">
<path d="M39.583 31.1533L53.1952 23.3066L67.0081 31.1666L53.3959 39.0133L39.583 31.1533Z"/>
</mask>
<path d="M39.583 31.1533L53.1952 23.3066L67.0081 31.1666L53.3959 39.0133L39.583 31.1533Z" fill="white"/>
<path d="M53.1952 23.3066L53.6342 23.0536L53.1938 22.803L52.7548 23.0561L53.1952 23.3066ZM40.0234 31.4039L53.6356 23.5572L52.7548 23.0561L39.1426 30.9027L40.0234 31.4039ZM52.7562 23.5597L66.5692 31.4197L67.4471 30.9136L53.6342 23.0536L52.7562 23.5597Z" fill="#969696" mask="url(#path-17-inside-8_2560_1893)"/>
</g>
<g id="Rectangle 81_3">
<mask id="path-19-inside-9_2560_1893" fill="white">
<path d="M39.6943 31.1323L39.6943 54.0771L53.4597 62.1147L53.4597 39.1699L39.6943 31.1323Z"/>
</mask>
<path d="M39.6943 31.1323L39.6943 54.0771L53.4597 62.1147L53.4597 39.1699L39.6943 31.1323Z" fill="white"/>
<path d="M39.6943 31.1323L39.2568 30.8768L39.2568 30.3702L39.6943 30.6257L39.6943 31.1323ZM39.6943 54.0771L39.6943 54.5838L39.2568 54.3283L39.2568 53.8216L39.6943 54.0771ZM40.1319 31.3878L40.1319 54.3326L39.2568 53.8216L39.2568 30.8768L40.1319 31.3878ZM39.6943 53.5704L53.4597 61.6081L53.4597 62.6214L39.6943 54.5838L39.6943 53.5704ZM53.4597 39.6766L39.6943 31.639L39.6943 30.6257L53.4597 38.6633L53.4597 39.6766Z" fill="#969696" mask="url(#path-19-inside-9_2560_1893)"/>
</g>
<ellipse id="Ellipse 26_3" cx="53.3964" cy="39.0134" rx="1.52239" ry="1.52" fill="#2D2D2D"/>
</g>
<g id="Group 5">
<g id="Rectangle 79_4">
<mask id="path-22-inside-10_2560_1893" fill="white">
<path d="M33.9258 73.3228L33.9258 58.9478L47.674 50.9202L47.674 65.2951L33.9258 73.3228Z"/>
</mask>
<path d="M33.9258 73.3228L33.9258 58.9478L47.674 50.9202L47.674 65.2951L33.9258 73.3228Z" fill="#F0F0F0"/>
<path d="M47.674 50.9202L48.1115 50.6647L48.1115 50.158L47.674 50.4135L47.674 50.9202ZM47.674 65.2951L47.674 65.8018L48.1115 65.5463L48.1115 65.0396L47.674 65.2951ZM33.9258 59.4545L47.674 51.4268L47.674 50.4135L33.9258 58.4411L33.9258 59.4545ZM47.2364 51.1756L47.2365 65.5506L48.1115 65.0396L48.1115 50.6647L47.2364 51.1756ZM47.674 64.7885L33.9258 72.8161L33.9258 73.8294L47.674 65.8018L47.674 64.7885Z" fill="#969696" mask="url(#path-22-inside-10_2560_1893)"/>
</g>
<g id="Rectangle 80_4">
<mask id="path-24-inside-11_2560_1893" fill="white">
<path d="M20.2988 50.9133L33.911 43.0667L47.7239 50.9267L34.1117 58.7733L20.2988 50.9133Z"/>
</mask>
<path d="M20.2988 50.9133L33.911 43.0667L47.7239 50.9267L34.1117 58.7733L20.2988 50.9133Z" fill="white"/>
<path d="M33.911 43.0667L34.35 42.8136L33.9096 42.563L33.4707 42.8161L33.911 43.0667ZM20.7392 51.1639L34.3514 43.3172L33.4707 42.8161L19.8585 50.6627L20.7392 51.1639ZM33.4721 43.3197L47.285 51.1797L48.1629 50.6736L34.35 42.8136L33.4721 43.3197Z" fill="#969696" mask="url(#path-24-inside-11_2560_1893)"/>
</g>
<g id="Rectangle 81_4">
<mask id="path-26-inside-12_2560_1893" fill="white">
<path d="M20.4102 50.9082L20.4102 65.2239L34.1755 73.2615L34.1755 58.9458L20.4102 50.9082Z"/>
</mask>
<path d="M20.4102 50.9082L20.4102 65.2239L34.1755 73.2615L34.1755 58.9458L20.4102 50.9082Z" fill="white"/>
<path d="M20.4102 50.9082L19.9726 50.6527L19.9726 50.1461L20.4102 50.4015L20.4102 50.9082ZM20.4102 65.2239L20.4102 65.7306L19.9726 65.4751L19.9726 64.9684L20.4102 65.2239ZM20.8477 51.1637L20.8477 65.4794L19.9726 64.9684L19.9726 50.6527L20.8477 51.1637ZM20.4102 64.7172L34.1755 72.7549L34.1755 73.7682L20.4102 65.7306L20.4102 64.7172ZM34.1755 59.4525L20.4102 51.4149L20.4102 50.4015L34.1755 58.4392L34.1755 59.4525Z" fill="#969696" mask="url(#path-26-inside-12_2560_1893)"/>
</g>
<ellipse id="Ellipse 26_4" cx="34.1122" cy="58.7737" rx="1.52239" ry="1.52" fill="#2D2D2D"/>
</g>
</g>
</g>
</svg>
