<svg width="68" height="76" viewBox="0 0 68 76" fill="none" xmlns="http://www.w3.org/2000/svg">
<g id="10">
<g id="Group 17">
<g id="Group 13">
<g id="Rectangle 79">
<mask id="path-1-inside-1_2560_2074" fill="white">
<path d="M33.8574 73.9531L33.8574 36.8713L65.8672 18.1513L65.8672 55.2331L33.8574 73.9531Z"/>
</mask>
<path d="M33.8574 73.9531L33.8574 36.8713L65.8672 18.1513L65.8672 55.2331L33.8574 73.9531Z" fill="#F0F0F0"/>
<path d="M65.8672 18.1513L66.3045 17.8955L66.3045 17.3889L65.8672 17.6446L65.8672 18.1513ZM65.8672 55.2331L65.8672 55.7398L66.3045 55.484L66.3045 54.9774L65.8672 55.2331ZM33.8574 37.378L65.8672 18.658L65.8672 17.6446L33.8574 36.3646L33.8574 37.378ZM65.4298 18.4071L65.4298 55.4889L66.3045 54.9774L66.3045 17.8955L65.4298 18.4071ZM65.8672 54.7265L33.8574 73.4465L33.8574 74.4598L65.8672 55.7398L65.8672 54.7265Z" fill="#969696" mask="url(#path-1-inside-1_2560_2074)"/>
</g>
<g id="Rectangle 80">
<mask id="path-3-inside-2_2560_2074" fill="white">
<path d="M1.90332 18.3787L33.7361 1.33514e-05L65.8102 18.2799L33.9774 36.6586L1.90332 18.3787Z"/>
</mask>
<path d="M1.90332 18.3787L33.7361 1.33514e-05L65.8102 18.2799L33.9774 36.6586L1.90332 18.3787Z" fill="white"/>
<path d="M33.7361 1.33514e-05L34.1749 -0.253321L33.7347 -0.504199L33.2959 -0.250865L33.7361 1.33514e-05ZM2.34351 18.6295L34.1763 0.250892L33.2959 -0.250865L1.46313 18.1278L2.34351 18.6295ZM33.2973 0.253347L65.3714 18.5333L66.249 18.0266L34.1749 -0.253321L33.2973 0.253347Z" fill="#969696" mask="url(#path-3-inside-2_2560_2074)"/>
</g>
<g id="Rectangle 81">
<mask id="path-5-inside-3_2560_2074" fill="white">
<path d="M1.89941 18.2389L1.89942 55.3207L33.9092 74.0407L33.9092 36.9589L1.89941 18.2389Z"/>
</mask>
<path d="M1.89941 18.2389L1.89942 55.3207L33.9092 74.0407L33.9092 36.9589L1.89941 18.2389Z" fill="white"/>
<path d="M1.89941 18.2389L1.46205 17.9831L1.46205 17.4764L1.89941 17.7322L1.89941 18.2389ZM1.89942 55.3207L1.89942 55.8274L1.46205 55.5716L1.46205 55.0649L1.89942 55.3207ZM2.33678 18.4947L2.33678 55.5765L1.46205 55.0649L1.46205 17.9831L2.33678 18.4947ZM1.89942 54.8141L33.9092 73.534L33.9092 74.5474L1.89942 55.8274L1.89942 54.8141ZM33.9092 37.4655L1.89941 18.7456L1.89941 17.7322L33.9092 36.4522L33.9092 37.4655Z" fill="#969696" mask="url(#path-5-inside-3_2560_2074)"/>
</g>
</g>
<g id="Group 14">
<g id="Rectangle 79_2">
<mask id="path-7-inside-4_2560_2074" fill="white">
<path d="M33.8809 10.8466L33.8809 37.1259L11.1961 50.3924L11.1961 24.1131L33.8809 10.8466Z"/>
</mask>
<path d="M33.8809 10.8466L33.8809 37.1259L11.1961 50.3924L11.1961 24.1131L33.8809 10.8466Z" fill="#F0F0F0"/>
<path d="M11.1961 24.1131L11.1961 23.6064L10.7587 23.8622L10.7587 24.3689L11.1961 24.1131ZM11.6334 50.1366L11.6334 23.8573L10.7587 24.3689L10.7587 50.6482L11.6334 50.1366ZM11.1961 24.6198L33.8809 11.3532L33.8809 10.3399L11.1961 23.6064L11.1961 24.6198Z" fill="#969696" mask="url(#path-7-inside-4_2560_2074)"/>
</g>
<g id="Rectangle 80_2">
<mask id="path-9-inside-5_2560_2074" fill="white">
<path d="M56.7461 50.1038L33.9659 63.2559L11.1216 50.2364L33.9019 37.0842L56.7461 50.1038Z"/>
</mask>
<path d="M56.7461 50.1038L33.9659 63.2559L11.1216 50.2364L33.9019 37.0842L56.7461 50.1038Z" fill="white"/>
<path d="M33.9659 63.2559L33.5271 63.5093L33.9673 63.7601L34.4061 63.5068L33.9659 63.2559ZM56.3059 49.8529L33.5257 63.005L34.4061 63.5068L57.1863 50.3546L56.3059 49.8529ZM34.4047 63.0026L11.5604 49.983L10.6829 50.4897L33.5271 63.5093L34.4047 63.0026Z" fill="#969696" mask="url(#path-9-inside-5_2560_2074)"/>
</g>
<g id="Rectangle 81_2">
<mask id="path-11-inside-6_2560_2074" fill="white">
<path d="M56.5283 50.3303L56.5283 24.051L33.8435 10.7845L33.8435 37.0638L56.5283 50.3303Z"/>
</mask>
<path d="M56.5283 50.3303L56.5283 24.051L33.8435 10.7845L33.8435 37.0638L56.5283 50.3303Z" fill="white"/>
<path d="M56.5283 24.051L56.5283 23.5444L56.9657 23.8001L56.9657 24.3068L56.5283 24.051ZM56.091 50.0745L56.091 23.7952L56.9657 24.3068L56.9657 50.5861L56.091 50.0745ZM56.5283 24.5577L33.8435 11.2911L33.8435 10.2778L56.5283 23.5444L56.5283 24.5577Z" fill="#969696" mask="url(#path-11-inside-6_2560_2074)"/>
</g>
</g>
<g id="Group 7">
<g id="Rectangle 79_3">
<mask id="path-13-inside-7_2560_2074" fill="white">
<path d="M33.9678 53.6755L33.9678 36.9531L48.4029 28.5111L48.4029 45.2335L33.9678 53.6755Z"/>
</mask>
<path d="M33.9678 53.6755L33.9678 36.9531L48.4029 28.5111L48.4029 45.2335L33.9678 53.6755Z" fill="#F0F0F0"/>
<path d="M48.4029 45.2335L48.4029 45.7402L48.8403 45.4844L48.8403 44.9778L48.4029 45.2335ZM47.9656 28.7669L47.9656 45.4893L48.8403 44.9778L48.8403 28.2553L47.9656 28.7669ZM48.4029 44.7269L33.9678 53.1689L33.9678 54.1822L48.4029 45.7402L48.4029 44.7269Z" fill="#969696" mask="url(#path-13-inside-7_2560_2074)"/>
</g>
<g id="Rectangle 80_3">
<mask id="path-15-inside-8_2560_2074" fill="white">
<path d="M19.6055 28.5867L33.9141 20.3256L48.7793 28.7976L34.4706 37.0587L19.6055 28.5867Z"/>
</mask>
<path d="M19.6055 28.5867L33.9141 20.3256L48.7793 28.7976L34.4706 37.0587L19.6055 28.5867Z" fill="white"/>
<path d="M33.9141 20.3256L34.3529 20.0722L33.9127 19.8214L33.4739 20.0747L33.9141 20.3256ZM48.7793 28.7976L49.2195 29.0485L49.6582 28.7952L49.218 28.5443L48.7793 28.7976ZM20.0457 28.8375L34.3543 20.5765L33.4739 20.0747L19.1653 28.3358L20.0457 28.8375ZM33.4753 20.5789L48.3405 29.051L49.218 28.5443L34.3529 20.0722L33.4753 20.5789ZM48.3391 28.5468L34.0304 36.8079L34.9108 37.3096L49.2195 29.0485L48.3391 28.5468Z" fill="#969696" mask="url(#path-15-inside-8_2560_2074)"/>
</g>
<g id="Rectangle 81_3">
<mask id="path-17-inside-9_2560_2074" fill="white">
<path d="M19.5566 28.4264L19.5566 45.2731L33.9918 53.7151L33.9918 36.8684L19.5566 28.4264Z"/>
</mask>
<path d="M19.5566 28.4264L19.5566 45.2731L33.9918 53.7151L33.9918 36.8684L19.5566 28.4264Z" fill="white"/>
<path d="M19.5566 28.4264L19.1193 28.1706L19.1193 27.6639L19.5566 27.9197L19.5566 28.4264ZM19.5566 45.2731L19.5566 45.7798L19.1193 45.524L19.1193 45.0173L19.5566 45.2731ZM19.994 28.6822L19.994 45.5289L19.1193 45.0173L19.1193 28.1706L19.994 28.6822ZM19.5566 44.7664L33.9918 53.2084L33.9918 54.2218L19.5566 45.7798L19.5566 44.7664ZM33.9918 37.375L19.5566 28.9331L19.5566 27.9197L33.9918 36.3617L33.9918 37.375Z" fill="#969696" mask="url(#path-17-inside-9_2560_2074)"/>
</g>
</g>
<circle id="Ellipse 39" cx="2.07589" cy="18.3487" r="1.52" transform="rotate(-120 2.07589 18.3487)" fill="#2D2D2D"/>
<circle id="Ellipse 40" cx="65.4099" cy="18.3487" r="1.52" transform="rotate(-120 65.4099 18.3487)" fill="#2D2D2D"/>
<circle id="Ellipse 32" cx="11.196" cy="24.4286" r="1.52" transform="rotate(-120 11.196 24.4286)" fill="#2D2D2D"/>
<circle id="Ellipse 41" cx="56.2898" cy="50.2686" r="1.52" transform="rotate(-120 56.2898 50.2686)" fill="#2D2D2D"/>
<circle id="Ellipse 42" cx="33.9968" cy="37.0953" r="1.52" transform="rotate(-120 33.9968 37.0953)" fill="#2D2D2D"/>
<circle id="Ellipse 43" cx="33.9968" cy="74.082" r="1.52" transform="rotate(-120 33.9968 74.082)" fill="#2D2D2D"/>
</g>
</g>
</svg>
