<svg width="68" height="76" viewBox="0 0 68 76" fill="none" xmlns="http://www.w3.org/2000/svg">
<g id="11">
<g id="Group 8">
<g id="Group 11">
<g id="Rectangle 79">
<mask id="path-1-inside-1_2560_5008" fill="white">
<path d="M33.873 53.1137L33.873 38.7366L46.994 31.0632L46.994 45.4403L33.873 53.1137Z"/>
</mask>
<path d="M33.873 53.1137L33.873 38.7366L46.994 31.0632L46.994 45.4403L33.873 53.1137Z" fill="#F0F0F0"/>
<path d="M46.994 31.0632L47.4313 30.8074L47.4313 30.3008L46.994 30.5565L46.994 31.0632ZM46.994 45.4403L46.994 45.947L47.4313 45.6912L47.4313 45.1845L46.994 45.4403ZM33.873 39.2433L46.994 31.5699L46.994 30.5565L33.873 38.2299L33.873 39.2433ZM46.5566 31.319L46.5566 45.6961L47.4313 45.1845L47.4313 30.8074L46.5566 31.319ZM46.994 44.9336L33.873 52.607L33.873 53.6204L46.994 45.947L46.994 44.9336Z" fill="#969696" mask="url(#path-1-inside-1_2560_5008)"/>
</g>
<g id="Rectangle 81">
<mask id="path-3-inside-2_2560_5008" fill="white">
<path d="M20.7734 30.712L20.7734 45.4762L33.8944 53.1496L33.8944 38.3854L20.7734 30.712Z"/>
</mask>
<path d="M20.7734 30.712L20.7734 45.4762L33.8944 53.1496L33.8944 38.3854L20.7734 30.712Z" fill="white"/>
<path d="M20.7734 30.712L20.3361 30.4563L20.3361 29.9496L20.7734 30.2054L20.7734 30.712ZM20.7734 45.4762L20.7734 45.9828L20.3361 45.7271L20.3361 45.2204L20.7734 45.4762ZM21.2108 30.9678L21.2108 45.7319L20.3361 45.2204L20.3361 30.4563L21.2108 30.9678ZM20.7734 44.9695L33.8944 52.6429L33.8944 53.6562L20.7734 45.9828L20.7734 44.9695ZM33.8944 38.8921L20.7734 31.2187L20.7734 30.2054L33.8944 37.8788L33.8944 38.8921Z" fill="#969696" mask="url(#path-3-inside-2_2560_5008)"/>
</g>
</g>
<g id="Group 12">
<g id="Rectangle 79_2">
<mask id="path-5-inside-3_2560_5008" fill="white">
<path d="M33.873 30.8204L33.873 15.6204L46.994 7.94697L46.994 23.147L33.873 30.8204Z"/>
</mask>
<path d="M33.873 30.8204L33.873 15.6204L46.994 7.94697L46.994 23.147L33.873 30.8204Z" fill="#F0F0F0"/>
<path d="M46.994 7.94697L47.4313 7.69119L47.4313 7.18452L46.994 7.44031L46.994 7.94697ZM46.994 23.147L46.994 23.6536L47.4313 23.3979L47.4313 22.8912L46.994 23.147ZM33.873 16.127L46.994 8.45364L46.994 7.44031L33.873 15.1137L33.873 16.127ZM46.5566 8.20275L46.5566 23.4028L47.4313 22.8912L47.4313 7.69119L46.5566 8.20275ZM46.994 22.6403L33.873 30.3137L33.873 31.327L46.994 23.6536L46.994 22.6403Z" fill="#969696" mask="url(#path-5-inside-3_2560_5008)"/>
</g>
<g id="Rectangle 80">
<mask id="path-7-inside-4_2560_5008" fill="white">
<path d="M20.7754 8.04016L33.8238 0.506676L46.9711 7.99969L33.9227 15.5332L20.7754 8.04016Z"/>
</mask>
<path d="M20.7754 8.04016L33.8238 0.506676L46.9711 7.99969L33.9227 15.5332L20.7754 8.04016Z" fill="white"/>
<path d="M33.8238 0.506676L34.2626 0.253343L33.8224 0.0024639L33.3836 0.255797L33.8238 0.506676ZM21.2156 8.29104L34.264 0.757555L33.3836 0.255797L20.3352 7.78928L21.2156 8.29104ZM33.385 0.76001L46.5323 8.25302L47.4099 7.74635L34.2626 0.253343L33.385 0.76001Z" fill="#969696" mask="url(#path-7-inside-4_2560_5008)"/>
</g>
<g id="Rectangle 81_2">
<mask id="path-9-inside-5_2560_5008" fill="white">
<path d="M20.7734 7.98285L20.7734 23.1828L33.8944 30.8562L33.8944 15.6562L20.7734 7.98285Z"/>
</mask>
<path d="M20.7734 7.98285L20.7734 23.1828L33.8944 30.8562L33.8944 15.6562L20.7734 7.98285Z" fill="white"/>
<path d="M20.7734 7.98285L20.3361 7.72707L20.3361 7.2204L20.7734 7.47618L20.7734 7.98285ZM20.7734 23.1828L20.7734 23.6895L20.3361 23.4337L20.3361 22.9271L20.7734 23.1828ZM21.2108 8.23863L21.2108 23.4386L20.3361 22.9271L20.3361 7.72707L21.2108 8.23863ZM20.7734 22.6762L33.8944 30.3496L33.8944 31.3629L20.7734 23.6895L20.7734 22.6762ZM33.8944 16.1629L20.7734 8.48952L20.7734 7.47618L33.8944 15.1496L33.8944 16.1629Z" fill="#969696" mask="url(#path-9-inside-5_2560_5008)"/>
</g>
<circle id="Ellipse 26" cx="34.0571" cy="15.547" r="1.52" fill="#2D2D2D"/>
</g>
<g id="Group 13">
<g id="Rectangle 79_3">
<mask id="path-12-inside-6_2560_5008" fill="white">
<path d="M53.6328 64.42L53.6328 49.22L66.7537 41.5466L66.7537 56.7466L53.6328 64.42Z"/>
</mask>
<path d="M53.6328 64.42L53.6328 49.22L66.7537 41.5466L66.7537 56.7466L53.6328 64.42Z" fill="#F0F0F0"/>
<path d="M66.7537 41.5466L67.1911 41.2908L67.1911 40.7841L66.7537 41.0399L66.7537 41.5466ZM66.7537 56.7466L66.7537 57.2532L67.1911 56.9975L67.1911 56.4908L66.7537 56.7466ZM53.6328 49.7267L66.7537 42.0532L66.7537 41.0399L53.6328 48.7133L53.6328 49.7267ZM66.3164 41.8024L66.3164 57.0024L67.1911 56.4908L67.1911 41.2908L66.3164 41.8024ZM66.7537 56.2399L53.6328 63.9133L53.6328 64.9266L66.7537 57.2532L66.7537 56.2399Z" fill="#969696" mask="url(#path-12-inside-6_2560_5008)"/>
</g>
<g id="Rectangle 80_2">
<mask id="path-14-inside-7_2560_5008" fill="white">
<path d="M40.5352 41.6398L53.5835 34.1063L66.7308 41.5993L53.6825 49.1328L40.5352 41.6398Z"/>
</mask>
<path d="M40.5352 41.6398L53.5835 34.1063L66.7308 41.5993L53.6825 49.1328L40.5352 41.6398Z" fill="white"/>
<path d="M53.5835 34.1063L54.0223 33.853L53.5821 33.6021L53.1433 33.8554L53.5835 34.1063ZM40.9754 41.8906L54.0237 34.3572L53.1433 33.8554L40.095 41.3889L40.9754 41.8906ZM53.1447 34.3596L66.2921 41.8526L67.1696 41.346L54.0223 33.853L53.1447 34.3596Z" fill="#969696" mask="url(#path-14-inside-7_2560_5008)"/>
</g>
<g id="Rectangle 81_3">
<mask id="path-16-inside-8_2560_5008" fill="white">
<path d="M40.5332 41.5825L40.5332 56.7825L53.6541 64.4559L53.6541 49.2559L40.5332 41.5825Z"/>
</mask>
<path d="M40.5332 41.5825L40.5332 56.7825L53.6541 64.4559L53.6541 49.2559L40.5332 41.5825Z" fill="white"/>
<path d="M40.5332 41.5825L40.0958 41.3267L40.0958 40.82L40.5332 41.0758L40.5332 41.5825ZM40.5332 56.7825L40.5332 57.2891L40.0958 57.0333L40.0958 56.5267L40.5332 56.7825ZM40.9706 41.8382L40.9706 57.0382L40.0958 56.5267L40.0958 41.3267L40.9706 41.8382ZM40.5332 56.2758L53.6541 63.9492L53.6541 64.9625L40.5332 57.2891L40.5332 56.2758ZM53.6541 49.7625L40.5332 42.0891L40.5332 41.0758L53.6541 48.7492L53.6541 49.7625Z" fill="#969696" mask="url(#path-16-inside-8_2560_5008)"/>
</g>
<circle id="Ellipse 26_2" cx="53.8188" cy="49.1466" r="1.52" fill="#2D2D2D"/>
</g>
<g id="Group 14">
<g id="Rectangle 80_3">
<mask id="path-19-inside-9_2560_5008" fill="white">
<path d="M20.9355 30.662L53.583 11.813L66.7303 19.306L34.0829 38.155L20.9355 30.662Z"/>
</mask>
<path d="M20.9355 30.662L53.583 11.813L66.7303 19.306L34.0829 38.155L20.9355 30.662Z" fill="white"/>
<path d="M53.583 11.813L54.0218 11.5596L53.5816 11.3087L53.1428 11.5621L53.583 11.813ZM21.3757 30.9129L54.0232 12.0638L53.1428 11.5621L20.4954 30.4111L21.3757 30.9129ZM53.1442 12.0663L66.2916 19.5593L67.1691 19.0526L54.0218 11.5596L53.1442 12.0663Z" fill="#969696" mask="url(#path-19-inside-9_2560_5008)"/>
</g>
</g>
<g id="Group 8_2">
<g id="Rectangle 79_4">
<mask id="path-21-inside-10_2560_5008" fill="white">
<path d="M14.1133 64.2604L14.1133 49.0604L27.2342 41.387L27.2342 56.587L14.1133 64.2604Z"/>
</mask>
<path d="M14.1133 64.2604L14.1133 49.0604L27.2342 41.387L27.2342 56.587L14.1133 64.2604Z" fill="#F0F0F0"/>
<path d="M27.2342 41.387L27.6716 41.1312L27.6716 40.6245L27.2342 40.8803L27.2342 41.387ZM27.2342 56.587L27.2342 57.0936L27.6716 56.8379L27.6716 56.3312L27.2342 56.587ZM14.1133 49.567L27.2342 41.8936L27.2342 40.8803L14.1133 48.5537L14.1133 49.567ZM26.7968 41.6428L26.7968 56.8428L27.6716 56.3312L27.6716 41.1312L26.7968 41.6428ZM27.2342 56.0803L14.1133 63.7537L14.1133 64.767L27.2342 57.0936L27.2342 56.0803Z" fill="#969696" mask="url(#path-21-inside-10_2560_5008)"/>
</g>
<g id="Rectangle 80_4">
<mask id="path-23-inside-11_2560_5008" fill="white">
<path d="M1.01562 41.4802L14.064 33.9467L27.2113 41.4397L14.1629 48.9732L1.01562 41.4802Z"/>
</mask>
<path d="M1.01562 41.4802L14.064 33.9467L27.2113 41.4397L14.1629 48.9732L1.01562 41.4802Z" fill="white"/>
<path d="M14.064 33.9467L14.5028 33.6933L14.0626 33.4425L13.6238 33.6958L14.064 33.9467ZM1.45582 41.731L14.5042 34.1976L13.6238 33.6958L0.575431 41.2293L1.45582 41.731ZM13.6252 34.2L26.7725 41.693L27.6501 41.1864L14.5028 33.6933L13.6252 34.2Z" fill="#969696" mask="url(#path-23-inside-11_2560_5008)"/>
</g>
<g id="Rectangle 81_4">
<mask id="path-25-inside-12_2560_5008" fill="white">
<path d="M1.01367 41.4229L1.01367 56.6229L14.1346 64.2963L14.1346 49.0963L1.01367 41.4229Z"/>
</mask>
<path d="M1.01367 41.4229L1.01367 56.6229L14.1346 64.2963L14.1346 49.0963L1.01367 41.4229Z" fill="white"/>
<path d="M1.01367 41.4229L0.576307 41.1671L0.576307 40.6604L1.01367 40.9162L1.01367 41.4229ZM1.01367 56.6229L1.01367 57.1295L0.576308 56.8737L0.576308 56.3671L1.01367 56.6229ZM1.45104 41.6786L1.45104 56.8786L0.576308 56.3671L0.576307 41.1671L1.45104 41.6786ZM1.01367 56.1162L14.1346 63.7896L14.1346 64.8029L1.01367 57.1295L1.01367 56.1162ZM14.1346 49.6029L1.01367 41.9295L1.01367 40.9162L14.1346 48.5896L14.1346 49.6029Z" fill="#969696" mask="url(#path-25-inside-12_2560_5008)"/>
</g>
<circle id="Ellipse 26_3" cx="14.2993" cy="48.987" r="1.52" fill="#2D2D2D"/>
</g>
<g id="Group 9">
<g id="Rectangle 81_5">
<mask id="path-28-inside-13_2560_5008" fill="white">
<path d="M20.7734 32.2044L20.7734 67.9177L33.8944 75.5911L33.8944 39.8778L20.7734 32.2044Z"/>
</mask>
<path d="M20.7734 32.2044L20.7734 67.9177L33.8944 75.5911L33.8944 39.8778L20.7734 32.2044Z" fill="white"/>
<path d="M20.7734 32.2044L20.3361 31.9486L20.3361 31.442L20.7734 31.6977L20.7734 32.2044ZM20.7734 67.9177L20.7734 68.4243L20.3361 68.1686L20.3361 67.6619L20.7734 67.9177ZM21.2108 32.4602L21.2108 68.1734L20.3361 67.6619L20.3361 31.9486L21.2108 32.4602ZM20.7734 67.411L33.8944 75.0844L33.8944 76.0977L20.7734 68.4243L20.7734 67.411ZM33.8944 40.3845L20.7734 32.7111L20.7734 31.6977L33.8944 39.3711L33.8944 40.3845Z" fill="#969696" mask="url(#path-28-inside-13_2560_5008)"/>
</g>
<g id="Rectangle 80_5">
<mask id="path-30-inside-14_2560_5008" fill="white">
<path d="M0.798828 19.312L14.0642 11.6533L46.8419 30.3341L33.5765 37.9929L0.798828 19.312Z"/>
</mask>
<path d="M0.798828 19.312L14.0642 11.6533L46.8419 30.3341L33.5765 37.9929L0.798828 19.312Z" fill="white"/>
<path d="M14.0642 11.6533L14.503 11.3999L14.0628 11.149L13.624 11.4024L14.0642 11.6533ZM1.23902 19.5629L14.5044 11.9041L13.624 11.4024L0.358634 19.0611L1.23902 19.5629ZM13.6254 11.9066L46.4031 30.5875L47.2806 30.0808L14.503 11.3999L13.6254 11.9066Z" fill="#969696" mask="url(#path-30-inside-14_2560_5008)"/>
</g>
</g>
<g id="Group 10">
<g id="Rectangle 79_5">
<mask id="path-32-inside-15_2560_5008" fill="white">
<path d="M33.873 75.6063L33.873 38.4672L46.994 30.7938L46.994 67.9329L33.873 75.6063Z"/>
</mask>
<path d="M33.873 75.6063L33.873 38.4672L46.994 30.7938L46.994 67.9329L33.873 75.6063Z" fill="#F0F0F0"/>
<path d="M46.994 30.7938L47.4313 30.538L47.4313 30.0313L46.994 30.2871L46.994 30.7938ZM46.994 67.9329L46.994 68.4396L47.4313 68.1838L47.4313 67.6771L46.994 67.9329ZM33.873 38.9739L46.994 31.3005L46.994 30.2871L33.873 37.9605L33.873 38.9739ZM46.5566 31.0496L46.5566 68.1887L47.4313 67.6771L47.4313 30.538L46.5566 31.0496ZM46.994 67.4263L33.873 75.0997L33.873 76.113L46.994 68.4396L46.994 67.4263Z" fill="#969696" mask="url(#path-32-inside-15_2560_5008)"/>
</g>
</g>
<g id="Rectangle 79_6">
<mask id="path-34-inside-16_2560_5008" fill="white">
<path d="M33.9473 53.6393L33.9473 38.4393L66.754 19.2533L66.754 34.4533L33.9473 53.6393Z"/>
</mask>
<path d="M33.9473 53.6393L33.9473 38.4393L66.754 19.2533L66.754 34.4533L33.9473 53.6393Z" fill="#F0F0F0"/>
<path d="M66.754 19.2533L67.1913 18.9975L67.1913 18.4908L66.754 18.7466L66.754 19.2533ZM66.754 34.4533L66.754 34.9599L67.1913 34.7042L67.1913 34.1975L66.754 34.4533ZM33.9473 38.946L66.754 19.7599L66.754 18.7466L33.9473 37.9327L33.9473 38.946ZM66.3166 19.5091L66.3166 34.7091L67.1913 34.1975L67.1913 18.9975L66.3166 19.5091ZM66.754 33.9466L33.9473 53.1327L33.9473 54.146L66.754 34.9599L66.754 33.9466Z" fill="#969696" mask="url(#path-34-inside-16_2560_5008)"/>
</g>
<g id="Rectangle 81_6">
<mask id="path-36-inside-17_2560_5008" fill="white">
<path d="M1.01367 19.1296L1.01367 34.3296L33.947 53.5897L33.947 38.3897L1.01367 19.1296Z"/>
</mask>
<path d="M1.01367 19.1296L1.01367 34.3296L33.947 53.5897L33.947 38.3897L1.01367 19.1296Z" fill="white"/>
<path d="M1.01367 19.1296L0.576307 18.8738L0.576307 18.3671L1.01367 18.6229L1.01367 19.1296ZM1.01367 34.3296L1.01367 34.8362L0.576308 34.5805L0.576308 34.0738L1.01367 34.3296ZM1.45104 19.3854L1.45104 34.5854L0.576308 34.0738L0.576307 18.8738L1.45104 19.3854ZM1.01367 33.8229L33.947 53.083L33.947 54.0964L1.01367 34.8362L1.01367 33.8229ZM33.947 38.8964L1.01367 19.6362L1.01367 18.6229L33.947 37.883L33.947 38.8964Z" fill="#969696" mask="url(#path-36-inside-17_2560_5008)"/>
</g>
<path id="Rectangle 81_7" d="M21.377 30.913L53.5586 12.3329L66.2655 19.5749L34.0839 38.155L21.377 30.913Z" fill="white"/>
<path id="Rectangle 80_6" d="M33.9512 74.8637L33.9464 38.8228L46.5604 31.4436L46.5652 67.4845L33.9512 74.8637Z" fill="#F0F0F0"/>
<path id="Rectangle 82" d="M21.2129 31.4565L21.2043 67.5025L33.9424 74.956L33.9509 38.9101L21.2129 31.4565Z" fill="white"/>
<circle id="Ellipse 26_4" cx="34.0591" cy="38.347" r="1.52" fill="#2D2D2D"/>
</g>
</g>
</svg>
