<svg width="68" height="76" viewBox="0 0 68 76" fill="none" xmlns="http://www.w3.org/2000/svg">
<g id="11">
<g id="Group 15">
<g id="Group 5">
<g id="Rectangle 79">
<mask id="path-1-inside-1_2560_5053" fill="white">
<path d="M52.6934 62.9373L52.6934 25.8555L65.8669 18.1513L65.8669 55.2332L52.6934 62.9373Z"/>
</mask>
<path d="M52.6934 62.9373L52.6934 25.8555L65.8669 18.1513L65.8669 55.2332L52.6934 62.9373Z" fill="#F0F0F0"/>
<path d="M65.8669 18.1513L66.3042 17.8955L66.3042 17.3889L65.8669 17.6447L65.8669 18.1513ZM65.8669 55.2332L65.8669 55.7398L66.3043 55.484L66.3043 54.9774L65.8669 55.2332ZM52.6934 26.3621L65.8669 18.658L65.8669 17.6447L52.6934 25.3488L52.6934 26.3621ZM65.4295 18.4071L65.4295 55.4889L66.3043 54.9774L66.3042 17.8955L65.4295 18.4071ZM65.8669 54.7265L52.6934 62.4307L52.6934 63.444L65.8669 55.7398L65.8669 54.7265Z" fill="#969696" mask="url(#path-1-inside-1_2560_5053)"/>
</g>
<g id="Rectangle 80">
<mask id="path-3-inside-2_2560_5053" fill="white">
<path d="M1.9043 18.3787L33.737 1.33514e-05L65.8112 18.2799L33.9784 36.6586L1.9043 18.3787Z"/>
</mask>
<path d="M1.9043 18.3787L33.737 1.33514e-05L65.8112 18.2799L33.9784 36.6586L1.9043 18.3787Z" fill="white"/>
<path d="M33.737 1.33514e-05L34.1758 -0.253321L33.7356 -0.504199L33.2969 -0.250865L33.737 1.33514e-05ZM2.34449 18.6295L34.1772 0.250892L33.2969 -0.250865L1.4641 18.1278L2.34449 18.6295ZM33.2983 0.253347L65.3724 18.5333L66.2499 18.0266L34.1758 -0.253321L33.2983 0.253347Z" fill="#969696" mask="url(#path-3-inside-2_2560_5053)"/>
</g>
<g id="Rectangle 81">
<mask id="path-5-inside-3_2560_5053" fill="white">
<path d="M1.90039 18.2389L1.90039 55.3207L15.2004 63.0988L15.2004 26.017L1.90039 18.2389Z"/>
</mask>
<path d="M1.90039 18.2389L1.90039 55.3207L15.2004 63.0988L15.2004 26.017L1.90039 18.2389Z" fill="white"/>
<path d="M1.90039 18.2389L1.46303 17.9831L1.46303 17.4764L1.90039 17.7322L1.90039 18.2389ZM1.90039 55.3207L1.90039 55.8274L1.46303 55.5716L1.46303 55.0649L1.90039 55.3207ZM2.33776 18.4947L2.33776 55.5765L1.46303 55.0649L1.46303 17.9831L2.33776 18.4947ZM1.90039 54.8141L15.2004 62.5922L15.2004 63.6055L1.90039 55.8274L1.90039 54.8141ZM15.2004 26.5237L1.90039 18.7456L1.90039 17.7322L15.2004 25.5103L15.2004 26.5237Z" fill="#969696" mask="url(#path-5-inside-3_2560_5053)"/>
</g>
</g>
<g id="Group 6">
<g id="Rectangle 79_2">
<mask id="path-7-inside-4_2560_5053" fill="white">
<path d="M33.8965 15.3031L33.8965 52.0978L15.1998 63.0321L15.1998 26.2373L33.8965 15.3031Z"/>
</mask>
<path d="M33.8965 15.3031L33.8965 52.0978L15.1998 63.0321L15.1998 26.2373L33.8965 15.3031Z" fill="#F0F0F0"/>
<path d="M15.1998 63.0321L14.7624 63.2878L14.7624 63.7945L15.1998 63.5387L15.1998 63.0321ZM15.1998 26.2373L15.1998 25.7307L14.7624 25.9864L14.7624 26.4931L15.1998 26.2373ZM33.8965 51.5912L15.1998 62.5254L15.1998 63.5387L33.8965 52.6045L33.8965 51.5912ZM15.6372 62.7763L15.6372 25.9815L14.7624 26.4931L14.7624 63.2878L15.6372 62.7763ZM15.1998 26.744L33.8965 15.8098L33.8965 14.7964L15.1998 25.7307L15.1998 26.744Z" fill="#969696" mask="url(#path-7-inside-4_2560_5053)"/>
</g>
<g id="Rectangle 81_2">
<mask id="path-9-inside-5_2560_5053" fill="white">
<path d="M52.6934 62.974L52.6934 26.2671L33.87 15.2588L33.87 51.9657L52.6934 62.974Z"/>
</mask>
<path d="M52.6934 62.974L52.6934 26.2671L33.87 15.2588L33.87 51.9657L52.6934 62.974Z" fill="white"/>
<path d="M52.6934 62.974L53.1307 63.2297L53.1307 63.7364L52.6934 63.4806L52.6934 62.974ZM52.6934 26.2671L52.6934 25.7604L53.1307 26.0162L53.1307 26.5229L52.6934 26.2671ZM52.256 62.7182L52.256 26.0113L53.1307 26.5229L53.1307 63.2297L52.256 62.7182ZM52.6934 26.7737L33.87 15.7655L33.87 14.7521L52.6934 25.7604L52.6934 26.7737ZM33.87 51.459L52.6934 62.4673L52.6934 63.4806L33.87 52.4723L33.87 51.459Z" fill="#969696" mask="url(#path-9-inside-5_2560_5053)"/>
</g>
</g>
<circle id="Ellipse 26" cx="15.2497" cy="26.3964" r="1.52" transform="rotate(-120 15.2497 26.3964)" fill="#2D2D2D"/>
<circle id="Ellipse 27" cx="2.07589" cy="18.3486" r="1.52" transform="rotate(-120 2.07589 18.3486)" fill="#2D2D2D"/>
<circle id="Ellipse 30" cx="52.7439" cy="26.3964" r="1.52" transform="rotate(-120 52.7439 26.3964)" fill="#2D2D2D"/>
<circle id="Ellipse 31" cx="65.4099" cy="18.3486" r="1.52" transform="rotate(-120 65.4099 18.3486)" fill="#2D2D2D"/>
</g>
<g id="Group 5_2">
<g id="Rectangle 79_3">
<mask id="path-15-inside-6_2560_5053" fill="white">
<path d="M33.873 73.8871L33.873 58.6871L46.994 51.0137L46.994 66.2137L33.873 73.8871Z"/>
</mask>
<path d="M33.873 73.8871L33.873 58.6871L46.994 51.0137L46.994 66.2137L33.873 73.8871Z" fill="#F0F0F0"/>
<path d="M46.994 51.0137L47.4313 50.7579L47.4313 50.2512L46.994 50.507L46.994 51.0137ZM46.994 66.2137L46.994 66.7204L47.4313 66.4646L47.4313 65.9579L46.994 66.2137ZM33.873 59.1938L46.994 51.5204L46.994 50.507L33.873 58.1804L33.873 59.1938ZM46.5566 51.2695L46.5566 66.4695L47.4313 65.9579L47.4313 50.7579L46.5566 51.2695ZM46.994 65.707L33.873 73.3804L33.873 74.3938L46.994 66.7204L46.994 65.707Z" fill="#969696" mask="url(#path-15-inside-6_2560_5053)"/>
</g>
<g id="Rectangle 80_2">
<mask id="path-17-inside-7_2560_5053" fill="white">
<path d="M20.7754 51.1068L33.8238 43.5733L46.9711 51.0663L33.9227 58.5998L20.7754 51.1068Z"/>
</mask>
<path d="M20.7754 51.1068L33.8238 43.5733L46.9711 51.0663L33.9227 58.5998L20.7754 51.1068Z" fill="white"/>
<path d="M33.8238 43.5733L34.2626 43.32L33.8224 43.0691L33.3836 43.3224L33.8238 43.5733ZM21.2156 51.3577L34.264 43.8242L33.3836 43.3224L20.3352 50.8559L21.2156 51.3577ZM33.385 43.8267L46.5323 51.3197L47.4099 50.813L34.2626 43.32L33.385 43.8267Z" fill="#969696" mask="url(#path-17-inside-7_2560_5053)"/>
</g>
<g id="Rectangle 81_3">
<mask id="path-19-inside-8_2560_5053" fill="white">
<path d="M20.7734 51.0495L20.7734 66.2495L33.8944 73.9229L33.8944 58.7229L20.7734 51.0495Z"/>
</mask>
<path d="M20.7734 51.0495L20.7734 66.2495L33.8944 73.9229L33.8944 58.7229L20.7734 51.0495Z" fill="white"/>
<path d="M20.7734 51.0495L20.3361 50.7938L20.3361 50.2871L20.7734 50.5429L20.7734 51.0495ZM20.7734 66.2495L20.7734 66.7562L20.3361 66.5004L20.3361 65.9937L20.7734 66.2495ZM21.2108 51.3053L21.2108 66.5053L20.3361 65.9937L20.3361 50.7938L21.2108 51.3053ZM20.7734 65.7429L33.8944 73.4163L33.8944 74.4296L20.7734 66.7562L20.7734 65.7429ZM33.8944 59.2296L20.7734 51.5562L20.7734 50.5429L33.8944 58.2163L33.8944 59.2296Z" fill="#969696" mask="url(#path-19-inside-8_2560_5053)"/>
</g>
<circle id="Ellipse 26_2" cx="34.0571" cy="58.6137" r="1.52" fill="#2D2D2D"/>
</g>
</g>
</svg>
