<svg width="68" height="76" viewBox="0 0 68 76" fill="none" xmlns="http://www.w3.org/2000/svg">
<g id="3">
<g id="Group 8">
<g id="Group 6">
<g id="Rectangle 79">
<mask id="path-1-inside-1_2560_2143" fill="white">
<path d="M33.873 51.0295L33.873 18.3559L47.5997 10.3282L47.5997 43.0019L33.873 51.0295Z"/>
</mask>
<path d="M33.873 51.0295L33.873 18.3559L47.5997 10.3282L47.5997 43.0019L33.873 51.0295Z" fill="#F0F0F0"/>
<path d="M47.5997 10.3282L48.0371 10.0724L48.0371 9.56577L47.5997 9.82155L47.5997 10.3282ZM47.5997 43.0019L47.5997 43.5086L48.0371 43.2528L48.0371 42.7461L47.5997 43.0019ZM33.873 18.8625L47.5997 10.8349L47.5997 9.82155L33.873 17.8492L33.873 18.8625ZM47.1623 10.584L47.1623 43.2577L48.0371 42.7461L48.0371 10.0724L47.1623 10.584ZM47.5997 42.4952L33.873 50.5229L33.873 51.5362L47.5997 43.5086L47.5997 42.4952Z" fill="#969696" mask="url(#path-1-inside-1_2560_2143)"/>
</g>
<g id="Rectangle 80">
<mask id="path-3-inside-2_2560_2143" fill="white">
<path d="M20.4463 10.2764L33.8574 2.53348L47.6938 10.4192L34.2827 18.1621L20.4463 10.2764Z"/>
</mask>
<path d="M33.8574 2.53348L34.2962 2.28014L33.856 2.02927L33.4172 2.2826L33.8574 2.53348ZM20.8865 10.5272L34.2976 2.78436L33.4172 2.2826L20.0061 10.0255L20.8865 10.5272ZM33.4186 2.78681L47.255 10.6726L48.1326 10.1659L34.2962 2.28014L33.4186 2.78681Z" fill="#969696" mask="url(#path-3-inside-2_2560_2143)"/>
</g>
<g id="Rectangle 81">
<mask id="path-5-inside-3_2560_2143" fill="white">
<path d="M20.3779 10.2339L20.3779 42.9307L34.1217 50.9683L34.1217 18.2715L20.3779 10.2339Z"/>
</mask>
<path d="M20.3779 10.2339L19.9406 9.97811L19.9406 9.47144L20.3779 9.72722L20.3779 10.2339ZM20.3779 42.9307L20.3779 43.4374L19.9406 43.1816L19.9406 42.6749L20.3779 42.9307ZM20.8153 10.4897L20.8153 43.1865L19.9406 42.6749L19.9406 9.97811L20.8153 10.4897ZM20.3779 42.424L34.1217 50.4617L34.1217 51.475L20.3779 43.4374L20.3779 42.424ZM34.1217 18.7782L20.3779 10.7406L20.3779 9.72722L34.1217 17.7648L34.1217 18.7782Z" fill="#969696" mask="url(#path-5-inside-3_2560_2143)"/>
</g>
<circle id="Ellipse 26" cx="34.0581" cy="18.2402" r="1.52" fill="#2D2D2D"/>
</g>
<g id="Group 4">
<g id="Rectangle 79_2">
<mask id="path-8-inside-4_2560_2143" fill="white">
<path d="M14.6201 62.1763L14.6201 29.5026L28.3468 21.4749L28.3468 54.1486L14.6201 62.1763Z"/>
</mask>
<path d="M14.6201 62.1763L14.6201 29.5026L28.3468 21.4749L28.3468 54.1486L14.6201 62.1763Z" fill="#F0F0F0"/>
<path d="M28.3468 21.4749L28.7841 21.2192L28.7841 20.7125L28.3468 20.9683L28.3468 21.4749ZM28.3468 54.1486L28.3468 54.6553L28.7841 54.3995L28.7841 53.8929L28.3468 54.1486ZM14.6201 30.0093L28.3468 21.9816L28.3468 20.9683L14.6201 28.9959L14.6201 30.0093ZM27.9094 21.7307L27.9094 54.4044L28.7841 53.8929L28.7841 21.2192L27.9094 21.7307ZM28.3468 53.642L14.6201 61.6696L14.6201 62.6829L28.3468 54.6553L28.3468 53.642Z" fill="#969696" mask="url(#path-8-inside-4_2560_2143)"/>
</g>
<g id="Rectangle 80_2">
<mask id="path-10-inside-5_2560_2143" fill="white">
<path d="M1.01367 21.5269L14.6045 13.6802L28.3958 21.5402L14.8049 29.3869L1.01367 21.5269Z"/>
</mask>
<path d="M1.01367 21.5269L14.6045 13.6802L28.3958 21.5402L14.8049 29.3869L1.01367 21.5269Z" fill="white"/>
<path d="M14.6045 13.6802L15.0433 13.4268L14.6031 13.176L14.1643 13.4293L14.6045 13.6802ZM1.45387 21.7777L15.0447 13.9311L14.1643 13.4293L0.573478 21.276L1.45387 21.7777ZM14.1657 13.9335L27.957 21.7935L28.8345 21.2868L15.0433 13.4268L14.1657 13.9335Z" fill="#969696" mask="url(#path-10-inside-5_2560_2143)"/>
</g>
<g id="Rectangle 81_2">
<mask id="path-12-inside-6_2560_2143" fill="white">
<path d="M1.125 21.3806L1.125 54.0774L14.8687 62.1151L14.8687 29.4182L1.125 21.3806Z"/>
</mask>
<path d="M1.125 21.3806L0.687636 21.1248L0.687635 20.6182L1.125 20.8739L1.125 21.3806ZM1.125 54.0774L1.125 54.5841L0.687637 54.3283L0.687637 53.8216L1.125 54.0774ZM1.56236 21.6364L1.56237 54.3332L0.687637 53.8216L0.687636 21.1248L1.56236 21.6364ZM1.125 53.5708L14.8687 61.6084L14.8687 62.6217L1.125 54.5841L1.125 53.5708ZM14.8687 29.9249L1.125 21.8873L1.125 20.8739L14.8687 28.9116L14.8687 29.9249Z" fill="#969696" mask="url(#path-12-inside-6_2560_2143)"/>
</g>
<circle id="Ellipse 26_2" cx="14.8052" cy="29.3869" r="1.52" fill="#2D2D2D"/>
</g>
<g id="Group 7">
<g id="Rectangle 79_3">
<mask id="path-15-inside-7_2560_2143" fill="white">
<path d="M53.126 62.1763L53.126 29.5026L66.8526 21.4749L66.8526 54.1486L53.126 62.1763Z"/>
</mask>
<path d="M53.126 62.1763L53.126 29.5026L66.8526 21.4749L66.8526 54.1486L53.126 62.1763Z" fill="#F0F0F0"/>
<path d="M66.8526 21.4749L67.29 21.2192L67.29 20.7125L66.8526 20.9683L66.8526 21.4749ZM66.8526 54.1486L66.8526 54.6553L67.29 54.3995L67.29 53.8929L66.8526 54.1486ZM53.126 30.0093L66.8526 21.9816L66.8526 20.9683L53.126 28.9959L53.126 30.0093ZM66.4153 21.7307L66.4153 54.4044L67.29 53.8929L67.29 21.2192L66.4153 21.7307ZM66.8526 53.642L53.126 61.6696L53.126 62.6829L66.8526 54.6553L66.8526 53.642Z" fill="#969696" mask="url(#path-15-inside-7_2560_2143)"/>
</g>
<g id="Rectangle 80_3">
<mask id="path-17-inside-8_2560_2143" fill="white">
<path d="M39.5195 21.5269L53.1104 13.6802L66.9016 21.5402L53.3108 29.3869L39.5195 21.5269Z"/>
</mask>
<path d="M39.5195 21.5269L53.1104 13.6802L66.9016 21.5402L53.3108 29.3869L39.5195 21.5269Z" fill="white"/>
<path d="M53.1104 13.6802L53.5492 13.4268L53.109 13.176L52.6702 13.4293L53.1104 13.6802ZM39.9597 21.7777L53.5506 13.9311L52.6702 13.4293L39.0793 21.276L39.9597 21.7777ZM52.6716 13.9335L66.4628 21.7935L67.3404 21.2868L53.5492 13.4268L52.6716 13.9335Z" fill="#969696" mask="url(#path-17-inside-8_2560_2143)"/>
</g>
<g id="Rectangle 81_3">
<mask id="path-19-inside-9_2560_2143" fill="white">
<path d="M39.6309 21.3806L39.6309 54.0774L53.3746 62.1151L53.3746 29.4182L39.6309 21.3806Z"/>
</mask>
<path d="M39.6309 21.3806L39.6309 54.0774L53.3746 62.1151L53.3746 29.4182L39.6309 21.3806Z" fill="white"/>
<path d="M39.6309 21.3806L39.1935 21.1248L39.1935 20.6182L39.6309 20.8739L39.6309 21.3806ZM39.6309 54.0774L39.6309 54.5841L39.1935 54.3283L39.1935 53.8216L39.6309 54.0774ZM40.0682 21.6364L40.0682 54.3332L39.1935 53.8216L39.1935 21.1248L40.0682 21.6364ZM39.6309 53.5708L53.3746 61.6084L53.3746 62.6217L39.6309 54.5841L39.6309 53.5708ZM53.3746 29.9249L39.6309 21.8873L39.6309 20.8739L53.3746 28.9116L53.3746 29.9249Z" fill="#969696" mask="url(#path-19-inside-9_2560_2143)"/>
</g>
<circle id="Ellipse 26_3" cx="53.31" cy="29.3869" r="1.52" fill="#2D2D2D"/>
</g>
<g id="Group 5">
<g id="Rectangle 79_4">
<mask id="path-22-inside-10_2560_2143" fill="white">
<path d="M33.873 73.323L33.873 40.6493L47.5997 32.6217L47.5997 65.2954L33.873 73.323Z"/>
</mask>
<path d="M33.873 73.323L33.873 40.6493L47.5997 32.6217L47.5997 65.2954L33.873 73.323Z" fill="#F0F0F0"/>
<path d="M47.5997 32.6217L48.0371 32.3659L48.0371 31.8592L47.5997 32.115L47.5997 32.6217ZM47.5997 65.2954L47.5997 65.802L48.0371 65.5463L48.0371 65.0396L47.5997 65.2954ZM33.873 41.156L47.5997 33.1283L47.5997 32.115L33.873 40.1426L33.873 41.156ZM47.1623 32.8775L47.1623 65.5511L48.0371 65.0396L48.0371 32.3659L47.1623 32.8775ZM47.5997 64.7887L33.873 72.8163L33.873 73.8297L47.5997 65.802L47.5997 64.7887Z" fill="#969696" mask="url(#path-22-inside-10_2560_2143)"/>
</g>
<g id="Rectangle 80_4">
<mask id="path-24-inside-11_2560_2143" fill="white">
<path d="M20.2666 32.6736L33.8574 24.8269L47.6487 32.6869L34.0578 40.5336L20.2666 32.6736Z"/>
</mask>
<path d="M20.2666 32.6736L33.8574 24.8269L47.6487 32.6869L34.0578 40.5336L20.2666 32.6736Z" fill="white"/>
<path d="M33.8574 24.8269L34.2962 24.5736L33.856 24.3227L33.4173 24.576L33.8574 24.8269ZM20.7068 32.9245L34.2976 25.0778L33.4173 24.576L19.8264 32.4227L20.7068 32.9245ZM33.4187 25.0802L47.2099 32.9402L48.0875 32.4336L34.2962 24.5736L33.4187 25.0802Z" fill="#969696" mask="url(#path-24-inside-11_2560_2143)"/>
</g>
<g id="Rectangle 81_4">
<mask id="path-26-inside-12_2560_2143" fill="white">
<path d="M20.3779 32.5273L20.3779 65.2242L34.1217 73.2618L34.1217 40.565L20.3779 32.5273Z"/>
</mask>
<path d="M20.3779 32.5273L20.3779 65.2242L34.1217 73.2618L34.1217 40.565L20.3779 32.5273Z" fill="white"/>
<path d="M20.3779 32.5273L19.9406 32.2716L19.9406 31.7649L20.3779 32.0207L20.3779 32.5273ZM20.3779 65.2242L20.3779 65.7308L19.9406 65.475L19.9406 64.9684L20.3779 65.2242ZM20.8153 32.7831L20.8153 65.4799L19.9406 64.9684L19.9406 32.2716L20.8153 32.7831ZM20.3779 64.7175L34.1217 72.7551L34.1217 73.7684L20.3779 65.7308L20.3779 64.7175ZM34.1217 41.0716L20.3779 33.034L20.3779 32.0207L34.1217 40.0583L34.1217 41.0716Z" fill="#969696" mask="url(#path-26-inside-12_2560_2143)"/>
</g>
<circle id="Ellipse 26_4" cx="34.0581" cy="40.5337" r="1.52" fill="#2D2D2D"/>
</g>
</g>
</g>
</svg>
