<svg width="68" height="76" viewBox="0 0 68 76" fill="none" xmlns="http://www.w3.org/2000/svg">
<g id="3">
<g id="Group 8">
<g id="Group 6">
<g id="Rectangle 79">
<mask id="path-1-inside-1_2560_1915" fill="white">
<path d="M44.832 31.6443L16.5358 47.9811L2.72033 40.1073L31.0166 23.7705L44.832 31.6443Z"/>
</mask>
<path d="M44.832 31.6443L16.5358 47.9811L2.72033 40.1073L31.0166 23.7705L44.832 31.6443Z" fill="white"/>
<path d="M2.72033 40.1073L2.28014 39.8565L1.84135 40.1098L2.28154 40.3607L2.72033 40.1073ZM31.0166 23.7705L31.4554 23.5171L31.0152 23.2663L30.5764 23.5196L31.0166 23.7705ZM16.9746 47.7278L3.15912 39.854L2.28154 40.3607L16.097 48.2345L16.9746 47.7278ZM3.16052 40.3582L31.4568 24.0214L30.5764 23.5196L2.28014 39.8565L3.16052 40.3582ZM30.5778 24.0238L44.3932 31.8976L45.2708 31.391L31.4554 23.5171L30.5778 24.0238Z" fill="#969696" mask="url(#path-1-inside-1_2560_1915)"/>
</g>
<g id="Rectangle 80">
<mask id="path-3-inside-2_2560_1915" fill="white">
<path d="M16.252 63.6482L2.84087 55.9053L2.75193 39.9797L16.163 47.7226L16.252 63.6482Z"/>
</mask>
<path d="M2.84087 55.9053L2.40209 55.652L2.40492 56.1586L2.8437 56.412L2.84087 55.9053ZM16.2491 63.1415L2.83804 55.3986L2.8437 56.412L16.2548 64.1549L16.2491 63.1415ZM3.27966 56.1586L3.19071 40.233L2.31314 39.7264L2.40209 55.652L3.27966 56.1586Z" fill="#969696" mask="url(#path-3-inside-2_2560_1915)"/>
</g>
<g id="Rectangle 81">
<mask id="path-5-inside-3_2560_1915" fill="white">
<path d="M16.25 63.729L44.5663 47.3806L44.6552 31.4594L16.3389 47.8078L16.25 63.729Z"/>
</mask>
<path d="M16.25 63.729L44.5663 47.3806L44.6552 31.4594L16.3389 47.8078L16.25 63.729Z" fill="#F0F0F0"/>
<path d="M16.25 63.729L16.2472 64.2357L15.8084 64.489L15.8112 63.9823L16.25 63.729ZM44.5663 47.3806L45.0051 47.1273L45.0022 47.6339L44.5634 47.8873L44.5663 47.3806ZM16.2528 63.2223L44.5691 46.8739L44.5634 47.8873L16.2472 64.2357L16.2528 63.2223ZM44.1275 47.6339L44.2164 31.7127L45.094 31.206L45.0051 47.1273L44.1275 47.6339ZM16.7777 47.5544L16.6888 63.4757L15.8112 63.9823L15.9001 48.0611L16.7777 47.5544Z" fill="#969696" mask="url(#path-5-inside-3_2560_1915)"/>
</g>
<circle id="Ellipse 26" cx="16.3435" cy="47.8785" r="1.52" transform="rotate(-120 16.3435 47.8785)" fill="#2D2D2D"/>
</g>
<g id="Group 4">
<g id="Rectangle 79_2">
<mask id="path-8-inside-4_2560_1915" fill="white">
<path d="M64.1133 42.7451L35.817 59.082L22.0016 51.2082L50.2978 34.8713L64.1133 42.7451Z"/>
</mask>
<path d="M64.1133 42.7451L35.817 59.082L22.0016 51.2082L50.2978 34.8713L64.1133 42.7451Z" fill="white"/>
<path d="M22.0016 51.2082L21.5614 50.9573L21.1226 51.2106L21.5628 51.4615L22.0016 51.2082ZM50.2978 34.8713L50.7366 34.618L50.2964 34.3671L49.8576 34.6204L50.2978 34.8713ZM36.2558 58.8286L22.4404 50.9548L21.5628 51.4615L35.3783 59.3353L36.2558 58.8286ZM22.4418 51.459L50.738 35.1222L49.8576 34.6204L21.5614 50.9573L22.4418 51.459ZM49.859 35.1246L63.6745 42.9985L64.5521 42.4918L50.7366 34.618L49.859 35.1246Z" fill="#969696" mask="url(#path-8-inside-4_2560_1915)"/>
</g>
<g id="Rectangle 80_2">
<mask id="path-10-inside-5_2560_1915" fill="white">
<path d="M35.7139 74.8528L22.123 67.0061L22.0344 51.1325L35.6252 58.9792L35.7139 74.8528Z"/>
</mask>
<path d="M35.7139 74.8528L22.123 67.0061L22.0344 51.1325L35.6252 58.9792L35.7139 74.8528Z" fill="white"/>
<path d="M22.123 67.0061L21.6842 66.7528L21.6871 67.2594L22.1258 67.5128L22.123 67.0061ZM35.711 74.3461L22.1202 66.4994L22.1258 67.5128L35.7167 75.3594L35.711 74.3461ZM22.5618 67.2594L22.4731 51.3859L21.5956 50.8792L21.6842 66.7528L22.5618 67.2594Z" fill="#969696" mask="url(#path-10-inside-5_2560_1915)"/>
</g>
<g id="Rectangle 81_2">
<mask id="path-12-inside-6_2560_1915" fill="white">
<path d="M35.5303 74.8296L63.8465 58.4812L63.9355 42.5599L35.6192 58.9084L35.5303 74.8296Z"/>
</mask>
<path d="M35.5303 74.8296L63.8465 58.4812L63.9355 42.5599L35.6192 58.9084L35.5303 74.8296Z" fill="#F0F0F0"/>
<path d="M35.5303 74.8296L35.5274 75.3362L35.0887 75.5896L35.0915 75.0829L35.5303 74.8296ZM63.8465 58.4812L64.2853 58.2278L64.2825 58.7345L63.8437 58.9878L63.8465 58.4812ZM35.5331 74.3229L63.8494 57.9745L63.8437 58.9878L35.5274 75.3362L35.5331 74.3229ZM63.4078 58.7345L63.4967 42.8133L64.3743 42.3066L64.2853 58.2278L63.4078 58.7345ZM36.058 58.655L35.9691 74.5763L35.0915 75.0829L35.1804 59.1617L36.058 58.655Z" fill="#969696" mask="url(#path-12-inside-6_2560_1915)"/>
</g>
<circle id="Ellipse 26_2" cx="35.6247" cy="58.9791" r="1.52" transform="rotate(-120 35.6247 58.9791)" fill="#2D2D2D"/>
</g>
<g id="Group 7">
<g id="Rectangle 79_3">
<mask id="path-15-inside-7_2560_1915" fill="white">
<path d="M44.8594 9.39722L16.5631 25.7341L2.74767 17.8603L31.0439 1.52341L44.8594 9.39722Z"/>
</mask>
<path d="M44.8594 9.39722L16.5631 25.7341L2.74767 17.8603L31.0439 1.52341L44.8594 9.39722Z" fill="white"/>
<path d="M2.74767 17.8603L2.30748 17.6094L1.86869 17.8627L2.30889 18.1136L2.74767 17.8603ZM31.0439 1.52341L31.4827 1.27008L31.0425 1.0192L30.6037 1.27253L31.0439 1.52341ZM17.0019 25.4807L3.18646 17.6069L2.30889 18.1136L16.1243 25.9874L17.0019 25.4807ZM3.18787 18.1111L31.4841 1.77429L30.6037 1.27253L2.30748 17.6094L3.18787 18.1111ZM30.6051 1.77674L44.4206 9.65055L45.2982 9.14388L31.4827 1.27008L30.6051 1.77674Z" fill="#969696" mask="url(#path-15-inside-7_2560_1915)"/>
</g>
<g id="Rectangle 80_3">
<mask id="path-17-inside-8_2560_1915" fill="white">
<path d="M16.459 41.5049L2.86814 33.6582L2.77948 17.7846L16.3703 25.6313L16.459 41.5049Z"/>
</mask>
<path d="M16.459 41.5049L2.86814 33.6582L2.77948 17.7846L16.3703 25.6313L16.459 41.5049Z" fill="white"/>
<path d="M2.86814 33.6582L2.42935 33.4049L2.43218 33.9115L2.87097 34.1649L2.86814 33.6582ZM16.4562 40.9982L2.86531 33.1515L2.87097 34.1649L16.4618 42.0115L16.4562 40.9982ZM3.30692 33.9115L3.21827 18.038L2.34069 17.5313L2.42935 33.4049L3.30692 33.9115Z" fill="#969696" mask="url(#path-17-inside-8_2560_1915)"/>
</g>
<g id="Rectangle 81_3">
<mask id="path-19-inside-9_2560_1915" fill="white">
<path d="M16.2764 41.4817L44.5926 25.1333L44.6816 9.21204L16.3653 25.5605L16.2764 41.4817Z"/>
</mask>
<path d="M16.2764 41.4817L44.5926 25.1333L44.6816 9.21204L16.3653 25.5605L16.2764 41.4817Z" fill="#F0F0F0"/>
<path d="M16.2764 41.4817L16.2735 41.9883L15.8348 42.2417L15.8376 41.735L16.2764 41.4817ZM44.5926 25.1333L45.0314 24.8799L45.0286 25.3866L44.5898 25.6399L44.5926 25.1333ZM16.2792 40.975L44.5955 24.6266L44.5898 25.6399L16.2735 41.9883L16.2792 40.975ZM44.1539 25.3866L44.2428 9.46538L45.1203 8.95871L45.0314 24.8799L44.1539 25.3866ZM16.8041 25.3071L16.7152 41.2284L15.8376 41.735L15.9265 25.8138L16.8041 25.3071Z" fill="#969696" mask="url(#path-19-inside-9_2560_1915)"/>
</g>
<circle id="Ellipse 26_3" cx="16.3708" cy="25.6312" r="1.52" transform="rotate(-120 16.3708 25.6312)" fill="#2D2D2D"/>
</g>
<g id="Group 5">
<g id="Rectangle 79_4">
<mask id="path-22-inside-10_2560_1915" fill="white">
<path d="M64.1396 20.4976L35.8434 36.8344L22.0279 28.9606L50.3242 12.6238L64.1396 20.4976Z"/>
</mask>
<path d="M64.1396 20.4976L35.8434 36.8344L22.0279 28.9606L50.3242 12.6238L64.1396 20.4976Z" fill="white"/>
<path d="M22.0279 28.9606L21.5878 28.7097L21.149 28.9631L21.5892 29.2139L22.0279 28.9606ZM50.3242 12.6238L50.763 12.3704L50.3228 12.1195L49.884 12.3729L50.3242 12.6238ZM36.2822 36.5811L22.4667 28.7073L21.5892 29.2139L35.4046 37.0877L36.2822 36.5811ZM22.4681 29.2115L50.7644 12.8746L49.884 12.3729L21.5878 28.7097L22.4681 29.2115ZM49.8854 12.8771L63.7009 20.7509L64.5784 20.2442L50.763 12.3704L49.8854 12.8771Z" fill="#969696" mask="url(#path-22-inside-10_2560_1915)"/>
</g>
<g id="Rectangle 80_4">
<mask id="path-24-inside-11_2560_1915" fill="white">
<path d="M35.7393 52.6055L22.1484 44.7588L22.0598 28.8852L35.6506 36.7319L35.7393 52.6055Z"/>
</mask>
<path d="M35.7393 52.6055L22.1484 44.7588L22.0598 28.8852L35.6506 36.7319L35.7393 52.6055Z" fill="white"/>
<path d="M22.1484 44.7588L21.7096 44.5055L21.7125 45.0121L22.1512 45.2654L22.1484 44.7588ZM35.7364 52.0988L22.1456 44.2521L22.1512 45.2654L35.7421 53.1121L35.7364 52.0988ZM22.5872 45.0121L22.4985 29.1386L21.621 28.6319L21.7096 44.5055L22.5872 45.0121Z" fill="#969696" mask="url(#path-24-inside-11_2560_1915)"/>
</g>
<g id="Rectangle 81_4">
<mask id="path-26-inside-12_2560_1915" fill="white">
<path d="M35.5566 52.5823L63.8729 36.2339L63.9618 20.3126L35.6456 36.661L35.5566 52.5823Z"/>
</mask>
<path d="M35.5566 52.5823L63.8729 36.2339L63.9618 20.3126L35.6456 36.661L35.5566 52.5823Z" fill="#F0F0F0"/>
<path d="M35.5566 52.5823L35.5538 53.0889L35.115 53.3423L35.1179 52.8356L35.5566 52.5823ZM63.8729 36.2339L64.3117 35.9805L64.3089 36.4872L63.8701 36.7405L63.8729 36.2339ZM35.5595 52.0756L63.8757 35.7272L63.8701 36.7405L35.5538 53.0889L35.5595 52.0756ZM63.4341 36.4872L63.523 20.566L64.4006 20.0593L64.3117 35.9805L63.4341 36.4872ZM36.0843 36.4077L35.9954 52.3289L35.1179 52.8356L35.2068 36.9144L36.0843 36.4077Z" fill="#969696" mask="url(#path-26-inside-12_2560_1915)"/>
</g>
<circle id="Ellipse 26_4" cx="35.6511" cy="36.7317" r="1.52" transform="rotate(-120 35.6511 36.7317)" fill="#2D2D2D"/>
</g>
</g>
</g>
</svg>
