<svg width="68" height="76" viewBox="0 0 68 76" fill="none" xmlns="http://www.w3.org/2000/svg">
<g id="5">
<g id="Group 9">
<g id="Group 6">
<g id="Rectangle 80">
<mask id="path-1-inside-1_2560_1969" fill="white">
<path d="M33.9219 74.5574L4.03192 57.3004L3.94376 41.5165L33.8337 58.7734L33.9219 74.5574Z"/>
</mask>
<path d="M33.9219 74.5574L4.03192 57.3004L3.94376 41.5165L33.8337 58.7734L33.9219 74.5574Z" fill="white"/>
<path d="M4.03192 57.3004L3.59313 57.0471L3.59596 57.5537L4.03475 57.8071L4.03192 57.3004ZM33.919 74.0507L4.02909 56.7937L4.03475 57.8071L33.9247 75.064L33.919 74.0507ZM4.4707 57.5537L4.38255 41.7698L3.50497 41.2631L3.59313 57.0471L4.4707 57.5537Z" fill="#969696" mask="url(#path-1-inside-1_2560_1969)"/>
</g>
<g id="Rectangle 81">
<mask id="path-3-inside-2_2560_1969" fill="white">
<path d="M33.7393 74.5342L63.68 57.2479L63.7674 41.599L33.8267 58.8853L33.7393 74.5342Z"/>
</mask>
<path d="M33.7393 74.5342L63.68 57.2479L63.7674 41.599L33.8267 58.8853L33.7393 74.5342Z" fill="#F0F0F0"/>
<path d="M33.7393 74.5342L33.7364 75.0408L33.2976 75.2942L33.3005 74.7875L33.7393 74.5342ZM63.68 57.2479L64.1188 56.9945L64.116 57.5012L63.6772 57.7545L63.68 57.2479ZM33.7421 74.0275L63.6828 56.7412L63.6772 57.7545L33.7364 75.0408L33.7421 74.0275ZM63.2412 57.5012L63.3286 41.8524L64.2062 41.3457L64.1188 56.9945L63.2412 57.5012ZM34.2654 58.632L34.178 74.2808L33.3005 74.7875L33.3879 59.1387L34.2654 58.632Z" fill="#969696" mask="url(#path-3-inside-2_2560_1969)"/>
</g>
<g id="Rectangle 79">
<mask id="path-5-inside-3_2560_1969" fill="white">
<path d="M63.7598 41.6194L34.0254 58.7865L3.88939 41.6112L33.6238 24.4441L63.7598 41.6194Z"/>
</mask>
<path d="M63.7598 41.6194L34.0254 58.7865L3.88939 41.6112L33.6238 24.4441L63.7598 41.6194Z" fill="white"/>
<path d="M3.88939 41.6112L3.44919 41.3603L3.0104 41.6137L3.4506 41.8646L3.88939 41.6112ZM33.6238 24.4441L34.0626 24.1907L33.6224 23.9399L33.1836 24.1932L33.6238 24.4441ZM34.4642 58.5332L4.32818 41.3579L3.4506 41.8646L33.5866 59.0399L34.4642 58.5332ZM4.32958 41.8621L34.064 24.6949L33.1836 24.1932L3.44919 41.3603L4.32958 41.8621ZM33.185 24.6974L63.321 41.8727L64.1986 41.3661L34.0626 24.1907L33.185 24.6974Z" fill="#969696" mask="url(#path-5-inside-3_2560_1969)"/>
</g>
<circle id="Ellipse 26" cx="33.8327" cy="58.6837" r="1.52" transform="rotate(-120 33.8327 58.6837)" fill="#2D2D2D"/>
</g>
<g id="Group 5">
<g id="Rectangle 80_2">
<mask id="path-8-inside-4_2560_1969" fill="white">
<path d="M33.9219 51.8315L4.03192 34.5746L3.94376 18.7906L33.8337 36.0476L33.9219 51.8315Z"/>
</mask>
<path d="M33.9219 51.8315L4.03192 34.5746L3.94376 18.7906L33.8337 36.0476L33.9219 51.8315Z" fill="white"/>
<path d="M4.03192 34.5746L3.59313 34.3212L3.59596 34.8279L4.03475 35.0812L4.03192 34.5746ZM33.919 51.3249L4.02909 34.0679L4.03475 35.0812L33.9247 52.3382L33.919 51.3249ZM4.4707 34.8279L4.38255 19.044L3.50497 18.5373L3.59313 34.3212L4.4707 34.8279Z" fill="#969696" mask="url(#path-8-inside-4_2560_1969)"/>
</g>
<g id="Rectangle 81_2">
<mask id="path-10-inside-5_2560_1969" fill="white">
<path d="M33.7393 51.8083L63.68 34.522L63.7674 18.8732L33.8267 36.1595L33.7393 51.8083Z"/>
</mask>
<path d="M33.7393 51.8083L63.68 34.522L63.7674 18.8732L33.8267 36.1595L33.7393 51.8083Z" fill="#F0F0F0"/>
<path d="M33.7393 51.8083L33.7364 52.315L33.2976 52.5683L33.3005 52.0617L33.7393 51.8083ZM63.68 34.522L64.1188 34.2687L64.116 34.7754L63.6772 35.0287L63.68 34.522ZM33.7421 51.3017L63.6828 34.0154L63.6772 35.0287L33.7364 52.315L33.7421 51.3017ZM63.2412 34.7754L63.3286 19.1265L64.2062 18.6199L64.1188 34.2687L63.2412 34.7754ZM34.2654 35.9062L34.178 51.555L33.3005 52.0617L33.3879 36.4128L34.2654 35.9062Z" fill="#969696" mask="url(#path-10-inside-5_2560_1969)"/>
</g>
<g id="Rectangle 79_2">
<mask id="path-12-inside-6_2560_1969" fill="white">
<path d="M63.7598 18.8936L34.0254 36.0607L3.88939 18.8854L33.6238 1.71823L63.7598 18.8936Z"/>
</mask>
<path d="M63.7598 18.8936L34.0254 36.0607L3.88939 18.8854L33.6238 1.71823L63.7598 18.8936Z" fill="white"/>
<path d="M3.88939 18.8854L3.44919 18.6345L3.0104 18.8879L3.4506 19.1387L3.88939 18.8854ZM33.6238 1.71823L34.0626 1.4649L33.6224 1.21402L33.1836 1.46736L33.6238 1.71823ZM34.4642 35.8074L4.32818 18.6321L3.4506 19.1387L33.5866 36.3141L34.4642 35.8074ZM4.32958 19.1363L34.064 1.96911L33.1836 1.46736L3.44919 18.6345L4.32958 19.1363ZM33.185 1.97157L63.321 19.1469L64.1986 18.6402L34.0626 1.4649L33.185 1.97157Z" fill="#969696" mask="url(#path-12-inside-6_2560_1969)"/>
</g>
<circle id="Ellipse 26_2" cx="33.8327" cy="35.9578" r="1.52" transform="rotate(-120 33.8327 35.9578)" fill="#2D2D2D"/>
</g>
</g>
</g>
</svg>
