<svg width="68" height="76" viewBox="0 0 68 76" fill="none" xmlns="http://www.w3.org/2000/svg">
<g id="6">
<g id="Group 15">
<g id="Group 5">
<g id="Rectangle 79">
<mask id="path-1-inside-1_2560_1981" fill="white">
<path d="M33.8564 73.9531L33.8564 36.8713L65.8662 18.1513L65.8662 55.2331L33.8564 73.9531Z"/>
</mask>
<path d="M33.8564 73.9531L33.8564 36.8713L65.8662 18.1513L65.8662 55.2331L33.8564 73.9531Z" fill="#F0F0F0"/>
<path d="M65.8662 18.1513L66.3036 17.8955L66.3036 17.3889L65.8662 17.6446L65.8662 18.1513ZM65.8662 55.2331L65.8662 55.7398L66.3036 55.484L66.3036 54.9774L65.8662 55.2331ZM33.8564 37.378L65.8662 18.658L65.8662 17.6446L33.8564 36.3646L33.8564 37.378ZM65.4288 18.4071L65.4288 55.4889L66.3036 54.9774L66.3036 17.8955L65.4288 18.4071ZM65.8662 54.7265L33.8564 73.4465L33.8564 74.4598L65.8662 55.7398L65.8662 54.7265Z" fill="#969696" mask="url(#path-1-inside-1_2560_1981)"/>
</g>
<g id="Rectangle 80">
<mask id="path-3-inside-2_2560_1981" fill="white">
<path d="M1.90332 18.3787L33.7361 1.33514e-05L65.8102 18.2799L33.9774 36.6586L1.90332 18.3787Z"/>
</mask>
<path d="M1.90332 18.3787L33.7361 1.33514e-05L65.8102 18.2799L33.9774 36.6586L1.90332 18.3787Z" fill="white"/>
<path d="M33.7361 1.33514e-05L34.1749 -0.253321L33.7347 -0.504199L33.2959 -0.250865L33.7361 1.33514e-05ZM2.34351 18.6295L34.1763 0.250892L33.2959 -0.250865L1.46313 18.1278L2.34351 18.6295ZM33.2973 0.253347L65.3714 18.5333L66.249 18.0266L34.1749 -0.253321L33.2973 0.253347Z" fill="#969696" mask="url(#path-3-inside-2_2560_1981)"/>
</g>
<g id="Rectangle 81">
<mask id="path-5-inside-3_2560_1981" fill="white">
<path d="M1.89941 18.239L1.89942 55.3209L33.9092 74.0408L33.9092 36.959L1.89941 18.239Z"/>
</mask>
<path d="M1.89941 18.239L1.89942 55.3209L33.9092 74.0408L33.9092 36.959L1.89941 18.239Z" fill="white"/>
<path d="M1.89941 18.239L1.46205 17.9832L1.46205 17.4766L1.89941 17.7323L1.89941 18.239ZM1.89942 55.3209L1.89942 55.8275L1.46205 55.5717L1.46205 55.0651L1.89942 55.3209ZM2.33678 18.4948L2.33678 55.5766L1.46205 55.0651L1.46205 17.9832L2.33678 18.4948ZM1.89942 54.8142L33.9092 73.5342L33.9092 74.5475L1.89942 55.8275L1.89942 54.8142ZM33.9092 37.4657L1.89941 18.7457L1.89941 17.7323L33.9092 36.4523L33.9092 37.4657Z" fill="#969696" mask="url(#path-5-inside-3_2560_1981)"/>
</g>
</g>
<g id="Group 6">
<g id="Rectangle 79_2">
<mask id="path-7-inside-4_2560_1981" fill="white">
<path d="M33.8965 18.343L33.8965 37.0956L17.7089 46.5624L17.7089 27.8099L33.8965 18.343Z"/>
</mask>
<path d="M33.8965 18.343L33.8965 37.0956L17.7089 46.5624L17.7089 27.8099L33.8965 18.343Z" fill="#F0F0F0"/>
<path d="M17.7089 27.8099L17.7089 27.3032L17.2715 27.559L17.2715 28.0656L17.7089 27.8099ZM18.1463 46.3067L18.1463 27.5541L17.2715 28.0656L17.2715 46.8182L18.1463 46.3067ZM17.7089 28.3165L33.8965 18.8497L33.8965 17.8364L17.7089 27.3032L17.7089 28.3165Z" fill="#969696" mask="url(#path-7-inside-4_2560_1981)"/>
</g>
<g id="Rectangle 80_2">
<mask id="path-9-inside-5_2560_1981" fill="white">
<path d="M50.2129 46.3564L33.9572 55.7417L17.6559 46.4511L33.9115 37.0659L50.2129 46.3564Z"/>
</mask>
<path d="M50.2129 46.3564L33.9572 55.7417L17.6559 46.4511L33.9115 37.0659L50.2129 46.3564Z" fill="white"/>
<path d="M33.9572 55.7417L33.5184 55.995L33.9586 56.2459L34.3974 55.9925L33.9572 55.7417ZM49.7727 46.1056L33.517 55.4908L34.3974 55.9925L50.6531 46.6073L49.7727 46.1056ZM34.396 55.4883L18.0947 46.1977L17.2171 46.7044L33.5184 55.995L34.396 55.4883Z" fill="#969696" mask="url(#path-9-inside-5_2560_1981)"/>
</g>
<g id="Rectangle 81_2">
<mask id="path-11-inside-6_2560_1981" fill="white">
<path d="M50.0576 46.5181L50.0576 27.7655L33.87 18.2987L33.87 37.0512L50.0576 46.5181Z"/>
</mask>
<path d="M50.0576 46.5181L50.0576 27.7655L33.87 18.2987L33.87 37.0512L50.0576 46.5181Z" fill="white"/>
<path d="M50.0576 27.7655L50.0576 27.2588L50.495 27.5146L50.495 28.0213L50.0576 27.7655ZM49.6203 46.2623L49.6203 27.5097L50.495 28.0213L50.495 46.7738L49.6203 46.2623ZM50.0576 28.2722L33.87 18.8053L33.87 17.792L50.0576 27.2588L50.0576 28.2722Z" fill="#969696" mask="url(#path-11-inside-6_2560_1981)"/>
</g>
</g>
<circle id="Ellipse 26" cx="17.7829" cy="27.9752" r="1.52" transform="rotate(-120 17.7829 27.9752)" fill="#2D2D2D"/>
<circle id="Ellipse 27" cx="2.07589" cy="18.3487" r="1.52" transform="rotate(-120 2.07589 18.3487)" fill="#2D2D2D"/>
<circle id="Ellipse 28" cx="33.9968" cy="55.3353" r="1.52" transform="rotate(-120 33.9968 55.3353)" fill="#2D2D2D"/>
<circle id="Ellipse 30" cx="49.7028" cy="27.9752" r="1.52" transform="rotate(-120 49.7028 27.9752)" fill="#2D2D2D"/>
<circle id="Ellipse 31" cx="65.4099" cy="18.3487" r="1.52" transform="rotate(-120 65.4099 18.3487)" fill="#2D2D2D"/>
<circle id="Ellipse 29" cx="33.9968" cy="74.0818" r="1.52" transform="rotate(-120 33.9968 74.0818)" fill="#2D2D2D"/>
</g>
</g>
</svg>
