<svg width="68" height="76" viewBox="0 0 68 76" fill="none" xmlns="http://www.w3.org/2000/svg">
<g id="9">
<g id="Group 8">
<g id="Group 11">
<g id="Rectangle 79">
<mask id="path-1-inside-1_2560_2032" fill="white">
<path d="M33.8721 53.1138L33.8721 37.9138L46.993 30.2404L46.993 45.4404L33.8721 53.1138Z"/>
</mask>
<path d="M33.8721 53.1138L33.8721 37.9138L46.993 30.2404L46.993 45.4404L33.8721 53.1138Z" fill="#F0F0F0"/>
<path d="M46.993 30.2404L47.4304 29.9846L47.4304 29.4779L46.993 29.7337L46.993 30.2404ZM46.993 45.4404L46.993 45.947L47.4304 45.6913L47.4304 45.1846L46.993 45.4404ZM33.8721 38.4204L46.993 30.747L46.993 29.7337L33.8721 37.4071L33.8721 38.4204ZM46.5556 30.4961L46.5556 45.6961L47.4304 45.1846L47.4304 29.9846L46.5556 30.4961ZM46.993 44.9337L33.8721 52.6071L33.8721 53.6204L46.993 45.947L46.993 44.9337Z" fill="#969696" mask="url(#path-1-inside-1_2560_2032)"/>
</g>
<g id="Rectangle 80">
<mask id="path-3-inside-2_2560_2032" fill="white">
<path d="M20.7744 30.3335L33.8228 22.8L46.9701 30.293L33.9217 37.8265L20.7744 30.3335Z"/>
</mask>
<path d="M20.7744 30.3335L33.8228 22.8L46.9701 30.293L33.9217 37.8265L20.7744 30.3335Z" fill="white"/>
<path d="M33.8228 22.8L34.2616 22.5467L33.8214 22.2958L33.3826 22.5491L33.8228 22.8ZM21.2146 30.5844L34.263 23.0509L33.3826 22.5491L20.3342 30.0826L21.2146 30.5844ZM33.384 23.0533L46.5313 30.5464L47.4089 30.0397L34.2616 22.5467L33.384 23.0533Z" fill="#969696" mask="url(#path-3-inside-2_2560_2032)"/>
</g>
<g id="Rectangle 81">
<mask id="path-5-inside-3_2560_2032" fill="white">
<path d="M20.7734 30.2762L20.7734 45.4762L33.8944 53.1496L33.8944 37.9496L20.7734 30.2762Z"/>
</mask>
<path d="M20.7734 30.2762L20.7734 45.4762L33.8944 53.1496L33.8944 37.9496L20.7734 30.2762Z" fill="white"/>
<path d="M20.7734 30.2762L20.3361 30.0205L20.3361 29.5138L20.7734 29.7696L20.7734 30.2762ZM20.7734 45.4762L20.7734 45.9829L20.3361 45.7271L20.3361 45.2205L20.7734 45.4762ZM21.2108 30.532L21.2108 45.732L20.3361 45.2205L20.3361 30.0205L21.2108 30.532ZM20.7734 44.9696L33.8944 52.643L33.8944 53.6563L20.7734 45.9829L20.7734 44.9696ZM33.8944 38.4563L20.7734 30.7829L20.7734 29.7696L33.8944 37.443L33.8944 38.4563Z" fill="#969696" mask="url(#path-5-inside-3_2560_2032)"/>
</g>
<circle id="Ellipse 26" cx="34.0581" cy="37.8404" r="1.52" fill="#2D2D2D"/>
</g>
<g id="Group 12">
<g id="Rectangle 79_2">
<mask id="path-8-inside-4_2560_2032" fill="white">
<path d="M33.8721 30.8204L33.8721 15.6204L46.993 7.94703L46.993 23.147L33.8721 30.8204Z"/>
</mask>
<path d="M33.8721 30.8204L33.8721 15.6204L46.993 7.94703L46.993 23.147L33.8721 30.8204Z" fill="#F0F0F0"/>
<path d="M46.993 7.94703L47.4304 7.69125L47.4304 7.18459L46.993 7.44037L46.993 7.94703ZM46.993 23.147L46.993 23.6537L47.4304 23.3979L47.4304 22.8913L46.993 23.147ZM33.8721 16.1271L46.993 8.4537L46.993 7.44037L33.8721 15.1138L33.8721 16.1271ZM46.5556 8.20281L46.5556 23.4028L47.4304 22.8913L47.4304 7.69125L46.5556 8.20281ZM46.993 22.6404L33.8721 30.3138L33.8721 31.3271L46.993 23.6537L46.993 22.6404Z" fill="#969696" mask="url(#path-8-inside-4_2560_2032)"/>
</g>
<g id="Rectangle 80_2">
<mask id="path-10-inside-5_2560_2032" fill="white">
<path d="M20.7744 8.04016L33.8228 0.506676L46.9701 7.99969L33.9217 15.5332L20.7744 8.04016Z"/>
</mask>
<path d="M20.7744 8.04016L33.8228 0.506676L46.9701 7.99969L33.9217 15.5332L20.7744 8.04016Z" fill="white"/>
<path d="M33.8228 0.506676L34.2616 0.253343L33.8214 0.0024639L33.3826 0.255797L33.8228 0.506676ZM21.2146 8.29104L34.263 0.757555L33.3826 0.255797L20.3342 7.78928L21.2146 8.29104ZM33.384 0.76001L46.5313 8.25302L47.4089 7.74635L34.2616 0.253343L33.384 0.76001Z" fill="#969696" mask="url(#path-10-inside-5_2560_2032)"/>
</g>
<g id="Rectangle 81_2">
<mask id="path-12-inside-6_2560_2032" fill="white">
<path d="M20.7734 7.98291L20.7734 23.1829L33.8944 30.8563L33.8944 15.6563L20.7734 7.98291Z"/>
</mask>
<path d="M20.7734 7.98291L20.7734 23.1829L33.8944 30.8563L33.8944 15.6563L20.7734 7.98291Z" fill="white"/>
<path d="M20.7734 7.98291L20.3361 7.72713L20.3361 7.22046L20.7734 7.47624L20.7734 7.98291ZM20.7734 23.1829L20.7734 23.6896L20.3361 23.4338L20.3361 22.9271L20.7734 23.1829ZM21.2108 8.23869L21.2108 23.4387L20.3361 22.9271L20.3361 7.72713L21.2108 8.23869ZM20.7734 22.6762L33.8944 30.3496L33.8944 31.363L20.7734 23.6896L20.7734 22.6762ZM33.8944 16.163L20.7734 8.48958L20.7734 7.47624L33.8944 15.1496L33.8944 16.163Z" fill="#969696" mask="url(#path-12-inside-6_2560_2032)"/>
</g>
<circle id="Ellipse 26_2" cx="34.0581" cy="15.5471" r="1.52" fill="#2D2D2D"/>
</g>
<g id="Group 13">
<g id="Rectangle 79_3">
<mask id="path-15-inside-7_2560_2032" fill="white">
<path d="M53.6328 64.42L53.6328 49.22L66.7537 41.5466L66.7537 56.7466L53.6328 64.42Z"/>
</mask>
<path d="M53.6328 64.42L53.6328 49.22L66.7537 41.5466L66.7537 56.7466L53.6328 64.42Z" fill="#F0F0F0"/>
<path d="M66.7537 41.5466L67.1911 41.2909L67.1911 40.7842L66.7537 41.04L66.7537 41.5466ZM66.7537 56.7466L66.7537 57.2533L67.1911 56.9975L67.1911 56.4909L66.7537 56.7466ZM53.6328 49.7267L66.7537 42.0533L66.7537 41.04L53.6328 48.7134L53.6328 49.7267ZM66.3164 41.8024L66.3164 57.0024L67.1911 56.4909L67.1911 41.2909L66.3164 41.8024ZM66.7537 56.24L53.6328 63.9134L53.6328 64.9267L66.7537 57.2533L66.7537 56.24Z" fill="#969696" mask="url(#path-15-inside-7_2560_2032)"/>
</g>
<g id="Rectangle 80_3">
<mask id="path-17-inside-8_2560_2032" fill="white">
<path d="M40.5352 41.6398L53.5835 34.1063L66.7308 41.5993L53.6825 49.1328L40.5352 41.6398Z"/>
</mask>
<path d="M40.5352 41.6398L53.5835 34.1063L66.7308 41.5993L53.6825 49.1328L40.5352 41.6398Z" fill="white"/>
<path d="M53.5835 34.1063L54.0223 33.853L53.5821 33.6021L53.1433 33.8554L53.5835 34.1063ZM40.9754 41.8906L54.0237 34.3572L53.1433 33.8554L40.095 41.3889L40.9754 41.8906ZM53.1447 34.3596L66.2921 41.8526L67.1696 41.346L54.0223 33.853L53.1447 34.3596Z" fill="#969696" mask="url(#path-17-inside-8_2560_2032)"/>
</g>
<g id="Rectangle 81_3">
<mask id="path-19-inside-9_2560_2032" fill="white">
<path d="M40.5332 41.5825L40.5332 56.7825L53.6541 64.4559L53.6541 49.2559L40.5332 41.5825Z"/>
</mask>
<path d="M40.5332 41.5825L40.5332 56.7825L53.6541 64.4559L53.6541 49.2559L40.5332 41.5825Z" fill="white"/>
<path d="M40.5332 41.5825L40.0958 41.3267L40.0958 40.8201L40.5332 41.0759L40.5332 41.5825ZM40.5332 56.7825L40.5332 57.2892L40.0958 57.0334L40.0958 56.5267L40.5332 56.7825ZM40.9706 41.8383L40.9706 57.0383L40.0958 56.5267L40.0958 41.3267L40.9706 41.8383ZM40.5332 56.2759L53.6541 63.9493L53.6541 64.9626L40.5332 57.2892L40.5332 56.2759ZM53.6541 49.7626L40.5332 42.0892L40.5332 41.0759L53.6541 48.7493L53.6541 49.7626Z" fill="#969696" mask="url(#path-19-inside-9_2560_2032)"/>
</g>
<circle id="Ellipse 26_3" cx="53.8179" cy="49.1467" r="1.52" fill="#2D2D2D"/>
</g>
<g id="Group 14">
<g id="Rectangle 79_4">
<mask id="path-22-inside-10_2560_2032" fill="white">
<path d="M53.6328 42.1267L53.6328 26.9267L66.7537 19.2533L66.7537 34.4533L53.6328 42.1267Z"/>
</mask>
<path d="M53.6328 42.1267L53.6328 26.9267L66.7537 19.2533L66.7537 34.4533L53.6328 42.1267Z" fill="#F0F0F0"/>
<path d="M66.7537 19.2533L67.1911 18.9975L67.1911 18.4909L66.7537 18.7466L66.7537 19.2533ZM66.7537 34.4533L66.7537 34.96L67.1911 34.7042L67.1911 34.1975L66.7537 34.4533ZM53.6328 27.4334L66.7537 19.76L66.7537 18.7466L53.6328 26.42L53.6328 27.4334ZM66.3164 19.5091L66.3164 34.7091L67.1911 34.1975L67.1911 18.9975L66.3164 19.5091ZM66.7537 33.9466L53.6328 41.62L53.6328 42.6334L66.7537 34.96L66.7537 33.9466Z" fill="#969696" mask="url(#path-22-inside-10_2560_2032)"/>
</g>
<g id="Rectangle 80_4">
<mask id="path-24-inside-11_2560_2032" fill="white">
<path d="M40.5352 19.3464L53.5835 11.813L66.7308 19.306L53.6825 26.8394L40.5352 19.3464Z"/>
</mask>
<path d="M40.5352 19.3464L53.5835 11.813L66.7308 19.306L53.6825 26.8394L40.5352 19.3464Z" fill="white"/>
<path d="M53.5835 11.813L54.0223 11.5596L53.5821 11.3087L53.1433 11.5621L53.5835 11.813ZM40.9754 19.5973L54.0237 12.0638L53.1433 11.5621L40.095 19.0956L40.9754 19.5973ZM53.1447 12.0663L66.2921 19.5593L67.1696 19.0526L54.0223 11.5596L53.1447 12.0663Z" fill="#969696" mask="url(#path-24-inside-11_2560_2032)"/>
</g>
<g id="Rectangle 81_4">
<mask id="path-26-inside-12_2560_2032" fill="white">
<path d="M40.5332 19.2892L40.5332 34.4892L53.6541 42.1626L53.6541 26.9626L40.5332 19.2892Z"/>
</mask>
<path d="M40.5332 19.2892L40.5332 34.4892L53.6541 42.1626L53.6541 26.9626L40.5332 19.2892Z" fill="white"/>
<path d="M40.5332 19.2892L40.0958 19.0334L40.0958 18.5267L40.5332 18.7825L40.5332 19.2892ZM40.5332 34.4892L40.5332 34.9959L40.0958 34.7401L40.0958 34.2334L40.5332 34.4892ZM40.9706 19.545L40.9706 34.745L40.0958 34.2334L40.0958 19.0334L40.9706 19.545ZM40.5332 33.9825L53.6541 41.6559L53.6541 42.6693L40.5332 34.9959L40.5332 33.9825ZM53.6541 27.4693L40.5332 19.7959L40.5332 18.7825L53.6541 26.4559L53.6541 27.4693Z" fill="#969696" mask="url(#path-26-inside-12_2560_2032)"/>
</g>
<circle id="Ellipse 26_4" cx="53.8179" cy="26.8534" r="1.52" fill="#2D2D2D"/>
</g>
<g id="Group 8_2">
<g id="Rectangle 79_5">
<mask id="path-29-inside-13_2560_2032" fill="white">
<path d="M14.1113 64.2605L14.1113 49.0605L27.2323 41.3871L27.2323 56.5871L14.1113 64.2605Z"/>
</mask>
<path d="M14.1113 64.2605L14.1113 49.0605L27.2323 41.3871L27.2323 56.5871L14.1113 64.2605Z" fill="#F0F0F0"/>
<path d="M27.2323 41.3871L27.6696 41.1313L27.6696 40.6246L27.2323 40.8804L27.2323 41.3871ZM27.2323 56.5871L27.2323 57.0938L27.6696 56.838L27.6696 56.3313L27.2323 56.5871ZM14.1113 49.5672L27.2323 41.8938L27.2323 40.8804L14.1113 48.5538L14.1113 49.5672ZM26.7949 41.6429L26.7949 56.8429L27.6696 56.3313L27.6696 41.1313L26.7949 41.6429ZM27.2323 56.0804L14.1113 63.7538L14.1113 64.7672L27.2323 57.0938L27.2323 56.0804Z" fill="#969696" mask="url(#path-29-inside-13_2560_2032)"/>
</g>
<g id="Rectangle 80_5">
<mask id="path-31-inside-14_2560_2032" fill="white">
<path d="M1.01465 41.4802L14.063 33.9467L27.2103 41.4398L14.162 48.9732L1.01465 41.4802Z"/>
</mask>
<path d="M1.01465 41.4802L14.063 33.9467L27.2103 41.4398L14.162 48.9732L1.01465 41.4802Z" fill="white"/>
<path d="M14.063 33.9467L14.5018 33.6934L14.0616 33.4425L13.6228 33.6959L14.063 33.9467ZM1.45484 41.7311L14.5032 34.1976L13.6228 33.6959L0.574454 41.2293L1.45484 41.7311ZM13.6242 34.2001L26.7715 41.6931L27.6491 41.1864L14.5018 33.6934L13.6242 34.2001Z" fill="#969696" mask="url(#path-31-inside-14_2560_2032)"/>
</g>
<g id="Rectangle 81_5">
<mask id="path-33-inside-15_2560_2032" fill="white">
<path d="M1.0127 41.423L1.0127 56.623L14.1336 64.2964L14.1336 49.0964L1.0127 41.423Z"/>
</mask>
<path d="M1.0127 41.423L1.0127 56.623L14.1336 64.2964L14.1336 49.0964L1.0127 41.423Z" fill="white"/>
<path d="M1.0127 41.423L0.575331 41.1672L0.575331 40.6605L1.0127 40.9163L1.0127 41.423ZM1.0127 56.623L1.0127 57.1296L0.575332 56.8739L0.575332 56.3672L1.0127 56.623ZM1.45006 41.6788L1.45006 56.8788L0.575332 56.3672L0.575331 41.1672L1.45006 41.6788ZM1.0127 56.1163L14.1336 63.7897L14.1336 64.803L1.0127 57.1296L1.0127 56.1163ZM14.1336 49.603L1.0127 41.9296L1.0127 40.9163L14.1336 48.5897L14.1336 49.603Z" fill="#969696" mask="url(#path-33-inside-15_2560_2032)"/>
</g>
<circle id="Ellipse 26_5" cx="14.2973" cy="48.9872" r="1.52" fill="#2D2D2D"/>
</g>
<g id="Group 9">
<g id="Rectangle 79_6">
<mask id="path-36-inside-16_2560_2032" fill="white">
<path d="M14.1113 41.9672L14.1113 26.7672L27.2323 19.0938L27.2323 34.2938L14.1113 41.9672Z"/>
</mask>
<path d="M14.1113 41.9672L14.1113 26.7672L27.2323 19.0938L27.2323 34.2938L14.1113 41.9672Z" fill="#F0F0F0"/>
<path d="M27.2323 19.0938L27.6696 18.838L27.6696 18.3313L27.2323 18.5871L27.2323 19.0938ZM27.2323 34.2938L27.2323 34.8004L27.6696 34.5446L27.6696 34.038L27.2323 34.2938ZM14.1113 27.2738L27.2323 19.6004L27.2323 18.5871L14.1113 26.2605L14.1113 27.2738ZM26.7949 19.3495L26.7949 34.5495L27.6696 34.038L27.6696 18.838L26.7949 19.3495ZM27.2323 33.7871L14.1113 41.4605L14.1113 42.4738L27.2323 34.8004L27.2323 33.7871Z" fill="#969696" mask="url(#path-36-inside-16_2560_2032)"/>
</g>
<g id="Rectangle 80_6">
<mask id="path-38-inside-17_2560_2032" fill="white">
<path d="M1.01465 19.1869L14.063 11.6534L27.2103 19.1464L14.162 26.6799L1.01465 19.1869Z"/>
</mask>
<path d="M1.01465 19.1869L14.063 11.6534L27.2103 19.1464L14.162 26.6799L1.01465 19.1869Z" fill="white"/>
<path d="M14.063 11.6534L14.5018 11.4001L14.0616 11.1492L13.6228 11.4025L14.063 11.6534ZM1.45484 19.4378L14.5032 11.9043L13.6228 11.4025L0.574454 18.936L1.45484 19.4378ZM13.6242 11.9067L26.7715 19.3997L27.6491 18.8931L14.5018 11.4001L13.6242 11.9067Z" fill="#969696" mask="url(#path-38-inside-17_2560_2032)"/>
</g>
<g id="Rectangle 81_6">
<mask id="path-40-inside-18_2560_2032" fill="white">
<path d="M1.0127 19.1296L1.0127 34.3296L14.1336 42.003L14.1336 26.803L1.0127 19.1296Z"/>
</mask>
<path d="M1.0127 19.1296L1.0127 34.3296L14.1336 42.003L14.1336 26.803L1.0127 19.1296Z" fill="white"/>
<path d="M1.0127 19.1296L0.575331 18.8739L0.575331 18.3672L1.0127 18.623L1.0127 19.1296ZM1.0127 34.3296L1.0127 34.8363L0.575332 34.5805L0.575332 34.0739L1.0127 34.3296ZM1.45006 19.3854L1.45006 34.5854L0.575332 34.0739L0.575331 18.8739L1.45006 19.3854ZM1.0127 33.823L14.1336 41.4964L14.1336 42.5097L1.0127 34.8363L1.0127 33.823ZM14.1336 27.3097L1.0127 19.6363L1.0127 18.623L14.1336 26.2964L14.1336 27.3097Z" fill="#969696" mask="url(#path-40-inside-18_2560_2032)"/>
</g>
<circle id="Ellipse 26_6" cx="14.2973" cy="26.6938" r="1.52" fill="#2D2D2D"/>
</g>
<g id="Group 5">
<g id="Rectangle 79_7">
<mask id="path-43-inside-19_2560_2032" fill="white">
<path d="M33.8721 75.5668L33.8721 60.3668L46.993 52.6934L46.993 67.8934L33.8721 75.5668Z"/>
</mask>
<path d="M33.8721 75.5668L33.8721 60.3668L46.993 52.6934L46.993 67.8934L33.8721 75.5668Z" fill="#F0F0F0"/>
<path d="M46.993 52.6934L47.4304 52.4376L47.4304 51.9309L46.993 52.1867L46.993 52.6934ZM46.993 67.8934L46.993 68.4L47.4304 68.1443L47.4304 67.6376L46.993 67.8934ZM33.8721 60.8734L46.993 53.2L46.993 52.1867L33.8721 59.8601L33.8721 60.8734ZM46.5556 52.9492L46.5556 68.1492L47.4304 67.6376L47.4304 52.4376L46.5556 52.9492ZM46.993 67.3867L33.8721 75.0601L33.8721 76.0734L46.993 68.4L46.993 67.3867Z" fill="#969696" mask="url(#path-43-inside-19_2560_2032)"/>
</g>
<g id="Rectangle 80_7">
<mask id="path-45-inside-20_2560_2032" fill="white">
<path d="M20.7744 52.7865L33.8228 45.253L46.9701 52.746L33.9217 60.2795L20.7744 52.7865Z"/>
</mask>
<path d="M20.7744 52.7865L33.8228 45.253L46.9701 52.746L33.9217 60.2795L20.7744 52.7865Z" fill="white"/>
<path d="M33.8228 45.253L34.2616 44.9997L33.8214 44.7488L33.3826 45.0021L33.8228 45.253ZM21.2146 53.0374L34.263 45.5039L33.3826 45.0021L20.3342 52.5356L21.2146 53.0374ZM33.384 45.5063L46.5313 52.9994L47.4089 52.4927L34.2616 44.9997L33.384 45.5063Z" fill="#969696" mask="url(#path-45-inside-20_2560_2032)"/>
</g>
<g id="Rectangle 81_7">
<mask id="path-47-inside-21_2560_2032" fill="white">
<path d="M20.7734 52.7292L20.7734 67.9292L33.8944 75.6026L33.8944 60.4026L20.7734 52.7292Z"/>
</mask>
<path d="M20.7734 52.7292L20.7734 67.9292L33.8944 75.6026L33.8944 60.4026L20.7734 52.7292Z" fill="white"/>
<path d="M20.7734 52.7292L20.3361 52.4735L20.3361 51.9668L20.7734 52.2226L20.7734 52.7292ZM20.7734 67.9292L20.7734 68.4359L20.3361 68.1801L20.3361 67.6735L20.7734 67.9292ZM21.2108 52.985L21.2108 68.185L20.3361 67.6735L20.3361 52.4735L21.2108 52.985ZM20.7734 67.4226L33.8944 75.096L33.8944 76.1093L20.7734 68.4359L20.7734 67.4226ZM33.8944 60.9093L20.7734 53.2359L20.7734 52.2226L33.8944 59.896L33.8944 60.9093Z" fill="#969696" mask="url(#path-47-inside-21_2560_2032)"/>
</g>
<circle id="Ellipse 26_7" cx="34.0581" cy="60.2934" r="1.52" fill="#2D2D2D"/>
</g>
<g id="Group 10">
<g id="Rectangle 79_8">
<mask id="path-50-inside-22_2560_2032" fill="white">
<path d="M33.8721 53.2734L33.8721 38.0734L46.993 30.4L46.993 45.6L33.8721 53.2734Z"/>
</mask>
<path d="M33.8721 53.2734L33.8721 38.0734L46.993 30.4L46.993 45.6L33.8721 53.2734Z" fill="#F0F0F0"/>
<path d="M46.993 30.4L47.4304 30.1443L47.4304 29.6376L46.993 29.8934L46.993 30.4ZM46.993 45.6L46.993 46.1067L47.4304 45.8509L47.4304 45.3443L46.993 45.6ZM33.8721 38.5801L46.993 30.9067L46.993 29.8934L33.8721 37.5668L33.8721 38.5801ZM46.5556 30.6558L46.5556 45.8558L47.4304 45.3443L47.4304 30.1443L46.5556 30.6558ZM46.993 45.0934L33.8721 52.7668L33.8721 53.7801L46.993 46.1067L46.993 45.0934Z" fill="#969696" mask="url(#path-50-inside-22_2560_2032)"/>
</g>
<g id="Rectangle 80_8">
<mask id="path-52-inside-23_2560_2032" fill="white">
<path d="M20.7744 30.4932L33.8228 22.9597L46.9701 30.4527L33.9217 37.9862L20.7744 30.4932Z"/>
</mask>
<path d="M20.7744 30.4932L33.8228 22.9597L46.9701 30.4527L33.9217 37.9862L20.7744 30.4932Z" fill="white"/>
<path d="M33.8228 22.9597L34.2616 22.7063L33.8214 22.4555L33.3826 22.7088L33.8228 22.9597ZM21.2146 30.744L34.263 23.2106L33.3826 22.7088L20.3342 30.2423L21.2146 30.744ZM33.384 23.213L46.5313 30.706L47.4089 30.1994L34.2616 22.7063L33.384 23.213Z" fill="#969696" mask="url(#path-52-inside-23_2560_2032)"/>
</g>
<g id="Rectangle 81_8">
<mask id="path-54-inside-24_2560_2032" fill="white">
<path d="M20.7734 30.4359L20.7734 45.6359L33.8944 53.3093L33.8944 38.1093L20.7734 30.4359Z"/>
</mask>
<path d="M20.7734 30.4359L20.7734 45.6359L33.8944 53.3093L33.8944 38.1093L20.7734 30.4359Z" fill="white"/>
<path d="M20.7734 30.4359L20.3361 30.1801L20.3361 29.6735L20.7734 29.9292L20.7734 30.4359ZM20.7734 45.6359L20.7734 46.1426L20.3361 45.8868L20.3361 45.3801L20.7734 45.6359ZM21.2108 30.6917L21.2108 45.8917L20.3361 45.3801L20.3361 30.1801L21.2108 30.6917ZM20.7734 45.1292L33.8944 52.8026L33.8944 53.816L20.7734 46.1426L20.7734 45.1292ZM33.8944 38.616L20.7734 30.9426L20.7734 29.9292L33.8944 37.6026L33.8944 38.616Z" fill="#969696" mask="url(#path-54-inside-24_2560_2032)"/>
</g>
<circle id="Ellipse 26_8" cx="34.0581" cy="38.0001" r="1.52" fill="#2D2D2D"/>
</g>
</g>
</g>
</svg>
