<svg width="134" height="150" viewBox="0 0 134 150" fill="none" xmlns="http://www.w3.org/2000/svg">
<mask id="path-1-inside-1_707_4013" fill="white">
<path d="M66.8228 145.96L66.8227 72.7722L130 35.8249L130 109.013L66.8228 145.96Z"/>
</mask>
<path d="M66.8228 145.96L66.8227 72.7722L130 35.8249L130 109.013L66.8228 145.96Z" fill="#F0F0F0"/>
<path d="M130 35.8249L130.863 35.3201L130.863 34.3201L130 34.8249L130 35.8249ZM130 109.013L130 110.013L130.863 109.508L130.863 108.508L130 109.013ZM66.8227 73.7722L130 36.8249L130 34.8249L66.8227 71.7722L66.8227 73.7722ZM129.137 36.3297L129.137 109.518L130.863 108.508L130.863 35.3201L129.137 36.3297ZM130 108.013L66.8228 144.96L66.8228 146.96L130 110.013L130 108.013Z" fill="#969696" mask="url(#path-1-inside-1_707_4013)"/>
<mask id="path-3-inside-2_707_4013" fill="white">
<path d="M3.7583 36.2736L66.5861 -2.67029e-05L129.89 36.0787L67.0625 72.3524L3.7583 36.2736Z"/>
</mask>
<path d="M3.7583 36.2736L66.5861 -2.67029e-05L129.89 36.0787L67.0625 72.3524L3.7583 36.2736Z" fill="white"/>
<path d="M66.5861 -2.67029e-05L67.4521 -0.500027L66.5833 -0.995182L65.7173 -0.495182L66.5861 -2.67029e-05ZM4.62711 36.7688L67.4549 0.495129L65.7173 -0.495182L2.8895 35.7785L4.62711 36.7688ZM65.7201 0.499973L129.024 36.5787L130.756 35.5787L67.4521 -0.500027L65.7201 0.499973Z" fill="#969696" mask="url(#path-3-inside-2_707_4013)"/>
<mask id="path-5-inside-3_707_4013" fill="white">
<path d="M3.75 35.9979L3.75 109.186L66.9272 146.133L66.9272 72.9452L3.75 35.9979Z"/>
</mask>
<path d="M3.75 35.9979L3.75 109.186L66.9272 146.133L66.9272 72.9452L3.75 35.9979Z" fill="white"/>
<path d="M3.75 35.9979L2.88678 35.493L2.88678 34.493L3.75 34.9979L3.75 35.9979ZM3.75 109.186L3.75 110.186L2.88678 109.681L2.88678 108.681L3.75 109.186ZM4.61322 36.5027L4.61322 109.691L2.88678 108.681L2.88678 35.493L4.61322 36.5027ZM3.75 108.186L66.9272 145.133L66.9272 147.133L3.75 110.186L3.75 108.186ZM66.9272 73.9452L3.75 36.9979L3.75 34.9979L66.9272 71.9452L66.9272 73.9452Z" fill="#969696" mask="url(#path-5-inside-3_707_4013)"/>
<mask id="path-7-inside-4_707_4013" fill="white">
<path d="M66.8715 21.4078L66.8715 73.2749L22.0988 99.4589L22.0988 47.5918L66.8715 21.4078Z"/>
</mask>
<path d="M66.8715 21.4078L66.8715 73.2749L22.0988 99.4589L22.0988 47.5918L66.8715 21.4078Z" fill="#F0F0F0"/>
<path d="M22.0988 47.5918L22.0988 46.5918L21.2356 47.0967L21.2356 48.0967L22.0988 47.5918ZM22.962 98.954L22.962 47.087L21.2356 48.0967L21.2356 99.9637L22.962 98.954ZM22.0988 48.5918L66.8715 22.4078L66.8715 20.4078L22.0988 46.5918L22.0988 48.5918Z" fill="#969696" mask="url(#path-7-inside-4_707_4013)"/>
<mask id="path-9-inside-5_707_4013" fill="white">
<path d="M112 98.8892L67.039 124.847L21.9518 99.1509L66.9127 73.1927L112 98.8892Z"/>
</mask>
<path d="M112 98.8892L67.039 124.847L21.9518 99.1509L66.9127 73.1927L112 98.8892Z" fill="white"/>
<path d="M67.039 124.847L66.173 125.347L67.0418 125.843L67.9078 125.343L67.039 124.847ZM111.131 98.3941L66.1702 124.352L67.9078 125.343L112.869 99.3844L111.131 98.3941ZM67.9051 124.347L22.8178 98.6509L21.0857 99.6509L66.173 125.347L67.9051 124.347Z" fill="#969696" mask="url(#path-9-inside-5_707_4013)"/>
<mask id="path-11-inside-6_707_4013" fill="white">
<path d="M111.57 99.3364L111.57 47.4693L66.7977 21.2853L66.7977 73.1524L111.57 99.3364Z"/>
</mask>
<path d="M111.57 99.3364L111.57 47.4693L66.7977 21.2853L66.7977 73.1524L111.57 99.3364Z" fill="white"/>
<path d="M111.57 47.4693L111.57 46.4693L112.434 46.9741L112.434 47.9741L111.57 47.4693ZM110.707 98.8315L110.707 46.9645L112.434 47.9741L112.434 99.8412L110.707 98.8315ZM111.57 48.4693L66.7977 22.2853L66.7977 20.2853L111.57 46.4693L111.57 48.4693Z" fill="#969696" mask="url(#path-11-inside-6_707_4013)"/>
<mask id="path-13-inside-7_707_4013" fill="white">
<path d="M67.0426 105.939L67.0426 72.9337L95.533 56.2719L95.533 89.2768L67.0426 105.939Z"/>
</mask>
<path d="M67.0426 105.939L67.0426 72.9337L95.533 56.2719L95.533 89.2768L67.0426 105.939Z" fill="#F0F0F0"/>
<path d="M95.533 89.2768L95.533 90.2768L96.3963 89.772L96.3963 88.772L95.533 89.2768ZM94.6698 56.7767L94.6698 89.7816L96.3963 88.772L96.3963 55.7671L94.6698 56.7767ZM95.533 88.2768L67.0426 104.939L67.0426 106.939L95.533 90.2768L95.533 88.2768Z" fill="#969696" mask="url(#path-13-inside-7_707_4013)"/>
<mask id="path-15-inside-8_707_4013" fill="white">
<path d="M38.6949 56.421L66.9357 40.1162L96.2748 56.8374L68.0341 73.1422L38.6949 56.421Z"/>
</mask>
<path d="M38.6949 56.421L66.9357 40.1162L96.2748 56.8374L68.0341 73.1422L38.6949 56.421Z" fill="white"/>
<path d="M66.9357 40.1162L67.8017 39.6162L66.9329 39.1211L66.0669 39.6211L66.9357 40.1162ZM96.2748 56.8374L97.1436 57.3326L98.0096 56.8326L97.1408 56.3374L96.2748 56.8374ZM39.5638 56.9162L67.8045 40.6114L66.0669 39.6211L37.8261 55.9259L39.5638 56.9162ZM66.0696 40.6162L95.4088 57.3374L97.1408 56.3374L67.8017 39.6162L66.0696 40.6162ZM95.406 56.3422L67.1653 72.647L68.9029 73.6373L97.1436 57.3326L95.406 56.3422Z" fill="#969696" mask="url(#path-15-inside-8_707_4013)"/>
<mask id="path-17-inside-9_707_4013" fill="white">
<path d="M38.5991 56.1047L38.5991 89.3548L67.0896 106.017L67.0896 72.7665L38.5991 56.1047Z"/>
</mask>
<path d="M38.5991 56.1047L38.5991 89.3548L67.0896 106.017L67.0896 72.7665L38.5991 56.1047Z" fill="white"/>
<path d="M38.5991 56.1047L37.7359 55.5999L37.7359 54.5999L38.5991 55.1047L38.5991 56.1047ZM38.5991 89.3548L38.5991 90.3548L37.7359 89.85L37.7359 88.85L38.5991 89.3548ZM39.4623 56.6096L39.4623 89.8596L37.7359 88.85L37.7359 55.5999L39.4623 56.6096ZM38.5991 88.3548L67.0896 105.017L67.0896 107.017L38.5991 90.3548L38.5991 88.3548ZM67.0896 73.7665L38.5991 57.1047L38.5991 55.1047L67.0896 71.7665L67.0896 73.7665Z" fill="#969696" mask="url(#path-17-inside-9_707_4013)"/>
<circle cx="4.09808" cy="36.2144" r="3" transform="rotate(-120 4.09808 36.2144)" fill="#2E8D3A"/>
<circle cx="129.098" cy="36.2144" r="3" transform="rotate(-120 129.098 36.2144)" fill="#2E8D3A"/>
<circle cx="22.0981" cy="48.2144" r="3" transform="rotate(-120 22.0981 48.2144)" fill="#2E8D3A"/>
<circle cx="111.098" cy="99.2144" r="3" transform="rotate(-120 111.098 99.2144)" fill="#2E8D3A"/>
<circle cx="67.0981" cy="73.2144" r="3" transform="rotate(-120 67.0981 73.2144)" fill="#2E8D3A"/>
<circle cx="67.0981" cy="146.214" r="3" transform="rotate(-120 67.0981 146.214)" fill="#2E8D3A"/>
</svg>
