<svg width="134" height="150" viewBox="0 0 134 150" fill="none" xmlns="http://www.w3.org/2000/svg">
<mask id="path-1-inside-1_707_3854" fill="white">
<path d="M88.4871 62.4561L32.6392 94.6998L5.37187 79.1594L61.2197 46.9157L88.4871 62.4561Z"/>
</mask>
<path d="M88.4871 62.4561L32.6392 94.6998L5.37187 79.1594L61.2197 46.9157L88.4871 62.4561Z" fill="white"/>
<path d="M5.37187 79.1594L4.50306 78.6643L3.63703 79.1643L4.50584 79.6594L5.37187 79.1594ZM61.2197 46.9157L62.0857 46.4157L61.2169 45.9205L60.3509 46.4205L61.2197 46.9157ZM33.5052 94.1998L6.23789 78.6594L4.50584 79.6594L31.7732 95.1998L33.5052 94.1998ZM6.24067 79.6546L62.0885 47.4108L60.3509 46.4205L4.50306 78.6643L6.24067 79.6546ZM60.3537 47.4157L87.621 62.9561L89.3531 61.9561L62.0857 46.4157L60.3537 47.4157Z" fill="#969696" mask="url(#path-1-inside-1_707_3854)"/>
<mask id="path-3-inside-2_707_3854" fill="white">
<path d="M32.0789 125.622L5.60962 110.34L5.43407 78.9077L31.9033 94.1897L32.0789 125.622Z"/>
</mask>
<path d="M5.60962 110.34L4.7436 109.84L4.74918 110.84L5.61521 111.34L5.60962 110.34ZM32.0733 124.622L5.60404 109.34L5.61521 111.34L32.0844 126.622L32.0733 124.622ZM6.47565 110.84L6.3001 79.4077L4.56805 78.4077L4.7436 109.84L6.47565 110.84Z" fill="#969696" mask="url(#path-3-inside-2_707_3854)"/>
<mask id="path-5-inside-3_707_3854" fill="white">
<path d="M32.0737 125.781L87.9611 93.5142L88.1366 62.0907L32.2492 94.3573L32.0737 125.781Z"/>
</mask>
<path d="M32.0737 125.781L87.9611 93.5142L88.1366 62.0907L32.2492 94.3573L32.0737 125.781Z" fill="#F0F0F0"/>
<path d="M32.0737 125.781L32.0681 126.781L31.2021 127.281L31.2077 126.281L32.0737 125.781ZM87.9611 93.5142L88.8271 93.0142L88.8216 94.0141L87.9555 94.5141L87.9611 93.5142ZM32.0793 124.781L87.9667 92.5142L87.9555 94.5141L32.0681 126.781L32.0793 124.781ZM87.0951 94.0142L87.2706 62.5907L89.0026 61.5907L88.8271 93.0142L87.0951 94.0142ZM33.1153 93.8573L32.9398 125.281L31.2077 126.281L31.3832 94.8573L33.1153 93.8573Z" fill="#969696" mask="url(#path-5-inside-3_707_3854)"/>
<circle cx="32.2588" cy="94.4971" r="3" transform="rotate(-120 32.2588 94.4971)" fill="#2E8D3A"/>
<mask id="path-8-inside-4_707_3854" fill="white">
<path d="M126.54 84.365L70.692 116.609L43.4246 101.068L99.2724 68.8246L126.54 84.365Z"/>
</mask>
<path d="M126.54 84.365L70.692 116.609L43.4246 101.068L99.2724 68.8246L126.54 84.365Z" fill="white"/>
<path d="M43.4246 101.068L42.5558 100.573L41.6898 101.073L42.5586 101.568L43.4246 101.068ZM99.2724 68.8246L100.138 68.3246L99.2697 67.8294L98.4036 68.3294L99.2724 68.8246ZM71.558 116.109L44.2906 100.568L42.5586 101.568L69.8259 117.109L71.558 116.109ZM44.2934 101.564L100.141 69.3197L98.4036 68.3294L42.5558 100.573L44.2934 101.564ZM98.4064 69.3246L125.674 84.865L127.406 83.865L100.138 68.3246L98.4064 69.3246Z" fill="#969696" mask="url(#path-8-inside-4_707_3854)"/>
<mask id="path-10-inside-5_707_3854" fill="white">
<path d="M70.4863 147.736L43.6623 132.249L43.4873 100.919L70.3113 116.406L70.4863 147.736Z"/>
</mask>
<path d="M70.4863 147.736L43.6623 132.249L43.4873 100.919L70.3113 116.406L70.4863 147.736Z" fill="white"/>
<path d="M43.6623 132.249L42.7963 131.749L42.8018 132.749L43.6679 133.249L43.6623 132.249ZM70.4807 146.736L43.6567 131.249L43.6679 133.249L70.4919 148.736L70.4807 146.736ZM44.5283 132.749L44.3533 101.419L42.6213 100.419L42.7963 131.749L44.5283 132.749Z" fill="#969696" mask="url(#path-10-inside-5_707_3854)"/>
<mask id="path-12-inside-6_707_3854" fill="white">
<path d="M70.1265 147.69L126.014 115.423L126.189 83.9999L70.302 116.266L70.1265 147.69Z"/>
</mask>
<path d="M70.1265 147.69L126.014 115.423L126.189 83.9999L70.302 116.266L70.1265 147.69Z" fill="#F0F0F0"/>
<path d="M70.1265 147.69L70.1209 148.69L69.2549 149.19L69.2604 148.19L70.1265 147.69ZM126.014 115.423L126.88 114.923L126.874 115.923L126.008 116.423L126.014 115.423ZM70.132 146.69L126.019 114.423L126.008 116.423L70.1209 148.69L70.132 146.69ZM125.148 115.923L125.323 84.4999L127.055 83.4999L126.88 114.923L125.148 115.923ZM71.168 115.766L70.9925 147.19L69.2604 148.19L69.4359 116.766L71.168 115.766Z" fill="#969696" mask="url(#path-12-inside-6_707_3854)"/>
<circle cx="70.3116" cy="116.406" r="3" transform="rotate(-120 70.3116 116.406)" fill="#2E8D3A"/>
<mask id="path-15-inside-7_707_3854" fill="white">
<path d="M88.5398 18.5471L32.692 50.7909L5.4246 35.2505L61.2724 3.00672L88.5398 18.5471Z"/>
</mask>
<path d="M88.5398 18.5471L32.692 50.7909L5.4246 35.2505L61.2724 3.00672L88.5398 18.5471Z" fill="white"/>
<path d="M5.4246 35.2505L4.55579 34.7553L3.68977 35.2553L4.55858 35.7505L5.4246 35.2505ZM61.2724 3.00672L62.1385 2.50672L61.2697 2.01156L60.4036 2.51156L61.2724 3.00672ZM33.558 50.2909L6.29063 34.7505L4.55858 35.7505L31.8259 51.2909L33.558 50.2909ZM6.29341 35.7456L62.1412 3.50187L60.4036 2.51156L4.55579 34.7553L6.29341 35.7456ZM60.4064 3.50672L87.6738 19.0471L89.4058 18.0471L62.1385 2.50672L60.4064 3.50672Z" fill="#969696" mask="url(#path-15-inside-7_707_3854)"/>
<mask id="path-17-inside-8_707_3854" fill="white">
<path d="M32.4863 81.9177L5.66229 66.4309L5.48731 35.1015L32.3113 50.5883L32.4863 81.9177Z"/>
</mask>
<path d="M32.4863 81.9177L5.66229 66.4309L5.48731 35.1015L32.3113 50.5883L32.4863 81.9177Z" fill="white"/>
<path d="M5.66229 66.4309L4.79626 65.9309L4.80185 66.9308L5.66787 67.4308L5.66229 66.4309ZM32.4807 80.9177L5.6567 65.4309L5.66787 67.4308L32.4919 82.9177L32.4807 80.9177ZM6.52831 66.9309L6.35333 35.6015L4.62128 34.6015L4.79626 65.9309L6.52831 66.9309Z" fill="#969696" mask="url(#path-17-inside-8_707_3854)"/>
<mask id="path-19-inside-9_707_3854" fill="white">
<path d="M32.1265 81.8721L88.0138 49.6055L88.1893 18.182L32.302 50.4486L32.1265 81.8721Z"/>
</mask>
<path d="M32.1265 81.8721L88.0138 49.6055L88.1893 18.182L32.302 50.4486L32.1265 81.8721Z" fill="#F0F0F0"/>
<path d="M32.1265 81.8721L32.1209 82.8721L31.2549 83.3721L31.2604 82.3721L32.1265 81.8721ZM88.0138 49.6055L88.8799 49.1055L88.8743 50.1055L88.0083 50.6055L88.0138 49.6055ZM32.132 80.8721L88.0194 48.6055L88.0083 50.6055L32.1209 82.8721L32.132 80.8721ZM87.1478 50.1055L87.3233 18.682L89.0554 17.682L88.8799 49.1055L87.1478 50.1055ZM33.168 49.9486L32.9925 81.3721L31.2604 82.3721L31.4359 50.9486L33.168 49.9486Z" fill="#969696" mask="url(#path-19-inside-9_707_3854)"/>
<circle cx="32.3116" cy="50.5882" r="3" transform="rotate(-120 32.3116 50.5882)" fill="#2E8D3A"/>
<mask id="path-22-inside-10_707_3854" fill="white">
<path d="M126.592 40.4561L70.7446 72.6998L43.4772 57.1594L99.3251 24.9157L126.592 40.4561Z"/>
</mask>
<path d="M126.592 40.4561L70.7446 72.6998L43.4772 57.1594L99.3251 24.9157L126.592 40.4561Z" fill="white"/>
<path d="M43.4772 57.1594L42.6084 56.6643L41.7424 57.1643L42.6112 57.6594L43.4772 57.1594ZM99.3251 24.9157L100.191 24.4157L99.3223 23.9205L98.4563 24.4205L99.3251 24.9157ZM71.6106 72.1998L44.3432 56.6594L42.6112 57.6594L69.8785 73.1998L71.6106 72.1998ZM44.346 57.6546L100.194 25.4108L98.4563 24.4205L42.6084 56.6643L44.346 57.6546ZM98.459 25.4157L125.726 40.9561L127.458 39.9561L100.191 24.4157L98.459 25.4157Z" fill="#969696" mask="url(#path-22-inside-10_707_3854)"/>
<mask id="path-24-inside-11_707_3854" fill="white">
<path d="M70.5388 103.827L43.7148 88.3398L43.5398 57.0104L70.3638 72.4973L70.5388 103.827Z"/>
</mask>
<path d="M70.5388 103.827L43.7148 88.3398L43.5398 57.0104L70.3638 72.4973L70.5388 103.827Z" fill="white"/>
<path d="M43.7148 88.3398L42.8488 87.8398L42.8543 88.8398L43.7204 89.3398L43.7148 88.3398ZM70.5332 102.827L43.7092 87.3398L43.7204 89.3398L70.5444 104.827L70.5332 102.827ZM44.5808 88.8398L44.4058 57.5104L42.6738 56.5104L42.8488 87.8398L44.5808 88.8398Z" fill="#969696" mask="url(#path-24-inside-11_707_3854)"/>
<mask id="path-26-inside-12_707_3854" fill="white">
<path d="M70.1791 103.781L126.066 71.5142L126.242 40.0907L70.3546 72.3573L70.1791 103.781Z"/>
</mask>
<path d="M70.1791 103.781L126.066 71.5142L126.242 40.0907L70.3546 72.3573L70.1791 103.781Z" fill="#F0F0F0"/>
<path d="M70.1791 103.781L70.1735 104.781L69.3075 105.281L69.3131 104.281L70.1791 103.781ZM126.066 71.5142L126.932 71.0142L126.927 72.0141L126.061 72.5141L126.066 71.5142ZM70.1847 102.781L126.072 70.5142L126.061 72.5141L70.1735 104.781L70.1847 102.781ZM125.2 72.0142L125.376 40.5907L127.108 39.5907L126.932 71.0142L125.2 72.0142ZM71.2206 71.8573L71.0451 103.281L69.3131 104.281L69.4886 72.8573L71.2206 71.8573Z" fill="#969696" mask="url(#path-26-inside-12_707_3854)"/>
<circle cx="70.3642" cy="72.4971" r="3" transform="rotate(-120 70.3642 72.4971)" fill="#2E8D3A"/>
</svg>
