<svg width="134" height="150" viewBox="0 0 134 150" fill="none" xmlns="http://www.w3.org/2000/svg">
<mask id="path-1-inside-1_159_484" fill="white">
<path d="M66.8538 60.8298L66.8538 30.8298L92.7503 15.685L92.7503 45.685L66.8538 60.8298Z"/>
</mask>
<path d="M66.8538 60.8298L66.8538 30.8298L92.7503 15.685L92.7503 45.685L66.8538 60.8298Z" fill="#F0F0F0"/>
<path d="M92.7503 15.685L93.6136 15.1801L93.6136 14.1801L92.7503 14.685L92.7503 15.685ZM92.7503 45.685L92.7503 46.685L93.6136 46.1801L93.6136 45.1801L92.7503 45.685ZM66.8538 31.8298L92.7503 16.685L92.7503 14.685L66.8538 29.8298L66.8538 31.8298ZM91.8871 16.1898L91.8871 46.1898L93.6136 45.1801L93.6136 15.1801L91.8871 16.1898ZM92.7503 44.685L66.8538 59.8298L66.8538 61.8298L92.7503 46.685L92.7503 44.685Z" fill="#969696" mask="url(#path-1-inside-1_159_484)"/>
<mask id="path-3-inside-2_159_484" fill="white">
<path d="M41.0034 15.8687L66.7568 0.999932L92.7054 15.7888L66.9521 30.6575L41.0034 15.8687Z"/>
</mask>
<path d="M41.0034 15.8687L66.7568 0.999932L92.7054 15.7888L66.9521 30.6575L41.0034 15.8687Z" fill="white"/>
<path d="M66.7568 0.999932L67.6228 0.499932L66.754 0.0047769L65.888 0.504777L66.7568 0.999932ZM41.8722 16.3638L67.6256 1.49509L65.888 0.504777L40.1346 15.3735L41.8722 16.3638ZM65.8908 1.49993L91.8394 16.2888L93.5715 15.2888L67.6228 0.499932L65.8908 1.49993Z" fill="#969696" mask="url(#path-3-inside-2_159_484)"/>
<mask id="path-5-inside-3_159_484" fill="white">
<path d="M41 15.7556L41 45.7556L66.8966 60.9005L66.8966 30.9005L41 15.7556Z"/>
</mask>
<path d="M41 15.7556L41 45.7556L66.8966 60.9005L66.8966 30.9005L41 15.7556Z" fill="white"/>
<path d="M41 15.7556L40.1368 15.2508L40.1368 14.2508L41 14.7556L41 15.7556ZM41 45.7556L41 46.7556L40.1368 46.2508L40.1368 45.2508L41 45.7556ZM41.8632 16.2604L41.8632 46.2604L40.1368 45.2508L40.1368 15.2508L41.8632 16.2604ZM41 44.7556L66.8966 59.9005L66.8966 61.9005L41 46.7556L41 44.7556ZM66.8966 31.9005L41 16.7556L41 14.7556L66.8966 29.9005L66.8966 31.9005Z" fill="#969696" mask="url(#path-5-inside-3_159_484)"/>
<circle cx="67.2197" cy="30.6851" r="3" fill="#2D2D2D"/>
<mask id="path-8-inside-4_159_484" fill="white">
<path d="M105.854 127.145L105.854 97.1448L131.75 81.9999L131.75 112L105.854 127.145Z"/>
</mask>
<path d="M105.854 127.145L105.854 97.1448L131.75 81.9999L131.75 112L105.854 127.145Z" fill="#F0F0F0"/>
<path d="M131.75 81.9999L132.614 81.4951L132.614 80.4951L131.75 80.9999L131.75 81.9999ZM131.75 112L131.75 113L132.614 112.495L132.614 111.495L131.75 112ZM105.854 98.1448L131.75 82.9999L131.75 80.9999L105.854 96.1448L105.854 98.1448ZM130.887 82.5047L130.887 112.505L132.614 111.495L132.614 81.4951L130.887 82.5047ZM131.75 111L105.854 126.145L105.854 128.145L131.75 113L131.75 111Z" fill="#969696" mask="url(#path-8-inside-4_159_484)"/>
<mask id="path-10-inside-5_159_484" fill="white">
<path d="M80.0034 82.1836L105.757 67.3149L131.705 82.1037L105.952 96.9724L80.0034 82.1836Z"/>
</mask>
<path d="M80.0034 82.1836L105.757 67.3149L131.705 82.1037L105.952 96.9724L80.0034 82.1836Z" fill="white"/>
<path d="M105.757 67.3149L106.623 66.8149L105.754 66.3197L104.888 66.8197L105.757 67.3149ZM80.8722 82.6787L106.626 67.81L104.888 66.8197L79.1346 81.6884L80.8722 82.6787ZM104.891 67.8149L130.839 82.6037L132.571 81.6037L106.623 66.8149L104.891 67.8149Z" fill="#969696" mask="url(#path-10-inside-5_159_484)"/>
<mask id="path-12-inside-6_159_484" fill="white">
<path d="M80 82.0706L80 112.071L105.897 127.215L105.897 97.2154L80 82.0706Z"/>
</mask>
<path d="M80 82.0706L80 112.071L105.897 127.215L105.897 97.2154L80 82.0706Z" fill="white"/>
<path d="M80 82.0706L79.1368 81.5657L79.1368 80.5657L80 81.0706L80 82.0706ZM80 112.071L80 113.071L79.1368 112.566L79.1368 111.566L80 112.071ZM80.8632 82.5754L80.8632 112.575L79.1368 111.566L79.1368 81.5657L80.8632 82.5754ZM80 111.071L105.897 126.215L105.897 128.215L80 113.071L80 111.071ZM105.897 98.2154L80 83.0706L80 81.0706L105.897 96.2154L105.897 98.2154Z" fill="#969696" mask="url(#path-12-inside-6_159_484)"/>
<circle cx="106.22" cy="97" r="3" fill="#2D2D2D"/>
<mask id="path-15-inside-7_159_484" fill="white">
<path d="M105.854 83.1448L105.854 53.1448L131.75 37.9999L131.75 67.9999L105.854 83.1448Z"/>
</mask>
<path d="M105.854 83.1448L105.854 53.1448L131.75 37.9999L131.75 67.9999L105.854 83.1448Z" fill="#F0F0F0"/>
<path d="M131.75 37.9999L132.614 37.4951L132.614 36.4951L131.75 36.9999L131.75 37.9999ZM131.75 67.9999L131.75 68.9999L132.614 68.4951L132.614 67.4951L131.75 67.9999ZM105.854 54.1448L131.75 38.9999L131.75 36.9999L105.854 52.1448L105.854 54.1448ZM130.887 38.5047L130.887 68.5047L132.614 67.4951L132.614 37.4951L130.887 38.5047ZM131.75 66.9999L105.854 82.1448L105.854 84.1448L131.75 68.9999L131.75 66.9999Z" fill="#969696" mask="url(#path-15-inside-7_159_484)"/>
<mask id="path-17-inside-8_159_484" fill="white">
<path d="M80.0034 38.1836L105.757 23.3149L131.705 38.1037L105.952 52.9724L80.0034 38.1836Z"/>
</mask>
<path d="M80.0034 38.1836L105.757 23.3149L131.705 38.1037L105.952 52.9724L80.0034 38.1836Z" fill="white"/>
<path d="M105.757 23.3149L106.623 22.8149L105.754 22.3197L104.888 22.8197L105.757 23.3149ZM80.8722 38.6787L106.626 23.81L104.888 22.8197L79.1346 37.6884L80.8722 38.6787ZM104.891 23.8149L130.839 38.6037L132.571 37.6037L106.623 22.8149L104.891 23.8149Z" fill="#969696" mask="url(#path-17-inside-8_159_484)"/>
<mask id="path-19-inside-9_159_484" fill="white">
<path d="M80 38.0706L80 68.0706L105.897 83.2154L105.897 53.2154L80 38.0706Z"/>
</mask>
<path d="M80 38.0706L80 68.0706L105.897 83.2154L105.897 53.2154L80 38.0706Z" fill="white"/>
<path d="M80 38.0706L79.1368 37.5657L79.1368 36.5657L80 37.0706L80 38.0706ZM80 68.0706L80 69.0706L79.1368 68.5657L79.1368 67.5657L80 68.0706ZM80.8632 38.5754L80.8632 68.5754L79.1368 67.5657L79.1368 37.5657L80.8632 38.5754ZM80 67.0706L105.897 82.2154L105.897 84.2154L80 69.0706L80 67.0706ZM105.897 54.2154L80 39.0706L80 37.0706L105.897 52.2154L105.897 54.2154Z" fill="#969696" mask="url(#path-19-inside-9_159_484)"/>
<circle cx="106.22" cy="53" r="3" fill="#2D2D2D"/>
<mask id="path-22-inside-10_159_484" fill="white">
<path d="M27.8538 126.83L27.8538 96.8298L53.7503 81.685L53.7503 111.685L27.8538 126.83Z"/>
</mask>
<path d="M27.8538 126.83L27.8538 96.8298L53.7503 81.685L53.7503 111.685L27.8538 126.83Z" fill="#F0F0F0"/>
<path d="M53.7503 81.685L54.6136 81.1801L54.6136 80.1801L53.7503 80.685L53.7503 81.685ZM53.7503 111.685L53.7503 112.685L54.6136 112.18L54.6136 111.18L53.7503 111.685ZM27.8538 97.8298L53.7503 82.685L53.7503 80.685L27.8538 95.8298L27.8538 97.8298ZM52.8871 82.1898L52.8871 112.19L54.6136 111.18L54.6136 81.1801L52.8871 82.1898ZM53.7503 110.685L27.8538 125.83L27.8538 127.83L53.7503 112.685L53.7503 110.685Z" fill="#969696" mask="url(#path-22-inside-10_159_484)"/>
<mask id="path-24-inside-11_159_484" fill="white">
<path d="M2.00342 81.8687L27.7568 66.9999L53.7054 81.7888L27.9521 96.6575L2.00342 81.8687Z"/>
</mask>
<path d="M2.00342 81.8687L27.7568 66.9999L53.7054 81.7888L27.9521 96.6575L2.00342 81.8687Z" fill="white"/>
<path d="M27.7568 66.9999L28.6228 66.4999L27.754 66.0048L26.888 66.5048L27.7568 66.9999ZM2.87222 82.3638L28.6256 67.4951L26.888 66.5048L1.13461 81.3735L2.87222 82.3638ZM26.8908 67.4999L52.8394 82.2888L54.5715 81.2888L28.6228 66.4999L26.8908 67.4999Z" fill="#969696" mask="url(#path-24-inside-11_159_484)"/>
<mask id="path-26-inside-12_159_484" fill="white">
<path d="M2 81.7556L2 111.756L27.8966 126.9L27.8966 96.9005L2 81.7556Z"/>
</mask>
<path d="M2 81.7556L2 111.756L27.8966 126.9L27.8966 96.9005L2 81.7556Z" fill="white"/>
<path d="M2 81.7556L1.13678 81.2508L1.13678 80.2508L2 80.7556L2 81.7556ZM2 111.756L2 112.756L1.13678 112.251L1.13678 111.251L2 111.756ZM2.86322 82.2604L2.86322 112.26L1.13678 111.251L1.13678 81.2508L2.86322 82.2604ZM2 110.756L27.8966 125.9L27.8966 127.9L2 112.756L2 110.756ZM27.8966 97.9005L2 82.7556L2 80.7556L27.8966 95.9005L27.8966 97.9005Z" fill="#969696" mask="url(#path-26-inside-12_159_484)"/>
<circle cx="28.2197" cy="96.6851" r="3" fill="#2D2D2D"/>
<mask id="path-29-inside-13_159_484" fill="white">
<path d="M27.8538 82.8298L27.8538 52.8298L53.7503 37.685L53.7503 67.685L27.8538 82.8298Z"/>
</mask>
<path d="M27.8538 82.8298L27.8538 52.8298L53.7503 37.685L53.7503 67.685L27.8538 82.8298Z" fill="#F0F0F0"/>
<path d="M53.7503 37.685L54.6136 37.1801L54.6136 36.1801L53.7503 36.685L53.7503 37.685ZM53.7503 67.685L53.7503 68.685L54.6136 68.1801L54.6136 67.1801L53.7503 67.685ZM27.8538 53.8298L53.7503 38.685L53.7503 36.685L27.8538 51.8298L27.8538 53.8298ZM52.8871 38.1898L52.8871 68.1898L54.6136 67.1801L54.6136 37.1801L52.8871 38.1898ZM53.7503 66.685L27.8538 81.8298L27.8538 83.8298L53.7503 68.685L53.7503 66.685Z" fill="#969696" mask="url(#path-29-inside-13_159_484)"/>
<mask id="path-31-inside-14_159_484" fill="white">
<path d="M2.00342 37.8687L27.7568 22.9999L53.7054 37.7888L27.9521 52.6575L2.00342 37.8687Z"/>
</mask>
<path d="M2.00342 37.8687L27.7568 22.9999L53.7054 37.7888L27.9521 52.6575L2.00342 37.8687Z" fill="white"/>
<path d="M27.7568 22.9999L28.6228 22.4999L27.754 22.0048L26.888 22.5048L27.7568 22.9999ZM2.87222 38.3638L28.6256 23.4951L26.888 22.5048L1.13461 37.3735L2.87222 38.3638ZM26.8908 23.4999L52.8394 38.2888L54.5715 37.2888L28.6228 22.4999L26.8908 23.4999Z" fill="#969696" mask="url(#path-31-inside-14_159_484)"/>
<mask id="path-33-inside-15_159_484" fill="white">
<path d="M2 37.7556L2 67.7556L27.8966 82.9005L27.8966 52.9005L2 37.7556Z"/>
</mask>
<path d="M2 37.7556L2 67.7556L27.8966 82.9005L27.8966 52.9005L2 37.7556Z" fill="white"/>
<path d="M2 37.7556L1.13678 37.2508L1.13678 36.2508L2 36.7556L2 37.7556ZM2 67.7556L2 68.7556L1.13678 68.2508L1.13678 67.2508L2 67.7556ZM2.86322 38.2604L2.86322 68.2604L1.13678 67.2508L1.13678 37.2508L2.86322 38.2604ZM2 66.7556L27.8966 81.9005L27.8966 83.9005L2 68.7556L2 66.7556ZM27.8966 53.9005L2 38.7556L2 36.7556L27.8966 51.9005L27.8966 53.9005Z" fill="#969696" mask="url(#path-33-inside-15_159_484)"/>
<circle cx="28.2197" cy="52.6851" r="3" fill="#2D2D2D"/>
<mask id="path-36-inside-16_159_484" fill="white">
<path d="M66.8538 149.145L66.8538 119.145L92.7503 104L92.7503 134L66.8538 149.145Z"/>
</mask>
<path d="M66.8538 149.145L66.8538 119.145L92.7503 104L92.7503 134L66.8538 149.145Z" fill="#F0F0F0"/>
<path d="M92.7503 104L93.6136 103.495L93.6136 102.495L92.7503 103L92.7503 104ZM92.7503 134L92.7503 135L93.6136 134.495L93.6136 133.495L92.7503 134ZM66.8538 120.145L92.7503 105L92.7503 103L66.8538 118.145L66.8538 120.145ZM91.8871 104.505L91.8871 134.505L93.6136 133.495L93.6136 103.495L91.8871 104.505ZM92.7503 133L66.8538 148.145L66.8538 150.145L92.7503 135L92.7503 133Z" fill="#969696" mask="url(#path-36-inside-16_159_484)"/>
<mask id="path-38-inside-17_159_484" fill="white">
<path d="M41.0034 104.184L66.7568 89.3149L92.7054 104.104L66.9521 118.972L41.0034 104.184Z"/>
</mask>
<path d="M41.0034 104.184L66.7568 89.3149L92.7054 104.104L66.9521 118.972L41.0034 104.184Z" fill="white"/>
<path d="M66.7568 89.3149L67.6228 88.8149L66.754 88.3197L65.888 88.8197L66.7568 89.3149ZM41.8722 104.679L67.6256 89.81L65.888 88.8197L40.1346 103.688L41.8722 104.679ZM65.8908 89.8149L91.8394 104.604L93.5715 103.604L67.6228 88.8149L65.8908 89.8149Z" fill="#969696" mask="url(#path-38-inside-17_159_484)"/>
<mask id="path-40-inside-18_159_484" fill="white">
<path d="M41 104.071L41 134.071L66.8966 149.215L66.8966 119.215L41 104.071Z"/>
</mask>
<path d="M41 104.071L41 134.071L66.8966 149.215L66.8966 119.215L41 104.071Z" fill="white"/>
<path d="M41 104.071L40.1368 103.566L40.1368 102.566L41 103.071L41 104.071ZM41 134.071L41 135.071L40.1368 134.566L40.1368 133.566L41 134.071ZM41.8632 104.575L41.8632 134.575L40.1368 133.566L40.1368 103.566L41.8632 104.575ZM41 133.071L66.8966 148.215L66.8966 150.215L41 135.071L41 133.071ZM66.8966 120.215L41 105.071L41 103.071L66.8966 118.215L66.8966 120.215Z" fill="#969696" mask="url(#path-40-inside-18_159_484)"/>
<circle cx="67.2197" cy="119" r="3" fill="#2D2D2D"/>
</svg>
