<svg width="134" height="150" viewBox="0 0 134 150" fill="none" xmlns="http://www.w3.org/2000/svg">
<mask id="path-1-inside-1_159_229" fill="white">
<path d="M66.8538 104.83L66.8538 74.8297L92.7503 59.6848L92.7503 89.6848L66.8538 104.83Z"/>
</mask>
<path d="M66.8538 104.83L66.8538 74.8297L92.7503 59.6848L92.7503 89.6848L66.8538 104.83Z" fill="#F0F0F0"/>
<path d="M92.7503 59.6848L93.6136 59.18L93.6136 58.18L92.7503 58.6848L92.7503 59.6848ZM92.7503 89.6848L92.7503 90.6848L93.6136 90.18L93.6136 89.18L92.7503 89.6848ZM66.8538 75.8297L92.7503 60.6848L92.7503 58.6848L66.8538 73.8297L66.8538 75.8297ZM91.8871 60.1897L91.8871 90.1897L93.6136 89.18L93.6136 59.18L91.8871 60.1897ZM92.7503 88.6848L66.8538 103.83L66.8538 105.83L92.7503 90.6848L92.7503 88.6848Z" fill="#969696" mask="url(#path-1-inside-1_159_229)"/>
<mask id="path-3-inside-2_159_229" fill="white">
<path d="M41.0034 59.8688L66.7568 45.0001L92.7054 59.7889L66.9521 74.6576L41.0034 59.8688Z"/>
</mask>
<path d="M41.0034 59.8688L66.7568 45.0001L92.7054 59.7889L66.9521 74.6576L41.0034 59.8688Z" fill="white"/>
<path d="M66.7568 45.0001L67.6228 44.5001L66.754 44.0049L65.888 44.5049L66.7568 45.0001ZM41.8722 60.3639L67.6256 45.4952L65.888 44.5049L40.1346 59.3736L41.8722 60.3639ZM65.8908 45.5001L91.8394 60.2889L93.5715 59.2889L67.6228 44.5001L65.8908 45.5001Z" fill="#969696" mask="url(#path-3-inside-2_159_229)"/>
<mask id="path-5-inside-3_159_229" fill="white">
<path d="M41 59.7557L41 89.7557L66.8966 104.901L66.8966 74.9006L41 59.7557Z"/>
</mask>
<path d="M41 59.7557L41 89.7557L66.8966 104.901L66.8966 74.9006L41 59.7557Z" fill="white"/>
<path d="M41 59.7557L40.1368 59.2509L40.1368 58.2509L41 58.7557L41 59.7557ZM41 89.7557L41 90.7557L40.1368 90.2509L40.1368 89.2509L41 89.7557ZM41.8632 60.2606L41.8632 90.2606L40.1368 89.2509L40.1368 59.2509L41.8632 60.2606ZM41 88.7557L66.8966 103.901L66.8966 105.901L41 90.7557L41 88.7557ZM66.8966 75.9006L41 60.7557L41 58.7557L66.8966 73.9006L66.8966 75.9006Z" fill="#969696" mask="url(#path-5-inside-3_159_229)"/>
<circle cx="67.2197" cy="74.6849" r="3" fill="#2D2D2D"/>
<mask id="path-8-inside-4_159_229" fill="white">
<path d="M66.8538 60.8297L66.8538 30.8297L92.7503 15.6848L92.7503 45.6848L66.8538 60.8297Z"/>
</mask>
<path d="M66.8538 60.8297L66.8538 30.8297L92.7503 15.6848L92.7503 45.6848L66.8538 60.8297Z" fill="#F0F0F0"/>
<path d="M92.7503 15.6848L93.6136 15.18L93.6136 14.18L92.7503 14.6848L92.7503 15.6848ZM92.7503 45.6848L92.7503 46.6848L93.6136 46.18L93.6136 45.18L92.7503 45.6848ZM66.8538 31.8297L92.7503 16.6848L92.7503 14.6848L66.8538 29.8297L66.8538 31.8297ZM91.8871 16.1897L91.8871 46.1897L93.6136 45.18L93.6136 15.18L91.8871 16.1897ZM92.7503 44.6848L66.8538 59.8297L66.8538 61.8297L92.7503 46.6848L92.7503 44.6848Z" fill="#969696" mask="url(#path-8-inside-4_159_229)"/>
<mask id="path-10-inside-5_159_229" fill="white">
<path d="M41.0034 15.8688L66.7568 1.00005L92.7054 15.7889L66.9521 30.6576L41.0034 15.8688Z"/>
</mask>
<path d="M41.0034 15.8688L66.7568 1.00005L92.7054 15.7889L66.9521 30.6576L41.0034 15.8688Z" fill="white"/>
<path d="M66.7568 1.00005L67.6228 0.500054L66.754 0.00489897L65.888 0.504899L66.7568 1.00005ZM41.8722 16.3639L67.6256 1.49521L65.888 0.504899L40.1346 15.3736L41.8722 16.3639ZM65.8908 1.50005L91.8394 16.2889L93.5715 15.2889L67.6228 0.500054L65.8908 1.50005Z" fill="#969696" mask="url(#path-10-inside-5_159_229)"/>
<mask id="path-12-inside-6_159_229" fill="white">
<path d="M41 15.7557L41 45.7557L66.8966 60.9006L66.8966 30.9006L41 15.7557Z"/>
</mask>
<path d="M41 15.7557L41 45.7557L66.8966 60.9006L66.8966 30.9006L41 15.7557Z" fill="white"/>
<path d="M41 15.7557L40.1368 15.2509L40.1368 14.2509L41 14.7557L41 15.7557ZM41 45.7557L41 46.7557L40.1368 46.2509L40.1368 45.2509L41 45.7557ZM41.8632 16.2606L41.8632 46.2606L40.1368 45.2509L40.1368 15.2509L41.8632 16.2606ZM41 44.7557L66.8966 59.9006L66.8966 61.9006L41 46.7557L41 44.7557ZM66.8966 31.9006L41 16.7557L41 14.7557L66.8966 29.9006L66.8966 31.9006Z" fill="#969696" mask="url(#path-12-inside-6_159_229)"/>
<circle cx="67.2197" cy="30.6849" r="3" fill="#2D2D2D"/>
<mask id="path-15-inside-7_159_229" fill="white">
<path d="M105.854 127.145L105.854 97.1448L131.75 81.9999L131.75 112L105.854 127.145Z"/>
</mask>
<path d="M105.854 127.145L105.854 97.1448L131.75 81.9999L131.75 112L105.854 127.145Z" fill="#F0F0F0"/>
<path d="M131.75 81.9999L132.614 81.4951L132.614 80.4951L131.75 80.9999L131.75 81.9999ZM131.75 112L131.75 113L132.614 112.495L132.614 111.495L131.75 112ZM105.854 98.1448L131.75 82.9999L131.75 80.9999L105.854 96.1448L105.854 98.1448ZM130.887 82.5047L130.887 112.505L132.614 111.495L132.614 81.4951L130.887 82.5047ZM131.75 111L105.854 126.145L105.854 128.145L131.75 113L131.75 111Z" fill="#969696" mask="url(#path-15-inside-7_159_229)"/>
<mask id="path-17-inside-8_159_229" fill="white">
<path d="M80.0034 82.1838L105.757 67.3151L131.705 82.104L105.952 96.9727L80.0034 82.1838Z"/>
</mask>
<path d="M80.0034 82.1838L105.757 67.3151L131.705 82.104L105.952 96.9727L80.0034 82.1838Z" fill="white"/>
<path d="M105.757 67.3151L106.623 66.8151L105.754 66.32L104.888 66.82L105.757 67.3151ZM80.8722 82.679L106.626 67.8103L104.888 66.82L79.1346 81.6887L80.8722 82.679ZM104.891 67.8151L130.839 82.604L132.571 81.604L106.623 66.8151L104.891 67.8151Z" fill="#969696" mask="url(#path-17-inside-8_159_229)"/>
<mask id="path-19-inside-9_159_229" fill="white">
<path d="M80 82.0708L80 112.071L105.897 127.216L105.897 97.2157L80 82.0708Z"/>
</mask>
<path d="M80 82.0708L80 112.071L105.897 127.216L105.897 97.2157L80 82.0708Z" fill="white"/>
<path d="M80 82.0708L79.1368 81.566L79.1368 80.566L80 81.0708L80 82.0708ZM80 112.071L80 113.071L79.1368 112.566L79.1368 111.566L80 112.071ZM80.8632 82.5756L80.8632 112.576L79.1368 111.566L79.1368 81.566L80.8632 82.5756ZM80 111.071L105.897 126.216L105.897 128.216L80 113.071L80 111.071ZM105.897 98.2157L80 83.0708L80 81.0708L105.897 96.2157L105.897 98.2157Z" fill="#969696" mask="url(#path-19-inside-9_159_229)"/>
<circle cx="106.22" cy="97" r="3" fill="#2D2D2D"/>
<mask id="path-22-inside-10_159_229" fill="white">
<path d="M105.854 83.1448L105.854 53.1448L131.75 37.9999L131.75 67.9999L105.854 83.1448Z"/>
</mask>
<path d="M105.854 83.1448L105.854 53.1448L131.75 37.9999L131.75 67.9999L105.854 83.1448Z" fill="#F0F0F0"/>
<path d="M131.75 37.9999L132.614 37.4951L132.614 36.4951L131.75 36.9999L131.75 37.9999ZM131.75 67.9999L131.75 68.9999L132.614 68.4951L132.614 67.4951L131.75 67.9999ZM105.854 54.1448L131.75 38.9999L131.75 36.9999L105.854 52.1448L105.854 54.1448ZM130.887 38.5047L130.887 68.5047L132.614 67.4951L132.614 37.4951L130.887 38.5047ZM131.75 66.9999L105.854 82.1448L105.854 84.1448L131.75 68.9999L131.75 66.9999Z" fill="#969696" mask="url(#path-22-inside-10_159_229)"/>
<mask id="path-24-inside-11_159_229" fill="white">
<path d="M80.0034 38.1838L105.757 23.3151L131.705 38.104L105.952 52.9727L80.0034 38.1838Z"/>
</mask>
<path d="M80.0034 38.1838L105.757 23.3151L131.705 38.104L105.952 52.9727L80.0034 38.1838Z" fill="white"/>
<path d="M105.757 23.3151L106.623 22.8151L105.754 22.32L104.888 22.82L105.757 23.3151ZM80.8722 38.679L106.626 23.8103L104.888 22.82L79.1346 37.6887L80.8722 38.679ZM104.891 23.8151L130.839 38.604L132.571 37.604L106.623 22.8151L104.891 23.8151Z" fill="#969696" mask="url(#path-24-inside-11_159_229)"/>
<mask id="path-26-inside-12_159_229" fill="white">
<path d="M80 38.0708L80 68.0708L105.897 83.2157L105.897 53.2157L80 38.0708Z"/>
</mask>
<path d="M80 38.0708L80 68.0708L105.897 83.2157L105.897 53.2157L80 38.0708Z" fill="white"/>
<path d="M80 38.0708L79.1368 37.566L79.1368 36.566L80 37.0708L80 38.0708ZM80 68.0708L80 69.0708L79.1368 68.566L79.1368 67.566L80 68.0708ZM80.8632 38.5756L80.8632 68.5756L79.1368 67.566L79.1368 37.566L80.8632 38.5756ZM80 67.0708L105.897 82.2157L105.897 84.2157L80 69.0708L80 67.0708ZM105.897 54.2157L80 39.0708L80 37.0708L105.897 52.2157L105.897 54.2157Z" fill="#969696" mask="url(#path-26-inside-12_159_229)"/>
<circle cx="106.22" cy="53" r="3" fill="#2D2D2D"/>
<mask id="path-29-inside-13_159_229" fill="white">
<path d="M27.8538 126.83L27.8538 96.8297L53.7503 81.6848L53.7503 111.685L27.8538 126.83Z"/>
</mask>
<path d="M27.8538 126.83L27.8538 96.8297L53.7503 81.6848L53.7503 111.685L27.8538 126.83Z" fill="#F0F0F0"/>
<path d="M53.7503 81.6848L54.6136 81.18L54.6136 80.18L53.7503 80.6848L53.7503 81.6848ZM53.7503 111.685L53.7503 112.685L54.6136 112.18L54.6136 111.18L53.7503 111.685ZM27.8538 97.8297L53.7503 82.6848L53.7503 80.6848L27.8538 95.8297L27.8538 97.8297ZM52.8871 82.1897L52.8871 112.19L54.6136 111.18L54.6136 81.18L52.8871 82.1897ZM53.7503 110.685L27.8538 125.83L27.8538 127.83L53.7503 112.685L53.7503 110.685Z" fill="#969696" mask="url(#path-29-inside-13_159_229)"/>
<mask id="path-31-inside-14_159_229" fill="white">
<path d="M2.00342 81.8688L27.7568 67.0001L53.7054 81.7889L27.9521 96.6576L2.00342 81.8688Z"/>
</mask>
<path d="M2.00342 81.8688L27.7568 67.0001L53.7054 81.7889L27.9521 96.6576L2.00342 81.8688Z" fill="white"/>
<path d="M27.7568 67.0001L28.6228 66.5001L27.754 66.0049L26.888 66.5049L27.7568 67.0001ZM2.87222 82.3639L28.6256 67.4952L26.888 66.5049L1.13461 81.3736L2.87222 82.3639ZM26.8908 67.5001L52.8394 82.2889L54.5715 81.2889L28.6228 66.5001L26.8908 67.5001Z" fill="#969696" mask="url(#path-31-inside-14_159_229)"/>
<mask id="path-33-inside-15_159_229" fill="white">
<path d="M2 81.7557L2 111.756L27.8966 126.901L27.8966 96.9006L2 81.7557Z"/>
</mask>
<path d="M2 81.7557L2 111.756L27.8966 126.901L27.8966 96.9006L2 81.7557Z" fill="white"/>
<path d="M2 81.7557L1.13678 81.2509L1.13678 80.2509L2 80.7557L2 81.7557ZM2 111.756L2 112.756L1.13678 112.251L1.13678 111.251L2 111.756ZM2.86322 82.2606L2.86322 112.261L1.13678 111.251L1.13678 81.2509L2.86322 82.2606ZM2 110.756L27.8966 125.901L27.8966 127.901L2 112.756L2 110.756ZM27.8966 97.9006L2 82.7557L2 80.7557L27.8966 95.9006L27.8966 97.9006Z" fill="#969696" mask="url(#path-33-inside-15_159_229)"/>
<circle cx="28.2197" cy="96.6849" r="3" fill="#2D2D2D"/>
<mask id="path-36-inside-16_159_229" fill="white">
<path d="M27.8538 82.8297L27.8538 52.8297L53.7503 37.6848L53.7503 67.6848L27.8538 82.8297Z"/>
</mask>
<path d="M27.8538 82.8297L27.8538 52.8297L53.7503 37.6848L53.7503 67.6848L27.8538 82.8297Z" fill="#F0F0F0"/>
<path d="M53.7503 37.6848L54.6136 37.18L54.6136 36.18L53.7503 36.6848L53.7503 37.6848ZM53.7503 67.6848L53.7503 68.6848L54.6136 68.18L54.6136 67.18L53.7503 67.6848ZM27.8538 53.8297L53.7503 38.6848L53.7503 36.6848L27.8538 51.8297L27.8538 53.8297ZM52.8871 38.1897L52.8871 68.1897L54.6136 67.18L54.6136 37.18L52.8871 38.1897ZM53.7503 66.6848L27.8538 81.8297L27.8538 83.8297L53.7503 68.6848L53.7503 66.6848Z" fill="#969696" mask="url(#path-36-inside-16_159_229)"/>
<mask id="path-38-inside-17_159_229" fill="white">
<path d="M2.00342 37.8688L27.7568 23.0001L53.7054 37.7889L27.9521 52.6576L2.00342 37.8688Z"/>
</mask>
<path d="M2.00342 37.8688L27.7568 23.0001L53.7054 37.7889L27.9521 52.6576L2.00342 37.8688Z" fill="white"/>
<path d="M27.7568 23.0001L28.6228 22.5001L27.754 22.0049L26.888 22.5049L27.7568 23.0001ZM2.87222 38.3639L28.6256 23.4952L26.888 22.5049L1.13461 37.3736L2.87222 38.3639ZM26.8908 23.5001L52.8394 38.2889L54.5715 37.2889L28.6228 22.5001L26.8908 23.5001Z" fill="#969696" mask="url(#path-38-inside-17_159_229)"/>
<mask id="path-40-inside-18_159_229" fill="white">
<path d="M2 37.7557L2 67.7557L27.8966 82.9006L27.8966 52.9006L2 37.7557Z"/>
</mask>
<path d="M2 37.7557L2 67.7557L27.8966 82.9006L27.8966 52.9006L2 37.7557Z" fill="white"/>
<path d="M2 37.7557L1.13678 37.2509L1.13678 36.2509L2 36.7557L2 37.7557ZM2 67.7557L2 68.7557L1.13678 68.2509L1.13678 67.2509L2 67.7557ZM2.86322 38.2606L2.86322 68.2606L1.13678 67.2509L1.13678 37.2509L2.86322 38.2606ZM2 66.7557L27.8966 81.9006L27.8966 83.9006L2 68.7557L2 66.7557ZM27.8966 53.9006L2 38.7557L2 36.7557L27.8966 51.9006L27.8966 53.9006Z" fill="#969696" mask="url(#path-40-inside-18_159_229)"/>
<circle cx="28.2197" cy="52.6849" r="3" fill="#2D2D2D"/>
<mask id="path-43-inside-19_159_229" fill="white">
<path d="M66.8538 149.145L66.8538 119.145L92.7503 104L92.7503 134L66.8538 149.145Z"/>
</mask>
<path d="M66.8538 149.145L66.8538 119.145L92.7503 104L92.7503 134L66.8538 149.145Z" fill="#F0F0F0"/>
<path d="M92.7503 104L93.6136 103.495L93.6136 102.495L92.7503 103L92.7503 104ZM92.7503 134L92.7503 135L93.6136 134.495L93.6136 133.495L92.7503 134ZM66.8538 120.145L92.7503 105L92.7503 103L66.8538 118.145L66.8538 120.145ZM91.8871 104.505L91.8871 134.505L93.6136 133.495L93.6136 103.495L91.8871 104.505ZM92.7503 133L66.8538 148.145L66.8538 150.145L92.7503 135L92.7503 133Z" fill="#969696" mask="url(#path-43-inside-19_159_229)"/>
<mask id="path-45-inside-20_159_229" fill="white">
<path d="M41.0034 104.184L66.7568 89.3151L92.7054 104.104L66.9521 118.973L41.0034 104.184Z"/>
</mask>
<path d="M41.0034 104.184L66.7568 89.3151L92.7054 104.104L66.9521 118.973L41.0034 104.184Z" fill="white"/>
<path d="M66.7568 89.3151L67.6228 88.8151L66.754 88.32L65.888 88.82L66.7568 89.3151ZM41.8722 104.679L67.6256 89.8103L65.888 88.82L40.1346 103.689L41.8722 104.679ZM65.8908 89.8151L91.8394 104.604L93.5715 103.604L67.6228 88.8151L65.8908 89.8151Z" fill="#969696" mask="url(#path-45-inside-20_159_229)"/>
<mask id="path-47-inside-21_159_229" fill="white">
<path d="M41 104.071L41 134.071L66.8966 149.216L66.8966 119.216L41 104.071Z"/>
</mask>
<path d="M41 104.071L41 134.071L66.8966 149.216L66.8966 119.216L41 104.071Z" fill="white"/>
<path d="M41 104.071L40.1368 103.566L40.1368 102.566L41 103.071L41 104.071ZM41 134.071L41 135.071L40.1368 134.566L40.1368 133.566L41 134.071ZM41.8632 104.576L41.8632 134.576L40.1368 133.566L40.1368 103.566L41.8632 104.576ZM41 133.071L66.8966 148.216L66.8966 150.216L41 135.071L41 133.071ZM66.8966 120.216L41 105.071L41 103.071L66.8966 118.216L66.8966 120.216Z" fill="#969696" mask="url(#path-47-inside-21_159_229)"/>
<circle cx="67.2197" cy="119" r="3" fill="#2D2D2D"/>
<mask id="path-50-inside-22_159_229" fill="white">
<path d="M66.8538 105.145L66.8538 75.1448L92.7503 59.9999L92.7503 89.9999L66.8538 105.145Z"/>
</mask>
<path d="M66.8538 105.145L66.8538 75.1448L92.7503 59.9999L92.7503 89.9999L66.8538 105.145Z" fill="#F0F0F0"/>
<path d="M92.7503 59.9999L93.6136 59.4951L93.6136 58.4951L92.7503 58.9999L92.7503 59.9999ZM92.7503 89.9999L92.7503 90.9999L93.6136 90.4951L93.6136 89.4951L92.7503 89.9999ZM66.8538 76.1448L92.7503 60.9999L92.7503 58.9999L66.8538 74.1448L66.8538 76.1448ZM91.8871 60.5047L91.8871 90.5047L93.6136 89.4951L93.6136 59.4951L91.8871 60.5047ZM92.7503 88.9999L66.8538 104.145L66.8538 106.145L92.7503 90.9999L92.7503 88.9999Z" fill="#969696" mask="url(#path-50-inside-22_159_229)"/>
<mask id="path-52-inside-23_159_229" fill="white">
<path d="M41.0034 60.1838L66.7568 45.3151L92.7054 60.104L66.9521 74.9727L41.0034 60.1838Z"/>
</mask>
<path d="M41.0034 60.1838L66.7568 45.3151L92.7054 60.104L66.9521 74.9727L41.0034 60.1838Z" fill="white"/>
<path d="M66.7568 45.3151L67.6228 44.8151L66.754 44.32L65.888 44.82L66.7568 45.3151ZM41.8722 60.679L67.6256 45.8103L65.888 44.82L40.1346 59.6887L41.8722 60.679ZM65.8908 45.8151L91.8394 60.604L93.5715 59.604L67.6228 44.8151L65.8908 45.8151Z" fill="#969696" mask="url(#path-52-inside-23_159_229)"/>
<mask id="path-54-inside-24_159_229" fill="white">
<path d="M41 60.0708L41 90.0708L66.8966 105.216L66.8966 75.2157L41 60.0708Z"/>
</mask>
<path d="M41 60.0708L41 90.0708L66.8966 105.216L66.8966 75.2157L41 60.0708Z" fill="white"/>
<path d="M41 60.0708L40.1368 59.566L40.1368 58.566L41 59.0708L41 60.0708ZM41 90.0708L41 91.0708L40.1368 90.566L40.1368 89.566L41 90.0708ZM41.8632 60.5756L41.8632 90.5756L40.1368 89.566L40.1368 59.566L41.8632 60.5756ZM41 89.0708L66.8966 104.216L66.8966 106.216L41 91.0708L41 89.0708ZM66.8966 76.2157L41 61.0708L41 59.0708L66.8966 74.2157L66.8966 76.2157Z" fill="#969696" mask="url(#path-54-inside-24_159_229)"/>
<circle cx="67.2197" cy="75" r="3" fill="#2D2D2D"/>
</svg>
