<svg width="134" height="150" viewBox="0 0 134 150" fill="none" xmlns="http://www.w3.org/2000/svg">
<mask id="path-1-inside-1_159_95" fill="white">
<path d="M66.8539 100.716L66.8539 36.2283L93.9459 20.3843L93.9459 84.8718L66.8539 100.716Z"/>
</mask>
<path d="M66.8539 100.716L66.8539 36.2283L93.9459 20.3843L93.9459 84.8718L66.8539 100.716Z" fill="#F0F0F0"/>
<path d="M93.9459 20.3843L94.8092 19.8794L94.8092 18.8794L93.9459 19.3843L93.9459 20.3843ZM93.9459 84.8718L93.9459 85.8718L94.8092 85.367L94.8092 84.367L93.9459 84.8718ZM66.8539 37.2283L93.9459 21.3843L93.9459 19.3843L66.8539 35.2283L66.8539 37.2283ZM93.0827 20.8891L93.0827 85.3766L94.8092 84.367L94.8092 19.8794L93.0827 20.8891ZM93.9459 83.8718L66.8539 99.7158L66.8539 101.716L93.9459 85.8718L93.9459 83.8718Z" fill="#969696" mask="url(#path-1-inside-1_159_95)"/>
<mask id="path-3-inside-2_159_95" fill="white">
<path d="M40.3549 20.282L66.8241 4.99996L94.1329 20.564L67.6636 35.846L40.3549 20.282Z"/>
</mask>
<path d="M66.8241 4.99996L67.6901 4.49996L66.8213 4.00481L65.9553 4.50481L66.8241 4.99996ZM41.2237 20.7771L67.6929 5.49512L65.9553 4.50481L39.4861 19.7868L41.2237 20.7771ZM65.9581 5.49996L93.2668 21.064L94.9989 20.064L67.6901 4.49996L65.9581 5.49996Z" fill="#969696" mask="url(#path-3-inside-2_159_95)"/>
<mask id="path-5-inside-3_159_95" fill="white">
<path d="M40.2196 20.198L40.2196 84.7312L67.3454 100.595L67.3454 36.0617L40.2196 20.198Z"/>
</mask>
<path d="M40.2196 20.198L39.3564 19.6932L39.3564 18.6932L40.2196 19.198L40.2196 20.198ZM40.2196 84.7312L40.2196 85.7312L39.3564 85.2264L39.3564 84.2264L40.2196 84.7312ZM41.0828 20.7028L41.0828 85.236L39.3564 84.2264L39.3564 19.6932L41.0828 20.7028ZM40.2196 83.7312L67.3454 99.5949L67.3454 101.595L40.2196 85.7312L40.2196 83.7312ZM67.3454 37.0617L40.2196 21.198L40.2196 19.198L67.3454 35.0617L67.3454 37.0617Z" fill="#969696" mask="url(#path-5-inside-3_159_95)"/>
<circle cx="67.2196" cy="36.0002" r="3" fill="#2D2D2D"/>
<mask id="path-8-inside-4_159_95" fill="white">
<path d="M28.8539 122.716L28.8539 77.4258L55.9459 61.5818L55.9459 106.872L28.8539 122.716Z"/>
</mask>
<path d="M28.8539 122.716L28.8539 77.4258L55.9459 61.5818L55.9459 106.872L28.8539 122.716Z" fill="#F0F0F0"/>
<path d="M55.9459 61.5818L56.8092 61.077L56.8092 60.077L55.9459 60.5818L55.9459 61.5818ZM55.9459 106.872L55.9459 107.872L56.8092 107.367L56.8092 106.367L55.9459 106.872ZM28.8539 78.4258L55.9459 62.5818L55.9459 60.5818L28.8539 76.4258L28.8539 78.4258ZM55.0827 62.0866L55.0827 107.377L56.8092 106.367L56.8092 61.077L55.0827 62.0866ZM55.9459 105.872L28.8539 121.716L28.8539 123.716L55.9459 107.872L55.9459 105.872Z" fill="#969696" mask="url(#path-8-inside-4_159_95)"/>
<mask id="path-10-inside-5_159_95" fill="white">
<path d="M2 61.4866L28.824 45.9997L56.0436 61.5129L29.2196 76.9997L2 61.4866Z"/>
</mask>
<path d="M2 61.4866L28.824 45.9997L56.0436 61.5129L29.2196 76.9997L2 61.4866Z" fill="white"/>
<path d="M28.824 45.9997L29.6901 45.4997L28.8213 45.0046L27.9552 45.5046L28.824 45.9997ZM2.8688 61.9817L29.6928 46.4949L27.9552 45.5046L1.1312 60.9914L2.8688 61.9817ZM27.958 46.4997L55.1776 62.0129L56.9096 61.0129L29.6901 45.4997L27.958 46.4997Z" fill="#969696" mask="url(#path-10-inside-5_159_95)"/>
<mask id="path-12-inside-6_159_95" fill="white">
<path d="M2.2196 62.0715L2.21961 106.731L29.3454 122.595L29.3454 77.9353L2.2196 62.0715Z"/>
</mask>
<path d="M2.2196 62.0715L1.35639 61.5667L1.35639 60.5667L2.2196 61.0715L2.2196 62.0715ZM2.21961 106.731L2.21961 107.731L1.35639 107.226L1.35639 106.226L2.21961 106.731ZM3.08282 62.5764L3.08283 107.236L1.35639 106.226L1.35639 61.5667L3.08282 62.5764ZM2.21961 105.731L29.3454 121.595L29.3454 123.595L2.21961 107.731L2.21961 105.731ZM29.3454 78.9353L2.2196 63.0715L2.2196 61.0715L29.3454 76.9353L29.3454 78.9353Z" fill="#969696" mask="url(#path-12-inside-6_159_95)"/>
<circle cx="29.2196" cy="77" r="3" fill="#2D2D2D"/>
<mask id="path-15-inside-7_159_95" fill="white">
<path d="M104.854 122.716L104.854 77.5993L131.946 61.7553L131.946 106.872L104.854 122.716Z"/>
</mask>
<path d="M104.854 122.716L104.854 77.5993L131.946 61.7553L131.946 106.872L104.854 122.716Z" fill="#F0F0F0"/>
<path d="M131.946 61.7553L132.809 61.2505L132.809 60.2505L131.946 60.7553L131.946 61.7553ZM131.946 106.872L131.946 107.872L132.809 107.367L132.809 106.367L131.946 106.872ZM104.854 78.5993L131.946 62.7553L131.946 60.7553L104.854 76.5993L104.854 78.5993ZM131.083 62.2601L131.083 107.377L132.809 106.367L132.809 61.2505L131.083 62.2601ZM131.946 105.872L104.854 121.716L104.854 123.716L131.946 107.872L131.946 105.872Z" fill="#969696" mask="url(#path-15-inside-7_159_95)"/>
<mask id="path-17-inside-8_159_95" fill="white">
<path d="M78 61.4868L104.824 46L132.044 61.5131L105.22 77L78 61.4868Z"/>
</mask>
<path d="M78 61.4868L104.824 46L132.044 61.5131L105.22 77L78 61.4868Z" fill="white"/>
<path d="M104.824 46L105.69 45.5L104.821 45.0048L103.955 45.5048L104.824 46ZM78.8688 61.982L105.693 46.4951L103.955 45.5048L77.1312 60.9917L78.8688 61.982ZM103.958 46.5L131.178 62.0131L132.91 61.0131L105.69 45.5L103.958 46.5Z" fill="#969696" mask="url(#path-17-inside-8_159_95)"/>
<mask id="path-19-inside-9_159_95" fill="white">
<path d="M78.2196 61.4456L78.2196 106.731L105.345 122.595L105.345 77.3093L78.2196 61.4456Z"/>
</mask>
<path d="M78.2196 61.4456L78.2196 106.731L105.345 122.595L105.345 77.3093L78.2196 61.4456Z" fill="white"/>
<path d="M78.2196 61.4456L77.3564 60.9407L77.3564 59.9407L78.2196 60.4456L78.2196 61.4456ZM78.2196 106.731L78.2196 107.731L77.3564 107.226L77.3564 106.226L78.2196 106.731ZM79.0828 61.9504L79.0828 107.236L77.3564 106.226L77.3564 60.9407L79.0828 61.9504ZM78.2196 105.731L105.345 121.595L105.345 123.595L78.2196 107.731L78.2196 105.731ZM105.345 78.3093L78.2196 62.4456L78.2196 60.4456L105.345 76.3093L105.345 78.3093Z" fill="#969696" mask="url(#path-19-inside-9_159_95)"/>
<circle cx="105.22" cy="77.0002" r="3" fill="#2D2D2D"/>
<mask id="path-22-inside-10_159_95" fill="white">
<path d="M66.8539 144.716L66.8539 116.344L93.9459 100.5L93.9459 128.872L66.8539 144.716Z"/>
</mask>
<path d="M66.8539 144.716L66.8539 116.344L93.9459 100.5L93.9459 128.872L66.8539 144.716Z" fill="#F0F0F0"/>
<path d="M93.9459 100.5L94.8092 99.9956L94.8092 98.9956L93.9459 99.5004L93.9459 100.5ZM93.9459 128.872L93.9459 129.872L94.8092 129.367L94.8092 128.367L93.9459 128.872ZM66.8539 117.344L93.9459 101.5L93.9459 99.5004L66.8539 115.344L66.8539 117.344ZM93.0827 101.005L93.0827 129.377L94.8092 128.367L94.8092 99.9956L93.0827 101.005ZM93.9459 127.872L66.8539 143.716L66.8539 145.716L93.9459 129.872L93.9459 127.872Z" fill="#969696" mask="url(#path-22-inside-10_159_95)"/>
<mask id="path-24-inside-11_159_95" fill="white">
<path d="M40 100.487L66.824 85L94.0436 100.513L67.2196 116L40 100.487Z"/>
</mask>
<path d="M40 100.487L66.824 85L94.0436 100.513L67.2196 116L40 100.487Z" fill="white"/>
<path d="M66.824 85L67.6901 84.5L66.8213 84.0048L65.9552 84.5048L66.824 85ZM40.8688 100.982L67.6928 85.4951L65.9552 84.5048L39.1312 99.9917L40.8688 100.982ZM65.958 85.5L93.1776 101.013L94.9096 100.013L67.6901 84.5L65.958 85.5Z" fill="#969696" mask="url(#path-24-inside-11_159_95)"/>
<mask id="path-26-inside-12_159_95" fill="white">
<path d="M40.2196 100.477L40.2196 128.731L67.3454 144.595L67.3454 116.341L40.2196 100.477Z"/>
</mask>
<path d="M40.2196 100.477L40.2196 128.731L67.3454 144.595L67.3454 116.341L40.2196 100.477Z" fill="white"/>
<path d="M40.2196 100.477L39.3564 99.972L39.3564 98.972L40.2196 99.4768L40.2196 100.477ZM40.2196 128.731L40.2196 129.731L39.3564 129.227L39.3564 128.227L40.2196 128.731ZM41.0828 100.982L41.0828 129.236L39.3564 128.227L39.3564 99.972L41.0828 100.982ZM40.2196 127.731L67.3454 143.595L67.3454 145.595L40.2196 129.731L40.2196 127.731ZM67.3454 117.341L40.2196 101.477L40.2196 99.4768L67.3454 115.341L67.3454 117.341Z" fill="#969696" mask="url(#path-26-inside-12_159_95)"/>
<circle cx="67.2196" cy="116" r="3" fill="#2D2D2D"/>
</svg>
