<svg width="134" height="150" viewBox="0 0 134 150" fill="none" xmlns="http://www.w3.org/2000/svg">
<mask id="path-1-inside-1_159_117" fill="white">
<path d="M66.8539 100.716L66.8539 36.2283L93.9459 20.3843L93.9459 84.8718L66.8539 100.716Z"/>
</mask>
<path d="M66.8539 100.716L66.8539 36.2283L93.9459 20.3843L93.9459 84.8718L66.8539 100.716Z" fill="#F0F0F0"/>
<path d="M93.9459 20.3843L94.8092 19.8794L94.8092 18.8794L93.9459 19.3843L93.9459 20.3843ZM93.9459 84.8718L93.9459 85.8718L94.8092 85.367L94.8092 84.367L93.9459 84.8718ZM66.8539 37.2283L93.9459 21.3843L93.9459 19.3843L66.8539 35.2283L66.8539 37.2283ZM93.0827 20.8891L93.0827 85.3766L94.8092 84.367L94.8092 19.8794L93.0827 20.8891ZM93.9459 83.8718L66.8539 99.7158L66.8539 101.716L93.9459 85.8718L93.9459 83.8718Z" fill="#969696" mask="url(#path-1-inside-1_159_117)"/>
<mask id="path-3-inside-2_159_117" fill="white">
<path d="M40.3549 20.282L66.8241 4.99996L94.1329 20.564L67.6636 35.846L40.3549 20.282Z"/>
</mask>
<path d="M66.8241 4.99996L67.6901 4.49996L66.8213 4.00481L65.9553 4.50481L66.8241 4.99996ZM41.2237 20.7771L67.6929 5.49512L65.9553 4.50481L39.4861 19.7868L41.2237 20.7771ZM65.9581 5.49996L93.2668 21.064L94.9989 20.064L67.6901 4.49996L65.9581 5.49996Z" fill="#969696" mask="url(#path-3-inside-2_159_117)"/>
<mask id="path-5-inside-3_159_117" fill="white">
<path d="M40.2196 20.198L40.2196 84.7312L67.3454 100.595L67.3454 36.0617L40.2196 20.198Z"/>
</mask>
<path d="M40.2196 20.198L39.3564 19.6932L39.3564 18.6932L40.2196 19.198L40.2196 20.198ZM40.2196 84.7312L40.2196 85.7312L39.3564 85.2264L39.3564 84.2264L40.2196 84.7312ZM41.0828 20.7028L41.0828 85.236L39.3564 84.2264L39.3564 19.6932L41.0828 20.7028ZM40.2196 83.7312L67.3454 99.5949L67.3454 101.595L40.2196 85.7312L40.2196 83.7312ZM67.3454 37.0617L40.2196 21.198L40.2196 19.198L67.3454 35.0617L67.3454 37.0617Z" fill="#969696" mask="url(#path-5-inside-3_159_117)"/>
<circle cx="67.2196" cy="36.0002" r="3" fill="#2D2D2D"/>
<mask id="path-8-inside-4_159_117" fill="white">
<path d="M28.8539 122.716L28.8539 58.2283L55.9459 42.3843L55.9459 106.872L28.8539 122.716Z"/>
</mask>
<path d="M28.8539 122.716L28.8539 58.2283L55.9459 42.3843L55.9459 106.872L28.8539 122.716Z" fill="#F0F0F0"/>
<path d="M55.9459 42.3843L56.8092 41.8794L56.8092 40.8794L55.9459 41.3843L55.9459 42.3843ZM55.9459 106.872L55.9459 107.872L56.8092 107.367L56.8092 106.367L55.9459 106.872ZM28.8539 59.2283L55.9459 43.3843L55.9459 41.3843L28.8539 57.2283L28.8539 59.2283ZM55.0827 42.8891L55.0827 107.377L56.8092 106.367L56.8092 41.8794L55.0827 42.8891ZM55.9459 105.872L28.8539 121.716L28.8539 123.716L55.9459 107.872L55.9459 105.872Z" fill="#969696" mask="url(#path-8-inside-4_159_117)"/>
<mask id="path-10-inside-5_159_117" fill="white">
<path d="M2 42.4868L28.824 27L56.0436 42.5131L29.2196 58L2 42.4868Z"/>
</mask>
<path d="M2 42.4868L28.824 27L56.0436 42.5131L29.2196 58L2 42.4868Z" fill="white"/>
<path d="M28.824 27L29.6901 26.5L28.8213 26.0048L27.9552 26.5048L28.824 27ZM2.8688 42.982L29.6928 27.4951L27.9552 26.5048L1.1312 41.9917L2.8688 42.982ZM27.958 27.5L55.1776 43.0131L56.9096 42.0131L29.6901 26.5L27.958 27.5Z" fill="#969696" mask="url(#path-10-inside-5_159_117)"/>
<mask id="path-12-inside-6_159_117" fill="white">
<path d="M2.2196 42.198L2.21961 106.731L29.3454 122.595L29.3454 58.0617L2.2196 42.198Z"/>
</mask>
<path d="M2.2196 42.198L1.35639 41.6932L1.35639 40.6932L2.2196 41.198L2.2196 42.198ZM2.21961 106.731L2.21961 107.731L1.35639 107.226L1.35639 106.226L2.21961 106.731ZM3.08282 42.7028L3.08283 107.236L1.35639 106.226L1.35639 41.6932L3.08282 42.7028ZM2.21961 105.731L29.3454 121.595L29.3454 123.595L2.21961 107.731L2.21961 105.731ZM29.3454 59.0617L2.2196 43.198L2.2196 41.198L29.3454 57.0617L29.3454 59.0617Z" fill="#969696" mask="url(#path-12-inside-6_159_117)"/>
<circle cx="29.2196" cy="58.0002" r="3" fill="#2D2D2D"/>
<mask id="path-15-inside-7_159_117" fill="white">
<path d="M104.854 122.716L104.854 58.2283L131.946 42.3843L131.946 106.872L104.854 122.716Z"/>
</mask>
<path d="M104.854 122.716L104.854 58.2283L131.946 42.3843L131.946 106.872L104.854 122.716Z" fill="#F0F0F0"/>
<path d="M131.946 42.3843L132.809 41.8794L132.809 40.8794L131.946 41.3843L131.946 42.3843ZM131.946 106.872L131.946 107.872L132.809 107.367L132.809 106.367L131.946 106.872ZM104.854 59.2283L131.946 43.3843L131.946 41.3843L104.854 57.2283L104.854 59.2283ZM131.083 42.8891L131.083 107.377L132.809 106.367L132.809 41.8794L131.083 42.8891ZM131.946 105.872L104.854 121.716L104.854 123.716L131.946 107.872L131.946 105.872Z" fill="#969696" mask="url(#path-15-inside-7_159_117)"/>
<mask id="path-17-inside-8_159_117" fill="white">
<path d="M78 42.4868L104.824 27L132.044 42.5131L105.22 58L78 42.4868Z"/>
</mask>
<path d="M78 42.4868L104.824 27L132.044 42.5131L105.22 58L78 42.4868Z" fill="white"/>
<path d="M104.824 27L105.69 26.5L104.821 26.0048L103.955 26.5048L104.824 27ZM78.8688 42.982L105.693 27.4951L103.955 26.5048L77.1312 41.9917L78.8688 42.982ZM103.958 27.5L131.178 43.0131L132.91 42.0131L105.69 26.5L103.958 27.5Z" fill="#969696" mask="url(#path-17-inside-8_159_117)"/>
<mask id="path-19-inside-9_159_117" fill="white">
<path d="M78.2196 42.198L78.2196 106.731L105.345 122.595L105.345 58.0617L78.2196 42.198Z"/>
</mask>
<path d="M78.2196 42.198L78.2196 106.731L105.345 122.595L105.345 58.0617L78.2196 42.198Z" fill="white"/>
<path d="M78.2196 42.198L77.3564 41.6932L77.3564 40.6932L78.2196 41.198L78.2196 42.198ZM78.2196 106.731L78.2196 107.731L77.3564 107.226L77.3564 106.226L78.2196 106.731ZM79.0828 42.7028L79.0828 107.236L77.3564 106.226L77.3564 41.6932L79.0828 42.7028ZM78.2196 105.731L105.345 121.595L105.345 123.595L78.2196 107.731L78.2196 105.731ZM105.345 59.0617L78.2196 43.198L78.2196 41.198L105.345 57.0617L105.345 59.0617Z" fill="#969696" mask="url(#path-19-inside-9_159_117)"/>
<circle cx="105.22" cy="58.0002" r="3" fill="#2D2D2D"/>
<mask id="path-22-inside-10_159_117" fill="white">
<path d="M66.8539 144.716L66.8539 80.2285L93.9459 64.3845L93.9459 128.872L66.8539 144.716Z"/>
</mask>
<path d="M66.8539 144.716L66.8539 80.2285L93.9459 64.3845L93.9459 128.872L66.8539 144.716Z" fill="#F0F0F0"/>
<path d="M93.9459 64.3845L94.8092 63.8797L94.8092 62.8797L93.9459 63.3845L93.9459 64.3845ZM93.9459 128.872L93.9459 129.872L94.8092 129.367L94.8092 128.367L93.9459 128.872ZM66.8539 81.2285L93.9459 65.3845L93.9459 63.3845L66.8539 79.2285L66.8539 81.2285ZM93.0827 64.8893L93.0827 129.377L94.8092 128.367L94.8092 63.8797L93.0827 64.8893ZM93.9459 127.872L66.8539 143.716L66.8539 145.716L93.9459 129.872L93.9459 127.872Z" fill="#969696" mask="url(#path-22-inside-10_159_117)"/>
<mask id="path-24-inside-11_159_117" fill="white">
<path d="M40 64.4868L66.824 49L94.0436 64.5131L67.2196 80L40 64.4868Z"/>
</mask>
<path d="M40 64.4868L66.824 49L94.0436 64.5131L67.2196 80L40 64.4868Z" fill="white"/>
<path d="M66.824 49L67.6901 48.5L66.8213 48.0048L65.9552 48.5048L66.824 49ZM40.8688 64.982L67.6928 49.4951L65.9552 48.5048L39.1312 63.9917L40.8688 64.982ZM65.958 49.5L93.1776 65.0131L94.9096 64.0131L67.6901 48.5L65.958 49.5Z" fill="#969696" mask="url(#path-24-inside-11_159_117)"/>
<mask id="path-26-inside-12_159_117" fill="white">
<path d="M40.2195 64.1982L40.2195 128.731L67.3453 144.595L67.3453 80.062L40.2195 64.1982Z"/>
</mask>
<path d="M40.2195 64.1982L40.2195 128.731L67.3453 144.595L67.3453 80.062L40.2195 64.1982Z" fill="white"/>
<path d="M40.2195 64.1982L39.3563 63.6934L39.3563 62.6934L40.2195 63.1982L40.2195 64.1982ZM40.2195 128.731L40.2195 129.731L39.3563 129.227L39.3563 128.227L40.2195 128.731ZM41.0827 64.7031L41.0827 129.236L39.3563 128.227L39.3563 63.6934L41.0827 64.7031ZM40.2195 127.731L67.3453 143.595L67.3453 145.595L40.2195 129.731L40.2195 127.731ZM67.3453 81.062L40.2195 65.1982L40.2195 63.1982L67.3453 79.062L67.3453 81.062Z" fill="#969696" mask="url(#path-26-inside-12_159_117)"/>
<circle cx="67.2196" cy="80.0005" r="3" fill="#2D2D2D"/>
</svg>
