<svg width="134" height="150" viewBox="0 0 134 150" fill="none" xmlns="http://www.w3.org/2000/svg">
<mask id="path-1-inside-1_707_3918" fill="white">
<path d="M66.9486 147.153L7.95527 113.093L7.78128 81.9403L66.7746 116L66.9486 147.153Z"/>
</mask>
<path d="M66.9486 147.153L7.95527 113.093L7.78128 81.9403L66.7746 116L66.9486 147.153Z" fill="white"/>
<path d="M7.95527 113.093L7.08924 112.593L7.09483 113.593L7.96085 114.093L7.95527 113.093ZM66.943 146.153L7.94968 112.093L7.96085 114.093L66.9542 148.153L66.943 146.153ZM8.8213 113.593L8.6473 82.4403L6.91525 81.4403L7.08924 112.593L8.8213 113.593Z" fill="#969696" mask="url(#path-1-inside-1_707_3918)"/>
<mask id="path-3-inside-2_707_3918" fill="white">
<path d="M66.5885 147.107L125.682 112.989L125.855 82.1033L66.761 116.221L66.5885 147.107Z"/>
</mask>
<path d="M66.5885 147.107L125.682 112.989L125.855 82.1033L66.761 116.221L66.5885 147.107Z" fill="#F0F0F0"/>
<path d="M66.5885 147.107L66.5829 148.107L65.7169 148.607L65.7225 147.607L66.5885 147.107ZM125.682 112.989L126.548 112.489L126.543 113.489L125.676 113.989L125.682 112.989ZM66.5941 146.107L125.688 111.989L125.676 113.989L66.5829 148.107L66.5941 146.107ZM124.816 113.489L124.989 82.6033L126.721 81.6033L126.548 112.489L124.816 113.489ZM67.627 115.721L67.4545 146.607L65.7225 147.607L65.895 116.721L67.627 115.721Z" fill="#969696" mask="url(#path-3-inside-2_707_3918)"/>
<mask id="path-5-inside-3_707_3918" fill="white">
<path d="M125.841 82.1433L67.1543 116.026L7.67536 82.1272L66.3616 48.2447L125.841 82.1433Z"/>
</mask>
<path d="M125.841 82.1433L67.1543 116.026L7.67536 82.1272L66.3616 48.2447L125.841 82.1433Z" fill="white"/>
<path d="M7.67536 82.1272L6.80655 81.6321L5.94053 82.1321L6.80933 82.6272L7.67536 82.1272ZM66.3616 48.2447L67.2277 47.7447L66.3589 47.2495L65.4928 47.7495L66.3616 48.2447ZM68.0203 115.526L8.54138 81.6272L6.80933 82.6272L66.2883 116.526L68.0203 115.526ZM8.54416 82.6224L67.2305 48.7398L65.4928 47.7495L6.80655 81.6321L8.54416 82.6224ZM65.4956 48.7447L124.975 82.6433L126.707 81.6433L67.2277 47.7447L65.4956 48.7447Z" fill="#969696" mask="url(#path-5-inside-3_707_3918)"/>
<circle cx="66.7736" cy="115.823" r="3" transform="rotate(-120 66.7736 115.823)" fill="#2E8D3A"/>
<mask id="path-8-inside-4_707_3918" fill="white">
<path d="M66.9486 102.299L7.95527 68.239L7.78128 37.0865L66.7746 71.1463L66.9486 102.299Z"/>
</mask>
<path d="M66.9486 102.299L7.95527 68.239L7.78128 37.0865L66.7746 71.1463L66.9486 102.299Z" fill="white"/>
<path d="M7.95527 68.239L7.08924 67.739L7.09483 68.739L7.96085 69.239L7.95527 68.239ZM66.943 101.299L7.94968 67.239L7.96085 69.239L66.9542 103.299L66.943 101.299ZM8.8213 68.739L8.6473 37.5865L6.91525 36.5865L7.08924 67.739L8.8213 68.739Z" fill="#969696" mask="url(#path-8-inside-4_707_3918)"/>
<mask id="path-10-inside-5_707_3918" fill="white">
<path d="M66.5885 102.253L125.682 68.1355L125.855 37.2496L66.761 71.3673L66.5885 102.253Z"/>
</mask>
<path d="M66.5885 102.253L125.682 68.1355L125.855 37.2496L66.761 71.3673L66.5885 102.253Z" fill="#F0F0F0"/>
<path d="M66.5885 102.253L66.5829 103.253L65.7169 103.753L65.7225 102.753L66.5885 102.253ZM125.682 68.1355L126.548 67.6355L126.543 68.6355L125.676 69.1355L125.682 68.1355ZM66.5941 101.253L125.688 67.1355L125.676 69.1355L66.5829 103.253L66.5941 101.253ZM124.816 68.6355L124.989 37.7496L126.721 36.7496L126.548 67.6355L124.816 68.6355ZM67.627 70.8673L67.4545 101.753L65.7225 102.753L65.895 71.8673L67.627 70.8673Z" fill="#969696" mask="url(#path-10-inside-5_707_3918)"/>
<mask id="path-12-inside-6_707_3918" fill="white">
<path d="M125.841 37.2898L67.1543 71.1724L7.67536 37.2737L66.3616 3.39114L125.841 37.2898Z"/>
</mask>
<path d="M125.841 37.2898L67.1543 71.1724L7.67536 37.2737L66.3616 3.39114L125.841 37.2898Z" fill="white"/>
<path d="M7.67536 37.2737L6.80655 36.7785L5.94053 37.2785L6.80933 37.7737L7.67536 37.2737ZM66.3616 3.39114L67.2277 2.89114L66.3589 2.39598L65.4928 2.89598L66.3616 3.39114ZM68.0203 70.6724L8.54138 36.7737L6.80933 37.7737L66.2883 71.6724L68.0203 70.6724ZM8.54416 37.7689L67.2305 3.88629L65.4928 2.89598L6.80655 36.7785L8.54416 37.7689ZM65.4956 3.89114L124.975 37.7898L126.707 36.7898L67.2277 2.89114L65.4956 3.89114Z" fill="#969696" mask="url(#path-12-inside-6_707_3918)"/>
<circle cx="66.7736" cy="70.9696" r="3" transform="rotate(-120 66.7736 70.9696)" fill="#2E8D3A"/>
</svg>
