<svg width="134" height="150" viewBox="0 0 134 150" fill="none" xmlns="http://www.w3.org/2000/svg">
<mask id="path-1-inside-1_707_3930" fill="white">
<path d="M66.823 145.96L66.823 72.7722L130 35.8249L130 109.013L66.823 145.96Z"/>
</mask>
<path d="M66.823 145.96L66.823 72.7722L130 35.8249L130 109.013L66.823 145.96Z" fill="#F0F0F0"/>
<path d="M130 35.8249L130.863 35.3201L130.863 34.3201L130 34.8249L130 35.8249ZM130 109.013L130 110.013L130.863 109.508L130.863 108.508L130 109.013ZM66.823 73.7722L130 36.8249L130 34.8249L66.823 71.7722L66.823 73.7722ZM129.137 36.3297L129.137 109.518L130.863 108.508L130.863 35.3201L129.137 36.3297ZM130 108.013L66.823 144.96L66.823 146.96L130 110.013L130 108.013Z" fill="#969696" mask="url(#path-1-inside-1_707_3930)"/>
<mask id="path-3-inside-2_707_3930" fill="white">
<path d="M3.75854 36.2737L66.5863 3.43323e-05L129.89 36.0788L67.0627 72.3524L3.75854 36.2737Z"/>
</mask>
<path d="M3.75854 36.2737L66.5863 3.43323e-05L129.89 36.0788L67.0627 72.3524L3.75854 36.2737Z" fill="white"/>
<path d="M66.5863 3.43323e-05L67.4524 -0.499966L66.5836 -0.995121L65.7175 -0.495121L66.5863 3.43323e-05ZM4.62735 36.7688L67.4551 0.49519L65.7175 -0.495121L2.88974 35.7785L4.62735 36.7688ZM65.7203 0.500034L129.024 36.5788L130.757 35.5788L67.4524 -0.499966L65.7203 0.500034Z" fill="#969696" mask="url(#path-3-inside-2_707_3930)"/>
<mask id="path-5-inside-3_707_3930" fill="white">
<path d="M3.75024 35.9978L3.75025 109.186L66.9274 146.133L66.9274 72.9451L3.75024 35.9978Z"/>
</mask>
<path d="M3.75024 35.9978L3.75025 109.186L66.9274 146.133L66.9274 72.9451L3.75024 35.9978Z" fill="white"/>
<path d="M3.75024 35.9978L2.88702 35.493L2.88702 34.493L3.75024 34.9978L3.75024 35.9978ZM3.75025 109.186L3.75025 110.186L2.88703 109.681L2.88703 108.681L3.75025 109.186ZM4.61346 36.5026L4.61347 109.69L2.88703 108.681L2.88702 35.493L4.61346 36.5026ZM3.75025 108.186L66.9274 145.133L66.9274 147.133L3.75025 110.186L3.75025 108.186ZM66.9274 73.9451L3.75024 36.9978L3.75024 34.9978L66.9274 71.9451L66.9274 73.9451Z" fill="#969696" mask="url(#path-5-inside-3_707_3930)"/>
<mask id="path-7-inside-4_707_3930" fill="white">
<path d="M66.9016 36.2035L66.9016 73.2151L34.9524 91.8997L34.9524 54.888L66.9016 36.2035Z"/>
</mask>
<path d="M66.9016 36.2035L66.9016 73.2151L34.9524 91.8997L34.9524 54.888L66.9016 36.2035Z" fill="#F0F0F0"/>
<path d="M34.9524 54.888L34.9524 53.888L34.0892 54.3929L34.0892 55.3929L34.9524 54.888ZM35.8157 91.3949L35.8157 54.3832L34.0892 55.3929L34.0892 92.4045L35.8157 91.3949ZM34.9524 55.888L66.9016 37.2035L66.9016 35.2035L34.9524 53.888L34.9524 55.888Z" fill="#969696" mask="url(#path-7-inside-4_707_3930)"/>
<mask id="path-9-inside-5_707_3930" fill="white">
<path d="M99.1047 91.4932L67.0212 110.017L34.8475 91.6799L66.931 73.1565L99.1047 91.4932Z"/>
</mask>
<path d="M99.1047 91.4932L67.0212 110.017L34.8475 91.6799L66.931 73.1565L99.1047 91.4932Z" fill="white"/>
<path d="M67.0212 110.017L66.1551 110.517L67.024 111.012L67.89 110.512L67.0212 110.017ZM98.2359 90.998L66.1524 109.521L67.89 110.512L99.9735 91.9883L98.2359 90.998ZM67.8872 109.517L35.7135 91.1799L33.9814 92.1799L66.1551 110.517L67.8872 109.517Z" fill="#969696" mask="url(#path-9-inside-5_707_3930)"/>
<mask id="path-11-inside-6_707_3930" fill="white">
<path d="M98.798 91.8123L98.798 54.8006L66.8488 36.116L66.8488 73.1277L98.798 91.8123Z"/>
</mask>
<path d="M98.798 91.8123L98.798 54.8006L66.8488 36.116L66.8488 73.1277L98.798 91.8123Z" fill="white"/>
<path d="M98.798 54.8006L98.798 53.8006L99.6612 54.3054L99.6612 55.3054L98.798 54.8006ZM97.9348 91.3074L97.9348 54.2958L99.6612 55.3054L99.6612 92.3171L97.9348 91.3074ZM98.798 55.8006L66.8488 37.116L66.8488 35.116L98.798 53.8006L98.798 55.8006Z" fill="#969696" mask="url(#path-11-inside-6_707_3930)"/>
<circle cx="35.0981" cy="55.2143" r="3" transform="rotate(-120 35.0981 55.2143)" fill="#2E8D3A"/>
<circle cx="4.09808" cy="36.2143" r="3" transform="rotate(-120 4.09808 36.2143)" fill="#2E8D3A"/>
<circle cx="67.0981" cy="109.214" r="3" transform="rotate(-120 67.0981 109.214)" fill="#2E8D3A"/>
<circle cx="98.0981" cy="55.2143" r="3" transform="rotate(-120 98.0981 55.2143)" fill="#2E8D3A"/>
<circle cx="129.098" cy="36.2143" r="3" transform="rotate(-120 129.098 36.2143)" fill="#2E8D3A"/>
<circle cx="67.0981" cy="146.214" r="3" transform="rotate(-120 67.0981 146.214)" fill="#2E8D3A"/>
</svg>
