<svg width="134" height="150" viewBox="0 0 134 150" fill="none" xmlns="http://www.w3.org/2000/svg">
<mask id="path-1-inside-1_159_453" fill="white">
<path d="M129.904 39.0598L70.9107 5L43.8449 20.4256L102.838 54.4854L129.904 39.0598Z"/>
</mask>
<path d="M129.904 39.0598L70.9107 5L43.8449 20.4256L102.838 54.4854L129.904 39.0598Z" fill="white"/>
<path d="M70.9107 5L70.0447 4.5L70.9135 4.00484L71.7795 4.50484L70.9107 5ZM129.035 39.555L70.0419 5.49515L71.7795 4.50484L130.773 38.5647L129.035 39.555ZM71.7767 5.5L44.7109 20.9256L42.9788 19.9256L70.0447 4.5L71.7767 5.5Z" fill="#969696" mask="url(#path-1-inside-1_159_453)"/>
<mask id="path-3-inside-2_159_453" fill="white">
<path d="M129.684 38.7708L129.684 107.006L103.023 122.598L103.023 54.3631L129.684 38.7708Z"/>
</mask>
<path d="M129.684 38.7708L129.684 107.006L103.023 122.598L103.023 54.3631L129.684 38.7708Z" fill="#F0F0F0"/>
<path d="M129.684 38.7708L130.548 38.2659L130.548 37.2659L129.684 37.7708L129.684 38.7708ZM129.684 107.006L129.684 108.006L130.548 107.501L130.548 106.501L129.684 107.006ZM128.821 39.2756L128.821 107.511L130.548 106.501L130.548 38.2659L128.821 39.2756ZM129.684 106.006L103.023 121.598L103.023 123.598L129.684 108.006L129.684 106.006ZM103.023 55.3631L129.684 39.7708L129.684 37.7708L103.023 53.3631L103.023 55.3631Z" fill="#969696" mask="url(#path-3-inside-2_159_453)"/>
<mask id="path-5-inside-3_159_453" fill="white">
<path d="M103.05 122.566L103.05 54.8013L43.9539 20.2404L43.9539 88.0055L103.05 122.566Z"/>
</mask>
<path d="M103.05 122.566L103.05 54.8013L43.9539 20.2404L43.9539 88.0055L103.05 122.566Z" fill="white"/>
<path d="M43.9539 20.2404L43.0906 19.7356L43.0906 18.7356L43.9539 19.2404L43.9539 20.2404ZM43.9539 88.0055L43.9539 89.0055L43.0906 88.5006L43.0906 87.5006L43.9539 88.0055ZM103.05 55.8013L43.9539 21.2404L43.9539 19.2404L103.05 53.8013L103.05 55.8013ZM44.8171 20.7452L44.8171 88.5103L43.0906 87.5006L43.0906 19.7356L44.8171 20.7452ZM43.9539 87.0055L103.05 121.566L103.05 123.566L43.9539 89.0055L43.9539 87.0055Z" fill="#969696" mask="url(#path-5-inside-3_159_453)"/>
<circle cx="3" cy="3" r="3" transform="matrix(-1 0 0 1 105.684 51.573)" fill="#2D2D2D"/>
<mask id="path-8-inside-4_159_453" fill="white">
<path d="M91.0596 61.4867L32.0662 27.4269L5.00039 42.8524L63.9937 76.9123L91.0596 61.4867Z"/>
</mask>
<path d="M91.0596 61.4867L32.0662 27.4269L5.00039 42.8524L63.9937 76.9123L91.0596 61.4867Z" fill="white"/>
<path d="M32.0662 27.4269L31.2002 26.9269L32.069 26.4317L32.935 26.9317L32.0662 27.4269ZM90.1908 61.9818L31.1974 27.922L32.935 26.9317L91.9284 60.9915L90.1908 61.9818ZM32.9323 27.9269L5.86641 43.3524L4.13436 42.3524L31.2002 26.9269L32.9323 27.9269Z" fill="#969696" mask="url(#path-8-inside-4_159_453)"/>
<mask id="path-10-inside-5_159_453" fill="white">
<path d="M90.84 61.1978L90.84 129.433L64.1782 145.025L64.1782 76.7901L90.84 61.1978Z"/>
</mask>
<path d="M90.84 61.1978L90.84 129.433L64.1782 145.025L64.1782 76.7901L90.84 61.1978Z" fill="#F0F0F0"/>
<path d="M90.84 61.1978L91.7032 60.6929L91.7032 59.6929L90.84 60.1978L90.84 61.1978ZM90.84 129.433L90.84 130.433L91.7032 129.928L91.7032 128.928L90.84 129.433ZM89.9767 61.7026L89.9767 129.938L91.7032 128.928L91.7032 60.6929L89.9767 61.7026ZM90.84 128.433L64.1782 144.025L64.1782 146.025L90.84 130.433L90.84 128.433ZM64.1782 77.7901L90.84 62.1978L90.84 60.1978L64.1782 75.7901L64.1782 77.7901Z" fill="#969696" mask="url(#path-10-inside-5_159_453)"/>
<mask id="path-12-inside-6_159_453" fill="white">
<path d="M64.2059 144.993L64.2059 77.2282L5.10938 42.6673L5.10937 110.432L64.2059 144.993Z"/>
</mask>
<path d="M64.2059 144.993L64.2059 77.2282L5.10938 42.6673L5.10937 110.432L64.2059 144.993Z" fill="white"/>
<path d="M5.10938 42.6673L4.24616 42.1624L4.24616 41.1624L5.10938 41.6673L5.10938 42.6673ZM5.10937 110.432L5.10937 111.432L4.24615 110.928L4.24615 109.928L5.10937 110.432ZM64.2059 78.2282L5.10938 43.6673L5.10938 41.6673L64.2059 76.2282L64.2059 78.2282ZM5.9726 43.1721L5.97259 110.937L4.24615 109.928L4.24616 42.1624L5.9726 43.1721ZM5.10937 109.432L64.2059 143.993L64.2059 145.993L5.10937 111.432L5.10937 109.432Z" fill="#969696" mask="url(#path-12-inside-6_159_453)"/>
<circle cx="3" cy="3" r="3" transform="matrix(-1 0 0 1 9 39.7751)" fill="#2D2D2D"/>
<circle cx="3" cy="3" r="3" transform="matrix(-1 0 0 1 67.0002 73.7751)" fill="#2D2D2D"/>
<circle cx="3" cy="3" r="3" transform="matrix(-1 0 0 1 48.0002 17.7751)" fill="#2D2D2D"/>
</svg>
