<svg width="134" height="150" viewBox="0 0 134 150" fill="none" xmlns="http://www.w3.org/2000/svg">
<mask id="path-1-inside-1_159_469" fill="white">
<path d="M66.8228 145.96L66.8227 72.7722L130 35.8249L130 109.013L66.8228 145.96Z"/>
</mask>
<path d="M66.8228 145.96L66.8227 72.7722L130 35.8249L130 109.013L66.8228 145.96Z" fill="#F0F0F0"/>
<path d="M130 35.8249L130.863 35.3201L130.863 34.3201L130 34.8249L130 35.8249ZM130 109.013L130 110.013L130.863 109.508L130.863 108.508L130 109.013ZM66.8227 73.7722L130 36.8249L130 34.8249L66.8227 71.7722L66.8227 73.7722ZM129.137 36.3297L129.137 109.518L130.863 108.508L130.863 35.3201L129.137 36.3297ZM130 108.013L66.8228 144.96L66.8228 146.96L130 110.013L130 108.013Z" fill="#969696" mask="url(#path-1-inside-1_159_469)"/>
<mask id="path-3-inside-2_159_469" fill="white">
<path d="M3.7583 36.2737L66.5861 3.43323e-05L129.89 36.0788L67.0625 72.3524L3.7583 36.2737Z"/>
</mask>
<path d="M3.7583 36.2737L66.5861 3.43323e-05L129.89 36.0788L67.0625 72.3524L3.7583 36.2737Z" fill="white"/>
<path d="M66.5861 3.43323e-05L67.4521 -0.499966L66.5833 -0.995121L65.7173 -0.495121L66.5861 3.43323e-05ZM4.62711 36.7688L67.4549 0.49519L65.7173 -0.495121L2.8895 35.7785L4.62711 36.7688ZM65.7201 0.500034L129.024 36.5788L130.756 35.5788L67.4521 -0.499966L65.7201 0.500034Z" fill="#969696" mask="url(#path-3-inside-2_159_469)"/>
<mask id="path-5-inside-3_159_469" fill="white">
<path d="M3.75 35.9978L3.75 109.186L66.9272 146.133L66.9272 72.9451L3.75 35.9978Z"/>
</mask>
<path d="M3.75 35.9978L3.75 109.186L66.9272 146.133L66.9272 72.9451L3.75 35.9978Z" fill="white"/>
<path d="M3.75 35.9978L2.88678 35.493L2.88678 34.493L3.75 34.9978L3.75 35.9978ZM3.75 109.186L3.75 110.186L2.88678 109.681L2.88678 108.681L3.75 109.186ZM4.61322 36.5026L4.61322 109.69L2.88678 108.681L2.88678 35.493L4.61322 36.5026ZM3.75 108.186L66.9272 145.133L66.9272 147.133L3.75 110.186L3.75 108.186ZM66.9272 73.9451L3.75 36.9978L3.75 34.9978L66.9272 71.9451L66.9272 73.9451Z" fill="#969696" mask="url(#path-5-inside-3_159_469)"/>
<circle cx="4.09808" cy="36.2143" r="3" transform="rotate(-120 4.09808 36.2143)" fill="#2D2D2D"/>
<circle cx="129.098" cy="36.2143" r="3" transform="rotate(-120 129.098 36.2143)" fill="#2D2D2D"/>
<path d="M37 36.1162L66.25 19.6617L66.25 52.5707L37 36.1162Z" fill="#E1E1E1"/>
<path d="M112.954 65.6162L112.579 99.1747L84.0795 82.7202L112.954 65.6162Z" fill="#F0F0F0"/>
<path d="M50.9547 116.712L22.0797 99.6075L50.5797 83.1531L50.9547 116.712Z" fill="#F0F0F0"/>
<path d="M96 36.1162L66 19.6617L66 52.5707L96 36.1162Z" fill="#F0F0F0"/>
<path d="M83.4545 116.712L112.704 98.9582L84.2045 82.5037L83.4545 116.712Z" fill="#E1E1E1"/>
<path d="M21.4547 65.6161L22.2047 99.8241L50.7047 83.3696L21.4547 65.6161Z" fill="#E1E1E1"/>
<mask id="path-15-inside-4_159_469" fill="white">
<path d="M37 35.9243L66.1419 19.0992L96 36.1162L66.8581 52.9413L37 35.9243Z"/>
</mask>
<path d="M66.1419 19.0992L67.0079 18.5992L66.1391 18.1041L65.2731 18.6041L66.1419 19.0992ZM37.8688 36.4195L67.0107 19.5944L65.2731 18.6041L36.1312 35.4292L37.8688 36.4195ZM65.2758 19.5992L95.134 36.6162L96.866 35.6162L67.0079 18.5992L65.2758 19.5992Z" fill="#969696" mask="url(#path-15-inside-4_159_469)"/>
<mask id="path-17-inside-5_159_469" fill="white">
<path d="M113.121 65.7122L113.121 99.3623L83.4544 116.712L83.4544 83.0616L113.121 65.7122Z"/>
</mask>
<path d="M113.121 99.3623L113.121 100.362L113.984 99.8575L113.984 98.8575L113.121 99.3623ZM112.257 66.217L112.257 99.8671L113.984 98.8575L113.984 65.2073L112.257 66.217ZM113.121 98.3623L83.4544 115.712L83.4544 117.712L113.121 100.362L113.121 98.3623Z" fill="#969696" mask="url(#path-17-inside-5_159_469)"/>
<mask id="path-19-inside-6_159_469" fill="white">
<path d="M50.7886 116.807L21.6467 99.9824L21.4548 65.616L50.5966 82.4411L50.7886 116.807Z"/>
</mask>
<path d="M21.6467 99.9824L20.7807 99.4824L20.7863 100.482L21.6523 100.982L21.6467 99.9824ZM50.783 115.808L21.6411 98.9824L21.6523 100.982L50.7942 117.807L50.783 115.808ZM22.5127 100.482L22.3208 66.116L20.5887 65.116L20.7807 99.4824L22.5127 100.482Z" fill="#969696" mask="url(#path-19-inside-6_159_469)"/>
<circle cx="22.0981" cy="100.214" r="3" transform="rotate(-120 22.0981 100.214)" fill="#2D2D2D"/>
<circle cx="66.0981" cy="20.2143" r="3" transform="rotate(-120 66.0981 20.2143)" fill="#2D2D2D"/>
<circle cx="113.098" cy="99.2143" r="3" transform="rotate(-120 113.098 99.2143)" fill="#2D2D2D"/>
<circle cx="67.0981" cy="146.214" r="3" transform="rotate(-120 67.0981 146.214)" fill="#2D2D2D"/>
</svg>
