<svg width="24" height="24" viewBox="0 0 24 24" fill="none" xmlns="http://www.w3.org/2000/svg">
<g clip-path="url(#clip0_50_1918)">
<path d="M15.1636 13.0941C15.1636 11.7552 18.0555 11.3613 18.0555 8.22665C18.0555 6.85625 17.9614 5.87975 17.3486 5.18635C17.3008 5.13845 17.2694 5.107 17.223 5.07555C17.0033 4.8704 16.7509 4.69807 16.437 4.53942C16.437 4.08263 19 4.38214 19 3.5C18.5592 3.5 13.3881 3.5 13.3881 3.5C13.3881 3.5 9.26915 3.60942 8.0586 6.6497C7.933 6.9178 7.85385 7.2009 7.7911 7.5004C7.7283 7.8314 7.68055 8.1938 7.68055 8.57265C7.68055 13.4566 12.6634 12.9054 12.6634 12.9054C12.6634 12.9054 12.6634 13.6453 12.6634 14.15C12.6634 14.6546 13.3239 14.4809 13.4017 15.5053C13.0714 15.5053 6.5 15.3166 6.5 19.7588C6.5 24.2173 12.3003 23.9971 12.3003 23.9971C12.3003 23.9971 18.9972 24.2966 18.9972 18.7822C19 15.4875 15.1636 14.4166 15.1636 13.0941ZM10.3063 8.83935C10.0702 7.87925 10.1017 6.94925 10.3692 6.20935C10.4483 5.9098 10.5738 5.64175 10.7308 5.42155C11.0133 4.99622 11.3913 4.71311 11.8622 4.58729C12.3808 4.46146 12.9158 4.53942 13.418 4.82389C13.7005 4.96613 13.9681 5.1699 14.2042 5.42295C14.6914 5.9112 15.1009 6.61965 15.3205 7.45525C15.8391 9.43975 15.1636 11.3463 13.7647 11.7087C12.3808 12.1012 10.84 10.8088 10.3063 8.83935ZM13.1983 22.5775C10.8877 22.7347 8.8911 21.4752 8.78055 19.7574C8.67 18.0246 10.462 16.5119 12.7889 16.3382C15.0995 16.1645 17.0647 17.4406 17.2067 19.1734C17.3022 20.8912 15.5253 22.4202 13.1983 22.5775Z" fill="#26AEE8"/>
<path d="M23.5 0.5L17.3157 4.9577H14.2229C13.9604 4.6899 13.6966 4.66 13.4192 4.7198C12.924 4.452 12.3991 4.3779 11.889 4.4975C11.4236 4.6158 11.0529 4.8823 10.7743 5.284C10.62 5.492 10.4956 5.7442 10.4184 6.0263C9.93945 6.2499 8.61765 7 8.61765 7H0.5L11.3236 0.5H23.5Z" fill="#26AEE8"/>
<path d="M21 7V8.5" stroke="#26AEE8" stroke-width="4" stroke-miterlimit="10" stroke-linecap="round"/>
<path d="M21 2V6" stroke="#26AEE8" stroke-width="2" stroke-miterlimit="10" stroke-linecap="round"/>
</g>
<defs>
<clipPath id="clip0_50_1918">
<rect width="24" height="24" fill="white"/>
</clipPath>
</defs>
</svg>
