<svg width="24" height="24" viewBox="0 0 24 24" fill="none" xmlns="http://www.w3.org/2000/svg">
<path d="M7.35547 6.75659H7.23047V6.88159V21V21.125H7.35547H12.932C17.693 21.125 20.6252 17.6486 20.6252 13.9408C20.6252 12.2467 20.0292 10.4506 18.7608 9.07679C17.4904 7.70069 15.5529 6.75659 12.8877 6.75659H7.35547ZM12.6663 19.0334H9.56077V8.76034H12.578C14.5437 8.76034 15.9585 9.35484 16.8817 10.2855C17.8057 11.2169 18.2506 12.4983 18.2506 13.897C18.2506 14.7533 17.9904 16.0397 17.1647 17.109C16.3436 18.1723 14.9539 19.0334 12.6663 19.0334Z" fill="#26AEE8" stroke="#26AEE8" stroke-width="0.5"/>
<path d="M4.3625 21.125H4.4875V21V14.7013V6.81665V6.69165H4.3625H2.31205H2.18705V6.81665V21V21.125H2.31205H4.3625ZM3.33728 5.268C4.11535 5.268 4.79955 4.64342 4.79955 3.82135C4.79955 3.04893 4.16532 2.375 3.33728 2.375C2.55648 2.375 1.875 3.04623 1.875 3.82135C1.875 4.59403 2.50922 5.268 3.33728 5.268Z" fill="#26AEE8" stroke="#26AEE8" stroke-width="0.5"/>
</svg>
