<svg width="24" height="24" viewBox="0 0 24 24" fill="none" xmlns="http://www.w3.org/2000/svg">
<path d="M12 24C7.03636 24 3 19.8698 3 14.7907V9.2093C3 4.13023 7.03636 0 12 0C16.9636 0 21 4.13023 21 9.2093V14.7907C21 19.8698 16.9636 24 12 24ZM12 1.67442C7.94182 1.67442 4.63636 5.05674 4.63636 9.2093V14.7907C4.63636 18.9433 7.94182 22.3256 12 22.3256C16.0582 22.3256 19.3636 18.9433 19.3636 14.7907V9.2093C19.3636 5.05674 16.0582 1.67442 12 1.67442Z" fill="#26AEE8"/>
<path d="M12 14C10.3467 14 9 12.6015 9 10.8846V8.11538C9 6.39846 10.3467 5 12 5C13.6533 5 15 6.39846 15 8.11538V10.8846C15 12.6015 13.6533 14 12 14ZM12 7.07692C11.4533 7.07692 11 7.54769 11 8.11538V10.8846C11 11.4523 11.4533 11.9231 12 11.9231C12.5467 11.9231 13 11.4523 13 10.8846V8.11538C13 7.54769 12.5467 7.07692 12 7.07692Z" fill="#26AEE8"/>
<path d="M12 6C11.4533 6 11 5.62909 11 5.18182V0.818182C11 0.370909 11.4533 0 12 0C12.5467 0 13 0.370909 13 0.818182V5.18182C13 5.62909 12.5467 6 12 6Z" fill="#26AEE8"/>
</svg>
