<svg width="24" height="24" viewBox="0 0 24 24" fill="none" xmlns="http://www.w3.org/2000/svg">
<path d="M11.9999 22.7501C7.44994 22.7501 3.74994 19.0501 3.74994 14.5001V9.50006C3.74994 4.95006 7.44994 1.25006 11.9999 1.25006C16.5499 1.25006 20.2499 4.95006 20.2499 9.50006V14.5001C20.2499 19.0501 16.5499 22.7501 11.9999 22.7501ZM11.9999 2.75006C8.27994 2.75006 5.24994 5.78006 5.24994 9.50006V14.5001C5.24994 18.2201 8.27994 21.2501 11.9999 21.2501C15.7199 21.2501 18.7499 18.2201 18.7499 14.5001V9.50006C18.7499 5.78006 15.7199 2.75006 11.9999 2.75006Z" fill="#26AEE8"/>
<path d="M12 11.7499C10.76 11.7499 9.75 10.7399 9.75 9.49994V7.49994C9.75 6.25994 10.76 5.24994 12 5.24994C13.24 5.24994 14.25 6.25994 14.25 7.49994V9.49994C14.25 10.7399 13.24 11.7499 12 11.7499ZM12 6.74994C11.59 6.74994 11.25 7.08994 11.25 7.49994V9.49994C11.25 9.90994 11.59 10.2499 12 10.2499C12.41 10.2499 12.75 9.90994 12.75 9.49994V7.49994C12.75 7.08994 12.41 6.74994 12 6.74994Z" fill="#26AEE8"/>
<path d="M12 6.75006C11.59 6.75006 11.25 6.41006 11.25 6.00006V2.00006C11.25 1.59006 11.59 1.25006 12 1.25006C12.41 1.25006 12.75 1.59006 12.75 2.00006V6.00006C12.75 6.41006 12.41 6.75006 12 6.75006Z" fill="#26AEE8"/>
</svg>
