<svg width="24" height="24" viewBox="0 0 24 24" fill="none" xmlns="http://www.w3.org/2000/svg">
<path d="M19.6273 9.80408H19.6273C20.5966 9.80311 21.3083 9.62164 21.8275 9.30768C22.3487 8.99244 22.6648 8.55026 22.8535 8.04929C23.0413 7.55107 23.1034 6.99408 23.1199 6.44379C23.1301 6.10402 23.1228 5.75764 23.1158 5.42781C23.1116 5.22792 23.1075 5.03416 23.1075 4.85156V4.72911H22.9825H19.9996H19.8746V4.85156V5.88954V6.01199H19.9996H21.6324C21.6139 6.71142 21.4362 7.28369 21.1192 7.68459C20.7873 8.10444 20.2933 8.34885 19.6311 8.34885C19.1217 8.34885 18.7246 8.13315 18.4508 7.76541C18.1743 7.39385 18.0196 6.86041 18.0196 6.22676V3.62249C18.0196 3.06056 18.2859 2.6168 18.6481 2.31092C19.013 2.00267 19.4673 1.84139 19.8249 1.84139C20.4813 1.84139 20.9338 2.12411 21.2248 2.40886C21.3707 2.55169 21.4755 2.69471 21.5436 2.80178C21.5776 2.85522 21.6023 2.89943 21.6183 2.92979C21.6263 2.94496 21.6321 2.95665 21.6357 2.96428L21.6397 2.97258L21.6405 2.97431V2.97434L21.6406 2.97443V2.97449L21.6406 2.97454L21.7006 3.10986L21.8254 3.0268L22.878 2.32608L22.9529 2.27615L22.9277 2.1908L22.8077 2.22481C22.9277 2.1908 22.9277 2.19072 22.9277 2.19063L22.9277 2.19042L22.9275 2.18989L22.927 2.18835L22.9254 2.1834C22.9241 2.17929 22.9223 2.17358 22.9198 2.16636C22.9149 2.15193 22.9075 2.13149 22.8974 2.10589C22.8771 2.05471 22.8456 1.98281 22.7999 1.89709C22.7087 1.72577 22.5605 1.49844 22.3318 1.27135C21.8716 0.814473 21.094 0.367432 19.8249 0.367432C18.5438 0.367432 17.6706 0.820468 17.1191 1.43674C16.5709 2.04939 16.3484 2.81453 16.3484 3.43139V6.56776C16.3484 7.38425 16.5738 8.19383 17.1024 8.80128C17.6338 9.412 18.4593 9.80408 19.6273 9.80408ZM2.00485 6.3667L1.875 6.36175V6.48905V7.26097V7.36186L1.97609 7.38116C2.1413 7.41271 2.2923 7.43852 2.43215 7.46247C2.62225 7.49494 2.79176 7.52394 2.94841 7.55901C3.21552 7.61876 3.41479 7.69057 3.56657 7.80885C3.86357 8.04038 4.02568 8.48928 4.02568 9.57672V20.1886C4.02568 21.2881 3.86286 21.7362 3.56638 21.9647C3.41475 22.0815 3.21569 22.1514 2.94836 22.2094C2.79806 22.2421 2.63769 22.269 2.45884 22.299C2.31193 22.3237 2.15256 22.3505 1.97606 22.3842L1.875 22.4035V22.5043V23.3025V23.4293L2.00433 23.4249C2.19055 23.4186 2.4103 23.4092 2.6556 23.3988C3.38177 23.3679 4.33181 23.3275 5.2982 23.3275C6.5201 23.3275 8.108 23.377 8.7889 23.4246L8.92285 23.434V23.3025V22.5043V22.3977L8.81495 22.3831C8.5899 22.3526 8.38705 22.3289 8.2018 22.3074C7.97585 22.281 7.77615 22.2576 7.5943 22.2288C7.26725 22.177 7.03345 22.1116 6.8615 21.9965C6.6954 21.8853 6.57485 21.719 6.495 21.4372C6.41385 21.1509 6.37695 20.7528 6.37695 20.1886V15.8346C6.95065 15.871 7.4706 15.8709 8.209 15.8707C8.23355 15.8707 8.25835 15.8707 8.28345 15.8707C9.9362 18.7862 11.513 20.9672 12.4182 22.0059C13.2614 23.0107 14.3568 23.4379 15.3186 23.5771C16.2747 23.7154 17.1149 23.5711 17.4608 23.4136L17.5331 23.3806V23.3025V22.5793V22.4571L17.4084 22.4568C16.4821 22.455 15.5326 21.8347 14.8336 21.0735L14.8328 21.0725C13.6642 19.8266 12.0951 17.8151 10.794 15.5416C12.9695 14.9399 14.5731 12.8927 14.5731 10.8545C14.5731 9.29984 13.9637 8.15328 12.9484 7.39899C11.9379 6.64833 10.5382 6.29543 8.9688 6.29543C8.34035 6.29543 7.5997 6.31639 6.7933 6.33917C5.32205 6.38085 3.63192 6.42866 2.00485 6.3667ZM8.45585 7.76565C9.58495 7.76565 10.4676 8.05571 11.0669 8.59571C11.6648 9.13434 11.9977 9.93677 11.9977 10.9968C11.9967 12.0311 11.6402 12.8833 10.9964 13.4773C10.3518 14.0719 9.40705 14.4192 8.20885 14.4192C7.3636 14.4192 6.948 14.3989 6.37695 14.357V7.82428C6.97545 7.76555 7.7272 7.7656 8.4109 7.76565H8.45585Z" fill="#26AEE8" stroke="#26AEE8" stroke-width="0.5"/>
</svg>
