<svg width="24" height="20" viewBox="0 0 24 20" fill="none" xmlns="http://www.w3.org/2000/svg">
<path fill-rule="evenodd" clip-rule="evenodd" d="M2.03705 8.29328C8.23854 5.59139 12.3738 3.81015 14.4429 2.94954C20.3507 0.492317 21.5782 0.0654725 22.3783 0.0513779C22.5543 0.0482779 22.9478 0.0918902 23.2027 0.298704C23.4179 0.473333 23.4771 0.709232 23.5054 0.874799C23.5338 1.04037 23.569 1.41753 23.541 1.71224C23.2209 5.07599 21.8356 13.2389 21.1309 17.0064C20.8327 18.6005 20.2455 19.135 19.6771 19.1873C18.4417 19.301 17.5036 18.3709 16.3071 17.5866C14.4348 16.3593 13.3771 15.5953 11.5597 14.3977C9.45943 13.0136 10.821 12.2529 12.0179 11.0097C12.3312 10.6843 17.7742 5.73349 17.8795 5.28437C17.8927 5.2282 17.9049 5.01883 17.7806 4.90827C17.6562 4.79771 17.4726 4.83552 17.3401 4.86559C17.1523 4.90821 14.1613 6.88515 8.36707 10.7964C7.51808 11.3794 6.74909 11.6634 6.0601 11.6486C5.30055 11.6322 3.83948 11.2191 2.75332 10.866C1.4211 10.433 0.36228 10.204 0.45448 9.46857C0.502503 9.0855 1.03003 8.69374 2.03705 8.29328Z" fill="#26AEE8"/>
</svg>
