<svg width="44" height="44" viewBox="0 0 44 44" fill="none" xmlns="http://www.w3.org/2000/svg">
<g clip-path="url(#clip0_1_103)">
<path d="M-8 -0.5H52V44.5H-8V-0.5Z" fill="#012169"/>
<path d="M-0.96875 -0.5L21.9062 16.4688L44.6875 -0.5H52V5.3125L29.5 22.0938L52 38.7812V44.5H44.5L22 27.7188L-0.40625 44.5H-8V38.875L14.4062 22.1875L-8 5.5V-0.5H-0.96875Z" fill="white"/>
<path d="M31.75 25.8438L52 40.75V44.5L26.5938 25.8438H31.75ZM14.5 27.7188L15.0625 31L-2.9375 44.5H-8L14.5 27.7188ZM52 -0.5V-0.21875L28.6562 17.4062L28.8438 13.2812L47.3125 -0.5H52ZM-8 -0.5L14.4062 16H8.78125L-8 3.4375V-0.5Z" fill="#C8102E"/>
<path d="M14.5938 -0.5V44.5H29.5938V-0.5H14.5938ZM-8 14.5V29.5H52V14.5H-8Z" fill="white"/>
<path d="M-8 17.5938V26.5938H52V17.5938H-8ZM17.5938 -0.5V44.5H26.5938V-0.5H17.5938Z" fill="#C8102E"/>
</g>
<defs>
<clipPath id="clip0_1_103">
<rect width="60" height="45" fill="white" transform="translate(-8 -0.5)"/>
</clipPath>
</defs>
</svg>
