<svg width="1058" height="640" viewBox="0 0 1058 640" fill="none" xmlns="http://www.w3.org/2000/svg">
<g clip-path="url(#clip0_433_5030)">
<mask id="path-1-inside-1_433_5030" fill="white">
<path d="M713.055 -11.354L894.028 93.1311L895.195 302.111L714.222 197.625L713.055 -11.354Z"/>
</mask>
<path d="M713.055 -11.354L713.049 -12.354L712.183 -12.854L712.189 -11.854L713.055 -11.354ZM894.028 93.1311L894.894 93.6311L894.889 92.6311L894.023 92.1311L894.028 93.1311ZM895.195 302.111L895.201 303.111L896.067 303.611L896.061 302.611L895.195 302.111ZM714.222 197.625L713.356 197.125L713.361 198.125L714.227 198.625L714.222 197.625ZM713.06 -10.354L894.034 94.1311L894.023 92.1311L713.049 -12.354L713.06 -10.354ZM893.162 92.6311L894.329 301.611L896.061 302.611L894.894 93.6311L893.162 92.6311ZM895.19 301.111L714.216 196.625L714.227 198.625L895.201 303.111L895.19 301.111ZM715.088 198.125L713.921 -10.854L712.189 -11.854L713.356 197.125L715.088 198.125Z" fill="#DBDBDD" mask="url(#path-1-inside-1_433_5030)"/>
<mask id="path-3-inside-2_433_5030" fill="white">
<path d="M1072.05 -8.79102L1072.05 197.818L893.726 302.109L893.726 95.4991L1072.05 -8.79102Z"/>
</mask>
<path d="M1072.05 197.818L1072.05 198.818L1072.92 198.314L1072.92 197.314L1072.05 197.818ZM1071.19 -8.28619L1071.19 198.323L1072.92 197.314L1072.92 -9.29584L1071.19 -8.28619ZM1072.05 196.818L893.726 301.109L893.726 303.109L1072.05 198.818L1072.05 196.818Z" fill="#DBDBDD" mask="url(#path-3-inside-2_433_5030)"/>
<mask id="path-5-inside-3_433_5030" fill="white">
<path d="M1072.21 -8.7793L891.697 -113L713 -11.1554L893.516 93.0652L1072.21 -8.7793Z"/>
</mask>
<path d="M1072.21 -8.7793L1073.08 -9.27445L1073.95 -8.77445L1073.08 -8.2793L1072.21 -8.7793ZM891.697 -113L890.831 -113.5L891.7 -113.995L892.566 -113.495L891.697 -113ZM1071.34 -8.28414L890.829 -112.505L892.566 -113.495L1073.08 -9.27445L1071.34 -8.28414ZM892.564 -112.5L713.866 -10.6554L712.134 -11.6554L890.831 -113.5L892.564 -112.5ZM892.65 92.5652L1071.35 -9.2793L1073.08 -8.2793L894.382 93.5652L892.65 92.5652Z" fill="#DBDBDD" mask="url(#path-5-inside-3_433_5030)"/>
<mask id="path-7-inside-4_433_5030" fill="white">
<path d="M338.91 202.68L447.146 265.17L447.495 327.631L339.259 265.141L338.91 202.68Z"/>
</mask>
<path d="M338.91 202.68L338.905 201.68L338.039 201.18L338.044 202.18L338.91 202.68ZM447.146 265.17L448.012 265.67L448.007 264.67L447.141 264.17L447.146 265.17ZM447.495 327.631L447.501 328.631L448.367 329.131L448.361 328.131L447.495 327.631ZM339.259 265.141L338.393 264.641L338.399 265.641L339.265 266.141L339.259 265.141ZM338.916 203.68L447.152 266.17L447.141 264.17L338.905 201.68L338.916 203.68ZM446.28 264.67L446.629 327.131L448.361 328.131L448.012 265.67L446.28 264.67ZM447.49 326.631L339.253 264.141L339.265 266.141L447.501 328.631L447.49 326.631ZM340.125 265.641L339.776 203.18L338.044 202.18L338.393 264.641L340.125 265.641Z" fill="#969696" mask="url(#path-7-inside-4_433_5030)"/>
<mask id="path-9-inside-5_433_5030" fill="white">
<path d="M701.369 202.68L593.133 265.17L592.784 327.631L701.02 265.141L701.369 202.68Z"/>
</mask>
<path d="M701.369 202.68L593.133 265.17L592.784 327.631L701.02 265.141L701.369 202.68Z" fill="#F0F0F0"/>
<path d="M701.369 202.68L701.375 201.68L702.241 201.18L702.235 202.18L701.369 202.68ZM593.133 265.17L592.267 265.67L592.272 264.67L593.138 264.17L593.133 265.17ZM592.784 327.631L592.778 328.631L591.912 329.131L591.918 328.131L592.784 327.631ZM701.02 265.141L701.886 264.641L701.881 265.641L701.015 266.141L701.02 265.141ZM701.364 203.68L593.127 266.17L593.138 264.17L701.375 201.68L701.364 203.68ZM593.999 264.67L593.65 327.131L591.918 328.131L592.267 265.67L593.999 264.67ZM592.79 326.631L701.026 264.141L701.015 266.141L592.778 328.631L592.79 326.631ZM700.154 265.641L700.503 203.18L702.235 202.18L701.886 264.641L700.154 265.641Z" fill="#969696" mask="url(#path-9-inside-5_433_5030)"/>
<mask id="path-11-inside-6_433_5030" fill="white">
<path d="M520.29 518.13L520.29 393.15L466.372 361.617L466.372 486.598L520.29 518.13Z"/>
</mask>
<path d="M520.29 518.13L521.153 518.635L521.153 519.635L520.29 519.13L520.29 518.13ZM520.29 393.15L520.29 392.15L521.153 392.655L521.153 393.655L520.29 393.15ZM466.372 361.617L465.509 361.112L465.509 360.112L466.372 360.617L466.372 361.617ZM466.372 486.598L466.372 487.598L465.509 487.093L465.509 486.093L466.372 486.598ZM519.427 517.625L519.427 392.645L521.153 393.655L521.153 518.635L519.427 517.625ZM520.29 394.15L466.372 362.617L466.372 360.617L520.29 392.15L520.29 394.15ZM467.235 362.122L467.235 487.103L465.509 486.093L465.509 361.112L467.235 362.122ZM466.372 485.598L520.29 517.13L520.29 519.13L466.372 487.598L466.372 485.598Z" fill="#969696" mask="url(#path-11-inside-6_433_5030)"/>
<mask id="path-13-inside-7_433_5030" fill="white">
<path d="M339.281 349.999L393.371 381.227L393.72 443.688L339.63 412.459L339.281 349.999Z"/>
</mask>
<path d="M339.281 349.999L339.276 348.999L338.41 348.499L338.415 349.499L339.281 349.999ZM393.371 381.227L394.237 381.727L394.232 380.727L393.366 380.227L393.371 381.227ZM393.72 443.688L393.726 444.688L394.592 445.188L394.586 444.188L393.72 443.688ZM339.63 412.459L338.764 411.959L338.77 412.959L339.636 413.459L339.63 412.459ZM339.287 350.999L393.377 382.227L393.366 380.227L339.276 348.999L339.287 350.999ZM392.505 380.727L392.854 443.188L394.586 444.188L394.237 381.727L392.505 380.727ZM393.715 442.688L339.625 411.459L339.636 413.459L393.726 444.688L393.715 442.688ZM340.496 412.959L340.147 350.499L338.415 349.499L338.764 411.959L340.496 412.959Z" fill="#969696" mask="url(#path-13-inside-7_433_5030)"/>
<mask id="path-15-inside-8_433_5030" fill="white">
<path d="M594.281 349.999L648.371 381.227L648.72 443.688L594.63 412.459L594.281 349.999Z"/>
</mask>
<path d="M594.281 349.999L594.276 348.999L593.41 348.499L593.415 349.499L594.281 349.999ZM648.371 381.227L649.237 381.727L649.232 380.727L648.366 380.227L648.371 381.227ZM648.72 443.688L648.726 444.688L649.592 445.188L649.586 444.188L648.72 443.688ZM594.63 412.459L593.764 411.959L593.77 412.959L594.636 413.459L594.63 412.459ZM594.287 350.999L648.377 382.227L648.366 380.227L594.276 348.999L594.287 350.999ZM647.505 380.727L647.854 443.188L649.586 444.188L649.237 381.727L647.505 380.727ZM648.715 442.688L594.625 411.459L594.636 413.459L648.726 444.688L648.715 442.688ZM595.496 412.959L595.147 350.499L593.415 349.499L593.764 411.959L595.496 412.959Z" fill="#969696" mask="url(#path-15-inside-8_433_5030)"/>
<mask id="path-17-inside-9_433_5030" fill="white">
<path d="M466.281 129.999L520.371 161.228L520.72 223.688L466.63 192.459L466.281 129.999Z"/>
</mask>
<path d="M466.281 129.999L466.276 128.999L465.41 128.499L465.415 129.499L466.281 129.999ZM520.371 161.228L521.237 161.728L521.232 160.728L520.366 160.228L520.371 161.228ZM520.72 223.688L520.726 224.688L521.592 225.188L521.586 224.188L520.72 223.688ZM466.63 192.459L465.764 191.959L465.77 192.959L466.636 193.459L466.63 192.459ZM466.287 130.999L520.377 162.228L520.366 160.228L466.276 128.999L466.287 130.999ZM519.505 160.728L519.854 223.188L521.586 224.188L521.237 161.728L519.505 160.728ZM520.715 222.688L466.625 191.459L466.636 193.459L520.726 224.688L520.715 222.688ZM467.496 192.959L467.147 130.499L465.415 129.499L465.764 191.959L467.496 192.959Z" fill="#969696" mask="url(#path-17-inside-9_433_5030)"/>
<g opacity="0.3">
<mask id="path-19-inside-10_433_5030" fill="white">
<path d="M415.082 246.697L447.306 265.302L447.407 283.411L415.183 264.806L415.082 246.697Z"/>
</mask>
<path d="M447.407 283.411L447.413 284.411L448.279 284.911L448.273 283.911L447.407 283.411ZM415.183 264.806L414.317 264.306L414.323 265.306L415.189 265.806L415.183 264.806ZM446.44 264.802L446.541 282.911L448.273 283.911L448.172 265.802L446.44 264.802ZM447.402 282.411L415.178 263.806L415.189 265.806L447.413 284.411L447.402 282.411ZM416.049 265.306L415.948 247.197L414.216 246.197L414.317 264.306L416.049 265.306Z" fill="#969696" mask="url(#path-19-inside-10_433_5030)"/>
</g>
<g opacity="0.3">
<mask id="path-21-inside-11_433_5030" fill="white">
<path d="M624.918 246.697L592.694 265.302L592.593 283.411L624.817 264.806L624.918 246.697Z"/>
</mask>
<path d="M592.593 283.411L592.587 284.411L591.721 284.911L591.727 283.911L592.593 283.411ZM624.817 264.806L625.683 264.306L625.677 265.306L624.811 265.806L624.817 264.806ZM593.56 264.802L593.459 282.911L591.727 283.911L591.828 265.802L593.56 264.802ZM592.598 282.411L624.822 263.806L624.811 265.806L592.587 284.411L592.598 282.411ZM623.951 265.306L624.052 247.197L625.784 246.197L625.683 264.306L623.951 265.306Z" fill="#969696" mask="url(#path-21-inside-11_433_5030)"/>
</g>
<g opacity="0.3">
<mask id="path-23-inside-12_433_5030" fill="white">
<path d="M520.408 136.208L520.408 45.8922L535.063 37.3216L535.063 127.638L520.408 136.208Z"/>
</mask>
<path d="M535.063 37.3216L535.927 36.8167L535.927 35.8167L535.063 36.3216L535.063 37.3216ZM535.063 127.638L535.063 128.638L535.927 128.133L535.927 127.133L535.063 127.638ZM520.408 46.8922L535.063 38.3216L535.063 36.3216L520.408 44.8922L520.408 46.8922ZM534.2 37.8264L534.2 128.143L535.927 127.133L535.927 36.8167L534.2 37.8264ZM535.063 126.638L520.408 135.208L520.408 137.208L535.063 128.638L535.063 126.638Z" fill="#969696" mask="url(#path-23-inside-12_433_5030)"/>
</g>
<g opacity="0.3">
<mask id="path-25-inside-13_433_5030" fill="white">
<path d="M371.93 395.28L293.713 440.438L293.619 457.415L371.835 412.257L371.93 395.28Z"/>
</mask>
<path d="M293.619 457.415L293.613 458.415L292.747 458.915L292.753 457.915L293.619 457.415ZM371.835 412.257L372.701 411.757L372.695 412.757L371.829 413.257L371.835 412.257ZM294.58 439.938L294.485 456.915L292.753 457.915L292.847 440.938L294.58 439.938ZM293.624 456.415L371.84 411.257L371.829 413.257L293.613 458.415L293.624 456.415ZM370.969 412.757L371.064 395.78L372.796 394.78L372.701 411.757L370.969 412.757Z" fill="#969696" mask="url(#path-25-inside-13_433_5030)"/>
</g>
<g opacity="0.3">
<mask id="path-27-inside-14_433_5030" fill="white">
<path d="M519.74 430.228L519.74 393.019L504.108 383.877L504.108 421.086L519.74 430.228Z"/>
</mask>
<path d="M504.108 383.877L503.245 383.372L503.245 382.372L504.108 382.877L504.108 383.877ZM504.108 421.086L504.108 422.086L503.245 421.581L503.245 420.581L504.108 421.086ZM519.74 394.019L504.108 384.877L504.108 382.877L519.74 392.019L519.74 394.019ZM504.971 384.382L504.971 421.591L503.245 420.581L503.245 383.372L504.971 384.382ZM504.108 420.086L519.74 429.228L519.74 431.228L504.108 422.086L504.108 420.086Z" fill="#969696" mask="url(#path-27-inside-14_433_5030)"/>
</g>
<mask id="path-29-inside-15_433_5030" fill="white">
<path d="M240.141 293.073L295.988 325.317L296.164 356.701L240.316 324.458L240.141 293.073Z"/>
</mask>
<path d="M296.164 356.701L296.169 357.701L297.035 358.201L297.03 357.201L296.164 356.701ZM240.316 324.458L239.45 323.958L239.455 324.958L240.321 325.458L240.316 324.458ZM295.122 324.817L295.298 356.201L297.03 357.201L296.854 325.817L295.122 324.817ZM296.158 355.701L240.31 323.458L240.321 325.458L296.169 357.701L296.158 355.701ZM241.182 324.958L241.007 293.573L239.275 292.573L239.45 323.958L241.182 324.958Z" fill="#969696" mask="url(#path-29-inside-15_433_5030)"/>
<g opacity="0.3">
<mask id="path-31-inside-16_433_5030" fill="white">
<path d="M393.635 559.716L393.635 495.228L420.727 479.384L420.727 543.872L393.635 559.716Z"/>
</mask>
<path d="M420.727 479.384L421.59 478.879L421.59 477.879L420.727 478.384L420.727 479.384ZM420.727 543.872L420.727 544.872L421.59 544.367L421.59 543.367L420.727 543.872ZM393.635 496.228L420.727 480.384L420.727 478.384L393.635 494.228L393.635 496.228ZM419.864 479.889L419.864 544.376L421.59 543.367L421.59 478.879L419.864 479.889ZM420.727 542.872L393.635 558.716L393.635 560.716L420.727 544.872L420.727 542.872Z" fill="#969696" mask="url(#path-31-inside-16_433_5030)"/>
</g>
<mask id="path-33-inside-17_433_5030" fill="white">
<path d="M647.635 558.716L647.635 494.228L674.727 478.384L674.727 542.872L647.635 558.716Z"/>
</mask>
<path d="M647.635 558.716L647.635 494.228L674.727 478.384L674.727 542.872L647.635 558.716Z" fill="#F0F0F0"/>
<path d="M674.727 478.384L675.59 477.879L675.59 476.879L674.727 477.384L674.727 478.384ZM674.727 542.872L674.727 543.872L675.59 543.367L675.59 542.367L674.727 542.872ZM647.635 495.228L674.727 479.384L674.727 477.384L647.635 493.228L647.635 495.228ZM673.864 478.889L673.864 543.376L675.59 542.367L675.59 477.879L673.864 478.889ZM674.727 541.872L647.635 557.716L647.635 559.716L674.727 543.872L674.727 541.872Z" fill="#969696" mask="url(#path-33-inside-17_433_5030)"/>
<mask id="path-35-inside-18_433_5030" fill="white">
<path d="M367.141 72.0732L422.988 104.317L423.164 135.701L367.316 103.458L367.141 72.0732Z"/>
</mask>
<path d="M423.164 135.701L423.169 136.701L424.035 137.201L424.03 136.201L423.164 135.701ZM367.316 103.458L366.45 102.958L366.455 103.958L367.321 104.458L367.316 103.458ZM422.122 103.817L422.298 135.201L424.03 136.201L423.854 104.817L422.122 103.817ZM423.158 134.701L367.31 102.458L367.321 104.458L423.169 136.701L423.158 134.701ZM368.182 103.958L368.007 72.5732L366.275 71.5732L366.45 102.958L368.182 103.958Z" fill="#969696" mask="url(#path-35-inside-18_433_5030)"/>
<mask id="path-37-inside-19_433_5030" fill="white">
<path d="M883.142 374.073L992.539 437.234L992.715 468.619L883.317 405.458L883.142 374.073Z"/>
</mask>
<path d="M992.715 468.619L992.72 469.619L993.586 470.119L993.581 469.119L992.715 468.619ZM883.317 405.458L882.451 404.958L882.456 405.958L883.322 406.458L883.317 405.458ZM991.673 436.734L991.848 468.119L993.581 469.119L993.405 437.734L991.673 436.734ZM992.709 467.619L883.311 404.458L883.322 406.458L992.72 469.619L992.709 467.619ZM884.183 405.958L884.008 374.573L882.276 373.573L882.451 404.958L884.183 405.958Z" fill="#DBDBDD" mask="url(#path-37-inside-19_433_5030)"/>
<mask id="path-39-inside-20_433_5030" fill="white">
<path d="M786.142 609.073L895.539 672.234L895.715 703.619L786.317 640.458L786.142 609.073Z"/>
</mask>
<path d="M895.715 703.619L895.72 704.619L896.586 705.119L896.581 704.119L895.715 703.619ZM786.317 640.458L785.451 639.958L785.456 640.958L786.322 641.458L786.317 640.458ZM894.673 671.734L894.848 703.119L896.581 704.119L896.405 672.734L894.673 671.734ZM895.709 702.619L786.311 639.458L786.322 641.458L895.72 704.619L895.709 702.619ZM787.183 640.958L787.008 609.573L785.276 608.573L785.451 639.958L787.183 640.958Z" fill="#DBDBDD" mask="url(#path-39-inside-20_433_5030)"/>
<mask id="path-41-inside-21_433_5030" fill="white">
<path d="M180.142 -24.9265L289.539 38.2342L289.715 69.6186L180.317 6.4579L180.142 -24.9265Z"/>
</mask>
<path d="M289.715 69.6186L289.72 70.6186L290.586 71.1186L290.581 70.1186L289.715 69.6186ZM180.317 6.4579L179.451 5.9579L179.456 6.95789L180.322 7.45789L180.317 6.4579ZM288.673 37.7342L288.848 69.1186L290.581 70.1186L290.405 38.7342L288.673 37.7342ZM289.709 68.6187L180.311 5.45792L180.322 7.45789L289.72 70.6186L289.709 68.6187ZM181.183 6.9579L181.008 -24.4265L179.276 -25.4265L179.451 5.9579L181.183 6.9579Z" fill="#DBDBDD" mask="url(#path-41-inside-21_433_5030)"/>
<mask id="path-43-inside-22_433_5030" fill="white">
<path d="M493.141 0.0732422L520.311 15.7603L520.487 47.1447L493.316 31.4577L493.141 0.0732422Z"/>
</mask>
<path d="M520.487 47.1447L520.492 48.1447L521.358 48.6447L521.353 47.6447L520.487 47.1447ZM493.316 31.4577L492.45 30.9577L492.455 31.9576L493.321 32.4576L493.316 31.4577ZM519.445 15.2603L519.621 46.6447L521.353 47.6447L521.177 16.2603L519.445 15.2603ZM520.481 46.1447L493.31 30.4577L493.321 32.4576L520.492 48.1447L520.481 46.1447ZM494.182 31.9577L494.007 0.573242L492.275 -0.426758L492.45 30.9577L494.182 31.9577Z" fill="#969696" mask="url(#path-43-inside-22_433_5030)"/>
<g opacity="0.3">
<mask id="path-45-inside-23_433_5030" fill="white">
<path d="M241.141 439.073L268.311 454.76L268.487 486.144L241.316 470.457L241.141 439.073Z"/>
</mask>
<path d="M268.487 486.144L268.492 487.144L269.358 487.644L269.353 486.644L268.487 486.144ZM241.316 470.457L240.45 469.957L240.455 470.957L241.321 471.457L241.316 470.457ZM267.445 454.26L267.621 485.644L269.353 486.644L269.177 455.26L267.445 454.26ZM268.481 485.144L241.31 469.457L241.321 471.457L268.492 487.144L268.481 485.144ZM242.182 470.957L242.007 439.573L240.275 438.573L240.45 469.957L242.182 470.957Z" fill="#969696" mask="url(#path-45-inside-23_433_5030)"/>
</g>
<mask id="path-47-inside-24_433_5030" fill="white">
<path d="M745.141 439.073L772.311 454.76L772.487 486.144L745.316 470.457L745.141 439.073Z"/>
</mask>
<path d="M772.487 486.144L772.492 487.144L773.358 487.644L773.353 486.644L772.487 486.144ZM745.316 470.457L744.45 469.957L744.455 470.957L745.321 471.457L745.316 470.457ZM771.445 454.26L771.621 485.644L773.353 486.644L773.177 455.26L771.445 454.26ZM772.481 485.144L745.31 469.457L745.321 471.457L772.492 487.144L772.481 485.144ZM746.182 470.957L746.007 439.573L744.275 438.573L744.45 469.957L746.182 470.957Z" fill="#969696" mask="url(#path-47-inside-24_433_5030)"/>
<mask id="path-49-inside-25_433_5030" fill="white">
<path d="M675.048 73.0732L619.2 105.317L619.025 136.701L674.873 104.458L675.048 73.0732Z"/>
</mask>
<path d="M675.048 73.0732L619.2 105.317L619.025 136.701L674.873 104.458L675.048 73.0732Z" fill="#F0F0F0"/>
<path d="M619.025 136.701L619.019 137.701L618.153 138.201L618.159 137.201L619.025 136.701ZM674.873 104.458L675.739 103.958L675.733 104.958L674.867 105.458L674.873 104.458ZM620.066 104.817L619.891 136.201L618.159 137.201L618.334 105.817L620.066 104.817ZM619.03 135.701L674.878 103.458L674.867 105.458L619.019 137.701L619.03 135.701ZM674.007 104.958L674.182 73.5732L675.914 72.5732L675.739 103.958L674.007 104.958Z" fill="#969696" mask="url(#path-49-inside-25_433_5030)"/>
<mask id="path-51-inside-26_433_5030" fill="white">
<path d="M185 113.68L295.223 177.317L295.398 208.701L185.175 145.064L185 113.68Z"/>
</mask>
<path d="M295.398 208.701L295.404 209.701L296.27 210.201L296.264 209.201L295.398 208.701ZM185.175 145.064L184.309 144.564L184.315 145.564L185.181 146.064L185.175 145.064ZM294.357 176.817L294.532 208.201L296.264 209.201L296.089 177.817L294.357 176.817ZM295.393 207.701L185.17 144.064L185.181 146.064L295.404 209.701L295.393 207.701ZM186.041 145.564L185.866 114.18L184.134 113.18L184.309 144.564L186.041 145.564Z" fill="#969696" mask="url(#path-51-inside-26_433_5030)"/>
<mask id="path-53-inside-27_433_5030" fill="white">
<path d="M855.006 113.913L745.187 177.317L745.012 208.702L854.831 145.298L855.006 113.913Z"/>
</mask>
<path d="M855.006 113.913L745.187 177.317L745.012 208.702L854.831 145.298L855.006 113.913Z" fill="#F0F0F0"/>
<path d="M745.012 208.702L745.006 209.702L744.14 210.202L744.146 209.202L745.012 208.702ZM854.831 145.298L855.697 144.798L855.691 145.797L854.825 146.297L854.831 145.298ZM746.053 176.817L745.878 208.202L744.146 209.202L744.321 177.817L746.053 176.817ZM745.017 207.702L854.836 144.298L854.825 146.297L745.006 209.702L745.017 207.702ZM853.965 145.798L854.14 114.413L855.872 113.413L855.697 144.798L853.965 145.798Z" fill="#969696" mask="url(#path-53-inside-27_433_5030)"/>
<g opacity="0.3">
<mask id="path-55-inside-28_433_5030" fill="white">
<path d="M520.396 696.883L520.396 568.942L493.304 553.098L493.304 681.039L520.396 696.883Z"/>
</mask>
<path d="M493.304 553.098L492.441 552.593L492.441 551.593L493.304 552.098L493.304 553.098ZM493.304 681.039L493.304 682.039L492.441 681.534L492.441 680.534L493.304 681.039ZM520.396 569.942L493.304 554.098L493.304 552.098L520.396 567.942L520.396 569.942ZM494.168 553.603L494.168 681.544L492.441 680.534L492.441 552.593L494.168 553.603ZM493.304 680.039L520.396 695.883L520.396 697.883L493.304 682.039L493.304 680.039Z" fill="#969696" mask="url(#path-55-inside-28_433_5030)"/>
</g>
<mask id="path-57-inside-29_433_5030" fill="white">
<path d="M800.048 294.073L744.2 326.317L744.025 357.701L799.873 325.458L800.048 294.073Z"/>
</mask>
<path d="M800.048 294.073L744.2 326.317L744.025 357.701L799.873 325.458L800.048 294.073Z" fill="#F0F0F0"/>
<path d="M744.025 357.701L744.019 358.701L743.153 359.201L743.159 358.201L744.025 357.701ZM799.873 325.458L800.739 324.958L800.733 325.958L799.867 326.458L799.873 325.458ZM745.066 325.817L744.891 357.201L743.159 358.201L743.334 326.817L745.066 325.817ZM744.03 356.701L799.878 324.458L799.867 326.458L744.019 358.701L744.03 356.701ZM799.007 325.958L799.182 294.573L800.914 293.573L800.739 324.958L799.007 325.958Z" fill="#969696" mask="url(#path-57-inside-29_433_5030)"/>
<mask id="path-59-inside-30_433_5030" fill="white">
<path d="M539.279 235.366L539.279 296.194L593.279 327.774L593.279 266.947L539.279 235.366Z"/>
</mask>
<path d="M539.279 296.194L539.279 297.194L538.416 296.689L538.416 295.689L539.279 296.194ZM540.143 235.871L540.143 296.699L538.416 295.689L538.416 234.861L540.143 235.871ZM539.279 295.194L593.279 326.774L593.279 328.774L539.279 297.194L539.279 295.194Z" fill="#969696" mask="url(#path-59-inside-30_433_5030)"/>
<mask id="path-61-inside-31_433_5030" fill="white">
<path d="M501 235.366L501 296.194L447 327.774L447 266.947L501 235.366Z"/>
</mask>
<path d="M501 235.366L501 296.194L447 327.774L447 266.947L501 235.366Z" fill="#F0F0F0"/>
<path d="M501 296.194L501 297.194L501.863 296.689L501.863 295.689L501 296.194ZM500.137 235.871L500.137 296.699L501.863 295.689L501.863 234.861L500.137 235.871ZM501 295.194L447 326.774L447 328.774L501 297.194L501 295.194Z" fill="#969696" mask="url(#path-61-inside-31_433_5030)"/>
<mask id="path-63-inside-32_433_5030" fill="white">
<path d="M573.027 361.414L520.349 331L465.999 361.975L518.678 392.389L573.027 361.414Z"/>
</mask>
<path d="M520.349 331L519.483 330.5L520.352 330.005L521.218 330.505L520.349 331ZM572.159 361.909L519.48 331.495L521.218 330.505L573.896 360.919L572.159 361.909ZM521.215 331.5L466.865 362.475L465.133 361.475L519.483 330.5L521.215 331.5Z" fill="#969696" mask="url(#path-63-inside-32_433_5030)"/>
<mask id="path-65-inside-33_433_5030" fill="white">
<path d="M447.281 351L447.281 411.828L393.281 443.408L393.281 382.58L447.281 351Z"/>
</mask>
<path d="M447.281 351L447.281 411.828L393.281 443.408L393.281 382.58L447.281 351Z" fill="#F0F0F0"/>
<path d="M447.281 411.828L447.281 412.828L448.144 412.323L448.144 411.323L447.281 411.828ZM446.418 351.505L446.418 412.333L448.144 411.323L448.144 350.495L446.418 351.505ZM447.281 410.828L393.281 442.408L393.281 444.408L447.281 412.828L447.281 410.828Z" fill="#969696" mask="url(#path-65-inside-33_433_5030)"/>
<mask id="path-67-inside-34_433_5030" fill="white">
<path d="M702.281 351L702.281 411.828L648.281 443.408L648.281 382.58L702.281 351Z"/>
</mask>
<path d="M702.281 351L702.281 411.828L648.281 443.408L648.281 382.58L702.281 351Z" fill="#F0F0F0"/>
<path d="M702.281 411.828L702.281 412.828L703.144 412.323L703.144 411.323L702.281 411.828ZM701.418 351.505L701.418 412.333L703.144 411.323L703.144 350.495L701.418 351.505ZM702.281 410.828L648.281 442.408L648.281 444.408L702.281 412.828L702.281 410.828Z" fill="#969696" mask="url(#path-67-inside-34_433_5030)"/>
<mask id="path-69-inside-35_433_5030" fill="white">
<path d="M574.281 131L574.281 191.828L520.281 223.408L520.281 162.58L574.281 131Z"/>
</mask>
<path d="M574.281 131L574.281 191.828L520.281 223.408L520.281 162.58L574.281 131Z" fill="#F0F0F0"/>
<path d="M574.281 191.828L574.281 192.828L575.144 192.323L575.144 191.323L574.281 191.828ZM573.418 131.505L573.418 192.333L575.144 191.323L575.144 130.495L573.418 131.505ZM574.281 190.828L520.281 222.408L520.281 224.408L574.281 192.828L574.281 190.828Z" fill="#969696" mask="url(#path-69-inside-35_433_5030)"/>
<mask id="path-71-inside-36_433_5030" fill="white">
<path d="M539 235.217L647.488 172.582L701.822 203.549L593.334 266.184L539 235.217Z"/>
</mask>
<path d="M539 235.217L538.131 234.722L537.265 235.222L538.134 235.717L539 235.217ZM647.488 172.582L648.354 172.082L647.485 171.587L646.619 172.087L647.488 172.582ZM539.869 235.712L648.356 173.077L646.619 172.087L538.131 234.722L539.869 235.712ZM646.622 173.082L700.956 204.049L702.688 203.049L648.354 172.082L646.622 173.082ZM594.201 265.684L539.866 234.717L538.134 235.717L592.468 266.684L594.201 265.684Z" fill="#969696" mask="url(#path-71-inside-36_433_5030)"/>
<mask id="path-73-inside-37_433_5030" fill="white">
<path d="M450.049 89.3413L450.049 119.905L422.916 135.773L422.916 105.209L450.049 89.3413Z"/>
</mask>
<path d="M450.049 89.3413L450.049 119.905L422.916 135.773L422.916 105.209L450.049 89.3413Z" fill="#F0F0F0"/>
<path d="M450.049 119.905L450.049 120.905L450.912 120.401L450.912 119.401L450.049 119.905ZM449.186 89.8461L449.186 120.41L450.912 119.401L450.912 88.8365L449.186 89.8461ZM450.049 118.905L422.916 134.773L422.916 136.773L450.049 120.905L450.049 118.905Z" fill="#969696" mask="url(#path-73-inside-37_433_5030)"/>
<mask id="path-75-inside-38_433_5030" fill="white">
<path d="M1019.13 422L1019.13 452.564L992.001 468.432L992.001 437.868L1019.13 422Z"/>
</mask>
<path d="M1019.13 452.564L1019.13 453.564L1020 453.059L1020 452.059L1019.13 452.564ZM1018.27 422.505L1018.27 453.069L1020 452.059L1020 421.495L1018.27 422.505ZM1019.13 451.564L992.001 467.432L992.001 469.432L1019.13 453.564L1019.13 451.564Z" fill="#DBDBDD" mask="url(#path-75-inside-38_433_5030)"/>
<mask id="path-77-inside-39_433_5030" fill="white">
<path d="M316.134 23L316.134 53.564L289.001 69.4321L289.001 38.8681L316.134 23Z"/>
</mask>
<path d="M316.134 53.564L316.134 54.564L316.997 54.0592L316.997 53.0592L316.134 53.564ZM315.271 23.5048L315.271 54.0689L316.997 53.0592L316.997 22.4952L315.271 23.5048ZM316.134 52.564L289.001 68.4321L289.001 70.4321L316.134 54.564L316.134 52.564Z" fill="#DBDBDD" mask="url(#path-77-inside-39_433_5030)"/>
<mask id="path-79-inside-40_433_5030" fill="white">
<path d="M547.133 0.325684L547.133 31.5639L520 47.432L520 16.1938L547.133 0.325684Z"/>
</mask>
<path d="M547.133 0.325684L547.133 31.5639L520 47.432L520 16.1938L547.133 0.325684Z" fill="#F0F0F0"/>
<path d="M547.133 31.5639L547.133 32.5639L547.996 32.0591L547.996 31.0591L547.133 31.5639ZM546.27 0.830513L546.27 32.0687L547.996 31.0591L547.996 -0.179145L546.27 0.830513ZM547.133 30.5639L520 46.432L520 48.432L547.133 32.5639L547.133 30.5639Z" fill="#969696" mask="url(#path-79-inside-40_433_5030)"/>
<g opacity="0.3">
<mask id="path-81-inside-41_433_5030" fill="white">
<path d="M295.133 440L295.133 470.564L268 486.432L268 455.868L295.133 440Z"/>
</mask>
<path d="M295.133 470.564L295.133 471.564L295.996 471.059L295.996 470.059L295.133 470.564ZM294.27 440.504L294.27 471.068L295.996 470.059L295.996 439.495L294.27 440.504ZM295.133 469.564L268 485.432L268 487.432L295.133 471.564L295.133 469.564Z" fill="#969696" mask="url(#path-81-inside-41_433_5030)"/>
</g>
<mask id="path-83-inside-42_433_5030" fill="white">
<path d="M799.133 440L799.133 470.564L772 486.432L772 455.868L799.133 440Z"/>
</mask>
<path d="M799.133 440L799.133 470.564L772 486.432L772 455.868L799.133 440Z" fill="#F0F0F0"/>
<path d="M799.133 470.564L799.133 471.564L799.996 471.059L799.996 470.059L799.133 470.564ZM798.27 440.504L798.27 471.068L799.996 470.059L799.996 439.495L798.27 440.504ZM799.133 469.564L772 485.432L772 487.432L799.133 471.564L799.133 469.564Z" fill="#969696" mask="url(#path-83-inside-42_433_5030)"/>
<mask id="path-85-inside-43_433_5030" fill="white">
<path d="M322.049 162.341L322.049 192.905L294.916 208.773L294.916 178.209L322.049 162.341Z"/>
</mask>
<path d="M322.049 162.341L322.049 192.905L294.916 208.773L294.916 178.209L322.049 162.341Z" fill="#F0F0F0"/>
<path d="M322.049 192.905L322.049 193.905L322.912 193.401L322.912 192.401L322.049 192.905ZM321.186 162.846L321.186 193.41L322.912 192.401L322.912 161.836L321.186 162.846ZM322.049 191.905L294.916 207.773L294.916 209.773L322.049 193.905L322.049 191.905Z" fill="#969696" mask="url(#path-85-inside-43_433_5030)"/>
<mask id="path-87-inside-44_433_5030" fill="white">
<path d="M718.361 162.341L718.361 192.905L745.495 208.773L745.495 178.209L718.361 162.341Z"/>
</mask>
<path d="M718.361 192.905L718.361 193.905L717.498 193.401L717.498 192.401L718.361 192.905ZM719.225 162.846L719.225 193.41L717.498 192.401L717.498 161.836L719.225 162.846ZM718.361 191.905L745.495 207.773L745.495 209.773L718.361 193.905L718.361 191.905Z" fill="#969696" mask="url(#path-87-inside-44_433_5030)"/>
<g opacity="0.3">
<mask id="path-89-inside-45_433_5030" fill="white">
<path d="M546.778 553.282L520.309 538L493 553.564L519.47 568.846L546.778 553.282Z"/>
</mask>
<path d="M520.309 538L519.443 537.5L520.312 537.005L521.178 537.505L520.309 538ZM545.91 553.777L519.44 538.495L521.178 537.505L547.647 552.787L545.91 553.777ZM521.175 538.5L493.866 554.064L492.134 553.064L519.443 537.5L521.175 538.5Z" fill="#969696" mask="url(#path-89-inside-45_433_5030)"/>
</g>
<g opacity="0.3">
<mask id="path-91-inside-46_433_5030" fill="white">
<path d="M462.919 256.661L462.919 274.297L447 283.606L447 265.971L462.919 256.661Z"/>
</mask>
<path d="M462.919 274.297L462.919 275.297L463.782 274.792L463.782 273.792L462.919 274.297ZM462.056 257.166L462.056 274.801L463.782 273.792L463.782 256.156L462.056 257.166ZM462.919 273.297L447 282.606L447 284.606L462.919 275.297L462.919 273.297Z" fill="#969696" mask="url(#path-91-inside-46_433_5030)"/>
</g>
<g opacity="0.3">
<mask id="path-93-inside-47_433_5030" fill="white">
<path d="M577.081 256.661L577.081 274.297L592.737 283.452L592.737 265.817L577.081 256.661Z"/>
</mask>
<path d="M577.081 274.297L577.081 275.297L576.218 274.792L576.218 273.792L577.081 274.297ZM577.944 257.166L577.944 274.801L576.218 273.792L576.218 256.156L577.944 257.166ZM577.081 273.297L592.737 282.452L592.737 284.452L577.081 275.297L577.081 273.297Z" fill="#969696" mask="url(#path-93-inside-47_433_5030)"/>
</g>
<g opacity="0.3">
<mask id="path-95-inside-48_433_5030" fill="white">
<path d="M506.073 37.2666L520.391 29L535.164 37.4191L520.846 45.6858L506.073 37.2666Z"/>
</mask>
<path d="M520.391 29L521.258 28.5L520.389 28.0048L519.523 28.5048L520.391 29ZM506.942 37.7618L521.26 29.4951L519.523 28.5048L505.204 36.7714L506.942 37.7618ZM519.525 29.5L534.298 37.9191L536.03 36.9191L521.258 28.5L519.525 29.5Z" fill="#969696" mask="url(#path-95-inside-48_433_5030)"/>
</g>
<g opacity="0.3">
<mask id="path-97-inside-49_433_5030" fill="white">
<path d="M760.146 432.337L760.146 448.87L745.469 457.454L745.469 440.92L760.146 432.337Z"/>
</mask>
<path d="M760.146 448.87L760.146 449.87L761.01 449.365L761.01 448.365L760.146 448.87ZM759.283 432.841L759.283 449.375L761.01 448.365L761.01 431.832L759.283 432.841ZM760.146 447.87L745.469 456.454L745.469 458.454L760.146 449.87L760.146 447.87Z" fill="#969696" mask="url(#path-97-inside-49_433_5030)"/>
</g>
<g opacity="0.3">
<mask id="path-99-inside-50_433_5030" fill="white">
<path d="M279.076 432.337L279.076 448.87L293.754 457.454L293.754 440.92L279.076 432.337Z"/>
</mask>
<path d="M279.076 448.87L279.076 449.87L278.213 449.365L278.213 448.365L279.076 448.87ZM279.939 432.841L279.939 449.375L278.213 448.365L278.213 431.832L279.939 432.841ZM279.076 447.87L293.754 456.454L293.754 458.454L279.076 449.87L279.076 447.87Z" fill="#969696" mask="url(#path-99-inside-50_433_5030)"/>
</g>
<g opacity="0.3">
<mask id="path-101-inside-51_433_5030" fill="white">
<path d="M506.073 127.267L520.391 119L535.164 127.419L520.846 135.686L506.073 127.267Z"/>
</mask>
<path d="M520.391 119L521.258 118.5L520.389 118.005L519.523 118.505L520.391 119ZM506.942 127.762L521.26 119.495L519.523 118.505L505.204 126.771L506.942 127.762ZM519.525 119.5L534.298 127.919L536.03 126.919L521.258 118.5L519.525 119.5Z" fill="#969696" mask="url(#path-101-inside-51_433_5030)"/>
</g>
<g opacity="0.3">
<mask id="path-103-inside-52_433_5030" fill="white">
<path d="M682.204 387.337L682.204 403.87L667.527 412.454L667.527 395.92L682.204 387.337Z"/>
</mask>
<path d="M682.204 403.87L682.204 404.87L683.067 404.365L683.067 403.365L682.204 403.87ZM681.341 387.841L681.341 404.375L683.067 403.365L683.067 386.832L681.341 387.841ZM682.204 402.87L667.527 411.454L667.527 413.454L682.204 404.87L682.204 402.87Z" fill="#969696" mask="url(#path-103-inside-52_433_5030)"/>
</g>
<g opacity="0.3">
<mask id="path-105-inside-53_433_5030" fill="white">
<path d="M535.029 383.818L519.757 375L503.999 383.98L519.272 392.798L535.029 383.818Z"/>
</mask>
<path d="M519.757 375L518.891 374.5L519.759 374.005L520.625 374.505L519.757 375ZM534.16 384.313L518.888 375.495L520.625 374.505L535.898 383.322L534.16 384.313ZM520.623 375.5L504.865 384.48L503.133 383.48L518.891 374.5L520.623 375.5Z" fill="#969696" mask="url(#path-105-inside-53_433_5030)"/>
</g>
<mask id="path-107-inside-54_433_5030" fill="white">
<path d="M323.049 310.341L323.049 340.905L295.916 356.773L295.916 326.209L323.049 310.341Z"/>
</mask>
<path d="M323.049 310.341L323.049 340.905L295.916 356.773L295.916 326.209L323.049 310.341Z" fill="#F0F0F0"/>
<path d="M323.049 340.905L323.049 341.905L323.912 341.401L323.912 340.401L323.049 340.905ZM322.186 310.846L322.186 341.41L323.912 340.401L323.912 309.836L322.186 310.846ZM323.049 339.905L295.916 355.773L295.916 357.773L323.049 341.905L323.049 339.905Z" fill="#969696" mask="url(#path-107-inside-54_433_5030)"/>
<g opacity="0.3">
<mask id="path-109-inside-55_433_5030" fill="white">
<path d="M367.135 479.282L393.604 464L420.913 479.564L394.444 494.846L367.135 479.282Z"/>
</mask>
<path d="M393.604 464L394.47 463.5L393.601 463.005L392.735 463.505L393.604 464ZM368.004 479.777L394.473 464.495L392.735 463.505L366.266 478.787L368.004 479.777ZM392.738 464.5L420.047 480.064L421.779 479.064L394.47 463.5L392.738 464.5Z" fill="#969696" mask="url(#path-109-inside-55_433_5030)"/>
</g>
<mask id="path-111-inside-56_433_5030" fill="white">
<path d="M621.135 478.282L647.604 463L674.913 478.564L648.444 493.846L621.135 478.282Z"/>
</mask>
<path d="M647.604 463L648.47 462.5L647.601 462.005L646.735 462.505L647.604 463ZM622.004 478.777L648.473 463.495L646.735 462.505L620.266 477.787L622.004 478.777ZM646.738 463.5L674.047 479.064L675.779 478.064L648.47 462.5L646.738 463.5Z" fill="#969696" mask="url(#path-111-inside-56_433_5030)"/>
<mask id="path-113-inside-57_433_5030" fill="white">
<path d="M592.141 90.3413L592.141 120.905L619.274 136.773L619.274 106.209L592.141 90.3413Z"/>
</mask>
<path d="M592.141 120.905L592.141 121.905L591.277 121.401L591.277 120.401L592.141 120.905ZM593.004 90.8461L593.004 121.41L591.277 120.401L591.277 89.8365L593.004 90.8461ZM592.141 119.905L619.274 135.773L619.274 137.773L592.141 121.905L592.141 119.905Z" fill="#969696" mask="url(#path-113-inside-57_433_5030)"/>
<mask id="path-115-inside-58_433_5030" fill="white">
<path d="M717.141 311.341L717.141 341.905L744.274 357.773L744.274 327.209L717.141 311.341Z"/>
</mask>
<path d="M717.141 341.905L717.141 342.905L716.277 342.401L716.277 341.401L717.141 341.905ZM718.004 311.846L718.004 342.41L716.277 341.401L716.277 310.836L718.004 311.846ZM717.141 340.905L744.274 356.773L744.274 358.773L717.141 342.905L717.141 340.905Z" fill="#969696" mask="url(#path-115-inside-58_433_5030)"/>
<mask id="path-117-inside-59_433_5030" fill="white">
<path d="M501.279 235.217L392.792 172.582L338.457 203.549L446.945 266.184L501.279 235.217Z"/>
</mask>
<path d="M501.279 235.217L502.148 234.722L503.014 235.222L502.145 235.717L501.279 235.217ZM392.792 172.582L391.926 172.082L392.795 171.587L393.661 172.087L392.792 172.582ZM500.41 235.712L391.923 173.077L393.661 172.087L502.148 234.722L500.41 235.712ZM393.658 173.082L339.323 204.049L337.591 203.049L391.926 172.082L393.658 173.082ZM446.079 265.684L500.413 234.717L502.145 235.717L447.811 266.684L446.079 265.684Z" fill="#969696" mask="url(#path-117-inside-59_433_5030)"/>
<mask id="path-119-inside-60_433_5030" fill="white">
<path d="M573.297 361.246L573.297 486.517L519.312 518.089L519.312 392.818L573.297 361.246Z"/>
</mask>
<path d="M573.297 361.246L573.297 486.517L519.312 518.089L519.312 392.818L573.297 361.246Z" fill="#F0F0F0"/>
<path d="M573.297 361.246L574.16 360.742L574.16 359.742L573.297 360.246L573.297 361.246ZM573.297 486.517L573.297 487.517L574.16 487.012L574.16 486.012L573.297 486.517ZM572.434 361.751L572.434 487.022L574.16 486.012L574.16 360.742L572.434 361.751ZM573.297 485.517L519.312 517.089L519.312 519.089L573.297 487.517L573.297 485.517ZM519.312 393.818L573.297 362.246L573.297 360.246L519.312 391.818L519.312 393.818Z" fill="#969696" mask="url(#path-119-inside-60_433_5030)"/>
<mask id="path-121-inside-61_433_5030" fill="white">
<path d="M447.495 351.269L393.335 320L339 350.966L393.161 382.236L447.495 351.269Z"/>
</mask>
<path d="M447.495 351.269L448.364 350.774L449.23 351.274L448.361 351.769L447.495 351.269ZM393.335 320L392.469 319.5L393.337 319.004L394.204 319.504L393.335 320ZM339 350.966L338.131 351.461L337.265 350.961L338.134 350.466L339 350.966ZM393.161 382.236L394.027 382.736L393.158 383.231L392.292 382.731L393.161 382.236ZM446.626 351.764L392.466 320.495L394.204 319.504L448.364 350.774L446.626 351.764ZM394.201 320.5L339.866 351.466L338.134 350.466L392.469 319.5L394.201 320.5ZM339.869 350.471L394.029 381.741L392.292 382.731L338.131 351.461L339.869 350.471ZM392.295 381.736L446.629 350.769L448.361 351.769L394.027 382.736L392.295 381.736Z" fill="#969696" mask="url(#path-121-inside-61_433_5030)"/>
<mask id="path-123-inside-62_433_5030" fill="white">
<path d="M702.495 351.269L648.335 320L594 350.966L648.161 382.236L702.495 351.269Z"/>
</mask>
<path d="M702.495 351.269L703.364 350.774L704.23 351.274L703.361 351.769L702.495 351.269ZM648.335 320L647.469 319.5L648.337 319.004L649.204 319.504L648.335 320ZM594 350.966L593.131 351.461L592.265 350.961L593.134 350.466L594 350.966ZM648.161 382.236L649.027 382.736L648.158 383.231L647.292 382.731L648.161 382.236ZM701.626 351.764L647.466 320.495L649.204 319.504L703.364 350.774L701.626 351.764ZM649.201 320.5L594.866 351.466L593.134 350.466L647.469 319.5L649.201 320.5ZM594.869 350.471L649.029 381.741L647.292 382.731L593.131 351.461L594.869 350.471ZM647.295 381.736L701.629 350.769L703.361 351.769L649.027 382.736L647.295 381.736Z" fill="#969696" mask="url(#path-123-inside-62_433_5030)"/>
<mask id="path-125-inside-63_433_5030" fill="white">
<path d="M450.188 89.2664L394.301 56.9998L367 72.5595L422.887 104.826L450.188 89.2664Z"/>
</mask>
<path d="M450.188 89.2664L451.057 88.7712L451.923 89.2712L451.055 89.7664L450.188 89.2664ZM394.301 56.9998L393.435 56.4998L394.304 56.0046L395.17 56.5046L394.301 56.9998ZM449.32 89.7615L393.432 57.4949L395.17 56.5046L451.057 88.7712L449.32 89.7615ZM395.167 57.4998L367.866 73.0595L366.134 72.0595L393.435 56.4998L395.167 57.4998ZM422.021 104.326L449.322 88.7664L451.055 89.7664L423.753 105.326L422.021 104.326Z" fill="#969696" mask="url(#path-125-inside-63_433_5030)"/>
<mask id="path-127-inside-64_433_5030" fill="white">
<path d="M1019.44 422.013L910.302 359L883.001 374.56L992.142 437.573L1019.44 422.013Z"/>
</mask>
<path d="M1019.44 422.013L1020.31 421.518L1021.18 422.018L1020.31 422.513L1019.44 422.013ZM910.302 359L909.436 358.5L910.305 358.005L911.171 358.505L910.302 359ZM1018.57 422.508L909.433 359.495L911.171 358.505L1020.31 421.518L1018.57 422.508ZM911.168 359.5L883.867 375.06L882.134 374.06L909.436 358.5L911.168 359.5ZM991.276 437.073L1018.58 421.513L1020.31 422.513L993.008 438.073L991.276 437.073Z" fill="#DBDBDD" mask="url(#path-127-inside-64_433_5030)"/>
<mask id="path-129-inside-65_433_5030" fill="white">
<path d="M922.443 657.013L813.302 594L786.001 609.56L895.142 672.573L922.443 657.013Z"/>
</mask>
<path d="M922.443 657.013L923.312 656.518L924.178 657.018L923.309 657.513L922.443 657.013ZM813.302 594L812.436 593.5L813.305 593.005L814.171 593.505L813.302 594ZM921.575 657.508L812.433 594.495L814.171 593.505L923.312 656.518L921.575 657.508ZM814.168 594.5L786.867 610.06L785.134 609.06L812.436 593.5L814.168 594.5ZM894.276 672.073L921.577 656.513L923.309 657.513L896.008 673.073L894.276 672.073Z" fill="#DBDBDD" mask="url(#path-129-inside-65_433_5030)"/>
<mask id="path-131-inside-66_433_5030" fill="white">
<path d="M316.443 23.0129L207.302 -40L180.001 -24.4402L289.142 38.5727L316.443 23.0129Z"/>
</mask>
<path d="M316.443 23.0129L317.312 22.5178L318.178 23.0178L317.309 23.5129L316.443 23.0129ZM207.302 -40L206.436 -40.5L207.305 -40.9951L208.171 -40.4951L207.302 -40ZM315.575 23.5081L206.433 -39.5048L208.171 -40.4951L317.312 22.5178L315.575 23.5081ZM208.168 -39.5L180.867 -23.9402L179.134 -24.9402L206.436 -40.5L208.168 -39.5ZM288.276 38.0727L315.577 22.5129L317.309 23.5129L290.008 39.0727L288.276 38.0727Z" fill="#DBDBDD" mask="url(#path-131-inside-66_433_5030)"/>
<mask id="path-133-inside-67_433_5030" fill="white">
<path d="M547.361 0.623291L520.301 -15.0001L492.999 0.559633L520.06 16.183L547.361 0.623291Z"/>
</mask>
<path d="M547.361 0.623291L548.23 0.128136L549.096 0.628136L548.227 1.12329L547.361 0.623291ZM520.301 -15.0001L519.435 -15.5001L520.304 -15.9953L521.17 -15.4953L520.301 -15.0001ZM492.999 0.559633L492.131 1.05479L491.265 0.55479L492.133 0.0596343L492.999 0.559633ZM520.06 16.183L520.926 16.683L520.057 17.1782L519.191 16.6782L520.06 16.183ZM546.493 1.11845L519.432 -14.505L521.17 -15.4953L548.23 0.128136L546.493 1.11845ZM521.167 -14.5001L493.866 1.05963L492.133 0.0596343L519.435 -15.5001L521.167 -14.5001ZM493.868 0.064478L520.929 15.6879L519.191 16.6782L492.131 1.05479L493.868 0.064478ZM519.194 15.683L546.495 0.123291L548.227 1.12329L520.926 16.683L519.194 15.683Z" fill="#969696" mask="url(#path-133-inside-67_433_5030)"/>
<g opacity="0.3">
<mask id="path-135-inside-68_433_5030" fill="white">
<path d="M295.361 439.623L268.301 424L240.999 439.559L268.06 455.183L295.361 439.623Z"/>
</mask>
<path d="M295.361 439.623L296.23 439.128L297.096 439.628L296.227 440.123L295.361 439.623ZM268.301 424L267.435 423.5L268.304 423.004L269.17 423.504L268.301 424ZM240.999 439.559L240.131 440.055L239.265 439.555L240.133 439.059L240.999 439.559ZM268.06 455.183L268.926 455.683L268.057 456.178L267.191 455.678L268.06 455.183ZM294.493 440.118L267.432 424.495L269.17 423.504L296.23 439.128L294.493 440.118ZM269.167 424.5L241.866 440.059L240.133 439.059L267.435 423.5L269.167 424.5ZM241.868 439.064L268.929 454.688L267.191 455.678L240.131 440.055L241.868 439.064ZM267.194 454.683L294.495 439.123L296.227 440.123L268.926 455.683L267.194 454.683Z" fill="#969696" mask="url(#path-135-inside-68_433_5030)"/>
</g>
<mask id="path-137-inside-69_433_5030" fill="white">
<path d="M799.361 439.623L772.301 424L744.999 439.559L772.06 455.183L799.361 439.623Z"/>
</mask>
<path d="M799.361 439.623L800.23 439.128L801.096 439.628L800.227 440.123L799.361 439.623ZM772.301 424L771.435 423.5L772.304 423.004L773.17 423.504L772.301 424ZM744.999 439.559L744.131 440.055L743.265 439.555L744.133 439.059L744.999 439.559ZM772.06 455.183L772.926 455.683L772.057 456.178L771.191 455.678L772.06 455.183ZM798.493 440.118L771.432 424.495L773.17 423.504L800.23 439.128L798.493 440.118ZM773.167 424.5L745.866 440.059L744.133 439.059L771.435 423.5L773.167 424.5ZM745.868 439.064L772.929 454.688L771.191 455.678L744.131 440.055L745.868 439.064ZM771.194 454.683L798.495 439.123L800.227 440.123L772.926 455.683L771.194 454.683Z" fill="#969696" mask="url(#path-137-inside-69_433_5030)"/>
<mask id="path-139-inside-70_433_5030" fill="white">
<path d="M865.141 509.073L892.311 524.76L892.487 556.144L865.316 540.457L865.141 509.073Z"/>
</mask>
<path d="M892.487 556.144L892.492 557.144L893.358 557.644L893.353 556.644L892.487 556.144ZM865.316 540.457L864.45 539.957L864.455 540.957L865.321 541.457L865.316 540.457ZM891.445 524.26L891.621 555.644L893.353 556.644L893.177 525.26L891.445 524.26ZM892.481 555.144L865.31 539.457L865.321 541.457L892.492 557.144L892.481 555.144ZM866.182 540.957L866.007 509.573L864.275 508.573L864.45 539.957L866.182 540.957Z" fill="#969696" mask="url(#path-139-inside-70_433_5030)"/>
<mask id="path-141-inside-71_433_5030" fill="white">
<path d="M86.1406 57.0732L113.311 72.7603L113.487 104.145L86.3159 88.4577L86.1406 57.0732Z"/>
</mask>
<path d="M113.487 104.145L113.492 105.145L114.358 105.645L114.353 104.645L113.487 104.145ZM86.3159 88.4577L85.4499 87.9577L85.4555 88.9576L86.3215 89.4576L86.3159 88.4577ZM112.445 72.2603L112.621 103.645L114.353 104.645L114.177 73.2603L112.445 72.2603ZM113.481 103.145L86.3103 87.4577L86.3215 89.4576L113.492 105.145L113.481 103.145ZM87.1819 88.9577L87.0067 57.5732L85.2746 56.5732L85.4499 87.9577L87.1819 88.9577Z" fill="#DBDBDD" mask="url(#path-141-inside-71_433_5030)"/>
<mask id="path-143-inside-72_433_5030" fill="white">
<path d="M919.133 510L919.133 540.564L892 556.432L892 525.868L919.133 510Z"/>
</mask>
<path d="M919.133 510L919.133 540.564L892 556.432L892 525.868L919.133 510Z" fill="#F0F0F0"/>
<path d="M919.133 540.564L919.133 541.564L919.996 541.059L919.996 540.059L919.133 540.564ZM918.27 510.504L918.27 541.068L919.996 540.059L919.996 509.495L918.27 510.504ZM919.133 539.564L892 555.432L892 557.432L919.133 541.564L919.133 539.564Z" fill="#969696" mask="url(#path-143-inside-72_433_5030)"/>
<mask id="path-145-inside-73_433_5030" fill="white">
<path d="M140.133 57.9998L140.133 88.5638L113 104.432L113 73.8678L140.133 57.9998Z"/>
</mask>
<path d="M140.133 88.5638L140.133 89.5638L140.996 89.059L140.996 88.059L140.133 88.5638ZM139.27 58.5046L139.27 89.0686L140.996 88.059L140.996 57.4949L139.27 58.5046ZM140.133 87.5638L113 103.432L113 105.432L140.133 89.5638L140.133 87.5638Z" fill="#DBDBDD" mask="url(#path-145-inside-73_433_5030)"/>
<mask id="path-147-inside-74_433_5030" fill="white">
<path d="M919.361 509.623L892.301 494L864.999 509.559L892.06 525.183L919.361 509.623Z"/>
</mask>
<path d="M919.361 509.623L920.23 509.128L921.096 509.628L920.227 510.123L919.361 509.623ZM892.301 494L891.435 493.5L892.304 493.004L893.17 493.504L892.301 494ZM864.999 509.559L864.131 510.055L863.265 509.555L864.133 509.059L864.999 509.559ZM892.06 525.183L892.926 525.683L892.057 526.178L891.191 525.678L892.06 525.183ZM918.493 510.118L891.432 494.495L893.17 493.504L920.23 509.128L918.493 510.118ZM893.167 494.5L865.866 510.059L864.133 509.059L891.435 493.5L893.167 494.5ZM865.868 509.064L892.929 524.688L891.191 525.678L864.131 510.055L865.868 509.064ZM891.194 524.683L918.495 509.123L920.227 510.123L892.926 525.683L891.194 524.683Z" fill="#969696" mask="url(#path-147-inside-74_433_5030)"/>
<mask id="path-149-inside-75_433_5030" fill="white">
<path d="M140.361 57.6233L113.301 41.9999L85.9995 57.5596L113.06 73.183L140.361 57.6233Z"/>
</mask>
<path d="M140.361 57.6233L141.23 57.1281L142.096 57.6281L141.227 58.1233L140.361 57.6233ZM113.301 41.9999L112.435 41.4999L113.304 41.0047L114.17 41.5047L113.301 41.9999ZM85.9995 57.5596L85.1307 58.0548L84.2647 57.5548L85.1335 57.0596L85.9995 57.5596ZM113.06 73.183L113.926 73.683L113.057 74.1782L112.191 73.6782L113.06 73.183ZM139.493 58.1184L112.432 42.495L114.17 41.5047L141.23 57.1281L139.493 58.1184ZM114.167 42.4999L86.8655 58.0596L85.1335 57.0596L112.435 41.4999L114.167 42.4999ZM86.8683 57.0645L113.929 72.6879L112.191 73.6782L85.1307 58.0548L86.8683 57.0645ZM112.194 72.683L139.495 57.1233L141.227 58.1233L113.926 73.683L112.194 72.683Z" fill="#DBDBDD" mask="url(#path-149-inside-75_433_5030)"/>
<mask id="path-151-inside-76_433_5030" fill="white">
<path d="M574.495 131.269L520.335 99.9998L466 130.966L520.161 162.236L574.495 131.269Z"/>
</mask>
<path d="M574.495 131.269L575.364 130.774L576.23 131.274L575.361 131.769L574.495 131.269ZM520.335 99.9998L519.469 99.4998L520.337 99.0046L521.204 99.5046L520.335 99.9998ZM466 130.966L465.131 131.462L464.265 130.962L465.134 130.466L466 130.966ZM520.161 162.236L521.027 162.736L520.158 163.231L519.292 162.731L520.161 162.236ZM573.626 131.764L519.466 100.495L521.204 99.5046L575.364 130.774L573.626 131.764ZM521.201 100.5L466.866 131.466L465.134 130.466L519.469 99.4998L521.201 100.5ZM466.869 130.471L521.029 161.741L519.292 162.731L465.131 131.462L466.869 130.471ZM519.295 161.736L573.629 130.769L575.361 131.769L521.027 162.736L519.295 161.736Z" fill="#969696" mask="url(#path-151-inside-76_433_5030)"/>
<g opacity="0.3">
<mask id="path-153-inside-77_433_5030" fill="white">
<path d="M463 256.618L430.753 238L415 246.978L447.247 265.596L463 256.618Z"/>
</mask>
<path d="M430.753 238L429.887 237.5L430.756 237.005L431.622 237.505L430.753 238ZM462.131 257.113L429.884 238.495L431.622 237.505L463.869 256.123L462.131 257.113ZM431.619 238.5L415.866 247.478L414.134 246.478L429.887 237.5L431.619 238.5Z" fill="#969696" mask="url(#path-153-inside-77_433_5030)"/>
</g>
<g opacity="0.3">
<mask id="path-155-inside-78_433_5030" fill="white">
<path d="M577 256.618L609.247 238L625 246.978L592.753 265.596L577 256.618Z"/>
</mask>
<path d="M609.247 238L610.113 237.5L609.244 237.005L608.378 237.505L609.247 238ZM577.869 257.113L610.116 238.495L608.378 237.505L576.131 256.123L577.869 257.113ZM608.381 238.5L624.134 247.478L625.866 246.478L610.113 237.5L608.381 238.5Z" fill="#969696" mask="url(#path-155-inside-78_433_5030)"/>
</g>
<g opacity="0.3">
<mask id="path-157-inside-79_433_5030" fill="white">
<path d="M506 37.2209L506 127.813L520.673 136.394L520.673 45.8023L506 37.2209Z"/>
</mask>
<path d="M506 127.813L506 128.813L505.137 128.308L505.137 127.308L506 127.813ZM506.863 37.7258L506.863 128.317L505.137 127.308L505.137 36.7161L506.863 37.7258ZM506 126.813L520.673 135.394L520.673 137.394L506 128.813L506 126.813Z" fill="#969696" mask="url(#path-157-inside-79_433_5030)"/>
</g>
<g opacity="0.3">
<mask id="path-159-inside-80_433_5030" fill="white">
<path d="M760.223 432.296L681.768 387L667 395.417L745.454 440.713L760.223 432.296Z"/>
</mask>
<path d="M681.768 387L680.902 386.5L681.771 386.005L682.637 386.505L681.768 387ZM759.354 432.791L680.899 387.495L682.637 386.505L761.091 431.801L759.354 432.791ZM682.634 387.5L667.866 395.917L666.134 394.917L680.902 386.5L682.634 387.5Z" fill="#969696" mask="url(#path-159-inside-80_433_5030)"/>
</g>
<g opacity="0.3">
<mask id="path-161-inside-81_433_5030" fill="white">
<path d="M279 432.296L357.455 387L372.223 395.417L293.768 440.713L279 432.296Z"/>
</mask>
<path d="M357.455 387L358.321 386.5L357.452 386.005L356.586 386.505L357.455 387ZM279.869 432.791L358.323 387.495L356.586 386.505L278.131 431.801L279.869 432.791ZM356.589 387.5L371.357 395.917L373.089 394.917L358.321 386.5L356.589 387.5Z" fill="#969696" mask="url(#path-161-inside-81_433_5030)"/>
</g>
<g opacity="0.3">
<mask id="path-163-inside-82_433_5030" fill="white">
<path d="M535.107 383.769L535.107 421.005L519.456 430.158L519.456 392.922L535.107 383.769Z"/>
</mask>
<path d="M535.107 421.005L535.107 422.005L535.971 421.5L535.971 420.5L535.107 421.005ZM534.244 384.274L534.244 421.509L535.971 420.5L535.971 383.264L534.244 384.274ZM535.107 420.005L519.456 429.158L519.456 431.158L535.107 422.005L535.107 420.005Z" fill="#969696" mask="url(#path-163-inside-82_433_5030)"/>
</g>
<mask id="path-165-inside-83_433_5030" fill="white">
<path d="M323.188 310.266L267.301 278L240 293.56L295.887 325.826L323.188 310.266Z"/>
</mask>
<path d="M323.188 310.266L324.057 309.771L324.923 310.271L324.055 310.766L323.188 310.266ZM267.301 278L266.435 277.5L267.304 277.005L268.17 277.505L267.301 278ZM322.32 310.762L266.432 278.495L268.17 277.505L324.057 309.771L322.32 310.762ZM268.167 278.5L240.866 294.06L239.134 293.06L266.435 277.5L268.167 278.5ZM295.021 325.326L322.322 309.766L324.055 310.766L296.753 326.326L295.021 325.326Z" fill="#969696" mask="url(#path-165-inside-83_433_5030)"/>
<g opacity="0.3">
<mask id="path-167-inside-84_433_5030" fill="white">
<path d="M367 479.198L367 543.731L394.126 559.595L394.126 495.061L367 479.198Z"/>
</mask>
<path d="M367 479.198L366.137 478.693L366.137 477.693L367 478.198L367 479.198ZM367 543.731L367 544.731L366.137 544.226L366.137 543.226L367 543.731ZM367.863 479.703L367.863 544.236L366.137 543.226L366.137 478.693L367.863 479.703ZM367 542.731L394.126 558.595L394.126 560.595L367 544.731L367 542.731ZM394.126 496.061L367 480.198L367 478.198L394.126 494.061L394.126 496.061Z" fill="#969696" mask="url(#path-167-inside-84_433_5030)"/>
</g>
<mask id="path-169-inside-85_433_5030" fill="white">
<path d="M621 478.198L621 542.731L648.126 558.595L648.126 494.061L621 478.198Z"/>
</mask>
<path d="M621 478.198L620.137 477.693L620.137 476.693L621 477.198L621 478.198ZM621 542.731L621 543.731L620.137 543.226L620.137 542.226L621 542.731ZM621.863 478.703L621.863 543.236L620.137 542.226L620.137 477.693L621.863 478.703ZM621 541.731L648.126 557.595L648.126 559.595L621 543.731L621 541.731ZM648.126 495.061L621 479.198L621 477.198L648.126 493.061L648.126 495.061Z" fill="#969696" mask="url(#path-169-inside-85_433_5030)"/>
<mask id="path-171-inside-86_433_5030" fill="white">
<path d="M592 90.2664L647.887 57.9998L675.189 73.5595L619.301 105.826L592 90.2664Z"/>
</mask>
<path d="M592 90.2664L591.131 89.7712L590.265 90.2712L591.134 90.7664L592 90.2664ZM647.887 57.9998L648.753 57.4998L647.885 57.0046L647.019 57.5046L647.887 57.9998ZM592.869 90.7615L648.756 58.4949L647.019 57.5046L591.131 89.7712L592.869 90.7615ZM647.021 58.4998L674.323 74.0595L676.055 73.0595L648.753 57.4998L647.021 58.4998ZM620.167 105.326L592.866 89.7664L591.134 90.7664L618.435 106.326L620.167 105.326Z" fill="#969696" mask="url(#path-171-inside-86_433_5030)"/>
<mask id="path-173-inside-87_433_5030" fill="white">
<path d="M322.423 162.266L212.916 99.0423L185.614 114.602L295.122 177.826L322.423 162.266Z"/>
</mask>
<path d="M322.423 162.266L323.292 161.771L324.158 162.271L323.289 162.766L322.423 162.266ZM212.916 99.0423L212.05 98.5423L212.918 98.0472L213.784 98.5472L212.916 99.0423ZM321.554 162.762L212.047 99.5375L213.784 98.5472L323.292 161.771L321.554 162.762ZM213.782 99.5423L186.48 115.102L184.748 114.102L212.05 98.5423L213.782 99.5423ZM294.256 177.326L321.557 161.766L323.289 162.766L295.988 178.326L294.256 177.326Z" fill="#969696" mask="url(#path-173-inside-87_433_5030)"/>
<mask id="path-175-inside-88_433_5030" fill="white">
<path d="M717.987 162.266L827.495 99.0423L854.796 114.602L745.289 177.826L717.987 162.266Z"/>
</mask>
<path d="M717.987 162.266L717.119 161.771L716.252 162.271L717.121 162.766L717.987 162.266ZM827.495 99.0423L828.361 98.5423L827.492 98.0472L826.626 98.5472L827.495 99.0423ZM718.856 162.762L828.363 99.5375L826.626 98.5472L717.119 161.771L718.856 162.762ZM826.629 99.5423L853.93 115.102L855.662 114.102L828.361 98.5423L826.629 99.5423ZM746.155 177.326L718.853 161.766L717.121 162.766L744.423 178.326L746.155 177.326Z" fill="#969696" mask="url(#path-175-inside-88_433_5030)"/>
<g opacity="0.3">
<mask id="path-177-inside-89_433_5030" fill="white">
<path d="M547.03 552.542L547.03 680.026L519.904 695.89L519.904 568.406L547.03 552.542Z"/>
</mask>
<path d="M547.03 552.542L547.893 552.038L547.893 551.038L547.03 551.542L547.03 552.542ZM547.03 680.026L547.03 681.026L547.893 680.522L547.893 679.522L547.03 680.026ZM546.167 553.047L546.167 680.531L547.893 679.522L547.893 552.038L546.167 553.047ZM547.03 679.026L519.904 694.89L519.904 696.89L547.03 681.026L547.03 679.026ZM519.904 569.406L547.03 553.542L547.03 551.542L519.904 567.406L519.904 569.406Z" fill="#969696" mask="url(#path-177-inside-89_433_5030)"/>
</g>
<g opacity="0.3">
<mask id="path-179-inside-90_433_5030" fill="white">
<path d="M667.293 395.28L745.509 440.438L745.604 457.415L667.388 412.257L667.293 395.28Z"/>
</mask>
<path d="M745.604 457.415L745.61 458.415L746.476 458.915L746.47 457.915L745.604 457.415ZM667.388 412.257L666.522 411.757L666.527 412.757L667.393 413.257L667.388 412.257ZM744.643 439.938L744.738 456.915L746.47 457.915L746.375 440.938L744.643 439.938ZM745.598 456.415L667.382 411.257L667.393 413.257L745.61 458.415L745.598 456.415ZM668.254 412.757L668.159 395.78L666.427 394.78L666.522 411.757L668.254 412.757Z" fill="#969696" mask="url(#path-179-inside-90_433_5030)"/>
</g>
<mask id="path-181-inside-91_433_5030" fill="white">
<path d="M717 311.266L772.887 279L800.189 294.56L744.301 326.826L717 311.266Z"/>
</mask>
<path d="M717 311.266L716.131 310.771L715.265 311.271L716.134 311.766L717 311.266ZM772.887 279L773.753 278.5L772.885 278.005L772.019 278.505L772.887 279ZM717.869 311.762L773.756 279.495L772.019 278.505L716.131 310.771L717.869 311.762ZM772.021 279.5L799.323 295.06L801.055 294.06L773.753 278.5L772.021 279.5ZM745.167 326.326L717.866 310.766L716.134 311.766L743.435 327.326L745.167 326.326Z" fill="#969696" mask="url(#path-181-inside-91_433_5030)"/>
<circle cx="500" cy="235" r="3" fill="#2D2D2D"/>
<circle cx="393" cy="173" r="3" fill="#2D2D2D"/>
<circle cx="185" cy="115" r="3" fill="#2D2D2D"/>
<circle cx="868" cy="509" r="3" fill="#2D2D2D"/>
<circle cx="647" cy="58" r="3" fill="#2D2D2D"/>
<circle cx="339" cy="265" r="3" fill="#2D2D2D"/>
<circle cx="339" cy="351" r="3" fill="#2D2D2D"/>
<circle cx="393" cy="443" r="3" fill="#2D2D2D"/>
<circle cx="466" cy="486" r="3" fill="#2D2D2D"/>
<circle cx="573" cy="486" r="3" fill="#2D2D2D"/>
<circle cx="648" cy="443" r="3" fill="#2D2D2D"/>
<circle cx="702" cy="351" r="3" fill="#2D2D2D"/>
<circle cx="701" cy="265" r="3" fill="#2D2D2D"/>
<circle cx="648" cy="173" r="3" fill="#2D2D2D"/>
<circle cx="720" cy="162" r="3" fill="#2D2D2D"/>
<circle cx="449" cy="90" r="3" fill="#2D2D2D"/>
<circle cx="322" cy="311" r="3" fill="#2D2D2D"/>
<circle cx="648" cy="494" r="3" fill="#2D2D2D"/>
<circle cx="772" cy="280" r="3" fill="#2D2D2D"/>
<circle cx="574" cy="131" r="3" fill="#2D2D2D"/>
<circle cx="466" cy="131" r="3" fill="#2D2D2D"/>
<circle cx="520" cy="223" r="3" fill="#2D2D2D"/>
<circle cx="447" cy="351" r="3" fill="#2D2D2D"/>
<circle cx="595" cy="351" r="3" fill="#2D2D2D"/>
<circle cx="540" cy="235" r="3" fill="#2D2D2D"/>
<circle cx="593" cy="328" r="3" fill="#2D2D2D"/>
<circle cx="573" cy="362" r="3" fill="#2D2D2D"/>
<circle cx="466" cy="362" r="3" fill="#2D2D2D"/>
<circle cx="447" cy="327" r="3" fill="#2D2D2D"/>
<line x1="447.5" y1="333" x2="447.5" y2="345" stroke="#969696"/>
<line x1="534.963" y1="232.433" x2="524.571" y2="226.433" stroke="#969696"/>
<line x1="578.75" y1="358.897" x2="589.142" y2="352.897" stroke="#969696"/>
<line x1="462.143" y1="359.433" x2="451.75" y2="353.433" stroke="#969696"/>
<line x1="504.75" y1="231.897" x2="515.142" y2="225.897" stroke="#969696"/>
<line opacity="0.3" x1="397.739" y1="170.548" x2="461.761" y2="133.586" stroke="#969696"/>
<line opacity="0.3" x1="339.5" y1="271" x2="339.5" y2="344.926" stroke="#969696"/>
<line opacity="0.3" x1="701.5" y1="271" x2="701.5" y2="344.926" stroke="#969696"/>
<line opacity="0.3" x1="578.75" y1="483.53" x2="642.771" y2="446.567" stroke="#969696"/>
<line opacity="0.3" y1="-0.5" x2="73.9256" y2="-0.5" transform="matrix(-0.866025 -0.5 -0.5 0.866025 461.021 482.963)" stroke="#969696"/>
<line opacity="0.3" y1="-0.5" x2="73.9256" y2="-0.5" transform="matrix(-0.866025 -0.5 -0.5 0.866025 642.021 170.963)" stroke="#969696"/>
<line opacity="0.3" y1="-0.5" x2="400" y2="-0.5" transform="matrix(-0.866025 -0.5 -0.5 0.866025 339.41 204)" stroke="url(#paint0_linear_433_5030)"/>
<line opacity="0.3" y1="-0.5" x2="400" y2="-0.5" transform="matrix(-0.866025 -0.5 -0.5 0.866025 647.41 58)" stroke="url(#paint1_linear_433_5030)"/>
<line opacity="0.3" x1="700.75" y1="203.567" x2="1047.16" y2="3.56699" stroke="url(#paint2_linear_433_5030)"/>
<line opacity="0.3" x1="876.75" y1="503.567" x2="1223.16" y2="303.567" stroke="url(#paint3_linear_433_5030)"/>
<line opacity="0.3" x1="646.75" y1="57.567" x2="993.16" y2="-142.433" stroke="url(#paint4_linear_433_5030)"/>
<line opacity="0.3" x1="773.75" y1="279.567" x2="1120.16" y2="79.567" stroke="url(#paint5_linear_433_5030)"/>
<line opacity="0.3" x1="650.75" y1="492.567" x2="997.16" y2="292.567" stroke="url(#paint6_linear_433_5030)"/>
<line opacity="0.3" x1="865.66" y1="509.433" x2="519.25" y2="709.433" stroke="url(#paint7_linear_433_5030)"/>
<line opacity="0.3" x1="771.5" y1="279" x2="771.5" y2="-121" stroke="url(#paint8_linear_433_5030)"/>
<line opacity="0.3" x1="321.5" y1="308" x2="321.5" y2="-92" stroke="url(#paint9_linear_433_5030)"/>
<line opacity="0.3" x1="867.5" y1="508" x2="867.5" y2="108" stroke="url(#paint10_linear_433_5030)"/>
<line opacity="0.3" x1="185.5" y1="117" x2="185.5" y2="-283" stroke="url(#paint11_linear_433_5030)"/>
<line opacity="0.3" x1="449.5" y1="89" x2="449.5" y2="-311" stroke="url(#paint12_linear_433_5030)"/>
<line opacity="0.3" x1="647.5" y1="61" x2="647.5" y2="-339" stroke="url(#paint13_linear_433_5030)"/>
<line opacity="0.3" x1="392.5" y1="170" x2="392.5" y2="-230" stroke="url(#paint14_linear_433_5030)"/>
<line opacity="0.3" y1="-0.5" x2="400" y2="-0.5" transform="matrix(1.19249e-08 1 1 -1.19249e-08 186 119)" stroke="url(#paint15_linear_433_5030)"/>
<line opacity="0.3" x1="648.66" y1="494.433" x2="302.25" y2="694.433" stroke="url(#paint16_linear_433_5030)"/>
<line opacity="0.3" x1="467.66" y1="486.433" x2="121.25" y2="686.433" stroke="url(#paint17_linear_433_5030)"/>
<line opacity="0.3" x1="393.66" y1="443.433" x2="47.25" y2="643.433" stroke="url(#paint18_linear_433_5030)"/>
<line opacity="0.3" x1="319.66" y1="311.933" x2="-26.75" y2="511.933" stroke="url(#paint19_linear_433_5030)"/>
<line opacity="0.3" y1="-0.5" x2="400" y2="-0.5" transform="matrix(0.866025 0.5 0.5 -0.866025 576 488)" stroke="url(#paint20_linear_433_5030)"/>
<line opacity="0.3" y1="-0.5" x2="400" y2="-0.5" transform="matrix(0.866025 0.5 0.5 -0.866025 772 279)" stroke="url(#paint21_linear_433_5030)"/>
<line opacity="0.3" x1="519.882" y1="518" x2="519.882" y2="918" stroke="url(#paint22_linear_433_5030)"/>
<line x1="594.32" y1="333" x2="594.32" y2="345" stroke="#969696"/>
<path opacity="0.7" d="M520.289 280.618L543.78 294.171H496.798L520.289 280.618Z" fill="#56CC5D"/>
<path opacity="0.7" d="M520.289 334.829L543.78 348.382H496.798L520.289 334.829Z" fill="#AAF06C"/>
<path opacity="0.7" d="M496.781 293.734L496.789 320.855L473.298 280.167L496.781 293.734Z" fill="#AAF06C"/>
<path opacity="0.7" d="M543.705 293.865L543.771 320.855L567.112 280.427L543.705 293.865Z" fill="#29AD26"/>
<path opacity="0.7" d="M520.289 307.724L496.798 294.171L543.78 294.171L520.289 307.724Z" fill="#56CC5D"/>
<path opacity="0.7" d="M520.289 307.723L543.78 294.171L543.78 321.276L520.289 307.723Z" fill="#29AD26"/>
<path opacity="0.7" d="M520.289 334.829L543.78 321.276L543.78 348.382L520.289 334.829Z" fill="#29AD26"/>
<path opacity="0.7" d="M520.289 307.724L496.798 321.276L496.798 294.171L520.289 307.724Z" fill="#AAF06C"/>
<path opacity="0.7" d="M520.289 334.829L496.798 348.381L496.798 321.276L520.289 334.829Z" fill="#AAF06C"/>
<path opacity="0.7" d="M520.289 280.618L496.798 294.171L496.798 267.066L520.289 280.618Z" fill="#56CC5D"/>
<path opacity="0.7" d="M567.271 280.618L543.78 294.171L543.78 267.066L567.271 280.618Z" fill="#56CC5D"/>
<path opacity="0.7" d="M473.307 280.618L496.798 294.171L496.798 267.066L473.307 280.618Z" fill="#56CC5D"/>
<path opacity="0.7" d="M520.289 280.618L543.78 294.171L543.78 267.066L520.289 280.618Z" fill="#56CC5D"/>
<path opacity="0.7" d="M520.289 361.934L496.798 348.382L543.78 348.382L520.289 361.934Z" fill="#AAF06C"/>
<path opacity="0.7" d="M473.306 307.287L473.297 280.166L496.789 320.855L473.306 307.287Z" fill="#AAF06C"/>
<path opacity="0.7" d="M543.78 348.353L520.289 361.905L520.289 334.8L543.78 348.353Z" fill="#29AD26"/>
<path opacity="0.7" d="M497 321.253L520.491 334.805L520.491 307.7L497 321.253Z" fill="#AAF06C"/>
<path opacity="0.7" d="M543.78 321.253L520.289 334.805L520.289 307.7L543.78 321.253Z" fill="#29AD26"/>
<path opacity="0.3" d="M497 321.253L520.491 334.805L520.491 307.7L497 321.253Z" fill="#AAF06C"/>
<path opacity="0.3" d="M543.78 321.253L520.289 334.805L520.289 307.7L543.78 321.253Z" fill="#29AD26"/>
<path opacity="0.7" d="M567.254 307.287L567.263 280.166L543.772 320.855L567.254 307.287Z" fill="#29AD26"/>
</g>
<defs>
<linearGradient id="paint0_linear_433_5030" x1="396.196" y1="-1.28221" x2="-104.017" y2="-2.18792" gradientUnits="userSpaceOnUse">
<stop stop-color="#969696" stop-opacity="0"/>
<stop offset="1" stop-color="#969696"/>
</linearGradient>
<linearGradient id="paint1_linear_433_5030" x1="396.196" y1="-1.28221" x2="-104.017" y2="-2.18792" gradientUnits="userSpaceOnUse">
<stop stop-color="#969696" stop-opacity="0"/>
<stop offset="1" stop-color="#969696"/>
</linearGradient>
<linearGradient id="paint2_linear_433_5030" x1="1043.47" y1="4.79173" x2="609.825" y2="254.114" gradientUnits="userSpaceOnUse">
<stop stop-color="#969696" stop-opacity="0"/>
<stop offset="1" stop-color="#969696"/>
</linearGradient>
<linearGradient id="paint3_linear_433_5030" x1="1219.47" y1="304.792" x2="785.825" y2="554.114" gradientUnits="userSpaceOnUse">
<stop stop-color="#969696" stop-opacity="0"/>
<stop offset="1" stop-color="#969696"/>
</linearGradient>
<linearGradient id="paint4_linear_433_5030" x1="989.474" y1="-141.208" x2="555.825" y2="108.114" gradientUnits="userSpaceOnUse">
<stop stop-color="#969696" stop-opacity="0"/>
<stop offset="1" stop-color="#969696"/>
</linearGradient>
<linearGradient id="paint5_linear_433_5030" x1="1116.47" y1="80.7917" x2="682.825" y2="330.114" gradientUnits="userSpaceOnUse">
<stop stop-color="#969696" stop-opacity="0"/>
<stop offset="1" stop-color="#969696"/>
</linearGradient>
<linearGradient id="paint6_linear_433_5030" x1="993.474" y1="293.792" x2="559.825" y2="543.114" gradientUnits="userSpaceOnUse">
<stop stop-color="#969696" stop-opacity="0"/>
<stop offset="1" stop-color="#969696"/>
</linearGradient>
<linearGradient id="paint7_linear_433_5030" x1="522.936" y1="708.208" x2="956.585" y2="458.886" gradientUnits="userSpaceOnUse">
<stop stop-color="#969696" stop-opacity="0"/>
<stop offset="1" stop-color="#969696"/>
</linearGradient>
<linearGradient id="paint8_linear_433_5030" x1="770.718" y1="-117.196" x2="769.812" y2="383.017" gradientUnits="userSpaceOnUse">
<stop stop-color="#969696" stop-opacity="0"/>
<stop offset="1" stop-color="#969696"/>
</linearGradient>
<linearGradient id="paint9_linear_433_5030" x1="320.718" y1="-88.1957" x2="319.812" y2="412.017" gradientUnits="userSpaceOnUse">
<stop stop-color="#969696" stop-opacity="0"/>
<stop offset="1" stop-color="#969696"/>
</linearGradient>
<linearGradient id="paint10_linear_433_5030" x1="866.718" y1="111.804" x2="865.812" y2="612.017" gradientUnits="userSpaceOnUse">
<stop stop-color="#969696" stop-opacity="0"/>
<stop offset="1" stop-color="#969696"/>
</linearGradient>
<linearGradient id="paint11_linear_433_5030" x1="184.718" y1="-279.196" x2="183.812" y2="221.017" gradientUnits="userSpaceOnUse">
<stop stop-color="#969696" stop-opacity="0"/>
<stop offset="1" stop-color="#969696"/>
</linearGradient>
<linearGradient id="paint12_linear_433_5030" x1="448.718" y1="-307.196" x2="447.812" y2="193.017" gradientUnits="userSpaceOnUse">
<stop stop-color="#969696" stop-opacity="0"/>
<stop offset="1" stop-color="#969696"/>
</linearGradient>
<linearGradient id="paint13_linear_433_5030" x1="646.718" y1="-335.196" x2="645.812" y2="165.017" gradientUnits="userSpaceOnUse">
<stop stop-color="#969696" stop-opacity="0"/>
<stop offset="1" stop-color="#969696"/>
</linearGradient>
<linearGradient id="paint14_linear_433_5030" x1="391.718" y1="-226.196" x2="390.812" y2="274.017" gradientUnits="userSpaceOnUse">
<stop stop-color="#969696" stop-opacity="0"/>
<stop offset="1" stop-color="#969696"/>
</linearGradient>
<linearGradient id="paint15_linear_433_5030" x1="396.196" y1="-1.28221" x2="-104.017" y2="-2.18792" gradientUnits="userSpaceOnUse">
<stop stop-color="#969696" stop-opacity="0"/>
<stop offset="1" stop-color="#969696"/>
</linearGradient>
<linearGradient id="paint16_linear_433_5030" x1="305.936" y1="693.208" x2="739.585" y2="443.886" gradientUnits="userSpaceOnUse">
<stop stop-color="#969696" stop-opacity="0"/>
<stop offset="1" stop-color="#969696"/>
</linearGradient>
<linearGradient id="paint17_linear_433_5030" x1="124.936" y1="685.208" x2="558.585" y2="435.886" gradientUnits="userSpaceOnUse">
<stop stop-color="#969696" stop-opacity="0"/>
<stop offset="1" stop-color="#969696"/>
</linearGradient>
<linearGradient id="paint18_linear_433_5030" x1="50.9357" y1="642.208" x2="484.585" y2="392.886" gradientUnits="userSpaceOnUse">
<stop stop-color="#969696" stop-opacity="0"/>
<stop offset="1" stop-color="#969696"/>
</linearGradient>
<linearGradient id="paint19_linear_433_5030" x1="-23.0643" y1="510.708" x2="410.585" y2="261.386" gradientUnits="userSpaceOnUse">
<stop stop-color="#969696" stop-opacity="0"/>
<stop offset="1" stop-color="#969696"/>
</linearGradient>
<linearGradient id="paint20_linear_433_5030" x1="396.196" y1="-1.28221" x2="-104.017" y2="-2.18792" gradientUnits="userSpaceOnUse">
<stop stop-color="#969696" stop-opacity="0"/>
<stop offset="1" stop-color="#969696"/>
</linearGradient>
<linearGradient id="paint21_linear_433_5030" x1="396.196" y1="-1.28221" x2="-104.017" y2="-2.18792" gradientUnits="userSpaceOnUse">
<stop stop-color="#969696" stop-opacity="0"/>
<stop offset="1" stop-color="#969696"/>
</linearGradient>
<linearGradient id="paint22_linear_433_5030" x1="520.664" y1="914.196" x2="521.57" y2="413.983" gradientUnits="userSpaceOnUse">
<stop stop-color="#969696" stop-opacity="0"/>
<stop offset="1" stop-color="#969696"/>
</linearGradient>
<clipPath id="clip0_433_5030">
<rect width="1058" height="640" fill="white"/>
</clipPath>
</defs>
</svg>
