<svg width="1296" height="691" viewBox="0 0 1296 691" fill="none" xmlns="http://www.w3.org/2000/svg">
<path d="M550.426 652.262C550.571 652.026 550.497 651.719 550.262 651.574L546.428 649.218C546.192 649.074 545.885 649.147 545.74 649.382C545.595 649.618 545.669 649.926 545.904 650.07L549.312 652.164L547.218 655.572C547.074 655.808 547.147 656.115 547.382 656.26C547.618 656.405 547.926 656.331 548.07 656.096L550.426 652.262ZM421.726 682.633L421.842 683.119L421.726 682.633ZM196 0.5H193.583V1.5H196V0.5ZM188.75 0.5H183.917V1.5H188.75V0.5ZM179.083 0.5H174.25V1.5H179.083V0.5ZM169.417 0.5H164.583V1.5H169.417V0.5ZM159.75 0.5H154.917V1.5H159.75V0.5ZM150.083 0.5H145.25V1.5H150.083V0.5ZM140.417 0.5H135.583V1.5H140.417V0.5ZM130.75 0.5H125.917V1.5H130.75V0.5ZM121.083 0.5H116.25V1.5H121.083V0.5ZM111.417 0.5H106.583V1.5H111.417V0.5ZM101.75 0.5H96.9166V1.5H101.75V0.5ZM92.0833 0.5H87.25V1.5H92.0833V0.5ZM82.4166 0.5H77.5833V1.5H82.4166V0.5ZM72.75 0.5H67.9166V1.5H72.75V0.5ZM63.0833 0.5H58.25V1.5H63.0833V0.5ZM53.4167 0.5H51V1.5H53.4167V0.5ZM51 0.5C50.169 0.5 49.3427 0.520075 48.5215 0.559771L48.5697 1.5586C49.3749 1.51969 50.1851 1.5 51 1.5V0.5ZM43.588 1.04016C41.94 1.28258 40.3178 1.60461 38.7255 2.00222L38.9678 2.97243C40.5283 2.58275 42.1182 2.26713 43.7335 2.02952L43.588 1.04016ZM33.9818 3.43944C32.4186 3.99886 30.8909 4.63316 29.4033 5.338L29.8315 6.2417C31.2895 5.55088 32.7867 4.92923 34.3187 4.38096L33.9818 3.43944ZM25.0341 7.6781C23.6144 8.53087 22.2401 9.45142 20.9156 10.4353L21.5119 11.238C22.8102 10.2736 24.1574 9.37122 25.549 8.53535L25.0341 7.6781ZM17.0861 13.5816C15.8617 14.692 14.692 15.8617 13.5816 17.0861L14.3223 17.7579C15.4109 16.5576 16.5576 15.4109 17.7579 14.3223L17.0861 13.5816ZM10.4353 20.9156C9.45143 22.24 8.53087 23.6144 7.67811 25.0341L8.53536 25.549C9.37123 24.1574 10.2736 22.8102 11.2381 21.5119L10.4353 20.9156ZM5.338 29.4033C4.63316 30.8909 3.99887 32.4185 3.43944 33.9818L4.38097 34.3187C4.92923 32.7867 5.55088 31.2895 6.2417 29.8315L5.338 29.4033ZM2.00222 38.7255C1.60461 40.3178 1.28258 41.94 1.04016 43.588L2.02952 43.7335C2.26713 42.1182 2.58275 40.5283 2.97243 38.9678L2.00222 38.7255ZM0.559771 48.5215C0.520075 49.3427 0.5 50.169 0.5 51H1.5C1.5 50.1851 1.51969 49.3749 1.5586 48.5697L0.559771 48.5215ZM0.5 51V53.5129H1.5V51H0.5ZM0.5 58.5388V63.5647H1.5V58.5388H0.5ZM0.5 68.5905V73.6164H1.5V68.5905H0.5ZM0.5 78.6422V83.6681H1.5V78.6422H0.5ZM0.5 88.694V93.7198H1.5V88.694H0.5ZM0.5 98.7457V103.772H1.5V98.7457H0.5ZM0.5 108.797V113.823H1.5V108.797H0.5ZM0.5 118.849V123.875H1.5V118.849H0.5ZM0.5 128.901V133.927H1.5V128.901H0.5ZM0.5 138.953V143.978H1.5V138.953H0.5ZM0.5 149.004V154.03H1.5V149.004H0.5ZM0.5 159.056V164.082H1.5V159.056H0.5ZM0.5 169.108V174.134H1.5V169.108H0.5ZM0.5 179.16V184.185H1.5V179.16H0.5ZM0.5 189.211V194.237H1.5V189.211H0.5ZM0.5 199.263V204.289H1.5V199.263H0.5ZM0.5 209.315V214.341H1.5V209.315H0.5ZM0.5 219.366V224.392H1.5V219.366H0.5ZM0.5 229.418V234.444H1.5V229.418H0.5ZM0.5 239.47V244.496H1.5V239.47H0.5ZM0.5 249.522V254.547H1.5V249.522H0.5ZM0.5 259.573V264.599H1.5V259.573H0.5ZM0.5 269.625V274.651H1.5V269.625H0.5ZM0.5 279.677V284.703H1.5V279.677H0.5ZM0.5 289.728V294.754H1.5V289.728H0.5ZM0.5 299.78V304.806H1.5V299.78H0.5ZM0.5 309.832V314.858H1.5V309.832H0.5ZM0.5 319.884V324.909H1.5V319.884H0.5ZM0.5 329.935V334.961H1.5V329.935H0.5ZM0.5 339.987V345.013H1.5V339.987H0.5ZM0.5 350.039V355.065H1.5V350.039H0.5ZM0.5 360.09V365.116H1.5V360.09H0.5ZM0.5 370.142V375.168H1.5V370.142H0.5ZM0.5 380.194V385.22H1.5V380.194H0.5ZM0.5 390.246V395.271H1.5V390.246H0.5ZM0.5 400.297V405.323H1.5V400.297H0.5ZM0.5 410.349V415.375H1.5V410.349H0.5ZM0.5 420.401V425.426H1.5V420.401H0.5ZM0.5 430.452V435.478H1.5V430.452H0.5ZM0.5 440.504V445.53H1.5V440.504H0.5ZM0.5 450.556V455.582H1.5V450.556H0.5ZM0.5 460.607V465.633H1.5V460.607H0.5ZM0.5 470.659V475.685H1.5V470.659H0.5ZM0.5 480.711V485.737H1.5V480.711H0.5ZM0.5 490.763V495.788H1.5V490.763H0.5ZM0.5 500.814V505.84H1.5V500.814H0.5ZM0.5 510.866V515.892H1.5V510.866H0.5ZM0.5 520.918V525.943H1.5V520.918H0.5ZM0.5 530.969V535.995H1.5V530.969H0.5ZM0.5 541.021V546.047H1.5V541.021H0.5ZM0.5 551.073V556.099H1.5V551.073H0.5ZM0.5 561.124V566.15H1.5V561.124H0.5ZM0.5 571.176V576.202H1.5V571.176H0.5ZM0.5 581.228V586.254H1.5V581.228H0.5ZM0.5 591.28V596.305H1.5V591.28H0.5ZM0.5 601.331V606.357H1.5V601.331H0.5ZM0.5 611.383V616.409H1.5V611.383H0.5ZM0.5 621.435V626.461H1.5V621.435H0.5ZM0.5 631.487V634H1.5V631.487H0.5ZM0.5 634C0.5 634.831 0.520075 635.657 0.559771 636.479L1.5586 636.43C1.51969 635.625 1.5 634.815 1.5 634H0.5ZM1.04016 641.412C1.28258 643.06 1.60461 644.682 2.00222 646.274L2.97243 646.032C2.58275 644.472 2.26713 642.882 2.02952 641.267L1.04016 641.412ZM3.43944 651.018C3.99886 652.581 4.63316 654.109 5.338 655.597L6.2417 655.169C5.55088 653.711 4.92923 652.213 4.38096 650.681L3.43944 651.018ZM7.6781 659.966C8.53087 661.386 9.45143 662.76 10.4353 664.084L11.238 663.488C10.2736 662.19 9.37122 660.843 8.53535 659.451L7.6781 659.966ZM13.5816 667.914C14.692 669.138 15.8617 670.308 17.0861 671.418L17.7579 670.678C16.5576 669.589 15.4109 668.442 14.3223 667.242L13.5816 667.914ZM20.9156 674.565C22.24 675.549 23.6144 676.469 25.0341 677.322L25.549 676.465C24.1574 675.629 22.8102 674.726 21.5119 673.762L20.9156 674.565ZM29.4033 679.662C30.8909 680.367 32.4185 681.001 33.9818 681.561L34.3187 680.619C32.7867 680.071 31.2895 679.449 29.8315 678.758L29.4033 679.662ZM38.7255 682.998C40.3178 683.395 41.94 683.717 43.588 683.96L43.7335 682.97C42.1182 682.733 40.5283 682.417 38.9678 682.028L38.7255 682.998ZM48.5215 684.44C49.3427 684.48 50.169 684.5 51 684.5V683.5C50.1851 683.5 49.3749 683.48 48.5697 683.441L48.5215 684.44ZM51 684.5H53.4938V683.5H51V684.5ZM58.4815 684.5H63.4692V683.5H58.4815V684.5ZM68.4569 684.5H73.4445V683.5H68.4569V684.5ZM78.4322 684.5H83.4199V683.5H78.4322V684.5ZM88.4076 684.5H93.3952V683.5H88.4076V684.5ZM98.3829 684.5H103.371V683.5H98.3829V684.5ZM108.358 684.5H113.346V683.5H108.358V684.5ZM118.334 684.5H123.321V683.5H118.334V684.5ZM128.309 684.5H133.297V683.5H128.309V684.5ZM138.284 684.5H143.272V683.5H138.284V684.5ZM148.26 684.5H153.247V683.5H148.26V684.5ZM158.235 684.5H163.223V683.5H158.235V684.5ZM168.21 684.5H173.198V683.5H168.21V684.5ZM178.186 684.5H183.173V683.5H178.186V684.5ZM188.161 684.5H193.149V683.5H188.161V684.5ZM198.136 684.5H203.124V683.5H198.136V684.5ZM208.112 684.5H213.099V683.5H208.112V684.5ZM218.087 684.5H223.075V683.5H218.087V684.5ZM228.062 684.5H233.05V683.5H228.062V684.5ZM238.038 684.5H243.025V683.5H238.038V684.5ZM248.013 684.5H253.001V683.5H248.013V684.5ZM257.988 684.5H262.976V683.5H257.988V684.5ZM267.964 684.5H272.952V683.5H267.964V684.5ZM277.939 684.5H282.927V683.5H277.939V684.5ZM287.915 684.5H292.902V683.5H287.915V684.5ZM297.89 684.5H302.878V683.5H297.89V684.5ZM307.865 684.5H312.853V683.5H307.865V684.5ZM317.841 684.5H322.828V683.5H317.841V684.5ZM327.816 684.5H332.804V683.5H327.816V684.5ZM337.791 684.5H342.779V683.5H337.791V684.5ZM347.767 684.5H352.754V683.5H347.767V684.5ZM357.742 684.5H362.73V683.5H357.742V684.5ZM367.717 684.5H372.705V683.5H367.717V684.5ZM377.693 684.5H382.68V683.5H377.693V684.5ZM387.668 684.5H392.656V683.5H387.668V684.5ZM397.643 684.5H402.631V683.5H397.643V684.5ZM407.619 684.5H410.113V683.5H407.619V684.5ZM410.113 684.5C411.1 684.5 412.086 684.471 413.07 684.413L413.012 683.415C412.047 683.472 411.08 683.5 410.113 683.5V684.5ZM418.945 683.722C419.916 683.549 420.882 683.348 421.842 683.119L421.61 682.146C420.669 682.371 419.722 682.568 418.771 682.737L418.945 683.722ZM421.842 683.119L424.309 682.53L424.077 681.557L421.61 682.146L421.842 683.119ZM429.243 681.352L434.177 680.173L433.944 679.201L429.011 680.379L429.243 681.352ZM439.11 678.995L444.044 677.817L443.811 676.844L438.878 678.023L439.11 678.995ZM448.977 676.639L453.911 675.461L453.679 674.488L448.745 675.666L448.977 676.639ZM458.845 674.283L463.778 673.104L463.546 672.132L458.612 673.31L458.845 674.283ZM468.712 671.926L473.645 670.748L473.413 669.775L468.479 670.954L468.712 671.926ZM478.579 669.57L483.513 668.392L483.28 667.419L478.347 668.597L478.579 669.57ZM488.446 667.214L493.38 666.035L493.147 665.063L488.214 666.241L488.446 667.214ZM498.313 664.857L503.247 663.679L503.015 662.706L498.081 663.885L498.313 664.857ZM508.181 662.501L513.114 661.323L512.882 660.35L507.948 661.528L508.181 662.501ZM518.048 660.144L522.981 658.966L522.749 657.994L517.815 659.172L518.048 660.144ZM527.915 657.788L532.849 656.61L532.616 655.637L527.683 656.815L527.915 657.788ZM537.782 655.432L542.716 654.254L542.483 653.281L537.55 654.459L537.782 655.432ZM547.649 653.075L550.116 652.486L549.884 651.514L547.417 652.103L547.649 653.075Z" fill="#29AD26"/>
<path d="M745.574 652.262C745.429 652.026 745.503 651.719 745.738 651.574L749.572 649.218C749.808 649.074 750.115 649.147 750.26 649.382C750.405 649.618 750.331 649.926 750.096 650.07L746.688 652.164L748.782 655.572C748.926 655.808 748.853 656.115 748.618 656.26C748.382 656.405 748.074 656.331 747.93 656.096L745.574 652.262ZM874.274 682.633L874.158 683.119L874.274 682.633ZM1100 0.5H1102.42V1.5H1100V0.5ZM1107.25 0.5H1112.08V1.5H1107.25V0.5ZM1116.92 0.5H1121.75V1.5H1116.92V0.5ZM1126.58 0.5H1131.42V1.5H1126.58V0.5ZM1136.25 0.5H1141.08V1.5H1136.25V0.5ZM1145.92 0.5H1150.75V1.5H1145.92V0.5ZM1155.58 0.5H1160.42V1.5H1155.58V0.5ZM1165.25 0.5H1170.08V1.5H1165.25V0.5ZM1174.92 0.5H1179.75V1.5H1174.92V0.5ZM1184.58 0.5H1189.42V1.5H1184.58V0.5ZM1194.25 0.5H1199.08V1.5H1194.25V0.5ZM1203.92 0.5H1208.75V1.5H1203.92V0.5ZM1213.58 0.5H1218.42V1.5H1213.58V0.5ZM1223.25 0.5H1228.08V1.5H1223.25V0.5ZM1232.92 0.5H1237.75V1.5H1232.92V0.5ZM1242.58 0.5H1245V1.5H1242.58V0.5ZM1245 0.5C1245.83 0.5 1246.66 0.520075 1247.48 0.559771L1247.43 1.5586C1246.63 1.51969 1245.81 1.5 1245 1.5V0.5ZM1252.41 1.04016C1254.06 1.28258 1255.68 1.60461 1257.27 2.00222L1257.03 2.97243C1255.47 2.58275 1253.88 2.26713 1252.27 2.02952L1252.41 1.04016ZM1262.02 3.43944C1263.58 3.99886 1265.11 4.63316 1266.6 5.338L1266.17 6.2417C1264.71 5.55088 1263.21 4.92923 1261.68 4.38096L1262.02 3.43944ZM1270.97 7.6781C1272.39 8.53087 1273.76 9.45142 1275.08 10.4353L1274.49 11.238C1273.19 10.2736 1271.84 9.37122 1270.45 8.53535L1270.97 7.6781ZM1278.91 13.5816C1280.14 14.692 1281.31 15.8617 1282.42 17.0861L1281.68 17.7579C1280.59 16.5576 1279.44 15.4109 1278.24 14.3223L1278.91 13.5816ZM1285.56 20.9156C1286.55 22.24 1287.47 23.6144 1288.32 25.0341L1287.46 25.549C1286.63 24.1574 1285.73 22.8102 1284.76 21.5119L1285.56 20.9156ZM1290.66 29.4033C1291.37 30.8909 1292 32.4185 1292.56 33.9818L1291.62 34.3187C1291.07 32.7867 1290.45 31.2895 1289.76 29.8315L1290.66 29.4033ZM1294 38.7255C1294.4 40.3178 1294.72 41.94 1294.96 43.588L1293.97 43.7335C1293.73 42.1182 1293.42 40.5283 1293.03 38.9678L1294 38.7255ZM1295.44 48.5215C1295.48 49.3427 1295.5 50.169 1295.5 51H1294.5C1294.5 50.1851 1294.48 49.3749 1294.44 48.5697L1295.44 48.5215ZM1295.5 51V53.5129H1294.5V51H1295.5ZM1295.5 58.5388V63.5647H1294.5V58.5388H1295.5ZM1295.5 68.5905V73.6164H1294.5V68.5905H1295.5ZM1295.5 78.6422V83.6681H1294.5V78.6422H1295.5ZM1295.5 88.694V93.7198H1294.5V88.694H1295.5ZM1295.5 98.7457V103.772H1294.5V98.7457H1295.5ZM1295.5 108.797V113.823H1294.5V108.797H1295.5ZM1295.5 118.849V123.875H1294.5V118.849H1295.5ZM1295.5 128.901V133.927H1294.5V128.901H1295.5ZM1295.5 138.953V143.978H1294.5V138.953H1295.5ZM1295.5 149.004V154.03H1294.5V149.004H1295.5ZM1295.5 159.056V164.082H1294.5V159.056H1295.5ZM1295.5 169.108V174.134H1294.5V169.108H1295.5ZM1295.5 179.16V184.185H1294.5V179.16H1295.5ZM1295.5 189.211V194.237H1294.5V189.211H1295.5ZM1295.5 199.263V204.289H1294.5V199.263H1295.5ZM1295.5 209.315V214.341H1294.5V209.315H1295.5ZM1295.5 219.366V224.392H1294.5V219.366H1295.5ZM1295.5 229.418V234.444H1294.5V229.418H1295.5ZM1295.5 239.47V244.496H1294.5V239.47H1295.5ZM1295.5 249.522V254.547H1294.5V249.522H1295.5ZM1295.5 259.573V264.599H1294.5V259.573H1295.5ZM1295.5 269.625V274.651H1294.5V269.625H1295.5ZM1295.5 279.677V284.703H1294.5V279.677H1295.5ZM1295.5 289.728V294.754H1294.5V289.728H1295.5ZM1295.5 299.78V304.806H1294.5V299.78H1295.5ZM1295.5 309.832V314.858H1294.5V309.832H1295.5ZM1295.5 319.884V324.909H1294.5V319.884H1295.5ZM1295.5 329.935V334.961H1294.5V329.935H1295.5ZM1295.5 339.987V345.013H1294.5V339.987H1295.5ZM1295.5 350.039V355.065H1294.5V350.039H1295.5ZM1295.5 360.09V365.116H1294.5V360.09H1295.5ZM1295.5 370.142V375.168H1294.5V370.142H1295.5ZM1295.5 380.194V385.22H1294.5V380.194H1295.5ZM1295.5 390.246V395.271H1294.5V390.246H1295.5ZM1295.5 400.297V405.323H1294.5V400.297H1295.5ZM1295.5 410.349V415.375H1294.5V410.349H1295.5ZM1295.5 420.401V425.426H1294.5V420.401H1295.5ZM1295.5 430.452V435.478H1294.5V430.452H1295.5ZM1295.5 440.504V445.53H1294.5V440.504H1295.5ZM1295.5 450.556V455.582H1294.5V450.556H1295.5ZM1295.5 460.607V465.633H1294.5V460.607H1295.5ZM1295.5 470.659V475.685H1294.5V470.659H1295.5ZM1295.5 480.711V485.737H1294.5V480.711H1295.5ZM1295.5 490.763V495.788H1294.5V490.763H1295.5ZM1295.5 500.814V505.84H1294.5V500.814H1295.5ZM1295.5 510.866V515.892H1294.5V510.866H1295.5ZM1295.5 520.918V525.943H1294.5V520.918H1295.5ZM1295.5 530.969V535.995H1294.5V530.969H1295.5ZM1295.5 541.021V546.047H1294.5V541.021H1295.5ZM1295.5 551.073V556.099H1294.5V551.073H1295.5ZM1295.5 561.124V566.15H1294.5V561.124H1295.5ZM1295.5 571.176V576.202H1294.5V571.176H1295.5ZM1295.5 581.228V586.254H1294.5V581.228H1295.5ZM1295.5 591.28V596.305H1294.5V591.28H1295.5ZM1295.5 601.331V606.357H1294.5V601.331H1295.5ZM1295.5 611.383V616.409H1294.5V611.383H1295.5ZM1295.5 621.435V626.461H1294.5V621.435H1295.5ZM1295.5 631.487V634H1294.5V631.487H1295.5ZM1295.5 634C1295.5 634.831 1295.48 635.657 1295.44 636.479L1294.44 636.43C1294.48 635.625 1294.5 634.815 1294.5 634H1295.5ZM1294.96 641.412C1294.72 643.06 1294.4 644.682 1294 646.274L1293.03 646.032C1293.42 644.472 1293.73 642.882 1293.97 641.267L1294.96 641.412ZM1292.56 651.018C1292 652.581 1291.37 654.109 1290.66 655.597L1289.76 655.169C1290.45 653.711 1291.07 652.213 1291.62 650.681L1292.56 651.018ZM1288.32 659.966C1287.47 661.386 1286.55 662.76 1285.56 664.084L1284.76 663.488C1285.73 662.19 1286.63 660.843 1287.46 659.451L1288.32 659.966ZM1282.42 667.914C1281.31 669.138 1280.14 670.308 1278.91 671.418L1278.24 670.678C1279.44 669.589 1280.59 668.442 1281.68 667.242L1282.42 667.914ZM1275.08 674.565C1273.76 675.549 1272.39 676.469 1270.97 677.322L1270.45 676.465C1271.84 675.629 1273.19 674.726 1274.49 673.762L1275.08 674.565ZM1266.6 679.662C1265.11 680.367 1263.58 681.001 1262.02 681.561L1261.68 680.619C1263.21 680.071 1264.71 679.449 1266.17 678.758L1266.6 679.662ZM1257.27 682.998C1255.68 683.395 1254.06 683.717 1252.41 683.96L1252.27 682.97C1253.88 682.733 1255.47 682.417 1257.03 682.028L1257.27 682.998ZM1247.48 684.44C1246.66 684.48 1245.83 684.5 1245 684.5V683.5C1245.81 683.5 1246.63 683.48 1247.43 683.441L1247.48 684.44ZM1245 684.5H1242.51V683.5H1245V684.5ZM1237.52 684.5H1232.53V683.5H1237.52V684.5ZM1227.54 684.5H1222.56V683.5H1227.54V684.5ZM1217.57 684.5H1212.58V683.5H1217.57V684.5ZM1207.59 684.5H1202.6V683.5H1207.59V684.5ZM1197.62 684.5H1192.63V683.5H1197.62V684.5ZM1187.64 684.5H1182.65V683.5H1187.64V684.5ZM1177.67 684.5H1172.68V683.5H1177.67V684.5ZM1167.69 684.5H1162.7V683.5H1167.69V684.5ZM1157.72 684.5H1152.73V683.5H1157.72V684.5ZM1147.74 684.5H1142.75V683.5H1147.74V684.5ZM1137.76 684.5H1132.78V683.5H1137.76V684.5ZM1127.79 684.5H1122.8V683.5H1127.79V684.5ZM1117.81 684.5H1112.83V683.5H1117.81V684.5ZM1107.84 684.5H1102.85V683.5H1107.84V684.5ZM1097.86 684.5H1092.88V683.5H1097.86V684.5ZM1087.89 684.5H1082.9V683.5H1087.89V684.5ZM1077.91 684.5H1072.93V683.5H1077.91V684.5ZM1067.94 684.5H1062.95V683.5H1067.94V684.5ZM1057.96 684.5H1052.97V683.5H1057.96V684.5ZM1047.99 684.5H1043V683.5H1047.99V684.5ZM1038.01 684.5H1033.02V683.5H1038.01V684.5ZM1028.04 684.5H1023.05V683.5H1028.04V684.5ZM1018.06 684.5H1013.07V683.5H1018.06V684.5ZM1008.09 684.5H1003.1V683.5H1008.09V684.5ZM998.11 684.5H993.122V683.5H998.11V684.5ZM988.135 684.5H983.147V683.5H988.135V684.5ZM978.159 684.5H973.172V683.5H978.159V684.5ZM968.184 684.5H963.196V683.5H968.184V684.5ZM958.209 684.5H953.221V683.5H958.209V684.5ZM948.233 684.5H943.246V683.5H948.233V684.5ZM938.258 684.5H933.27V683.5H938.258V684.5ZM928.283 684.5H923.295V683.5H928.283V684.5ZM918.307 684.5H913.32V683.5H918.307V684.5ZM908.332 684.5H903.344V683.5H908.332V684.5ZM898.357 684.5H893.369V683.5H898.357V684.5ZM888.381 684.5H885.887V683.5H888.381V684.5ZM885.887 684.5C884.9 684.5 883.914 684.471 882.93 684.413L882.988 683.415C883.953 683.472 884.92 683.5 885.887 683.5V684.5ZM877.055 683.722C876.084 683.549 875.118 683.348 874.158 683.119L874.39 682.146C875.331 682.371 876.278 682.568 877.229 682.737L877.055 683.722ZM874.158 683.119L871.691 682.53L871.923 681.557L874.39 682.146L874.158 683.119ZM866.757 681.352L861.823 680.173L862.056 679.201L866.989 680.379L866.757 681.352ZM856.89 678.995L851.956 677.817L852.189 676.844L857.122 678.023L856.89 678.995ZM847.023 676.639L842.089 675.461L842.321 674.488L847.255 675.666L847.023 676.639ZM837.155 674.283L832.222 673.104L832.454 672.132L837.388 673.31L837.155 674.283ZM827.288 671.926L822.355 670.748L822.587 669.775L827.521 670.954L827.288 671.926ZM817.421 669.57L812.487 668.392L812.72 667.419L817.653 668.597L817.421 669.57ZM807.554 667.214L802.62 666.035L802.853 665.063L807.786 666.241L807.554 667.214ZM797.687 664.857L792.753 663.679L792.985 662.706L797.919 663.885L797.687 664.857ZM787.819 662.501L782.886 661.323L783.118 660.35L788.052 661.528L787.819 662.501ZM777.952 660.144L773.019 658.966L773.251 657.994L778.185 659.172L777.952 660.144ZM768.085 657.788L763.151 656.61L763.384 655.637L768.317 656.815L768.085 657.788ZM758.218 655.432L753.284 654.254L753.517 653.281L758.45 654.459L758.218 655.432ZM748.351 653.075L745.884 652.486L746.116 651.514L748.583 652.103L748.351 653.075Z" fill="#29AD26"/>
<path d="M550.265 563.424C550.499 563.278 550.57 562.969 550.424 562.735L548.041 558.918C547.895 558.684 547.587 558.612 547.352 558.759C547.118 558.905 547.047 559.213 547.193 559.447L549.311 562.841L545.918 564.959C545.684 565.105 545.612 565.413 545.759 565.648C545.905 565.882 546.213 565.953 546.447 565.807L550.265 563.424ZM421.561 533.287L421.449 533.774L421.561 533.287ZM196 309.5C195.181 309.5 194.368 309.523 193.56 309.567L193.615 310.566C194.405 310.522 195.2 310.5 196 310.5V309.5ZM188.71 310.108C187.093 310.381 185.505 310.743 183.953 311.19L184.229 312.151C185.745 311.715 187.296 311.361 188.877 311.094L188.71 310.108ZM179.349 312.801C177.839 313.427 176.372 314.135 174.954 314.921L175.439 315.796C176.824 315.028 178.257 314.336 179.732 313.725L179.349 312.801ZM170.826 317.52C169.498 318.464 168.225 319.481 167.014 320.564L167.68 321.31C168.864 320.251 170.108 319.258 171.405 318.335L170.826 317.52ZM163.564 324.014C162.481 325.225 161.464 326.498 160.52 327.826L161.335 328.405C162.258 327.108 163.251 325.864 164.31 324.68L163.564 324.014ZM157.921 331.954C157.135 333.372 156.427 334.839 155.801 336.349L156.725 336.732C157.336 335.257 158.028 333.824 158.796 332.439L157.921 331.954ZM154.19 340.953C153.743 342.505 153.381 344.093 153.108 345.71L154.094 345.877C154.361 344.296 154.715 342.745 155.151 341.229L154.19 340.953ZM152.567 350.56C152.523 351.368 152.5 352.181 152.5 353H153.5C153.5 352.2 153.522 351.405 153.566 350.615L152.567 350.56ZM152.5 353V355.481H153.5V353H152.5ZM152.5 360.442V365.404H153.5V360.442H152.5ZM152.5 370.365V375.327H153.5V370.365H152.5ZM152.5 380.288V385.25H153.5V380.288H152.5ZM152.5 390.212V395.173H153.5V390.212H152.5ZM152.5 400.135V405.096H153.5V400.135H152.5ZM152.5 410.058V415.019H153.5V410.058H152.5ZM152.5 419.981V424.942H153.5V419.981H152.5ZM152.5 429.904V434.865H153.5V429.904H152.5ZM152.5 439.827V444.788H153.5V439.827H152.5ZM152.5 449.75V454.712H153.5V449.75H152.5ZM152.5 459.673V464.635H153.5V459.673H152.5ZM152.5 469.596V474.558H153.5V469.596H152.5ZM152.5 479.519V482H153.5V479.519H152.5ZM152.5 482C152.5 482.831 152.52 483.657 152.56 484.479L153.559 484.43C153.52 483.625 153.5 482.815 153.5 482H152.5ZM153.04 489.412C153.283 491.06 153.605 492.682 154.002 494.274L154.972 494.032C154.583 492.472 154.267 490.882 154.03 489.267L153.04 489.412ZM155.439 499.018C155.999 500.581 156.633 502.109 157.338 503.597L158.242 503.169C157.551 501.71 156.929 500.213 156.381 498.681L155.439 499.018ZM159.678 507.966C160.531 509.386 161.451 510.76 162.435 512.084L163.238 511.488C162.274 510.19 161.371 508.843 160.535 507.451L159.678 507.966ZM165.582 515.914C166.692 517.138 167.862 518.308 169.086 519.418L169.758 518.678C168.558 517.589 167.411 516.442 166.322 515.242L165.582 515.914ZM172.916 522.565C174.24 523.549 175.614 524.469 177.034 525.322L177.549 524.465C176.157 523.629 174.81 522.726 173.512 521.762L172.916 522.565ZM181.403 527.662C182.891 528.367 184.419 529.001 185.982 529.561L186.319 528.619C184.787 528.071 183.29 527.449 181.831 526.758L181.403 527.662ZM190.726 530.998C192.318 531.395 193.94 531.717 195.588 531.96L195.733 530.97C194.118 530.733 192.528 530.417 190.968 530.028L190.726 530.998ZM200.521 532.44C201.343 532.48 202.169 532.5 203 532.5V531.5C202.185 531.5 201.375 531.48 200.57 531.441L200.521 532.44ZM203 532.5H205.468V531.5H203V532.5ZM210.403 532.5H215.339V531.5H210.403V532.5ZM220.274 532.5H225.21V531.5H220.274V532.5ZM230.145 532.5H235.081V531.5H230.145V532.5ZM240.016 532.5H244.952V531.5H240.016V532.5ZM249.887 532.5H254.823V531.5H249.887V532.5ZM259.758 532.5H264.694V531.5H259.758V532.5ZM269.63 532.5H274.565V531.5H269.63V532.5ZM279.501 532.5H284.436V531.5H279.501V532.5ZM289.372 532.5H294.307V531.5H289.372V532.5ZM299.243 532.5H304.178V531.5H299.243V532.5ZM309.114 532.5H314.049V531.5H309.114V532.5ZM318.985 532.5H323.92V531.5H318.985V532.5ZM328.856 532.5H333.791V531.5H328.856V532.5ZM338.727 532.5H343.662V531.5H338.727V532.5ZM348.598 532.5H353.533V531.5H348.598V532.5ZM358.469 532.5H363.404V531.5H358.469V532.5ZM368.34 532.5H373.275V531.5H368.34V532.5ZM378.211 532.5H383.146V531.5H378.211V532.5ZM388.082 532.5H393.017V531.5H388.082V532.5ZM397.953 532.5H402.888V531.5H397.953V532.5ZM407.824 532.5H410.292V531.5H407.824V532.5ZM410.292 532.5C411.23 532.5 412.168 532.527 413.104 532.58L413.16 531.582C412.206 531.527 411.249 531.5 410.292 531.5V532.5ZM418.691 533.218C419.615 533.377 420.534 533.562 421.449 533.774L421.674 532.799C420.741 532.584 419.803 532.395 418.861 532.232L418.691 533.218ZM421.449 533.774L423.919 534.345L424.144 533.371L421.674 532.799L421.449 533.774ZM428.859 535.488L433.798 536.631L434.024 535.656L429.084 534.514L428.859 535.488ZM438.738 537.774L443.678 538.916L443.904 537.942L438.964 536.799L438.738 537.774ZM448.618 540.059L453.558 541.202L453.784 540.228L448.844 539.085L448.618 540.059ZM458.498 542.345L463.438 543.488L463.664 542.513L458.724 541.371L458.498 542.345ZM468.378 544.631L473.318 545.773L473.543 544.799L468.604 543.656L468.378 544.631ZM478.258 546.916L483.198 548.059L483.423 547.085L478.483 545.942L478.258 546.916ZM488.138 549.202L493.078 550.345L493.303 549.37L488.363 548.228L488.138 549.202ZM498.018 551.487L502.958 552.63L503.183 551.656L498.243 550.513L498.018 551.487ZM507.898 553.773L512.838 554.916L513.063 553.942L508.123 552.799L507.898 553.773ZM517.778 556.059L522.718 557.202L522.943 556.227L518.003 555.085L517.778 556.059ZM527.658 558.344L532.597 559.487L532.823 558.513L527.883 557.37L527.658 558.344ZM537.537 560.63L542.477 561.773L542.703 560.799L537.763 559.656L537.537 560.63ZM547.417 562.916L549.887 563.487L550.113 562.513L547.643 561.941L547.417 562.916Z" fill="#29AD26"/>
<path d="M745.735 563.424C745.501 563.278 745.43 562.969 745.576 562.735L747.959 558.918C748.105 558.684 748.413 558.612 748.648 558.759C748.882 558.905 748.953 559.213 748.807 559.447L746.689 562.841L750.082 564.959C750.316 565.105 750.388 565.413 750.241 565.648C750.095 565.882 749.787 565.953 749.553 565.807L745.735 563.424ZM874.439 533.287L874.551 533.774L874.439 533.287ZM1100 309.5C1100.82 309.5 1101.63 309.523 1102.44 309.567L1102.38 310.566C1101.6 310.522 1100.8 310.5 1100 310.5V309.5ZM1107.29 310.108C1108.91 310.381 1110.49 310.743 1112.05 311.19L1111.77 312.151C1110.25 311.715 1108.7 311.361 1107.12 311.094L1107.29 310.108ZM1116.65 312.801C1118.16 313.427 1119.63 314.135 1121.05 314.921L1120.56 315.796C1119.18 315.028 1117.74 314.336 1116.27 313.725L1116.65 312.801ZM1125.17 317.52C1126.5 318.464 1127.77 319.481 1128.99 320.564L1128.32 321.31C1127.14 320.251 1125.89 319.258 1124.59 318.335L1125.17 317.52ZM1132.44 324.014C1133.52 325.225 1134.54 326.498 1135.48 327.826L1134.66 328.405C1133.74 327.108 1132.75 325.864 1131.69 324.68L1132.44 324.014ZM1138.08 331.954C1138.86 333.372 1139.57 334.839 1140.2 336.349L1139.28 336.732C1138.66 335.257 1137.97 333.824 1137.2 332.439L1138.08 331.954ZM1141.81 340.953C1142.26 342.505 1142.62 344.093 1142.89 345.71L1141.91 345.877C1141.64 344.296 1141.29 342.745 1140.85 341.229L1141.81 340.953ZM1143.43 350.56C1143.48 351.368 1143.5 352.181 1143.5 353H1142.5C1142.5 352.2 1142.48 351.405 1142.43 350.615L1143.43 350.56ZM1143.5 353V355.481H1142.5V353H1143.5ZM1143.5 360.442V365.404H1142.5V360.442H1143.5ZM1143.5 370.365V375.327H1142.5V370.365H1143.5ZM1143.5 380.288V385.25H1142.5V380.288H1143.5ZM1143.5 390.212V395.173H1142.5V390.212H1143.5ZM1143.5 400.135V405.096H1142.5V400.135H1143.5ZM1143.5 410.058V415.019H1142.5V410.058H1143.5ZM1143.5 419.981V424.942H1142.5V419.981H1143.5ZM1143.5 429.904V434.865H1142.5V429.904H1143.5ZM1143.5 439.827V444.788H1142.5V439.827H1143.5ZM1143.5 449.75V454.712H1142.5V449.75H1143.5ZM1143.5 459.673V464.635H1142.5V459.673H1143.5ZM1143.5 469.596V474.558H1142.5V469.596H1143.5ZM1143.5 479.519V482H1142.5V479.519H1143.5ZM1143.5 482C1143.5 482.831 1143.48 483.657 1143.44 484.479L1142.44 484.43C1142.48 483.625 1142.5 482.815 1142.5 482H1143.5ZM1142.96 489.412C1142.72 491.06 1142.4 492.682 1142 494.274L1141.03 494.032C1141.42 492.472 1141.73 490.882 1141.97 489.267L1142.96 489.412ZM1140.56 499.018C1140 500.581 1139.37 502.109 1138.66 503.597L1137.76 503.169C1138.45 501.71 1139.07 500.213 1139.62 498.681L1140.56 499.018ZM1136.32 507.966C1135.47 509.386 1134.55 510.76 1133.56 512.084L1132.76 511.488C1133.73 510.19 1134.63 508.843 1135.46 507.451L1136.32 507.966ZM1130.42 515.914C1129.31 517.138 1128.14 518.308 1126.91 519.418L1126.24 518.678C1127.44 517.589 1128.59 516.442 1129.68 515.242L1130.42 515.914ZM1123.08 522.565C1121.76 523.549 1120.39 524.469 1118.97 525.322L1118.45 524.465C1119.84 523.629 1121.19 522.726 1122.49 521.762L1123.08 522.565ZM1114.6 527.662C1113.11 528.367 1111.58 529.001 1110.02 529.561L1109.68 528.619C1111.21 528.071 1112.71 527.449 1114.17 526.758L1114.6 527.662ZM1105.27 530.998C1103.68 531.395 1102.06 531.717 1100.41 531.96L1100.27 530.97C1101.88 530.733 1103.47 530.417 1105.03 530.028L1105.27 530.998ZM1095.48 532.44C1094.66 532.48 1093.83 532.5 1093 532.5V531.5C1093.81 531.5 1094.63 531.48 1095.43 531.441L1095.48 532.44ZM1093 532.5H1090.53V531.5H1093V532.5ZM1085.6 532.5H1080.66V531.5H1085.6V532.5ZM1075.73 532.5H1070.79V531.5H1075.73V532.5ZM1065.85 532.5H1060.92V531.5H1065.85V532.5ZM1055.98 532.5H1051.05V531.5H1055.98V532.5ZM1046.11 532.5H1041.18V531.5H1046.11V532.5ZM1036.24 532.5H1031.31V531.5H1036.24V532.5ZM1026.37 532.5H1021.43V531.5H1026.37V532.5ZM1016.5 532.5H1011.56V531.5H1016.5V532.5ZM1006.63 532.5H1001.69V531.5H1006.63V532.5ZM996.757 532.5H991.822V531.5H996.757V532.5ZM986.886 532.5H981.951V531.5H986.886V532.5ZM977.015 532.5H972.08V531.5H977.015V532.5ZM967.144 532.5H962.209V531.5H967.144V532.5ZM957.273 532.5H952.338V531.5H957.273V532.5ZM947.402 532.5H942.467V531.5H947.402V532.5ZM937.531 532.5H932.596V531.5H937.531V532.5ZM927.66 532.5H922.725V531.5H927.66V532.5ZM917.789 532.5H912.854V531.5H917.789V532.5ZM907.918 532.5H902.983V531.5H907.918V532.5ZM898.047 532.5H893.112V531.5H898.047V532.5ZM888.176 532.5H885.708V531.5H888.176V532.5ZM885.708 532.5C884.77 532.5 883.832 532.527 882.896 532.58L882.84 531.582C883.794 531.527 884.751 531.5 885.708 531.5V532.5ZM877.309 533.218C876.385 533.377 875.466 533.562 874.551 533.774L874.326 532.799C875.259 532.584 876.197 532.395 877.139 532.232L877.309 533.218ZM874.551 533.774L872.081 534.345L871.856 533.371L874.326 532.799L874.551 533.774ZM867.141 535.488L862.202 536.631L861.976 535.656L866.916 534.514L867.141 535.488ZM857.262 537.774L852.322 538.916L852.096 537.942L857.036 536.799L857.262 537.774ZM847.382 540.059L842.442 541.202L842.216 540.228L847.156 539.085L847.382 540.059ZM837.502 542.345L832.562 543.488L832.336 542.513L837.276 541.371L837.502 542.345ZM827.622 544.631L822.682 545.773L822.457 544.799L827.396 543.656L827.622 544.631ZM817.742 546.916L812.802 548.059L812.577 547.085L817.517 545.942L817.742 546.916ZM807.862 549.202L802.922 550.345L802.697 549.37L807.637 548.228L807.862 549.202ZM797.982 551.487L793.042 552.63L792.817 551.656L797.757 550.513L797.982 551.487ZM788.102 553.773L783.162 554.916L782.937 553.942L787.877 552.799L788.102 553.773ZM778.222 556.059L773.282 557.202L773.057 556.227L777.997 555.085L778.222 556.059ZM768.342 558.344L763.403 559.487L763.177 558.513L768.117 557.37L768.342 558.344ZM758.463 560.63L753.523 561.773L753.297 560.799L758.237 559.656L758.463 560.63ZM748.583 562.916L746.113 563.487L745.887 562.513L748.357 561.941L748.583 562.916Z" fill="#29AD26"/>
<g filter="url(#filter0_f_808_3914)">
<path d="M736 629L703.5 648L693.5 642L704.5 635.5L693.5 629L682 635.5L671 629L683 622L672 615.5L683 609L694 615.5L703.5 610L736 629Z" fill="#E3EDE4"/>
</g>
<g filter="url(#filter1_f_808_3914)">
<path d="M560 629L592.5 648L602.5 642L591.5 635.5L602.5 629L614 635.5L625 629L613 622L624 615.5L613 609L602 615.5L592.5 610L560 629Z" fill="#E3EDE4"/>
</g>
<g filter="url(#filter2_f_808_3914)">
<path d="M617 588L649.5 569L682 588L671 594.5L659.5 588L648.5 594.5L659.5 601L649.5 607L640 601.5L628.5 608L617.5 601.5L628.5 595L617 588Z" fill="#E3EDE4"/>
</g>
<g filter="url(#filter3_f_808_3914)">
<path d="M681 670L648.5 689L616 670L627 663.5L638.5 670L649.5 663.5L638.5 657L648.5 651L658 656.5L669.5 650L680.5 656.5L669.5 663L681 670Z" fill="#E3EDE4"/>
</g>
<path d="M681.592 552.996L681.592 566.993L649.092 585.95L649.092 572L681.592 552.996Z" fill="#68C466"/>
<path d="M616.592 552.996L616.592 566.993L649.092 585.95L649.092 572L616.592 552.996Z" fill="#C2F397"/>
<path d="M649.092 534L681.592 553H616.592L649.092 534Z" fill="#87DA8C"/>
<path d="M649.092 572L616.592 553L681.592 553L649.092 572Z" fill="#87DA8C"/>
<path d="M638.592 565.604L638.592 579.602L627.296 586.158L627.296 572.208L638.592 565.604Z" fill="#68C466"/>
<path d="M616 565.604L616 579.602L627.296 586.158L627.296 572.208L616 565.604Z" fill="#C2F397"/>
<path d="M627.296 559L638.592 565.604H616L627.296 559Z" fill="#87DA8C"/>
<path d="M627.296 572.208L616 565.604L638.592 565.604L627.296 572.208Z" fill="#87DA8C"/>
<path d="M659 553.2V566.2L648 559.7L659 553.2Z" fill="#68C466"/>
<path d="M659.004 553.202L659.004 567.2L670.3 573.757L670.3 559.806L659.004 553.202Z" fill="#C2F397"/>
<path d="M659 567.2V580.3L670.3 573.75L659 567.2Z" fill="#E3EDE4"/>
<path d="M694.592 581.604L694.592 595.03L683.296 601.589L683.296 588.208L694.592 581.604Z" fill="#68C466"/>
<path d="M672 581.604L672 595.03L683.296 601.589L683.296 588.208L672 581.604Z" fill="#C2F397"/>
<path d="M683.296 575L694.592 581.604H672L683.296 575Z" fill="#87DA8C"/>
<path d="M683.296 588.208L672 581.604L694.592 581.604L683.296 588.208Z" fill="#87DA8C"/>
<path d="M736 594.996L736 608.993L703.5 627.95L703.5 614L736 594.996Z" fill="#68C466"/>
<path d="M671 594.996L671 608.993L703.5 627.95L703.5 614L671 594.996Z" fill="#C2F397"/>
<path d="M703.5 576L736 595H671L703.5 576Z" fill="#87DA8C"/>
<path d="M703.5 614L671 595L736 595L703.5 614Z" fill="#87DA8C"/>
<path d="M693.3 595V608L704.3 601.5L693.3 595Z" fill="#C2F397"/>
<path d="M693.3 608.8V621.9L682 615.35L693.3 608.8Z" fill="#E3EDE4"/>
<path d="M693.296 595.002L693.296 609L682 615.557L682 601.606L693.296 595.002Z" fill="#68C466"/>
<path d="M560 594.996L560 608.993L592.5 627.95L592.5 614L560 594.996Z" fill="#C2F397"/>
<path d="M625 594.996L625 608.993L592.5 627.95L592.5 614L625 594.996Z" fill="#68C466"/>
<path d="M592.5 576L560 595H625L592.5 576Z" fill="#87DA8C"/>
<path d="M592.5 614L625 595L560 595L592.5 614Z" fill="#87DA8C"/>
<path d="M602.704 582L591.408 588.604H614L602.704 582Z" fill="#F9F9FB"/>
<path d="M602.704 595.208L614 588.604L591.408 588.604L602.704 595.208Z" fill="#F9F9FB"/>
<path d="M602.5 582.1V595.1L591.5 588.6L602.5 582.1Z" fill="#68C466"/>
<path d="M603 607.604L603 621.602L614.296 628.158L614.296 614.208L603 607.604Z" fill="#C2F397"/>
<path d="M625.592 607.604L625.592 621.602L614.296 628.158L614.296 614.208L625.592 607.604Z" fill="#68C466"/>
<path d="M614.296 601L603 607.604H625.592L614.296 601Z" fill="#87DA8C"/>
<path d="M614.296 614.208L625.592 607.604L603 607.604L614.296 614.208Z" fill="#87DA8C"/>
<path d="M680.592 623.604L680.592 637.03L669.296 643.589L669.296 630.208L680.592 623.604Z" fill="#68C466"/>
<path d="M658 623.604L658 637.03L669.296 643.589L669.296 630.208L658 623.604Z" fill="#C2F397"/>
<path d="M669.296 617L680.592 623.604H658L669.296 617Z" fill="#87DA8C"/>
<path d="M669.296 630.208L658 623.604L680.592 623.604L669.296 630.208Z" fill="#87DA8C"/>
<path d="M681 636.996L681 650.993L648.5 669.95L648.5 656L681 636.996Z" fill="#68C466"/>
<path d="M616 636.996L616 650.993L648.5 669.95L648.5 656L616 636.996Z" fill="#C2F397"/>
<path d="M648.5 618L681 637H616L648.5 618Z" fill="#87DA8C"/>
<path d="M648.5 656L616 637L681 637L648.5 656Z" fill="#87DA8C"/>
<path d="M638.296 624L649.592 630.604H627L638.296 624Z" fill="#F9F9FB"/>
<path d="M638.296 637.208L627 630.604L649.592 630.604L638.296 637.208Z" fill="#F9F9FB"/>
<path d="M638.5 624.1V637.1L649.5 630.6L638.5 624.1Z" fill="#C2F397"/>
<defs>
<filter id="filter0_f_808_3914" x="669" y="607" width="69" height="43" filterUnits="userSpaceOnUse" color-interpolation-filters="sRGB">
<feFlood flood-opacity="0" result="BackgroundImageFix"/>
<feBlend mode="normal" in="SourceGraphic" in2="BackgroundImageFix" result="shape"/>
<feGaussianBlur stdDeviation="1" result="effect1_foregroundBlur_808_3914"/>
</filter>
<filter id="filter1_f_808_3914" x="558" y="607" width="69" height="43" filterUnits="userSpaceOnUse" color-interpolation-filters="sRGB">
<feFlood flood-opacity="0" result="BackgroundImageFix"/>
<feBlend mode="normal" in="SourceGraphic" in2="BackgroundImageFix" result="shape"/>
<feGaussianBlur stdDeviation="1" result="effect1_foregroundBlur_808_3914"/>
</filter>
<filter id="filter2_f_808_3914" x="615" y="567" width="69" height="43" filterUnits="userSpaceOnUse" color-interpolation-filters="sRGB">
<feFlood flood-opacity="0" result="BackgroundImageFix"/>
<feBlend mode="normal" in="SourceGraphic" in2="BackgroundImageFix" result="shape"/>
<feGaussianBlur stdDeviation="1" result="effect1_foregroundBlur_808_3914"/>
</filter>
<filter id="filter3_f_808_3914" x="614" y="648" width="69" height="43" filterUnits="userSpaceOnUse" color-interpolation-filters="sRGB">
<feFlood flood-opacity="0" result="BackgroundImageFix"/>
<feBlend mode="normal" in="SourceGraphic" in2="BackgroundImageFix" result="shape"/>
<feGaussianBlur stdDeviation="1" result="effect1_foregroundBlur_808_3914"/>
</filter>
</defs>
</svg>
