<svg width="236" height="246" viewBox="0 0 236 246" fill="none" xmlns="http://www.w3.org/2000/svg">
<path d="M156.814 160.127C156.347 159.841 155.867 159.722 155.373 159.769C155.264 159.551 155.165 159.323 155.076 159.092C155.696 159.31 156.293 159.585 156.861 159.926C156.848 159.994 156.824 160.059 156.814 160.127ZM151.414 112.542C138.728 139.242 110.73 148.368 92.8386 120.364C77.0049 95.5818 72.6956 58.5639 90.9582 34.1601C101.297 37.5325 116.981 46.1542 127.763 44.0388C136.122 42.4003 146.059 33.2301 153.465 40.5336C159.955 46.9377 160.115 66.4566 160.026 74.8603C159.893 87.8389 156.991 100.811 151.414 112.542ZM148.56 165.748C139.028 174.669 123.607 194.106 109.807 185.488C103.746 181.707 93.2099 172.779 90.2394 166.235C87.7594 160.771 90.4063 157.405 91.7417 151.226C93.5608 142.815 93.6289 133.877 91.9665 125.429C104.745 147.401 132.689 149.56 147.957 130.239C146.509 136.997 146.219 143.984 146.982 150.841C147.347 154.108 151.237 163.244 148.56 165.748ZM76.9947 47.8642C73.8641 54.5613 73.7483 61.65 73.9186 69.2294C56.276 36.0199 84.019 4.62617 118.262 7.04475C154.964 9.63365 178.064 35.6656 165.415 72.3599C165.589 62.9036 164.414 41.041 155.942 34.6403C146.144 27.2415 134.487 38.1457 125.109 38.6941C119.696 39.0075 113.82 34.705 108.751 33.1857C103.16 31.5098 96.9163 30.2529 91.0468 30.4504C82.9289 30.7264 86.9078 31.0363 83.7703 34.8584C81.8592 37.1884 78.3403 44.9858 76.9947 47.8642ZM77.3898 94.9788C74.0685 91.0376 69.1255 85.1886 69.5548 79.6054C69.6399 79.2069 69.7455 78.8186 69.8784 78.4371C69.9908 78.2157 70.11 78.0044 70.2429 77.7966C70.2838 77.7557 70.3247 77.7149 70.3656 77.674C70.3792 77.674 70.3928 77.6775 70.4064 77.6775C71.8678 77.9909 73.4996 79.1285 74.5011 80.2152C74.8213 80.6955 75.0496 81.2337 75.2744 81.7685C75.7752 86.541 76.62 91.1227 77.9826 95.7248C77.785 95.4762 77.5942 95.2207 77.3898 94.9788ZM170.123 76.6963C170.276 76.4102 170.379 76.1037 170.505 75.8039C170.586 75.93 170.661 76.056 170.73 76.1888C173.288 83.7239 165.497 91.7119 160.946 96.8795C161.266 95.5748 161.511 94.2566 161.692 92.9247C163.715 92.2263 166.189 82.3 167.081 79.9973C168.314 79.098 169.329 78.001 170.123 76.6963ZM83.1844 157.242C83.0379 157.559 82.8676 157.862 82.7041 158.168C82.4622 157.872 82.2203 157.576 81.9819 157.279C82.4009 157.225 82.8233 157.17 83.2423 157.106C83.2218 157.153 83.2014 157.198 83.1844 157.242ZM235.962 238.68C235.134 222.189 233.57 202.963 221.903 190.117C209.99 176.996 190.535 176.822 175.826 168.238C169.561 164.583 158.742 158.509 154.882 152.241C150.103 144.485 152.235 130.304 154.276 122.21C158.595 105.079 177.696 92.785 174.286 75.126C171.036 58.322 177.532 42.2674 168.457 25.8176C159.215 9.06133 140.241 1.97591 122.087 0.333984C103.971 -1.3045 85.7598 2.87523 73.9049 17.557C61.5119 32.8996 60.4967 55.3652 71.5169 71.791C53.4384 76.7985 74.5386 98.5931 78.8036 104.531C88.451 117.949 91.3023 135.785 85.1739 151.335C63.3992 162.369 34.2458 171.801 17.0427 189.675C11.4287 195.51 -11.3441 246.586 7.04786 245.884C14.1608 245.612 11.0744 221.998 11.7694 217.897C13.459 207.926 18.0409 198.872 25.5728 192.039C40.783 178.239 63.1437 175.207 77.1685 159.783C85.1773 168.776 104.826 195.421 117.938 195.033C131.646 194.628 150.065 172.755 158.439 163.465C168.049 172.397 179.423 178.91 191.789 183.199C202.567 186.936 213.403 188.939 220.118 199.158C227.391 210.219 226.362 223.742 227.895 236.275C229.023 245.506 236.602 251.42 235.962 238.68Z" fill="#879194"/>
</svg>
