<svg width="856" height="590" viewBox="0 0 856 590" fill="none" xmlns="http://www.w3.org/2000/svg">
<g clip-path="url(#clip0_300_969)">
<g opacity="0.2">
<mask id="path-1-inside-1_300_969" fill="white">
<path d="M619.055 200.646L800.028 305.131L801.195 514.111L620.222 409.625L619.055 200.646Z"/>
</mask>
<path d="M619.055 200.646L619.049 199.646L618.183 199.146L618.189 200.146L619.055 200.646ZM800.028 305.131L800.894 305.631L800.889 304.631L800.023 304.131L800.028 305.131ZM801.195 514.111L801.201 515.111L802.067 515.611L802.061 514.611L801.195 514.111ZM620.222 409.625L619.356 409.125L619.361 410.125L620.227 410.625L620.222 409.625ZM619.06 201.646L800.034 306.131L800.023 304.131L619.049 199.646L619.06 201.646ZM799.162 304.631L800.329 513.611L802.061 514.611L800.894 305.631L799.162 304.631ZM801.19 513.111L620.216 408.625L620.227 410.625L801.201 515.111L801.19 513.111ZM621.088 410.125L619.921 201.146L618.189 200.146L619.356 409.125L621.088 410.125Z" fill="#DBDBDD" mask="url(#path-1-inside-1_300_969)"/>
<mask id="path-3-inside-2_300_969" fill="white">
<path d="M978.055 203.209L978.055 409.818L799.726 514.109L799.726 307.499L978.055 203.209Z"/>
</mask>
<path d="M978.055 409.818L978.055 410.818L978.918 410.314L978.918 409.314L978.055 409.818ZM977.191 203.714L977.191 410.323L978.918 409.314L978.918 202.704L977.191 203.714ZM978.055 408.818L799.726 513.109L799.726 515.109L978.055 410.818L978.055 408.818Z" fill="#DBDBDD" mask="url(#path-3-inside-2_300_969)"/>
<mask id="path-5-inside-3_300_969" fill="white">
<path d="M978.213 203.221L797.697 99.0001L619 200.845L799.516 305.065L978.213 203.221Z"/>
</mask>
<path d="M978.213 203.221L979.082 202.726L979.948 203.226L979.079 203.721L978.213 203.221ZM797.697 99.0001L796.831 98.5001L797.7 98.0049L798.566 98.5049L797.697 99.0001ZM977.344 203.716L796.829 99.4952L798.566 98.5049L979.082 202.726L977.344 203.716ZM798.564 99.5001L619.866 201.345L618.134 200.345L796.831 98.5001L798.564 99.5001ZM798.65 304.565L977.347 202.721L979.079 203.721L800.382 305.565L798.65 304.565Z" fill="#DBDBDD" mask="url(#path-5-inside-3_300_969)"/>
<mask id="path-7-inside-4_300_969" fill="white">
<path d="M244.91 414.68L353.146 477.17L353.495 539.631L245.259 477.141L244.91 414.68Z"/>
</mask>
<path d="M244.91 414.68L244.905 413.68L244.039 413.18L244.044 414.18L244.91 414.68ZM353.146 477.17L354.012 477.67L354.007 476.67L353.141 476.17L353.146 477.17ZM353.495 539.631L353.501 540.631L354.367 541.131L354.361 540.131L353.495 539.631ZM245.259 477.141L244.393 476.641L244.399 477.641L245.265 478.141L245.259 477.141ZM244.916 415.68L353.152 478.17L353.141 476.17L244.905 413.68L244.916 415.68ZM352.28 476.67L352.629 539.131L354.361 540.131L354.012 477.67L352.28 476.67ZM353.49 538.631L245.253 476.141L245.265 478.141L353.501 540.631L353.49 538.631ZM246.125 477.641L245.776 415.18L244.044 414.18L244.393 476.641L246.125 477.641Z" fill="#969696" mask="url(#path-7-inside-4_300_969)"/>
<mask id="path-9-inside-5_300_969" fill="white">
<path d="M607.369 414.68L499.133 477.17L498.784 539.631L607.02 477.141L607.369 414.68Z"/>
</mask>
<path d="M607.369 414.68L499.133 477.17L498.784 539.631L607.02 477.141L607.369 414.68Z" fill="#F0F0F0"/>
<path d="M607.369 414.68L607.375 413.68L608.241 413.18L608.235 414.18L607.369 414.68ZM499.133 477.17L498.267 477.67L498.272 476.67L499.138 476.17L499.133 477.17ZM498.784 539.631L498.778 540.631L497.912 541.131L497.918 540.131L498.784 539.631ZM607.02 477.141L607.886 476.641L607.881 477.641L607.015 478.141L607.02 477.141ZM607.364 415.68L499.127 478.17L499.138 476.17L607.375 413.68L607.364 415.68ZM499.999 476.67L499.65 539.131L497.918 540.131L498.267 477.67L499.999 476.67ZM498.79 538.631L607.026 476.141L607.015 478.141L498.778 540.631L498.79 538.631ZM606.154 477.641L606.503 415.18L608.235 414.18L607.886 476.641L606.154 477.641Z" fill="#969696" mask="url(#path-9-inside-5_300_969)"/>
<mask id="path-11-inside-6_300_969" fill="white">
<path d="M426.291 730.13L426.291 605.15L372.373 573.617L372.373 698.598L426.291 730.13Z"/>
</mask>
<path d="M426.291 730.13L427.154 730.635L427.154 731.635L426.291 731.13L426.291 730.13ZM426.291 605.15L426.291 604.15L427.154 604.655L427.154 605.655L426.291 605.15ZM372.373 573.617L371.51 573.112L371.51 572.112L372.373 572.617L372.373 573.617ZM372.373 698.598L372.373 699.598L371.51 699.093L371.51 698.093L372.373 698.598ZM425.428 729.625L425.428 604.645L427.154 605.655L427.154 730.635L425.428 729.625ZM426.291 606.15L372.373 574.617L372.373 572.617L426.291 604.15L426.291 606.15ZM373.236 574.122L373.236 699.103L371.51 698.093L371.51 573.112L373.236 574.122ZM372.373 697.598L426.291 729.13L426.291 731.13L372.373 699.598L372.373 697.598Z" fill="#969696" mask="url(#path-11-inside-6_300_969)"/>
<mask id="path-13-inside-7_300_969" fill="white">
<path d="M245.281 561.999L299.371 593.227L299.72 655.688L245.63 624.459L245.281 561.999Z"/>
</mask>
<path d="M245.281 561.999L245.276 560.999L244.41 560.499L244.415 561.499L245.281 561.999ZM299.371 593.227L300.237 593.727L300.232 592.727L299.366 592.227L299.371 593.227ZM299.72 655.688L299.726 656.688L300.592 657.188L300.586 656.188L299.72 655.688ZM245.63 624.459L244.764 623.959L244.77 624.959L245.636 625.459L245.63 624.459ZM245.287 562.999L299.377 594.227L299.366 592.227L245.276 560.999L245.287 562.999ZM298.505 592.727L298.854 655.188L300.586 656.188L300.237 593.727L298.505 592.727ZM299.715 654.688L245.625 623.459L245.636 625.459L299.726 656.688L299.715 654.688ZM246.496 624.959L246.147 562.499L244.415 561.499L244.764 623.959L246.496 624.959Z" fill="#969696" mask="url(#path-13-inside-7_300_969)"/>
<mask id="path-15-inside-8_300_969" fill="white">
<path d="M500.281 561.999L554.371 593.227L554.72 655.688L500.63 624.459L500.281 561.999Z"/>
</mask>
<path d="M500.281 561.999L500.276 560.999L499.41 560.499L499.415 561.499L500.281 561.999ZM554.371 593.227L555.237 593.727L555.232 592.727L554.366 592.227L554.371 593.227ZM554.72 655.688L554.726 656.688L555.592 657.188L555.586 656.188L554.72 655.688ZM500.63 624.459L499.764 623.959L499.77 624.959L500.636 625.459L500.63 624.459ZM500.287 562.999L554.377 594.227L554.366 592.227L500.276 560.999L500.287 562.999ZM553.505 592.727L553.854 655.188L555.586 656.188L555.237 593.727L553.505 592.727ZM554.715 654.688L500.625 623.459L500.636 625.459L554.726 656.688L554.715 654.688ZM501.496 624.959L501.147 562.499L499.415 561.499L499.764 623.959L501.496 624.959Z" fill="#969696" mask="url(#path-15-inside-8_300_969)"/>
<mask id="path-17-inside-9_300_969" fill="white">
<path d="M372.281 341.999L426.371 373.228L426.72 435.688L372.63 404.459L372.281 341.999Z"/>
</mask>
<path d="M372.281 341.999L372.276 340.999L371.41 340.499L371.415 341.499L372.281 341.999ZM426.371 373.228L427.237 373.728L427.232 372.728L426.366 372.228L426.371 373.228ZM426.72 435.688L426.726 436.688L427.592 437.188L427.586 436.188L426.72 435.688ZM372.63 404.459L371.764 403.959L371.77 404.959L372.636 405.459L372.63 404.459ZM372.287 342.999L426.377 374.228L426.366 372.228L372.276 340.999L372.287 342.999ZM425.505 372.728L425.854 435.188L427.586 436.188L427.237 373.728L425.505 372.728ZM426.715 434.688L372.625 403.459L372.636 405.459L426.726 436.688L426.715 434.688ZM373.496 404.959L373.147 342.499L371.415 341.499L371.764 403.959L373.496 404.959Z" fill="#969696" mask="url(#path-17-inside-9_300_969)"/>
<g opacity="0.3">
<mask id="path-19-inside-10_300_969" fill="white">
<path d="M321.082 458.697L353.306 477.302L353.407 495.411L321.183 476.806L321.082 458.697Z"/>
</mask>
<path d="M353.407 495.411L353.413 496.411L354.279 496.911L354.273 495.911L353.407 495.411ZM321.183 476.806L320.317 476.306L320.323 477.306L321.189 477.806L321.183 476.806ZM352.44 476.802L352.541 494.911L354.273 495.911L354.172 477.802L352.44 476.802ZM353.402 494.411L321.178 475.806L321.189 477.806L353.413 496.411L353.402 494.411ZM322.049 477.306L321.948 459.197L320.216 458.197L320.317 476.306L322.049 477.306Z" fill="#969696" mask="url(#path-19-inside-10_300_969)"/>
</g>
<g opacity="0.3">
<mask id="path-21-inside-11_300_969" fill="white">
<path d="M530.918 458.697L498.694 477.302L498.593 495.411L530.817 476.806L530.918 458.697Z"/>
</mask>
<path d="M498.593 495.411L498.587 496.411L497.721 496.911L497.727 495.911L498.593 495.411ZM530.817 476.806L531.683 476.306L531.677 477.306L530.811 477.806L530.817 476.806ZM499.56 476.802L499.459 494.911L497.727 495.911L497.828 477.802L499.56 476.802ZM498.598 494.411L530.822 475.806L530.811 477.806L498.587 496.411L498.598 494.411ZM529.951 477.306L530.052 459.197L531.784 458.197L531.683 476.306L529.951 477.306Z" fill="#969696" mask="url(#path-21-inside-11_300_969)"/>
</g>
<g opacity="0.3">
<mask id="path-23-inside-12_300_969" fill="white">
<path d="M426.408 348.208L426.408 257.892L441.063 249.322L441.063 339.638L426.408 348.208Z"/>
</mask>
<path d="M441.063 249.322L441.927 248.817L441.927 247.817L441.063 248.322L441.063 249.322ZM441.063 339.638L441.063 340.638L441.927 340.133L441.927 339.133L441.063 339.638ZM426.408 258.892L441.063 250.322L441.063 248.322L426.408 256.892L426.408 258.892ZM440.2 249.826L440.2 340.143L441.927 339.133L441.927 248.817L440.2 249.826ZM441.063 338.638L426.408 347.208L426.408 349.208L441.063 340.638L441.063 338.638Z" fill="#969696" mask="url(#path-23-inside-12_300_969)"/>
</g>
<mask id="path-25-inside-13_300_969" fill="white">
<path d="M146.141 505.073L201.988 537.317L202.164 568.701L146.316 536.458L146.141 505.073Z"/>
</mask>
<path d="M202.164 568.701L202.169 569.701L203.035 570.201L203.03 569.201L202.164 568.701ZM146.316 536.458L145.45 535.958L145.455 536.958L146.321 537.458L146.316 536.458ZM201.122 536.817L201.298 568.201L203.03 569.201L202.854 537.817L201.122 536.817ZM202.158 567.701L146.31 535.458L146.321 537.458L202.169 569.701L202.158 567.701ZM147.182 536.958L147.007 505.573L145.275 504.573L145.45 535.958L147.182 536.958Z" fill="#969696" mask="url(#path-25-inside-13_300_969)"/>
<mask id="path-27-inside-14_300_969" fill="white">
<path d="M273.141 284.073L328.988 316.317L329.164 347.701L273.316 315.458L273.141 284.073Z"/>
</mask>
<path d="M329.164 347.701L329.169 348.701L330.035 349.201L330.03 348.201L329.164 347.701ZM273.316 315.458L272.45 314.958L272.455 315.958L273.321 316.458L273.316 315.458ZM328.122 315.817L328.298 347.201L330.03 348.201L329.854 316.817L328.122 315.817ZM329.158 346.701L273.31 314.458L273.321 316.458L329.169 348.701L329.158 346.701ZM274.182 315.958L274.007 284.573L272.275 283.573L272.45 314.958L274.182 315.958Z" fill="#969696" mask="url(#path-27-inside-14_300_969)"/>
<mask id="path-29-inside-15_300_969" fill="white">
<path d="M789.141 586.073L898.538 649.234L898.714 680.619L789.316 617.458L789.141 586.073Z"/>
</mask>
<path d="M898.714 680.619L898.719 681.619L899.585 682.119L899.58 681.119L898.714 680.619ZM789.316 617.458L788.45 616.958L788.455 617.958L789.321 618.458L789.316 617.458ZM897.672 648.734L897.848 680.119L899.58 681.119L899.404 649.734L897.672 648.734ZM898.708 679.619L789.31 616.458L789.321 618.458L898.719 681.619L898.708 679.619ZM790.182 617.958L790.007 586.573L788.275 585.573L788.45 616.958L790.182 617.958Z" fill="#DBDBDD" mask="url(#path-29-inside-15_300_969)"/>
<mask id="path-31-inside-16_300_969" fill="white">
<path d="M86.1406 187.073L195.538 250.234L195.714 281.619L86.3159 218.458L86.1406 187.073Z"/>
</mask>
<path d="M195.714 281.619L195.719 282.619L196.585 283.119L196.58 282.119L195.714 281.619ZM86.3159 218.458L85.4499 217.958L85.4555 218.958L86.3215 219.458L86.3159 218.458ZM194.672 249.734L194.848 281.119L196.58 282.119L196.404 250.734L194.672 249.734ZM195.708 280.619L86.3103 217.458L86.3215 219.458L195.719 282.619L195.708 280.619ZM87.1819 218.958L87.0067 187.573L85.2746 186.573L85.4499 217.958L87.1819 218.958Z" fill="#DBDBDD" mask="url(#path-31-inside-16_300_969)"/>
<mask id="path-33-inside-17_300_969" fill="white">
<path d="M399.141 212.073L426.311 227.76L426.487 259.145L399.316 243.458L399.141 212.073Z"/>
</mask>
<path d="M426.487 259.145L426.492 260.145L427.358 260.645L427.353 259.645L426.487 259.145ZM399.316 243.458L398.45 242.958L398.455 243.958L399.321 244.458L399.316 243.458ZM425.445 227.26L425.621 258.645L427.353 259.645L427.177 228.26L425.445 227.26ZM426.481 258.145L399.31 242.458L399.321 244.458L426.492 260.145L426.481 258.145ZM400.182 243.958L400.007 212.573L398.275 211.573L398.45 242.958L400.182 243.958Z" fill="#969696" mask="url(#path-33-inside-17_300_969)"/>
<mask id="path-35-inside-18_300_969" fill="white">
<path d="M581.047 285.073L525.199 317.317L525.024 348.701L580.872 316.458L581.047 285.073Z"/>
</mask>
<path d="M581.047 285.073L525.199 317.317L525.024 348.701L580.872 316.458L581.047 285.073Z" fill="#F0F0F0"/>
<path d="M525.024 348.701L525.018 349.701L524.152 350.201L524.158 349.201L525.024 348.701ZM580.872 316.458L581.738 315.958L581.732 316.958L580.866 317.458L580.872 316.458ZM526.065 316.817L525.89 348.201L524.158 349.201L524.333 317.817L526.065 316.817ZM525.029 347.701L580.877 315.458L580.866 317.458L525.018 349.701L525.029 347.701ZM580.006 316.958L580.181 285.573L581.913 284.573L581.738 315.958L580.006 316.958Z" fill="#969696" mask="url(#path-35-inside-18_300_969)"/>
<mask id="path-37-inside-19_300_969" fill="white">
<path d="M91 325.68L201.223 389.317L201.398 420.701L91.1753 357.064L91 325.68Z"/>
</mask>
<path d="M201.398 420.701L201.404 421.701L202.27 422.201L202.264 421.201L201.398 420.701ZM91.1753 357.064L90.3093 356.564L90.3148 357.564L91.1809 358.064L91.1753 357.064ZM200.357 388.817L200.532 420.201L202.264 421.201L202.089 389.817L200.357 388.817ZM201.393 419.701L91.1697 356.064L91.1809 358.064L201.404 421.701L201.393 419.701ZM92.0413 357.564L91.866 326.18L90.134 325.18L90.3093 356.564L92.0413 357.564Z" fill="#969696" mask="url(#path-37-inside-19_300_969)"/>
<mask id="path-39-inside-20_300_969" fill="white">
<path d="M761.006 325.913L651.187 389.317L651.012 420.702L760.831 357.298L761.006 325.913Z"/>
</mask>
<path d="M761.006 325.913L651.187 389.317L651.012 420.702L760.831 357.298L761.006 325.913Z" fill="#F0F0F0"/>
<path d="M651.012 420.702L651.006 421.702L650.14 422.202L650.146 421.202L651.012 420.702ZM760.831 357.298L761.697 356.798L761.691 357.797L760.825 358.297L760.831 357.298ZM652.053 388.817L651.878 420.202L650.146 421.202L650.321 389.817L652.053 388.817ZM651.017 419.702L760.836 356.298L760.825 358.297L651.006 421.702L651.017 419.702ZM759.965 357.798L760.14 326.413L761.872 325.413L761.697 356.798L759.965 357.798Z" fill="#969696" mask="url(#path-39-inside-20_300_969)"/>
<mask id="path-41-inside-21_300_969" fill="white">
<path d="M706.047 506.073L650.199 538.317L650.024 569.701L705.872 537.458L706.047 506.073Z"/>
</mask>
<path d="M706.047 506.073L650.199 538.317L650.024 569.701L705.872 537.458L706.047 506.073Z" fill="#F0F0F0"/>
<path d="M650.024 569.701L650.018 570.701L649.152 571.201L649.158 570.201L650.024 569.701ZM705.872 537.458L706.738 536.958L706.732 537.958L705.866 538.458L705.872 537.458ZM651.065 537.817L650.89 569.201L649.158 570.201L649.333 538.817L651.065 537.817ZM650.029 568.701L705.877 536.458L705.866 538.458L650.018 570.701L650.029 568.701ZM705.006 537.958L705.181 506.573L706.913 505.573L706.738 536.958L705.006 537.958Z" fill="#969696" mask="url(#path-41-inside-21_300_969)"/>
<mask id="path-43-inside-22_300_969" fill="white">
<path d="M445.279 447.366L445.279 508.194L499.279 539.774L499.279 478.947L445.279 447.366Z"/>
</mask>
<path d="M445.279 508.194L445.279 509.194L444.416 508.689L444.416 507.689L445.279 508.194ZM446.143 447.871L446.143 508.699L444.416 507.689L444.416 446.861L446.143 447.871ZM445.279 507.194L499.279 538.774L499.279 540.774L445.279 509.194L445.279 507.194Z" fill="#969696" mask="url(#path-43-inside-22_300_969)"/>
<mask id="path-45-inside-23_300_969" fill="white">
<path d="M407 447.366L407 508.194L353 539.774L353 478.947L407 447.366Z"/>
</mask>
<path d="M407 447.366L407 508.194L353 539.774L353 478.947L407 447.366Z" fill="#F0F0F0"/>
<path d="M407 508.194L407 509.194L407.863 508.689L407.863 507.689L407 508.194ZM406.137 447.871L406.137 508.699L407.863 507.689L407.863 446.861L406.137 447.871ZM407 507.194L353 538.774L353 540.774L407 509.194L407 507.194Z" fill="#969696" mask="url(#path-45-inside-23_300_969)"/>
<mask id="path-47-inside-24_300_969" fill="white">
<path d="M479.027 573.414L426.349 543L371.999 573.975L424.678 604.389L479.027 573.414Z"/>
</mask>
<path d="M426.349 543L425.483 542.5L426.352 542.005L427.218 542.505L426.349 543ZM478.159 573.909L425.48 543.495L427.218 542.505L479.896 572.919L478.159 573.909ZM427.215 543.5L372.865 574.475L371.133 573.475L425.483 542.5L427.215 543.5Z" fill="#969696" mask="url(#path-47-inside-24_300_969)"/>
<mask id="path-49-inside-25_300_969" fill="white">
<path d="M353.281 563L353.281 623.828L299.281 655.408L299.281 594.58L353.281 563Z"/>
</mask>
<path d="M353.281 563L353.281 623.828L299.281 655.408L299.281 594.58L353.281 563Z" fill="#F0F0F0"/>
<path d="M353.281 623.828L353.281 624.828L354.144 624.323L354.144 623.323L353.281 623.828ZM352.418 563.505L352.418 624.333L354.144 623.323L354.144 562.495L352.418 563.505ZM353.281 622.828L299.281 654.408L299.281 656.408L353.281 624.828L353.281 622.828Z" fill="#969696" mask="url(#path-49-inside-25_300_969)"/>
<mask id="path-51-inside-26_300_969" fill="white">
<path d="M608.281 563L608.281 623.828L554.281 655.408L554.281 594.58L608.281 563Z"/>
</mask>
<path d="M608.281 563L608.281 623.828L554.281 655.408L554.281 594.58L608.281 563Z" fill="#F0F0F0"/>
<path d="M608.281 623.828L608.281 624.828L609.144 624.323L609.144 623.323L608.281 623.828ZM607.418 563.505L607.418 624.333L609.144 623.323L609.144 562.495L607.418 563.505ZM608.281 622.828L554.281 654.408L554.281 656.408L608.281 624.828L608.281 622.828Z" fill="#969696" mask="url(#path-51-inside-26_300_969)"/>
<mask id="path-53-inside-27_300_969" fill="white">
<path d="M480.281 343L480.281 403.828L426.281 435.408L426.281 374.58L480.281 343Z"/>
</mask>
<path d="M480.281 343L480.281 403.828L426.281 435.408L426.281 374.58L480.281 343Z" fill="#F0F0F0"/>
<path d="M480.281 403.828L480.281 404.828L481.144 404.323L481.144 403.323L480.281 403.828ZM479.418 343.505L479.418 404.333L481.144 403.323L481.144 342.495L479.418 343.505ZM480.281 402.828L426.281 434.408L426.281 436.408L480.281 404.828L480.281 402.828Z" fill="#969696" mask="url(#path-53-inside-27_300_969)"/>
<mask id="path-55-inside-28_300_969" fill="white">
<path d="M445 447.217L553.488 384.582L607.822 415.549L499.334 478.184L445 447.217Z"/>
</mask>
<path d="M445 447.217L444.131 446.722L443.265 447.222L444.134 447.717L445 447.217ZM553.488 384.582L554.354 384.082L553.485 383.587L552.619 384.087L553.488 384.582ZM445.869 447.712L554.356 385.077L552.619 384.087L444.131 446.722L445.869 447.712ZM552.622 385.082L606.956 416.049L608.688 415.049L554.354 384.082L552.622 385.082ZM500.201 477.684L445.866 446.717L444.134 447.717L498.468 478.684L500.201 477.684Z" fill="#969696" mask="url(#path-55-inside-28_300_969)"/>
<mask id="path-57-inside-29_300_969" fill="white">
<path d="M356.049 301.341L356.049 331.905L328.916 347.773L328.916 317.209L356.049 301.341Z"/>
</mask>
<path d="M356.049 301.341L356.049 331.905L328.916 347.773L328.916 317.209L356.049 301.341Z" fill="#F0F0F0"/>
<path d="M356.049 331.905L356.049 332.905L356.912 332.401L356.912 331.401L356.049 331.905ZM355.186 301.846L355.186 332.41L356.912 331.401L356.912 300.836L355.186 301.846ZM356.049 330.905L328.916 346.773L328.916 348.773L356.049 332.905L356.049 330.905Z" fill="#969696" mask="url(#path-57-inside-29_300_969)"/>
<mask id="path-59-inside-30_300_969" fill="white">
<path d="M222.133 235L222.133 265.564L195 281.432L195 250.868L222.133 235Z"/>
</mask>
<path d="M222.133 265.564L222.133 266.564L222.996 266.059L222.996 265.059L222.133 265.564ZM221.27 235.505L221.27 266.069L222.996 265.059L222.996 234.495L221.27 235.505ZM222.133 264.564L195 280.432L195 282.432L222.133 266.564L222.133 264.564Z" fill="#DBDBDD" mask="url(#path-59-inside-30_300_969)"/>
<mask id="path-61-inside-31_300_969" fill="white">
<path d="M453.133 212.326L453.133 243.564L426 259.432L426 228.194L453.133 212.326Z"/>
</mask>
<path d="M453.133 212.326L453.133 243.564L426 259.432L426 228.194L453.133 212.326Z" fill="#F0F0F0"/>
<path d="M453.133 243.564L453.133 244.564L453.996 244.059L453.996 243.059L453.133 243.564ZM452.27 212.831L452.27 244.069L453.996 243.059L453.996 211.821L452.27 212.831ZM453.133 242.564L426 258.432L426 260.432L453.133 244.564L453.133 242.564Z" fill="#969696" mask="url(#path-61-inside-31_300_969)"/>
<mask id="path-63-inside-32_300_969" fill="white">
<path d="M228.049 374.341L228.049 404.905L200.916 420.773L200.916 390.209L228.049 374.341Z"/>
</mask>
<path d="M228.049 374.341L228.049 404.905L200.916 420.773L200.916 390.209L228.049 374.341Z" fill="#F0F0F0"/>
<path d="M228.049 404.905L228.049 405.905L228.912 405.401L228.912 404.401L228.049 404.905ZM227.186 374.846L227.186 405.41L228.912 404.401L228.912 373.836L227.186 374.846ZM228.049 403.905L200.916 419.773L200.916 421.773L228.049 405.905L228.049 403.905Z" fill="#969696" mask="url(#path-63-inside-32_300_969)"/>
<mask id="path-65-inside-33_300_969" fill="white">
<path d="M624.361 374.341L624.361 404.905L651.495 420.773L651.495 390.209L624.361 374.341Z"/>
</mask>
<path d="M624.361 404.905L624.361 405.905L623.498 405.401L623.498 404.401L624.361 404.905ZM625.225 374.846L625.225 405.41L623.498 404.401L623.498 373.836L625.225 374.846ZM624.361 403.905L651.495 419.773L651.495 421.773L624.361 405.905L624.361 403.905Z" fill="#969696" mask="url(#path-65-inside-33_300_969)"/>
<g opacity="0.3">
<mask id="path-67-inside-34_300_969" fill="white">
<path d="M368.918 468.661L368.918 486.297L353.262 495.452L353.262 477.817L368.918 468.661Z"/>
</mask>
<path d="M368.918 486.297L368.918 487.297L369.781 486.792L369.781 485.792L368.918 486.297ZM368.055 469.166L368.055 486.801L369.781 485.792L369.781 468.156L368.055 469.166ZM368.918 485.297L353.262 494.452L353.262 496.452L368.918 487.297L368.918 485.297Z" fill="#969696" mask="url(#path-67-inside-34_300_969)"/>
</g>
<g opacity="0.3">
<mask id="path-69-inside-35_300_969" fill="white">
<path d="M483.082 468.661L483.082 486.297L498.738 495.452L498.738 477.817L483.082 468.661Z"/>
</mask>
<path d="M483.082 486.297L483.082 487.297L482.219 486.792L482.219 485.792L483.082 486.297ZM483.945 469.166L483.945 486.801L482.219 485.792L482.219 468.156L483.945 469.166ZM483.082 485.297L498.738 494.452L498.738 496.452L483.082 487.297L483.082 485.297Z" fill="#969696" mask="url(#path-69-inside-35_300_969)"/>
</g>
<g opacity="0.3">
<mask id="path-71-inside-36_300_969" fill="white">
<path d="M412.074 249.267L426.392 241L441.165 249.419L426.847 257.686L412.074 249.267Z"/>
</mask>
<path d="M426.392 241L427.258 240.5L426.39 240.005L425.524 240.505L426.392 241ZM412.943 249.762L427.261 241.495L425.524 240.505L411.205 248.771L412.943 249.762ZM425.526 241.5L440.299 249.919L442.031 248.919L427.258 240.5L425.526 241.5Z" fill="#969696" mask="url(#path-71-inside-36_300_969)"/>
</g>
<g opacity="0.3">
<mask id="path-73-inside-37_300_969" fill="white">
<path d="M412.074 339.267L426.392 331L441.165 339.419L426.847 347.686L412.074 339.267Z"/>
</mask>
<path d="M426.392 331L427.258 330.5L426.39 330.005L425.524 330.505L426.392 331ZM412.943 339.762L427.261 331.495L425.524 330.505L411.205 338.771L412.943 339.762ZM425.526 331.5L440.299 339.919L442.031 338.919L427.258 330.5L425.526 331.5Z" fill="#969696" mask="url(#path-73-inside-37_300_969)"/>
</g>
<g opacity="0.3">
<mask id="path-75-inside-38_300_969" fill="white">
<path d="M441.029 595.818L425.757 587L409.999 595.98L425.272 604.798L441.029 595.818Z"/>
</mask>
<path d="M425.757 587L424.891 586.5L425.759 586.005L426.625 586.505L425.757 587ZM440.16 596.313L424.888 587.495L426.625 586.505L441.898 595.322L440.16 596.313ZM426.623 587.5L410.865 596.48L409.133 595.48L424.891 586.5L426.623 587.5Z" fill="#969696" mask="url(#path-75-inside-38_300_969)"/>
</g>
<mask id="path-77-inside-39_300_969" fill="white">
<path d="M229.049 522.341L229.049 552.905L201.916 568.773L201.916 538.209L229.049 522.341Z"/>
</mask>
<path d="M229.049 522.341L229.049 552.905L201.916 568.773L201.916 538.209L229.049 522.341Z" fill="#F0F0F0"/>
<path d="M229.049 552.905L229.049 553.905L229.912 553.401L229.912 552.401L229.049 552.905ZM228.186 522.846L228.186 553.41L229.912 552.401L229.912 521.836L228.186 522.846ZM229.049 551.905L201.916 567.773L201.916 569.773L229.049 553.905L229.049 551.905Z" fill="#969696" mask="url(#path-77-inside-39_300_969)"/>
<mask id="path-79-inside-40_300_969" fill="white">
<path d="M498.141 302.341L498.141 332.905L525.274 348.773L525.274 318.209L498.141 302.341Z"/>
</mask>
<path d="M498.141 332.905L498.141 333.905L497.277 333.401L497.277 332.401L498.141 332.905ZM499.004 302.846L499.004 333.41L497.277 332.401L497.277 301.836L499.004 302.846ZM498.141 331.905L525.274 347.773L525.274 349.773L498.141 333.905L498.141 331.905Z" fill="#969696" mask="url(#path-79-inside-40_300_969)"/>
<mask id="path-81-inside-41_300_969" fill="white">
<path d="M623.141 523.341L623.141 553.905L650.274 569.773L650.274 539.209L623.141 523.341Z"/>
</mask>
<path d="M623.141 553.905L623.141 554.905L622.277 554.401L622.277 553.401L623.141 553.905ZM624.004 523.846L624.004 554.41L622.277 553.401L622.277 522.836L624.004 523.846ZM623.141 552.905L650.274 568.773L650.274 570.773L623.141 554.905L623.141 552.905Z" fill="#969696" mask="url(#path-81-inside-41_300_969)"/>
<mask id="path-83-inside-42_300_969" fill="white">
<path d="M407.279 447.217L298.792 384.582L244.457 415.549L352.945 478.184L407.279 447.217Z"/>
</mask>
<path d="M407.279 447.217L408.148 446.722L409.014 447.222L408.145 447.717L407.279 447.217ZM298.792 384.582L297.926 384.082L298.795 383.587L299.661 384.087L298.792 384.582ZM406.41 447.712L297.923 385.077L299.661 384.087L408.148 446.722L406.41 447.712ZM299.658 385.082L245.323 416.049L243.591 415.049L297.926 384.082L299.658 385.082ZM352.079 477.684L406.413 446.717L408.145 447.717L353.811 478.684L352.079 477.684Z" fill="#969696" mask="url(#path-83-inside-42_300_969)"/>
<mask id="path-85-inside-43_300_969" fill="white">
<path d="M479.297 573.246L479.297 698.517L425.312 730.089L425.312 604.818L479.297 573.246Z"/>
</mask>
<path d="M479.297 573.246L479.297 698.517L425.312 730.089L425.312 604.818L479.297 573.246Z" fill="#F0F0F0"/>
<path d="M479.297 573.246L480.16 572.742L480.16 571.742L479.297 572.246L479.297 573.246ZM479.297 698.517L479.297 699.517L480.16 699.012L480.16 698.012L479.297 698.517ZM478.434 573.751L478.434 699.022L480.16 698.012L480.16 572.742L478.434 573.751ZM479.297 697.517L425.312 729.089L425.312 731.089L479.297 699.517L479.297 697.517ZM425.312 605.818L479.297 574.246L479.297 572.246L425.312 603.818L425.312 605.818Z" fill="#969696" mask="url(#path-85-inside-43_300_969)"/>
<mask id="path-87-inside-44_300_969" fill="white">
<path d="M353.494 563.269L299.334 532L244.999 562.966L299.16 594.236L353.494 563.269Z"/>
</mask>
<path d="M353.494 563.269L354.363 562.774L355.229 563.274L354.36 563.769L353.494 563.269ZM299.334 532L298.468 531.5L299.337 531.004L300.203 531.504L299.334 532ZM244.999 562.966L244.13 563.461L243.264 562.961L244.133 562.466L244.999 562.966ZM299.16 594.236L300.026 594.736L299.157 595.231L298.291 594.731L299.16 594.236ZM352.625 563.764L298.465 532.495L300.203 531.504L354.363 562.774L352.625 563.764ZM300.2 532.5L245.865 563.466L244.133 562.466L298.468 531.5L300.2 532.5ZM245.868 562.471L300.028 593.741L298.291 594.731L244.13 563.461L245.868 562.471ZM298.294 593.736L352.628 562.769L354.36 563.769L300.026 594.736L298.294 593.736Z" fill="#969696" mask="url(#path-87-inside-44_300_969)"/>
<mask id="path-89-inside-45_300_969" fill="white">
<path d="M608.496 563.269L554.336 532L500.001 562.966L554.162 594.236L608.496 563.269Z"/>
</mask>
<path d="M608.496 563.269L609.365 562.774L610.231 563.274L609.362 563.769L608.496 563.269ZM554.336 532L553.47 531.5L554.338 531.004L555.204 531.504L554.336 532ZM500.001 562.966L499.132 563.461L498.266 562.961L499.135 562.466L500.001 562.966ZM554.162 594.236L555.028 594.736L554.159 595.231L553.293 594.731L554.162 594.236ZM607.627 563.764L553.467 532.495L555.204 531.504L609.365 562.774L607.627 563.764ZM555.202 532.5L500.867 563.466L499.135 562.466L553.47 531.5L555.202 532.5ZM500.87 562.471L555.03 593.741L553.293 594.731L499.132 563.461L500.87 562.471ZM553.296 593.736L607.63 562.769L609.362 563.769L555.028 594.736L553.296 593.736Z" fill="#969696" mask="url(#path-89-inside-45_300_969)"/>
<mask id="path-91-inside-46_300_969" fill="white">
<path d="M356.188 301.266L300.3 269L272.999 284.56L328.886 316.826L356.188 301.266Z"/>
</mask>
<path d="M356.188 301.266L357.056 300.771L357.922 301.271L357.054 301.766L356.188 301.266ZM300.3 269L299.434 268.5L300.303 268.005L301.169 268.505L300.3 269ZM355.319 301.762L299.431 269.495L301.169 268.505L357.056 300.771L355.319 301.762ZM301.166 269.5L273.865 285.06L272.133 284.06L299.434 268.5L301.166 269.5ZM328.02 316.326L355.321 300.766L357.054 301.766L329.752 317.326L328.02 316.326Z" fill="#969696" mask="url(#path-91-inside-46_300_969)"/>
<mask id="path-93-inside-47_300_969" fill="white">
<path d="M925.443 634.013L816.302 571L789.001 586.56L898.142 649.573L925.443 634.013Z"/>
</mask>
<path d="M925.443 634.013L926.312 633.518L927.178 634.018L926.309 634.513L925.443 634.013ZM816.302 571L815.436 570.5L816.305 570.005L817.171 570.505L816.302 571ZM924.575 634.508L815.433 571.495L817.171 570.505L926.312 633.518L924.575 634.508ZM817.168 571.5L789.867 587.06L788.134 586.06L815.436 570.5L817.168 571.5ZM897.276 649.073L924.577 633.513L926.309 634.513L899.008 650.073L897.276 649.073Z" fill="#DBDBDD" mask="url(#path-93-inside-47_300_969)"/>
<mask id="path-95-inside-48_300_969" fill="white">
<path d="M222.443 235.013L113.302 172L86.0005 187.56L195.142 250.573L222.443 235.013Z"/>
</mask>
<path d="M222.443 235.013L223.312 234.518L224.178 235.018L223.309 235.513L222.443 235.013ZM113.302 172L112.436 171.5L113.305 171.005L114.171 171.505L113.302 172ZM221.575 235.508L112.433 172.495L114.171 171.505L223.312 234.518L221.575 235.508ZM114.168 172.5L86.8665 188.06L85.1345 187.06L112.436 171.5L114.168 172.5ZM194.276 250.073L221.577 234.513L223.309 235.513L196.008 251.073L194.276 250.073Z" fill="#DBDBDD" mask="url(#path-95-inside-48_300_969)"/>
<mask id="path-97-inside-49_300_969" fill="white">
<path d="M453.361 212.623L426.301 197L398.999 212.56L426.06 228.183L453.361 212.623Z"/>
</mask>
<path d="M453.361 212.623L454.23 212.128L455.096 212.628L454.227 213.123L453.361 212.623ZM426.301 197L425.435 196.5L426.304 196.005L427.17 196.505L426.301 197ZM398.999 212.56L398.131 213.055L397.265 212.555L398.133 212.06L398.999 212.56ZM426.06 228.183L426.926 228.683L426.057 229.178L425.191 228.678L426.06 228.183ZM452.493 213.118L425.432 197.495L427.17 196.505L454.23 212.128L452.493 213.118ZM427.167 197.5L399.866 213.06L398.133 212.06L425.435 196.5L427.167 197.5ZM399.868 212.064L426.929 227.688L425.191 228.678L398.131 213.055L399.868 212.064ZM425.194 227.683L452.495 212.123L454.227 213.123L426.926 228.683L425.194 227.683Z" fill="#969696" mask="url(#path-97-inside-49_300_969)"/>
<mask id="path-99-inside-50_300_969" fill="white">
<path d="M-7.85938 269.073L19.3114 284.76L19.4867 316.145L-7.68409 300.458L-7.85938 269.073Z"/>
</mask>
<path d="M19.4867 316.145L19.4922 317.145L20.3583 317.645L20.3527 316.645L19.4867 316.145ZM-7.68409 300.458L-8.55011 299.958L-8.54453 300.958L-7.6785 301.458L-7.68409 300.458ZM18.4453 284.26L18.6206 315.645L20.3527 316.645L20.1774 285.26L18.4453 284.26ZM19.4811 315.145L-7.68967 299.458L-7.6785 301.458L19.4922 317.145L19.4811 315.145ZM-6.81806 300.958L-6.99335 269.573L-8.7254 268.573L-8.55011 299.958L-6.81806 300.958Z" fill="#DBDBDD" mask="url(#path-99-inside-50_300_969)"/>
<mask id="path-101-inside-51_300_969" fill="white">
<path d="M46.1328 270L46.1328 300.564L18.9996 316.432L18.9996 285.868L46.1328 270Z"/>
</mask>
<path d="M46.1328 300.564L46.1328 301.564L46.996 301.059L46.996 300.059L46.1328 300.564ZM45.2696 270.505L45.2696 301.069L46.996 300.059L46.996 269.495L45.2696 270.505ZM46.1328 299.564L18.9996 315.432L18.9996 317.432L46.1328 301.564L46.1328 299.564Z" fill="#DBDBDD" mask="url(#path-101-inside-51_300_969)"/>
<mask id="path-103-inside-52_300_969" fill="white">
<path d="M46.3613 269.623L19.3008 254L-8.0005 269.56L19.06 285.183L46.3613 269.623Z"/>
</mask>
<path d="M46.3613 269.623L47.2301 269.128L48.0962 269.628L47.2274 270.123L46.3613 269.623ZM19.3008 254L18.4348 253.5L19.3036 253.005L20.1696 253.505L19.3008 254ZM-8.0005 269.56L-8.86931 270.055L-9.73533 269.555L-8.86652 269.06L-8.0005 269.56ZM19.06 285.183L19.9261 285.683L19.0573 286.178L18.1912 285.678L19.06 285.183ZM45.4925 270.118L18.432 254.495L20.1696 253.505L47.2301 269.128L45.4925 270.118ZM20.1668 254.5L-7.13448 270.06L-8.86652 269.06L18.4348 253.5L20.1668 254.5ZM-7.1317 269.064L19.9288 284.688L18.1912 285.678L-8.86931 270.055L-7.1317 269.064ZM18.194 284.683L45.4953 269.123L47.2274 270.123L19.9261 285.683L18.194 284.683Z" fill="#DBDBDD" mask="url(#path-103-inside-52_300_969)"/>
<mask id="path-105-inside-53_300_969" fill="white">
<path d="M480.494 343.269L426.334 312L371.999 342.966L426.16 374.236L480.494 343.269Z"/>
</mask>
<path d="M480.494 343.269L481.363 342.774L482.229 343.274L481.36 343.769L480.494 343.269ZM426.334 312L425.468 311.5L426.337 311.005L427.203 311.505L426.334 312ZM371.999 342.966L371.13 343.462L370.264 342.962L371.133 342.466L371.999 342.966ZM426.16 374.236L427.026 374.736L426.157 375.231L425.291 374.731L426.16 374.236ZM479.625 343.764L425.465 312.495L427.203 311.505L481.363 342.774L479.625 343.764ZM427.2 312.5L372.865 343.466L371.133 342.466L425.468 311.5L427.2 312.5ZM372.868 342.471L427.028 373.741L425.291 374.731L371.13 343.462L372.868 342.471ZM425.294 373.736L479.628 342.769L481.36 343.769L427.026 374.736L425.294 373.736Z" fill="#969696" mask="url(#path-105-inside-53_300_969)"/>
<g opacity="0.3">
<mask id="path-107-inside-54_300_969" fill="white">
<path d="M369 468.618L336.753 450L321 458.978L353.247 477.596L369 468.618Z"/>
</mask>
<path d="M336.753 450L335.887 449.5L336.756 449.005L337.622 449.505L336.753 450ZM368.131 469.113L335.884 450.495L337.622 449.505L369.869 468.123L368.131 469.113ZM337.619 450.5L321.866 459.478L320.134 458.478L335.887 449.5L337.619 450.5Z" fill="#969696" mask="url(#path-107-inside-54_300_969)"/>
</g>
<g opacity="0.3">
<mask id="path-109-inside-55_300_969" fill="white">
<path d="M483 468.618L515.247 450L531 458.978L498.753 477.596L483 468.618Z"/>
</mask>
<path d="M515.247 450L516.113 449.5L515.244 449.005L514.378 449.505L515.247 450ZM483.869 469.113L516.116 450.495L514.378 449.505L482.131 468.123L483.869 469.113ZM514.381 450.5L530.134 459.478L531.866 458.478L516.113 449.5L514.381 450.5Z" fill="#969696" mask="url(#path-109-inside-55_300_969)"/>
</g>
<g opacity="0.3">
<mask id="path-111-inside-56_300_969" fill="white">
<path d="M412 249.221L412 339.813L426.673 348.394L426.673 257.802L412 249.221Z"/>
</mask>
<path d="M412 339.813L412 340.813L411.137 340.308L411.137 339.308L412 339.813ZM412.863 249.726L412.863 340.317L411.137 339.308L411.137 248.716L412.863 249.726ZM412 338.813L426.673 347.394L426.673 349.394L412 340.813L412 338.813Z" fill="#969696" mask="url(#path-111-inside-56_300_969)"/>
</g>
<mask id="path-113-inside-57_300_969" fill="white">
<path d="M229.189 522.266L173.302 490L146.001 505.56L201.888 537.826L229.189 522.266Z"/>
</mask>
<path d="M229.189 522.266L230.058 521.771L230.924 522.271L230.055 522.766L229.189 522.266ZM173.302 490L172.436 489.5L173.305 489.005L174.171 489.505L173.302 490ZM228.321 522.762L172.433 490.495L174.171 489.505L230.058 521.771L228.321 522.762ZM174.168 490.5L146.867 506.06L145.135 505.06L172.436 489.5L174.168 490.5ZM201.022 537.326L228.323 521.766L230.055 522.766L202.754 538.326L201.022 537.326Z" fill="#969696" mask="url(#path-113-inside-57_300_969)"/>
<mask id="path-115-inside-58_300_969" fill="white">
<path d="M498 302.266L553.887 270L581.189 285.56L525.301 317.826L498 302.266Z"/>
</mask>
<path d="M498 302.266L497.131 301.771L496.265 302.271L497.134 302.766L498 302.266ZM553.887 270L554.753 269.5L553.885 269.005L553.019 269.505L553.887 270ZM498.869 302.762L554.756 270.495L553.019 269.505L497.131 301.771L498.869 302.762ZM553.021 270.5L580.323 286.06L582.055 285.06L554.753 269.5L553.021 270.5ZM526.167 317.326L498.866 301.766L497.134 302.766L524.435 318.326L526.167 317.326Z" fill="#969696" mask="url(#path-115-inside-58_300_969)"/>
<mask id="path-117-inside-59_300_969" fill="white">
<path d="M228.422 374.266L118.915 311.042L91.6134 326.602L201.121 389.826L228.422 374.266Z"/>
</mask>
<path d="M228.422 374.266L229.291 373.771L230.157 374.271L229.288 374.766L228.422 374.266ZM118.915 311.042L118.049 310.542L118.917 310.047L119.783 310.547L118.915 311.042ZM227.553 374.762L118.046 311.537L119.783 310.547L229.291 373.771L227.553 374.762ZM119.781 311.542L92.4794 327.102L90.7473 326.102L118.049 310.542L119.781 311.542ZM200.255 389.326L227.556 373.766L229.288 374.766L201.987 390.326L200.255 389.326Z" fill="#969696" mask="url(#path-117-inside-59_300_969)"/>
<mask id="path-119-inside-60_300_969" fill="white">
<path d="M623.988 374.266L733.496 311.042L760.797 326.602L651.29 389.826L623.988 374.266Z"/>
</mask>
<path d="M623.988 374.266L623.119 373.771L622.253 374.271L623.122 374.766L623.988 374.266ZM733.496 311.042L734.362 310.542L733.493 310.047L732.627 310.547L733.496 311.042ZM624.857 374.762L734.364 311.537L732.627 310.547L623.119 373.771L624.857 374.762ZM732.629 311.542L759.931 327.102L761.663 326.102L734.362 310.542L732.629 311.542ZM652.156 389.326L624.854 373.766L623.122 374.766L650.424 390.326L652.156 389.326Z" fill="#969696" mask="url(#path-119-inside-60_300_969)"/>
<mask id="path-121-inside-61_300_969" fill="white">
<path d="M623 523.266L678.887 491L706.189 506.56L650.301 538.826L623 523.266Z"/>
</mask>
<path d="M623 523.266L622.131 522.771L621.265 523.271L622.134 523.766L623 523.266ZM678.887 491L679.753 490.5L678.885 490.005L678.019 490.505L678.887 491ZM623.869 523.762L679.756 491.495L678.019 490.505L622.131 522.771L623.869 523.762ZM678.021 491.5L705.323 507.06L707.055 506.06L679.753 490.5L678.021 491.5ZM651.167 538.326L623.866 522.766L622.134 523.766L649.435 539.326L651.167 538.326Z" fill="#969696" mask="url(#path-121-inside-61_300_969)"/>
<line x1="353.5" y1="545" x2="353.5" y2="557" stroke="#969696"/>
<line x1="440.963" y1="444.433" x2="430.571" y2="438.433" stroke="#969696"/>
<line x1="484.75" y1="570.897" x2="495.142" y2="564.897" stroke="#969696"/>
<line x1="368.143" y1="571.433" x2="357.75" y2="565.433" stroke="#969696"/>
<line x1="410.75" y1="443.897" x2="421.142" y2="437.897" stroke="#969696"/>
<line opacity="0.3" x1="303.738" y1="382.548" x2="367.76" y2="345.586" stroke="#969696"/>
<line opacity="0.3" x1="245.5" y1="483" x2="245.5" y2="556.926" stroke="#969696"/>
<line opacity="0.3" x1="607.5" y1="483" x2="607.5" y2="556.926" stroke="#969696"/>
<line opacity="0.3" y1="-0.5" x2="73.9256" y2="-0.5" transform="matrix(-0.866025 -0.5 -0.5 0.866025 548.021 382.963)" stroke="#969696"/>
<line opacity="0.3" y1="-0.5" x2="400" y2="-0.5" transform="matrix(-0.866025 -0.5 -0.5 0.866025 245.41 416)" stroke="url(#paint0_linear_300_969)"/>
<line opacity="0.3" y1="-0.5" x2="400" y2="-0.5" transform="matrix(-0.866025 -0.5 -0.5 0.866025 553.41 270)" stroke="url(#paint1_linear_300_969)"/>
<line opacity="0.3" x1="606.75" y1="415.567" x2="953.16" y2="215.567" stroke="url(#paint2_linear_300_969)"/>
<line opacity="0.3" x1="782.75" y1="715.567" x2="1129.16" y2="515.567" stroke="url(#paint3_linear_300_969)"/>
<line opacity="0.3" x1="552.75" y1="269.567" x2="899.16" y2="69.567" stroke="url(#paint4_linear_300_969)"/>
<line opacity="0.3" x1="679.75" y1="491.567" x2="1026.16" y2="291.567" stroke="url(#paint5_linear_300_969)"/>
<line opacity="0.3" x1="556.75" y1="704.567" x2="903.16" y2="504.567" stroke="url(#paint6_linear_300_969)"/>
<line opacity="0.3" x1="677.5" y1="491" x2="677.5" y2="91" stroke="url(#paint7_linear_300_969)"/>
<line opacity="0.3" x1="227.5" y1="520" x2="227.5" y2="120" stroke="url(#paint8_linear_300_969)"/>
<line opacity="0.3" x1="773.5" y1="720" x2="773.5" y2="320" stroke="url(#paint9_linear_300_969)"/>
<line opacity="0.3" x1="355.5" y1="301" x2="355.5" y2="-99" stroke="url(#paint10_linear_300_969)"/>
<line opacity="0.3" x1="553.5" y1="273" x2="553.5" y2="-127" stroke="url(#paint11_linear_300_969)"/>
<line opacity="0.3" x1="298.5" y1="382" x2="298.5" y2="-18" stroke="url(#paint12_linear_300_969)"/>
<line opacity="0.3" y1="-0.5" x2="400" y2="-0.5" transform="matrix(1.19249e-08 1 1 -1.19249e-08 92 331)" stroke="url(#paint13_linear_300_969)"/>
<line opacity="0.3" x1="225.66" y1="523.933" x2="-120.75" y2="723.933" stroke="url(#paint14_linear_300_969)"/>
<line opacity="0.3" y1="-0.5" x2="400" y2="-0.5" transform="matrix(0.866025 0.5 0.5 -0.866025 678 491)" stroke="url(#paint15_linear_300_969)"/>
<line x1="500.32" y1="545" x2="500.32" y2="557" stroke="#969696"/>
</g>
</g>
<defs>
<linearGradient id="paint0_linear_300_969" x1="396.196" y1="-1.28221" x2="-104.017" y2="-2.18792" gradientUnits="userSpaceOnUse">
<stop stop-color="#969696" stop-opacity="0"/>
<stop offset="1" stop-color="#969696"/>
</linearGradient>
<linearGradient id="paint1_linear_300_969" x1="396.196" y1="-1.28221" x2="-104.017" y2="-2.18792" gradientUnits="userSpaceOnUse">
<stop stop-color="#969696" stop-opacity="0"/>
<stop offset="1" stop-color="#969696"/>
</linearGradient>
<linearGradient id="paint2_linear_300_969" x1="949.474" y1="216.792" x2="515.825" y2="466.114" gradientUnits="userSpaceOnUse">
<stop stop-color="#969696" stop-opacity="0"/>
<stop offset="1" stop-color="#969696"/>
</linearGradient>
<linearGradient id="paint3_linear_300_969" x1="1125.47" y1="516.792" x2="691.825" y2="766.114" gradientUnits="userSpaceOnUse">
<stop stop-color="#969696" stop-opacity="0"/>
<stop offset="1" stop-color="#969696"/>
</linearGradient>
<linearGradient id="paint4_linear_300_969" x1="895.474" y1="70.7917" x2="461.825" y2="320.114" gradientUnits="userSpaceOnUse">
<stop stop-color="#969696" stop-opacity="0"/>
<stop offset="1" stop-color="#969696"/>
</linearGradient>
<linearGradient id="paint5_linear_300_969" x1="1022.47" y1="292.792" x2="588.825" y2="542.114" gradientUnits="userSpaceOnUse">
<stop stop-color="#969696" stop-opacity="0"/>
<stop offset="1" stop-color="#969696"/>
</linearGradient>
<linearGradient id="paint6_linear_300_969" x1="899.474" y1="505.792" x2="465.825" y2="755.114" gradientUnits="userSpaceOnUse">
<stop stop-color="#969696" stop-opacity="0"/>
<stop offset="1" stop-color="#969696"/>
</linearGradient>
<linearGradient id="paint7_linear_300_969" x1="676.718" y1="94.8043" x2="675.812" y2="595.017" gradientUnits="userSpaceOnUse">
<stop stop-color="#969696" stop-opacity="0"/>
<stop offset="1" stop-color="#969696"/>
</linearGradient>
<linearGradient id="paint8_linear_300_969" x1="226.718" y1="123.804" x2="225.812" y2="624.017" gradientUnits="userSpaceOnUse">
<stop stop-color="#969696" stop-opacity="0"/>
<stop offset="1" stop-color="#969696"/>
</linearGradient>
<linearGradient id="paint9_linear_300_969" x1="772.718" y1="323.804" x2="771.812" y2="824.017" gradientUnits="userSpaceOnUse">
<stop stop-color="#969696" stop-opacity="0"/>
<stop offset="1" stop-color="#969696"/>
</linearGradient>
<linearGradient id="paint10_linear_300_969" x1="354.718" y1="-95.1957" x2="353.812" y2="405.017" gradientUnits="userSpaceOnUse">
<stop stop-color="#969696" stop-opacity="0"/>
<stop offset="1" stop-color="#969696"/>
</linearGradient>
<linearGradient id="paint11_linear_300_969" x1="552.718" y1="-123.196" x2="551.812" y2="377.017" gradientUnits="userSpaceOnUse">
<stop stop-color="#969696" stop-opacity="0"/>
<stop offset="1" stop-color="#969696"/>
</linearGradient>
<linearGradient id="paint12_linear_300_969" x1="297.718" y1="-14.1957" x2="296.812" y2="486.017" gradientUnits="userSpaceOnUse">
<stop stop-color="#969696" stop-opacity="0"/>
<stop offset="1" stop-color="#969696"/>
</linearGradient>
<linearGradient id="paint13_linear_300_969" x1="396.196" y1="-1.28221" x2="-104.017" y2="-2.18792" gradientUnits="userSpaceOnUse">
<stop stop-color="#969696" stop-opacity="0"/>
<stop offset="1" stop-color="#969696"/>
</linearGradient>
<linearGradient id="paint14_linear_300_969" x1="-117.064" y1="722.708" x2="316.585" y2="473.386" gradientUnits="userSpaceOnUse">
<stop stop-color="#969696" stop-opacity="0"/>
<stop offset="1" stop-color="#969696"/>
</linearGradient>
<linearGradient id="paint15_linear_300_969" x1="396.196" y1="-1.28221" x2="-104.017" y2="-2.18792" gradientUnits="userSpaceOnUse">
<stop stop-color="#969696" stop-opacity="0"/>
<stop offset="1" stop-color="#969696"/>
</linearGradient>
<clipPath id="clip0_300_969">
<rect width="856" height="590" fill="white"/>
</clipPath>
</defs>
</svg>
