<svg width="236" height="249" viewBox="0 0 236 249" fill="none" xmlns="http://www.w3.org/2000/svg">
<path d="M116.734 115.74C112.298 115.072 110.313 114.586 105.911 115.513C105.751 115.519 105.594 115.516 105.433 115.509C99.6277 114.395 93.4648 120.482 102.801 118.619C102.821 118.619 102.841 118.619 102.861 118.619C106.212 119.325 107.13 118.961 110.491 118.251C110.744 118.234 110.995 118.234 111.249 118.251C114.018 118.76 120.799 116.351 116.734 115.74Z" fill="#879194"/>
<path d="M95.9923 68.3395C95.0392 67.8888 93.5496 67.777 92.5532 67.6198C90.7036 65.3282 82.8419 66.2889 80.9357 66.3168C79.4927 66.1282 72.9141 65.0383 73.2474 68.4163C67.4753 70.7498 83.6118 70.7952 83.5451 70.7987C84.3749 71.1131 85.5013 70.9768 86.3578 70.9314C86.5511 70.9524 100.855 70.6695 95.9923 68.3395Z" fill="#879194"/>
<path d="M140.044 171.278C137.078 180.607 117.423 186.485 109.19 187.207C97.6412 188.22 85.1391 184.119 78.3146 174.261C78.3722 174.349 80.9446 155.99 80.9208 154.97C80.8631 152.055 82.3971 138.347 80.0283 135.645C86.1572 142.638 94.933 149.529 104.065 152.065C115.787 155.319 121.128 144.123 129.473 137.794C136.389 132.55 136.434 132.998 137.279 141.228C138.083 149.075 142.349 164.031 140.044 171.278ZM89.6051 14.7964C89.8562 14.5727 90.0123 14.2846 90.1243 13.9761C91.4003 16.4032 94.3324 14.9557 94.8482 12.9592C95.5914 12.2846 96.1853 11.4914 96.6265 10.5761C110.123 -4.46086 138.683 11.7219 148.498 23.1928C163.226 40.4095 164.37 60.5955 165.958 82.151C162.714 83.1001 161.282 86.4492 160.111 89.256C156.951 93.6186 155.085 99.4117 153.191 104.388C150.805 107.934 148.552 110.595 146.709 114.537C148.138 110.13 148.739 105.503 148.44 100.886C150.765 96.5575 149.713 88.1136 148.898 83.3612C149.597 81.1443 149.119 79.2731 147.466 77.7477C147.381 77.1613 147.093 76.6833 146.601 76.3206C142.267 66.992 137.163 52.8126 128.706 46.4365C121.607 43.084 126.307 52.3143 127.06 54.1719C119.543 47.4364 110.299 43.1619 102.535 36.7316C99.5213 34.2367 90.8845 19.0878 87.7488 20.0268C86.6527 19.8132 85.6278 20.576 85.6753 21.7827C85.6176 21.9014 85.5599 22.0166 85.5124 22.1488C82.6821 24.7589 81.4061 34.0265 79.3394 37.9383C76.404 43.4942 72.7321 48.5347 70.0952 54.26C65.2797 48.6737 66.4471 75.463 66.3283 77.4325C65.4426 78.8664 65.3374 80.4291 66.0127 82.1172C65.4494 91.3339 65.8566 100.839 67.6925 109.9C67.3362 109.632 66.9731 109.374 66.5998 109.127C64.4109 106.693 62.6666 103.764 59.3002 102.696C50.0051 89.8662 54.1962 71.5343 53.8466 56.8634C53.4801 41.3756 58.2787 27.2029 71.8226 18.1692C74.8225 16.7557 77.9888 15.6573 81.3586 15.8641C81.6403 15.9184 81.9118 15.993 82.1934 16.0811C82.2342 16.1049 82.2749 16.1286 82.3156 16.1523C83.836 17.4607 86.388 17.8845 87.0056 15.3794C87.854 15.6981 88.7228 15.5015 89.6051 14.7964ZM132.829 62.7378C132.884 62.6666 132.948 62.6091 132.996 62.5345C133.223 62.9718 133.444 63.4124 133.668 63.8531C133.389 63.4836 133.118 63.1005 132.829 62.7378ZM118.033 79.6698C124.776 79.4528 131.615 80.2392 138.334 79.6189C139.607 82.1442 140.808 84.6594 141.758 87.3204C140.978 89.2695 139.752 91.8594 138.178 93.3102C134.017 96.1542 127.43 96.4627 123.148 93.6424C119.367 90.2763 117.82 84.5883 118.033 79.6698ZM104.299 75.08C104.276 75.0834 104.252 75.0868 104.232 75.0868C103.807 74.9444 103.387 74.9851 102.969 75.219C102.827 75.1986 102.691 75.2156 102.565 75.2631C93.3347 72.9614 80.3541 69.0258 71.3441 74.1749C71.3441 74.1071 71.3441 74.0427 71.3441 73.9749C73.7535 57.6464 82.9706 45.1009 87.7929 29.6572C95.1808 46.7212 119.34 52.3177 130.464 67.3819C129.063 67.3378 127.627 67.3208 126.229 67.3615C123.802 67.1412 119.472 66.931 117.548 68.5378C113.279 69.1886 117.28 72.1105 119.72 71.9139C120.429 73.3648 131.54 71.575 133.501 71.6597C134.285 72.7038 135.001 73.7919 135.656 74.9207C125.011 74.1072 114.881 73.1038 104.299 75.08ZM95.3572 91.1814C86.3167 97.927 67.8656 93.7847 72.6133 79.0799C72.6201 79.0629 72.6303 79.0494 72.6371 79.0392C72.749 78.9206 72.8644 78.8087 72.9866 78.7036C80.0623 73.9987 94.3596 77.3681 101.493 79.124C100.902 84.0256 99.209 87.9679 95.3572 91.1814ZM131.964 128.296C125.666 136.279 118.763 144.272 108.66 146.929C108.229 146.696 107.744 146.675 107.215 146.855C83.4117 141.784 72.861 114.113 70.8452 92.8356C77.6528 102.012 91.8076 102.476 99.7317 94.5237C99.2633 99.9168 100.261 109.086 108.372 107.805C116.191 106.568 111.901 102.029 106.268 101.7C105.986 101.639 105.715 101.557 105.443 101.466C105.246 101.357 105.056 101.252 104.873 101.134C104.819 101.083 104.768 101.035 104.717 100.985C104.622 100.829 104.537 100.669 104.452 100.51C102.508 94.5101 104.89 86.1611 105.637 79.8257C108.3 79.5274 110.798 79.6527 113.445 79.6765C112.559 94.4389 131.441 112.571 143.207 96.5406C142.342 108.361 138.982 118.74 131.964 128.296ZM235.975 242.968C234.621 221.362 224.002 201.586 204.268 192.034C195.418 187.749 185.936 185.546 177.225 180.953C168.106 176.146 158.421 166.671 147.598 165.926C147.486 165.577 147.361 165.234 147.259 164.882C147.225 164.641 147.191 164.404 147.161 164.166C147.079 163.878 146.967 163.614 146.825 163.363C144.649 155.302 143.251 147.048 141.456 138.899C141.47 138.445 141.47 137.991 141.487 137.536C143.336 136.726 143.516 133.472 144.086 131.784C155.251 133.842 161.906 97.9609 166.172 91.6797C170.373 91.8187 169.82 88.2899 170.003 84.9747C174.954 77.8969 171.663 61.3073 170.672 53.338C169.542 44.25 167.359 35.9113 162.194 28.2809C155.326 18.1353 143.16 8.52193 131.744 4.0271C120.602 -0.359253 94.044 -4.80327 89.9716 11.8879C88.3088 9.03716 82.0577 10.1829 79.6007 10.7049C65.6428 11.1761 56.0151 22.2437 50.9078 34.2875C50.9824 34.1147 51.0605 33.9418 51.1352 33.7689C45.4067 47.1178 46.1737 63.5379 47.1409 77.785C45.8208 86.7205 48.1555 97.1812 53.3172 104.686C53.755 105.717 54.6882 107.73 56.0016 108.052C58.2414 110.578 60.8205 112.388 63.5795 114.3C69.0364 120.798 70.2038 129.608 75.3961 135.889C75.9085 144.658 76.5261 154.197 74.5307 162.8C66.2231 162.472 59.1101 171.122 52.625 174.946C43.2145 180.502 32.6569 184.173 23.5892 190.386C14.6538 196.515 8.10417 204.213 4.68002 214.511C3.1495 219.108 -2.99632 243.026 1.79545 246.426C11.698 253.453 10.2862 224.965 11.1041 220.25C12.7093 211.03 16.3235 204.959 23.6096 199.013C32.1581 192.037 42.5459 187.895 52.2007 182.698C59.4563 178.79 64.7808 172.454 72.2943 169.248C72.0737 169.343 71.8463 169.437 71.6224 169.536C71.9923 169.404 72.3655 169.288 72.7388 169.153C72.671 169.383 72.6269 169.614 72.5861 169.848C68.6869 172.824 75.3995 179.058 77.5816 181.359C84.155 188.281 91.6752 192.315 101.154 193.546C114.406 195.264 143.757 190.369 147.324 173.434C147.639 173.302 147.931 173.126 148.186 172.895C159.327 175.875 168.062 185.132 178.341 190.118C188.542 195.064 199.942 197.684 209.291 204.393C219.747 211.901 223.31 221.684 225.906 233.636C226.632 236.989 227.905 247.097 231.282 248.609C234.818 250.192 236.209 246.7 235.975 242.968Z" fill="#879194"/>
</svg>
