<svg width="696" height="534" viewBox="0 0 696 534" fill="none" xmlns="http://www.w3.org/2000/svg">
<path d="M285.452 508.288C285.57 508.038 285.463 507.74 285.213 507.622L281.142 505.705C280.892 505.587 280.594 505.694 280.477 505.944C280.359 506.194 280.466 506.492 280.716 506.609L284.335 508.314L282.63 511.933C282.512 512.182 282.62 512.48 282.869 512.598C283.119 512.716 283.417 512.609 283.535 512.359L285.452 508.288ZM223.883 530.051L224.052 530.521L223.883 530.051ZM57 0.5H55.5V1.5H57V0.5ZM52.5 0.5H51V1.5H52.5V0.5ZM51 0.5C50.169 0.5 49.3427 0.520075 48.5215 0.559771L48.5697 1.5586C49.3749 1.51969 50.1851 1.5 51 1.5V0.5ZM43.588 1.04016C41.94 1.28258 40.3178 1.60461 38.7255 2.00222L38.9678 2.97243C40.5283 2.58275 42.1182 2.26713 43.7335 2.02952L43.588 1.04016ZM33.9818 3.43944C32.4186 3.99886 30.8909 4.63316 29.4033 5.338L29.8315 6.2417C31.2895 5.55088 32.7867 4.92923 34.3187 4.38096L33.9818 3.43944ZM25.0341 7.6781C23.6144 8.53086 22.2401 9.45142 20.9156 10.4353L21.5119 11.238C22.8102 10.2736 24.1574 9.37122 25.549 8.53535L25.0341 7.6781ZM17.0861 13.5816C15.8617 14.692 14.692 15.8617 13.5816 17.0861L14.3223 17.7579C15.4109 16.5576 16.5576 15.4109 17.7579 14.3223L17.0861 13.5816ZM10.4353 20.9156C9.45143 22.24 8.53087 23.6144 7.67811 25.0341L8.53536 25.549C9.37123 24.1574 10.2736 22.8102 11.2381 21.5119L10.4353 20.9156ZM5.338 29.4033C4.63316 30.8909 3.99887 32.4185 3.43944 33.9818L4.38097 34.3187C4.92923 32.7867 5.55089 31.2895 6.2417 29.8315L5.338 29.4033ZM2.00223 38.7255C1.60461 40.3178 1.28258 41.94 1.04017 43.588L2.02952 43.7335C2.26713 42.1182 2.58275 40.5283 2.97243 38.9678L2.00223 38.7255ZM0.559771 48.5215C0.520075 49.3427 0.5 50.169 0.5 51H1.5C1.5 50.1851 1.51969 49.3749 1.5586 48.5697L0.559771 48.5215ZM0.5 51V53.5116H1.5V51H0.5ZM0.5 58.5349V63.5581H1.5V58.5349H0.5ZM0.5 68.5814V73.6047H1.5V68.5814H0.5ZM0.5 78.6279V83.6512H1.5V78.6279H0.5ZM0.5 88.6744V93.6977H1.5V88.6744H0.5ZM0.5 98.7209V103.744H1.5V98.7209H0.5ZM0.5 108.767V113.791H1.5V108.767H0.5ZM0.5 118.814V123.837H1.5V118.814H0.5ZM0.5 128.86V133.884H1.5V128.86H0.5ZM0.5 138.907V143.93H1.5V138.907H0.5ZM0.5 148.953V153.977H1.5V148.953H0.5ZM0.5 159V164.023H1.5V159H0.5ZM0.5 169.046V174.07H1.5V169.046H0.5ZM0.5 179.093V184.116H1.5V179.093H0.5ZM0.5 189.14V194.163H1.5V189.14H0.5ZM0.5 199.186V204.209H1.5V199.186H0.5ZM0.5 209.233V214.256H1.5V209.233H0.5ZM0.5 219.279V224.302H1.5V219.279H0.5ZM0.5 229.326V234.349H1.5V229.326H0.5ZM0.5 239.372V244.395H1.5V239.372H0.5ZM0.5 249.419V254.442H1.5V249.419H0.5ZM0.5 259.465V264.488H1.5V259.465H0.5ZM0.5 269.512V274.535H1.5V269.512H0.5ZM0.5 279.558V284.581H1.5V279.558H0.5ZM0.5 289.605V294.628H1.5V289.605H0.5ZM0.5 299.651V304.674H1.5V299.651H0.5ZM0.5 309.698V314.721H1.5V309.698H0.5ZM0.5 319.744V324.767H1.5V319.744H0.5ZM0.5 329.791V334.814H1.5V329.791H0.5ZM0.5 339.837V344.86H1.5V339.837H0.5ZM0.5 349.884V354.907H1.5V349.884H0.5ZM0.5 359.93V364.953H1.5V359.93H0.5ZM0.5 369.977V375H1.5V369.977H0.5ZM0.5 380.023V385.046H1.5V380.023H0.5ZM0.5 390.07V395.093H1.5V390.07H0.5ZM0.5 400.116V405.139H1.5V400.116H0.5ZM0.5 410.163V415.186H1.5V410.163H0.5ZM0.5 420.209V425.232H1.5V420.209H0.5ZM0.5 430.256V435.279H1.5V430.256H0.5ZM0.5 440.302V445.326H1.5V440.302H0.5ZM0.5 450.349V455.372H1.5V450.349H0.5ZM0.5 460.395V465.419H1.5V460.395H0.5ZM0.5 470.442V475.465H1.5V470.442H0.5ZM0.5 480.488V483H1.5V480.488H0.5ZM0.5 483C0.5 483.831 0.520075 484.657 0.559771 485.479L1.5586 485.43C1.51969 484.625 1.5 483.815 1.5 483H0.5ZM1.04016 490.412C1.28258 492.06 1.60461 493.682 2.00222 495.274L2.97243 495.032C2.58275 493.472 2.26713 491.882 2.02952 490.267L1.04016 490.412ZM3.43944 500.018C3.99886 501.581 4.63316 503.109 5.338 504.597L6.2417 504.169C5.55088 502.71 4.92923 501.213 4.38096 499.681L3.43944 500.018ZM7.6781 508.966C8.53086 510.386 9.45142 511.76 10.4353 513.084L11.238 512.488C10.2736 511.19 9.37122 509.843 8.53535 508.451L7.6781 508.966ZM13.5816 516.914C14.692 518.138 15.8617 519.308 17.0861 520.418L17.7579 519.678C16.5576 518.589 15.4109 517.442 14.3223 516.242L13.5816 516.914ZM20.9156 523.565C22.24 524.549 23.6144 525.469 25.0341 526.322L25.549 525.465C24.1574 524.629 22.8102 523.726 21.5119 522.762L20.9156 523.565ZM29.4033 528.662C30.8909 529.367 32.4185 530.001 33.9818 530.561L34.3187 529.619C32.7867 529.071 31.2895 528.449 29.8315 527.758L29.4033 528.662ZM38.7255 531.998C40.3178 532.395 41.9399 532.717 43.588 532.96L43.7335 531.97C42.1182 531.733 40.5283 531.417 38.9678 531.028L38.7255 531.998ZM48.5214 533.44C49.3427 533.48 50.169 533.5 51 533.5V532.5C50.1851 532.5 49.3749 532.48 48.5697 532.441L48.5214 533.44ZM51 533.5H53.437V532.5H51V533.5ZM58.3109 533.5H63.1848V532.5H58.3109V533.5ZM68.0587 533.5H72.9326V532.5H68.0587V533.5ZM77.8065 533.5H82.6804V532.5H77.8065V533.5ZM87.5543 533.5H92.4282V532.5H87.5543V533.5ZM97.3021 533.5H102.176V532.5H97.3021V533.5ZM107.05 533.5H111.924V532.5H107.05V533.5ZM116.798 533.5H121.672V532.5H116.798V533.5ZM126.546 533.5H131.419V532.5H126.546V533.5ZM136.293 533.5H141.167V532.5H136.293V533.5ZM146.041 533.5H150.915V532.5H146.041V533.5ZM155.789 533.5H160.663V532.5H155.789V533.5ZM165.537 533.5H170.411V532.5H165.537V533.5ZM175.285 533.5H180.159V532.5H175.285V533.5ZM185.032 533.5H189.906V532.5H185.032V533.5ZM194.78 533.5H199.654V532.5H194.78V533.5ZM204.528 533.5H206.965V532.5H204.528V533.5ZM206.965 533.5C207.692 533.5 208.418 533.484 209.143 533.453L209.1 532.454C208.389 532.485 207.678 532.5 206.965 532.5V533.5ZM213.484 533.078C214.924 532.89 216.356 532.64 217.775 532.329L217.561 531.353C216.17 531.657 214.767 531.902 213.355 532.086L213.484 533.078ZM221.987 531.214C222.68 530.998 223.368 530.767 224.052 530.521L223.714 529.58C223.044 529.821 222.369 530.048 221.689 530.259L221.987 531.214ZM224.052 530.521L226.599 529.606L226.261 528.665L223.714 529.58L224.052 530.521ZM231.692 527.774L236.785 525.943L236.447 525.002L231.354 526.833L231.692 527.774ZM241.878 524.112L246.971 522.28L246.633 521.339L241.54 523.171L241.878 524.112ZM252.064 520.449L257.157 518.618L256.819 517.677L251.726 519.508L252.064 520.449ZM262.25 516.786L267.343 514.955L267.005 514.014L261.912 515.845L262.25 516.786ZM272.437 513.124L277.53 511.292L277.191 510.351L272.098 512.183L272.437 513.124ZM282.623 509.461L285.169 508.545L284.831 507.604L282.284 508.52L282.623 509.461Z" fill="#9F9F9F"/>
<path d="M410.548 508.288C410.43 508.038 410.537 507.74 410.787 507.622L414.858 505.705C415.108 505.587 415.406 505.694 415.523 505.944C415.641 506.194 415.534 506.492 415.284 506.609L411.665 508.314L413.37 511.933C413.488 512.182 413.38 512.48 413.131 512.598C412.881 512.716 412.583 512.609 412.465 512.359L410.548 508.288ZM472.117 530.051L471.948 530.521L472.117 530.051ZM639 0.5H640.5V1.5H639V0.5ZM643.5 0.5H645V1.5H643.5V0.5ZM645 0.5C645.831 0.5 646.657 0.520075 647.479 0.559771L647.43 1.5586C646.625 1.51969 645.815 1.5 645 1.5V0.5ZM652.412 1.04016C654.06 1.28258 655.682 1.60461 657.274 2.00222L657.032 2.97243C655.472 2.58275 653.882 2.26713 652.267 2.02952L652.412 1.04016ZM662.018 3.43944C663.581 3.99886 665.109 4.63316 666.597 5.338L666.169 6.2417C664.71 5.55088 663.213 4.92923 661.681 4.38096L662.018 3.43944ZM670.966 7.6781C672.386 8.53086 673.76 9.45142 675.084 10.4353L674.488 11.238C673.19 10.2736 671.843 9.37122 670.451 8.53535L670.966 7.6781ZM678.914 13.5816C680.138 14.692 681.308 15.8617 682.418 17.0861L681.678 17.7579C680.589 16.5576 679.442 15.4109 678.242 14.3223L678.914 13.5816ZM685.565 20.9156C686.549 22.24 687.469 23.6144 688.322 25.0341L687.465 25.549C686.629 24.1574 685.726 22.8102 684.762 21.5119L685.565 20.9156ZM690.662 29.4033C691.367 30.8909 692.001 32.4185 692.561 33.9818L691.619 34.3187C691.071 32.7867 690.449 31.2895 689.758 29.8315L690.662 29.4033ZM693.998 38.7255C694.395 40.3178 694.717 41.94 694.96 43.588L693.97 43.7335C693.733 42.1182 693.417 40.5283 693.028 38.9678L693.998 38.7255ZM695.44 48.5215C695.48 49.3427 695.5 50.169 695.5 51H694.5C694.5 50.1851 694.48 49.3749 694.441 48.5697L695.44 48.5215ZM695.5 51V53.5116H694.5V51H695.5ZM695.5 58.5349V63.5581H694.5V58.5349H695.5ZM695.5 68.5814V73.6047H694.5V68.5814H695.5ZM695.5 78.6279V83.6512H694.5V78.6279H695.5ZM695.5 88.6744V93.6977H694.5V88.6744H695.5ZM695.5 98.7209V103.744H694.5V98.7209H695.5ZM695.5 108.767V113.791H694.5V108.767H695.5ZM695.5 118.814V123.837H694.5V118.814H695.5ZM695.5 128.86V133.884H694.5V128.86H695.5ZM695.5 138.907V143.93H694.5V138.907H695.5ZM695.5 148.953V153.977H694.5V148.953H695.5ZM695.5 159V164.023H694.5V159H695.5ZM695.5 169.046V174.07H694.5V169.046H695.5ZM695.5 179.093V184.116H694.5V179.093H695.5ZM695.5 189.14V194.163H694.5V189.14H695.5ZM695.5 199.186V204.209H694.5V199.186H695.5ZM695.5 209.233V214.256H694.5V209.233H695.5ZM695.5 219.279V224.302H694.5V219.279H695.5ZM695.5 229.326V234.349H694.5V229.326H695.5ZM695.5 239.372V244.395H694.5V239.372H695.5ZM695.5 249.419V254.442H694.5V249.419H695.5ZM695.5 259.465V264.488H694.5V259.465H695.5ZM695.5 269.512V274.535H694.5V269.512H695.5ZM695.5 279.558V284.581H694.5V279.558H695.5ZM695.5 289.605V294.628H694.5V289.605H695.5ZM695.5 299.651V304.674H694.5V299.651H695.5ZM695.5 309.698V314.721H694.5V309.698H695.5ZM695.5 319.744V324.767H694.5V319.744H695.5ZM695.5 329.791V334.814H694.5V329.791H695.5ZM695.5 339.837V344.86H694.5V339.837H695.5ZM695.5 349.884V354.907H694.5V349.884H695.5ZM695.5 359.93V364.953H694.5V359.93H695.5ZM695.5 369.977V375H694.5V369.977H695.5ZM695.5 380.023V385.046H694.5V380.023H695.5ZM695.5 390.07V395.093H694.5V390.07H695.5ZM695.5 400.116V405.139H694.5V400.116H695.5ZM695.5 410.163V415.186H694.5V410.163H695.5ZM695.5 420.209V425.232H694.5V420.209H695.5ZM695.5 430.256V435.279H694.5V430.256H695.5ZM695.5 440.302V445.326H694.5V440.302H695.5ZM695.5 450.349V455.372H694.5V450.349H695.5ZM695.5 460.395V465.419H694.5V460.395H695.5ZM695.5 470.442V475.465H694.5V470.442H695.5ZM695.5 480.488V483H694.5V480.488H695.5ZM695.5 483C695.5 483.831 695.48 484.657 695.44 485.479L694.441 485.43C694.48 484.625 694.5 483.815 694.5 483H695.5ZM694.96 490.412C694.717 492.06 694.395 493.682 693.998 495.274L693.028 495.032C693.417 493.472 693.733 491.882 693.97 490.267L694.96 490.412ZM692.561 500.018C692.001 501.581 691.367 503.109 690.662 504.597L689.758 504.169C690.449 502.71 691.071 501.213 691.619 499.681L692.561 500.018ZM688.322 508.966C687.469 510.386 686.549 511.76 685.565 513.084L684.762 512.488C685.726 511.19 686.629 509.843 687.465 508.451L688.322 508.966ZM682.418 516.914C681.308 518.138 680.138 519.308 678.914 520.418L678.242 519.678C679.442 518.589 680.589 517.442 681.678 516.242L682.418 516.914ZM675.084 523.565C673.76 524.549 672.386 525.469 670.966 526.322L670.451 525.465C671.843 524.629 673.19 523.726 674.488 522.762L675.084 523.565ZM666.597 528.662C665.109 529.367 663.581 530.001 662.018 530.561L661.681 529.619C663.213 529.071 664.71 528.449 666.169 527.758L666.597 528.662ZM657.274 531.998C655.682 532.395 654.06 532.717 652.412 532.96L652.267 531.97C653.882 531.733 655.472 531.417 657.032 531.028L657.274 531.998ZM647.479 533.44C646.657 533.48 645.831 533.5 645 533.5V532.5C645.815 532.5 646.625 532.48 647.43 532.441L647.479 533.44ZM645 533.5H642.563V532.5H645V533.5ZM637.689 533.5H632.815V532.5H637.689V533.5ZM627.941 533.5H623.067V532.5H627.941V533.5ZM618.194 533.5H613.32V532.5H618.194V533.5ZM608.446 533.5H603.572V532.5H608.446V533.5ZM598.698 533.5H593.824V532.5H598.698V533.5ZM588.95 533.5H584.076V532.5H588.95V533.5ZM579.202 533.5H574.328V532.5H579.202V533.5ZM569.454 533.5H564.581V532.5H569.454V533.5ZM559.707 533.5H554.833V532.5H559.707V533.5ZM549.959 533.5H545.085V532.5H549.959V533.5ZM540.211 533.5H535.337V532.5H540.211V533.5ZM530.463 533.5H525.589V532.5H530.463V533.5ZM520.715 533.5H515.841V532.5H520.715V533.5ZM510.968 533.5H506.094V532.5H510.968V533.5ZM501.22 533.5H496.346V532.5H501.22V533.5ZM491.472 533.5H489.035V532.5H491.472V533.5ZM489.035 533.5C488.308 533.5 487.582 533.484 486.857 533.453L486.9 532.454C487.611 532.485 488.322 532.5 489.035 532.5V533.5ZM482.516 533.078C481.076 532.89 479.644 532.64 478.225 532.329L478.439 531.353C479.83 531.657 481.233 531.902 482.645 532.086L482.516 533.078ZM474.013 531.214C473.32 530.998 472.632 530.767 471.948 530.521L472.286 529.58C472.956 529.821 473.631 530.048 474.311 530.259L474.013 531.214ZM471.948 530.521L469.401 529.606L469.739 528.665L472.286 529.58L471.948 530.521ZM464.308 527.774L459.215 525.943L459.553 525.002L464.646 526.833L464.308 527.774ZM454.122 524.112L449.029 522.28L449.367 521.339L454.46 523.171L454.122 524.112ZM443.936 520.449L438.843 518.618L439.181 517.677L444.274 519.508L443.936 520.449ZM433.75 516.786L428.657 514.955L428.995 514.014L434.088 515.845L433.75 516.786ZM423.563 513.124L418.47 511.292L418.809 510.351L423.902 512.183L423.563 513.124ZM413.377 509.461L410.831 508.545L411.169 507.604L413.716 508.52L413.377 509.461Z" fill="#9F9F9F"/>
<path d="M285.253 427.431C285.491 427.291 285.571 426.985 285.431 426.747L283.151 422.867C283.011 422.629 282.705 422.549 282.467 422.689C282.229 422.829 282.149 423.136 282.289 423.374L284.316 426.822L280.867 428.849C280.629 428.989 280.549 429.295 280.689 429.533C280.829 429.771 281.136 429.851 281.374 429.711L285.253 427.431ZM203.423 405.815L203.549 405.331L203.423 405.815ZM57 240.5C56.1413 240.5 55.2902 240.533 54.4481 240.599L54.5256 241.596C55.3419 241.532 56.1671 241.5 57 241.5V240.5ZM49.4102 241.391C47.7394 241.791 46.1187 242.32 44.5593 242.966L44.9423 243.89C46.4534 243.263 48.0238 242.751 49.6429 242.364L49.4102 241.391ZM40.0164 245.285C38.5621 246.178 37.1835 247.183 35.8925 248.286L36.5423 249.046C37.7938 247.977 39.1301 247.003 40.5397 246.137L40.0164 245.285ZM32.2864 251.893C31.1827 253.184 30.1784 254.562 29.2853 256.016L30.1375 256.54C31.0031 255.13 31.9766 253.794 33.0465 252.542L32.2864 251.893ZM26.9663 260.559C26.3196 262.119 25.7909 263.739 25.3911 265.41L26.3637 265.643C26.751 264.024 27.2634 262.453 27.89 260.942L26.9663 260.559ZM24.5987 270.448C24.5333 271.29 24.5 272.141 24.5 273H25.5C25.5 272.167 25.5323 271.342 25.5957 270.526L24.5987 270.448ZM24.5 273V275.538H25.5V273H24.5ZM24.5 280.613V285.689H25.5V280.613H24.5ZM24.5 290.765V295.84H25.5V290.765H24.5ZM24.5 300.916V305.991H25.5V300.916H24.5ZM24.5 311.067V316.143H25.5V311.067H24.5ZM24.5 321.218V326.294H25.5V321.218H24.5ZM24.5 331.369V336.445H25.5V331.369H24.5ZM24.5 341.521V346.596H25.5V341.521H24.5ZM24.5 351.672V354.209H25.5V351.672H24.5ZM24.5 354.209C24.5 355.04 24.5201 355.867 24.5598 356.688L25.5586 356.64C25.5197 355.835 25.5 355.024 25.5 354.209H24.5ZM25.0402 361.622C25.2826 363.27 25.6046 364.892 26.0022 366.484L26.9724 366.242C26.5827 364.681 26.2671 363.091 26.0295 361.476L25.0402 361.622ZM27.4394 371.228C27.9989 372.791 28.6332 374.319 29.338 375.806L30.2417 375.378C29.5509 373.92 28.9292 372.423 28.381 370.891L27.4394 371.228ZM31.6781 380.175C32.5309 381.595 33.4514 382.969 34.4353 384.294L35.238 383.698C34.2736 382.399 33.3712 381.052 32.5354 379.66L31.6781 380.175ZM37.5816 388.123C38.692 389.348 39.8617 390.517 41.0861 391.628L41.7579 390.887C40.5576 389.799 39.4109 388.652 38.3223 387.452L37.5816 388.123ZM44.9156 394.774C46.24 395.758 47.6144 396.679 49.0341 397.531L49.549 396.674C48.1574 395.838 46.8102 394.936 45.5119 393.971L44.9156 394.774ZM53.4033 399.871C54.8909 400.576 56.4185 401.211 57.9818 401.77L58.3187 400.829C56.7867 400.28 55.2895 399.659 53.8315 398.968L53.4033 399.871ZM62.7255 403.207C64.3178 403.605 65.94 403.927 67.588 404.169L67.7335 403.18C66.1182 402.942 64.5283 402.627 62.9678 402.237L62.7255 403.207ZM72.5215 404.65C73.3427 404.689 74.169 404.709 75 404.709V403.709C74.1851 403.709 73.3749 403.69 72.5697 403.651L72.5215 404.65ZM75 404.709H77.4137V403.709H75V404.709ZM82.241 404.709H87.0683V403.709H82.241V404.709ZM91.8956 404.709H96.7229V403.709H91.8956V404.709ZM101.55 404.709H106.377V403.709H101.55V404.709ZM111.205 404.709H116.032V403.709H111.205V404.709ZM120.859 404.709H125.687V403.709H120.859V404.709ZM130.514 404.709H135.341V403.709H130.514V404.709ZM140.169 404.709H144.996V403.709H140.169V404.709ZM149.823 404.709H154.651V403.709H149.823V404.709ZM159.478 404.709H164.305V403.709H159.478V404.709ZM169.132 404.709H173.96V403.709H169.132V404.709ZM178.787 404.709H183.614V403.709H178.787V404.709ZM188.442 404.709H190.855V403.709H188.442V404.709ZM190.855 404.709C191.904 404.709 192.952 404.743 193.997 404.809L194.061 403.811C192.995 403.743 191.925 403.709 190.855 403.709V404.709ZM200.231 405.606C201.26 405.804 202.282 406.035 203.298 406.299L203.549 405.331C202.513 405.062 201.47 404.826 200.421 404.624L200.231 405.606ZM203.298 406.299L205.847 406.961L206.098 405.993L203.549 405.331L203.298 406.299ZM210.945 408.285L216.044 409.609L216.295 408.641L211.197 407.317L210.945 408.285ZM221.143 410.933L226.241 412.257L226.492 411.289L221.394 409.965L221.143 410.933ZM231.34 413.581L236.438 414.905L236.689 413.937L231.591 412.613L231.34 413.581ZM241.537 416.229L246.635 417.553L246.887 416.585L241.788 415.261L241.537 416.229ZM251.734 418.877L256.832 420.202L257.084 419.234L251.985 417.91L251.734 418.877ZM261.931 421.526L267.029 422.85L267.281 421.882L262.182 420.558L261.931 421.526ZM272.128 424.174L277.227 425.498L277.478 424.53L272.379 423.206L272.128 424.174ZM282.325 426.822L284.874 427.484L285.126 426.516L282.576 425.854L282.325 426.822Z" fill="#9F9F9F"/>
<path d="M410.747 427.431C410.509 427.291 410.429 426.985 410.569 426.747L412.849 422.867C412.989 422.629 413.295 422.549 413.533 422.689C413.771 422.829 413.851 423.136 413.711 423.374L411.684 426.822L415.133 428.849C415.371 428.989 415.451 429.295 415.311 429.533C415.171 429.771 414.864 429.851 414.626 429.711L410.747 427.431ZM492.577 405.815L492.451 405.331L492.577 405.815ZM639 240.5C639.859 240.5 640.71 240.533 641.552 240.599L641.474 241.596C640.658 241.532 639.833 241.5 639 241.5V240.5ZM646.59 241.391C648.261 241.791 649.881 242.32 651.441 242.966L651.058 243.89C649.547 243.263 647.976 242.751 646.357 242.364L646.59 241.391ZM655.984 245.285C657.438 246.178 658.816 247.183 660.107 248.286L659.458 249.046C658.206 247.977 656.87 247.003 655.46 246.137L655.984 245.285ZM663.714 251.893C664.817 253.184 665.822 254.562 666.715 256.016L665.863 256.54C664.997 255.13 664.023 253.794 662.954 252.542L663.714 251.893ZM669.034 260.559C669.68 262.119 670.209 263.739 670.609 265.41L669.636 265.643C669.249 264.024 668.737 262.453 668.11 260.942L669.034 260.559ZM671.401 270.448C671.467 271.29 671.5 272.141 671.5 273H670.5C670.5 272.167 670.468 271.342 670.404 270.526L671.401 270.448ZM671.5 273V275.538H670.5V273H671.5ZM671.5 280.613V285.689H670.5V280.613H671.5ZM671.5 290.765V295.84H670.5V290.765H671.5ZM671.5 300.916V305.991H670.5V300.916H671.5ZM671.5 311.067V316.143H670.5V311.067H671.5ZM671.5 321.218V326.294H670.5V321.218H671.5ZM671.5 331.369V336.445H670.5V331.369H671.5ZM671.5 341.521V346.596H670.5V341.521H671.5ZM671.5 351.672V354.209H670.5V351.672H671.5ZM671.5 354.209C671.5 355.04 671.48 355.867 671.44 356.688L670.441 356.64C670.48 355.835 670.5 355.024 670.5 354.209H671.5ZM670.96 361.622C670.717 363.27 670.395 364.892 669.998 366.484L669.028 366.242C669.417 364.681 669.733 363.091 669.97 361.476L670.96 361.622ZM668.561 371.228C668.001 372.791 667.367 374.319 666.662 375.806L665.758 375.378C666.449 373.92 667.071 372.423 667.619 370.891L668.561 371.228ZM664.322 380.175C663.469 381.595 662.549 382.969 661.565 384.294L660.762 383.698C661.726 382.399 662.629 381.052 663.465 379.66L664.322 380.175ZM658.418 388.123C657.308 389.348 656.138 390.517 654.914 391.628L654.242 390.887C655.442 389.799 656.589 388.652 657.678 387.452L658.418 388.123ZM651.084 394.774C649.76 395.758 648.386 396.679 646.966 397.531L646.451 396.674C647.843 395.838 649.19 394.936 650.488 393.971L651.084 394.774ZM642.597 399.871C641.109 400.576 639.581 401.211 638.018 401.77L637.681 400.829C639.213 400.28 640.71 399.659 642.169 398.968L642.597 399.871ZM633.274 403.207C631.682 403.605 630.06 403.927 628.412 404.169L628.267 403.18C629.882 402.942 631.472 402.627 633.032 402.237L633.274 403.207ZM623.479 404.65C622.657 404.689 621.831 404.709 621 404.709V403.709C621.815 403.709 622.625 403.69 623.43 403.651L623.479 404.65ZM621 404.709H618.586V403.709H621V404.709ZM613.759 404.709H608.932V403.709H613.759V404.709ZM604.104 404.709H599.277V403.709H604.104V404.709ZM594.45 404.709H589.623V403.709H594.45V404.709ZM584.795 404.709H579.968V403.709H584.795V404.709ZM575.141 404.709H570.313V403.709H575.141V404.709ZM565.486 404.709H560.659V403.709H565.486V404.709ZM555.831 404.709H551.004V403.709H555.831V404.709ZM546.177 404.709H541.349V403.709H546.177V404.709ZM536.522 404.709H531.695V403.709H536.522V404.709ZM526.868 404.709H522.04V403.709H526.868V404.709ZM517.213 404.709H512.386V403.709H517.213V404.709ZM507.558 404.709H505.145V403.709H507.558V404.709ZM505.145 404.709C504.096 404.709 503.048 404.743 502.003 404.809L501.939 403.811C503.005 403.743 504.075 403.709 505.145 403.709V404.709ZM495.769 405.606C494.74 405.804 493.718 406.035 492.702 406.299L492.451 405.331C493.487 405.062 494.53 404.826 495.579 404.624L495.769 405.606ZM492.702 406.299L490.153 406.961L489.902 405.993L492.451 405.331L492.702 406.299ZM485.055 408.285L479.956 409.609L479.705 408.641L484.803 407.317L485.055 408.285ZM474.857 410.933L469.759 412.257L469.508 411.289L474.606 409.965L474.857 410.933ZM464.66 413.581L459.562 414.905L459.311 413.937L464.409 412.613L464.66 413.581ZM454.463 416.229L449.365 417.553L449.113 416.585L454.212 415.261L454.463 416.229ZM444.266 418.877L439.168 420.202L438.916 419.234L444.015 417.91L444.266 418.877ZM434.069 421.526L428.971 422.85L428.719 421.882L433.818 420.558L434.069 421.526ZM423.872 424.174L418.773 425.498L418.522 424.53L423.621 423.206L423.872 424.174ZM413.675 426.822L411.126 427.484L410.874 426.516L413.424 425.854L413.675 426.822Z" fill="#9F9F9F"/>
<g filter="url(#filter0_f_4501_714)">
<path d="M397.996 480.935L379.53 491.723L373.848 488.316L380.098 484.626L373.848 480.935L367.314 484.626L361.064 480.935L367.883 476.961L361.633 473.271L367.883 469.581L374.132 473.271L379.53 470.148L397.996 480.935Z" fill="#E3EDE4"/>
</g>
<g filter="url(#filter1_f_4501_714)">
<path d="M298 480.935L316.466 491.723L322.148 488.316L315.898 484.626L322.148 480.935L328.682 484.626L334.932 480.935L328.114 476.961L334.363 473.271L328.114 469.581L321.864 473.271L316.466 470.148L298 480.935Z" fill="#E3EDE4"/>
</g>
<g filter="url(#filter2_f_4501_714)">
<path d="M330.383 457.658L348.849 446.871L367.314 457.658L361.065 461.348L354.531 457.658L348.281 461.348L354.531 465.039L348.849 468.445L343.451 465.323L336.917 469.013L330.667 465.323L336.917 461.632L330.383 457.658Z" fill="#E3EDE4"/>
</g>
<g filter="url(#filter3_f_4501_714)">
<path d="M366.748 504.213L348.282 515L329.816 504.213L336.066 500.523L342.6 504.213L348.85 500.523L342.6 496.832L348.282 493.426L353.68 496.548L360.214 492.858L366.463 496.548L360.214 500.239L366.748 504.213Z" fill="#E3EDE4"/>
</g>
<path d="M367.086 437.785L367.086 445.732L348.62 456.494L348.62 448.574L367.086 437.785Z" fill="#68C466"/>
<path d="M330.154 437.785L330.154 445.732L348.62 456.494L348.62 448.574L330.154 437.785Z" fill="#C2F397"/>
<path d="M348.62 427L367.085 437.787H330.154L348.62 427Z" fill="#87DA8C"/>
<path d="M348.62 448.574L330.155 437.787L367.086 437.787L348.62 448.574Z" fill="#87DA8C"/>
<path d="M342.656 444.943L342.656 452.89L336.238 456.612L336.238 448.692L342.656 444.943Z" fill="#68C466"/>
<path d="M329.82 444.943L329.82 452.89L336.238 456.612L336.238 448.692L329.82 444.943Z" fill="#C2F397"/>
<path d="M336.238 441.194L342.656 444.943H329.82L336.238 441.194Z" fill="#87DA8C"/>
<path d="M336.238 448.692L329.82 444.943L342.656 444.943L336.238 448.692Z" fill="#87DA8C"/>
<path d="M354.25 437.901V445.281L348 441.591L354.25 437.901Z" fill="#68C466"/>
<path d="M354.252 437.902L354.252 445.849L360.67 449.572L360.67 441.651L354.252 437.902Z" fill="#C2F397"/>
<path d="M354.25 445.849V453.286L360.67 449.568L354.25 445.849Z" fill="#E3EDE4"/>
<path d="M374.473 454.027L374.473 461.649L368.055 465.373L368.055 457.776L374.473 454.027Z" fill="#68C466"/>
<path d="M361.637 454.027L361.637 461.649L368.055 465.373L368.055 457.776L361.637 454.027Z" fill="#C2F397"/>
<path d="M368.055 450.277L374.473 454.027H361.637L368.055 450.277Z" fill="#87DA8C"/>
<path d="M368.055 457.776L361.637 454.027L374.473 454.027L368.055 457.776Z" fill="#87DA8C"/>
<path d="M397.998 461.63L397.998 469.577L379.532 480.34L379.532 472.419L397.998 461.63Z" fill="#68C466"/>
<path d="M361.066 461.63L361.066 469.577L379.532 480.34L379.532 472.419L361.066 461.63Z" fill="#C2F397"/>
<path d="M379.532 450.845L397.998 461.632H361.066L379.532 450.845Z" fill="#87DA8C"/>
<path d="M379.532 472.419L361.067 461.632L397.998 461.632L379.532 472.419Z" fill="#87DA8C"/>
<path d="M373.736 461.632V469.013L379.986 465.323L373.736 461.632Z" fill="#C2F397"/>
<path d="M373.736 469.467V476.904L367.316 473.186L373.736 469.467Z" fill="#E3EDE4"/>
<path d="M373.734 461.633L373.734 469.581L367.316 473.303L367.316 465.383L373.734 461.633Z" fill="#68C466"/>
<path d="M298 461.63L298 469.577L316.466 480.34L316.466 472.419L298 461.63Z" fill="#C2F397"/>
<path d="M334.932 461.63L334.932 469.577L316.466 480.34L316.466 472.419L334.932 461.63Z" fill="#68C466"/>
<path d="M316.466 450.845L298 461.632H334.932L316.466 450.845Z" fill="#87DA8C"/>
<path d="M316.466 472.419L334.931 461.632L298 461.632L316.466 472.419Z" fill="#87DA8C"/>
<path d="M322.264 454.252L315.846 458.001H328.682L322.264 454.252Z" fill="#F9F9FB"/>
<path d="M322.264 461.75L328.682 458.001L315.846 458.001L322.264 461.75Z" fill="#F9F9FB"/>
<path d="M322.146 454.308V461.689L315.897 457.999L322.146 454.308Z" fill="#68C466"/>
<path d="M322.43 468.788L322.43 476.735L328.848 480.458L328.848 472.537L322.43 468.788Z" fill="#C2F397"/>
<path d="M335.266 468.788L335.266 476.735L328.848 480.458L328.848 472.537L335.266 468.788Z" fill="#68C466"/>
<path d="M328.848 465.039L322.43 468.788H335.266L328.848 465.039Z" fill="#87DA8C"/>
<path d="M328.848 472.537L335.266 468.788L322.43 468.788L328.848 472.537Z" fill="#87DA8C"/>
<path d="M366.516 477.872L366.516 485.495L360.098 489.218L360.098 481.621L366.516 477.872Z" fill="#68C466"/>
<path d="M353.68 477.872L353.68 485.495L360.098 489.218L360.098 481.621L353.68 477.872Z" fill="#C2F397"/>
<path d="M360.098 474.123L366.516 477.872H353.68L360.098 474.123Z" fill="#87DA8C"/>
<path d="M360.098 481.621L353.68 477.872L366.516 477.872L360.098 481.621Z" fill="#87DA8C"/>
<path d="M366.748 485.475L366.748 493.422L348.282 504.185L348.282 496.264L366.748 485.475Z" fill="#68C466"/>
<path d="M329.816 485.475L329.816 493.422L348.282 504.185L348.282 496.264L329.816 485.475Z" fill="#C2F397"/>
<path d="M348.282 474.69L366.748 485.477H329.816L348.282 474.69Z" fill="#87DA8C"/>
<path d="M348.282 496.265L329.817 485.477L366.748 485.477L348.282 496.265Z" fill="#87DA8C"/>
<path d="M342.484 478.097L348.902 481.846H336.066L342.484 478.097Z" fill="#F9F9FB"/>
<path d="M342.484 485.595L336.066 481.846L348.902 481.846L342.484 485.595Z" fill="#F9F9FB"/>
<path d="M342.602 478.154V485.534L348.851 481.844L342.602 478.154Z" fill="#C2F397"/>
<defs>
<filter id="filter0_f_4501_714" x="359.928" y="468.444" width="39.2043" height="24.4146" filterUnits="userSpaceOnUse" color-interpolation-filters="sRGB">
<feFlood flood-opacity="0" result="BackgroundImageFix"/>
<feBlend mode="normal" in="SourceGraphic" in2="BackgroundImageFix" result="shape"/>
<feGaussianBlur stdDeviation="0.568172" result="effect1_foregroundBlur_4501_714"/>
</filter>
<filter id="filter1_f_4501_714" x="296.864" y="468.444" width="39.2043" height="24.4146" filterUnits="userSpaceOnUse" color-interpolation-filters="sRGB">
<feFlood flood-opacity="0" result="BackgroundImageFix"/>
<feBlend mode="normal" in="SourceGraphic" in2="BackgroundImageFix" result="shape"/>
<feGaussianBlur stdDeviation="0.568172" result="effect1_foregroundBlur_4501_714"/>
</filter>
<filter id="filter2_f_4501_714" x="329.246" y="445.735" width="39.2043" height="24.4146" filterUnits="userSpaceOnUse" color-interpolation-filters="sRGB">
<feFlood flood-opacity="0" result="BackgroundImageFix"/>
<feBlend mode="normal" in="SourceGraphic" in2="BackgroundImageFix" result="shape"/>
<feGaussianBlur stdDeviation="0.568172" result="effect1_foregroundBlur_4501_714"/>
</filter>
<filter id="filter3_f_4501_714" x="328.68" y="491.722" width="39.2043" height="24.4146" filterUnits="userSpaceOnUse" color-interpolation-filters="sRGB">
<feFlood flood-opacity="0" result="BackgroundImageFix"/>
<feBlend mode="normal" in="SourceGraphic" in2="BackgroundImageFix" result="shape"/>
<feGaussianBlur stdDeviation="0.568172" result="effect1_foregroundBlur_4501_714"/>
</filter>
</defs>
</svg>
