<svg width="347" height="970" viewBox="0 0 347 970" fill="none" xmlns="http://www.w3.org/2000/svg">
<path d="M95.4995 939.425C95.487 939.149 95.2533 938.936 94.9775 938.948L90.482 939.151C90.2062 939.163 89.9926 939.397 90.0051 939.673C90.0175 939.949 90.2513 940.162 90.5271 940.15L94.5231 939.97L94.7034 943.965C94.7159 944.241 94.9496 944.455 95.2254 944.442C95.5013 944.43 95.7148 944.196 95.7024 943.92L95.4995 939.425ZM73.9476 962.49L74.3168 962.827L73.9476 962.49ZM31.0128 0.5H28.5096V1.5H31.0128V0.5ZM23.5032 0.5H21V1.5H23.5032V0.5ZM21 0.5C20.093 0.5 19.1995 0.558937 18.3231 0.673246L18.4525 1.66485C19.286 1.55612 20.1363 1.5 21 1.5V0.5ZM13.1527 2.05575C11.4858 2.74697 9.93013 3.65165 8.51965 4.73555L9.12898 5.52847C10.471 4.49721 11.9507 3.63676 13.5358 2.97947L13.1527 2.05575ZM4.73555 8.51965C3.65165 9.93014 2.74697 11.4858 2.05575 13.1527L2.97947 13.5358C3.63676 11.9507 4.49721 10.471 5.52847 9.12898L4.73555 8.51965ZM0.673246 18.3231C0.558937 19.1995 0.5 20.093 0.5 21H1.5C1.5 20.1363 1.55612 19.286 1.66485 18.4525L0.673246 18.3231ZM0.5 21V23.4946H1.5V21H0.5ZM0.5 28.4839V33.4731H1.5V28.4839H0.5ZM0.5 38.4624V43.4516H1.5V38.4624H0.5ZM0.5 48.4409V53.4301H1.5V48.4409H0.5ZM0.5 58.4193V63.4086H1.5V58.4193H0.5ZM0.5 68.3978V73.3871H1.5V68.3978H0.5ZM0.5 78.3763V83.3656H1.5V78.3763H0.5ZM0.5 88.3548V93.3441H1.5V88.3548H0.5ZM0.5 98.3333V103.323H1.5V98.3333H0.5ZM0.5 108.312V113.301H1.5V108.312H0.5ZM0.5 118.29V123.28H1.5V118.29H0.5ZM0.5 128.269V133.258H1.5V128.269H0.5ZM0.5 138.247V143.237H1.5V138.247H0.5ZM0.5 148.226V153.215H1.5V148.226H0.5ZM0.5 158.204V163.194H1.5V158.204H0.5ZM0.5 168.183V173.172H1.5V168.183H0.5ZM0.5 178.161V183.151H1.5V178.161H0.5ZM0.5 188.14V193.129H1.5V188.14H0.5ZM0.5 198.118V203.107H1.5V198.118H0.5ZM0.5 208.097V213.086H1.5V208.097H0.5ZM0.5 218.075V223.064H1.5V218.075H0.5ZM0.5 228.054V233.043H1.5V228.054H0.5ZM0.5 238.032V243.021H1.5V238.032H0.5ZM0.5 248.011V253H1.5V248.011H0.5ZM0.5 257.989V262.978H1.5V257.989H0.5ZM0.5 267.968V272.957H1.5V267.968H0.5ZM0.5 277.946V282.935H1.5V277.946H0.5ZM0.5 287.925V292.914H1.5V287.925H0.5ZM0.5 297.903V302.892H1.5V297.903H0.5ZM0.5 307.882V312.871H1.5V307.882H0.5ZM0.5 317.86V322.849H1.5V317.86H0.5ZM0.5 327.839V332.828H1.5V327.839H0.5ZM0.5 337.817V342.806H1.5V337.817H0.5ZM0.5 347.796V352.785H1.5V347.796H0.5ZM0.5 357.774V362.764H1.5V357.774H0.5ZM0.5 367.753V372.742H1.5V367.753H0.5ZM0.5 377.731V382.721H1.5V377.731H0.5ZM0.5 387.71V392.699H1.5V387.71H0.5ZM0.5 397.688V402.678H1.5V397.688H0.5ZM0.5 407.667V412.656H1.5V407.667H0.5ZM0.5 417.645V422.635H1.5V417.645H0.5ZM0.5 427.624V432.613H1.5V427.624H0.5ZM0.5 437.602V442.592H1.5V437.602H0.5ZM0.5 447.581V452.57H1.5V447.581H0.5ZM0.5 457.559V462.549H1.5V457.559H0.5ZM0.5 467.538V472.527H1.5V467.538H0.5ZM0.5 477.516V482.506H1.5V477.516H0.5ZM0.5 487.495V492.484H1.5V487.495H0.5ZM0.5 497.474V502.463H1.5V497.474H0.5ZM0.5 507.452V512.441H1.5V507.452H0.5ZM0.5 517.431V522.42H1.5V517.431H0.5ZM0.5 527.409V532.398H1.5V527.409H0.5ZM0.5 537.388V542.377H1.5V537.388H0.5ZM0.5 547.366V552.355H1.5V547.366H0.5ZM0.5 557.345V562.334H1.5V557.345H0.5ZM0.5 567.323V572.312H1.5V567.323H0.5ZM0.5 577.302V582.291H1.5V577.302H0.5ZM0.5 587.28V592.269H1.5V587.28H0.5ZM0.5 597.259V602.248H1.5V597.259H0.5ZM0.5 607.237V612.226H1.5V607.237H0.5ZM0.5 617.216V622.205H1.5V617.216H0.5ZM0.5 627.194V632.183H1.5V627.194H0.5ZM0.5 637.173V642.162H1.5V637.173H0.5ZM0.5 647.151V652.14H1.5V647.151H0.5ZM0.5 657.13V662.119H1.5V657.13H0.5ZM0.5 667.108V672.097H1.5V667.108H0.5ZM0.5 677.087V682.076H1.5V677.087H0.5ZM0.5 687.065V692.055H1.5V687.065H0.5ZM0.5 697.044V702.033H1.5V697.044H0.5ZM0.5 707.022V712.012H1.5V707.022H0.5ZM0.5 717.001V721.99H1.5V717.001H0.5ZM0.5 726.979V731.969H1.5V726.979H0.5ZM0.5 736.958V741.947H1.5V736.958H0.5ZM0.5 746.936V751.926H1.5V746.936H0.5ZM0.5 756.915V761.904H1.5V756.915H0.5ZM0.5 766.893V771.883H1.5V766.893H0.5ZM0.5 776.872V781.861H1.5V776.872H0.5ZM0.5 786.85V791.84H1.5V786.85H0.5ZM0.5 796.829V801.818H1.5V796.829H0.5ZM0.5 806.807V811.797H1.5V806.807H0.5ZM0.5 816.786V821.775H1.5V816.786H0.5ZM0.5 826.764V831.754H1.5V826.764H0.5ZM0.5 836.743V841.732H1.5V836.743H0.5ZM0.5 846.722V851.711H1.5V846.722H0.5ZM0.5 856.7V861.689H1.5V856.7H0.5ZM0.5 866.679V871.668H1.5V866.679H0.5ZM0.5 876.657V881.646H1.5V876.657H0.5ZM0.5 886.636V891.625H1.5V886.636H0.5ZM0.5 896.614V901.603H1.5V896.614H0.5ZM0.5 906.593V911.582H1.5V906.593H0.5ZM0.5 916.571V921.56H1.5V916.571H0.5ZM0.5 926.55V931.539H1.5V926.55H0.5ZM0.5 936.528V941.517H1.5V936.528H0.5ZM0.5 946.507V949H1.5V946.507H0.5ZM0.5 949C0.5 949.907 0.558937 950.801 0.673246 951.677L1.66485 951.548C1.55612 950.714 1.5 949.864 1.5 949H0.5ZM2.05575 956.847C2.74697 958.514 3.65165 960.07 4.73555 961.48L5.52847 960.871C4.49721 959.529 3.63676 958.049 2.97947 956.464L2.05575 956.847ZM8.51965 965.264C9.93014 966.348 11.4858 967.253 13.1527 967.944L13.5358 967.021C11.9507 966.363 10.471 965.503 9.12898 964.472L8.51965 965.264ZM18.3231 969.327C19.1995 969.441 20.093 969.5 21 969.5V968.5C20.1363 968.5 19.286 968.444 18.4525 968.335L18.3231 969.327ZM21 969.5H23.3864V968.5H21V969.5ZM28.1592 969.5H32.9319V968.5H28.1592V969.5ZM37.7047 969.5H42.4775V968.5H37.7047V969.5ZM47.2503 969.5H52.0231V968.5H47.2503V969.5ZM56.7958 969.5H59.1822V968.5H56.7958V969.5ZM59.1822 969.5C59.8952 969.5 60.6042 969.463 61.3066 969.39L61.203 968.395C60.5349 968.465 59.8605 968.5 59.1822 968.5V969.5ZM65.464 968.514C66.8157 968.079 68.1187 967.504 69.3516 966.8L68.8556 965.932C67.6827 966.602 66.4433 967.148 65.1576 967.562L65.464 968.514ZM72.8025 964.321C73.3302 963.852 73.8358 963.354 74.3168 962.827L73.5785 962.153C73.121 962.654 72.64 963.128 72.138 963.574L72.8025 964.321ZM74.3168 962.827L76.0711 960.907L75.3329 960.233L73.5785 962.153L74.3168 962.827ZM79.5799 957.067L83.0886 953.226L82.3503 952.552L78.8416 956.392L79.5799 957.067ZM86.5973 949.386L90.106 945.545L89.3678 944.871L85.859 948.711L86.5973 949.386ZM93.6148 941.705L95.3691 939.785L94.6309 939.11L92.8765 941.03L93.6148 941.705Z" fill="#9F9F9F"/>
<path d="M251.5 940.236C251.512 939.96 251.744 939.746 252.02 939.757L256.517 939.939C256.792 939.951 257.007 940.183 256.996 940.459C256.985 940.735 256.752 940.95 256.476 940.939L252.479 940.776L252.317 944.773C252.306 945.049 252.073 945.263 251.797 945.252C251.521 945.241 251.307 945.008 251.318 944.732L251.5 940.236ZM272.56 962.557L272.192 962.896L272.56 962.557ZM315.987 227.5H318.49V228.5H315.987V227.5ZM323.497 227.5H326V228.5H323.497V227.5ZM326 227.5C326.907 227.5 327.801 227.559 328.677 227.673L328.548 228.665C327.714 228.556 326.864 228.5 326 228.5V227.5ZM333.847 229.056C335.514 229.747 337.07 230.652 338.48 231.736L337.871 232.528C336.529 231.497 335.049 230.637 333.464 229.979L333.847 229.056ZM342.264 235.52C343.348 236.93 344.253 238.486 344.944 240.153L344.021 240.536C343.363 238.951 342.503 237.471 341.472 236.129L342.264 235.52ZM346.327 245.323C346.441 246.199 346.5 247.093 346.5 248H345.5C345.5 247.136 345.444 246.286 345.335 245.452L346.327 245.323ZM346.5 248V250.504H345.5V248H346.5ZM346.5 255.511V260.518H345.5V255.511H346.5ZM346.5 265.525V270.532H345.5V265.525H346.5ZM346.5 275.539V280.546H345.5V275.539H346.5ZM346.5 285.554V290.561H345.5V285.554H346.5ZM346.5 295.568V300.575H345.5V295.568H346.5ZM346.5 305.582V310.589H345.5V305.582H346.5ZM346.5 315.596V320.604H345.5V315.596H346.5ZM346.5 325.611V330.618H345.5V325.611H346.5ZM346.5 335.625V340.632H345.5V335.625H346.5ZM346.5 345.639V350.646H345.5V345.639H346.5ZM346.5 355.654V360.661H345.5V355.654H346.5ZM346.5 365.668V370.675H345.5V365.668H346.5ZM346.5 375.682V380.689H345.5V375.682H346.5ZM346.5 385.696V390.704H345.5V385.696H346.5ZM346.5 395.711V400.718H345.5V395.711H346.5ZM346.5 405.725V410.732H345.5V405.725H346.5ZM346.5 415.739V420.746H345.5V415.739H346.5ZM346.5 425.754V430.761H345.5V425.754H346.5ZM346.5 435.768V440.775H345.5V435.768H346.5ZM346.5 445.782V450.789H345.5V445.782H346.5ZM346.5 455.796V460.804H345.5V455.796H346.5ZM346.5 465.811V470.818H345.5V465.811H346.5ZM346.5 475.825V480.832H345.5V475.825H346.5ZM346.5 485.839V490.846H345.5V485.839H346.5ZM346.5 495.854V500.861H345.5V495.854H346.5ZM346.5 505.868V510.875H345.5V505.868H346.5ZM346.5 515.882V520.889H345.5V515.882H346.5ZM346.5 525.896V530.904H345.5V525.896H346.5ZM346.5 535.911V540.918H345.5V535.911H346.5ZM346.5 545.925V550.932H345.5V545.925H346.5ZM346.5 555.939V560.946H345.5V555.939H346.5ZM346.5 565.953V570.961H345.5V565.953H346.5ZM346.5 575.968V580.975H345.5V575.968H346.5ZM346.5 585.982V590.989H345.5V585.982H346.5ZM346.5 595.996V601.003H345.5V595.996H346.5ZM346.5 606.011V611.018H345.5V606.011H346.5ZM346.5 616.025V621.032H345.5V616.025H346.5ZM346.5 626.039V631.046H345.5V626.039H346.5ZM346.5 636.053V641.061H345.5V636.053H346.5ZM346.5 646.068V651.075H345.5V646.068H346.5ZM346.5 656.082V661.089H345.5V656.082H346.5ZM346.5 666.096V671.103H345.5V666.096H346.5ZM346.5 676.111V681.118H345.5V676.111H346.5ZM346.5 686.125V691.132H345.5V686.125H346.5ZM346.5 696.139V701.146H345.5V696.139H346.5ZM346.5 706.153V711.161H345.5V706.153H346.5ZM346.5 716.168V721.175H345.5V716.168H346.5ZM346.5 726.182V731.189H345.5V726.182H346.5ZM346.5 736.196V741.203H345.5V736.196H346.5ZM346.5 746.211V751.218H345.5V746.211H346.5ZM346.5 756.225V761.232H345.5V756.225H346.5ZM346.5 766.239V771.246H345.5V766.239H346.5ZM346.5 776.253V781.261H345.5V776.253H346.5ZM346.5 786.268V791.275H345.5V786.268H346.5ZM346.5 796.282V801.289H345.5V796.282H346.5ZM346.5 806.296V811.303H345.5V806.296H346.5ZM346.5 816.311V821.318H345.5V816.311H346.5ZM346.5 826.325V831.332H345.5V826.325H346.5ZM346.5 836.339V841.346H345.5V836.339H346.5ZM346.5 846.353V851.361H345.5V846.353H346.5ZM346.5 856.368V861.375H345.5V856.368H346.5ZM346.5 866.382V871.389H345.5V866.382H346.5ZM346.5 876.396V881.403H345.5V876.396H346.5ZM346.5 886.411V891.418H345.5V886.411H346.5ZM346.5 896.425V901.432H345.5V896.425H346.5ZM346.5 906.439V911.446H345.5V906.439H346.5ZM346.5 916.453V921.461H345.5V916.453H346.5ZM346.5 926.468V931.475H345.5V926.468H346.5ZM346.5 936.482V941.489H345.5V936.482H346.5ZM346.5 946.496V949H345.5V946.496H346.5ZM346.5 949C346.5 949.907 346.441 950.801 346.327 951.677L345.335 951.548C345.444 950.714 345.5 949.864 345.5 949H346.5ZM344.944 956.847C344.253 958.514 343.348 960.07 342.264 961.48L341.472 960.871C342.503 959.529 343.363 958.049 344.021 956.464L344.944 956.847ZM338.48 965.264C337.07 966.348 335.514 967.253 333.847 967.944L333.464 967.021C335.049 966.363 336.529 965.503 337.871 964.472L338.48 965.264ZM328.677 969.327C327.801 969.441 326.907 969.5 326 969.5V968.5C326.864 968.5 327.714 968.444 328.548 968.335L328.677 969.327ZM326 969.5H323.579V968.5H326V969.5ZM318.737 969.5H313.895V968.5H318.737V969.5ZM309.053 969.5H304.211V968.5H309.053V969.5ZM299.369 969.5H294.527V968.5H299.369V969.5ZM289.685 969.5H287.264V968.5H289.685V969.5ZM287.264 969.5C286.555 969.5 285.85 969.463 285.151 969.391L285.254 968.396C285.919 968.465 286.589 968.5 287.264 968.5V969.5ZM281.015 968.524C279.67 968.094 278.373 967.526 277.145 966.828L277.638 965.959C278.807 966.622 280.041 967.163 281.32 967.572L281.015 968.524ZM273.704 964.375C273.178 963.91 272.673 963.417 272.192 962.896L272.927 962.218C273.384 962.714 273.865 963.183 274.366 963.625L273.704 964.375ZM272.192 962.896L270.479 961.037L271.214 960.359L272.927 962.218L272.192 962.896ZM267.052 957.32L263.625 953.604L264.361 952.926L267.787 956.643L267.052 957.32ZM260.199 949.887L256.772 946.17L257.507 945.493L260.934 949.209L260.199 949.887ZM253.346 942.454L251.632 940.595L252.368 939.917L254.081 941.776L253.346 942.454Z" fill="#9F9F9F"/>
<path d="M95.0434 862.498C95.3185 862.474 95.5221 862.232 95.4981 861.957L95.1073 857.474C95.0833 857.198 94.8408 856.995 94.5657 857.019C94.2906 857.043 94.0871 857.285 94.1111 857.56L94.4585 861.545L90.4736 861.893C90.1985 861.917 89.9949 862.159 90.0189 862.434C90.0429 862.709 90.2853 862.913 90.5604 862.889L95.0434 862.498ZM74.5876 844.861L74.2661 845.244L74.5876 844.861ZM31 454.5C30.099 454.5 29.2182 454.588 28.3659 454.757L28.5599 455.738C29.3487 455.582 30.1645 455.5 31 455.5V454.5ZM23.4988 456.774C22.0269 457.76 20.7596 459.027 19.7742 460.499L20.6051 461.055C21.5179 459.692 22.6918 458.518 24.0552 457.605L23.4988 456.774ZM17.7569 465.366C17.5883 466.218 17.5 467.099 17.5 468H18.5C18.5 467.165 18.5819 466.349 18.7379 465.56L17.7569 465.366ZM17.5 468V470.516H18.5V468H17.5ZM17.5 475.547V480.578H18.5V475.547H17.5ZM17.5 485.609V490.64H18.5V485.609H17.5ZM17.5 495.671V500.702H18.5V495.671H17.5ZM17.5 505.733V510.765H18.5V505.733H17.5ZM17.5 515.796V520.827H18.5V515.796H17.5ZM17.5 525.858V530.889H18.5V525.858H17.5ZM17.5 535.92V540.951H18.5V535.92H17.5ZM17.5 545.982V551.013H18.5V545.982H17.5ZM17.5 556.045V561.076H18.5V556.045H17.5ZM17.5 566.107V571.138H18.5V566.107H17.5ZM17.5 576.169V581.2H18.5V576.169H17.5ZM17.5 586.231V591.262H18.5V586.231H17.5ZM17.5 596.294V601.325H18.5V596.294H17.5ZM17.5 606.356V611.387H18.5V606.356H17.5ZM17.5 616.418V621.449H18.5V616.418H17.5ZM17.5 626.48V631.511H18.5V626.48H17.5ZM17.5 636.542V641.574H18.5V636.542H17.5ZM17.5 646.605V651.636H18.5V646.605H17.5ZM17.5 656.667V661.698H18.5V656.667H17.5ZM17.5 666.729V671.76H18.5V666.729H17.5ZM17.5 676.791V681.822H18.5V676.791H17.5ZM17.5 686.854V691.885H18.5V686.854H17.5ZM17.5 696.916V701.947H18.5V696.916H17.5ZM17.5 706.978V712.009H18.5V706.978H17.5ZM17.5 717.04V722.071H18.5V717.04H17.5ZM17.5 727.102V732.134H18.5V727.102H17.5ZM17.5 737.165V742.196H18.5V737.165H17.5ZM17.5 747.227V752.258H18.5V747.227H17.5ZM17.5 757.289V762.32H18.5V757.289H17.5ZM17.5 767.352V772.383H18.5V767.352H17.5ZM17.5 777.414V782.445H18.5V777.414H17.5ZM17.5 787.476V792.507H18.5V787.476H17.5ZM17.5 797.538V802.569H18.5V797.538H17.5ZM17.5 807.601V812.632H18.5V807.601H17.5ZM17.5 817.663V820.178H18.5V817.663H17.5ZM17.5 820.178C17.5 821.085 17.5589 821.979 17.6732 822.855L18.6648 822.726C18.5561 821.892 18.5 821.042 18.5 820.178H17.5ZM19.0557 828.026C19.747 829.692 20.6517 831.248 21.7356 832.659L22.5285 832.049C21.4972 830.707 20.6368 829.228 19.9795 827.643L19.0557 828.026ZM25.5197 836.443C26.9301 837.527 28.4859 838.431 30.1527 839.123L30.5358 838.199C28.9507 837.542 27.471 836.681 26.129 835.65L25.5197 836.443ZM35.3231 840.505C36.1995 840.619 37.093 840.678 38 840.678V839.678C37.1363 839.678 36.286 839.622 35.4525 839.513L35.3231 840.505ZM38 840.678H40.9659V839.678H38V840.678ZM46.8977 840.678H52.8295V839.678H46.8977V840.678ZM58.7613 840.678H61.7272V839.678H58.7613V840.678ZM61.7272 840.678C62.8696 840.678 64.0028 840.779 65.1148 840.975L65.2886 839.99C64.1195 839.784 62.9281 839.678 61.7272 839.678V840.678ZM71.4811 843.293C72.4589 843.858 73.3913 844.51 74.2661 845.244L74.9092 844.478C73.9895 843.706 73.0093 843.021 71.9813 842.427L71.4811 843.293ZM74.2661 845.244L75.9672 846.672L76.6102 845.907L74.9092 844.478L74.2661 845.244ZM79.3692 849.529L82.7713 852.385L83.4143 851.62L80.0122 848.763L79.3692 849.529ZM86.1733 855.242L89.5754 858.098L90.2184 857.332L86.8164 854.476L86.1733 855.242ZM92.9775 860.955L94.6785 862.383L95.3215 861.617L93.6205 860.189L92.9775 860.955Z" fill="#9F9F9F"/>
<path d="M251.959 862.498C251.684 862.476 251.479 862.234 251.502 861.959L251.869 857.474C251.891 857.199 252.133 856.994 252.408 857.017C252.683 857.039 252.888 857.281 252.866 857.556L252.539 861.542L256.526 861.869C256.801 861.891 257.006 862.133 256.983 862.408C256.961 862.683 256.719 862.888 256.444 862.866L251.959 862.498ZM272.392 844.695L272.068 844.314L272.392 844.695ZM316 681.5C316.901 681.5 317.782 681.588 318.634 681.757L318.44 682.738C317.651 682.582 316.835 682.5 316 682.5V681.5ZM323.501 683.774C324.973 684.76 326.24 686.027 327.226 687.499L326.395 688.055C325.482 686.692 324.308 685.518 322.945 684.605L323.501 683.774ZM329.243 692.366C329.412 693.218 329.5 694.099 329.5 695H328.5C328.5 694.165 328.418 693.349 328.262 692.56L329.243 692.366ZM329.5 695V697.603H328.5V695H329.5ZM329.5 702.809V708.015H328.5V702.809H329.5ZM329.5 713.221V718.427H328.5V713.221H329.5ZM329.5 723.633V728.839H328.5V723.633H329.5ZM329.5 734.045V739.251H328.5V734.045H329.5ZM329.5 744.457V749.663H328.5V744.457H329.5ZM329.5 754.869V760.075H328.5V754.869H329.5ZM329.5 765.281V770.487H328.5V765.281H329.5ZM329.5 775.693V780.899H328.5V775.693H329.5ZM329.5 786.106V791.312H328.5V786.106H329.5ZM329.5 796.518V801.724H328.5V796.518H329.5ZM329.5 806.93V812.136H328.5V806.93H329.5ZM329.5 817.342V819.945H328.5V817.342H329.5ZM329.5 819.945C329.5 820.852 329.441 821.745 329.327 822.622L328.335 822.492C328.444 821.659 328.5 820.808 328.5 819.945H329.5ZM327.944 827.792C327.253 829.459 326.348 831.015 325.264 832.425L324.472 831.816C325.503 830.474 326.363 828.994 327.021 827.409L327.944 827.792ZM321.48 836.209C320.07 837.293 318.514 838.198 316.847 838.889L316.464 837.965C318.049 837.308 319.529 836.447 320.871 835.416L321.48 836.209ZM311.677 840.271C310.801 840.386 309.907 840.445 309 840.445V839.445C309.864 839.445 310.714 839.389 311.548 839.28L311.677 840.271ZM309 840.445H306.042V839.445H309V840.445ZM300.125 840.445H294.208V839.445H300.125V840.445ZM288.291 840.445H285.332V839.445H288.291V840.445ZM285.332 840.445C284.181 840.445 283.04 840.546 281.919 840.746L281.744 839.761C282.922 839.552 284.122 839.445 285.332 839.445V840.445ZM275.512 843.098C274.529 843.671 273.593 844.332 272.715 845.077L272.068 844.314C272.991 843.531 273.975 842.836 275.008 842.234L275.512 843.098ZM272.715 845.077L271.016 846.519L270.369 845.756L272.068 844.314L272.715 845.077ZM267.617 849.403L264.219 852.287L263.572 851.524L266.97 848.64L267.617 849.403ZM260.82 855.171L257.421 858.055L256.774 857.293L260.173 854.409L260.82 855.171ZM254.023 860.939L252.324 862.381L251.676 861.619L253.376 860.177L254.023 860.939Z" fill="#9F9F9F"/>
<g filter="url(#filter0_f_4501_714)">
<path d="M224 915.935L205.534 926.723L199.852 923.316L206.102 919.626L199.852 915.935L193.318 919.626L187.068 915.935L193.886 911.961L187.637 908.271L193.886 904.581L200.136 908.271L205.534 905.148L224 915.935Z" fill="#E3EDE4"/>
</g>
<g filter="url(#filter1_f_4501_714)">
<path d="M124.004 915.935L142.47 926.723L148.152 923.316L141.902 919.626L148.152 915.935L154.686 919.626L160.936 915.935L154.117 911.961L160.367 908.271L154.117 904.581L147.868 908.271L142.47 905.148L124.004 915.935Z" fill="#E3EDE4"/>
</g>
<g filter="url(#filter2_f_4501_714)">
<path d="M156.387 892.658L174.853 881.871L193.318 892.658L187.068 896.348L180.534 892.658L174.285 896.348L180.534 900.039L174.853 903.445L169.455 900.323L162.921 904.013L156.671 900.323L162.921 896.632L156.387 892.658Z" fill="#E3EDE4"/>
</g>
<g filter="url(#filter3_f_4501_714)">
<path d="M192.751 939.213L174.286 950L155.82 939.213L162.07 935.523L168.604 939.213L174.854 935.523L168.604 931.832L174.286 928.426L179.684 931.548L186.217 927.858L192.467 931.548L186.217 935.239L192.751 939.213Z" fill="#E3EDE4"/>
</g>
<path d="M193.09 872.785L193.09 880.732L174.624 891.494L174.624 883.574L193.09 872.785Z" fill="#68C466"/>
<path d="M156.158 872.785L156.158 880.732L174.624 891.494L174.624 883.574L156.158 872.785Z" fill="#C2F397"/>
<path d="M174.624 862L193.089 872.787H156.158L174.624 862Z" fill="#87DA8C"/>
<path d="M174.624 883.574L156.159 872.787L193.09 872.787L174.624 883.574Z" fill="#87DA8C"/>
<path d="M168.66 879.943L168.66 887.89L162.242 891.612L162.242 883.692L168.66 879.943Z" fill="#68C466"/>
<path d="M155.824 879.943L155.824 887.89L162.242 891.612L162.242 883.692L155.824 879.943Z" fill="#C2F397"/>
<path d="M162.242 876.194L168.66 879.943H155.824L162.242 876.194Z" fill="#87DA8C"/>
<path d="M162.242 883.692L155.824 879.943L168.66 879.943L162.242 883.692Z" fill="#87DA8C"/>
<path d="M180.254 872.901V880.281L174.004 876.591L180.254 872.901Z" fill="#68C466"/>
<path d="M180.256 872.902L180.256 880.849L186.674 884.572L186.674 876.651L180.256 872.902Z" fill="#C2F397"/>
<path d="M180.254 880.849V888.286L186.674 884.568L180.254 880.849Z" fill="#E3EDE4"/>
<path d="M200.477 889.027L200.477 896.649L194.059 900.373L194.059 892.776L200.477 889.027Z" fill="#68C466"/>
<path d="M187.641 889.027L187.641 896.649L194.059 900.373L194.059 892.776L187.641 889.027Z" fill="#C2F397"/>
<path d="M194.059 885.277L200.477 889.027H187.641L194.059 885.277Z" fill="#87DA8C"/>
<path d="M194.059 892.776L187.641 889.027L200.477 889.027L194.059 892.776Z" fill="#87DA8C"/>
<path d="M224.002 896.63L224.002 904.577L205.536 915.34L205.536 907.419L224.002 896.63Z" fill="#68C466"/>
<path d="M187.07 896.63L187.07 904.577L205.536 915.34L205.536 907.419L187.07 896.63Z" fill="#C2F397"/>
<path d="M205.536 885.845L224.001 896.632H187.07L205.536 885.845Z" fill="#87DA8C"/>
<path d="M205.536 907.419L187.071 896.632L224.002 896.632L205.536 907.419Z" fill="#87DA8C"/>
<path d="M199.74 896.632V904.013L205.99 900.323L199.74 896.632Z" fill="#C2F397"/>
<path d="M199.74 904.467V911.904L193.32 908.186L199.74 904.467Z" fill="#E3EDE4"/>
<path d="M199.738 896.634L199.738 904.581L193.32 908.303L193.32 900.383L199.738 896.634Z" fill="#68C466"/>
<path d="M124.004 896.63L124.004 904.577L142.469 915.34L142.469 907.419L124.004 896.63Z" fill="#C2F397"/>
<path d="M160.936 896.63L160.936 904.577L142.47 915.34L142.47 907.419L160.936 896.63Z" fill="#68C466"/>
<path d="M142.47 885.845L124.004 896.632H160.936L142.47 885.845Z" fill="#87DA8C"/>
<path d="M142.469 907.419L160.935 896.632L124.004 896.632L142.469 907.419Z" fill="#87DA8C"/>
<path d="M148.268 889.252L141.849 893.001H154.686L148.268 889.252Z" fill="#F9F9FB"/>
<path d="M148.268 896.75L154.686 893.001L141.85 893.001L148.268 896.75Z" fill="#F9F9FB"/>
<path d="M148.15 889.308V896.689L141.901 892.999L148.15 889.308Z" fill="#68C466"/>
<path d="M148.434 903.788L148.434 911.735L154.852 915.458L154.852 907.537L148.434 903.788Z" fill="#C2F397"/>
<path d="M161.27 903.788L161.27 911.735L154.852 915.458L154.852 907.537L161.27 903.788Z" fill="#68C466"/>
<path d="M154.852 900.039L148.433 903.788H161.27L154.852 900.039Z" fill="#87DA8C"/>
<path d="M154.852 907.537L161.27 903.788L148.434 903.788L154.852 907.537Z" fill="#87DA8C"/>
<path d="M192.52 912.872L192.52 920.495L186.102 924.218L186.102 916.621L192.52 912.872Z" fill="#68C466"/>
<path d="M179.684 912.872L179.684 920.495L186.102 924.218L186.102 916.621L179.684 912.872Z" fill="#C2F397"/>
<path d="M186.102 909.123L192.52 912.872H179.684L186.102 909.123Z" fill="#87DA8C"/>
<path d="M186.102 916.621L179.683 912.872L192.52 912.872L186.102 916.621Z" fill="#87DA8C"/>
<path d="M192.752 920.475L192.752 928.422L174.286 939.185L174.286 931.264L192.752 920.475Z" fill="#68C466"/>
<path d="M155.82 920.475L155.82 928.422L174.286 939.185L174.286 931.264L155.82 920.475Z" fill="#C2F397"/>
<path d="M174.286 909.69L192.751 920.477H155.82L174.286 909.69Z" fill="#87DA8C"/>
<path d="M174.286 931.265L155.821 920.477L192.752 920.477L174.286 931.265Z" fill="#87DA8C"/>
<path d="M168.488 913.097L174.906 916.846H162.07L168.488 913.097Z" fill="#F9F9FB"/>
<path d="M168.488 920.595L162.07 916.846L174.906 916.846L168.488 920.595Z" fill="#F9F9FB"/>
<path d="M168.605 913.154V920.534L174.855 916.844L168.605 913.154Z" fill="#C2F397"/>
<defs>
<filter id="filter0_f_4501_714" x="185.932" y="903.444" width="39.2043" height="24.4146" filterUnits="userSpaceOnUse" color-interpolation-filters="sRGB">
<feFlood flood-opacity="0" result="BackgroundImageFix"/>
<feBlend mode="normal" in="SourceGraphic" in2="BackgroundImageFix" result="shape"/>
<feGaussianBlur stdDeviation="0.568172" result="effect1_foregroundBlur_4501_714"/>
</filter>
<filter id="filter1_f_4501_714" x="122.868" y="903.444" width="39.2043" height="24.4146" filterUnits="userSpaceOnUse" color-interpolation-filters="sRGB">
<feFlood flood-opacity="0" result="BackgroundImageFix"/>
<feBlend mode="normal" in="SourceGraphic" in2="BackgroundImageFix" result="shape"/>
<feGaussianBlur stdDeviation="0.568172" result="effect1_foregroundBlur_4501_714"/>
</filter>
<filter id="filter2_f_4501_714" x="155.25" y="880.735" width="39.2043" height="24.4146" filterUnits="userSpaceOnUse" color-interpolation-filters="sRGB">
<feFlood flood-opacity="0" result="BackgroundImageFix"/>
<feBlend mode="normal" in="SourceGraphic" in2="BackgroundImageFix" result="shape"/>
<feGaussianBlur stdDeviation="0.568172" result="effect1_foregroundBlur_4501_714"/>
</filter>
<filter id="filter3_f_4501_714" x="154.684" y="926.722" width="39.2043" height="24.4146" filterUnits="userSpaceOnUse" color-interpolation-filters="sRGB">
<feFlood flood-opacity="0" result="BackgroundImageFix"/>
<feBlend mode="normal" in="SourceGraphic" in2="BackgroundImageFix" result="shape"/>
<feGaussianBlur stdDeviation="0.568172" result="effect1_foregroundBlur_4501_714"/>
</filter>
</defs>
</svg>
