<svg width="347" height="997" viewBox="0 0 347 997" fill="none" xmlns="http://www.w3.org/2000/svg">
<path d="M95.4991 965.594C95.4829 965.318 95.2463 965.108 94.9706 965.124L90.4784 965.388C90.2027 965.405 89.9924 965.641 90.0086 965.917C90.0249 966.193 90.2615 966.403 90.5371 966.387L94.5302 966.152L94.7653 970.145C94.7815 970.42 95.0181 970.631 95.2938 970.615C95.5694 970.598 95.7797 970.362 95.7635 970.086L95.4991 965.594ZM73.9669 989.287L74.3406 989.619L73.9669 989.287ZM31.0128 0.5H28.5096V1.5H31.0128V0.5ZM23.5032 0.5H21V1.5H23.5032V0.5ZM21 0.5C20.093 0.5 19.1995 0.558937 18.3231 0.673246L18.4525 1.66485C19.286 1.55612 20.1363 1.5 21 1.5V0.5ZM13.1527 2.05575C11.4858 2.74697 9.93013 3.65165 8.51965 4.73555L9.12898 5.52847C10.471 4.49721 11.9507 3.63676 13.5358 2.97947L13.1527 2.05575ZM4.73555 8.51966C3.65165 9.93014 2.74697 11.4858 2.05575 13.1527L2.97947 13.5358C3.63676 11.9507 4.49721 10.471 5.52847 9.12898L4.73555 8.51966ZM0.673246 18.3231C0.558937 19.1995 0.5 20.093 0.5 21H1.5C1.5 20.1363 1.55612 19.286 1.66485 18.4525L0.673246 18.3231ZM0.5 21V23.487H1.5V21H0.5ZM0.5 28.4609V33.4349H1.5V28.4609H0.5ZM0.5 38.4089V43.3828H1.5V38.4089H0.5ZM0.5 48.3568V53.3307H1.5V48.3568H0.5ZM0.5 58.3047V63.2786H1.5V58.3047H0.5ZM0.5 68.2526V73.2266H1.5V68.2526H0.5ZM0.5 78.2005V83.1745H1.5V78.2005H0.5ZM0.5 88.1484V93.1224H1.5V88.1484H0.5ZM0.5 98.0964V103.07H1.5V98.0964H0.5ZM0.5 108.044V113.018H1.5V108.044H0.5ZM0.5 117.992V122.966H1.5V117.992H0.5ZM0.5 127.94V132.914H1.5V127.94H0.5ZM0.5 137.888V142.862H1.5V137.888H0.5ZM0.5 147.836V152.81H1.5V147.836H0.5ZM0.5 157.784V162.758H1.5V157.784H0.5ZM0.5 167.732V172.706H1.5V167.732H0.5ZM0.5 177.68V182.654H1.5V177.68H0.5ZM0.5 187.628V192.602H1.5V187.628H0.5ZM0.5 197.576V202.549H1.5V197.576H0.5ZM0.5 207.523V212.497H1.5V207.523H0.5ZM0.5 217.471V222.445H1.5V217.471H0.5ZM0.5 227.419V232.393H1.5V227.419H0.5ZM0.5 237.367V242.341H1.5V237.367H0.5ZM0.5 247.315V252.289H1.5V247.315H0.5ZM0.5 257.263V262.237H1.5V257.263H0.5ZM0.5 267.211V272.185H1.5V267.211H0.5ZM0.5 277.159V282.133H1.5V277.159H0.5ZM0.5 287.107V292.081H1.5V287.107H0.5ZM0.5 297.055V302.029H1.5V297.055H0.5ZM0.5 307.003V311.977H1.5V307.003H0.5ZM0.5 316.951V321.924H1.5V316.951H0.5ZM0.5 326.898V331.872H1.5V326.898H0.5ZM0.5 336.846V341.82H1.5V336.846H0.5ZM0.5 346.794V351.768H1.5V346.794H0.5ZM0.5 356.742V361.716H1.5V356.742H0.5ZM0.5 366.69V371.664H1.5V366.69H0.5ZM0.5 376.638V381.612H1.5V376.638H0.5ZM0.5 386.586V391.56H1.5V386.586H0.5ZM0.5 396.534V401.508H1.5V396.534H0.5ZM0.5 406.482V411.456H1.5V406.482H0.5ZM0.5 416.43V421.404H1.5V416.43H0.5ZM0.5 426.378V431.352H1.5V426.378H0.5ZM0.5 436.326V441.3H1.5V436.326H0.5ZM0.5 446.274V451.248H1.5V446.274H0.5ZM0.5 456.222V461.196H1.5V456.222H0.5ZM0.5 466.17V471.144H1.5V466.17H0.5ZM0.5 476.117V481.091H1.5V476.117H0.5ZM0.5 486.065V491.039H1.5V486.065H0.5ZM0.5 496.013V500.987H1.5V496.013H0.5ZM0.5 505.961V510.935H1.5V505.961H0.5ZM0.5 515.909V520.883H1.5V515.909H0.5ZM0.5 525.857V530.831H1.5V525.857H0.5ZM0.5 535.805V540.779H1.5V535.805H0.5ZM0.5 545.753V550.727H1.5V545.753H0.5ZM0.5 555.701V560.675H1.5V555.701H0.5ZM0.5 565.649V570.623H1.5V565.649H0.5ZM0.5 575.597V580.571H1.5V575.597H0.5ZM0.5 585.544V590.518H1.5V585.544H0.5ZM0.5 595.492V600.466H1.5V595.492H0.5ZM0.5 605.44V610.414H1.5V605.44H0.5ZM0.5 615.388V620.362H1.5V615.388H0.5ZM0.5 625.336V630.31H1.5V625.336H0.5ZM0.5 635.284V640.258H1.5V635.284H0.5ZM0.5 645.232V650.206H1.5V645.232H0.5ZM0.5 655.18V660.154H1.5V655.18H0.5ZM0.5 665.128V670.101H1.5V665.128H0.5ZM0.5 675.075V680.049H1.5V675.075H0.5ZM0.5 685.023V689.997H1.5V685.023H0.5ZM0.5 694.971V699.945H1.5V694.971H0.5ZM0.5 704.919V709.893H1.5V704.919H0.5ZM0.5 714.867V719.841H1.5V714.867H0.5ZM0.5 724.815V729.789H1.5V724.815H0.5ZM0.5 734.763V739.737H1.5V734.763H0.5ZM0.5 744.71V749.684H1.5V744.71H0.5ZM0.5 754.658V759.632H1.5V754.658H0.5ZM0.5 764.606V769.58H1.5V764.606H0.5ZM0.5 774.554V779.528H1.5V774.554H0.5ZM0.5 784.502V789.476H1.5V784.502H0.5ZM0.5 794.45V799.424H1.5V794.45H0.5ZM0.5 804.398V809.372H1.5V804.398H0.5ZM0.5 814.346V819.32H1.5V814.346H0.5ZM0.5 824.294V829.267H1.5V824.294H0.5ZM0.5 834.241V839.215H1.5V834.241H0.5ZM0.5 844.189V849.163H1.5V844.189H0.5ZM0.5 854.137V859.111H1.5V854.137H0.5ZM0.5 864.085V869.059H1.5V864.085H0.5ZM0.5 874.033V879.007H1.5V874.033H0.5ZM0.5 883.981V888.955H1.5V883.981H0.5ZM0.5 893.929V898.903H1.5V893.929H0.5ZM0.5 903.877V908.85H1.5V903.877H0.5ZM0.5 913.824V918.798H1.5V913.824H0.5ZM0.5 923.772V928.746H1.5V923.772H0.5ZM0.5 933.72V938.694H1.5V933.72H0.5ZM0.5 943.668V948.642H1.5V943.668H0.5ZM0.5 953.616V958.59H1.5V953.616H0.5ZM0.5 963.564V968.538H1.5V963.564H0.5ZM0.5 973.512V976H1.5V973.512H0.5ZM0.5 976C0.5 976.907 0.558937 977.801 0.673246 978.677L1.66485 978.547C1.55612 977.714 1.5 976.864 1.5 976H0.5ZM2.05575 983.847C2.74697 985.514 3.65165 987.07 4.73555 988.48L5.52847 987.871C4.49721 986.529 3.63676 985.049 2.97947 983.464L2.05575 983.847ZM8.51966 992.264C9.93014 993.348 11.4858 994.253 13.1527 994.944L13.5358 994.021C11.9507 993.363 10.471 992.503 9.12898 991.471L8.51966 992.264ZM18.3231 996.327C19.1995 996.441 20.093 996.5 21 996.5V995.5C20.1363 995.5 19.286 995.444 18.4525 995.335L18.3231 996.327ZM21 996.5H23.3761V995.5H21V996.5ZM28.1284 996.5H32.8807V995.5H28.1284V996.5ZM37.633 996.5H42.3853V995.5H37.633V996.5ZM47.1376 996.5H51.8899V995.5H47.1376V996.5ZM56.6422 996.5H59.0183V995.5H56.6422V996.5ZM59.0183 996.5C59.7432 996.5 60.4638 996.462 61.1775 996.386L61.0723 995.392C60.3934 995.463 59.7079 995.5 59.0183 995.5V996.5ZM65.4002 995.481C66.7718 995.032 68.0924 994.439 69.3395 993.712L68.8361 992.848C67.6498 993.539 66.3936 994.104 65.0888 994.531L65.4002 995.481ZM72.821 991.157C73.3516 990.674 73.859 990.161 74.3406 989.619L73.5932 988.955C73.1351 989.47 72.6524 989.958 72.1477 990.418L72.821 991.157ZM74.3406 989.619L76.0934 987.647L75.3459 986.983L73.5932 988.955L74.3406 989.619ZM79.5989 983.703L83.1044 979.759L82.357 979.095L78.8515 983.039L79.5989 983.703ZM86.6099 975.815L90.1154 971.871L89.368 971.207L85.8625 975.151L86.6099 975.815ZM93.621 967.927L95.3737 965.955L94.6263 965.291L92.8735 967.263L93.621 967.927Z" fill="#9F9F9F"/>
<path d="M251.501 966.18C251.517 965.904 251.754 965.694 252.029 965.71L256.522 965.973C256.797 965.989 257.008 966.225 256.991 966.501C256.975 966.777 256.739 966.987 256.463 966.971L252.47 966.737L252.237 970.731C252.22 971.006 251.984 971.217 251.708 971.201C251.433 971.184 251.222 970.948 251.238 970.672L251.501 966.18ZM272.534 989.293L272.16 989.625L272.534 989.293ZM315.987 227.5H318.49V228.5H315.987V227.5ZM323.497 227.5H326V228.5H323.497V227.5ZM326 227.5C326.907 227.5 327.801 227.559 328.677 227.673L328.548 228.665C327.714 228.556 326.864 228.5 326 228.5V227.5ZM333.847 229.056C335.514 229.747 337.07 230.652 338.48 231.736L337.871 232.528C336.529 231.497 335.049 230.637 333.464 229.979L333.847 229.056ZM342.264 235.52C343.348 236.93 344.253 238.486 344.944 240.153L344.021 240.536C343.363 238.951 342.503 237.471 341.472 236.129L342.264 235.52ZM346.327 245.323C346.441 246.199 346.5 247.093 346.5 248H345.5C345.5 247.136 345.444 246.286 345.335 245.452L346.327 245.323ZM346.5 248V250.493H345.5V248H346.5ZM346.5 255.479V260.466H345.5V255.479H346.5ZM346.5 265.452V270.438H345.5V265.452H346.5ZM346.5 275.425V280.411H345.5V275.425H346.5ZM346.5 285.397V290.384H345.5V285.397H346.5ZM346.5 295.37V300.356H345.5V295.37H346.5ZM346.5 305.342V310.329H345.5V305.342H346.5ZM346.5 315.315V320.301H345.5V315.315H346.5ZM346.5 325.288V330.274H345.5V325.288H346.5ZM346.5 335.26V340.247H345.5V335.26H346.5ZM346.5 345.233V350.219H345.5V345.233H346.5ZM346.5 355.205V360.192H345.5V355.205H346.5ZM346.5 365.178V370.164H345.5V365.178H346.5ZM346.5 375.151V380.137H345.5V375.151H346.5ZM346.5 385.123V390.11H345.5V385.123H346.5ZM346.5 395.096V400.082H345.5V395.096H346.5ZM346.5 405.068V410.055H345.5V405.068H346.5ZM346.5 415.041V420.027H345.5V415.041H346.5ZM346.5 425.014V430H345.5V425.014H346.5ZM346.5 434.986V439.973H345.5V434.986H346.5ZM346.5 444.959V449.945H345.5V444.959H346.5ZM346.5 454.931V459.918H345.5V454.931H346.5ZM346.5 464.904V469.89H345.5V464.904H346.5ZM346.5 474.877V479.863H345.5V474.877H346.5ZM346.5 484.849V489.835H345.5V484.849H346.5ZM346.5 494.822V499.808H345.5V494.822H346.5ZM346.5 504.794V509.781H345.5V504.794H346.5ZM346.5 514.767V519.753H345.5V514.767H346.5ZM346.5 524.74V529.726H345.5V524.74H346.5ZM346.5 534.712V539.698H345.5V534.712H346.5ZM346.5 544.685V549.671H345.5V544.685H346.5ZM346.5 554.657V559.644H345.5V554.657H346.5ZM346.5 564.63V569.616H345.5V564.63H346.5ZM346.5 574.603V579.589H345.5V574.603H346.5ZM346.5 584.575V589.561H345.5V584.575H346.5ZM346.5 594.548V599.534H345.5V594.548H346.5ZM346.5 604.52V609.507H345.5V604.52H346.5ZM346.5 614.493V619.479H345.5V614.493H346.5ZM346.5 624.466V629.452H345.5V624.466H346.5ZM346.5 634.438V639.424H345.5V634.438H346.5ZM346.5 644.411V649.397H345.5V644.411H346.5ZM346.5 654.383V659.37H345.5V654.383H346.5ZM346.5 664.356V669.342H345.5V664.356H346.5ZM346.5 674.328V679.315H345.5V674.328H346.5ZM346.5 684.301V689.287H345.5V684.301H346.5ZM346.5 694.274V699.26H345.5V694.274H346.5ZM346.5 704.246V709.233H345.5V704.246H346.5ZM346.5 714.219V719.205H345.5V714.219H346.5ZM346.5 724.191V729.178H345.5V724.191H346.5ZM346.5 734.164V739.15H345.5V734.164H346.5ZM346.5 744.137V749.123H345.5V744.137H346.5ZM346.5 754.109V759.096H345.5V754.109H346.5ZM346.5 764.082V769.068H345.5V764.082H346.5ZM346.5 774.055V779.041H345.5V774.055H346.5ZM346.5 784.027V789.013H345.5V784.027H346.5ZM346.5 794V798.986H345.5V794H346.5ZM346.5 803.972V808.959H345.5V803.972H346.5ZM346.5 813.945V818.931H345.5V813.945H346.5ZM346.5 823.918V828.904H345.5V823.918H346.5ZM346.5 833.89V838.877H345.5V833.89H346.5ZM346.5 843.863V848.849H345.5V843.863H346.5ZM346.5 853.836V858.822H345.5V853.836H346.5ZM346.5 863.808V868.795H345.5V863.808H346.5ZM346.5 873.781V878.767H345.5V873.781H346.5ZM346.5 883.754V888.74H345.5V883.754H346.5ZM346.5 893.726V898.713H345.5V893.726H346.5ZM346.5 903.699V908.685H345.5V903.699H346.5ZM346.5 913.672V918.658H345.5V913.672H346.5ZM346.5 923.644V928.631H345.5V923.644H346.5ZM346.5 933.617V938.603H345.5V933.617H346.5ZM346.5 943.59V948.576H345.5V943.59H346.5ZM346.5 953.562V958.549H345.5V953.562H346.5ZM346.5 963.535V968.521H345.5V963.535H346.5ZM346.5 973.508V976H345.5V973.508H346.5ZM346.5 976C346.5 976.907 346.441 977.801 346.327 978.677L345.335 978.547C345.444 977.714 345.5 976.864 345.5 976H346.5ZM344.944 983.847C344.253 985.514 343.348 987.07 342.264 988.48L341.472 987.871C342.503 986.529 343.363 985.049 344.021 983.464L344.944 983.847ZM338.48 992.264C337.07 993.348 335.514 994.253 333.847 994.944L333.464 994.021C335.049 993.363 336.529 992.503 337.871 991.472L338.48 992.264ZM328.677 996.327C327.801 996.441 326.907 996.5 326 996.5V995.5C326.864 995.5 327.714 995.444 328.548 995.335L328.677 996.327ZM326 996.5H323.592V995.5H326V996.5ZM318.777 996.5H313.962V995.5H318.777V996.5ZM309.146 996.5H304.331V995.5H309.146V996.5ZM299.515 996.5H294.7V995.5H299.515V996.5ZM289.885 996.5H287.477V995.5H289.885V996.5ZM287.477 996.5C286.752 996.5 286.032 996.462 285.319 996.386L285.424 995.392C286.103 995.464 286.788 995.5 287.477 995.5V996.5ZM281.098 995.482C279.727 995.033 278.407 994.441 277.16 993.715L277.663 992.851C278.849 993.541 280.105 994.105 281.409 994.532L281.098 995.482ZM273.679 991.162C273.149 990.679 272.642 990.166 272.16 989.625L272.907 988.96C273.365 989.475 273.848 989.963 274.353 990.422L273.679 991.162ZM272.16 989.625L270.449 987.701L271.196 987.037L272.907 988.96L272.16 989.625ZM267.027 983.854L263.604 980.007L264.352 979.342L267.774 983.189L267.027 983.854ZM260.182 976.16L256.76 972.312L257.507 971.648L260.929 975.495L260.182 976.16ZM253.338 968.465L251.626 966.541L252.374 965.877L254.085 967.8L253.338 968.465Z" fill="#9F9F9F"/>
<path d="M95.0434 862.498C95.3185 862.474 95.5221 862.232 95.4981 861.957L95.1073 857.474C95.0833 857.198 94.8408 856.995 94.5657 857.019C94.2906 857.043 94.0871 857.285 94.1111 857.56L94.4585 861.545L90.4736 861.893C90.1985 861.917 89.9949 862.159 90.0189 862.434C90.0429 862.709 90.2853 862.913 90.5604 862.889L95.0434 862.498ZM74.5876 844.861L74.2661 845.244L74.5876 844.861ZM31 454.5C30.099 454.5 29.2182 454.588 28.3659 454.757L28.5599 455.738C29.3487 455.582 30.1645 455.5 31 455.5V454.5ZM23.4988 456.774C22.0269 457.76 20.7596 459.027 19.7742 460.499L20.6051 461.055C21.5179 459.692 22.6918 458.518 24.0552 457.605L23.4988 456.774ZM17.7569 465.366C17.5883 466.218 17.5 467.099 17.5 468H18.5C18.5 467.165 18.5819 466.349 18.7379 465.56L17.7569 465.366ZM17.5 468V470.516H18.5V468H17.5ZM17.5 475.547V480.578H18.5V475.547H17.5ZM17.5 485.609V490.64H18.5V485.609H17.5ZM17.5 495.671V500.702H18.5V495.671H17.5ZM17.5 505.733V510.765H18.5V505.733H17.5ZM17.5 515.796V520.827H18.5V515.796H17.5ZM17.5 525.858V530.889H18.5V525.858H17.5ZM17.5 535.92V540.951H18.5V535.92H17.5ZM17.5 545.982V551.013H18.5V545.982H17.5ZM17.5 556.045V561.076H18.5V556.045H17.5ZM17.5 566.107V571.138H18.5V566.107H17.5ZM17.5 576.169V581.2H18.5V576.169H17.5ZM17.5 586.231V591.262H18.5V586.231H17.5ZM17.5 596.294V601.325H18.5V596.294H17.5ZM17.5 606.356V611.387H18.5V606.356H17.5ZM17.5 616.418V621.449H18.5V616.418H17.5ZM17.5 626.48V631.511H18.5V626.48H17.5ZM17.5 636.542V641.574H18.5V636.542H17.5ZM17.5 646.605V651.636H18.5V646.605H17.5ZM17.5 656.667V661.698H18.5V656.667H17.5ZM17.5 666.729V671.76H18.5V666.729H17.5ZM17.5 676.791V681.822H18.5V676.791H17.5ZM17.5 686.854V691.885H18.5V686.854H17.5ZM17.5 696.916V701.947H18.5V696.916H17.5ZM17.5 706.978V712.009H18.5V706.978H17.5ZM17.5 717.04V722.071H18.5V717.04H17.5ZM17.5 727.102V732.134H18.5V727.102H17.5ZM17.5 737.165V742.196H18.5V737.165H17.5ZM17.5 747.227V752.258H18.5V747.227H17.5ZM17.5 757.289V762.32H18.5V757.289H17.5ZM17.5 767.352V772.383H18.5V767.352H17.5ZM17.5 777.414V782.445H18.5V777.414H17.5ZM17.5 787.476V792.507H18.5V787.476H17.5ZM17.5 797.538V802.569H18.5V797.538H17.5ZM17.5 807.601V812.632H18.5V807.601H17.5ZM17.5 817.663V820.178H18.5V817.663H17.5ZM17.5 820.178C17.5 821.085 17.5589 821.979 17.6732 822.855L18.6648 822.726C18.5561 821.892 18.5 821.042 18.5 820.178H17.5ZM19.0557 828.026C19.747 829.692 20.6517 831.248 21.7356 832.659L22.5285 832.049C21.4972 830.707 20.6368 829.228 19.9795 827.643L19.0557 828.026ZM25.5197 836.443C26.9301 837.527 28.4859 838.431 30.1527 839.123L30.5358 838.199C28.9507 837.542 27.471 836.681 26.129 835.65L25.5197 836.443ZM35.3231 840.505C36.1995 840.619 37.093 840.678 38 840.678V839.678C37.1363 839.678 36.286 839.622 35.4525 839.513L35.3231 840.505ZM38 840.678H40.9659V839.678H38V840.678ZM46.8977 840.678H52.8295V839.678H46.8977V840.678ZM58.7613 840.678H61.7272V839.678H58.7613V840.678ZM61.7272 840.678C62.8696 840.678 64.0028 840.779 65.1148 840.975L65.2886 839.99C64.1195 839.784 62.9281 839.678 61.7272 839.678V840.678ZM71.4811 843.293C72.4589 843.858 73.3913 844.51 74.2661 845.244L74.9092 844.478C73.9895 843.706 73.0093 843.021 71.9813 842.427L71.4811 843.293ZM74.2661 845.244L75.9672 846.672L76.6102 845.907L74.9092 844.478L74.2661 845.244ZM79.3692 849.529L82.7713 852.385L83.4143 851.62L80.0122 848.763L79.3692 849.529ZM86.1733 855.242L89.5754 858.098L90.2184 857.332L86.8164 854.476L86.1733 855.242ZM92.9775 860.955L94.6785 862.383L95.3215 861.617L93.6205 860.189L92.9775 860.955Z" fill="#9F9F9F"/>
<path d="M251.959 862.498C251.684 862.476 251.479 862.234 251.502 861.959L251.869 857.474C251.891 857.199 252.133 856.994 252.408 857.017C252.683 857.039 252.888 857.281 252.866 857.556L252.539 861.542L256.526 861.869C256.801 861.891 257.006 862.133 256.983 862.408C256.961 862.683 256.719 862.888 256.444 862.866L251.959 862.498ZM272.392 844.695L272.068 844.314L272.392 844.695ZM316 681.5C316.901 681.5 317.782 681.588 318.634 681.757L318.44 682.738C317.651 682.582 316.835 682.5 316 682.5V681.5ZM323.501 683.774C324.973 684.76 326.24 686.027 327.226 687.499L326.395 688.055C325.482 686.692 324.308 685.518 322.945 684.605L323.501 683.774ZM329.243 692.366C329.412 693.218 329.5 694.099 329.5 695H328.5C328.5 694.165 328.418 693.349 328.262 692.56L329.243 692.366ZM329.5 695V697.603H328.5V695H329.5ZM329.5 702.809V708.015H328.5V702.809H329.5ZM329.5 713.221V718.427H328.5V713.221H329.5ZM329.5 723.633V728.839H328.5V723.633H329.5ZM329.5 734.045V739.251H328.5V734.045H329.5ZM329.5 744.457V749.663H328.5V744.457H329.5ZM329.5 754.869V760.075H328.5V754.869H329.5ZM329.5 765.281V770.487H328.5V765.281H329.5ZM329.5 775.693V780.899H328.5V775.693H329.5ZM329.5 786.106V791.312H328.5V786.106H329.5ZM329.5 796.518V801.724H328.5V796.518H329.5ZM329.5 806.93V812.136H328.5V806.93H329.5ZM329.5 817.342V819.945H328.5V817.342H329.5ZM329.5 819.945C329.5 820.852 329.441 821.745 329.327 822.622L328.335 822.492C328.444 821.659 328.5 820.808 328.5 819.945H329.5ZM327.944 827.792C327.253 829.459 326.348 831.015 325.264 832.425L324.472 831.816C325.503 830.474 326.363 828.994 327.021 827.409L327.944 827.792ZM321.48 836.209C320.07 837.293 318.514 838.198 316.847 838.889L316.464 837.965C318.049 837.308 319.529 836.447 320.871 835.416L321.48 836.209ZM311.677 840.271C310.801 840.386 309.907 840.445 309 840.445V839.445C309.864 839.445 310.714 839.389 311.548 839.28L311.677 840.271ZM309 840.445H306.042V839.445H309V840.445ZM300.125 840.445H294.208V839.445H300.125V840.445ZM288.291 840.445H285.332V839.445H288.291V840.445ZM285.332 840.445C284.181 840.445 283.04 840.546 281.919 840.746L281.744 839.761C282.922 839.552 284.122 839.445 285.332 839.445V840.445ZM275.512 843.098C274.529 843.671 273.593 844.332 272.715 845.077L272.068 844.314C272.991 843.531 273.975 842.836 275.008 842.234L275.512 843.098ZM272.715 845.077L271.016 846.519L270.369 845.756L272.068 844.314L272.715 845.077ZM267.617 849.403L264.219 852.287L263.572 851.524L266.97 848.64L267.617 849.403ZM260.82 855.171L257.421 858.055L256.774 857.293L260.173 854.409L260.82 855.171ZM254.023 860.939L252.324 862.381L251.676 861.619L253.376 860.177L254.023 860.939Z" fill="#9F9F9F"/>
<g filter="url(#filter0_f_4503_715)">
<path d="M235.999 932.806L213.101 946.168L206.055 941.948L213.805 937.377L206.055 932.806L197.953 937.377L190.203 932.806L198.658 927.884L190.908 923.313L198.658 918.742L206.408 923.313L213.101 919.445L235.999 932.806Z" fill="#E3EDE4"/>
</g>
<g filter="url(#filter1_f_4503_715)">
<path d="M112.001 932.806L134.899 946.168L141.945 941.948L134.195 937.377L141.945 932.806L150.047 937.377L157.797 932.806L149.342 927.884L157.092 923.313L149.342 918.742L141.592 923.313L134.899 919.445L112.001 932.806Z" fill="#E3EDE4"/>
</g>
<g filter="url(#filter2_f_4503_715)">
<path d="M152.158 903.974L175.055 890.613L197.953 903.974L190.203 908.545L182.101 903.974L174.351 908.545L182.101 913.116L175.055 917.335L168.362 913.468L160.26 918.039L152.51 913.468L160.26 908.897L152.158 903.974Z" fill="#E3EDE4"/>
</g>
<g filter="url(#filter3_f_4503_715)">
<path d="M197.249 961.639L174.351 975L151.453 961.639L159.203 957.068L167.305 961.639L175.055 957.068L167.305 952.497L174.351 948.277L181.044 952.145L189.146 947.574L196.896 952.145L189.146 956.716L197.249 961.639Z" fill="#E3EDE4"/>
</g>
<path d="M197.668 879.358L197.668 889.202L174.77 902.533L174.77 892.722L197.668 879.358Z" fill="#68C466"/>
<path d="M151.871 879.358L151.871 889.202L174.769 902.533L174.769 892.722L151.871 879.358Z" fill="#C2F397"/>
<path d="M174.769 866L197.667 879.361H151.871L174.769 866Z" fill="#87DA8C"/>
<path d="M174.77 892.723L151.873 879.361L197.668 879.361L174.77 892.723Z" fill="#87DA8C"/>
<path d="M167.375 888.225L167.375 898.068L159.417 902.679L159.417 892.869L167.375 888.225Z" fill="#68C466"/>
<path d="M151.457 888.225L151.457 898.068L159.416 902.679L159.416 892.869L151.457 888.225Z" fill="#C2F397"/>
<path d="M159.416 883.581L167.374 888.225H151.457L159.416 883.581Z" fill="#87DA8C"/>
<path d="M159.417 892.869L151.458 888.225L167.375 888.225L159.417 892.869Z" fill="#87DA8C"/>
<path d="M181.75 879.502V888.644L174 884.073L181.75 879.502Z" fill="#68C466"/>
<path d="M181.754 879.504L181.754 889.347L189.712 893.958L189.712 884.147L181.754 879.504Z" fill="#C2F397"/>
<path d="M181.75 889.347V898.559L189.711 893.953L181.75 889.347Z" fill="#E3EDE4"/>
<path d="M206.828 899.476L206.828 908.918L198.87 913.53L198.87 904.12L206.828 899.476Z" fill="#68C466"/>
<path d="M190.91 899.476L190.91 908.918L198.869 913.53L198.869 904.12L190.91 899.476Z" fill="#C2F397"/>
<path d="M198.869 894.832L206.827 899.476H190.91L198.869 894.832Z" fill="#87DA8C"/>
<path d="M198.87 904.12L190.911 899.476L206.828 899.476L198.87 904.12Z" fill="#87DA8C"/>
<path d="M236 908.894L236 918.737L213.102 932.068L213.102 922.258L236 908.894Z" fill="#68C466"/>
<path d="M190.205 908.894L190.205 918.737L213.103 932.068L213.103 922.258L190.205 908.894Z" fill="#C2F397"/>
<path d="M213.103 895.535L236.001 908.897H190.205L213.103 895.535Z" fill="#87DA8C"/>
<path d="M213.102 922.258L190.205 908.897L236 908.897L213.102 922.258Z" fill="#87DA8C"/>
<path d="M205.916 908.897V918.039L213.666 913.468L205.916 908.897Z" fill="#C2F397"/>
<path d="M205.916 918.601V927.814L197.955 923.207L205.916 918.601Z" fill="#E3EDE4"/>
<path d="M205.914 908.898L205.914 918.742L197.956 923.353L197.956 913.542L205.914 908.898Z" fill="#68C466"/>
<path d="M112 908.894L112 918.737L134.898 932.068L134.898 922.258L112 908.894Z" fill="#C2F397"/>
<path d="M157.797 908.894L157.797 918.737L134.899 932.068L134.899 922.258L157.797 908.894Z" fill="#68C466"/>
<path d="M134.899 895.535L112.001 908.897H157.797L134.899 895.535Z" fill="#87DA8C"/>
<path d="M134.898 922.258L157.795 908.897L112 908.897L134.898 922.258Z" fill="#87DA8C"/>
<path d="M142.088 899.755L134.13 904.399H150.047L142.088 899.755Z" fill="#F9F9FB"/>
<path d="M142.087 909.043L150.046 904.399L134.129 904.399L142.087 909.043Z" fill="#F9F9FB"/>
<path d="M141.943 899.825V908.967L134.193 904.396L141.943 899.825Z" fill="#68C466"/>
<path d="M142.293 917.76L142.293 927.604L150.251 932.214L150.251 922.404L142.293 917.76Z" fill="#C2F397"/>
<path d="M158.211 917.76L158.211 927.604L150.252 932.214L150.252 922.404L158.211 917.76Z" fill="#68C466"/>
<path d="M150.252 913.116L142.294 917.76H158.211L150.252 913.116Z" fill="#87DA8C"/>
<path d="M150.251 922.404L158.21 917.76L142.293 917.76L150.251 922.404Z" fill="#87DA8C"/>
<path d="M196.965 929.012L196.965 938.454L189.006 943.066L189.006 933.656L196.965 929.012Z" fill="#68C466"/>
<path d="M181.047 929.012L181.047 938.454L189.005 943.066L189.005 933.656L181.047 929.012Z" fill="#C2F397"/>
<path d="M189.005 924.368L196.964 929.012H181.047L189.005 924.368Z" fill="#87DA8C"/>
<path d="M189.006 933.656L181.048 929.012L196.965 929.012L189.006 933.656Z" fill="#87DA8C"/>
<path d="M197.25 938.429L197.25 948.273L174.352 961.604L174.352 951.793L197.25 938.429Z" fill="#68C466"/>
<path d="M151.455 938.429L151.455 948.273L174.353 961.604L174.353 951.793L151.455 938.429Z" fill="#C2F397"/>
<path d="M174.353 925.071L197.251 938.432H151.455L174.353 925.071Z" fill="#87DA8C"/>
<path d="M174.352 951.794L151.455 938.432L197.25 938.432L174.352 951.794Z" fill="#87DA8C"/>
<path d="M167.164 929.29L175.122 933.934H159.205L167.164 929.29Z" fill="#F9F9FB"/>
<path d="M167.163 938.578L159.204 933.934L175.121 933.934L167.163 938.578Z" fill="#F9F9FB"/>
<path d="M167.309 929.361V938.503L175.059 933.932L167.309 929.361Z" fill="#C2F397"/>
<defs>
<filter id="filter0_f_4503_715" x="188.794" y="917.333" width="48.6131" height="30.244" filterUnits="userSpaceOnUse" color-interpolation-filters="sRGB">
<feFlood flood-opacity="0" result="BackgroundImageFix"/>
<feBlend mode="normal" in="SourceGraphic" in2="BackgroundImageFix" result="shape"/>
<feGaussianBlur stdDeviation="0.704545" result="effect1_foregroundBlur_4503_715"/>
</filter>
<filter id="filter1_f_4503_715" x="110.593" y="917.333" width="48.6131" height="30.244" filterUnits="userSpaceOnUse" color-interpolation-filters="sRGB">
<feFlood flood-opacity="0" result="BackgroundImageFix"/>
<feBlend mode="normal" in="SourceGraphic" in2="BackgroundImageFix" result="shape"/>
<feGaussianBlur stdDeviation="0.704545" result="effect1_foregroundBlur_4503_715"/>
</filter>
<filter id="filter2_f_4503_715" x="150.749" y="889.204" width="48.6131" height="30.244" filterUnits="userSpaceOnUse" color-interpolation-filters="sRGB">
<feFlood flood-opacity="0" result="BackgroundImageFix"/>
<feBlend mode="normal" in="SourceGraphic" in2="BackgroundImageFix" result="shape"/>
<feGaussianBlur stdDeviation="0.704545" result="effect1_foregroundBlur_4503_715"/>
</filter>
<filter id="filter3_f_4503_715" x="150.044" y="946.165" width="48.6131" height="30.244" filterUnits="userSpaceOnUse" color-interpolation-filters="sRGB">
<feFlood flood-opacity="0" result="BackgroundImageFix"/>
<feBlend mode="normal" in="SourceGraphic" in2="BackgroundImageFix" result="shape"/>
<feGaussianBlur stdDeviation="0.704545" result="effect1_foregroundBlur_4503_715"/>
</filter>
</defs>
</svg>
