<svg width="104" height="90" viewBox="0 0 104 90" fill="none" xmlns="http://www.w3.org/2000/svg">
<g filter="url(#filter0_f_2667_7045)">
<path d="M102 53.9355L83.5339 64.7226L77.8522 61.3161L84.1021 57.6258L77.8522 53.9355L71.3182 57.6258L65.0684 53.9355L71.8864 49.9613L65.6365 46.271L71.8864 42.5806L78.1363 46.271L83.5339 43.1484L102 53.9355Z" fill="#E3EDE4"/>
</g>
<g filter="url(#filter1_f_2667_7045)">
<path d="M2.00439 53.9355L20.47 64.7226L26.1517 61.3161L19.9018 57.6258L26.1517 53.9355L32.6857 57.6258L38.9355 53.9355L32.1175 49.9613L38.3674 46.271L32.1175 42.5806L25.8676 46.271L20.47 43.1484L2.00439 53.9355Z" fill="#E3EDE4"/>
</g>
<g filter="url(#filter2_f_2667_7045)">
<path d="M34.3872 30.658L52.8528 19.8709L71.3184 30.658L65.0685 34.3484L58.5345 30.658L52.2846 34.3484L58.5345 38.0387L52.8528 41.4451L47.4551 38.3226L40.9212 42.0129L34.6713 38.3226L40.9212 34.6322L34.3872 30.658Z" fill="#E3EDE4"/>
</g>
<g filter="url(#filter3_f_2667_7045)">
<path d="M70.7515 77.2129L52.2859 88L33.8203 77.2129L40.0702 73.5226L46.6042 77.2129L52.8541 73.5226L46.6042 69.8323L52.2859 66.4258L57.6835 69.5484L64.2175 65.8581L70.4674 69.5484L64.2175 73.2387L70.7515 77.2129Z" fill="#E3EDE4"/>
</g>
<path d="M71.0898 10.7846L71.0898 18.7316L52.6243 29.4944L52.6243 21.5741L71.0898 10.7846Z" fill="#68C466"/>
<path d="M34.1582 10.7846L34.1582 18.7316L52.6238 29.4944L52.6238 21.5741L34.1582 10.7846Z" fill="#C2F397"/>
<path d="M52.6238 0L71.0894 10.7871H34.1582L52.6238 0Z" fill="#87DA8C"/>
<path d="M52.6243 21.5742L34.1587 10.7871L71.0898 10.7871L52.6243 21.5742Z" fill="#87DA8C"/>
<path d="M46.6602 17.9429L46.6602 25.89L40.2421 29.6125L40.2421 21.6921L46.6602 17.9429Z" fill="#68C466"/>
<path d="M33.8242 17.9429L33.8242 25.89L40.2422 29.6125L40.2422 21.6921L33.8242 17.9429Z" fill="#C2F397"/>
<path d="M40.2422 14.1936L46.6603 17.9428H33.8242L40.2422 14.1936Z" fill="#87DA8C"/>
<path d="M40.2421 21.692L33.8241 17.9428L46.6602 17.9428L40.2421 21.692Z" fill="#87DA8C"/>
<path d="M58.2539 10.9006V18.2813L52.004 14.591L58.2539 10.9006Z" fill="#68C466"/>
<path d="M58.2559 10.902L58.2559 18.849L64.6739 22.5715L64.6739 14.6512L58.2559 10.902Z" fill="#C2F397"/>
<path d="M58.2539 18.849V26.2864L64.6742 22.5677L58.2539 18.849Z" fill="#E3EDE4"/>
<path d="M78.4766 27.0266L78.4766 34.6494L72.0585 38.3731L72.0585 30.7759L78.4766 27.0266Z" fill="#68C466"/>
<path d="M65.6406 27.0266L65.6406 34.6494L72.0587 38.3731L72.0587 30.7759L65.6406 27.0266Z" fill="#C2F397"/>
<path d="M72.0587 23.2774L78.4767 27.0266H65.6406L72.0587 23.2774Z" fill="#87DA8C"/>
<path d="M72.0585 30.7758L65.6405 27.0266L78.4766 27.0266L72.0585 30.7758Z" fill="#87DA8C"/>
<path d="M102.002 34.6296L102.002 42.5767L83.5364 53.3395L83.5364 45.4192L102.002 34.6296Z" fill="#68C466"/>
<path d="M65.0703 34.6296L65.0703 42.5767L83.5359 53.3395L83.5359 45.4192L65.0703 34.6296Z" fill="#C2F397"/>
<path d="M83.5359 23.8451L102.001 34.6322H65.0703L83.5359 23.8451Z" fill="#87DA8C"/>
<path d="M83.5364 45.4193L65.0708 34.6322L102.002 34.6322L83.5364 45.4193Z" fill="#87DA8C"/>
<path d="M77.7402 34.6322V42.0129L83.9901 38.3226L77.7402 34.6322Z" fill="#C2F397"/>
<path d="M77.7402 42.4671V49.9045L71.3199 46.1858L77.7402 42.4671Z" fill="#E3EDE4"/>
<path d="M77.7383 34.6335L77.7383 42.5806L71.3203 46.3031L71.3203 38.3827L77.7383 34.6335Z" fill="#68C466"/>
<path d="M2.00391 34.6297L2.00391 42.5767L20.4695 53.3396L20.4695 45.4192L2.00391 34.6297Z" fill="#C2F397"/>
<path d="M38.9355 34.6297L38.9355 42.5767L20.47 53.3396L20.47 45.4192L38.9355 34.6297Z" fill="#68C466"/>
<path d="M20.47 23.8451L2.00439 34.6322H38.9355L20.47 23.8451Z" fill="#87DA8C"/>
<path d="M20.4695 45.4193L38.9351 34.6322L2.00391 34.6322L20.4695 45.4193Z" fill="#87DA8C"/>
<path d="M26.2675 27.2516L19.8495 31.0008H32.6855L26.2675 27.2516Z" fill="#F9F9FB"/>
<path d="M26.2676 34.7501L32.6857 31.0008L19.8496 31.0008L26.2676 34.7501Z" fill="#F9F9FB"/>
<path d="M26.1504 27.3084V34.689L19.9005 30.9987L26.1504 27.3084Z" fill="#68C466"/>
<path d="M26.4336 41.788L26.4336 49.735L32.8516 53.4575L32.8516 45.5372L26.4336 41.788Z" fill="#C2F397"/>
<path d="M39.2695 41.788L39.2695 49.735L32.8515 53.4575L32.8515 45.5372L39.2695 41.788Z" fill="#68C466"/>
<path d="M32.8515 38.0386L26.4335 41.7879H39.2695L32.8515 38.0386Z" fill="#87DA8C"/>
<path d="M32.8516 45.5371L39.2696 41.7878L26.4336 41.7878L32.8516 45.5371Z" fill="#87DA8C"/>
<path d="M70.5195 50.8719L70.5195 58.4947L64.1015 62.2183L64.1015 54.6212L70.5195 50.8719Z" fill="#68C466"/>
<path d="M57.6836 50.8719L57.6836 58.4947L64.1016 62.2183L64.1016 54.6212L57.6836 50.8719Z" fill="#C2F397"/>
<path d="M64.1016 47.1226L70.5196 50.8718H57.6836L64.1016 47.1226Z" fill="#87DA8C"/>
<path d="M64.1015 54.621L57.6835 50.8718L70.5195 50.8718L64.1015 54.621Z" fill="#87DA8C"/>
<path d="M70.752 58.4749L70.752 66.4219L52.2864 77.1848L52.2864 69.2644L70.752 58.4749Z" fill="#68C466"/>
<path d="M33.8203 58.4749L33.8203 66.4219L52.2859 77.1848L52.2859 69.2644L33.8203 58.4749Z" fill="#C2F397"/>
<path d="M52.2859 47.6903L70.7515 58.4774H33.8203L52.2859 47.6903Z" fill="#87DA8C"/>
<path d="M52.2864 69.2645L33.8208 58.4774L70.752 58.4775L52.2864 69.2645Z" fill="#87DA8C"/>
<path d="M46.4883 51.0968L52.9064 54.846H40.0703L46.4883 51.0968Z" fill="#F9F9FB"/>
<path d="M46.4882 58.5953L40.0702 54.846L52.9063 54.846L46.4882 58.5953Z" fill="#F9F9FB"/>
<path d="M46.6055 51.1536V58.5342L52.8554 54.8439L46.6055 51.1536Z" fill="#C2F397"/>
<defs>
<filter id="filter0_f_2667_7045" x="63.932" y="41.4443" width="39.2043" height="24.4146" filterUnits="userSpaceOnUse" color-interpolation-filters="sRGB">
<feFlood flood-opacity="0" result="BackgroundImageFix"/>
<feBlend mode="normal" in="SourceGraphic" in2="BackgroundImageFix" result="shape"/>
<feGaussianBlur stdDeviation="0.568172" result="effect1_foregroundBlur_2667_7045"/>
</filter>
<filter id="filter1_f_2667_7045" x="0.867563" y="41.4443" width="39.2043" height="24.4146" filterUnits="userSpaceOnUse" color-interpolation-filters="sRGB">
<feFlood flood-opacity="0" result="BackgroundImageFix"/>
<feBlend mode="normal" in="SourceGraphic" in2="BackgroundImageFix" result="shape"/>
<feGaussianBlur stdDeviation="0.568172" result="effect1_foregroundBlur_2667_7045"/>
</filter>
<filter id="filter2_f_2667_7045" x="33.2504" y="18.7346" width="39.2043" height="24.4146" filterUnits="userSpaceOnUse" color-interpolation-filters="sRGB">
<feFlood flood-opacity="0" result="BackgroundImageFix"/>
<feBlend mode="normal" in="SourceGraphic" in2="BackgroundImageFix" result="shape"/>
<feGaussianBlur stdDeviation="0.568172" result="effect1_foregroundBlur_2667_7045"/>
</filter>
<filter id="filter3_f_2667_7045" x="32.684" y="64.7217" width="39.2043" height="24.4146" filterUnits="userSpaceOnUse" color-interpolation-filters="sRGB">
<feFlood flood-opacity="0" result="BackgroundImageFix"/>
<feBlend mode="normal" in="SourceGraphic" in2="BackgroundImageFix" result="shape"/>
<feGaussianBlur stdDeviation="0.568172" result="effect1_foregroundBlur_2667_7045"/>
</filter>
</defs>
</svg>
